<svg width="48" height="48" viewBox="0 0 48 48" fill="none" xmlns="http://www.w3.org/2000/svg">
<circle cx="24" cy="24" r="24" fill="#D3D6CD"/>
<path d="M34 33.375H14C12.625 33.375 11.5 32.25 11.5 30.875V17.125C11.5 15.75 12.625 14.625 14 14.625H34C35.375 14.625 36.5 15.75 36.5 17.125V30.875C36.5 32.25 35.375 33.375 34 33.375Z" fill="#607D8B"/>
<path d="M27.125 31.5C31.2671 31.5 34.625 28.1421 34.625 24C34.625 19.8579 31.2671 16.5 27.125 16.5C22.9829 16.5 19.625 19.8579 19.625 24C19.625 28.1421 22.9829 31.5 27.125 31.5Z" fill="#455A64"/>
<path d="M27.125 29.625C30.2316 29.625 32.75 27.1066 32.75 24C32.75 20.8934 30.2316 18.375 27.125 18.375C24.0184 18.375 21.5 20.8934 21.5 24C21.5 27.1066 24.0184 29.625 27.125 29.625Z" fill="#42A5F5"/>
<path d="M30.1244 22.125C29.3744 21.25 28.2494 20.75 27.1244 20.75C25.9994 20.75 24.8744 21.25 24.1244 22.125C23.8119 22.4375 23.8744 22.9375 24.1869 23.25C24.4994 23.5625 24.9994 23.5 25.3119 23.1875C26.2494 22.125 27.9994 22.125 28.9369 23.1875C29.1244 23.375 29.3119 23.4375 29.5619 23.4375C29.7494 23.4375 29.9369 23.375 30.1244 23.25C30.3744 23 30.4369 22.4375 30.1244 22.125V22.125Z" fill="#90CAF9"/>
<path d="M14 17.125H17.75V19H14V17.125Z" fill="#ADD8FB"/>
</svg>
