<svg width="48" height="48" viewBox="0 0 48 48" fill="none" xmlns="http://www.w3.org/2000/svg">
<circle cx="24" cy="24" r="24" fill="#D3D6CD"/>
<path d="M14.1418 34.2028C14.5927 34.2028 14.9583 33.9535 14.9583 33.6459C14.9583 33.3384 14.5927 33.0891 14.1418 33.0891C13.6908 33.0891 13.3252 33.3384 13.3252 33.6459C13.3252 33.9535 13.6908 34.2028 14.1418 34.2028Z" fill="#3AEC36"/>
<path d="M38.0625 30.8761L37.7559 30.6961C37.7325 30.6825 35.3902 29.2927 34.808 27.6061L34.6781 27.2325L34.4381 27.5461C34.4306 27.5559 34.0978 27.9675 33.1664 28.4503C32.4769 24.5255 30.1313 19.8398 27.0487 17.842C27.93 17.9133 28.8141 17.8402 29.6672 17.5298C30.1809 17.3433 29.9592 16.5061 29.4408 16.6955C28.7414 16.95 28.0406 17.0194 27.3412 16.9837C29.0583 15.4102 30.4064 12.9984 30.4064 11.235C30.4064 10.8113 30.4064 10.0223 29.7783 10.0223C29.5261 10.0223 29.3222 10.1798 29.0405 10.3973C28.6083 10.7306 27.9558 11.235 26.9972 11.235C26.632 11.235 25.9636 10.8497 25.4264 10.5403C24.7772 10.1667 24.3623 9.9375 24.0136 9.9375C23.4361 9.9375 22.5872 10.4044 21.8381 10.8164C21.5334 10.9837 21.1167 11.2134 21.0305 11.2355C19.9448 11.2355 19.3144 10.7348 18.8962 10.4034C18.6525 10.2094 18.4758 10.0687 18.24 10.0687C17.6222 10.0687 17.6222 10.8098 17.6222 11.6681C17.6222 13.3247 18.8841 15.5114 20.5364 16.9809C19.4953 17.0555 18.4688 17.37 17.7473 18.0689C17.3489 18.4542 17.9527 19.0655 18.3497 18.6811C18.9492 18.0998 19.7353 17.8509 20.5763 17.8027C20.6002 17.8884 20.6292 17.9728 20.6648 18.0558C17.1417 20.5875 14.6391 26.5992 14.6391 30.6577C14.6391 31.058 14.67 31.4203 14.7178 31.7616C13.8094 31.358 13.478 31.0041 13.4714 30.9961L13.2295 30.7172L13.1105 31.0688C12.5841 32.6175 10.2956 33.9609 10.2727 33.9745L9.9375 34.1691L10.2783 34.3533C10.3978 34.418 10.5164 34.4747 10.6359 34.5361L10.4203 34.6856L10.5342 36.1106L19.4653 38.0625L22.8516 35.8964C23.1933 35.8983 23.5392 35.8992 23.8912 35.8992L27.8494 38.0625L36.7973 35.25V33.7458L36.5606 33.6038C36.6788 33.5287 36.7969 33.4523 36.9145 33.3736L37.2281 33.1641L37.1592 33.1303L37.5581 33.0211L37.6256 31.4573L37.395 31.2938C37.5178 31.2202 37.6402 31.1452 37.763 31.0673L38.0625 30.8761ZM18.4748 11.6681C18.4748 11.46 18.4777 11.2978 18.4819 11.1717C18.5536 11.228 18.637 11.2894 18.7261 11.3527C18.9994 12.007 19.5164 12.9492 20.393 13.5427C21.458 14.2645 21.3164 13.4348 21.8845 12.6773C22.4527 11.9203 22.837 11.5238 23.7886 13.4709C24.2034 14.3198 24.8948 11.9475 25.552 11.6011C25.7259 11.6958 25.8994 11.7839 26.0695 11.8589C27.248 13.7752 27.7941 13.1775 28.8408 11.5847C29.1286 11.4159 29.3648 11.235 29.5528 11.0902C29.5538 11.1338 29.5547 11.182 29.5547 11.2359C29.5547 12.7406 28.3252 14.8987 26.8195 16.3064C26.7484 16.1257 26.6466 15.9588 26.5186 15.8128C25.9106 15.1242 24.9605 15.8878 24.51 16.3889C23.7108 16.132 22.4086 15.4247 21.5602 15.8297C21.3489 15.9277 21.1548 16.0592 20.9855 16.2192C19.598 14.9545 18.4748 13.1287 18.4748 11.6681ZM26.0705 16.8122C25.8603 16.7676 25.6513 16.7176 25.4438 16.6622C25.7053 16.4367 25.9453 16.358 26.0461 16.6931C26.0569 16.7297 26.0634 16.7714 26.0705 16.8122ZM22.508 17.1033C22.3528 17.0738 22.1934 17.047 22.0294 17.0259C21.905 16.948 21.7832 16.8659 21.6642 16.7798C22.0927 16.4925 22.8314 16.6453 23.5373 16.8848C23.1891 16.92 22.8455 16.9959 22.508 17.1033ZM22.7208 18.3408C22.4583 18.4064 22.1723 18.3802 21.9253 18.2817C22.0256 18.2288 22.1269 18.1828 22.2281 18.1364C22.3922 18.2156 22.5562 18.2817 22.7208 18.3408ZM14.0503 35.4277C12.9323 35.1039 11.8474 34.6749 10.8103 34.1466C11.4464 33.7284 12.832 32.7173 13.3955 31.5023C13.7817 31.8056 14.6733 32.3587 16.4095 32.7834C16.38 32.8312 16.3439 32.8823 16.3092 32.9325C14.827 32.5444 13.9842 32.0536 13.9706 32.0452L13.7663 31.9233L13.6683 32.1422C13.5394 32.4291 13.237 32.4722 13.0688 32.4722C13.0219 32.4722 12.9905 32.4689 12.9862 32.4684L12.8189 32.4441L12.758 32.6044C12.6333 32.9316 12.1214 33.3591 11.9339 33.4964L11.6208 33.7261L11.9789 33.8728C12.112 33.9272 12.1481 33.9773 12.15 33.9905C12.1547 34.0228 12.098 34.1081 12.0375 34.1573L11.7647 34.3772L12.082 34.5239C12.7322 34.8239 13.4686 35.0723 14.205 35.2772C14.1464 35.3348 14.0958 35.3841 14.0503 35.4277ZM17.8303 33.6811C18.4856 33.773 19.2117 33.8311 20.0048 33.8311H20.0053C20.1703 33.8311 20.3377 33.8283 20.5083 33.8231C20.5196 33.8585 20.5359 33.8921 20.5566 33.923C20.5983 33.9862 20.6545 34.0387 20.7258 34.0795L19.5295 35.1019C19.5067 35.1009 19.4839 35.1004 19.4611 35.1005C18.9281 35.1005 18.5306 35.2964 18.3398 35.6452C17.617 35.553 16.8975 35.4362 16.1827 35.295C16.7573 34.7836 17.3072 34.2451 17.8303 33.6811ZM12.5105 34.2422C12.5573 34.1536 12.5878 34.0462 12.5714 33.9291C12.5558 33.8233 12.5051 33.7259 12.4275 33.6525C12.638 33.472 12.9281 33.1936 13.0875 32.9053C13.4498 32.9002 13.7489 32.7628 13.9373 32.52C14.2547 32.6859 14.9695 33.0211 16.0256 33.3117C15.5939 33.8531 15.0122 34.4672 14.5598 34.9237C13.8548 34.7372 13.1447 34.5122 12.5105 34.2422ZM19.1906 36.2152L19.0945 36.2156C18.6909 36.2156 17.3536 36.1828 15.5869 35.8148C15.6487 35.7623 15.713 35.7084 15.7725 35.6569C17.2059 35.9564 18.3619 36.0848 18.4486 36.0947L18.6202 36.113L18.6731 35.9466C18.7889 35.5875 19.2159 35.5345 19.4606 35.5345C19.5277 35.5345 19.5722 35.5387 19.5773 35.5392L19.6683 35.5491L21.7463 33.7734L21.1908 33.7552C21.0052 33.7486 20.9269 33.7069 20.9077 33.6783L21.0253 33.3703L20.7 33.3839C20.4628 33.3942 20.2312 33.3994 20.0048 33.3994H20.0044C19.35 33.3994 18.743 33.3562 18.1819 33.2883L18.3122 33.1345C19.4447 33.2859 20.8008 33.3792 22.4381 33.3675C22.0472 33.9159 21.0722 35.0817 19.1906 36.2152ZM23.8894 34.1784V35.0339C23.6227 35.0339 23.363 35.033 23.1089 35.0311L23.0325 34.0683L22.3978 34.1198C22.8253 33.6145 23.0077 33.2775 23.0241 33.247L23.1961 32.9217L22.8328 32.9283C19.3556 32.992 17.0878 32.5777 15.6562 32.1173C15.5517 31.6945 15.4913 31.2164 15.4913 30.6581C15.4913 26.8505 17.9245 21.0952 21.1552 18.7627C21.7275 19.3162 22.5956 19.5586 23.4206 19.02C23.6016 18.9019 23.7591 18.7472 23.9067 18.5827C23.9419 18.5836 23.978 18.5916 24.0136 18.5916C24.1317 18.5916 24.2517 18.5817 24.3713 18.5667C24.5227 18.6272 24.6708 18.6881 24.8081 18.7486C25.4658 19.0383 26.0273 18.8583 26.4108 18.4589C29.37 20.2495 31.7409 24.9862 32.3648 28.815C31.012 29.3559 28.8661 29.8838 25.5727 29.9766C26.2223 29.6053 26.7098 28.9809 26.5345 28.1606C26.3503 27.2934 25.6256 27.0497 24.8752 27.0098C24.8733 26.6025 24.8733 26.1961 24.8761 25.7888C25.1062 25.8905 25.327 26.0077 25.5277 26.1328C25.882 26.3555 26.2027 25.7784 25.8506 25.5558C25.5454 25.3639 25.2196 25.2068 24.8794 25.0875C24.8841 24.6159 24.8864 24.1453 24.8864 23.6747C24.8869 23.2434 24.2461 23.2434 24.2461 23.6747C24.2461 24.0886 24.2433 24.502 24.2395 24.915C23.8985 24.8556 23.5502 24.8497 23.2073 24.8977C23.1516 24.5874 23.084 24.2793 23.0048 23.9742C22.8989 23.5589 22.2802 23.7347 22.3875 24.1514C22.4662 24.4509 22.5305 24.7491 22.5834 25.0514C22.5563 25.0617 22.5267 25.0669 22.5 25.0791C21.6319 25.4227 21.1022 26.2987 21.7373 27.1158C22.0331 27.4964 22.4198 27.6502 22.8431 27.7013C22.8661 28.2652 22.8806 28.8295 22.897 29.393C22.6134 29.2087 22.3552 28.9725 22.1213 28.7227C21.8316 28.417 21.3792 28.8891 21.6684 29.1942C22.0617 29.6128 22.4747 29.9292 22.9223 30.1317C22.9425 30.6131 22.9711 31.0959 23.018 31.575C23.0592 32.0002 23.7005 32.0025 23.6587 31.575C23.6192 31.1606 23.59 30.7453 23.5711 30.3295C23.8148 30.3717 24.0708 30.3825 24.3427 30.3567C24.3731 30.8002 24.4087 31.2436 24.4594 31.687C24.4884 31.9411 24.7313 32.0409 24.9103 31.9894L24.8705 32.91C24.5883 32.9353 24.3005 32.9587 24.0005 32.9784L23.6433 33.0019L23.8336 33.3094C23.8528 33.3403 24.0689 33.682 24.5512 34.1794H23.8894V34.1784ZM35.5556 31.0931C34.9664 31.3702 34.2211 31.6242 33.4617 31.8459C32.9948 31.3636 32.3977 30.72 31.9519 30.1491C32.9452 29.8481 33.5011 29.5378 33.7519 29.3705C33.9502 29.5453 34.2127 29.6362 34.5234 29.6358C34.6266 29.6358 34.718 29.6259 34.7883 29.6147C35.0133 29.9062 35.3761 30.2428 35.603 30.4439C35.4956 30.5541 35.4436 30.6759 35.4478 30.8077C35.4516 30.9202 35.4966 31.0158 35.5556 31.0931ZM32.2017 32.6334C32.2973 32.7178 32.3962 32.8041 32.497 32.8912C30.5967 33.3952 29.1825 33.45 28.8745 33.4552C26.9067 32.2547 25.8867 30.9844 25.4934 30.4125C27.1402 30.3713 28.5014 30.2222 29.6367 30.0169C29.6829 30.0736 29.7296 30.1298 29.7769 30.1856C28.8644 30.3277 27.9447 30.419 27.022 30.4589L26.6437 30.4748L26.8519 30.7931C26.8514 30.7936 26.8092 30.8723 26.5298 30.9267L26.0756 31.0153L28.3088 32.8233L28.4128 32.7952C28.4152 32.7947 28.612 32.7417 28.8502 32.7417C29.1938 32.7417 29.4286 32.8462 29.5467 33.0506L29.6217 33.18L29.7675 33.1542C30.584 33.0054 31.3958 32.8317 32.2017 32.6334ZM25.5938 31.2558L25.0603 31.2267C25.0355 30.9605 25.0106 30.6942 24.9919 30.428C25.0856 30.5836 25.2778 30.8761 25.5938 31.2558ZM24.9338 29.5397C24.903 28.9087 24.8844 28.2772 24.878 27.6455C24.9548 27.6483 25.0308 27.6553 25.103 27.6656C25.9317 27.7913 26.1483 28.7128 25.5014 29.2313C25.3327 29.3648 25.1381 29.4628 24.9338 29.5397ZM29.827 32.7047C29.617 32.4455 29.2828 32.3095 28.8506 32.3095C28.6702 32.3095 28.5112 32.3339 28.4109 32.3536L27.007 31.2159C27.1238 31.1489 27.2025 31.0641 27.2456 30.96C27.2562 30.9341 27.2644 30.9073 27.27 30.8798C28.3828 30.8189 29.3203 30.7078 30.113 30.5719C30.4973 31.0008 31.0622 31.5923 31.8113 32.28C30.8911 32.4989 30.1238 32.6489 29.827 32.7047ZM24.2367 27.6623C24.2456 28.3416 24.2625 29.0227 24.2986 29.7014C24.2381 29.7108 24.1786 29.7225 24.1191 29.7286C23.9175 29.7516 23.7262 29.7347 23.5444 29.6888C23.5214 29.0325 23.5064 28.3748 23.4816 27.7181C23.7337 27.7064 23.9892 27.6816 24.2367 27.6623ZM23.4492 27.0694C23.4199 26.5543 23.3715 26.0405 23.3039 25.5291C23.6146 25.4864 23.9306 25.5024 24.2353 25.5764C24.232 26.0556 24.2312 26.5348 24.233 27.0141C24.0272 27.0253 23.8317 27.045 23.6597 27.0605C23.5897 27.0659 23.5195 27.0689 23.4492 27.0694ZM22.8061 26.9873C22.7662 26.9766 22.7269 26.9681 22.6861 26.9545C22.4985 26.891 22.3287 26.7838 22.1906 26.6419C21.7903 26.2683 22.3397 25.9017 22.6861 25.7278C22.7405 26.145 22.778 26.5659 22.8061 26.9873ZM27.9797 36.112C25.9448 35.0723 24.8531 33.9169 24.4195 33.3816C24.7312 33.3581 25.0261 33.33 25.3181 33.3005L28.6547 35.4661L35.9719 33.4561C32.1984 35.7305 28.4705 36.0769 27.9797 36.112ZM34.0228 32.4136C33.9628 32.3536 33.8911 32.2823 33.8062 32.1966C34.6388 31.9444 35.4441 31.6519 36.0445 31.3303L36.4097 31.1339L36.0394 30.9455C35.9564 30.9028 35.8753 30.8245 35.8739 30.795C35.8748 30.7837 35.9077 30.7237 36.0497 30.6422L36.3206 30.4866L36.0797 30.2859C36.0722 30.2798 35.3208 29.6559 35.0569 29.2542L34.9697 29.123L34.8202 29.1666C34.8188 29.1666 34.6903 29.2036 34.5234 29.2036C34.2656 29.2041 34.0725 29.1197 33.9487 28.9538L33.8119 28.7723L33.6403 28.92C33.6314 28.9275 33.1003 29.363 31.6758 29.7745C31.6289 29.707 31.5837 29.6382 31.5403 29.5683C33.2677 29.0447 34.1503 28.4109 34.5328 28.0641C35.1469 29.3925 36.6089 30.4627 37.2436 30.8822C36.224 31.4992 35.145 32.0122 34.0228 32.4136Z" fill="#3AEC36"/>
<path d="M29.8027 31.0861C29.3354 30.9591 28.8081 31.0458 28.6234 31.2779C28.4401 31.5108 28.6716 31.8043 29.1385 31.9322C29.6063 32.0593 30.1332 31.9721 30.3179 31.7396C30.5012 31.5066 30.2706 31.2141 29.8027 31.0861Z" fill="#3AEC36"/>
</svg>
