<svg width="48" height="48" viewBox="0 0 48 48" fill="none" xmlns="http://www.w3.org/2000/svg">
<circle cx="24" cy="24" r="24" fill="#D3D6CD"/>
<path d="M20.25 12C20.0511 12 19.8603 12.079 19.7197 12.2197C19.579 12.3603 19.5 12.5511 19.5 12.75C19.5 12.9489 19.579 13.1397 19.7197 13.2803C19.8603 13.421 20.0511 13.5 20.25 13.5H26.25C26.4489 13.5 26.6397 13.421 26.7803 13.2803C26.921 13.1397 27 12.9489 27 12.75C27 12.5511 26.921 12.3603 26.7803 12.2197C26.6397 12.079 26.4489 12 26.25 12H20.25Z" fill="#F9FE00"/>
<path d="M31.7338 14.8935C31.6646 14.8219 31.5819 14.7647 31.4904 14.7254C31.3989 14.6861 31.3004 14.6654 31.2009 14.6646C31.1013 14.6637 31.0025 14.6827 30.9103 14.7204C30.8182 14.7581 30.7344 14.8138 30.664 14.8842C30.5936 14.9546 30.5379 15.0384 30.5002 15.1306C30.4625 15.2227 30.4435 15.3215 30.4444 15.4211C30.4452 15.5207 30.4659 15.6191 30.5052 15.7106C30.5445 15.8021 30.6017 15.8848 30.6733 15.954L32.7943 18.075C32.8635 18.1467 32.9462 18.2038 33.0377 18.2431C33.1293 18.2824 33.2277 18.3031 33.3273 18.304C33.4268 18.3048 33.5256 18.2858 33.6178 18.2481C33.7099 18.2104 33.7937 18.1547 33.8641 18.0843C33.9345 18.0139 33.9902 17.9302 34.0279 17.838C34.0656 17.7458 34.0846 17.6471 34.0837 17.5475C34.0829 17.4479 34.0622 17.3495 34.0229 17.258C33.9836 17.1665 33.9264 17.0837 33.8548 17.0145L31.7338 14.895V14.8935Z" fill="#F9FE00"/>
<path d="M23.25 18C23.0511 18 22.8603 18.079 22.7197 18.2197C22.579 18.3603 22.5 18.5511 22.5 18.75V26.25C22.5 26.4489 22.579 26.6397 22.7197 26.7803C22.8603 26.921 23.0511 27 23.25 27C23.4489 27 23.6397 26.921 23.7803 26.7803C23.921 26.6397 24 26.4489 24 26.25V18.75C24 18.5511 23.921 18.3603 23.7803 18.2197C23.6397 18.079 23.4489 18 23.25 18Z" fill="#F9FE00"/>
<path d="M23.25 36C24.6289 36 25.9943 35.7284 27.2682 35.2007C28.5421 34.6731 29.6996 33.8996 30.6746 32.9246C31.6496 31.9496 32.4231 30.7921 32.9507 29.5182C33.4784 28.2443 33.75 26.8789 33.75 25.5C33.75 24.1211 33.4784 22.7557 32.9507 21.4818C32.4231 20.2079 31.6496 19.0504 30.6746 18.0754C29.6996 17.1004 28.5421 16.3269 27.2682 15.7993C25.9943 15.2716 24.6289 15 23.25 15C20.4652 15 17.7945 16.1062 15.8254 18.0754C13.8562 20.0445 12.75 22.7152 12.75 25.5C12.75 28.2848 13.8562 30.9555 15.8254 32.9246C17.7945 34.8938 20.4652 36 23.25 36ZM23.25 34.5C22.0681 34.5 20.8978 34.2672 19.8058 33.8149C18.7139 33.3626 17.7218 32.6997 16.886 31.864C16.0503 31.0282 15.3874 30.0361 14.9351 28.9442C14.4828 27.8522 14.25 26.6819 14.25 25.5C14.25 24.3181 14.4828 23.1478 14.9351 22.0558C15.3874 20.9639 16.0503 19.9718 16.886 19.136C17.7218 18.3003 18.7139 17.6374 19.8058 17.1851C20.8978 16.7328 22.0681 16.5 23.25 16.5C25.6369 16.5 27.9261 17.4482 29.614 19.136C31.3018 20.8239 32.25 23.1131 32.25 25.5C32.25 27.8869 31.3018 30.1761 29.614 31.864C27.9261 33.5518 25.6369 34.5 23.25 34.5Z" fill="#F9FE00"/>
</svg>
