<svg width="48" height="48" viewBox="0 0 48 48" fill="none" xmlns="http://www.w3.org/2000/svg">
<circle cx="24" cy="24" r="24" fill="#D3D6CD"/>
<path d="M25.7871 20.334C25.1104 20.334 24.5859 20.8584 24.5859 21.5059C24.5859 22.1533 25.1104 22.6777 25.7871 22.6777C26.4053 22.6777 26.9297 22.1533 26.9297 21.5059C26.9297 20.8584 26.4053 20.334 25.7871 20.334ZM17.584 20.334C16.9072 20.334 16.3828 20.8584 16.3828 21.5059C16.3828 22.1533 16.9072 22.6777 17.584 22.6777C18.2021 22.6777 18.7266 22.1533 18.7266 21.5059C18.7266 20.8584 18.2021 20.334 17.584 20.334Z" fill="#236CDB"/>
<path d="M35.191 18.1075C33.7818 16.1739 31.8131 14.8819 29.6539 14.2989V14.3018C29.1529 13.7451 28.5875 13.2325 27.9547 12.7754C23.1588 9.28909 16.4264 10.3526 12.9254 15.1485C10.1041 19.045 10.2242 24.2862 13.1012 28.0098L13.1246 31.8946C13.1246 31.9883 13.1393 32.0821 13.1686 32.17C13.3238 32.6651 13.8512 32.9375 14.3434 32.7823L18.0523 31.6133C19.0338 31.9619 20.0475 32.1612 21.0553 32.2168L21.0406 32.2285C23.651 34.1299 27.0729 34.7012 30.2105 33.6641L33.9342 34.877C34.0279 34.9063 34.1246 34.9239 34.2242 34.9239C34.7428 34.9239 35.1617 34.5049 35.1617 33.9864V30.0606C37.7428 26.5567 37.8102 21.7139 35.191 18.1075ZM18.4625 29.5332L18.1109 29.3867L15.2105 30.295L15.1812 27.2481L14.9469 26.9844C12.4684 23.961 12.3043 19.6045 14.6246 16.4082C17.4488 12.5352 22.8629 11.6797 26.7242 14.4746C30.5973 17.2901 31.4557 22.6953 28.6578 26.545C26.3111 29.7647 22.11 30.9541 18.4625 29.5332ZM33.2574 29.0352L33.023 29.3282L33.0523 32.375L30.1812 31.4082L29.8297 31.5547C28.1891 32.1641 26.44 32.2139 24.8199 31.7598L24.8141 31.7569C26.9791 31.0918 28.942 29.7442 30.357 27.8047C32.5953 24.7198 32.9586 20.8438 31.6578 17.5391L31.6754 17.5508C32.3492 18.0342 32.9674 18.6377 33.4918 19.3672C35.6187 22.2852 35.4986 26.2578 33.2574 29.0352Z" fill="#236CDB"/>
<path d="M21.6855 20.334C21.0088 20.334 20.4844 20.8584 20.4844 21.5059C20.4844 22.1533 21.0088 22.6777 21.6855 22.6777C22.3037 22.6777 22.8281 22.1533 22.8281 21.5059C22.8281 20.8584 22.3037 20.334 21.6855 20.334Z" fill="#236CDB"/>
</svg>
