<svg width="25" height="25" viewBox="0 0 25 25" fill="none" xmlns="http://www.w3.org/2000/svg">
<path d="M12.4998 1.38892C10.3022 1.38892 8.154 2.04057 6.32679 3.26148C4.49957 4.48238 3.07543 6.2177 2.23446 8.24799C1.39349 10.2783 1.17345 12.5124 1.60217 14.6677C2.0309 16.823 3.08913 18.8029 4.64305 20.3568C6.19696 21.9107 8.17677 22.9689 10.3321 23.3976C12.4875 23.8264 14.7215 23.6063 16.7518 22.7654C18.7821 21.9244 20.5174 20.5002 21.7383 18.673C22.9592 16.8458 23.6109 14.6976 23.6109 12.5C23.6109 9.55318 22.4403 6.72702 20.3565 4.64329C18.2728 2.55955 15.4466 1.38892 12.4998 1.38892ZM19.7567 8.77086L10.6317 17.8889L5.24284 12.5C5.05867 12.3158 4.9552 12.066 4.9552 11.8056C4.9552 11.5451 5.05867 11.2953 5.24284 11.1111C5.42702 10.927 5.67682 10.8235 5.93729 10.8235C6.19775 10.8235 6.44755 10.927 6.63173 11.1111L10.6456 15.125L18.3817 7.39586C18.4729 7.30466 18.5812 7.23232 18.7003 7.18297C18.8195 7.13361 18.9472 7.10821 19.0762 7.10821C19.2051 7.10821 19.3329 7.13361 19.452 7.18297C19.5712 7.23232 19.6794 7.30466 19.7706 7.39586C19.8618 7.48706 19.9342 7.59532 19.9835 7.71447C20.0329 7.83363 20.0583 7.96133 20.0583 8.0903C20.0583 8.21927 20.0329 8.34698 19.9835 8.46614C19.9342 8.58529 19.8618 8.69355 19.7706 8.78475L19.7567 8.77086Z" fill="#5D6057"/>
</svg>
