<svg width="35" height="35" viewBox="0 0 35 35" fill="none" xmlns="http://www.w3.org/2000/svg">
<path d="M0 11.7396C0 7.58705 0 5.51078 0.820944 3.9304C1.51274 2.59862 2.59862 1.51274 3.9304 0.820944C5.51078 0 7.58705 0 11.7396 0H23.2604C27.413 0 29.4892 0 31.0696 0.820944C32.4014 1.51274 33.4873 2.59862 34.1791 3.9304C35 5.51078 35 7.58705 35 11.7396V23.2604C35 27.413 35 29.4892 34.1791 31.0696C33.4873 32.4014 32.4014 33.4873 31.0696 34.1791C29.4892 35 27.413 35 23.2604 35H11.7396C7.58705 35 5.51078 35 3.9304 34.1791C2.59862 33.4873 1.51274 32.4014 0.820944 31.0696C0 29.4892 0 27.413 0 23.2604V11.7396Z" fill="#303030"/>
<g clip-path="url(#clip0)">
<path d="M27.9982 16.9996V16.9941C27.9982 13.7392 26.5811 10.816 24.3309 8.80588L24.3199 8.79671C24.2921 8.76675 24.2611 8.74 24.2273 8.71696L24.2255 8.71605C22.2269 6.96119 19.6568 5.99581 16.9973 6.001C14.2181 6.001 11.681 7.03312 9.74702 8.73621L9.75894 8.72613C9.73563 8.74381 9.71414 8.76377 9.69478 8.78571V8.78663C8.53211 9.81617 7.60146 11.081 6.96449 12.4974C6.32752 13.9138 5.99877 15.4493 6 17.0024C6 20.2564 7.41522 23.1795 9.66361 25.1906L9.67461 25.1997C9.70373 25.2328 9.7363 25.2626 9.77177 25.2887L9.7736 25.2896C11.7716 27.0418 14.3398 28.0058 16.9973 28.001C19.6672 28.0051 22.2463 27.0322 24.2484 25.2657L24.2365 25.2758C25.4193 24.2474 26.3674 22.9769 27.0167 21.5504C27.666 20.1238 28.0014 18.5743 28 17.0069V17.0005L27.9982 16.9996ZM23.9083 24.1539C23.3635 23.7131 22.7775 23.3257 22.1586 22.9971L22.099 22.9678C22.6609 21.3481 22.9991 19.4809 23.0312 17.5386V17.5239H26.9368C26.805 20.0368 25.7235 22.4057 23.9111 24.1511L23.9083 24.1539ZM17.5234 22.7744C18.6994 22.8376 19.7983 23.0961 20.8121 23.5168L20.7461 23.493C19.934 25.3446 18.791 26.6169 17.5234 26.8964V22.7744ZM17.5234 21.7257V17.5239H21.9853C21.9499 19.2639 21.6482 20.9882 21.0907 22.6369L21.1265 22.5168C19.9885 22.049 18.7782 21.7817 17.549 21.7266L17.5243 21.7257H17.5234ZM17.5234 16.4753V12.2735C18.7857 12.2159 20.0284 11.9395 21.1961 11.4568L21.1237 11.4833C21.6324 12.9674 21.945 14.6778 21.9853 16.456V16.4753H17.5234ZM17.5234 11.2249V7.10462C18.791 7.38419 19.934 8.65097 20.7461 10.5081C19.7983 10.9022 18.6994 11.1598 17.55 11.2239L17.5234 11.2249ZM20.1393 7.55835C21.2194 7.91861 22.2295 8.46183 23.1256 9.16428L23.1045 9.14778C22.6984 9.46676 22.2429 9.76742 21.7626 10.0287L21.7113 10.0543C21.3232 9.13836 20.7895 8.29116 20.1311 7.54551L20.1393 7.5556V7.55835ZM16.473 7.10737V11.2249C15.3423 11.1672 14.23 10.916 13.1842 10.4824L13.2502 10.5062C14.066 8.65463 15.2072 7.38327 16.4748 7.1037L16.473 7.10737ZM12.286 10.0516C11.7891 9.78424 11.3157 9.47547 10.8708 9.12853L10.8928 9.14503C11.7627 8.4632 12.7413 7.9327 13.7874 7.57576L13.857 7.55468C13.2158 8.28013 12.6933 9.10241 12.3089 9.99107L12.286 10.0507V10.0516ZM16.4748 12.2726V16.4744H12.0128C12.0532 14.6769 12.3657 12.9664 12.9102 11.3623L12.8744 11.4824C14.012 11.9494 15.2216 12.2164 16.45 12.2716L16.4748 12.2726ZM16.4748 17.523V21.7248C15.2125 21.7824 13.9698 22.0588 12.802 22.5415L12.8744 22.5149C12.3657 21.0318 12.0532 19.3205 12.0128 17.5422V17.523H16.4748ZM16.4748 22.7734V26.8937C15.2072 26.6141 14.0642 25.3473 13.2521 23.4902C14.1998 23.0961 15.2988 22.8394 16.4482 22.7753L16.4748 22.7744V22.7734ZM13.8625 26.4399C12.7827 26.0807 11.7726 25.5388 10.8763 24.8377L10.8983 24.8542C11.3043 24.5352 11.7599 24.2345 12.2401 23.9733L12.2915 23.9476C12.6763 24.864 13.21 25.7104 13.8708 26.4528L13.8625 26.4436V26.4399ZM21.7122 23.9467C22.2438 24.2355 22.6994 24.5352 23.1274 24.8698L23.1054 24.8533C22.2354 25.5351 21.2569 26.0656 20.2108 26.4225L20.1412 26.4436C20.7824 25.7185 21.3049 24.8965 21.6893 24.0081L21.7122 23.9486V23.9467ZM26.9368 16.4753H23.0312C23.0031 14.5787 22.6758 12.6985 22.0614 10.904L22.099 11.0305C22.7465 10.6896 23.3595 10.2869 23.9294 9.82791L23.9074 9.84441C25.7161 11.5833 26.798 13.9434 26.9349 16.4487L26.9358 16.4744L26.9368 16.4753ZM10.0898 9.84533C10.6178 10.2743 11.2108 10.6675 11.8396 11.0021L11.8992 11.0314C11.3373 12.6511 10.9991 14.5183 10.967 16.4606V16.4753H7.0605C7.1922 13.9625 8.27374 11.5935 10.0862 9.84808L10.0889 9.84533H10.0898ZM7.06141 17.5239H10.967C10.9951 19.4205 11.3224 21.3007 11.9368 23.0952L11.8992 22.9687C11.2108 23.3344 10.6187 23.7276 10.0687 24.1713L10.0907 24.1548C8.28207 22.4159 7.20015 20.0558 7.06325 17.5505L7.06233 17.5248L7.06141 17.5239Z" fill="white"/>
</g>
<defs>
<clipPath id="clip0">
<rect width="24" height="24" fill="white" transform="translate(6 6)"/>
</clipPath>
</defs>
</svg>
