<svg width="48" height="48" viewBox="0 0 48 48" fill="none" xmlns="http://www.w3.org/2000/svg">
<circle cx="24" cy="24" r="24" fill="#D3D6CD"/>
<path d="M27.75 14H16.5V34H31.5V17.75H27.75V14ZM16.5 11.5H29L34 16.5V34C34 34.663 33.7366 35.2989 33.2678 35.7678C32.7989 36.2366 32.163 36.5 31.5 36.5H16.5C15.837 36.5 15.2011 36.2366 14.7322 35.7678C14.2634 35.2989 14 34.663 14 34V14C14 13.337 14.2634 12.7011 14.7322 12.2322C15.2011 11.7634 15.837 11.5 16.5 11.5ZM19 22.75H29V25.25H19V22.75ZM19 27.75H29V30.25H19V27.75Z" fill="#1FF5E9"/>
</svg>
