<svg width="48" height="48" viewBox="0 0 48 48" fill="none" xmlns="http://www.w3.org/2000/svg">
<circle cx="24" cy="24" r="24" fill="#D3D6CD"/>
<path d="M22.75 27.75C26.5 27.75 32.75 32.75 32.75 32.75V12.75C32.75 12.75 26.5 17.75 22.75 17.75V27.75ZM15.25 27.75L19 37.75H24L20.25 27.75H15.25ZM32.75 26.5C33.2425 26.5 33.7301 26.403 34.1851 26.2145C34.64 26.0261 35.0534 25.7499 35.4017 25.4017C35.7499 25.0534 36.0261 24.64 36.2145 24.1851C36.403 23.7301 36.5 23.2425 36.5 22.75C36.5 22.2575 36.403 21.7699 36.2145 21.3149C36.0261 20.86 35.7499 20.4466 35.4017 20.0983C35.0534 19.7501 34.64 19.4739 34.1851 19.2855C33.7301 19.097 33.2425 19 32.75 19V26.5ZM22.75 32.75C24 32.75 26.5 31.5 26.5 29L22.75 32.75ZM11.5 22.75C11.5 18.8612 13.7387 17.75 16.5 17.75H22.75V27.75H16.5C13.7387 27.75 11.5 26.6388 11.5 22.75Z" stroke="#A23CE1" stroke-width="2"/>
</svg>
