<svg width="48" height="48" viewBox="0 0 48 48" fill="none" xmlns="http://www.w3.org/2000/svg">
<circle cx="24" cy="24" r="24" fill="#D3D6CD"/>
<path d="M21.4995 16.5001L26.4995 11.5001C26.4995 11.5001 31.4995 6.50005 36.4995 11.5001C41.4995 16.5001 36.4995 21.5001 36.4995 21.5001L29.8328 28.1667C29.8328 28.1667 24.8328 33.1667 19.8328 28.1667C18.8953 27.2292 18.3145 25.9834 18.3145 25.9834L21.1086 23.1934C21.1086 23.1934 20.9961 24.3301 22.3328 25.6667C22.3328 25.6667 24.8328 28.1667 27.3328 25.6667L33.9995 19.0001C33.9995 19.0001 36.4995 16.5001 33.9995 14.0001C31.4995 11.5001 28.9995 14.0001 28.9995 14.0001L25.892 17.1076C25.892 17.1076 24.347 15.8401 21.187 16.8126L21.4995 16.5001Z" fill="#8899A6"/>
<path d="M26.3707 31.5L21.3707 36.5C21.3707 36.5 16.3707 41.5 11.3707 36.5C6.37066 31.5 11.3707 26.5 11.3707 26.5L18.0373 19.8333C18.0373 19.8333 23.0373 14.8333 28.0373 19.8333C28.9748 20.7708 29.5557 22.0166 29.5557 22.0166L26.7607 24.8075C26.7607 24.8075 26.8732 23.67 25.5365 22.3333C25.5365 22.3333 23.0365 19.8333 20.5365 22.3333L13.8698 29C13.8698 29 11.3698 31.5 13.8698 34C16.3698 36.5 18.8698 34 18.8698 34L21.9773 30.8925C21.9773 30.8925 23.5223 32.16 26.6823 31.1875L26.3707 31.5Z" fill="#8899A6"/>
</svg>
