<svg width="48" height="48" viewBox="0 0 48 48" fill="none" xmlns="http://www.w3.org/2000/svg">
<circle cx="24" cy="24" r="24" fill="#D3D6CD"/>
<path d="M24.647 15.6354C25.2664 14.9373 26.0195 14.3704 26.8616 13.9682C27.7038 13.566 28.6181 13.3367 29.5504 13.2938C30.4827 13.2509 31.4141 13.3952 32.2897 13.7183C33.1653 14.0415 33.9672 14.5368 34.6482 15.175C35.3291 15.8133 35.8752 16.5815 36.2542 17.4344C36.6333 18.2872 36.8375 19.2074 36.855 20.1405C36.8724 21.0737 36.7027 22.0008 36.3558 22.8673C36.0089 23.7337 35.4918 24.5218 34.8352 25.185L24.5709 35.5479C24.4962 35.6234 24.4073 35.6833 24.3092 35.7242C24.2112 35.7651 24.1061 35.7861 23.9999 35.7861C23.8936 35.7861 23.7885 35.7651 23.6905 35.7242C23.5924 35.6833 23.5035 35.6234 23.4288 35.5479L13.1645 25.185C11.9195 23.9281 11.1979 22.2454 11.1456 20.477C11.0933 18.7086 11.7142 16.9862 12.8827 15.6579C15.6556 12.5047 20.5649 12.494 23.3527 15.6354L23.9999 16.364L24.647 15.6354Z" fill="#E63737"/>
</svg>
