<svg width="48" height="48" viewBox="0 0 48 48" fill="none" xmlns="http://www.w3.org/2000/svg">
<circle cx="24" cy="24" r="24" fill="#D3D6CD"/>
<path d="M36.2377 30.325L29.3002 23.3875L31.2627 21.425L26.5752 16.7375L24.6127 18.7L17.6752 11.7625L11.7627 17.675L18.7002 24.6125L12.7502 30.5625V35.25H17.4377L23.3877 29.3L30.3252 36.2375L36.2377 30.325ZM20.4752 22.8375L15.3002 17.675L17.6752 15.3L19.2627 16.8875L17.7752 18.375L19.5377 20.1375L21.0252 18.65L22.8377 20.4625L20.4752 22.8375ZM25.1627 27.525L27.5377 25.15L29.3502 26.9625L27.8627 28.45L29.6252 30.2125L31.1127 28.725L32.7002 30.3125L30.3252 32.6875L25.1627 27.525ZM27.9164 15.4038L31.0889 12.23L35.7739 16.915L32.6014 20.0888L27.9164 15.4038Z" fill="#EC77FF"/>
</svg>
