<svg width="48" height="48" viewBox="0 0 48 48" fill="none" xmlns="http://www.w3.org/2000/svg">
<circle cx="24" cy="24" r="24" fill="#D3D6CD"/>
<path d="M9 19C9 16.3478 10.0536 13.8043 11.9289 11.9289C13.8043 10.0536 16.3478 9 19 9H29C31.6522 9 34.1957 10.0536 36.0711 11.9289C37.9464 13.8043 39 16.3478 39 19V29C39 31.6522 37.9464 34.1957 36.0711 36.0711C34.1957 37.9464 31.6522 39 29 39H19C16.3478 39 13.8043 37.9464 11.9289 36.0711C10.0536 34.1957 9 31.6522 9 29V19Z" fill="#3984FD"/>
<path d="M15.25 20.25C15.25 19.9185 15.3817 19.6005 15.6161 19.3661C15.8505 19.1317 16.1685 19 16.5 19H24C24.9946 19 25.9484 19.3951 26.6517 20.0983C27.3549 20.8016 27.75 21.7554 27.75 22.75V27.75C27.75 28.0815 27.6183 28.3995 27.3839 28.6339C27.1495 28.8683 26.8315 29 26.5 29H19C18.0054 29 17.0516 28.6049 16.3483 27.9017C15.6451 27.1984 15.25 26.2446 15.25 25.25V20.25Z" fill="white"/>
<path d="M28.375 23.69C28.3748 23.084 28.5946 22.4985 28.9938 22.0425L31.1062 19.6275C31.6775 18.9775 32.75 19.38 32.75 20.245V27.755C32.75 28.6213 31.6775 29.0238 31.1075 28.3725L28.9938 25.9575C28.5949 25.5018 28.3751 24.9169 28.375 24.3113V23.6888V23.69Z" fill="white"/>
</svg>
