<svg width="306" height="306" viewBox="0 0 306 306" fill="none" xmlns="http://www.w3.org/2000/svg">
<path d="M20.0801 77.1815L77.2157 20.0458C67.0721 25.8421 57.653 32.7771 49.1309 40.6436L40.6779 49.0967C32.8114 57.6532 25.8764 67.0379 20.0801 77.1815Z" fill="#EEE6DB"/>
<path d="M3.03662 122.586L122.621 3.00183C119.309 3.65737 116.066 4.45086 112.823 5.31342L5.34826 112.788C4.4512 116.031 3.69216 119.309 3.03662 122.586Z" fill="#EEE6DB"/>
<path d="M0 152.983C0 153.293 0 153.638 0 153.949L153.949 0C153.638 0 153.293 0 152.983 0C150.775 0 148.532 0.0690339 146.358 0.138038L0.137986 146.358C0.0689812 148.567 0 150.775 0 152.983Z" fill="#EEE6DB"/>
<path d="M2.38091 179.964L179.964 2.38061C177.825 2.00109 175.651 1.65614 173.512 1.38013L1.38037 173.512C1.65639 175.651 2.00139 177.824 2.38091 179.964Z" fill="#EEE6DB"/>
<path d="M8.17743 202.493L202.494 8.17712C200.631 7.52157 198.733 6.93497 196.835 6.38293L6.3833 196.835C6.93534 198.733 7.55639 200.63 8.17743 202.493Z" fill="#EEE6DB"/>
<path d="M16.6299 222.401L222.435 16.5956C220.779 15.733 219.089 14.9395 217.398 14.1459L14.1802 217.364C14.9737 219.089 15.7673 220.745 16.6299 222.401Z" fill="#EEE6DB"/>
<path d="M27.2566 240.135L240.17 27.2223C238.686 26.1872 237.202 25.1866 235.684 24.2206L24.2549 235.65C25.2209 237.203 26.2215 238.686 27.2566 240.135Z" fill="#EEE6DB"/>
<path d="M39.8158 255.937L255.938 39.8156C254.626 38.6425 253.315 37.4694 251.97 36.3308L36.3311 251.97C37.4696 253.315 38.6082 254.626 39.8158 255.937Z" fill="#EEE6DB"/>
<path d="M54.2376 269.842L269.842 54.2375C268.703 52.8919 267.53 51.5463 266.357 50.2352L50.2354 266.357C51.5809 267.565 52.892 268.703 54.2376 269.842Z" fill="#EEE6DB"/>
<path d="M70.5571 281.918L281.918 70.5571C280.951 69.039 279.951 67.5554 278.916 66.0718L66.0718 278.916C67.5554 279.916 69.039 280.917 70.5571 281.918Z" fill="#EEE6DB"/>
<path d="M88.878 291.923L291.923 88.8777C291.13 87.1871 290.336 85.4965 289.474 83.8404L83.8062 289.508C85.4968 290.336 87.1874 291.164 88.878 291.923Z" fill="#EEE6DB"/>
<path d="M109.475 299.686L299.72 109.441C299.168 107.543 298.547 105.646 297.926 103.783L103.816 297.892C105.645 298.548 107.543 299.134 109.475 299.686Z" fill="#EEE6DB"/>
<path d="M132.834 304.654L304.655 132.833C304.378 130.66 304.033 128.486 303.654 126.347L126.347 303.654C128.521 304.068 130.66 304.378 132.834 304.654Z" fill="#EEE6DB"/>
<path d="M152.983 306C155.363 306 157.709 305.931 160.021 305.828L305.793 160.056C305.896 157.71 305.965 155.364 305.965 153.017C305.965 152.81 305.965 152.638 305.965 152.431L152.396 306C152.603 306 152.81 306 152.983 306Z" fill="#EEE6DB"/>
<path d="M193.73 300.514L300.514 193.73C301.412 190.487 302.205 187.209 302.895 183.897L183.897 302.895C187.209 302.205 190.487 301.377 193.73 300.514Z" fill="#EEE6DB"/>
<path d="M285.367 229.75L229.715 285.402C252.763 271.981 271.981 252.763 285.367 229.75Z" fill="#EEE6DB"/>
</svg>
