<svg width="1440" height="278" viewBox="0 0 1440 278" fill="none" xmlns="http://www.w3.org/2000/svg">
<path d="M23.4666 72.2079L50.6728 87.4336L23.8839 103.382L23.4666 72.2079Z" fill="#A79C9C" fill-opacity="0.14"/>
<path d="M280.467 27.2079L307.673 42.4336L280.884 58.382L280.467 27.2079Z" fill="#A79C9C" fill-opacity="0.14"/>
<circle cx="327.359" cy="102.358" r="16" transform="rotate(25.7184 327.359 102.358)" fill="#A79C9C" fill-opacity="0.14"/>
<rect x="100.054" y="15.8892" width="38" height="34" transform="rotate(-15.9838 100.054 15.8892)" fill="#A79C9C" fill-opacity="0.14"/>
<path d="M186.494 81.1461L186.104 91.3455L195.953 95.0844L185.863 97.6491L185.473 107.849L179.627 99.2342L169.537 101.799L176.014 93.9102L170.168 85.2959L180.017 89.0348L186.494 81.1461Z" fill="#A79C9C" fill-opacity="0.14"/>
<path d="M442.467 72.2079L469.673 87.4336L442.884 103.382L442.467 72.2079Z" fill="#A79C9C" fill-opacity="0.14"/>
<path d="M699.467 27.2079L726.673 42.4336L699.884 58.382L699.467 27.2079Z" fill="#A79C9C" fill-opacity="0.14"/>
<circle cx="387.359" cy="21.3582" r="15.5" transform="rotate(25.7184 387.359 21.3582)" stroke="#A79C9C" stroke-opacity="0.3"/>
<circle cx="746.358" cy="102.358" r="16" transform="rotate(25.7184 746.358 102.358)" fill="#A79C9C" fill-opacity="0.14"/>
<rect x="519.054" y="15.8892" width="38" height="34" transform="rotate(-15.9838 519.054 15.8892)" fill="#A79C9C" fill-opacity="0.14"/>
<path d="M605.494 81.1461L605.104 91.3455L614.953 95.0844L604.863 97.6491L604.473 107.849L598.627 99.2342L588.537 101.799L595.014 93.9102L589.168 85.2959L599.017 89.0348L605.494 81.1461Z" fill="#A79C9C" fill-opacity="0.14"/>
<path d="M860.467 77.2079L887.673 92.4336L860.884 108.382L860.467 77.2079Z" fill="#A79C9C" fill-opacity="0.14"/>
<path d="M1117.47 32.2079L1144.67 47.4336L1117.88 63.382L1117.47 32.2079Z" fill="#A79C9C" fill-opacity="0.14"/>
<circle cx="805.358" cy="26.3582" r="15.5" transform="rotate(25.7184 805.358 26.3582)" stroke="#A79C9C" stroke-opacity="0.3"/>
<circle cx="1164.36" cy="107.358" r="16" transform="rotate(25.7184 1164.36 107.358)" fill="#A79C9C" fill-opacity="0.14"/>
<rect x="937.053" y="20.8892" width="38" height="34" transform="rotate(-15.9838 937.053 20.8892)" fill="#A79C9C" fill-opacity="0.14"/>
<path d="M1023.49 86.1461L1023.1 96.3455L1032.95 100.084L1022.86 102.649L1022.47 112.849L1016.63 104.234L1006.54 106.799L1013.01 98.9102L1007.17 90.2959L1017.02 94.0348L1023.49 86.1461Z" fill="#A79C9C" fill-opacity="0.14"/>
<path d="M1192.47 221.208L1219.67 236.434L1192.88 252.382L1192.47 221.208Z" fill="#A79C9C" fill-opacity="0.14"/>
<path d="M1449.47 176.208L1476.67 191.434L1449.88 207.382L1449.47 176.208Z" fill="#A79C9C" fill-opacity="0.14"/>
<circle cx="1137.36" cy="170.358" r="15.5" transform="rotate(25.7184 1137.36 170.358)" stroke="#A79C9C" stroke-opacity="0.3"/>
<rect x="1269.05" y="164.889" width="38" height="34" transform="rotate(-15.9838 1269.05 164.889)" fill="#A79C9C" fill-opacity="0.14"/>
<path d="M1355.49 230.146L1355.1 240.346L1364.95 244.084L1354.86 246.649L1354.47 256.849L1348.63 248.234L1338.54 250.799L1345.01 242.91L1339.17 234.296L1349.02 238.035L1355.49 230.146Z" fill="#A79C9C" fill-opacity="0.14"/>
<path d="M227.467 176.208L254.673 191.434L227.884 207.382L227.467 176.208Z" fill="#A79C9C" fill-opacity="0.14"/>
<circle cx="274.359" cy="251.358" r="16" transform="rotate(25.7184 274.359 251.358)" fill="#A79C9C" fill-opacity="0.14"/>
<rect x="47.0537" y="164.889" width="38" height="34" transform="rotate(-15.9838 47.0537 164.889)" fill="#A79C9C" fill-opacity="0.14"/>
<path d="M133.494 230.146L133.104 240.346L142.953 244.084L132.863 246.649L132.473 256.849L126.627 248.234L116.537 250.799L123.014 242.91L117.168 234.296L127.017 238.035L133.494 230.146Z" fill="#A79C9C" fill-opacity="0.14"/>
<path d="M389.467 221.208L416.673 236.434L389.884 252.382L389.467 221.208Z" fill="#A79C9C" fill-opacity="0.14"/>
<path d="M646.467 176.208L673.673 191.434L646.884 207.382L646.467 176.208Z" fill="#A79C9C" fill-opacity="0.14"/>
<circle cx="334.359" cy="170.358" r="15.5" transform="rotate(25.7184 334.359 170.358)" stroke="#A79C9C" stroke-opacity="0.3"/>
<circle cx="693.358" cy="251.358" r="16" transform="rotate(25.7184 693.358 251.358)" fill="#A79C9C" fill-opacity="0.14"/>
<rect x="466.054" y="164.889" width="38" height="34" transform="rotate(-15.9838 466.054 164.889)" fill="#A79C9C" fill-opacity="0.14"/>
<path d="M552.494 230.146L552.104 240.346L561.953 244.084L551.863 246.649L551.473 256.849L545.627 248.234L535.537 250.799L542.014 242.91L536.168 234.296L546.017 238.035L552.494 230.146Z" fill="#A79C9C" fill-opacity="0.14"/>
<path d="M807.467 226.208L834.673 241.434L807.884 257.382L807.467 226.208Z" fill="#A79C9C" fill-opacity="0.14"/>
<path d="M1064.47 181.208L1091.67 196.434L1064.88 212.382L1064.47 181.208Z" fill="#A79C9C" fill-opacity="0.14"/>
<circle cx="752.358" cy="175.358" r="15.5" transform="rotate(25.7184 752.358 175.358)" stroke="#A79C9C" stroke-opacity="0.3"/>
<circle cx="1111.36" cy="256.358" r="16" transform="rotate(25.7184 1111.36 256.358)" fill="#A79C9C" fill-opacity="0.14"/>
<rect x="884.053" y="169.889" width="38" height="34" transform="rotate(-15.9838 884.053 169.889)" fill="#A79C9C" fill-opacity="0.14"/>
<path d="M970.494 235.146L970.104 245.346L979.953 249.084L969.863 251.649L969.473 261.849L963.627 253.234L953.537 255.799L960.014 247.91L954.168 239.296L964.017 243.035L970.494 235.146Z" fill="#A79C9C" fill-opacity="0.14"/>
<path d="M1229.47 72.2079L1256.67 87.4336L1229.88 103.382L1229.47 72.2079Z" fill="#A79C9C" fill-opacity="0.14"/>
<circle cx="1174.36" cy="21.3582" r="15.5" transform="rotate(25.7184 1174.36 21.3582)" stroke="#A79C9C" stroke-opacity="0.3"/>
<rect x="1306.05" y="15.8892" width="38" height="34" transform="rotate(-15.9838 1306.05 15.8892)" fill="#A79C9C" fill-opacity="0.14"/>
<path d="M1392.49 81.1461L1392.1 91.3455L1401.95 95.0844L1391.86 97.6491L1391.47 107.849L1385.63 99.2342L1375.54 101.799L1382.01 93.9102L1376.17 85.2959L1386.02 89.0348L1392.49 81.1461Z" fill="#A79C9C" fill-opacity="0.14"/>
</svg>
