<svg width="1440" height="372" viewBox="0 0 1440 372" fill="none" xmlns="http://www.w3.org/2000/svg">
<path d="M1282.08 33.1815L1339.22 -23.9542C1329.07 -18.1579 1319.65 -11.2229 1311.13 -3.35641L1302.68 5.09667C1294.81 13.6532 1287.88 23.0379 1282.08 33.1815Z" fill="#EEE6DB"/>
<path d="M1265.04 78.5864L1384.62 -40.9982C1381.31 -40.3426 1378.07 -39.5491 1374.82 -38.6866L1267.35 68.7878C1266.45 72.031 1265.69 75.3087 1265.04 78.5864Z" fill="#EEE6DB"/>
<path d="M1262 108.983C1262 109.293 1262 109.638 1262 109.949L1415.95 -44C1415.64 -44 1415.29 -44 1414.98 -44C1412.77 -44 1410.53 -43.931 1408.36 -43.862L1262.14 102.358C1262.07 104.567 1262 106.775 1262 108.983Z" fill="#EEE6DB"/>
<path d="M1264.38 135.964L1441.96 -41.6194C1439.82 -41.9989 1437.65 -42.3439 1435.51 -42.6199L1263.38 129.512C1263.66 131.651 1264 133.824 1264.38 135.964Z" fill="#EEE6DB"/>
<path d="M1270.18 158.493L1464.49 -35.8229C1462.63 -36.4784 1460.73 -37.065 1458.84 -37.6171L1268.38 152.835C1268.94 154.733 1269.56 156.63 1270.18 158.493Z" fill="#EEE6DB"/>
<path d="M1278.63 178.401L1484.44 -27.4044C1482.78 -28.267 1481.09 -29.0605 1479.4 -29.8541L1276.18 173.364C1276.97 175.089 1277.77 176.745 1278.63 178.401Z" fill="#EEE6DB"/>
<path d="M1289.26 196.135L1502.17 -16.7777C1500.69 -17.8128 1499.2 -18.8134 1497.68 -19.7794L1286.25 191.65C1287.22 193.203 1288.22 194.686 1289.26 196.135Z" fill="#EEE6DB"/>
<path d="M1301.82 211.937L1517.94 -4.18443C1516.63 -5.35751 1515.32 -6.53062 1513.97 -7.66919L1298.33 207.97C1299.47 209.315 1300.61 210.626 1301.82 211.937Z" fill="#EEE6DB"/>
<path d="M1316.24 225.842L1531.84 10.2375C1530.7 8.89191 1529.53 7.54631 1528.36 6.23523L1312.24 222.357C1313.58 223.565 1314.89 224.703 1316.24 225.842Z" fill="#EEE6DB"/>
<path d="M1332.56 237.918L1543.92 26.5571C1542.95 25.039 1541.95 23.5554 1540.92 22.0718L1328.07 234.916C1329.56 235.916 1331.04 236.917 1332.56 237.918Z" fill="#EEE6DB"/>
<path d="M1350.88 247.923L1553.92 44.8777C1553.13 43.1871 1552.34 41.4965 1551.47 39.8404L1345.81 245.508C1347.5 246.336 1349.19 247.164 1350.88 247.923Z" fill="#EEE6DB"/>
<path d="M1371.47 255.686L1561.72 65.441C1561.17 63.5433 1560.55 61.6458 1559.93 59.7827L1365.82 253.892C1367.65 254.548 1369.54 255.134 1371.47 255.686Z" fill="#EEE6DB"/>
<path d="M1394.83 260.654L1566.65 88.8334C1566.38 86.6598 1566.03 84.4862 1565.65 82.3471L1388.35 259.654C1390.52 260.068 1392.66 260.378 1394.83 260.654Z" fill="#EEE6DB"/>
<path d="M1414.98 262C1417.36 262 1419.71 261.931 1422.02 261.828L1567.79 116.056C1567.9 113.71 1567.97 111.364 1567.97 109.017C1567.97 108.81 1567.97 108.638 1567.97 108.431L1414.4 262C1414.6 262 1414.81 262 1414.98 262Z" fill="#EEE6DB"/>
<rect y="231" width="21" height="141" fill="#EEE6DB"/>
</svg>
