<svg width="35" height="35" viewBox="0 0 35 35" fill="none" xmlns="http://www.w3.org/2000/svg">
<path d="M0 11.7396C0 7.58705 0 5.51078 0.820944 3.9304C1.51274 2.59862 2.59862 1.51274 3.9304 0.820944C5.51078 0 7.58705 0 11.7396 0H23.2604C27.413 0 29.4892 0 31.0696 0.820944C32.4014 1.51274 33.4873 2.59862 34.1791 3.9304C35 5.51078 35 7.58705 35 11.7396V23.2604C35 27.413 35 29.4892 34.1791 31.0696C33.4873 32.4014 32.4014 33.4873 31.0696 34.1791C29.4892 35 27.413 35 23.2604 35H11.7396C7.58705 35 5.51078 35 3.9304 34.1791C2.59862 33.4873 1.51274 32.4014 0.820944 31.0696C0 29.4892 0 27.413 0 23.2604V11.7396Z" fill="#303030"/>
<path d="M10.619 20.9566C10.7615 19.7772 11.2452 19.1169 12.1566 18.44C13.4608 17.5233 15.0899 18.0419 15.0899 18.0419V14.9655C15.486 14.9554 15.8822 14.9789 16.2739 15.0357V18.9946C16.2739 18.9946 14.6453 18.4761 13.3411 19.3933C12.4301 20.0697 11.9455 20.7304 11.8035 21.9098C11.7991 22.5502 11.9193 23.3873 12.4727 24.1111C12.3358 24.0409 12.1964 23.961 12.0543 23.8712C10.8352 23.0526 10.6131 21.8245 10.619 20.9566ZM23.0005 9.27743C22.1033 8.29434 21.7641 7.30176 21.6414 6.60449H22.77C22.77 6.60449 22.545 8.43275 24.185 10.2307L24.2077 10.2548C23.7657 9.97681 23.3604 9.64863 23.0005 9.27743ZM28.4372 12.0646V15.9439C28.4372 15.9439 26.9971 15.8875 25.9313 15.6164C24.4431 15.2372 23.4866 14.6555 23.4866 14.6555C23.4866 14.6555 22.8259 14.2408 22.7725 14.2119V22.2226C22.7725 22.6687 22.6503 23.7826 22.2779 24.7117C21.7918 25.927 21.0415 26.7248 20.9035 26.8878C20.9035 26.8878 19.991 27.9662 18.3812 28.6924C16.9302 29.3475 15.6562 29.3309 15.2754 29.3475C15.2754 29.3475 13.0731 29.4347 11.0914 28.1468C10.6628 27.8629 10.2628 27.5414 9.89648 27.1865L9.90638 27.1936C11.8886 28.4814 14.0904 28.3942 14.0904 28.3942C14.4717 28.3776 15.7457 28.3942 17.1963 27.7392C18.8046 27.013 19.7185 25.9346 19.7185 25.9346C19.855 25.7715 20.6088 24.9738 21.0929 23.7579C21.4644 22.8294 21.5875 21.715 21.5875 21.2689V13.2591C21.6409 13.2885 22.3012 13.7033 22.3012 13.7033C22.3012 13.7033 23.2581 14.2853 24.7463 14.6641C25.8126 14.9352 27.2523 14.9916 27.2523 14.9916V11.9518C27.7448 12.0622 28.1647 12.0921 28.4372 12.0646Z" fill="#FD355A"/>
<path d="M27.253 11.9518V14.9907C27.253 14.9907 25.8133 14.9343 24.747 14.6631C23.2589 14.2839 22.3019 13.7023 22.3019 13.7023C22.3019 13.7023 21.6416 13.2875 21.5882 13.2582V21.2699C21.5882 21.7159 21.4661 22.8303 21.0937 23.7589C20.6075 24.9747 19.8573 25.7725 19.7193 25.9355C19.7193 25.9355 18.8063 27.0139 17.197 27.7401C15.7464 28.3952 14.4724 28.3786 14.0911 28.3952C14.0911 28.3952 11.8893 28.4824 9.9071 27.1945L9.89721 27.1874C9.68793 26.9848 9.49094 26.7708 9.30719 26.5465C8.67465 25.7753 8.28691 24.8633 8.18948 24.6031C8.18931 24.602 8.18931 24.6009 8.18948 24.5998C8.0327 24.1476 7.70332 23.0616 7.74833 22.0098C7.82795 20.154 8.48078 19.015 8.65338 18.7297C9.11051 17.9515 9.70506 17.2553 10.4106 16.672C11.0331 16.1686 11.7388 15.7682 12.4986 15.487C13.32 15.1568 14.1996 14.9798 15.0901 14.9655V18.0419C15.0901 18.0419 13.461 17.5252 12.1574 18.44C11.2459 19.1169 10.7622 19.7772 10.6198 20.9565C10.6138 21.8245 10.8359 23.0526 12.054 23.8717C12.1961 23.9618 12.3356 24.0417 12.4724 24.1116C12.6852 24.3882 12.9442 24.6292 13.239 24.8249C14.4289 25.5781 15.426 25.6308 16.7009 25.1416C17.5511 24.8145 18.1911 24.0774 18.4878 23.2607C18.6743 22.7507 18.6718 22.2373 18.6718 21.7064V6.60449H21.6392C21.7618 7.30176 22.1011 8.29434 22.9982 9.27743C23.3581 9.64863 23.7635 9.97681 24.2055 10.2548C24.336 10.3899 25.0037 11.0578 25.8608 11.4678C26.304 11.6798 26.7711 11.8422 27.253 11.9518Z" fill="white"/>
<path d="M7.0083 23.6587V23.6611L7.08193 23.8606C7.07347 23.8374 7.04611 23.7668 7.0083 23.6587Z" fill="#33F3ED"/>
<path d="M12.4987 15.4872C11.7388 15.7684 11.0332 16.1689 10.4106 16.6722C9.70487 17.2569 9.11047 17.9545 8.65391 18.7342C8.48131 19.0186 7.82849 20.1586 7.74886 22.0143C7.70385 23.0661 8.03323 24.1521 8.19001 24.6043C8.18984 24.6054 8.18984 24.6065 8.19001 24.6076C8.28892 24.8655 8.67518 25.7775 9.30773 26.5511C9.49147 26.7753 9.68847 26.9893 9.89774 27.1919C9.22721 26.7474 8.6292 26.2101 8.12325 25.5974C7.49614 24.8328 7.10939 23.9303 7.0085 23.6639C7.00838 23.662 7.00838 23.6601 7.0085 23.6582V23.6549C6.85122 23.2031 6.52086 22.1167 6.56685 21.0635C6.64648 19.2077 7.2993 18.0687 7.4719 17.7833C7.92832 17.0036 8.52274 16.3059 9.2286 15.7214C9.85104 15.2179 10.5567 14.8174 11.3167 14.5364C11.7906 14.3479 12.2844 14.2088 12.7895 14.1216C13.5506 13.9943 14.3279 13.9832 15.0927 14.0889V14.9658C14.2012 14.9798 13.3208 15.1568 12.4987 15.4872Z" fill="#33F3ED"/>
<path d="M21.6414 6.60459H18.674V21.707C18.674 22.2379 18.674 22.7498 18.49 23.2613C18.1903 24.0775 17.5528 24.8146 16.7032 25.1417C15.4277 25.6327 14.4306 25.5782 13.2412 24.825C12.9459 24.6302 12.6863 24.3899 12.4727 24.114C13.486 24.6321 14.3931 24.6231 15.5167 24.1908C16.3659 23.8637 17.0044 23.1267 17.3031 22.3099C17.49 21.7999 17.4875 21.2866 17.4875 20.7561V5.65088H21.585C21.585 5.65088 21.539 6.02629 21.6414 6.60459ZM27.2527 11.1115V11.9519C26.7717 11.8421 26.3054 11.6797 25.863 11.4679C25.0059 11.0579 24.3383 10.39 24.2077 10.2549C24.3592 10.3503 24.5164 10.437 24.6785 10.5147C25.7206 11.0133 26.7468 11.1622 27.2527 11.1115Z" fill="#33F3ED"/>
</svg>
