<svg width="44" height="41" viewBox="0 0 44 41" fill="none" xmlns="http://www.w3.org/2000/svg">
<rect x="0.5" y="0.5" width="43.008" height="40" rx="4" fill="white"/>
<path d="M13.8333 13.8333L25.3803 20.5V33.8333L13.8333 40.5L2.28633 33.8333V20.5L13.8333 13.8333Z" fill="#65DFCD" fill-opacity="0.8"/>
<path d="M25.0977 6.93677L36.6447 13.6034V26.9368L25.0977 33.6034L13.5507 26.9368V13.6034L25.0977 6.93677Z" fill="#50D5D0" fill-opacity="0.8"/>
<path d="M13.8333 0.5L25.3803 7.16667V20.5L13.8333 27.1667L2.28633 20.5V7.16667L13.8333 0.5Z" fill="#4EDAC1" fill-opacity="0.82"/>
<path d="M18.0924 15.1431C17.756 15.3236 17.3991 15.6641 17.0217 16.1646C16.6442 16.6569 16.2627 17.2887 15.877 18.06C16.1724 18.1174 16.4432 18.1831 16.6894 18.2569C16.9437 18.3308 17.1735 18.4087 17.3786 18.4908L18.0924 15.1431ZM19.0524 14.2692C19.2247 14.2692 19.397 14.2856 19.5694 14.3185C19.7417 14.3431 19.8935 14.3841 20.0247 14.4415L18.0924 23.5H16.3201L17.2678 19.0323C16.9806 18.901 16.7099 18.8026 16.4555 18.7369C16.2011 18.6631 15.9222 18.6138 15.6186 18.5892C15.1509 19.6067 14.7652 20.6405 14.4617 21.6908C14.1663 22.741 14.0186 23.5821 14.0186 24.2138C14.0186 24.3615 14.0309 24.4887 14.0555 24.5954C14.0883 24.7103 14.1335 24.8128 14.1909 24.9031C13.5673 24.9031 13.1365 24.7964 12.8986 24.5831C12.6606 24.3697 12.5417 24.0415 12.5417 23.5985C12.5417 23.0487 12.7058 22.3144 13.034 21.3954C13.3704 20.4764 13.8094 19.541 14.3509 18.5892C13.9324 18.6138 13.6042 18.6795 13.3663 18.7862C13.1365 18.8928 12.9847 19.0405 12.9109 19.2292C12.9437 19.2292 12.9765 19.2744 13.0094 19.3646C13.0504 19.4467 13.0709 19.5287 13.0709 19.6108C13.0709 19.7503 13.0052 19.8651 12.874 19.9554C12.7427 20.0456 12.5786 20.0908 12.3817 20.0908C12.1519 20.0908 11.9673 20.0292 11.8278 19.9062C11.6883 19.7749 11.6186 19.5985 11.6186 19.3769C11.6186 18.9503 11.8565 18.5933 12.3324 18.3062C12.8165 18.0108 13.4155 17.8631 14.1294 17.8631C14.2114 17.8631 14.3058 17.8672 14.4124 17.8754C14.5191 17.8754 14.6381 17.8836 14.7694 17.9C15.4914 16.7595 16.2258 15.8692 16.9724 15.2292C17.7191 14.5892 18.4124 14.2692 19.0524 14.2692ZM24.2459 18.3677C24.2459 18.6467 24.1844 18.8682 24.0613 19.0323C23.9464 19.1882 23.7905 19.2662 23.5936 19.2662C23.5279 19.2662 23.4582 19.2538 23.3844 19.2292C23.3105 19.2046 23.2367 19.1677 23.1628 19.1185C23.212 18.9872 23.249 18.86 23.2736 18.7369C23.2982 18.6138 23.3105 18.499 23.3105 18.3923C23.3105 18.2282 23.2818 18.1051 23.2244 18.0231C23.1669 17.9328 23.0808 17.8877 22.9659 17.8877C22.6049 17.8877 22.252 18.3062 21.9074 19.1431C21.5628 19.9718 21.3905 20.7595 21.3905 21.5062C21.3905 21.8836 21.452 22.1503 21.5751 22.3062C21.7064 22.4621 21.9402 22.54 22.2767 22.54C22.6623 22.54 23.0151 22.4538 23.3351 22.2815C23.6633 22.101 24.0367 21.7728 24.4551 21.2969H24.8736C24.3977 22.0682 23.8808 22.6426 23.3228 23.02C22.7649 23.3892 22.1536 23.5738 21.489 23.5738C20.8572 23.5738 20.3772 23.4097 20.049 23.0815C19.729 22.7533 19.569 22.2651 19.569 21.6169C19.569 21.1492 19.6387 20.6528 19.7782 20.1277C19.9259 19.6026 20.1269 19.1349 20.3813 18.7246C20.6849 18.2323 21.0459 17.8631 21.4644 17.6169C21.891 17.3626 22.3628 17.2354 22.8797 17.2354C23.331 17.2354 23.6715 17.3338 23.9013 17.5308C24.131 17.7195 24.2459 17.9985 24.2459 18.3677ZM24.8833 17.3462H25.2894L25.6587 15.6477L27.4802 15.4015L27.0618 17.3462H27.8002L27.7018 17.8385H26.9633L26.1756 21.5308C26.1592 21.6046 26.1469 21.6744 26.1387 21.74C26.1305 21.7974 26.1264 21.859 26.1264 21.9246C26.1264 22.0887 26.1633 22.2077 26.2371 22.2815C26.3192 22.3472 26.4505 22.38 26.631 22.38C26.8607 22.38 27.0782 22.2815 27.2833 22.0846C27.4884 21.8795 27.6402 21.6169 27.7387 21.2969H28.2556C27.993 22.0436 27.6402 22.6097 27.1971 22.9954C26.7541 23.381 26.2453 23.5738 25.671 23.5738C25.2607 23.5738 24.9366 23.4467 24.6987 23.1923C24.4689 22.9297 24.3541 22.5646 24.3541 22.0969C24.3541 21.9903 24.3623 21.8713 24.3787 21.74C24.3951 21.6005 24.4197 21.4528 24.4525 21.2969L25.191 17.8385H24.7848L24.8833 17.3462ZM29.7892 22.38C30.0025 22.38 30.1912 22.2897 30.3553 22.1092C30.5276 21.9205 30.6671 21.6497 30.7738 21.2969L31.6107 17.3462H33.383L32.4969 21.5308C32.4804 21.6046 32.4681 21.6744 32.4599 21.74C32.4517 21.7974 32.4476 21.859 32.4476 21.9246C32.4476 22.0887 32.4845 22.2077 32.5584 22.2815C32.6404 22.3472 32.7717 22.38 32.9522 22.38C33.1656 22.38 33.3584 22.2856 33.5307 22.0969C33.703 21.9082 33.8425 21.6415 33.9492 21.2969H34.4661C34.2035 22.0518 33.863 22.6221 33.4445 23.0077C33.0261 23.3851 32.542 23.5738 31.9922 23.5738C31.6394 23.5738 31.3563 23.4754 31.143 23.2785C30.9297 23.0733 30.8066 22.7821 30.7738 22.4046C30.5358 22.7985 30.2651 23.0938 29.9615 23.2908C29.6661 23.4795 29.3297 23.5738 28.9522 23.5738C28.542 23.5738 28.2179 23.4467 27.9799 23.1923C27.7502 22.9297 27.6353 22.5646 27.6353 22.0969C27.6353 21.9903 27.6435 21.8713 27.6599 21.74C27.6763 21.6005 27.701 21.4528 27.7338 21.2969L28.5707 17.3462H30.343L29.4569 21.5308C29.4404 21.5964 29.4281 21.6579 29.4199 21.7154C29.4199 21.7646 29.4199 21.8179 29.4199 21.8754C29.4199 22.0395 29.4486 22.1667 29.5061 22.2569C29.5717 22.339 29.6661 22.38 29.7892 22.38ZM35.2523 23.5H33.48L34.7846 17.3462H36.5569L36.3969 18.1092C36.758 17.8056 37.0411 17.6046 37.2462 17.5062C37.4595 17.3995 37.6728 17.3462 37.8862 17.3462C38.1405 17.3462 38.3457 17.4364 38.5016 17.6169C38.6575 17.7892 38.7354 18.0067 38.7354 18.2692C38.7354 18.5236 38.6534 18.7369 38.4893 18.9092C38.3252 19.0815 38.1118 19.1677 37.8493 19.1677C37.7098 19.1677 37.599 19.1349 37.5169 19.0692C37.4431 19.0036 37.3898 18.8682 37.3569 18.6631C37.3323 18.5318 37.3036 18.4497 37.2708 18.4169C37.238 18.3759 37.1928 18.3554 37.1354 18.3554C36.9959 18.3554 36.8646 18.3841 36.7416 18.4415C36.6185 18.499 36.4503 18.6262 36.2369 18.8231L35.2523 23.5ZM43.068 18.4169C43.068 19.0979 42.789 19.6928 42.2311 20.2015C41.6731 20.7021 41.0085 20.9728 40.2372 21.0138C40.229 21.1533 40.2208 21.26 40.2126 21.3338C40.2126 21.3995 40.2126 21.4569 40.2126 21.5062C40.2126 21.8836 40.2742 22.1503 40.3972 22.3062C40.5285 22.4621 40.7624 22.54 41.0988 22.54C41.4844 22.54 41.8372 22.4538 42.1572 22.2815C42.4854 22.101 42.8588 21.7728 43.2772 21.2969H43.6957C43.2198 22.0682 42.7029 22.6426 42.1449 23.02C41.587 23.3892 40.9757 23.5738 40.3111 23.5738C39.6793 23.5738 39.1993 23.4097 38.8711 23.0815C38.5511 22.7533 38.3911 22.2651 38.3911 21.6169C38.3911 21.1492 38.4649 20.6528 38.6126 20.1277C38.7603 19.6026 38.9572 19.1349 39.2034 18.7246C39.507 18.2323 39.868 17.8631 40.2865 17.6169C40.7131 17.3626 41.189 17.2354 41.7142 17.2354C42.1654 17.2354 42.5019 17.3338 42.7234 17.5308C42.9531 17.7195 43.068 18.0149 43.068 18.4169ZM41.8126 17.8877C41.5336 17.8877 41.2506 18.1379 40.9634 18.6385C40.6844 19.1308 40.4752 19.7256 40.3357 20.4231C40.8116 20.3903 41.226 20.1728 41.5788 19.7708C41.9398 19.3605 42.1203 18.901 42.1203 18.3923C42.1203 18.22 42.0957 18.0928 42.0465 18.0108C41.9972 17.9287 41.9193 17.8877 41.8126 17.8877Z" fill="#202231"/>
</svg>
