<svg width="115" height="48" viewBox="0 0 115 48" fill="none" xmlns="http://www.w3.org/2000/svg">
<path d="M9.032 19.24C7.752 19.24 6.56 19.032 5.456 18.616C4.368 18.184 3.416 17.584 2.6 16.816C1.8 16.032 1.176 15.112 0.728 14.056C0.28 13 0.0560001 11.848 0.0560001 10.6C0.0560001 9.352 0.28 8.2 0.728 7.144C1.176 6.088 1.808 5.176 2.624 4.408C3.44 3.624 4.392 3.024 5.48 2.608C6.568 2.176 7.76 1.96 9.056 1.96C10.432 1.96 11.688 2.2 12.824 2.68C13.96 3.144 14.92 3.84 15.704 4.768L13.688 6.664C13.08 6.008 12.4 5.52 11.648 5.2C10.896 4.864 10.08 4.696 9.2 4.696C8.32 4.696 7.512 4.84 6.776 5.128C6.056 5.416 5.424 5.824 4.88 6.352C4.352 6.88 3.936 7.504 3.632 8.224C3.344 8.944 3.2 9.736 3.2 10.6C3.2 11.464 3.344 12.256 3.632 12.976C3.936 13.696 4.352 14.32 4.88 14.848C5.424 15.376 6.056 15.784 6.776 16.072C7.512 16.36 8.32 16.504 9.2 16.504C10.08 16.504 10.896 16.344 11.648 16.024C12.4 15.688 13.08 15.184 13.688 14.512L15.704 16.432C14.92 17.344 13.96 18.04 12.824 18.52C11.688 19 10.424 19.24 9.032 19.24ZM23.2413 19.168C21.9293 19.168 20.7613 18.888 19.7373 18.328C18.7133 17.752 17.9053 16.968 17.3133 15.976C16.7213 14.984 16.4253 13.856 16.4253 12.592C16.4253 11.312 16.7213 10.184 17.3133 9.208C17.9053 8.216 18.7133 7.44 19.7373 6.88C20.7613 6.32 21.9293 6.04 23.2413 6.04C24.5693 6.04 25.7453 6.32 26.7693 6.88C27.8093 7.44 28.6173 8.208 29.1933 9.184C29.7853 10.16 30.0813 11.296 30.0813 12.592C30.0813 13.856 29.7853 14.984 29.1933 15.976C28.6173 16.968 27.8093 17.752 26.7693 18.328C25.7453 18.888 24.5693 19.168 23.2413 19.168ZM23.2413 16.6C23.9773 16.6 24.6333 16.44 25.2093 16.12C25.7853 15.8 26.2333 15.336 26.5533 14.728C26.8893 14.12 27.0573 13.408 27.0573 12.592C27.0573 11.76 26.8893 11.048 26.5533 10.456C26.2333 9.848 25.7853 9.384 25.2093 9.064C24.6333 8.744 23.9853 8.584 23.2653 8.584C22.5293 8.584 21.8733 8.744 21.2973 9.064C20.7373 9.384 20.2893 9.848 19.9533 10.456C19.6173 11.048 19.4493 11.76 19.4493 12.592C19.4493 13.408 19.6173 14.12 19.9533 14.728C20.2893 15.336 20.7373 15.8 21.2973 16.12C21.8733 16.44 22.5213 16.6 23.2413 16.6ZM38.3981 19.168C37.0541 19.168 35.8541 18.888 34.7981 18.328C33.7581 17.752 32.9421 16.968 32.3501 15.976C31.7581 14.984 31.4621 13.856 31.4621 12.592C31.4621 11.312 31.7581 10.184 32.3501 9.208C32.9421 8.216 33.7581 7.44 34.7981 6.88C35.8541 6.32 37.0541 6.04 38.3981 6.04C39.6461 6.04 40.7421 6.296 41.6861 6.808C42.6461 7.304 43.3741 8.04 43.8701 9.016L41.5661 10.36C41.1821 9.752 40.7101 9.304 40.1501 9.016C39.6061 8.728 39.0141 8.584 38.3741 8.584C37.6381 8.584 36.9741 8.744 36.3821 9.064C35.7901 9.384 35.3261 9.848 34.9901 10.456C34.6541 11.048 34.4861 11.76 34.4861 12.592C34.4861 13.424 34.6541 14.144 34.9901 14.752C35.3261 15.344 35.7901 15.8 36.3821 16.12C36.9741 16.44 37.6381 16.6 38.3741 16.6C39.0141 16.6 39.6061 16.456 40.1501 16.168C40.7101 15.88 41.1821 15.432 41.5661 14.824L43.8701 16.168C43.3741 17.128 42.6461 17.872 41.6861 18.4C40.7421 18.912 39.6461 19.168 38.3981 19.168ZM51.6039 19.168C50.2919 19.168 49.1239 18.888 48.0999 18.328C47.0759 17.752 46.2679 16.968 45.6759 15.976C45.0839 14.984 44.7879 13.856 44.7879 12.592C44.7879 11.312 45.0839 10.184 45.6759 9.208C46.2679 8.216 47.0759 7.44 48.0999 6.88C49.1239 6.32 50.2919 6.04 51.6039 6.04C52.9319 6.04 54.1079 6.32 55.1319 6.88C56.1719 7.44 56.9799 8.208 57.5559 9.184C58.1479 10.16 58.4439 11.296 58.4439 12.592C58.4439 13.856 58.1479 14.984 57.5559 15.976C56.9799 16.968 56.1719 17.752 55.1319 18.328C54.1079 18.888 52.9319 19.168 51.6039 19.168ZM51.6039 16.6C52.3399 16.6 52.9959 16.44 53.5719 16.12C54.1479 15.8 54.5959 15.336 54.9159 14.728C55.2519 14.12 55.4199 13.408 55.4199 12.592C55.4199 11.76 55.2519 11.048 54.9159 10.456C54.5959 9.848 54.1479 9.384 53.5719 9.064C52.9959 8.744 52.3479 8.584 51.6279 8.584C50.8919 8.584 50.2359 8.744 49.6599 9.064C49.0999 9.384 48.6519 9.848 48.3159 10.456C47.9799 11.048 47.8119 11.76 47.8119 12.592C47.8119 13.408 47.9799 14.12 48.3159 14.728C48.6519 15.336 49.0999 15.8 49.6599 16.12C50.2359 16.44 50.8839 16.6 51.6039 16.6ZM68.1526 6.04C69.1766 6.04 70.0886 6.24 70.8886 6.64C71.7046 7.04 72.3446 7.656 72.8086 8.488C73.2726 9.304 73.5046 10.36 73.5046 11.656V19H70.5046V12.04C70.5046 10.904 70.2326 10.056 69.6886 9.496C69.1606 8.936 68.4166 8.656 67.4566 8.656C66.7526 8.656 66.1286 8.8 65.5846 9.088C65.0406 9.376 64.6166 9.808 64.3126 10.384C64.0246 10.944 63.8806 11.656 63.8806 12.52V19H60.8806V6.184H63.7366V9.64L63.2326 8.584C63.6806 7.768 64.3286 7.144 65.1766 6.712C66.0406 6.264 67.0326 6.04 68.1526 6.04ZM76.8783 19V6.184H79.8783V19H76.8783ZM78.3903 4.072C77.8303 4.072 77.3663 3.896 76.9983 3.544C76.6463 3.192 76.4703 2.768 76.4703 2.272C76.4703 1.76 76.6463 1.336 76.9983 0.999999C77.3663 0.647999 77.8303 0.472 78.3903 0.472C78.9503 0.472 79.4063 0.639999 79.7583 0.975999C80.1263 1.296 80.3103 1.704 80.3103 2.2C80.3103 2.728 80.1343 3.176 79.7823 3.544C79.4303 3.896 78.9663 4.072 78.3903 4.072ZM83.3838 19V6.184H86.2398V9.712L85.9038 8.68C86.2878 7.816 86.8878 7.16 87.7038 6.712C88.5358 6.264 89.5678 6.04 90.7998 6.04V8.896C90.6718 8.864 90.5518 8.848 90.4398 8.848C90.3278 8.832 90.2158 8.824 90.1038 8.824C88.9678 8.824 88.0638 9.16 87.3918 9.832C86.7198 10.488 86.3838 11.472 86.3838 12.784V19H83.3838ZM99.8947 19V16.408L99.7267 15.856V11.32C99.7267 10.44 99.4627 9.76 98.9347 9.28C98.4067 8.784 97.6067 8.536 96.5347 8.536C95.8147 8.536 95.1027 8.648 94.3987 8.872C93.7107 9.096 93.1267 9.408 92.6467 9.808L91.4707 7.624C92.1587 7.096 92.9747 6.704 93.9187 6.448C94.8787 6.176 95.8707 6.04 96.8947 6.04C98.7507 6.04 100.183 6.488 101.191 7.384C102.215 8.264 102.727 9.632 102.727 11.488V19H99.8947ZM95.8627 19.168C94.9027 19.168 94.0627 19.008 93.3427 18.688C92.6227 18.352 92.0627 17.896 91.6627 17.32C91.2787 16.728 91.0867 16.064 91.0867 15.328C91.0867 14.608 91.2547 13.96 91.5907 13.384C91.9427 12.808 92.5107 12.352 93.2947 12.016C94.0787 11.68 95.1187 11.512 96.4147 11.512H100.135V13.504H96.6307C95.6067 13.504 94.9187 13.672 94.5667 14.008C94.2147 14.328 94.0387 14.728 94.0387 15.208C94.0387 15.752 94.2547 16.184 94.6867 16.504C95.1187 16.824 95.7187 16.984 96.4867 16.984C97.2227 16.984 97.8787 16.816 98.4547 16.48C99.0467 16.144 99.4707 15.648 99.7267 14.992L100.231 16.792C99.9427 17.544 99.4227 18.128 98.6707 18.544C97.9347 18.96 96.9987 19.168 95.8627 19.168ZM1.256 47V30.2H4.376V47H1.256ZM15.4721 34.04C16.4961 34.04 17.4081 34.24 18.2081 34.64C19.0241 35.04 19.6641 35.656 20.1281 36.488C20.5921 37.304 20.8241 38.36 20.8241 39.656V47H17.8241V40.04C17.8241 38.904 17.5521 38.056 17.0081 37.496C16.4801 36.936 15.7361 36.656 14.7761 36.656C14.0721 36.656 13.4481 36.8 12.9041 37.088C12.3601 37.376 11.9361 37.808 11.6321 38.384C11.3441 38.944 11.2001 39.656 11.2001 40.52V47H8.20006V34.184H11.0561V37.64L10.5521 36.584C11.0001 35.768 11.6481 35.144 12.4961 34.712C13.3601 34.264 14.3521 34.04 15.4721 34.04ZM29.6452 47.168C28.4132 47.168 27.3012 46.896 26.3092 46.352C25.3332 45.792 24.5652 45.024 24.0052 44.048C23.4452 43.072 23.1652 41.92 23.1652 40.592C23.1652 39.264 23.4452 38.112 24.0052 37.136C24.5652 36.16 25.3332 35.4 26.3092 34.856C27.3012 34.312 28.4132 34.04 29.6452 34.04C30.7172 34.04 31.6772 34.28 32.5252 34.76C33.3732 35.224 34.0452 35.936 34.5412 36.896C35.0372 37.856 35.2852 39.088 35.2852 40.592C35.2852 42.08 35.0452 43.312 34.5652 44.288C34.0852 45.248 33.4212 45.968 32.5732 46.448C31.7252 46.928 30.7492 47.168 29.6452 47.168ZM30.0052 44.6C30.7252 44.6 31.3652 44.44 31.9252 44.12C32.5012 43.8 32.9572 43.336 33.2932 42.728C33.6452 42.12 33.8212 41.408 33.8212 40.592C33.8212 39.76 33.6452 39.048 33.2932 38.456C32.9572 37.848 32.5012 37.384 31.9252 37.064C31.3652 36.744 30.7252 36.584 30.0052 36.584C29.2852 36.584 28.6372 36.744 28.0612 37.064C27.5012 37.384 27.0452 37.848 26.6932 38.456C26.3572 39.048 26.1892 39.76 26.1892 40.592C26.1892 41.408 26.3572 42.12 26.6932 42.728C27.0452 43.336 27.5012 43.8 28.0612 44.12C28.6372 44.44 29.2852 44.6 30.0052 44.6ZM33.8932 47V43.976L34.0132 40.568L33.7732 37.16V29.192H36.7492V47H33.8932ZM46.0257 47.168C44.7137 47.168 43.5457 46.888 42.5217 46.328C41.4977 45.752 40.6897 44.968 40.0977 43.976C39.5057 42.984 39.2097 41.856 39.2097 40.592C39.2097 39.312 39.5057 38.184 40.0977 37.208C40.6897 36.216 41.4977 35.44 42.5217 34.88C43.5457 34.32 44.7137 34.04 46.0257 34.04C47.3537 34.04 48.5297 34.32 49.5537 34.88C50.5937 35.44 51.4017 36.208 51.9777 37.184C52.5697 38.16 52.8657 39.296 52.8657 40.592C52.8657 41.856 52.5697 42.984 51.9777 43.976C51.4017 44.968 50.5937 45.752 49.5537 46.328C48.5297 46.888 47.3537 47.168 46.0257 47.168ZM46.0257 44.6C46.7617 44.6 47.4177 44.44 47.9937 44.12C48.5697 43.8 49.0177 43.336 49.3377 42.728C49.6737 42.12 49.8417 41.408 49.8417 40.592C49.8417 39.76 49.6737 39.048 49.3377 38.456C49.0177 37.848 48.5697 37.384 47.9937 37.064C47.4177 36.744 46.7697 36.584 46.0497 36.584C45.3137 36.584 44.6577 36.744 44.0817 37.064C43.5217 37.384 43.0737 37.848 42.7377 38.456C42.4017 39.048 42.2337 39.76 42.2337 40.592C42.2337 41.408 42.4017 42.12 42.7377 42.728C43.0737 43.336 43.5217 43.8 44.0817 44.12C44.6577 44.44 45.3057 44.6 46.0257 44.6ZM62.5745 34.04C63.5985 34.04 64.5105 34.24 65.3105 34.64C66.1265 35.04 66.7665 35.656 67.2305 36.488C67.6945 37.304 67.9265 38.36 67.9265 39.656V47H64.9265V40.04C64.9265 38.904 64.6545 38.056 64.1105 37.496C63.5825 36.936 62.8385 36.656 61.8785 36.656C61.1745 36.656 60.5505 36.8 60.0065 37.088C59.4625 37.376 59.0385 37.808 58.7345 38.384C58.4465 38.944 58.3025 39.656 58.3025 40.52V47H55.3025V34.184H58.1585V37.64L57.6545 36.584C58.1025 35.768 58.7505 35.144 59.5985 34.712C60.4625 34.264 61.4545 34.04 62.5745 34.04ZM77.3476 47.168C75.9236 47.168 74.6756 46.888 73.6036 46.328C72.5476 45.752 71.7236 44.968 71.1316 43.976C70.5556 42.984 70.2676 41.856 70.2676 40.592C70.2676 39.312 70.5476 38.184 71.1076 37.208C71.6836 36.216 72.4676 35.44 73.4596 34.88C74.4676 34.32 75.6116 34.04 76.8916 34.04C78.1396 34.04 79.2516 34.312 80.2276 34.856C81.2036 35.4 81.9716 36.168 82.5316 37.16C83.0916 38.152 83.3716 39.32 83.3716 40.664C83.3716 40.792 83.3636 40.936 83.3476 41.096C83.3476 41.256 83.3396 41.408 83.3236 41.552H72.6436V39.56H81.7396L80.5636 40.184C80.5796 39.448 80.4276 38.8 80.1076 38.24C79.7876 37.68 79.3476 37.24 78.7876 36.92C78.2436 36.6 77.6116 36.44 76.8916 36.44C76.1556 36.44 75.5076 36.6 74.9476 36.92C74.4036 37.24 73.9716 37.688 73.6516 38.264C73.3476 38.824 73.1956 39.488 73.1956 40.256V40.736C73.1956 41.504 73.3716 42.184 73.7236 42.776C74.0756 43.368 74.5716 43.824 75.2116 44.144C75.8516 44.464 76.5876 44.624 77.4196 44.624C78.1396 44.624 78.7876 44.512 79.3636 44.288C79.9396 44.064 80.4516 43.712 80.8996 43.232L82.5076 45.08C81.9316 45.752 81.2036 46.272 80.3236 46.64C79.4596 46.992 78.4676 47.168 77.3476 47.168ZM89.7813 47.168C88.7093 47.168 87.6773 47.032 86.6853 46.76C85.7093 46.472 84.9333 46.128 84.3573 45.728L85.5093 43.448C86.0853 43.816 86.7733 44.12 87.5733 44.36C88.3733 44.6 89.1733 44.72 89.9733 44.72C90.9173 44.72 91.5973 44.592 92.0133 44.336C92.4453 44.08 92.6613 43.736 92.6613 43.304C92.6613 42.952 92.5173 42.688 92.2293 42.512C91.9413 42.32 91.5653 42.176 91.1013 42.08C90.6373 41.984 90.1173 41.896 89.5413 41.816C88.9813 41.736 88.4133 41.632 87.8373 41.504C87.2773 41.36 86.7653 41.16 86.3013 40.904C85.8373 40.632 85.4613 40.272 85.1733 39.824C84.8853 39.376 84.7413 38.784 84.7413 38.048C84.7413 37.232 84.9733 36.528 85.4373 35.936C85.9013 35.328 86.5493 34.864 87.3813 34.544C88.2293 34.208 89.2293 34.04 90.3813 34.04C91.2453 34.04 92.1173 34.136 92.9973 34.328C93.8773 34.52 94.6053 34.792 95.1813 35.144L94.0293 37.424C93.4213 37.056 92.8053 36.808 92.1813 36.68C91.5733 36.536 90.9653 36.464 90.3573 36.464C89.4453 36.464 88.7653 36.6 88.3173 36.872C87.8853 37.144 87.6693 37.488 87.6693 37.904C87.6693 38.288 87.8133 38.576 88.1013 38.768C88.3893 38.96 88.7653 39.112 89.2293 39.224C89.6933 39.336 90.2053 39.432 90.7653 39.512C91.3413 39.576 91.9093 39.68 92.4693 39.824C93.0293 39.968 93.5413 40.168 94.0053 40.424C94.4853 40.664 94.8693 41.008 95.1573 41.456C95.4453 41.904 95.5893 42.488 95.5893 43.208C95.5893 44.008 95.3493 44.704 94.8693 45.296C94.4053 45.888 93.7413 46.352 92.8773 46.688C92.0133 47.008 90.9813 47.168 89.7813 47.168ZM97.7409 47V34.184H100.741V47H97.7409ZM99.2529 32.072C98.6929 32.072 98.2289 31.896 97.8609 31.544C97.5089 31.192 97.3329 30.768 97.3329 30.272C97.3329 29.76 97.5089 29.336 97.8609 29C98.2289 28.648 98.6929 28.472 99.2529 28.472C99.8129 28.472 100.269 28.64 100.621 28.976C100.989 29.296 101.173 29.704 101.173 30.2C101.173 30.728 100.997 31.176 100.645 31.544C100.293 31.896 99.8289 32.072 99.2529 32.072ZM112.142 47V44.408L111.974 43.856V39.32C111.974 38.44 111.71 37.76 111.182 37.28C110.654 36.784 109.854 36.536 108.782 36.536C108.062 36.536 107.35 36.648 106.646 36.872C105.958 37.096 105.374 37.408 104.894 37.808L103.718 35.624C104.406 35.096 105.222 34.704 106.166 34.448C107.126 34.176 108.118 34.04 109.142 34.04C110.998 34.04 112.43 34.488 113.438 35.384C114.462 36.264 114.974 37.632 114.974 39.488V47H112.142ZM108.11 47.168C107.15 47.168 106.31 47.008 105.59 46.688C104.87 46.352 104.31 45.896 103.91 45.32C103.526 44.728 103.334 44.064 103.334 43.328C103.334 42.608 103.502 41.96 103.838 41.384C104.19 40.808 104.758 40.352 105.542 40.016C106.326 39.68 107.366 39.512 108.662 39.512H112.382V41.504H108.878C107.854 41.504 107.166 41.672 106.814 42.008C106.462 42.328 106.286 42.728 106.286 43.208C106.286 43.752 106.502 44.184 106.934 44.504C107.366 44.824 107.966 44.984 108.734 44.984C109.47 44.984 110.126 44.816 110.702 44.48C111.294 44.144 111.718 43.648 111.974 42.992L112.478 44.792C112.19 45.544 111.67 46.128 110.918 46.544C110.182 46.96 109.246 47.168 108.11 47.168Z" fill="white"/>
</svg>
