<svg width="44" height="45" viewBox="0 0 44 45" fill="none" xmlns="http://www.w3.org/2000/svg">
<rect y="0.882324" width="44" height="44" rx="22" fill="#E9E9FC"/>
<path d="M22 23.7153C23.3807 23.7153 24.5 22.596 24.5 21.2153C24.5 19.8346 23.3807 18.7153 22 18.7153C20.6193 18.7153 19.5 19.8346 19.5 21.2153C19.5 22.596 20.6193 23.7153 22 23.7153Z" stroke="#2821FD" stroke-width="2" stroke-linecap="round" stroke-linejoin="round"/>
<path d="M21.9997 14.5488C20.2316 14.5488 18.5359 15.2512 17.2856 16.5014C16.0354 17.7517 15.333 19.4474 15.333 21.2155C15.333 22.7922 15.668 23.8238 16.583 24.9655L21.9997 31.2155L27.4163 24.9655C28.3313 23.8238 28.6663 22.7922 28.6663 21.2155C28.6663 19.4474 27.964 17.7517 26.7137 16.5014C25.4635 15.2512 23.7678 14.5488 21.9997 14.5488V14.5488Z" stroke="#2821FD" stroke-width="2" stroke-linecap="round" stroke-linejoin="round"/>
</svg>
