<svg width="44" height="45" viewBox="0 0 44 45" fill="none" xmlns="http://www.w3.org/2000/svg">
<rect y="0.882324" width="44" height="44" rx="22" fill="#E9E9FC"/>
<path d="M30.3945 29.4529L30.4206 29.4404L30.3945 29.4529Z" fill="#1E88E5"/>
<path d="M13.5993 29.4499C13.5691 29.4374 13.5399 29.4228 13.5107 29.4082L13.6003 29.4509L13.5993 29.4499Z" fill="#1E88E5"/>
<path d="M30.7803 29.1999L30.8074 29.1729L30.7803 29.1999Z" fill="#1E88E5"/>
<path d="M30.7169 29.2573C30.6814 29.2869 30.6442 29.3144 30.6055 29.3396C30.6441 29.3143 30.6813 29.2868 30.7169 29.2573Z" fill="#1E88E5"/>
<path d="M13.0592 29.0116C13.0498 29.0001 13.0425 28.9876 13.0342 28.9751L13.0592 29.0116Z" fill="#1E88E5"/>
<path d="M13.1875 29.168L13.2083 29.1898L13.1875 29.168Z" fill="#1E88E5"/>
<path d="M30.5269 29.3877L30.5102 29.3971H30.5029L30.5269 29.3877Z" fill="#1E88E5"/>
<path d="M13.458 17.4656V28.299C13.4578 28.3902 13.4781 28.4802 13.5174 28.5625V28.5698C13.5686 28.6762 13.6489 28.766 13.749 28.8287C13.8491 28.8914 13.9649 28.9244 14.083 28.924H29.9163C30.0342 28.9232 30.1494 28.8892 30.2488 28.8258C30.3481 28.7624 30.4275 28.6722 30.4778 28.5656V28.5583C30.518 28.4777 30.5397 28.3891 30.5413 28.299V17.4656C30.5415 17.3749 30.5216 17.2852 30.483 17.2031L22.5372 22.8823H22.5299L22.1893 23.1323C22.1338 23.1714 22.0676 23.1924 21.9997 23.1924C21.9318 23.1924 21.8656 23.1714 21.8101 23.1323L21.4684 22.8875H21.4622L13.5163 17.2062C13.4782 17.2874 13.4583 17.3759 13.458 17.4656V17.4656Z" fill="#1E88E5"/>
<path d="M22.1893 22.3617L29.9163 16.8408H14.083L21.8101 22.3617C21.8653 22.4013 21.9317 22.4227 21.9997 22.4227C22.0677 22.4227 22.134 22.4013 22.1893 22.3617V22.3617Z" fill="#1E88E5"/>
<path d="M13.132 29.1073L13.1133 29.0854L13.132 29.1073Z" fill="#1E88E5"/>
<path d="M30.9579 28.9834L30.9443 29.0042L30.9579 28.9834Z" fill="#1E88E5"/>
<path d="M12.9785 28.8804L12.9941 28.9085L12.9785 28.8804Z" fill="#1E88E5"/>
<path d="M12.8857 28.6533L12.8962 28.6846L12.8857 28.6533Z" fill="#1E88E5"/>
<path d="M12.8574 28.5386C12.8574 28.5386 12.8574 28.5469 12.8574 28.5511C12.8574 28.5552 12.8585 28.5427 12.8574 28.5386Z" fill="#1E88E5"/>
<path d="M12.8389 28.4082C12.8389 28.4186 12.8389 28.429 12.8389 28.4395C12.841 28.429 12.8399 28.4186 12.8389 28.4082Z" fill="#1E88E5"/>
<path d="M12.9268 28.772L12.933 28.7866L12.9268 28.772Z" fill="#1E88E5"/>
<path d="M31.029 28.8647C31.0206 28.8814 31.0123 28.897 31.0029 28.9127C31.0123 28.897 31.0206 28.8804 31.029 28.8647Z" fill="#1E88E5"/>
<path d="M31.0625 28.8012C31.0677 28.7908 31.0719 28.7814 31.076 28.771C31.076 28.7804 31.0677 28.7908 31.0635 28.7991L31.0625 28.8012Z" fill="#1E88E5"/>
<path d="M31.117 28.6426L31.1045 28.6842L31.117 28.6426Z" fill="#1E88E5"/>
</svg>
