<svg width="44" height="45" viewBox="0 0 44 45" fill="none" xmlns="http://www.w3.org/2000/svg">
<rect y="0.0356445" width="44" height="44" rx="22" fill="#E9E9FC"/>
<rect x="13.25" y="13.2856" width="17.5" height="17.5" rx="6" fill="url(#paint0_radial_396_59549)"/>
<rect x="13.25" y="13.2856" width="17.5" height="17.5" rx="6" fill="url(#paint1_radial_396_59549)"/>
<rect x="13.25" y="13.2856" width="17.5" height="17.5" rx="6" fill="url(#paint2_radial_396_59549)"/>
<path d="M26.375 18.5981C26.375 19.1159 25.9553 19.5356 25.4375 19.5356C24.9197 19.5356 24.5 19.1159 24.5 18.5981C24.5 18.0804 24.9197 17.6606 25.4375 17.6606C25.9553 17.6606 26.375 18.0804 26.375 18.5981Z" fill="white"/>
<path fill-rule="evenodd" clip-rule="evenodd" d="M22 25.1606C23.7259 25.1606 25.125 23.7615 25.125 22.0356C25.125 20.3098 23.7259 18.9106 22 18.9106C20.2741 18.9106 18.875 20.3098 18.875 22.0356C18.875 23.7615 20.2741 25.1606 22 25.1606ZM22 23.9106C23.0355 23.9106 23.875 23.0712 23.875 22.0356C23.875 21.0001 23.0355 20.1606 22 20.1606C20.9645 20.1606 20.125 21.0001 20.125 22.0356C20.125 23.0712 20.9645 23.9106 22 23.9106Z" fill="white"/>
<path fill-rule="evenodd" clip-rule="evenodd" d="M15.75 21.7856C15.75 19.6854 15.75 18.6353 16.1587 17.8332C16.5183 17.1276 17.0919 16.5539 17.7975 16.1944C18.5997 15.7856 19.6498 15.7856 21.75 15.7856H22.25C24.3502 15.7856 25.4003 15.7856 26.2025 16.1944C26.9081 16.5539 27.4817 17.1276 27.8413 17.8332C28.25 18.6353 28.25 19.6854 28.25 21.7856V22.2856C28.25 24.3858 28.25 25.4359 27.8413 26.2381C27.4817 26.9437 26.9081 27.5174 26.2025 27.8769C25.4003 28.2856 24.3502 28.2856 22.25 28.2856H21.75C19.6498 28.2856 18.5997 28.2856 17.7975 27.8769C17.0919 27.5174 16.5183 26.9437 16.1587 26.2381C15.75 25.4359 15.75 24.3858 15.75 22.2856V21.7856ZM21.75 17.0356H22.25C23.3207 17.0356 24.0486 17.0366 24.6112 17.0826C25.1592 17.1274 25.4395 17.2085 25.635 17.3081C26.1054 17.5478 26.4878 17.9303 26.7275 18.4007C26.8271 18.5962 26.9083 18.8764 26.9531 19.4244C26.999 19.9871 27 20.7149 27 21.7856V22.2856C27 23.3564 26.999 24.0842 26.9531 24.6468C26.9083 25.1949 26.8271 25.4751 26.7275 25.6706C26.4878 26.141 26.1054 26.5235 25.635 26.7632C25.4395 26.8628 25.1592 26.9439 24.6112 26.9887C24.0486 27.0347 23.3207 27.0356 22.25 27.0356H21.75C20.6793 27.0356 19.9514 27.0347 19.3888 26.9887C18.8408 26.9439 18.5605 26.8628 18.365 26.7632C17.8946 26.5235 17.5122 26.141 17.2725 25.6706C17.1729 25.4751 17.0917 25.1949 17.0469 24.6468C17.001 24.0842 17 23.3564 17 22.2856V21.7856C17 20.7149 17.001 19.9871 17.0469 19.4244C17.0917 18.8764 17.1729 18.5962 17.2725 18.4007C17.5122 17.9303 17.8946 17.5478 18.365 17.3081C18.5605 17.2085 18.8408 17.1274 19.3888 17.0826C19.9514 17.0366 20.6793 17.0356 21.75 17.0356Z" fill="white"/>
<defs>
<radialGradient id="paint0_radial_396_59549" cx="0" cy="0" r="1" gradientUnits="userSpaceOnUse" gradientTransform="translate(19.5 26.4106) rotate(-55.3758) scale(15.9498)">
<stop stop-color="#B13589"/>
<stop offset="0.79309" stop-color="#C62F94"/>
<stop offset="1" stop-color="#8A3AC8"/>
</radialGradient>
<radialGradient id="paint1_radial_396_59549" cx="0" cy="0" r="1" gradientUnits="userSpaceOnUse" gradientTransform="translate(18.875 31.4106) rotate(-65.1363) scale(14.1214)">
<stop stop-color="#E0E8B7"/>
<stop offset="0.444662" stop-color="#FB8A2E"/>
<stop offset="0.71474" stop-color="#E2425C"/>
<stop offset="1" stop-color="#E2425C" stop-opacity="0"/>
</radialGradient>
<radialGradient id="paint2_radial_396_59549" cx="0" cy="0" r="1" gradientUnits="userSpaceOnUse" gradientTransform="translate(12.3125 13.9106) rotate(-8.1301) scale(24.3068 5.19897)">
<stop offset="0.156701" stop-color="#406ADC"/>
<stop offset="0.467799" stop-color="#6A45BE"/>
<stop offset="1" stop-color="#6A45BE" stop-opacity="0"/>
</radialGradient>
</defs>
</svg>
