<svg width="44" height="45" viewBox="0 0 44 45" fill="none" xmlns="http://www.w3.org/2000/svg">
<rect y="0.882324" width="44" height="44" rx="22" fill="#E9E9FC"/>
<rect width="20" height="20" transform="translate(12 12.8823)" fill="url(#paint0_linear_269_37594)"/>
<path fill-rule="evenodd" clip-rule="evenodd" d="M22.5805 15.6294C24.3508 15.7164 26.0004 16.4464 27.2603 17.7072C28.6042 19.052 29.344 20.8395 29.3432 22.7405C29.3416 26.6634 26.1481 29.8552 22.225 29.8552H22.2221C21.0307 29.8548 19.8601 29.556 18.8204 28.9892L15.0469 29.9786L16.0568 26.2917C15.4338 25.2128 15.106 23.9889 15.1066 22.7349C15.1081 18.8121 18.3014 15.6206 22.2249 15.6206L22.5805 15.6294ZM18.9952 27.7012L19.2113 27.8293C20.1197 28.3681 21.1609 28.6532 22.2226 28.6536H22.225C25.486 28.6536 28.1401 26.0008 28.1414 22.7401C28.142 21.16 27.5272 19.6743 26.4101 18.5565C25.2931 17.4387 23.8076 16.8228 22.2273 16.8223C18.9638 16.8223 16.3097 19.4748 16.3084 22.7353C16.308 23.8527 16.6207 24.9409 17.213 25.8824L17.3537 26.1061L16.756 28.2883L18.9952 27.7012ZM25.8111 24.4324C25.7667 24.3582 25.6481 24.3137 25.4702 24.2247C25.2924 24.1357 24.4179 23.7057 24.2549 23.6463C24.0919 23.587 23.9733 23.5574 23.8547 23.7353C23.7362 23.9133 23.3953 24.3137 23.2915 24.4324C23.1878 24.551 23.084 24.5659 22.9062 24.4769C22.7284 24.3879 22.1553 24.2001 21.4759 23.5945C20.9471 23.1231 20.5902 22.541 20.4864 22.363C20.3827 22.185 20.4754 22.0888 20.5644 22.0002C20.6444 21.9205 20.7423 21.7925 20.8312 21.6887C20.9201 21.585 20.9498 21.5107 21.0091 21.3922C21.0684 21.2735 21.0387 21.1697 20.9943 21.0807C20.9498 20.9917 20.5941 20.1167 20.4459 19.7607C20.3015 19.4141 20.1548 19.461 20.0457 19.4555C19.942 19.4504 19.8234 19.4493 19.7048 19.4493C19.5862 19.4493 19.3935 19.4937 19.2305 19.6717C19.0675 19.8497 18.608 20.2798 18.608 21.1548C18.608 22.0299 19.2453 22.8751 19.3343 22.9938C19.4232 23.1125 20.5884 24.908 22.3726 25.6781C22.797 25.8613 23.1283 25.9707 23.3866 26.0526C23.8127 26.1879 24.2004 26.1688 24.5069 26.123C24.8486 26.072 25.5592 25.693 25.7074 25.2778C25.8556 24.8624 25.8556 24.5065 25.8111 24.4324Z" fill="white"/>
<defs>
<linearGradient id="paint0_linear_269_37594" x1="10" y1="20" x2="10" y2="0" gradientUnits="userSpaceOnUse">
<stop stop-color="#25CF43"/>
<stop offset="1" stop-color="#61FD7D"/>
</linearGradient>
</defs>
</svg>
