<svg width="22" height="23" viewBox="0 0 22 23" fill="none" xmlns="http://www.w3.org/2000/svg">
<g filter="url(#filter0_d_362_24861)">
<path d="M2.25 7.7315C2.25 5.55352 2.25 4.46453 2.67386 3.63265C3.0467 2.90091 3.64163 2.30598 4.37337 1.93314C5.20525 1.50928 6.29424 1.50928 8.47222 1.50928H13.5278C15.7058 1.50928 16.7948 1.50928 17.6266 1.93314C18.3584 2.30598 18.9533 2.90091 19.3261 3.63265C19.75 4.46453 19.75 5.55352 19.75 7.7315V12.7871C19.75 14.965 19.75 16.054 19.3261 16.8859C18.9533 17.6176 18.3584 18.2126 17.6266 18.5854C16.7948 19.0093 15.7058 19.0093 13.5278 19.0093H8.47222C6.29424 19.0093 5.20525 19.0093 4.37337 18.5854C3.64163 18.2126 3.0467 17.6176 2.67386 16.8859C2.25 16.054 2.25 14.965 2.25 12.7871V7.7315Z" fill="white"/>
<path d="M14.7821 5.58618L11.0401 8.50644L7.21262 5.58618V5.58697L7.21724 5.59092V9.68007L10.997 12.6635L14.7821 9.79531V5.58618Z" fill="#EA4335"/>
<path d="M15.7647 4.87577L14.782 5.5861V9.79523L17.8742 7.42113V5.99099C17.8742 5.99099 17.4988 3.94839 15.7647 4.87577Z" fill="#FBBC05"/>
<path d="M14.782 9.79524V15.2546H17.152C17.152 15.2546 17.8264 15.1851 17.875 14.4164V7.42114L14.782 9.79524Z" fill="#34A853"/>
<path d="M7.21742 15.2593V9.67997L7.21262 9.67603L7.21742 15.2593Z" fill="#C5221F"/>
<path d="M7.21258 5.58687L6.23529 4.88048C4.50112 3.9531 4.125 5.99491 4.125 5.99491V7.42505L7.21258 9.67602V5.58687Z" fill="#C5221F"/>
<path d="M7.21262 5.58691V9.67607L7.21742 9.68002V5.59086L7.21262 5.58691Z" fill="#C5221F"/>
<path d="M4.125 7.42578V14.421C4.17279 15.1905 4.84795 15.2592 4.84795 15.2592H7.21798L7.21258 9.67596L4.125 7.42578Z" fill="#4285F4"/>
</g>
<defs>
<filter id="filter0_d_362_24861" x="-1" y="-0.740723" width="24" height="24" filterUnits="userSpaceOnUse" color-interpolation-filters="sRGB">
<feFlood flood-opacity="0" result="BackgroundImageFix"/>
<feColorMatrix in="SourceAlpha" type="matrix" values="0 0 0 0 0 0 0 0 0 0 0 0 0 0 0 0 0 0 127 0" result="hardAlpha"/>
<feOffset dy="1"/>
<feGaussianBlur stdDeviation="1"/>
<feColorMatrix type="matrix" values="0 0 0 0 0.0627451 0 0 0 0 0.0941176 0 0 0 0 0.156863 0 0 0 0.05 0"/>
<feBlend mode="normal" in2="BackgroundImageFix" result="effect1_dropShadow_362_24861"/>
<feBlend mode="normal" in="SourceGraphic" in2="effect1_dropShadow_362_24861" result="shape"/>
</filter>
</defs>
</svg>
