<svg width="20" height="21" viewBox="0 0 20 21" fill="none" xmlns="http://www.w3.org/2000/svg">
<rect x="1.25" y="1.50928" width="17.5" height="17.5" rx="6" fill="url(#paint0_radial_362_28832)"/>
<rect x="1.25" y="1.50928" width="17.5" height="17.5" rx="6" fill="url(#paint1_radial_362_28832)"/>
<rect x="1.25" y="1.50928" width="17.5" height="17.5" rx="6" fill="url(#paint2_radial_362_28832)"/>
<path d="M14.375 6.82178C14.375 7.33954 13.9553 7.75928 13.4375 7.75928C12.9197 7.75928 12.5 7.33954 12.5 6.82178C12.5 6.30401 12.9197 5.88428 13.4375 5.88428C13.9553 5.88428 14.375 6.30401 14.375 6.82178Z" fill="white"/>
<path fill-rule="evenodd" clip-rule="evenodd" d="M10 13.3843C11.7259 13.3843 13.125 11.9852 13.125 10.2593C13.125 8.53339 11.7259 7.13428 10 7.13428C8.27411 7.13428 6.875 8.53339 6.875 10.2593C6.875 11.9852 8.27411 13.3843 10 13.3843ZM10 12.1343C11.0355 12.1343 11.875 11.2948 11.875 10.2593C11.875 9.22374 11.0355 8.38428 10 8.38428C8.96447 8.38428 8.125 9.22374 8.125 10.2593C8.125 11.2948 8.96447 12.1343 10 12.1343Z" fill="white"/>
<path fill-rule="evenodd" clip-rule="evenodd" d="M3.75 10.0093C3.75 7.90908 3.75 6.85898 4.15873 6.05681C4.51825 5.35121 5.09193 4.77753 5.79754 4.418C6.5997 4.00928 7.6498 4.00928 9.75 4.00928H10.25C12.3502 4.00928 13.4003 4.00928 14.2025 4.418C14.9081 4.77753 15.4817 5.35121 15.8413 6.05681C16.25 6.85898 16.25 7.90908 16.25 10.0093V10.5093C16.25 12.6095 16.25 13.6596 15.8413 14.4617C15.4817 15.1673 14.9081 15.741 14.2025 16.1006C13.4003 16.5093 12.3502 16.5093 10.25 16.5093H9.75C7.6498 16.5093 6.5997 16.5093 5.79754 16.1006C5.09193 15.741 4.51825 15.1673 4.15873 14.4617C3.75 13.6596 3.75 12.6095 3.75 10.5093V10.0093ZM9.75 5.25928H10.25C11.3207 5.25928 12.0486 5.26025 12.6112 5.30622C13.1592 5.35099 13.4395 5.43215 13.635 5.53176C14.1054 5.77144 14.4878 6.1539 14.7275 6.6243C14.8271 6.8198 14.9083 7.10006 14.9531 7.64807C14.999 8.21069 15 8.93855 15 10.0093V10.5093C15 11.58 14.999 12.3079 14.9531 12.8705C14.9083 13.4185 14.8271 13.6988 14.7275 13.8943C14.4878 14.3647 14.1054 14.7471 13.635 14.9868C13.4395 15.0864 13.1592 15.1676 12.6112 15.2123C12.0486 15.2583 11.3207 15.2593 10.25 15.2593H9.75C8.67928 15.2593 7.95141 15.2583 7.3888 15.2123C6.84078 15.1676 6.56052 15.0864 6.36502 14.9868C5.89462 14.7471 5.51217 14.3647 5.27248 13.8943C5.17287 13.6988 5.09171 13.4185 5.04694 12.8705C5.00097 12.3079 5 11.58 5 10.5093V10.0093C5 8.93855 5.00097 8.21069 5.04694 7.64807C5.09171 7.10006 5.17287 6.8198 5.27248 6.6243C5.51217 6.1539 5.89462 5.77144 6.36502 5.53176C6.56052 5.43215 6.84078 5.35099 7.3888 5.30622C7.95141 5.26025 8.67928 5.25928 9.75 5.25928Z" fill="white"/>
<defs>
<radialGradient id="paint0_radial_362_28832" cx="0" cy="0" r="1" gradientUnits="userSpaceOnUse" gradientTransform="translate(7.5 14.6343) rotate(-55.3758) scale(15.9498)">
<stop stop-color="#B13589"/>
<stop offset="0.79309" stop-color="#C62F94"/>
<stop offset="1" stop-color="#8A3AC8"/>
</radialGradient>
<radialGradient id="paint1_radial_362_28832" cx="0" cy="0" r="1" gradientUnits="userSpaceOnUse" gradientTransform="translate(6.875 19.6343) rotate(-65.1363) scale(14.1214)">
<stop stop-color="#E0E8B7"/>
<stop offset="0.444662" stop-color="#FB8A2E"/>
<stop offset="0.71474" stop-color="#E2425C"/>
<stop offset="1" stop-color="#E2425C" stop-opacity="0"/>
</radialGradient>
<radialGradient id="paint2_radial_362_28832" cx="0" cy="0" r="1" gradientUnits="userSpaceOnUse" gradientTransform="translate(0.312501 2.13428) rotate(-8.1301) scale(24.3068 5.19897)">
<stop offset="0.156701" stop-color="#406ADC"/>
<stop offset="0.467799" stop-color="#6A45BE"/>
<stop offset="1" stop-color="#6A45BE" stop-opacity="0"/>
</radialGradient>
</defs>
</svg>
