<svg width="100" height="100" viewBox="0 0 100 100" fill="none" xmlns="http://www.w3.org/2000/svg">
<rect x="-6.10352e-05" width="100" height="99.1429" rx="8" fill="#181B20" fill-opacity="0.8"/>
<rect x="9.99994" y="21" width="80.0001" height="57.1429" rx="4.57143" fill="#00529C"/>
<path fill-rule="evenodd" clip-rule="evenodd" d="M33.7161 45.7896H37.529C39.073 45.7896 40.2241 46.4727 40.2241 47.9109C40.2241 48.9654 39.6905 49.5526 38.7636 49.8637V49.8874C39.8684 50.1158 40.4385 50.715 40.4385 51.733C40.4385 53.7347 38.692 54.1538 37.2076 54.1538H33.7161V45.7896ZM35.9249 49.0971H36.5431C37.2676 49.0971 38.0163 48.9173 38.0163 48.2097C38.0163 47.4437 37.3034 47.3711 36.5663 47.3711H35.9249V49.0971ZM35.9249 52.5722H36.5793C37.3862 52.5722 38.2292 52.4522 38.2292 51.6013C38.2292 50.6912 37.3627 50.6066 36.6024 50.6066H35.9249V52.5722Z" fill="white"/>
<path fill-rule="evenodd" clip-rule="evenodd" d="M43.3377 45.7896H46.0458L49.2409 54.1538H46.8177L46.2006 52.3688H43.0886L42.435 54.1538H40.1904L43.3377 45.7896ZM44.692 47.5157H44.667L43.5987 50.7874H45.6771L44.692 47.5157Z" fill="white"/>
<path fill-rule="evenodd" clip-rule="evenodd" d="M49.5486 45.7896H52.3634L55.1666 51.47H55.1897L55.1547 45.7896H57.1745V54.1538H54.4306L51.5316 48.4379H51.5088L51.5796 54.1538H49.5486V45.7896Z" fill="white"/>
<path fill-rule="evenodd" clip-rule="evenodd" d="M57.9242 45.7896H60.1331V49.2057H60.1569L62.6503 45.7896H65.3118L62.2468 49.6839L65.5493 54.1538H62.7334L60.1569 50.3554H60.1331V54.1538H57.9242V45.7896Z" fill="white"/>
<path fill-rule="evenodd" clip-rule="evenodd" d="M68.2881 45.7896H72.101C73.6447 45.7896 74.7972 46.4727 74.7972 47.9109C74.7972 48.9654 74.2636 49.5526 73.3367 49.8637V49.8874C74.4411 50.1158 75.0112 50.715 75.0112 51.733C75.0112 53.7347 73.2651 54.1538 71.7811 54.1538H68.2881V45.7896ZM70.4978 49.0971H71.1149C71.8398 49.0971 72.5874 48.9173 72.5874 48.2097C72.5874 47.4437 71.8756 47.3711 71.1395 47.3711H70.4978V49.0971ZM70.4978 52.5722H71.1514C71.9584 52.5722 72.8021 52.4522 72.8021 51.6013C72.8021 50.6912 71.9352 50.6066 71.1749 50.6066H70.4978V52.5722Z" fill="white"/>
<path fill-rule="evenodd" clip-rule="evenodd" d="M75.5007 45.7896H79.4441C80.9165 45.7896 82.1168 46.4603 82.1168 47.8992C82.1168 49.0135 81.594 49.7565 80.5254 50.0078V50.0315C81.2365 50.2237 81.2849 50.8584 81.7007 51.8771L82.5087 54.1538H80.2047L79.7293 52.6449C79.2778 51.2067 78.9926 50.8463 78.173 50.8463H77.7095V54.1538H75.5007V45.7896ZM77.7095 49.2649H78.2919C79.0045 49.2649 79.9075 49.2404 79.9075 48.2939C79.9075 47.5156 79.1346 47.3711 78.2919 47.3711H77.7095V49.2649Z" fill="white"/>
<mask id="mask0_117_5531" style="mask-type:luminance" maskUnits="userSpaceOnUse" x="14" y="41" width="72" height="18">
<path fill-rule="evenodd" clip-rule="evenodd" d="M14.5714 58.3779H85.3259V41.5713H14.5714V58.3779Z" fill="white"/>
</mask>
<g mask="url(#mask0_117_5531)">
<path fill-rule="evenodd" clip-rule="evenodd" d="M83.1173 54.1538H85.3262V45.7896H83.1173V54.1538Z" fill="white"/>
<path fill-rule="evenodd" clip-rule="evenodd" d="M28.6744 41.5713H17.1124C15.709 41.5713 14.5713 42.7476 14.5713 44.1989V44.2266V55.751C14.5713 57.1881 15.688 58.3564 17.0733 58.3779H28.6683C30.072 58.3779 31.2101 57.2016 31.2101 55.751L31.2155 44.1989C31.2155 42.7476 30.0782 41.5713 28.6744 41.5713ZM18.4868 57.0316L17.8559 57.0386C17.0924 57.0386 16.4735 56.4057 16.4735 55.6248L16.4699 55.5136V44.8449L16.4738 44.2704C16.5024 43.5147 17.0714 42.9063 17.8169 42.9063H19.0992C20.2611 42.9063 21.2036 43.9257 21.2036 45.1286C21.2036 45.7232 20.9726 46.263 20.5984 46.6555L17.3267 50.0049L20.393 53.1552C20.7885 53.5662 21.0275 54.1068 21.0275 54.6987C21.0275 55.9874 19.8898 57.0316 18.4868 57.0316ZM27.9141 57.0211L22.197 57.0185C22.197 57.0185 22.8583 55.577 22.8583 54.6849C22.8583 53.5972 22.4975 52.6252 21.9331 51.9821L19.9777 49.971L21.9736 47.8905C22.5676 47.3269 22.9624 46.3268 22.9624 45.1877C22.9624 44.2857 22.7151 43.4866 22.3171 42.9063H23.7024C24.8647 42.9063 25.8071 43.9257 25.8071 45.1286C25.8071 45.7232 25.5765 46.263 25.2023 46.6555L21.9931 49.9699L28.6584 56.8274C28.4473 56.9616 28.1809 57.0211 27.9141 57.0211ZM29.3102 54.8799L24.5335 49.9683L26.8085 47.6354C27.272 47.0514 27.5655 46.1713 27.5655 45.1876C27.5655 44.2798 27.3146 43.4613 26.913 42.8806L27.9314 42.9112C28.6949 42.9112 29.3138 43.5452 29.3138 44.3257L29.3102 54.8799Z" fill="white"/>
</g>
</svg>
