<svg width="100" height="100" viewBox="0 0 100 100" fill="none" xmlns="http://www.w3.org/2000/svg">
<rect width="100" height="100" rx="8" fill="#181B20" fill-opacity="0.8"/>
<path d="M26.5304 56.8156C26.1137 56.5275 25.6735 56.2751 25.2144 56.061C24.6299 55.8067 24.0702 55.4986 23.5426 55.1407H26.9936C27.0415 55.142 27.0892 55.1337 27.134 55.1165C27.1787 55.0993 27.2197 55.0734 27.2544 55.0404C27.2892 55.0073 27.3171 54.9677 27.3365 54.9239C27.356 54.8801 27.3666 54.8328 27.3678 54.7849C27.3695 54.7353 27.361 54.6859 27.3428 54.6397C27.3246 54.5935 27.2971 54.5516 27.262 54.5165C27.2269 54.4814 27.185 54.4539 27.1388 54.4357C27.0926 54.4175 27.0432 54.409 26.9936 54.4107H22.7972C22.6174 54.1724 22.4909 53.8984 22.4261 53.607H27.5181C27.617 53.6112 27.7136 53.5768 27.7875 53.5109C27.8614 53.445 27.9067 53.353 27.9138 53.2542C27.9123 53.2041 27.9006 53.1548 27.8795 53.1093C27.8585 53.0639 27.8284 53.0231 27.7911 52.9896C27.7538 52.956 27.7102 52.9304 27.6627 52.9142C27.6153 52.898 27.565 52.8916 27.515 52.8953H22.4138C22.4747 52.6223 22.5906 52.3645 22.7543 52.1377H27.1316C27.2127 52.1391 27.2921 52.115 27.3588 52.0687C27.4254 52.0225 27.4757 51.9565 27.5028 51.88C27.5309 51.8372 27.5459 51.7871 27.5457 51.7358C27.5431 51.6871 27.529 51.6397 27.5045 51.5976C27.4799 51.5554 27.4457 51.5198 27.4046 51.4935C27.3272 51.4192 27.2236 51.3784 27.1163 51.38H23.4353C23.5365 51.2941 23.6347 51.2236 23.7206 51.1499C24.0947 50.8899 24.4921 50.665 24.9077 50.4782C26.2666 49.8064 28.1132 48.8769 28.1561 46.9475V46.9045H28.0825L28.1561 46.8892V46.834C28.0825 45.018 26.2543 44.0732 24.9077 43.3708C24.5007 43.172 24.1091 42.9433 23.7359 42.6867C23.65 42.6285 23.5518 42.5426 23.4506 42.4567H26.9445C27.0416 42.4583 27.1354 42.4215 27.2055 42.3543C27.2756 42.2871 27.3163 42.1949 27.3187 42.0978C27.3183 42.0496 27.3083 42.002 27.2891 41.9578C27.2699 41.9135 27.2421 41.8736 27.2071 41.8404C27.1722 41.8072 27.131 41.7814 27.0858 41.7645C27.0407 41.7476 26.9926 41.7399 26.9445 41.742H22.7543C22.5027 41.4187 22.3628 41.0226 22.3555 40.6131C22.3561 40.5675 22.3475 40.5222 22.3301 40.4801C22.3127 40.4379 22.2869 40.3997 22.2543 40.3677C22.178 40.2936 22.0754 40.2528 21.969 40.2542C21.92 40.2522 21.8711 40.2599 21.8251 40.2768C21.7791 40.2938 21.7369 40.3197 21.7009 40.3531C21.665 40.3865 21.636 40.4266 21.6157 40.4713C21.5954 40.5159 21.5841 40.5641 21.5825 40.6131C21.5825 41.9413 22.6991 42.8279 23.242 43.242C23.6517 43.5273 24.086 43.7757 24.5396 43.9843C25.1986 44.2926 25.822 44.6722 26.3985 45.1162H22.6561C22.6064 45.1116 22.5563 45.1174 22.509 45.1333C22.4616 45.1491 22.4181 45.1747 22.3812 45.2083C22.3443 45.242 22.3148 45.2829 22.2947 45.3286C22.2745 45.3743 22.2641 45.4236 22.2641 45.4736C22.2641 45.5235 22.2745 45.5729 22.2947 45.6185C22.3148 45.6642 22.3443 45.7052 22.3812 45.7388C22.4181 45.7724 22.4616 45.798 22.509 45.8139C22.5563 45.8297 22.6064 45.8355 22.6561 45.8309H27.0733C27.2345 46.0713 27.3394 46.345 27.3801 46.6315H22.2696C22.1689 46.6265 22.0703 46.6613 21.9951 46.7285C21.9198 46.7957 21.8741 46.8898 21.8678 46.9904C21.8701 47.0404 21.8824 47.0894 21.904 47.1346C21.9256 47.1797 21.9561 47.2201 21.9935 47.2532C22.031 47.2864 22.0747 47.3117 22.1222 47.3277C22.1696 47.3437 22.2197 47.35 22.2696 47.3463H27.3187C27.2188 47.6432 27.0579 47.9159 26.8463 48.1469H22.785C22.737 48.1461 22.6894 48.1547 22.6448 48.1723C22.6002 48.1899 22.5595 48.2161 22.525 48.2494C22.4906 48.2828 22.463 48.3225 22.4439 48.3665C22.4248 48.4105 22.4146 48.4578 22.4138 48.5058C22.4138 48.5538 22.4234 48.6014 22.4423 48.6456C22.4611 48.6898 22.4887 48.7297 22.5234 48.763C22.5581 48.7962 22.5991 48.8221 22.6441 48.839C22.689 48.856 22.737 48.8637 22.785 48.8616H26.0733L26.0304 48.8923C25.6544 49.1512 25.2585 49.3799 24.8463 49.5763C23.4874 50.2788 21.6439 51.2358 21.6009 53.0824V53.2113C21.6715 55.1131 23.5028 56.0272 24.8463 56.6867C25.2597 56.8779 25.6567 57.1026 26.0334 57.3585C26.1193 57.4291 26.2328 57.515 26.3617 57.6285H22.6561C22.6064 57.6239 22.5563 57.6297 22.509 57.6455C22.4616 57.6614 22.4181 57.687 22.3812 57.7206C22.3443 57.7542 22.3148 57.7952 22.2947 57.8409C22.2745 57.8865 22.2641 57.9359 22.2641 57.9858C22.2641 58.0357 22.2745 58.0851 22.2947 58.1308C22.3148 58.1765 22.3443 58.2174 22.3812 58.2511C22.4181 58.2847 22.4616 58.3103 22.509 58.3261C22.5563 58.342 22.6064 58.3478 22.6561 58.3432H27.0304C27.2651 58.6597 27.3958 59.0413 27.4046 59.4352C27.4062 59.4841 27.4175 59.5322 27.4378 59.5767C27.4582 59.6211 27.4872 59.6611 27.5232 59.6942C27.5592 59.7273 27.6014 59.753 27.6474 59.7696C27.6934 59.7862 27.7423 59.7935 27.7911 59.791C27.8902 59.793 27.9864 59.7574 28.0604 59.6914C28.1343 59.6254 28.1806 59.5339 28.1899 59.4352C28.1899 58.1162 27.0733 57.2297 26.5304 56.8156Z" fill="#F6CDD7"/>
<path d="M12.3437 47.4324C12.3335 47.2973 12.2851 47.1679 12.2042 47.0593C12.1232 46.9507 12.0131 46.8673 11.8866 46.8189C11.4871 46.6374 11.0524 46.5463 10.6136 46.552C10.1208 46.5517 9.6335 46.6562 9.18418 46.8588C8.74871 47.0505 8.36266 47.339 8.05535 47.7023V47.417C8.07026 47.3141 8.06095 47.2091 8.02815 47.1103C7.99534 47.0116 7.93996 46.9219 7.8664 46.8483C7.79283 46.7748 7.70312 46.7194 7.60439 46.6866C7.50566 46.6538 7.40064 46.6445 7.29768 46.6594C7.19356 46.6522 7.08906 46.6661 6.99047 46.7004C6.89189 46.7346 6.80126 46.7885 6.72406 46.8588C6.58702 47.0164 6.51565 47.2206 6.52467 47.4293V54.2821C6.51746 54.3862 6.53141 54.4907 6.56568 54.5893C6.59995 54.6879 6.65382 54.7785 6.72406 54.8557C6.88464 54.9882 7.08996 55.0541 7.29768 55.0397C7.40174 55.0459 7.50597 55.0308 7.60404 54.9955C7.70212 54.9602 7.792 54.9053 7.86823 54.8342C8.00169 54.6752 8.06871 54.4708 8.05535 54.2637V49.8066C8.04878 49.5426 8.1065 49.281 8.22353 49.0443C8.34055 48.8075 8.51339 48.6028 8.72713 48.4477C9.24889 48.0945 9.87072 47.9192 10.5001 47.9477C10.8317 47.9526 11.1622 47.9865 11.4879 48.0489C11.586 48.0489 11.6596 48.0766 11.7149 48.0766C11.8593 48.0854 12.0019 48.0404 12.1152 47.9504C12.2284 47.8603 12.3044 47.7315 12.3284 47.5888C12.3415 47.5378 12.3467 47.485 12.3437 47.4324Z" fill="#0047BA"/>
<path d="M18.4665 47.1045C17.85 46.7491 17.1473 46.5707 16.4358 46.5892C15.6898 46.5793 14.9544 46.7666 14.3039 47.1321C13.6846 47.4941 13.1756 48.018 12.8316 48.6475C12.4669 49.3221 12.284 50.0801 12.3009 50.8469C12.2886 51.6126 12.4814 52.3678 12.8592 53.034C13.2276 53.6687 13.7678 54.1865 14.4174 54.5278C14.9843 54.8281 15.607 55.0084 16.2466 55.0575C16.8863 55.1065 17.5292 55.0234 18.1352 54.8131C18.5994 54.6655 19.0344 54.4382 19.4205 54.1413C19.4962 54.0908 19.5581 54.0223 19.601 53.9421C19.6438 53.8618 19.6661 53.7722 19.6659 53.6812C19.6625 53.5807 19.6361 53.4822 19.5888 53.3934C19.5415 53.3046 19.4745 53.2278 19.3929 53.1689C19.2668 53.0589 19.1031 53.0018 18.9358 53.0094C18.7543 53.0072 18.5777 53.0679 18.4358 53.1812C18.1857 53.3688 17.9057 53.513 17.6076 53.6076C17.1193 53.7759 16.5966 53.8195 16.0871 53.7343C15.5776 53.6491 15.0975 53.4379 14.6904 53.1199C14.1574 52.6884 13.8096 52.0694 13.7181 51.3898H19.5248C19.6165 51.3939 19.708 51.3794 19.7939 51.3473C19.8798 51.3151 19.9584 51.2659 20.0248 51.2027C20.1543 51.0736 20.2309 50.9007 20.2395 50.718C20.2536 49.9767 20.0973 49.2421 19.7825 48.5708C19.5004 47.9614 19.042 47.4506 18.4665 47.1045ZM13.7334 50.1505C13.825 49.5218 14.1331 48.9446 14.6046 48.5186C15.1259 48.1024 15.7782 47.8849 16.4451 47.9051C16.7436 47.8947 17.0413 47.9435 17.3209 48.0489C17.6005 48.1542 17.8564 48.3138 18.0739 48.5186C18.5088 48.9578 18.7768 49.5349 18.8316 50.1505H13.7334Z" fill="#0047BA"/>
<path d="M31.9816 43.2853C31.8473 43.2839 31.7141 43.3104 31.5905 43.3633C31.4669 43.4161 31.3557 43.494 31.2638 43.5921C31.1667 43.684 31.0894 43.7949 31.0367 43.9178C30.9839 44.0407 30.9568 44.173 30.9571 44.3068C30.9555 44.4407 30.982 44.5735 31.0349 44.6966C31.0877 44.8197 31.1657 44.9304 31.2638 45.0215C31.3567 45.1183 31.4681 45.1954 31.5915 45.2481C31.7148 45.3008 31.8475 45.3281 31.9816 45.3283C32.1155 45.3293 32.2481 45.3025 32.3711 45.2497C32.4941 45.1969 32.6049 45.1192 32.6964 45.0215C32.7933 44.9295 32.8706 44.8186 32.9233 44.6957C32.976 44.5728 33.0032 44.4405 33.0031 44.3068C33.0045 44.1729 32.9779 44.0402 32.9251 43.9171C32.8723 43.794 32.7944 43.6833 32.6964 43.5921C32.6058 43.4931 32.4953 43.4146 32.372 43.3617C32.2488 43.3089 32.1157 43.2828 31.9816 43.2853Z" fill="#0047BA"/>
<path d="M31.9939 46.6587C31.8912 46.6552 31.7889 46.6725 31.693 46.7094C31.597 46.7462 31.5095 46.802 31.4356 46.8734C31.3589 46.9434 31.2996 47.0303 31.2623 47.1272C31.2251 47.2241 31.2109 47.3283 31.2209 47.4317V54.2538C31.2156 54.3567 31.232 54.4595 31.2689 54.5557C31.3059 54.6519 31.3627 54.7393 31.4355 54.8121C31.5084 54.885 31.5958 54.9417 31.6919 54.9787C31.7881 55.0157 31.891 55.0321 31.9939 55.0268C32.0991 55.0316 32.2041 55.015 32.3027 54.9781C32.4013 54.9412 32.4914 54.8847 32.5675 54.812C32.639 54.7382 32.6949 54.6507 32.7318 54.5548C32.7687 54.4589 32.7858 54.3565 32.7822 54.2538V47.447C32.7872 47.3418 32.7708 47.2367 32.7339 47.1381C32.6969 47.0395 32.6403 46.9494 32.5675 46.8734C32.4123 46.7286 32.206 46.6514 31.9939 46.6587Z" fill="#0047BA"/>
<path d="M41.3039 51.0366C40.8468 50.6348 40.0616 50.3373 38.945 50.1164C38.5214 50.0354 38.1049 49.9205 37.6996 49.7728C37.4724 49.6975 37.2706 49.5605 37.1168 49.3771C37.0123 49.2258 36.9576 49.0457 36.9603 48.8618C36.966 48.7194 37.0128 48.5816 37.095 48.4652C37.1772 48.3487 37.2913 48.2585 37.4235 48.2054C37.7851 48.033 38.1827 47.9499 38.583 47.963C38.9361 47.9526 39.2884 48.0003 39.626 48.1041C39.9273 48.2174 40.2042 48.3871 40.4419 48.6041C40.635 48.7874 40.8905 48.8905 41.1567 48.8925C41.3101 48.8983 41.4612 48.853 41.5861 48.7636C41.6621 48.7097 41.7249 48.6391 41.7695 48.5572C41.8141 48.4753 41.8396 48.3844 41.8438 48.2912C41.8343 48.1108 41.764 47.9389 41.6444 47.8035C41.3113 47.4071 40.8827 47.102 40.399 46.917C39.3412 46.5325 38.1843 46.5174 37.1168 46.8741C36.6705 47.0283 36.2713 47.2945 35.9573 47.6471C35.658 48.0026 35.4997 48.4556 35.5125 48.9201C35.5125 50.1471 36.488 50.9661 38.445 51.3373C39.0073 51.4105 39.5506 51.5895 40.0462 51.8649C40.182 51.9468 40.2943 52.0624 40.3723 52.2006C40.4502 52.3387 40.4911 52.4946 40.491 52.6532C40.4844 52.8131 40.4362 52.9684 40.3512 53.104C40.2662 53.2396 40.1474 53.3506 40.0064 53.4262C39.5851 53.6355 39.1173 53.7337 38.6475 53.7115C38.2205 53.7123 37.7975 53.63 37.4021 53.4692C37.0749 53.3479 36.7778 53.1574 36.5309 52.9109C36.4566 52.8283 36.3665 52.7615 36.2658 52.7146C36.1651 52.6677 36.056 52.6416 35.945 52.6379C35.7498 52.6512 35.5639 52.7264 35.4143 52.8526C35.3172 52.9223 35.2386 53.0145 35.1851 53.1214C35.1317 53.2283 35.1051 53.3466 35.1076 53.4661C35.1075 53.5545 35.1254 53.6419 35.1602 53.7231C35.195 53.8044 35.246 53.8776 35.31 53.9385C35.7161 54.3248 36.205 54.6133 36.7395 54.782C37.3699 54.9937 38.0316 55.0974 38.6965 55.0888C39.3113 55.1018 39.9222 54.988 40.491 54.7544C40.9482 54.5721 41.3411 54.2583 41.6199 53.8526C41.8771 53.4795 42.0122 53.0358 42.0064 52.5827C42.0122 52.2888 41.9522 51.9975 41.8306 51.7299C41.7091 51.4624 41.5291 51.2255 41.3039 51.0366Z" fill="#0047BA"/>
<path d="M47.5464 53.4965H47.0249C46.8644 53.4955 46.7062 53.4576 46.5626 53.3858C46.4191 53.314 46.2939 53.2102 46.1967 53.0824C45.9651 52.7897 45.8435 52.4249 45.8531 52.0518V48.2757H47.1261C47.2201 48.2818 47.3142 48.2686 47.4028 48.2369C47.4915 48.2053 47.5727 48.1558 47.6415 48.0916C47.7052 48.0333 47.756 47.9622 47.7903 47.8829C47.8247 47.8036 47.8419 47.7179 47.8409 47.6315C47.8429 47.5413 47.8262 47.4517 47.7919 47.3683C47.7576 47.2849 47.7064 47.2095 47.6415 47.1468C47.5728 47.0823 47.4917 47.0324 47.4031 47.0002C47.3145 46.968 47.2203 46.9542 47.1261 46.9597H45.8255V44.7573C45.8278 44.657 45.8099 44.5573 45.7731 44.4641C45.7362 44.3709 45.681 44.2859 45.6108 44.2143C45.5403 44.1427 45.4556 44.0865 45.362 44.0495C45.2685 44.0126 45.1683 43.9956 45.0679 43.9996C44.9671 43.9968 44.8668 44.0143 44.7729 44.0512C44.6791 44.0881 44.5937 44.1436 44.5219 44.2143C44.4508 44.2853 44.395 44.3701 44.3581 44.4635C44.3212 44.5569 44.3038 44.6569 44.3071 44.7573V46.9597H43.6077C43.5136 46.9542 43.4194 46.968 43.3308 47.0002C43.2422 47.0324 43.1611 47.0823 43.0924 47.1468C43.0264 47.2087 42.9745 47.2839 42.9401 47.3675C42.9057 47.4511 42.8896 47.5412 42.893 47.6315C42.892 47.7179 42.9092 47.8036 42.9435 47.8829C42.9779 47.9622 43.0286 48.0333 43.0924 48.0916C43.1612 48.1558 43.2424 48.2053 43.3311 48.2369C43.4197 48.2686 43.5138 48.2818 43.6077 48.2757H44.3071V52.0518C44.3029 52.5784 44.426 53.0983 44.666 53.5671C44.891 53.9995 45.2265 54.3646 45.6384 54.6254C46.0503 54.8826 46.5271 55.0167 47.0126 55.0119H47.2826C47.5162 55.0206 47.7451 54.9443 47.9268 54.7972C48.0106 54.7344 48.0779 54.6522 48.1228 54.5576C48.1677 54.463 48.1888 54.3588 48.1844 54.2542C48.1935 54.056 48.1265 53.8618 47.9973 53.7113C47.9414 53.6459 47.8724 53.5929 47.7947 53.5559C47.717 53.5189 47.6324 53.4987 47.5464 53.4965Z" fill="#0047BA"/>
<path d="M56.0491 47.1464C55.3954 46.7751 54.6535 46.5875 53.9019 46.6035C53.1372 46.5922 52.3826 46.7793 51.7117 47.1464C51.0793 47.4936 50.5589 48.014 50.2117 48.6464C49.8518 49.3225 49.6732 50.0802 49.6933 50.8458C49.678 51.6095 49.8608 52.364 50.224 53.036C50.5701 53.6638 51.087 54.1807 51.7148 54.5268C52.3857 54.8939 53.1402 55.081 53.905 55.0697C54.6639 55.0815 55.4126 54.8943 56.0767 54.5268C56.7037 54.1765 57.2193 53.6566 57.5645 53.0268C57.9261 52.3576 58.1089 51.6064 58.0951 50.8458C58.1064 50.0772 57.9194 49.3186 57.5522 48.6434C57.199 48.0151 56.6788 47.497 56.0491 47.1464ZM56.2485 52.3366C56.0322 52.7589 55.7003 53.1111 55.2915 53.3519C54.8665 53.6006 54.3819 53.7289 53.8896 53.7231C53.3971 53.7305 52.9121 53.6021 52.4878 53.3519C52.0753 53.1108 51.7385 52.7591 51.5154 52.3366C51.2695 51.8856 51.1467 51.3777 51.1596 50.8642C51.1561 50.3468 51.2782 49.8363 51.5154 49.3765C51.7411 48.9447 52.0831 48.5847 52.5026 48.337C52.9221 48.0893 53.4025 47.9638 53.8896 47.9746C54.382 47.9683 54.8667 48.0967 55.2915 48.3458C55.7004 48.5933 56.0319 48.9503 56.2485 49.3765C56.4814 49.8374 56.5993 50.3478 56.5921 50.8642C56.601 51.3759 56.483 51.8818 56.2485 52.3366Z" fill="#0047BA"/>
<path d="M69.1778 46.6031C68.6502 46.5906 68.1264 46.6954 67.6441 46.9098C67.2004 47.1147 66.8091 47.4178 66.4999 47.7963C66.2476 47.4116 65.897 47.1014 65.4846 46.8975C65.0488 46.6839 64.5679 46.5786 64.0827 46.5908C63.6771 46.587 63.2743 46.6599 62.8956 46.8055C62.5434 46.9441 62.223 47.1528 61.9539 47.419C61.9497 47.2152 61.8673 47.0208 61.7238 46.8761C61.5755 46.7418 61.3809 46.6704 61.1809 46.6767C61.0781 46.6723 60.9755 46.6892 60.8795 46.7261C60.7834 46.763 60.696 46.8193 60.6226 46.8914C60.5506 46.9674 60.4945 47.057 60.4576 47.155C60.4208 47.253 60.4038 47.3573 60.4079 47.462V54.2196C60.4036 54.3224 60.4204 54.425 60.4573 54.521C60.4943 54.6171 60.5505 54.7045 60.6226 54.7779C60.7781 54.9161 60.979 54.9925 61.187 54.9925C61.3951 54.9925 61.5959 54.9161 61.7515 54.7779C61.823 54.7042 61.8787 54.6167 61.9151 54.5207C61.9515 54.4247 61.9678 54.3222 61.9631 54.2196V49.9251C61.9438 49.4083 62.129 48.9046 62.4784 48.5233C62.8142 48.1827 63.2692 47.9862 63.7473 47.9753C64.2254 47.9645 64.6889 48.1401 65.0398 48.465C65.3767 48.8574 65.5463 49.3662 65.5122 49.8822V54.238C65.5122 54.4447 65.5943 54.6428 65.7404 54.789C65.8865 54.9351 66.0847 55.0172 66.2913 55.0172C66.498 55.0172 66.6961 54.9351 66.8423 54.789C66.9884 54.6428 67.0705 54.4447 67.0705 54.238V49.9251C67.0512 49.4083 67.2363 48.9046 67.5858 48.5233C67.9207 48.1881 68.3719 47.995 68.8456 47.9842C69.3193 47.9733 69.7789 48.1456 70.1288 48.465C70.4659 48.8572 70.6356 49.3661 70.6011 49.8822V54.2687C70.5963 54.3714 70.613 54.4739 70.6502 54.5697C70.6874 54.6655 70.7442 54.7525 70.817 54.825C70.8898 54.8975 70.977 54.954 71.073 54.9908C71.1689 55.0276 71.2715 55.0439 71.3741 55.0386C71.4794 55.0442 71.5846 55.028 71.6833 54.991C71.782 54.9541 71.872 54.8972 71.9478 54.8239C72.0188 54.7505 72.0742 54.6635 72.1105 54.568C72.1469 54.4726 72.1636 54.3708 72.1594 54.2687V49.8914C72.1594 48.8485 71.8895 48.0509 71.3465 47.4589C71.0694 47.1667 70.7316 46.9387 70.357 46.7908C69.9823 46.643 69.5799 46.5789 69.1778 46.6031Z" fill="#0047BA"/>
<path d="M80.6748 47.1652C80.0331 46.7917 79.3006 46.6027 78.5583 46.6192C77.8056 46.6104 77.0642 46.8032 76.411 47.1774C75.7774 47.5434 75.254 48.0732 74.8957 48.7112C74.5325 49.3681 74.3454 50.1078 74.3528 50.8584C74.3454 51.6056 74.5225 52.3431 74.8681 53.0057C75.1892 53.6313 75.6749 54.1573 76.273 54.5271C76.872 54.8899 77.5605 55.078 78.2607 55.0701C78.8253 55.0722 79.3831 54.9473 79.8929 54.7047C80.4026 54.462 80.8512 54.1078 81.2055 53.6682V54.2418C81.2012 54.3446 81.218 54.4472 81.2549 54.5433C81.2919 54.6393 81.3481 54.7267 81.4202 54.8001C81.5283 54.9132 81.6682 54.9907 81.8213 55.0226C81.9744 55.0545 82.1336 55.0392 82.2778 54.9787C82.4221 54.9182 82.5446 54.8154 82.6291 54.6839C82.7137 54.5523 82.7564 54.3982 82.7515 54.2418V50.8461C82.7623 50.0951 82.575 49.3545 82.2086 48.6989C81.8428 48.0604 81.3134 47.5309 80.6748 47.1652ZM80.8865 52.2971C80.6656 52.7251 80.3286 53.0823 79.9141 53.3277C79.4997 53.5876 79.0163 53.7159 78.5276 53.6958C78.0403 53.7001 77.5611 53.5718 77.1411 53.3247C76.7253 53.0606 76.3847 52.6937 76.152 52.2596C75.9193 51.8254 75.8025 51.3386 75.8129 50.8461C75.8048 50.3318 75.9284 49.8239 76.1718 49.3707C76.3953 48.9453 76.7317 48.5897 77.1442 48.3431C77.5639 48.1008 78.0399 47.9732 78.5245 47.9732C79.0091 47.9732 79.4852 48.1008 79.9049 48.3431C80.3221 48.5837 80.66 48.9408 80.8773 49.3707C81.1264 49.8222 81.2543 50.3305 81.2485 50.8461C81.2509 51.3511 81.1276 51.8487 80.8896 52.294L80.8865 52.2971Z" fill="#0047BA"/>
<path d="M92.9448 48.6978C92.5851 48.0546 92.0542 47.5237 91.411 47.164C90.7578 46.7901 90.0165 46.5973 89.2638 46.6057C88.5188 46.5972 87.7854 46.7901 87.1411 47.164C86.5079 47.5306 85.9847 48.0602 85.6258 48.6978C85.2508 49.3506 85.058 50.0922 85.0675 50.845V57.799C85.0619 57.9042 85.0781 58.0095 85.1151 58.1082C85.152 58.2069 85.2089 58.2969 85.2822 58.3726C85.3558 58.4444 85.4433 58.5005 85.5392 58.5374C85.6352 58.5743 85.7377 58.5913 85.8405 58.5873C85.9452 58.5921 86.0497 58.5755 86.1478 58.5386C86.2459 58.5017 86.3354 58.4452 86.411 58.3726C86.4833 58.2962 86.5395 58.206 86.5764 58.1075C86.6133 58.009 86.63 57.9041 86.6257 57.799V53.6671C86.9757 54.1046 87.4204 54.457 87.9264 54.6978C88.4392 54.9444 89.0014 55.0713 89.5705 55.0689C90.2713 55.0809 90.9609 54.8925 91.5583 54.526C92.1564 54.1518 92.6411 53.6215 92.9601 52.9922C93.3078 52.3305 93.4849 51.5925 93.4754 50.845C93.4905 50.095 93.3075 49.3544 92.9448 48.6978ZM91.6288 52.3021C91.4116 52.7327 91.0737 53.0908 90.6564 53.3327C90.2396 53.5916 89.7539 53.7178 89.2638 53.6947C88.7793 53.7027 88.3021 53.5758 87.8856 53.3283C87.469 53.0807 87.1295 52.7222 86.9049 52.2929C86.6579 51.8508 86.532 51.3513 86.5399 50.845C86.5378 50.3313 86.661 49.8249 86.8988 49.3695C87.1271 48.9424 87.4672 48.5853 87.8826 48.3363C88.298 48.0873 88.7733 47.9558 89.2577 47.9558C89.742 47.9558 90.2172 48.0873 90.6327 48.3363C91.0481 48.5853 91.3882 48.9424 91.6165 49.3695C91.86 49.8227 91.9835 50.3306 91.9754 50.845C91.9837 51.3506 91.86 51.8497 91.6165 52.2929L91.6288 52.3021Z" fill="#0047BA"/>
<path d="M25.2732 44.3704C26.8039 43.5269 28.5278 42.5637 28.5278 40.5391C28.5416 40.4303 28.5321 40.3198 28.4999 40.2149C28.4676 40.11 28.4135 40.0132 28.3409 39.9309C28.2684 39.8486 28.1791 39.7826 28.0791 39.7375C27.9792 39.6923 27.8707 39.6689 27.761 39.6689C27.6513 39.6689 27.5428 39.6923 27.4428 39.7375C27.3428 39.7826 27.2536 39.8486 27.181 39.9309C27.1085 40.0132 27.0543 40.11 27.0221 40.2149C26.9898 40.3198 26.9803 40.4303 26.9941 40.5391C26.9941 41.5821 26.0739 42.168 24.5401 43.0115C23.0064 43.8551 21.2702 44.8152 21.2702 46.8582C21.2702 48.9011 23.0064 49.8336 24.5401 50.6772C26.0739 51.5207 26.9941 52.1097 26.9941 53.1526C26.9941 54.1956 26.0739 54.7815 24.5401 55.6281C23.0064 56.4747 21.2702 57.4287 21.2702 59.4594C21.2564 59.5682 21.2659 59.6788 21.2981 59.7837C21.3304 59.8885 21.3846 59.9853 21.4571 60.0677C21.5296 60.15 21.6189 60.2159 21.7189 60.2611C21.8189 60.3062 21.9273 60.3296 22.037 60.3296C22.1468 60.3296 22.2552 60.3062 22.3552 60.2611C22.4552 60.2159 22.5444 60.15 22.617 60.0677C22.6895 59.9853 22.7437 59.8885 22.7759 59.7837C22.8082 59.6788 22.8177 59.5682 22.8039 59.4594C22.8039 58.4164 23.7242 57.8306 25.2579 56.9839C26.7916 56.1373 28.5278 55.1833 28.5278 53.1526C28.5278 51.122 26.8039 50.1496 25.2732 49.3122C23.7426 48.4747 22.8193 47.8796 22.8193 46.8367C22.8193 45.7937 23.7426 45.214 25.2732 44.3704Z" fill="#0047BA"/>
</svg>
