<svg width="41" height="41" viewBox="0 0 41 41" fill="none" xmlns="http://www.w3.org/2000/svg">
<rect x="0.5" y="0.5" width="40" height="40" rx="4" fill="#EAEBDB"/>
<g clip-path="url(#clip0_2390_16843)">
<path d="M16.465 16.5441L16.2179 16.9336L13.2388 12.1859H13.7252L16.465 16.5441ZM19.4941 12.1859H19.9805L14.0084 21.6674H13.5212L19.4941 12.1859ZM16.9544 15.7768L16.7082 16.1617L14.2077 12.1859H14.6887L16.9544 15.7768ZM20.4708 12.1859H20.9579L14.9812 21.6674H14.4948L20.4708 12.1859ZM17.4408 14.998L17.2007 15.3828L15.182 12.1859H15.6684L17.4408 14.998ZM21.4497 12.1859H21.9307L15.9609 21.6674H15.4706L21.4497 12.1859ZM17.928 14.2245L17.6871 14.614L16.1548 12.1859H16.642L17.928 14.2245ZM22.4179 12.1859H22.9051L16.9329 21.6674H16.4465L22.4179 12.1859ZM18.5006 19.6426L18.7415 19.2532L20.2614 21.6674H19.7743L18.5006 19.6426ZM18.9877 18.8691L19.2279 18.4797L21.235 21.6674H20.7486L18.9877 18.8691ZM19.4795 18.0903L19.7212 17.7009L22.2147 21.6674H21.7276L19.4795 18.0903ZM19.9605 17.3207L20.2022 16.9313L23.1875 21.6674H22.705L19.9605 17.3207Z" fill="#EC008C"/>
<path d="M12.2381 22.9942V15.7307H12.6507V22.9942C12.6599 24.0742 12.4385 25.1437 12.0011 26.1311C11.5696 27.0937 10.9844 27.8553 10.2456 28.4161C9.5068 28.9769 8.7041 29.2568 7.83752 29.2558C6.97043 29.2558 6.16747 28.9751 5.42865 28.4138C4.68982 27.8525 4.10492 27.0916 3.67394 26.1311C3.2373 25.1443 3.01662 24.0756 3.0267 22.9965V15.7307H3.43921V22.9942C3.43653 23.7439 3.55424 24.4891 3.78784 25.2015C3.99563 25.8568 4.31339 26.472 4.72753 27.0208C5.10771 27.5188 5.58633 27.9333 6.13361 28.2383C6.65205 28.5359 7.23938 28.6924 7.83714 28.6924C8.43489 28.6924 9.02222 28.5359 9.54066 28.2383C10.0881 27.9335 10.5668 27.519 10.9467 27.0208C11.3609 26.472 11.6786 25.8568 11.8864 25.2015C12.1211 24.4893 12.2398 23.744 12.2381 22.9942ZM11.4131 22.9942V15.7307H11.8256V22.9942C11.8283 23.671 11.721 24.3437 11.5078 24.986C11.3194 25.5762 11.0332 26.1306 10.6612 26.626C10.3173 27.0751 9.88415 27.4483 9.38905 27.7219C8.91728 27.9883 8.38469 28.1283 7.84291 28.1283C7.30113 28.1283 6.76853 27.9883 6.29676 27.7219C5.80213 27.4482 5.36951 27.0751 5.02614 26.626C4.65221 26.1311 4.36444 25.5766 4.17495 24.986C3.95915 24.3441 3.8492 23.6714 3.84941 22.9942V15.7307H4.26115V22.9942C4.25423 23.7838 4.41942 24.5653 4.74523 25.2846C5.0302 25.9423 5.47842 26.5164 6.04741 26.9523C6.55907 27.3504 7.18885 27.5666 7.83714 27.5666C8.48542 27.5666 9.1152 27.3504 9.62686 26.9523C10.1961 26.5164 10.6446 25.9424 10.9298 25.2846C11.2546 24.5651 11.4187 23.7835 11.4108 22.9942H11.4131ZM10.5889 22.9942V15.7307H11.0014V22.9942C11.0035 23.5223 10.9182 24.0471 10.7489 24.5473C10.5978 25.0092 10.369 25.4421 10.0725 25.8271C9.79935 26.1793 9.45636 26.4712 9.06505 26.6845C8.69002 26.8924 8.26826 27.0015 7.83944 27.0015C7.41063 27.0015 6.98886 26.8924 6.61384 26.6845C6.22225 26.4713 5.87899 26.1794 5.60566 25.8271C5.30793 25.4424 5.07835 25.0096 4.92686 24.5473C4.75723 24.0472 4.67192 23.5223 4.67443 22.9942V15.7307H5.08694V22.9942C5.08104 23.5896 5.2072 24.1789 5.45635 24.7197C5.67617 25.2177 6.02078 25.6506 6.45684 25.9765C6.85348 26.276 7.33699 26.4381 7.83406 26.4381C8.33112 26.4381 8.81464 26.276 9.21127 25.9765C9.64733 25.6506 9.99194 25.2177 10.2118 24.7197C10.4627 24.1793 10.5907 23.59 10.5866 22.9942H10.5889ZM9.76385 22.9942V15.7307H10.1764V22.9942C10.1764 23.7869 9.94727 24.4652 9.4891 25.0291C9.03093 25.5929 8.48117 25.8751 7.83983 25.8756C7.19798 25.8756 6.64822 25.5934 6.19056 25.0291C5.7329 24.4647 5.50381 23.7864 5.5033 22.9942V15.7307H5.91581V22.9942C5.90114 23.5893 6.10111 24.1698 6.47916 24.6296C6.85576 25.0837 7.30931 25.3107 7.83983 25.3107C8.37035 25.3107 8.82365 25.0837 9.19973 24.6296C9.57723 24.1696 9.77664 23.5891 9.76154 22.9942H9.76385Z" fill="#2E3192"/>
<path d="M9.76196 15.7307H10.1745V22.8218H9.76196V15.7307ZM10.587 15.7307H10.9995V22.8218H10.587V15.7307ZM11.4112 15.7307H11.8237V22.8218H11.4112V15.7307ZM12.2363 15.7307H12.6488V22.8218H12.2386L12.2363 15.7307Z" fill="#2E3192"/>
<path d="M11.2242 14.6009C11.9761 14.6009 12.5857 13.9913 12.5857 13.2394C12.5857 12.4875 11.9761 11.878 11.2242 11.878C10.4723 11.878 9.86279 12.4875 9.86279 13.2394C9.86279 13.9913 10.4723 14.6009 11.2242 14.6009Z" stroke="#2E3192" stroke-width="0.153922" stroke-miterlimit="10"/>
<path d="M11.2243 14.2984C11.8091 14.2984 12.2832 13.8243 12.2832 13.2394C12.2832 12.6545 11.8091 12.1804 11.2243 12.1804C10.6394 12.1804 10.1653 12.6545 10.1653 13.2394C10.1653 13.8243 10.6394 14.2984 11.2243 14.2984Z" stroke="#2E3192" stroke-width="0.153922" stroke-miterlimit="10"/>
<path d="M11.2162 13.9482C11.6255 13.9482 11.9574 13.6164 11.9574 13.2071C11.9574 12.7978 11.6255 12.4659 11.2162 12.4659C10.8069 12.4659 10.4751 12.7978 10.4751 13.2071C10.4751 13.6164 10.8069 13.9482 11.2162 13.9482Z" stroke="#2E3192" stroke-width="0.153922" stroke-miterlimit="10"/>
<path d="M15.3713 27.0231H16.7396C16.9706 27.0238 17.1991 26.9763 17.4107 26.8838C17.6189 26.7949 17.8083 26.6672 17.9687 26.5075C18.1313 26.3423 18.2597 26.1467 18.3466 25.9318C18.4414 25.7023 18.4893 25.456 18.4874 25.2076C18.4876 24.9039 18.4049 24.6058 18.2481 24.3457C18.092 24.0796 17.8709 23.8577 17.6054 23.7007C17.3442 23.543 17.0447 23.46 16.7396 23.4606H13.7774V28.6439H13.5388V23.2274H16.7396C17.0858 23.2266 17.4256 23.3211 17.7216 23.5006C18.0229 23.6785 18.274 23.9301 18.4512 24.2318C18.6289 24.5263 18.7228 24.8637 18.7229 25.2076C18.726 25.5007 18.6713 25.7915 18.5621 26.0634C18.466 26.3082 18.3188 26.5297 18.1303 26.713C17.9478 26.8865 17.7332 27.0227 17.4985 27.1139C17.2569 27.2095 16.9993 27.2578 16.7396 27.2563H15.3713V27.0231ZM15.3713 26.5521H16.7396C16.9635 26.5538 17.1837 26.4951 17.3769 26.3821C17.5702 26.2692 17.7295 26.1062 17.8379 25.9103C17.958 25.6967 18.0194 25.455 18.0156 25.2099C18.0052 24.8748 17.8674 24.5563 17.6304 24.3192C17.3933 24.0821 17.0747 23.9443 16.7396 23.9339H14.2461V28.6462H14.0083V23.6984H16.7381C17.0012 23.6983 17.2592 23.7707 17.4838 23.9078C17.7142 24.044 17.9062 24.2365 18.0418 24.4673C18.1777 24.6911 18.2496 24.948 18.2496 25.2099C18.2533 25.4939 18.181 25.7737 18.0403 26.0203C17.9094 26.255 17.718 26.4503 17.4861 26.586C17.2596 26.7195 17.0011 26.7892 16.7381 26.7876H15.3713V26.5521ZM15.3713 26.0811H16.7396C16.8454 26.0829 16.9505 26.0634 17.0486 26.0237C17.1467 25.9841 17.2358 25.9251 17.3107 25.8502C17.4646 25.6963 17.5416 25.4819 17.5416 25.2069C17.5315 24.9966 17.4434 24.7977 17.2946 24.6488C17.1457 24.5 16.9468 24.4119 16.7365 24.4018H14.7171V28.6432H14.4816V24.1694H16.7396C17.0121 24.1788 17.271 24.2911 17.4639 24.4838C17.6569 24.6765 17.7696 24.9351 17.7794 25.2076C17.7861 25.3552 17.7627 25.5026 17.7104 25.6408C17.6581 25.7789 17.5781 25.905 17.4754 26.0111C17.3797 26.1092 17.2651 26.1866 17.1384 26.2388C17.0118 26.2909 16.8758 26.3166 16.7389 26.3143H15.3713V26.0811ZM15.1881 28.6462H14.9526V24.6443H16.7396C16.8899 24.6465 17.0333 24.7071 17.1396 24.8132C17.246 24.9194 17.3067 25.0628 17.3091 25.213C17.3091 25.6363 17.1193 25.8479 16.7396 25.8479H15.3713V25.6124H16.7396C16.7844 25.6151 16.8293 25.6086 16.8715 25.5934C16.9137 25.5782 16.9523 25.5546 16.9851 25.5239C17.0436 25.4654 17.0736 25.3615 17.0736 25.2161C17.0749 25.1718 17.0669 25.1277 17.0502 25.0866C17.0335 25.0456 17.0085 25.0084 16.9767 24.9775C16.9456 24.9465 16.9086 24.9222 16.8678 24.9059C16.8271 24.8897 16.7835 24.8818 16.7396 24.8829H15.1881V28.6462Z" fill="#2E3192"/>
<path d="M19.4726 28.6462H19.2417V23.2274H19.4726V28.6462ZM19.9436 28.6462H19.7112V23.2274H19.9467L19.9436 28.6462ZM20.4146 28.6462H20.1791V23.2274H20.4146V28.6462ZM20.8864 27.468H23.3976V27.7042H20.8894V27.9397H23.3976V28.1752H20.8894V28.4107H23.3976V28.6462H20.6539V23.2274H23.3976V23.4629H20.8894V23.6984H23.3976V23.9339H20.8894V24.1694H23.3976V24.4049H20.8894V25.3477H22.1754V25.5832H20.8894V25.8187H22.1754V26.0542H20.8894V26.2897H22.1754V26.5252H20.8894L20.8864 27.468Z" fill="#2E3192"/>
<path d="M26.9958 28.6462H23.9758V23.2274H26.9958C27.4203 23.2272 27.8352 23.3539 28.1871 23.5914C28.5614 23.8393 28.8652 24.1797 29.0691 24.5796C29.2898 24.9977 29.4037 25.4637 29.4008 25.9364C29.4018 26.2964 29.3358 26.6534 29.2061 26.9893C29.0866 27.3064 28.9109 27.5995 28.6874 27.8543C28.4717 28.0961 28.2101 28.2926 27.9178 28.4323C27.6307 28.5729 27.3154 28.646 26.9958 28.6462ZM24.2113 28.4107H26.9958C27.2833 28.4104 27.5668 28.3432 27.8239 28.2145C28.0874 28.0864 28.3228 27.9072 28.5165 27.6873C28.7175 27.4553 28.8747 27.1888 28.9806 26.9008C29.2146 26.2826 29.2146 25.6003 28.9806 24.9821C28.8741 24.6929 28.7163 24.4251 28.515 24.1917C28.3216 23.9712 28.0861 23.7914 27.8223 23.663C27.5652 23.5343 27.2817 23.4671 26.9942 23.4668H24.2113V28.4107ZM24.4468 28.1752V23.6984H26.9958C27.3365 23.6985 27.669 23.803 27.9485 23.9978C28.2496 24.2047 28.4919 24.486 28.652 24.8144C28.824 25.1635 28.9135 25.5476 28.9135 25.9368C28.9135 26.3261 28.824 26.7101 28.652 27.0593C28.4919 27.3876 28.2496 27.6689 27.9485 27.8759C27.669 28.0706 27.3365 28.1751 26.9958 28.1752H24.4468ZM24.6823 27.9397H26.9958C27.295 27.9397 27.5866 27.8455 27.8293 27.6704C28.0935 27.4839 28.3055 27.2327 28.4449 26.9408C28.5961 26.6277 28.6746 26.2845 28.6746 25.9368C28.6746 25.5891 28.5961 25.246 28.4449 24.9329C28.3059 24.6403 28.0939 24.3886 27.8293 24.2017C27.5868 24.0275 27.2959 23.9335 26.9973 23.9331H24.6823V27.9397ZM24.9178 27.7042V24.1694H26.9958C27.2526 24.1698 27.5026 24.2524 27.7092 24.4049C27.9369 24.5706 28.1179 24.7922 28.2348 25.0483C28.3631 25.3267 28.4296 25.6295 28.4296 25.9361C28.4296 26.2426 28.3631 26.5454 28.2348 26.8238C28.1181 27.0803 27.9371 27.3022 27.7092 27.468C27.5028 27.6211 27.2527 27.7039 26.9958 27.7042H24.9178ZM25.1533 27.468H26.9958C27.3216 27.468 27.6015 27.3181 27.8354 27.0185C28.0733 26.7088 28.1975 26.3268 28.1871 25.9364C28.1898 25.6712 28.1347 25.4086 28.0255 25.1668C27.9297 24.9471 27.7799 24.7551 27.5899 24.6089C27.4201 24.4766 27.211 24.4046 26.9958 24.4041H25.1533V27.468ZM25.3896 27.2325V24.6412H26.9958C27.2559 24.6412 27.4791 24.7682 27.6653 25.0221C27.8479 25.2925 27.9454 25.6113 27.9454 25.9376C27.9454 26.2638 27.8479 26.5826 27.6653 26.853C27.4791 27.106 27.2559 27.2325 26.9958 27.2325H25.3896ZM25.6251 26.997H26.9958C27.1905 26.997 27.3567 26.8938 27.4952 26.6891C27.6312 26.4626 27.703 26.2033 27.703 25.9391C27.703 25.6749 27.6312 25.4157 27.4952 25.1892C27.3567 24.9839 27.1902 24.8813 26.9958 24.8813H25.6251V26.997Z" fill="#2E3192"/>
<path d="M29.9158 23.2274H30.1513V28.6462H29.9158V23.2274ZM30.3868 23.2274H30.6223V28.6462H30.3868V23.2274ZM30.8578 23.2274H31.094V28.6462H30.8585L30.8578 23.2274ZM31.3288 23.2274H31.565V28.6462H31.3288V23.2274Z" fill="#2E3192"/>
<path d="M32.2484 28.6462H31.9929L34.1371 23.2274H34.3918L36.5321 28.6462H36.2804L34.2648 23.5445L32.2484 28.6462ZM34.294 24.1056L34.428 24.4065L32.7525 28.6478H32.5009L34.294 24.1056ZM34.5557 24.7274L34.6804 25.0514L33.2628 28.6478H33.008L34.5557 24.7274ZM34.8043 25.3754L34.929 25.7063L33.7669 28.6478H33.5152L34.8043 25.3754ZM34.1632 27.9998L34.2494 27.7627H35.7963L35.8941 27.9982L34.1632 27.9998ZM34.3464 27.5288L34.438 27.2933H35.6124L35.714 27.5288H34.3464ZM34.5265 27.0547L34.6211 26.8192H35.4261L35.5216 27.0547H34.5265ZM34.8928 23.2259L37.0362 28.6447H36.7814L34.6411 23.2259H34.8928ZM35.4 23.2259L37.5441 28.6447H37.2917L35.1483 23.2259H35.4ZM38.0513 28.6447H37.7958L35.6555 23.2259H35.9071L38.0513 28.6447Z" fill="#2E3192"/>
</g>
<defs>
<clipPath id="clip0_2390_16843">
<rect width="35.0241" height="17.4547" fill="white" transform="translate(3.02686 11.801)"/>
</clipPath>
</defs>
</svg>
