<svg width="100" height="100" viewBox="0 0 100 100" fill="none" xmlns="http://www.w3.org/2000/svg">
<rect x="-6.10352e-05" width="100" height="100" rx="8" fill="#181B20" fill-opacity="0.8"/>
<g clip-path="url(#clip0_117_5374)">
<path d="M69.9999 49.998C69.9999 61.0428 61.0447 69.998 49.9999 69.998V64.9995C53.9783 64.9991 57.7935 63.4184 60.6065 60.6051C63.4195 57.7918 64.9997 53.9764 64.9997 49.998H69.9999Z" fill="#498AC6"/>
<path d="M69.9999 49.9987C69.9999 48.3157 70.2121 46.6394 70.6316 45.0095C72.8506 36.3841 80.6811 30.0063 89.9966 30.0063V49.9987H69.9999Z" fill="#FFC700"/>
<path d="M89.9962 49.998L49.9979 89.9964V69.9997C59.3176 69.9997 67.1481 63.6245 69.3671 54.9966C69.7881 53.3638 70.0006 51.6842 69.9996 49.998H89.9962Z" fill="#FFC700"/>
<path d="M89.9966 49.9983C90.0117 57.021 88.1647 63.9221 84.6437 69.9983C79.6444 78.6475 71.5026 85.2476 61.7779 88.2361C55.7938 90.0802 49.4603 90.4936 43.2872 89.4429C37.1142 88.3923 31.274 85.907 26.2369 82.1871C21.1997 78.4672 17.1063 73.6166 14.2861 68.0258C11.466 62.435 9.99786 56.2602 9.99994 49.9983C9.99994 27.9088 27.9087 10 49.9983 10C55.2523 9.9931 60.456 11.0247 65.31 13.0355C70.1641 15.0463 74.5729 17.9967 78.2829 21.7171L64.1414 35.8586C62.2862 33.9984 60.0817 32.5232 57.6545 31.5178C55.2273 30.5124 52.6254 29.9966 49.9983 30C38.9535 30 29.9983 38.9553 29.9983 50C29.9988 51.6849 30.2122 53.3629 30.6333 54.9943C31.7428 59.2874 34.2466 63.0904 37.7516 65.8063C41.2565 68.5223 45.5642 69.9974 49.9983 70C59.3179 70 67.1485 63.6248 69.3674 54.9969C69.7884 53.3641 70.001 51.6845 70 49.9983H89.9966Z" fill="#498AC6"/>
<path d="M69.9999 70C69.9994 71.6847 70.2117 73.3628 70.6316 74.9943C72.8497 83.6248 80.6802 89.9966 89.9966 89.9966V70H69.9999Z" fill="#FFC700"/>
<path d="M89.9999 50H69.9999V90H89.9999V50Z" fill="#498AC6"/>
<path d="M89.9966 49.998C90.0001 57.0205 88.1538 63.9201 84.6434 70.0022C81.133 76.0844 76.0824 81.1345 69.9999 84.6444V49.998H89.9966Z" fill="#255F92"/>
<path d="M89.9962 49.998C89.9981 53.3674 89.5745 56.7235 88.7354 59.9866V59.9926C84.3 77.2502 68.6381 89.9964 49.9979 89.9964V69.9997C59.3176 69.9997 67.1481 63.6245 69.3671 54.9966C69.7881 53.3638 70.0006 51.6842 69.9996 49.998H89.9962Z" fill="#255F92"/>
<path d="M44.9999 40V60L59.9997 50.0004L44.9999 40Z" fill="#FFC700"/>
<path d="M89.9966 49.998C90.0001 57.0205 88.1538 63.9201 84.6434 70.0022C81.133 76.0844 76.0824 81.1345 69.9999 84.6444V49.998H89.9966Z" fill="#255F92"/>
</g>
<defs>
<clipPath id="clip0_117_5374">
<rect width="80" height="80" fill="white" transform="translate(9.99994 10)"/>
</clipPath>
</defs>
</svg>
