<svg width="29" height="28" viewBox="0 0 29 28" fill="none" xmlns="http://www.w3.org/2000/svg">
<path d="M15.9946 13.9999C15.9946 17.6592 13.0483 20.6258 9.41382 20.6258C5.7793 20.6258 2.83325 17.6601 2.83325 13.9999C2.83325 10.3397 5.77953 7.37418 9.41382 7.37418C13.0481 7.37418 15.9946 10.3406 15.9946 13.9999ZM23.2138 13.9999C23.2138 17.4447 21.7406 20.237 19.9234 20.237C18.1063 20.237 16.633 17.4438 16.633 13.9999C16.633 10.556 18.1063 7.76277 19.9234 7.76277C21.7406 7.76277 23.2138 10.556 23.2138 13.9999ZM26.1666 13.9999C26.1666 17.0863 25.6484 19.5881 25.0093 19.5881C24.3702 19.5881 23.852 17.0854 23.852 13.9999C23.852 10.9144 24.3702 8.41168 25.0095 8.41168C25.6488 8.41168 26.1666 10.9137 26.1666 13.9999Z" fill="black"/>
</svg>
