<svg width="29" height="28" viewBox="0 0 29 28" fill="none" xmlns="http://www.w3.org/2000/svg">
<path d="M25.8259 8.05698C25.5534 7.04504 24.7556 6.24717 23.7436 5.97472C21.8949 5.46875 14.5 5.46875 14.5 5.46875C14.5 5.46875 7.10501 5.46875 5.25627 5.95526C4.26379 6.2277 3.44645 7.04504 3.17401 8.05698C2.6875 9.90572 2.6875 13.7394 2.6875 13.7394C2.6875 13.7394 2.6875 17.5926 3.17401 19.4218C3.44645 20.4338 4.24433 21.2317 5.25627 21.5041C7.12447 22.0101 14.5 22.0101 14.5 22.0101C14.5 22.0101 21.8949 22.0101 23.7436 21.5236C24.7556 21.2511 25.5534 20.4532 25.8259 19.4413C26.3124 17.5926 26.3124 13.7589 26.3124 13.7589C26.3124 13.7589 26.3319 9.90572 25.8259 8.05698Z" fill="#FF0000"/>
<path d="M12.1453 17.1461L18.2947 13.6043L12.1453 10.0625V17.1461Z" fill="white"/>
</svg>
