<svg width="29" height="28" viewBox="0 0 29 28" fill="none" xmlns="http://www.w3.org/2000/svg">
<path fill-rule="evenodd" clip-rule="evenodd" d="M10.1399 7C10.713 6.98936 11.2853 7.04812 11.8444 7.175C12.3151 7.27776 12.7619 7.46899 13.1613 7.7385C13.53 8.00651 13.8219 8.36682 14.0074 8.78325C14.2206 9.29534 14.3235 9.84662 14.3092 10.4011C14.3335 11.01 14.178 11.6125 13.8621 12.1336C13.5299 12.6258 13.0706 13.0189 12.533 13.2711C13.2625 13.4678 13.898 13.9183 14.325 14.5416C14.735 15.2021 14.941 15.9688 14.9174 16.7458C14.9309 17.3652 14.8028 17.9796 14.5429 18.5421C14.3026 19.0328 13.9508 19.4604 13.5156 19.7908C13.0676 20.1175 12.5634 20.3592 12.0281 20.5039C11.473 20.6574 10.8996 20.7346 10.3236 20.7331H4V7H10.1399ZM9.775 12.5545C10.2253 12.5731 10.6686 12.4383 11.0324 12.1721C11.2066 12.017 11.3421 11.8234 11.4281 11.6066C11.5141 11.3897 11.5482 11.1558 11.5276 10.9235C11.5393 10.6522 11.4853 10.382 11.3701 10.136C11.2725 9.94015 11.1206 9.77645 10.9326 9.66438C10.7422 9.54102 10.5283 9.45849 10.3044 9.422C10.0614 9.37494 9.81418 9.35353 9.56675 9.35813H6.86475V12.5668H9.775V12.5545ZM9.9325 18.4013C10.2048 18.4049 10.4766 18.3756 10.7419 18.3138C10.9843 18.2602 11.2142 18.1607 11.4191 18.0206C11.6199 17.8806 11.7821 17.6922 11.8907 17.4729C12.0167 17.1932 12.0746 16.8876 12.0596 16.5813C12.0869 16.3021 12.05 16.0203 11.9515 15.7576C11.8531 15.4949 11.6958 15.2583 11.4918 15.0658C11.0592 14.7472 10.5292 14.5894 9.99288 14.6195H6.86475V18.4013H9.9325Z" fill="#191919"/>
<path fill-rule="evenodd" clip-rule="evenodd" d="M18.9975 18.3505C19.2224 18.5589 19.4872 18.7194 19.776 18.8223C20.0648 18.9252 20.3715 18.9683 20.6775 18.949C21.1626 18.9613 21.6382 18.8137 22.0311 18.529C22.3508 18.3212 22.5929 18.0136 22.7198 17.654H25.0044C24.761 18.6776 24.1665 19.5835 23.3244 20.2143C22.5165 20.7505 21.5618 21.022 20.5926 20.9913C19.9009 21.0003 19.2145 20.8703 18.574 20.6089C17.9947 20.3673 17.475 20.0021 17.0515 19.5388C16.6296 19.0533 16.3054 18.4908 16.0969 17.8824C15.8628 17.2022 15.7482 16.4867 15.7583 15.7675C15.754 15.0603 15.8724 14.3578 16.1083 13.6911C16.4251 12.7532 17.0309 11.9398 17.8388 11.3676C18.6466 10.7954 19.615 10.4938 20.6049 10.5061C21.3357 10.4909 22.0584 10.6619 22.7049 11.0031C23.2892 11.3236 23.7933 11.7723 24.1793 12.3156C24.574 12.8857 24.857 13.5256 25.0131 14.2013C25.1844 14.9268 25.2454 15.6739 25.1943 16.4176H18.3894C18.3342 17.1163 18.5522 17.8092 18.9975 18.3505ZM21.983 13.1276C21.7926 12.9372 21.5635 12.7897 21.3113 12.6952C21.0591 12.6007 20.7896 12.5614 20.5209 12.5799C20.1644 12.5663 19.8105 12.6453 19.4936 12.8091C19.2424 12.9474 19.0207 13.1335 18.8409 13.3569C18.6815 13.5663 18.5628 13.8037 18.4909 14.0569C18.4261 14.268 18.3855 14.4858 18.3701 14.7061H22.585C22.5483 14.1318 22.3391 13.582 21.9848 13.1285L21.983 13.1276Z" fill="#191919"/>
<path d="M17.8268 7.917H23.1083V9.26713H17.8268V7.917Z" fill="#191919"/>
</svg>
