<svg width="29" height="28" viewBox="0 0 29 28" fill="none" xmlns="http://www.w3.org/2000/svg">
<path d="M8.99553 16.7654C9.10948 15.8219 9.49642 15.2937 10.2256 14.7522C11.2689 14.0188 12.5722 14.4337 12.5722 14.4337V11.9726C12.8891 11.9645 13.206 11.9833 13.5194 12.0287V15.1959C13.5194 15.1959 12.2165 14.781 11.1732 15.5148C10.4444 16.0559 10.0567 16.5845 9.94311 17.528C9.93955 18.0403 10.0357 18.71 10.4784 19.289C10.369 19.2329 10.2574 19.169 10.1437 19.0972C9.16843 18.4423 8.99078 17.4597 8.99553 16.7654ZM18.9007 7.42212C18.183 6.63564 17.9115 5.84158 17.8134 5.28377H18.7163C18.7163 5.28377 18.5363 6.74637 19.8483 8.18471L19.8665 8.20404C19.5129 7.98162 19.1886 7.71908 18.9007 7.42212ZM23.2501 9.65186V12.7553C23.2501 12.7553 22.0979 12.7102 21.2453 12.4933C20.0548 12.1899 19.2896 11.7246 19.2896 11.7246C19.2896 11.7246 18.761 11.3928 18.7183 11.3697V17.7783C18.7183 18.1351 18.6206 19.0262 18.3226 19.7695C17.9337 20.7418 17.3335 21.38 17.2231 21.5104C17.2231 21.5104 16.4931 22.3731 15.2053 22.9541C14.0444 23.4781 13.0252 23.4649 12.7206 23.4781C12.7206 23.4781 10.9588 23.5479 9.37338 22.5176C9.03055 22.2905 8.71053 22.0333 8.41748 21.7493L8.42539 21.755C10.0112 22.7853 11.7726 22.7156 11.7726 22.7156C12.0777 22.7023 13.0969 22.7156 14.2573 22.1915C15.544 21.6105 16.2751 20.7478 16.2751 20.7478C16.3843 20.6174 16.9873 19.9792 17.3746 19.0065C17.6718 18.2637 17.7703 17.3721 17.7703 17.0153V10.6075C17.813 10.631 18.3412 10.9628 18.3412 10.9628C18.3412 10.9628 19.1068 11.4284 20.2973 11.7314C21.1504 11.9483 22.3021 11.9935 22.3021 11.9935V9.56161C22.6962 9.64996 23.0321 9.67385 23.2501 9.65186Z" fill="#FD355A"/>
<path d="M22.3024 9.56161V11.9927C22.3024 11.9927 21.1506 11.9476 20.2976 11.7307C19.1071 11.4273 18.3415 10.962 18.3415 10.962C18.3415 10.962 17.8133 10.6302 17.7706 10.6067V17.0161C17.7706 17.3729 17.6729 18.2644 17.3749 19.0073C16.986 19.98 16.3858 20.6182 16.2754 20.7486C16.2754 20.7486 15.545 21.6113 14.2576 22.1923C13.0971 22.7163 12.0779 22.703 11.7729 22.7163C11.7729 22.7163 10.0115 22.7861 8.42568 21.7558L8.41777 21.7501C8.25035 21.588 8.09275 21.4168 7.94576 21.2374C7.43972 20.6204 7.12953 19.8908 7.05158 19.6827C7.05145 19.6818 7.05145 19.6809 7.05158 19.68C6.92616 19.3182 6.66266 18.4495 6.69866 17.608C6.76236 16.1234 7.28462 15.2122 7.4227 14.9839C7.78841 14.3614 8.26405 13.8044 8.82845 13.3378C9.32651 12.9351 9.89105 12.6147 10.4989 12.3897C11.156 12.1256 11.8597 11.984 12.5721 11.9726V14.4337C12.5721 14.4337 11.2688 14.0203 10.2259 14.7522C9.49671 15.2937 9.10976 15.8219 8.99582 16.7654C8.99107 17.4597 9.16872 18.4423 10.1432 19.0975C10.2569 19.1696 10.3685 19.2336 10.4779 19.2894C10.6482 19.5107 10.8554 19.7035 11.0912 19.8601C12.0431 20.4627 12.8408 20.5048 13.8608 20.1134C14.5409 19.8518 15.0529 19.2621 15.2902 18.6087C15.4394 18.2007 15.4374 17.79 15.4374 17.3653V5.28377H17.8113C17.9095 5.84158 18.1809 6.63564 18.8986 7.42212C19.1865 7.71908 19.5108 7.98162 19.8644 8.20404C19.9688 8.31212 20.503 8.84642 21.1886 9.17444C21.5432 9.34399 21.9169 9.4739 22.3024 9.56161Z" fill="black"/>
<path d="M6.10693 18.9269V18.9288L6.16584 19.0885C6.15907 19.0699 6.13718 19.0134 6.10693 18.9269Z" fill="#33F3ED"/>
<path d="M10.4989 12.3898C9.89108 12.6147 9.32655 12.9351 8.82849 13.3378C8.2639 13.8055 7.78837 14.3636 7.42313 14.9874C7.28505 15.2149 6.76279 16.1269 6.69909 17.6115C6.66308 18.4529 6.92659 19.3217 7.05201 19.6835C7.05187 19.6843 7.05187 19.6852 7.05201 19.6861C7.13114 19.8924 7.44014 20.622 7.94618 21.2409C8.09318 21.4203 8.25077 21.5914 8.4182 21.7536C7.88177 21.398 7.40336 20.9681 6.9986 20.4779C6.49691 19.8662 6.18751 19.1442 6.1068 18.9311C6.1067 18.9296 6.1067 18.9281 6.1068 18.9266V18.9239C5.98098 18.5625 5.71668 17.6934 5.75348 16.8508C5.81718 15.3662 6.33944 14.4549 6.47752 14.2267C6.84266 13.6029 7.3182 13.0447 7.88288 12.5771C8.38083 12.1743 8.94539 11.8539 9.55332 11.6291C9.93252 11.4783 10.3275 11.3671 10.7316 11.2973C11.3405 11.1954 11.9623 11.1866 12.5741 11.2711V11.9727C11.861 11.9838 11.1567 12.1254 10.4989 12.3898Z" fill="#33F3ED"/>
<path d="M17.8135 5.28379H15.4396V17.3657C15.4396 17.7904 15.4396 18.2 15.2924 18.6091C15.0526 19.2621 14.5427 19.8518 13.8629 20.1135C12.8425 20.5063 12.0449 20.4627 11.0934 19.8602C10.8571 19.7043 10.6494 19.5121 10.4785 19.2913C11.2892 19.7058 12.0148 19.6986 12.9138 19.3528C13.5931 19.0911 14.1039 18.5014 14.3428 17.8481C14.4924 17.44 14.4904 17.0294 14.4904 16.605V4.52083H17.7684C17.7684 4.52083 17.7316 4.82116 17.8135 5.28379ZM22.3026 8.8893V9.56163C21.9177 9.47378 21.5447 9.34388 21.1908 9.17446C20.5051 8.84645 19.971 8.31214 19.8665 8.20407C19.9878 8.28034 20.1135 8.34973 20.2432 8.41188C21.0768 8.8108 21.8978 8.92987 22.3026 8.8893Z" fill="#33F3ED"/>
</svg>
