<svg width="29" height="28" viewBox="0 0 29 28" fill="none" xmlns="http://www.w3.org/2000/svg">
<path d="M14.5005 3.81818C11.7353 3.81818 11.3883 3.83027 10.3023 3.87969C9.21839 3.92933 8.47853 4.10093 7.83116 4.35272C7.16151 4.61278 6.59347 4.96066 6.02755 5.52681C5.4612 6.09275 5.11333 6.66081 4.85243 7.33027C4.60002 7.97787 4.4282 8.71796 4.37942 9.80148C4.33084 10.8875 4.31812 11.2348 4.31812 14C4.31812 16.7652 4.33042 17.1112 4.37963 18.1972C4.42948 19.2812 4.60108 20.0211 4.85264 20.6684C5.11291 21.3381 5.46078 21.9062 6.02691 22.4721C6.59262 23.0385 7.16067 23.3872 7.82989 23.6473C8.47769 23.8991 9.21775 24.0707 10.3014 24.1203C11.3875 24.1697 11.7343 24.1818 14.4992 24.1818C17.2645 24.1818 17.6105 24.1697 18.6965 24.1203C19.7804 24.0707 20.5211 23.8991 21.1689 23.6473C21.8384 23.3872 22.4056 23.0385 22.9713 22.4721C23.5376 21.9062 23.8855 21.3381 24.1464 20.6687C24.3967 20.0211 24.5685 19.281 24.6194 18.1974C24.6682 17.1114 24.6809 16.7652 24.6809 14C24.6809 11.2348 24.6682 10.8878 24.6194 9.80169C24.5685 8.71775 24.3967 7.97787 24.1464 7.33048C23.8855 6.66081 23.5376 6.09275 22.9713 5.52681C22.4049 4.96045 21.8386 4.61257 21.1683 4.35272C20.5192 4.10093 19.779 3.92933 18.695 3.87969C17.609 3.83027 17.2633 3.81818 14.4973 3.81818H14.5005ZM13.5871 5.65302C13.8582 5.6526 14.1607 5.65302 14.5005 5.65302C17.2189 5.65302 17.5411 5.66278 18.6147 5.71157C19.6074 5.75696 20.1461 5.92284 20.505 6.06221C20.9802 6.24675 21.3189 6.46736 21.675 6.82372C22.0314 7.18008 22.252 7.51948 22.437 7.99463C22.5763 8.35312 22.7424 8.8919 22.7876 9.88463C22.8364 10.958 22.847 11.2804 22.847 13.9977C22.847 16.7149 22.8364 17.0374 22.7876 18.1107C22.7422 19.1034 22.5763 19.6422 22.437 20.0007C22.2524 20.4758 22.0314 20.8142 21.675 21.1703C21.3187 21.5267 20.9804 21.7473 20.505 21.9318C20.1465 22.0718 19.6074 22.2373 18.6147 22.2827C17.5414 22.3315 17.2189 22.3421 14.5005 22.3421C11.7818 22.3421 11.4596 22.3315 10.3863 22.2827C9.3936 22.2369 8.85483 22.071 8.49572 21.9316C8.02058 21.7471 7.6812 21.5265 7.32484 21.1701C6.96849 20.8138 6.74789 20.4752 6.56293 19.9998C6.42357 19.6414 6.25748 19.1026 6.2123 18.1098C6.16351 17.0365 6.15376 16.7141 6.15376 13.9951C6.15376 11.2761 6.16351 10.9554 6.2123 9.88208C6.25769 8.88936 6.42357 8.35057 6.56293 7.99166C6.74747 7.51651 6.96849 7.17711 7.32484 6.82075C7.6812 6.46439 8.02058 6.24378 8.49572 6.05881C8.85461 5.91881 9.3936 5.75336 10.3863 5.70775C11.3255 5.66533 11.6895 5.6526 13.5871 5.65048V5.65302ZM19.9353 7.34363C19.2608 7.34363 18.7135 7.89027 18.7135 8.56502C18.7135 9.23957 19.2608 9.78684 19.9353 9.78684C20.6098 9.78684 21.1571 9.23957 21.1571 8.56502C21.1571 7.89048 20.6098 7.34321 19.9353 7.34321V7.34363ZM14.5005 8.77121C11.613 8.77121 9.27184 11.1124 9.27184 14C9.27184 16.8876 11.613 19.2277 14.5005 19.2277C17.388 19.2277 19.7283 16.8876 19.7283 14C19.7283 11.1124 17.3878 8.77121 14.5003 8.77121H14.5005ZM14.5005 10.6061C16.3747 10.6061 17.8943 12.1255 17.8943 14C17.8943 15.8743 16.3747 17.3939 14.5005 17.3939C12.626 17.3939 11.1066 15.8743 11.1066 14C11.1066 12.1255 12.626 10.6061 14.5005 10.6061Z" fill="url(#paint0_radial_1760_10691)"/>
<path d="M14.5005 3.81818C11.7353 3.81818 11.3883 3.83027 10.3023 3.87969C9.21839 3.92933 8.47853 4.10093 7.83116 4.35272C7.16151 4.61278 6.59347 4.96066 6.02755 5.52681C5.4612 6.09275 5.11333 6.66081 4.85243 7.33027C4.60002 7.97787 4.4282 8.71796 4.37942 9.80148C4.33084 10.8875 4.31812 11.2348 4.31812 14C4.31812 16.7652 4.33042 17.1112 4.37963 18.1972C4.42948 19.2812 4.60108 20.0211 4.85264 20.6684C5.11291 21.3381 5.46078 21.9062 6.02691 22.4721C6.59262 23.0385 7.16067 23.3872 7.82989 23.6473C8.47769 23.8991 9.21775 24.0707 10.3014 24.1203C11.3875 24.1697 11.7343 24.1818 14.4992 24.1818C17.2645 24.1818 17.6105 24.1697 18.6965 24.1203C19.7804 24.0707 20.5211 23.8991 21.1689 23.6473C21.8384 23.3872 22.4056 23.0385 22.9713 22.4721C23.5376 21.9062 23.8855 21.3381 24.1464 20.6687C24.3967 20.0211 24.5685 19.281 24.6194 18.1974C24.6682 17.1114 24.6809 16.7652 24.6809 14C24.6809 11.2348 24.6682 10.8878 24.6194 9.80169C24.5685 8.71775 24.3967 7.97787 24.1464 7.33048C23.8855 6.66081 23.5376 6.09275 22.9713 5.52681C22.4049 4.96045 21.8386 4.61257 21.1683 4.35272C20.5192 4.10093 19.7789 3.92933 18.695 3.87969C17.609 3.83027 17.2633 3.81818 14.4973 3.81818H14.5005ZM13.5871 5.65302C13.8582 5.6526 14.1607 5.65302 14.5005 5.65302C17.2189 5.65302 17.5411 5.66278 18.6147 5.71157C19.6073 5.75696 20.1461 5.92284 20.505 6.06221C20.9802 6.24675 21.3189 6.46736 21.675 6.82372C22.0314 7.18008 22.252 7.51948 22.437 7.99463C22.5763 8.35312 22.7424 8.8919 22.7876 9.88463C22.8364 10.958 22.847 11.2804 22.847 13.9977C22.847 16.7149 22.8364 17.0374 22.7876 18.1107C22.7422 19.1034 22.5763 19.6422 22.437 20.0007C22.2524 20.4758 22.0314 20.8142 21.675 21.1703C21.3187 21.5267 20.9804 21.7473 20.505 21.9318C20.1465 22.0718 19.6073 22.2373 18.6147 22.2827C17.5414 22.3315 17.2189 22.3421 14.5005 22.3421C11.7818 22.3421 11.4596 22.3315 10.3863 22.2827C9.3936 22.2369 8.85483 22.071 8.49572 21.9316C8.02058 21.7471 7.6812 21.5265 7.32484 21.1701C6.96849 20.8138 6.74789 20.4752 6.56293 19.9998C6.42357 19.6414 6.25748 19.1026 6.2123 18.1098C6.16351 17.0365 6.15376 16.7141 6.15376 13.9951C6.15376 11.2761 6.16351 10.9554 6.2123 9.88208C6.25769 8.88936 6.42357 8.35057 6.56293 7.99166C6.74747 7.51651 6.96849 7.17711 7.32484 6.82075C7.6812 6.46439 8.02058 6.24378 8.49572 6.05881C8.85461 5.91881 9.3936 5.75336 10.3863 5.70775C11.3255 5.66533 11.6895 5.6526 13.5871 5.65048V5.65302ZM19.9353 7.34363C19.2608 7.34363 18.7135 7.89027 18.7135 8.56502C18.7135 9.23957 19.2608 9.78684 19.9353 9.78684C20.6098 9.78684 21.1571 9.23957 21.1571 8.56502C21.1571 7.89048 20.6098 7.34321 19.9353 7.34321V7.34363ZM14.5005 8.77121C11.613 8.77121 9.27184 11.1124 9.27184 14C9.27184 16.8876 11.613 19.2277 14.5005 19.2277C17.388 19.2277 19.7283 16.8876 19.7283 14C19.7283 11.1124 17.3878 8.77121 14.5003 8.77121H14.5005ZM14.5005 10.6061C16.3747 10.6061 17.8943 12.1255 17.8943 14C17.8943 15.8743 16.3747 17.3939 14.5005 17.3939C12.626 17.3939 11.1066 15.8743 11.1066 14C11.1066 12.1255 12.626 10.6061 14.5005 10.6061Z" fill="url(#paint1_radial_1760_10691)"/>
<defs>
<radialGradient id="paint0_radial_1760_10691" cx="0" cy="0" r="1" gradientUnits="userSpaceOnUse" gradientTransform="translate(9.72701 25.7502) rotate(-90) scale(20.1819 18.77)">
<stop stop-color="#FFDD55"/>
<stop offset="0.1" stop-color="#FFDD55"/>
<stop offset="0.5" stop-color="#FF543E"/>
<stop offset="1" stop-color="#C837AB"/>
</radialGradient>
<radialGradient id="paint1_radial_1760_10691" cx="0" cy="0" r="1" gradientUnits="userSpaceOnUse" gradientTransform="translate(0.907238 5.28514) rotate(78.6811) scale(9.02136 37.185)">
<stop stop-color="#3771C8"/>
<stop offset="0.128" stop-color="#3771C8"/>
<stop offset="1" stop-color="#6600FF" stop-opacity="0"/>
</radialGradient>
</defs>
</svg>
