<svg width="29" height="28" viewBox="0 0 29 28" fill="none" xmlns="http://www.w3.org/2000/svg">
<path d="M14.5 24.5C20.299 24.5 25 19.799 25 14C25 8.20101 20.299 3.5 14.5 3.5C8.70101 3.5 4 8.20101 4 14C4 19.799 8.70101 24.5 14.5 24.5Z" fill="#EA4C89"/>
<path fill-rule="evenodd" clip-rule="evenodd" d="M14.5 3.5C8.70337 3.5 4 8.20337 4 14C4 19.7966 8.70337 24.5 14.5 24.5C20.2852 24.5 25 19.7966 25 14C25 8.20337 20.2852 3.5 14.5 3.5ZM21.4355 8.34002C22.6882 9.86604 23.4398 11.8135 23.4626 13.9203C23.1665 13.8633 20.2055 13.2598 17.2218 13.6356C17.1535 13.4875 17.0965 13.3281 17.0282 13.1687C16.846 12.7359 16.641 12.2918 16.436 11.8704C19.7386 10.5266 21.2419 8.59057 21.4355 8.34002ZM14.5 5.04881C16.7777 5.04881 18.8617 5.90293 20.4447 7.30369C20.2852 7.53145 18.93 9.3422 15.7413 10.538C14.2722 7.83894 12.6437 5.62961 12.3932 5.28796C13.0651 5.12852 13.7712 5.04881 14.5 5.04881ZM10.6849 5.89154C10.9241 6.21041 12.5184 8.43114 14.0103 11.0732C9.81941 12.1893 6.11823 12.1665 5.71963 12.1665C6.30042 9.38775 8.1795 7.07592 10.6849 5.89154ZM5.52603 14.0114C5.52603 13.9203 5.52603 13.8292 5.52603 13.7381C5.91323 13.7494 10.2636 13.8064 14.7391 12.4626C15.0011 12.9637 15.2402 13.4761 15.468 13.9886C15.3541 14.0228 15.2288 14.057 15.115 14.0911C10.4913 15.583 8.03145 19.66 7.82647 20.0016C6.40293 18.4187 5.52603 16.3118 5.52603 14.0114ZM14.5 22.974C12.4273 22.974 10.5141 22.2679 8.99945 21.0835C9.1589 20.7533 10.981 17.2457 16.0374 15.4805C16.0602 15.4691 16.0716 15.4691 16.0944 15.4577C17.3585 18.7261 17.8709 21.4707 18.0076 22.2565C16.9257 22.7234 15.7413 22.974 14.5 22.974ZM19.4995 21.4366C19.4083 20.8899 18.9301 18.2706 17.7571 15.0477C20.57 14.6036 23.0298 15.3324 23.3373 15.4349C22.9501 17.929 21.5152 20.0813 19.4995 21.4366Z" fill="#C32361"/>
</svg>
