<svg width="29" height="28" viewBox="0 0 29 28" fill="none" xmlns="http://www.w3.org/2000/svg">
<path d="M4.58325 5.49113C4.58325 4.71364 5.21353 4.08336 5.99103 4.08336H23.0088C23.7863 4.08336 24.4166 4.71364 24.4166 5.49113V22.5089C24.4166 23.2864 23.7863 23.9166 23.0088 23.9166H5.99103C5.21354 23.9166 4.58325 23.2864 4.58325 22.5089V5.49113Z" fill="#0A66C2"/>
<path d="M9.03499 10.2426C9.98522 10.2426 10.7555 9.47231 10.7555 8.52208C10.7555 7.57186 9.98522 6.80154 9.03499 6.80154C8.08476 6.80154 7.31445 7.57186 7.31445 8.52208C7.31445 9.47231 8.08476 10.2426 9.03499 10.2426Z" fill="white"/>
<path d="M12.3312 11.5141H15.1827V12.8204C15.1827 12.8204 15.9565 11.2728 18.0619 11.2728C19.94 11.2728 21.4958 12.198 21.4958 15.0181V20.9648H18.5408V15.7387C18.5408 14.0751 17.6527 13.8921 16.9759 13.8921C15.5714 13.8921 15.3309 15.1036 15.3309 15.9557V20.9648H12.3312V11.5141Z" fill="white"/>
<path d="M7.53515 11.5142H10.5348V20.9648H7.53515V11.5142Z" fill="white"/>
</svg>
