<svg width="64" height="63" viewBox="0 0 64 63" fill="none" xmlns="http://www.w3.org/2000/svg">
<g clip-path="url(#clip0_338_29239)">
<path d="M63.4342 24.2693C63.1026 23.8881 62.5058 23.8384 62.1244 24.1864L50.0544 34.7422C49.756 35.0073 49.6565 35.405 49.8058 35.7695C50.6182 37.9072 50.3198 40.3266 49.0597 42.1825L46.7551 40.1443C45.8598 39.3489 44.6163 40.7408 45.5116 41.5363L50.8834 46.3253C51.7455 47.0875 51.8119 48.4464 51.0326 49.3081C50.2866 50.1366 48.9934 50.2029 48.1644 49.4572C46.7385 48.1647 45.3127 46.8555 43.8703 45.563C42.9749 44.751 41.7315 46.1264 42.6102 46.9384L46.5893 50.5509C47.3022 51.3463 47.3022 52.5725 46.5893 53.368C45.8432 54.1965 44.55 54.2628 43.721 53.5171C42.2786 52.2577 40.8859 50.932 39.4932 49.6229C38.6146 48.7943 37.3379 50.1698 38.2166 50.9817L41.3501 53.8816C42.1791 54.6605 42.3118 56.0193 41.5326 56.881C40.7864 57.7095 39.4932 57.7758 38.6642 57.0301C37.4539 55.9199 36.2104 54.8593 35.0333 53.7325C34.1712 52.9039 32.8779 54.2462 33.7401 55.0748L35.481 56.7484C36.3099 57.5604 36.4758 58.8529 35.6634 59.7478C34.9172 60.5763 33.6241 60.6426 32.7951 59.8969C32.7454 59.8472 32.3806 59.4992 31.9992 59.1347C32.8448 57.7095 32.6459 55.8701 31.3858 54.5279C30.7226 53.8153 29.8108 53.368 28.8491 53.3017C29.1641 52.0257 28.8657 50.6006 27.9041 49.5898C27.1912 48.8275 26.2129 48.3801 25.1685 48.347C25.4669 47.0875 25.1519 45.6956 24.2068 44.7013C23.2618 43.6905 21.8526 43.2597 20.5096 43.5414C20.4764 42.6134 20.1283 41.6688 19.4485 40.9563C17.9563 39.3655 15.4196 39.2992 13.8612 40.8237C13.2477 39.2661 13.2145 37.5096 13.7783 35.9187C13.9109 35.5708 13.8114 35.173 13.5296 34.9244L1.55909 24.0373C1.17776 23.6894 0.580896 23.7225 0.249304 24.1036C-0.0988676 24.4848 -0.0657085 25.0813 0.315623 25.4127L11.8385 35.8855C11.2582 37.9569 11.4737 40.2272 12.4187 42.1494L11.4074 43.0774C9.84892 44.5025 9.89862 47.1373 11.3079 48.6286C12.0208 49.3909 12.9825 49.8217 14.0103 49.8549C13.7285 51.0977 14.0601 52.4732 14.9886 53.4508C15.9171 54.4285 17.3594 54.8759 18.6692 54.5942C18.6858 55.5553 19.034 56.5164 19.747 57.2622C20.6754 58.2398 22.1178 58.6872 23.4442 58.4056C23.4608 59.3501 23.8255 60.3112 24.5218 61.0403C26.014 62.6145 28.5673 62.6642 30.1092 61.1397L30.7557 60.5266C31.3527 61.1066 31.5019 61.2392 31.535 61.2889C33.0935 62.6808 35.6136 62.5648 37.0394 61.0072C37.5866 60.4107 37.9181 59.6649 38.0342 58.8861C39.5927 59.814 41.6651 59.5489 42.9252 58.157C43.5387 57.4776 43.8868 56.6324 43.9366 55.7376C45.3459 56.1685 46.9375 55.7873 47.9986 54.6273C48.7115 53.8319 49.0597 52.8211 49.01 51.8102C50.2368 51.976 51.5301 51.5452 52.4254 50.5675C53.8677 48.9766 53.7351 46.375 52.1269 44.9499L50.4523 43.4585C52.044 41.2546 52.5248 38.3712 51.7455 35.753L63.3513 25.595C63.7327 25.247 63.7824 24.6505 63.4342 24.2693ZM12.6509 47.3859C11.8716 46.5739 11.8882 45.2648 12.6675 44.4694C13.4799 43.7236 14.2923 42.9614 15.1212 42.2157C15.9502 41.4534 17.2766 41.3872 18.089 42.2488C18.7853 42.9945 18.8351 44.1379 18.2547 44.9333C17.376 45.7618 16.4973 46.5904 15.602 47.4024C14.7731 48.1647 13.4799 48.2475 12.6509 47.3859ZM17.8071 52.8542C17.2434 52.8542 16.7294 52.6222 16.3481 52.208C15.5689 51.396 15.5855 50.0869 16.3813 49.2915C17.5584 48.1812 18.7853 47.0875 19.9293 45.9441C20.7417 45.1322 22.0846 45.1653 22.8639 46.0104C23.6265 46.839 23.6099 48.1481 22.8307 48.9435L19.2827 52.2577C18.9014 52.6057 18.3542 52.8542 17.8071 52.8542ZM22.5655 56.6655C22.0017 56.6655 21.4878 56.4336 21.1064 56.0193C20.3272 55.2073 20.3438 53.8982 21.123 53.1028L23.5768 50.8491C24.4058 50.0869 25.7321 50.0206 26.5445 50.8823C27.4067 51.8268 27.2243 53.2188 26.2959 53.9976C25.6824 54.4285 25.1519 55.0085 24.6213 55.5056C24.0245 56.069 23.4774 56.6821 22.5655 56.6655ZM28.7994 59.8472C27.987 60.6591 26.6606 60.626 25.8814 59.7975C25.1353 59.0187 25.1187 57.7924 25.815 56.9804L27.4564 55.4725C28.2688 54.9588 29.3963 55.1411 30.0428 55.8204C30.8552 56.6821 30.8884 57.8089 30.1258 58.5878C30.1258 58.5878 30.1258 58.5878 30.1092 58.6044L28.7994 59.8472C28.816 59.8306 28.7994 59.8306 28.7994 59.8472Z" fill="#20805C"/>
<path d="M0.298999 2.24658L23.3613 23.1923C23.6597 23.4574 24.0907 23.5071 24.4389 23.3248C26.1632 22.3637 28.2025 22.2312 30.0263 22.8775C27.9538 24.6671 25.384 26.3905 23.7592 28.6276C23.0628 29.5721 24.5384 30.7321 25.2679 29.7213C26.7932 27.6333 29.247 26.0922 31.1536 24.3688C33.2261 22.4963 36.3597 22.0986 38.83 23.3911C39.1782 23.5734 39.5927 23.5237 39.8911 23.2586L63.3512 2.44543C63.7326 2.09744 63.7657 1.51745 63.4342 1.13632C63.086 0.755191 62.5057 0.722049 62.1244 1.05347L39.0953 21.4855C36.7742 20.4912 34.0882 20.5575 31.8334 21.6678C29.4625 20.3752 26.5943 20.2758 24.1239 21.386L1.55905 0.871187C1.17772 0.523197 0.597431 0.556339 0.24926 0.937472C-0.0989123 1.3186 -0.0823332 1.89858 0.298999 2.24658Z" fill="#CBCBCB"/>
<path d="M23.9747 33.4829C24.0244 32.2732 22.1675 32.1904 22.1178 33.4L21.9022 38.0565C21.8193 40.1942 23.4773 42.0335 25.5995 42.1661C27.7548 42.2987 29.6449 40.5421 29.7278 38.3879L30.076 33.3006C30.4408 32.9692 33.0437 30.4338 33.1929 30.5664L41.3833 37.8576C42.2785 38.653 43.5386 37.2777 42.6268 36.4656L33.7898 28.5447C33.4416 28.2299 32.8945 28.2299 32.5464 28.5447L28.5506 32.1572C28.3683 32.323 28.2688 32.5383 28.2522 32.7869L27.8875 38.2719C27.8046 39.3822 26.8927 40.3599 25.7321 40.2936C24.6213 40.2273 23.7426 39.2496 23.7923 38.1228L23.9747 33.4829Z" fill="#20805C"/>
</g>
<defs>
<clipPath id="clip0_338_29239">
<rect width="64" height="61.6296" fill="white" transform="translate(0 0.629639)"/>
</clipPath>
</defs>
</svg>
