<svg width="64" height="62" viewBox="0 0 64 62" fill="none" xmlns="http://www.w3.org/2000/svg">
<g clip-path="url(#clip0_338_29200)">
<mask id="mask0_338_29200" style="mask-type:luminance" maskUnits="userSpaceOnUse" x="0" y="0" width="64" height="62">
<path d="M64 0H0V61.6296H64V0Z" fill="white"/>
</mask>
<g mask="url(#mask0_338_29200)">
<path d="M13.9667 52.1831C13.7833 52.0316 13.5833 51.88 13.4 51.7117C12.4666 50.9202 11.2667 52.3683 12.1833 53.1598C12.3833 53.3282 12.5833 53.4965 12.7833 53.6649C13.7167 54.4226 14.9333 52.9745 13.9667 52.1831Z" fill="#CBCBCB"/>
<path d="M2.51665 31.202C3.03331 31.202 3.44998 30.7811 3.44998 30.259C3.44998 30.0233 3.44998 29.7707 3.46664 29.5181C3.49998 28.2889 1.61664 28.2384 1.59998 29.4676C1.59998 29.7202 1.58331 29.9896 1.58331 30.259C1.58331 30.7642 1.99998 31.202 2.51665 31.202Z" fill="#CBCBCB"/>
<path d="M33.8499 1.98692C34.35 2.02059 34.85 2.0711 35.3333 2.12162C36.5 2.25633 36.7333 0.370399 35.55 0.235689C35.0333 0.168335 34.5 0.134657 33.9666 0.10098C32.7666 0.0167866 32.65 1.91956 33.8499 1.98692Z" fill="#CBCBCB"/>
<path d="M13.7166 8.25072C13.9166 8.25072 14.1166 8.18341 14.3 8.04869C14.6833 7.74557 15.1 7.44247 15.5 7.15621C16.4999 6.44899 15.4166 4.89983 14.4333 5.60705C14 5.91015 13.5666 6.23009 13.15 6.56686C12.4833 7.05518 12.85 8.25072 13.7166 8.25072Z" fill="#CBCBCB"/>
<path d="M18.25 5.30406C18.3999 5.30406 18.55 5.27038 18.6833 5.20303C19.1167 4.96729 19.5666 4.74839 20.0166 4.54632C21.1166 4.04116 20.35 2.30677 19.2333 2.81194C18.75 3.03084 18.2666 3.26658 17.8 3.51916C17.0333 3.92329 17.25 5.30406 18.25 5.30406Z" fill="#CBCBCB"/>
<path d="M39.0166 2.7952C39.4999 2.91308 39.9833 3.04778 40.45 3.19933C41.5666 3.5361 42.1499 1.73436 41 1.38075C40.4999 1.2292 39.9833 1.07766 39.4666 0.959787C38.3 0.656688 37.8499 2.50894 39.0166 2.7952Z" fill="#CBCBCB"/>
<path d="M23.2499 3.24988C23.8333 3.16568 24.3833 2.92994 24.9666 2.81207C26.1499 2.50898 25.6833 0.673559 24.5166 0.976654C23.9999 1.11136 23.4833 1.24607 22.9833 1.41446C21.95 1.70072 22.2166 3.24988 23.2499 3.24988Z" fill="#CBCBCB"/>
<path d="M59.9 24.2477C59.9999 24.7359 60.1 25.2412 60.1833 25.7295C60.3666 26.925 62.2333 26.6387 62.0333 25.4264C61.95 24.9044 61.8499 24.3655 61.7333 23.8435C61.4833 22.648 59.6333 23.0521 59.9 24.2477Z" fill="#CBCBCB"/>
<path d="M56.6 15.8956C57.2667 17.0069 58.8167 15.9292 58.2167 14.9189C57.95 14.4643 57.65 14.0096 57.3666 13.555C56.6833 12.5446 55.1334 13.6055 55.8167 14.6158C56.0833 15.0368 56.35 15.4578 56.6 15.8956Z" fill="#CBCBCB"/>
<path d="M58.2999 19.2466C58.5 19.7012 58.6833 20.1728 58.85 20.6442C59.3167 21.924 61 21.0484 60.6167 19.9875C60.4334 19.4824 60.2333 18.9772 60.0333 18.4889C59.55 17.3607 57.8333 18.1185 58.2999 19.2466Z" fill="#CBCBCB"/>
<path d="M9.14997 11.7365C9.59995 12.0732 10.05 12.0564 10.4833 11.6522C10.8167 11.2818 11.1499 10.9113 11.5 10.5578C12.35 9.68215 11.0166 8.3519 10.1666 9.22751C9.79993 9.61475 9.43331 10.0021 9.08329 10.4062C8.73326 10.7766 8.76661 11.3829 9.14997 11.7365Z" fill="#CBCBCB"/>
<path d="M43.95 4.52947C44.4 4.73154 44.85 4.95044 45.2999 5.18618C46.3333 5.72502 47.2666 4.07483 46.1666 3.50231C45.7 3.24973 45.2166 3.01399 44.7333 2.79509C43.6333 2.28993 42.85 4.02431 43.95 4.52947Z" fill="#CBCBCB"/>
<path d="M53.5167 11.6354C54.3332 12.5616 55.7166 11.2818 54.9166 10.3725C54.5666 9.96838 54.1999 9.58106 53.8333 9.19382C52.9833 8.31821 51.65 9.64846 52.4999 10.5241C52.8499 10.8945 53.1833 11.265 53.5167 11.6354Z" fill="#CBCBCB"/>
<path d="M48.4999 7.13936C48.9 7.42561 49.3166 7.72871 49.7 8.03177C50.6332 8.77267 51.8333 7.2909 50.85 6.53316C50.4333 6.21322 50 5.87645 49.5666 5.57336C48.5833 4.88297 47.4999 6.43213 48.4999 7.13936Z" fill="#CBCBCB"/>
<path d="M28.5166 2.13849C29.0499 2.08797 29.5833 2.02062 30.1166 2.00378C31.3333 1.91959 31.1999 0.0336551 30 0.117849C29.4666 0.151526 28.9333 0.202042 28.4166 0.252558C27.2666 0.387267 27.3833 2.13849 28.5166 2.13849Z" fill="#CBCBCB"/>
<path d="M2.73329 26.5377C3.19996 26.6219 3.73329 26.2178 3.81662 25.7463C3.89996 25.258 3.98329 24.7528 4.09996 24.2645C4.36663 23.069 2.51663 22.6648 2.26662 23.8604C2.14996 24.3824 2.04996 24.9212 1.96663 25.4432C1.8833 25.9821 2.2333 26.4535 2.73329 26.5377Z" fill="#CBCBCB"/>
<path d="M3.9333 21.2336C4.41663 21.402 4.81663 21.2167 5.1333 20.6611C5.29997 20.1896 5.4833 19.7181 5.6833 19.2635C6.16664 18.1352 4.4333 17.3943 3.94997 18.5226C3.7333 19.0109 3.54997 19.5161 3.36664 20.0212C3.19997 20.4927 3.44996 21.0484 3.9333 21.2336Z" fill="#CBCBCB"/>
<path d="M6.09999 16.2323C6.56665 16.4849 6.99998 16.3839 7.38332 15.9124C7.63332 15.4746 7.89998 15.0536 8.18334 14.6326C8.86664 13.6224 7.29999 12.5615 6.63332 13.5718C6.33332 14.0096 6.04999 14.4643 5.78332 14.9358C5.51665 15.3735 5.64999 15.963 6.09999 16.2323Z" fill="#CBCBCB"/>
<path d="M60.5333 29.5181C60.5333 29.7707 60.5499 30.0065 60.5499 30.259C60.5833 31.5051 62.3833 31.5051 62.4333 30.259C62.4333 30.0065 62.4333 29.737 62.4166 29.4676C62.3833 28.2384 60.4999 28.2889 60.5333 29.5181Z" fill="#CBCBCB"/>
<path d="M50.4833 51.8295C50.3 51.981 50.1 52.1494 49.9166 52.3009C48.95 53.0756 50.0999 54.4731 51.0833 53.7827C51.2833 53.6143 51.4833 53.4628 51.6833 53.2944C52.6166 52.503 51.4166 51.0381 50.4833 51.8295Z" fill="#CBCBCB"/>
<path d="M37.6333 58.0092C37.1667 58.1103 36.6833 58.1776 36.2166 58.2618C35.0333 58.4302 35.3333 60.316 36.4833 60.1477C36.9833 60.0804 37.5 59.9793 37.9833 59.8952C39.2 59.6257 38.8333 57.7734 37.6333 58.0092Z" fill="#CBCBCB"/>
<path d="M42.4666 56.5948C42.0167 56.7631 41.5666 56.9315 41.1166 57.083C39.9333 57.4704 40.6 59.2553 41.7 58.8848C42.1833 58.7165 42.6666 58.548 43.1333 58.3628C44.2666 57.925 43.6 56.1569 42.4666 56.5948Z" fill="#CBCBCB"/>
<path d="M46.9666 54.3551C46.5667 54.6077 46.1333 54.8435 45.7167 55.0792C44.6167 55.6854 45.5833 57.3019 46.6 56.7463C47.05 56.5105 47.5 56.2411 47.9334 55.9716C48.9833 55.3486 48 53.7153 46.9666 54.3551Z" fill="#CBCBCB"/>
<path d="M22.75 57.0325C22.3 56.8809 21.8499 56.7125 21.4 56.5273C20.2666 56.0727 19.5833 57.8408 20.7167 58.2954C21.1833 58.4806 21.6666 58.6658 22.1499 58.8173C23.25 59.2215 23.9167 57.4366 22.75 57.0325Z" fill="#CBCBCB"/>
<path d="M32.65 58.548C32.1667 58.5649 31.6833 58.5649 31.2166 58.548C30 58.5144 29.95 60.4172 31.1666 60.4508C31.6667 60.4677 32.1833 60.4677 32.7 60.4508C33.9 60.4172 33.8666 58.5144 32.65 58.548Z" fill="#CBCBCB"/>
<path d="M18.1499 55.0119C17.7333 54.7762 17.3166 54.5404 16.9 54.2879C15.8666 53.6479 14.8833 55.2644 15.9167 55.9044C16.35 56.1737 16.7999 56.4263 17.2333 56.6789C18.2666 57.2346 19.25 55.6181 18.1499 55.0119Z" fill="#CBCBCB"/>
<path d="M27.6333 58.228C27.1666 58.1607 26.6833 58.0765 26.2167 57.9755C25.0333 57.7398 24.65 59.592 25.85 59.8277C26.35 59.9288 26.85 60.0129 27.35 60.0972C28.5166 60.2824 28.8 58.4133 27.6333 58.228Z" fill="#CBCBCB"/>
<path d="M54.8166 44.8414L60.2666 40.1434L62.3499 42.6187C62.6833 43.0228 63.2833 43.0565 63.6666 42.7197C64.0667 42.383 64.1167 41.7768 63.7666 41.3895L57.4 33.9973L51.8 22.4459C51.45 21.7387 50.8999 21.1494 50.2167 20.7789L42.1833 15.4916C41.15 14.818 39.6499 14.9191 38.6166 15.5084L34.2167 18.0006C33.4 18.4552 32.8 19.2129 32.5 20.1054L31.9333 21.8398L31.3666 20.1054C31.0666 19.2129 30.4666 18.472 29.65 18.0006L25.2666 15.4916C24.2333 14.9022 22.7333 14.8012 21.7 15.4747L19 17.2597C17.9833 17.9332 19.0166 19.516 20.0333 18.8424L22.6833 17.0912C23.2166 16.8387 23.8333 16.8555 24.35 17.1418L28.7499 19.6339C29.15 19.8528 29.45 20.2233 29.6 20.6779L30.9833 24.9212C31.0999 25.2748 30.5666 25.9652 30.2667 25.4601L28.85 23.0858C28.5333 22.5638 28.0166 22.1765 27.4333 22.0418L24.4166 21.3009C23.7833 21.1494 22.6333 21.3851 22.2167 21.9913C22.1833 22.0755 18.0499 28.1543 18.0166 28.2384C17.2499 29.5688 17.2499 31.2189 18.0166 32.5492L20.3 36.5063C20.8333 37.4324 21.7 38.1228 22.7166 38.4259C25.4667 39.2004 27.6833 39.8234 29.5833 42.1809C29.9833 42.6692 30.4166 43.1407 30.8166 43.6122C31.0833 43.9658 30.65 44.5888 30.2333 44.3026L27.4333 42.2314C27.3833 42.1978 27.3167 42.164 27.25 42.1304C27.0999 42.0631 26.2833 41.6757 26.15 41.6589L17.7333 39.975C17.5833 39.9413 17.4333 39.9582 17.2999 39.9919L12.7166 41.3053C11.6666 41.6084 10.7833 42.2819 10.2 43.2081L4.98329 38.7121L7.98329 35.1424C8.0333 35.075 8.08332 35.0245 8.11666 34.9402L13.7833 23.2879C14.0166 22.9006 14.2999 22.6143 14.6666 22.4123L15.9499 21.5703C16.9666 20.8968 15.9333 19.314 14.9166 19.9875L13.6833 20.8126C12.9999 21.183 12.4333 21.7724 12.1 22.4628L6.48329 34.0141L0.233293 41.3726C-0.55004 42.2987 0.866629 43.5448 1.66663 42.6018L3.74996 40.1266L9.2 44.8246L0.133293 60.0973C-0.133374 60.5519 0.0166266 61.1245 0.44996 61.3938C0.883293 61.6632 1.46663 61.5285 1.73329 61.0739L10.8833 45.6665C11.3833 44.6899 12.0833 43.4438 13.2 43.1239L17.5666 41.8778L25.6666 43.4943L26.3833 43.8143L29.1166 45.8349C29.95 46.458 31.1333 46.3906 31.9166 45.7507C32.6999 46.3906 33.8666 46.4748 34.7166 45.8349L37.5333 43.7469C37.7 43.629 37.8833 43.5449 38.0666 43.5112L46.2667 41.8778L50.6333 43.1239C51.55 43.3765 52.3 44.3868 52.7833 45.1782L62.2166 61.0739C62.4 61.377 62.7 61.5285 63.0167 61.5285C63.7166 61.5454 64.1999 60.7035 63.8167 60.0973L54.8166 44.8414ZM51.1666 41.3053C50.95 41.2884 46.2167 39.773 46.1333 39.975L37.7167 41.6589C37.2499 41.7431 36.8166 41.9452 36.4333 42.2314L33.6333 44.2857C33.2 44.572 32.7666 43.949 33.05 43.5953C33.4667 43.1239 33.9 42.6524 34.2833 42.164C36.1666 39.8234 38.4 39.1836 41.15 38.409C42.1666 38.106 43.0333 37.4155 43.5667 36.4894L45.85 32.5323C46.6166 31.2021 46.6166 29.5518 45.85 28.2216C45.5833 27.767 45.0166 27.6154 44.5666 27.868C44.1167 28.1374 43.9666 28.71 44.2333 29.1646C44.65 29.9055 44.65 30.8148 44.2333 31.5557L41.95 35.5128C41.65 36.0348 41.1833 36.4052 40.6166 36.5736C37.4833 37.4324 34.9833 38.2912 32.85 40.918L31.9333 41.962L31.0167 40.918C28.8833 38.2743 26.3833 37.4155 23.25 36.5736C22.6833 36.4052 22.2167 36.0348 21.9166 35.5128L19.6333 31.5557C19.2166 30.8316 19.2 29.9223 19.6166 29.1983L23.6833 23.1532C23.7666 23.1026 23.8667 23.0858 23.9666 23.1195L26.9833 23.8604C27.0833 23.8773 27.1833 23.9446 27.2333 24.0456L28.65 26.4199C29.3166 27.5313 30.95 27.767 31.9333 27.0092C32.9167 27.767 34.5666 27.5313 35.2166 26.4199L36.6333 24.0456C36.6833 23.9446 36.7833 23.8941 36.8833 23.8604L39.8999 23.1195C40 23.1026 40.1167 23.1195 40.1999 23.17L41.6833 25.1569C42.4666 26.1336 43.8999 25.0391 43.1833 24.012L41.6166 21.9408C41.1833 21.3683 40.0833 21.1325 39.45 21.2841L36.4333 22.025C35.85 22.1597 35.3333 22.547 35.0167 23.069L33.6 25.4432C33.3333 25.8979 32.7499 25.2917 32.8833 24.9044L34.2667 20.6611C34.4166 20.2233 34.7166 19.8528 35.1166 19.6171L39.5166 17.1249C40.0333 16.8387 40.65 16.8218 41.1833 17.0744L49.2166 22.3786C49.5833 22.5807 49.8833 22.8838 50.0999 23.2542L55.7666 34.9066C55.8 34.9739 55.85 35.0581 55.8999 35.1086L59 38.6617L53.7333 43.2754C53.1166 42.3661 52.2333 41.6084 51.1666 41.3053Z" fill="#20805C"/>
</g>
</g>
<defs>
<clipPath id="clip0_338_29200">
<rect width="64" height="61.6296" fill="white"/>
</clipPath>
</defs>
</svg>
