<svg width="64" height="62" viewBox="0 0 64 62" fill="none" xmlns="http://www.w3.org/2000/svg">
<g clip-path="url(#clip0_338_29234)">
<path d="M53.2989 19.3256L50.4104 15.8113C50.0133 15.3299 49.7726 14.7522 49.7124 14.1264L49.2791 9.60111C49.0505 7.25427 47.185 5.37676 44.8261 5.14809L40.3008 4.71482C39.6749 4.65464 39.0973 4.41394 38.6159 4.01678L35.1016 1.12831C33.2722 -0.376102 30.6365 -0.376102 28.8071 1.12831L25.2928 4.01678C24.8114 4.41394 24.2337 4.65464 23.6079 4.71482L19.0826 5.14809C16.7358 5.37676 14.8583 7.24222 14.6296 9.60111L14.1963 14.1264C14.1361 14.7522 13.8954 15.3299 13.4982 15.8113L10.6098 19.3256C9.10538 21.155 9.10538 23.7907 10.6098 25.6201L13.4982 29.1344C13.8954 29.6158 14.1361 30.1935 14.1963 30.8193L14.6296 35.3446C14.8583 37.6915 16.7237 39.569 19.0826 39.7976L21.8507 40.0624L15.2675 55.7805C15.0869 56.2137 15.1712 56.6951 15.472 57.0321C15.7849 57.3812 16.2423 57.5136 16.6876 57.3932L22.3923 55.7805C22.4164 55.7685 22.4405 55.7805 22.4525 55.8046L25.3049 61.0038C25.5215 61.389 25.9187 61.6296 26.352 61.6296C26.376 61.6296 26.3881 61.6296 26.4121 61.6296C26.8694 61.6055 27.2786 61.3288 27.4592 60.8955L34.4156 44.2868C34.6562 44.1544 34.8729 43.9979 35.0895 43.8174L38.6039 40.9289C39.0492 40.5679 39.5787 40.3272 40.1444 40.255L46.4268 55.275L41.9737 54.0233C41.1312 53.7826 40.2407 54.1557 39.8194 54.926L37.5929 58.9698L34.6442 51.9172C34.4517 51.4478 33.91 51.2311 33.4527 51.4238C32.9834 51.6163 32.7667 52.1579 32.9593 52.6152L36.4134 60.8834C36.5939 61.3047 36.9911 61.5935 37.4605 61.6176C37.4846 61.6176 37.4966 61.6176 37.5207 61.6176C37.9539 61.6176 38.3511 61.389 38.5677 60.9918L41.4201 55.7925C41.4321 55.7685 41.4562 55.7564 41.4803 55.7685L47.185 57.3812C47.6303 57.5016 48.0996 57.3691 48.4005 57.0201C48.7135 56.6711 48.7857 56.1897 48.6052 55.7685L42.0339 40.0504L44.802 39.7856C47.1489 39.557 49.0264 37.6915 49.255 35.3326L49.6883 30.8073C49.7485 30.1815 49.9892 29.6038 50.3864 29.1224L53.2749 25.6081C54.7913 23.8028 54.7913 21.155 53.2989 19.3256ZM26.2918 58.9698L24.0653 54.914C23.644 54.1437 22.7533 53.7706 21.9109 54.0113L17.4579 55.263L23.7403 40.243C24.3059 40.3272 24.8355 40.5559 25.2808 40.9169L28.7951 43.8054C29.7098 44.5516 30.829 44.9367 31.9483 44.9367C32.0205 44.9367 32.0928 44.9367 32.165 44.9367L26.2918 58.9698ZM51.8787 24.4647L48.9903 27.979C48.3645 28.7373 47.9793 29.6639 47.8831 30.6509L47.4498 35.1761C47.3053 36.6564 46.1259 37.8359 44.6455 37.9803L40.6739 38.3655C40.6619 38.3655 40.6378 38.3655 40.6258 38.3655L40.1203 38.4136C39.1334 38.5099 38.2067 38.895 37.4485 39.5209L33.9341 42.4093C32.7787 43.3601 31.1179 43.3601 29.9625 42.4093L26.4482 39.5209C25.69 38.895 24.7633 38.5099 23.7764 38.4136L23.2709 38.3655C23.2589 38.3655 23.2469 38.3655 23.2348 38.3655L19.2511 37.9803C17.7707 37.8359 16.5913 36.6564 16.4469 35.1761L16.0136 30.6509C15.9174 29.6639 15.5322 28.7373 14.9064 27.979L12.0179 24.4647C11.0671 23.3094 11.0671 21.6484 12.0179 20.493L14.9064 16.9788C15.5322 16.2205 15.9174 15.2938 16.0136 14.3069L16.4469 9.78165C16.5913 8.30135 17.7707 7.12187 19.2511 6.97745L23.7764 6.54418C24.7633 6.4479 25.69 6.06277 26.4482 5.43694L29.9625 2.54847C30.5402 2.07909 31.2382 1.83839 31.9483 1.83839C32.6584 1.83839 33.3565 2.07909 33.9341 2.54847L37.4485 5.43694C38.2067 6.06277 39.1334 6.4479 40.1203 6.54418L44.6455 6.97745C46.1259 7.12187 47.3053 8.30135 47.4498 9.78165L47.8831 14.3069C47.9793 15.2938 48.3645 16.2205 48.9903 16.9788L51.8787 20.493C52.8296 21.6364 52.8296 23.3094 51.8787 24.4647Z" fill="#CBCBCB"/>
<path d="M31.9483 8.20508C31.3346 8.20508 30.7207 8.24119 30.119 8.32541C29.6135 8.38562 29.2644 8.84295 29.3246 9.34847C29.3848 9.85391 29.8422 10.203 30.3476 10.1428C30.8772 10.0706 31.4068 10.0465 31.9363 10.0465C38.7964 10.0465 44.3808 15.6309 44.3808 22.491C44.3808 29.3511 38.7964 34.9354 31.9363 34.9354C25.0762 34.9354 19.4919 29.3511 19.4919 22.491C19.4919 17.5926 22.3803 13.1396 26.8454 11.1296C27.3027 10.9251 27.5074 10.3834 27.3027 9.92613C27.0982 9.4688 26.5565 9.26424 26.0992 9.4688C20.9722 11.7675 17.6625 16.8825 17.6625 22.491C17.6625 30.362 24.0653 36.7648 31.9363 36.7648C39.8074 36.7648 46.2101 30.362 46.2101 22.491C46.2221 14.6078 39.8194 8.20508 31.9483 8.20508Z" fill="#20805C"/>
<path d="M22.8738 21.4199C21.7906 22.5151 21.7906 24.2842 22.8738 25.3674L26.8694 29.3632C27.399 29.8927 28.097 30.1816 28.8432 30.1816C29.5894 30.1816 30.2875 29.8927 30.817 29.3632L39.5305 20.6496C40.6258 19.5544 40.6258 17.7852 39.5305 16.7021C38.4353 15.6068 36.6662 15.6068 35.583 16.7021L28.8432 23.4418L26.8213 21.4199C25.7261 20.3246 23.9569 20.3246 22.8738 21.4199ZM28.8312 25.6322C29.0719 25.6322 29.3005 25.536 29.4811 25.3674L36.8587 17.9898C37.2318 17.6167 37.8456 17.6167 38.2308 17.9898C38.6038 18.3629 38.6038 18.9767 38.2308 19.3619L29.5172 28.0753C29.3367 28.2559 29.096 28.3642 28.8312 28.3642C28.5784 28.3642 28.3257 28.268 28.1451 28.0753L24.1495 24.0797C23.7764 23.7066 23.7764 23.0927 24.1495 22.7076C24.342 22.5151 24.5827 22.4188 24.8355 22.4188C25.0882 22.4188 25.3289 22.5151 25.5215 22.6956L28.1813 25.3554C28.3618 25.536 28.5905 25.6322 28.8312 25.6322Z" fill="#20805C"/>
</g>
<defs>
<clipPath id="clip0_338_29234">
<rect width="64" height="61.6296" fill="white"/>
</clipPath>
</defs>
</svg>
