<svg width="64" height="63" viewBox="0 0 64 63" fill="none" xmlns="http://www.w3.org/2000/svg">
<g clip-path="url(#clip0_338_29244)">
<path d="M48.2259 19.2631C47.7445 19.4076 47.4877 19.9211 47.6321 20.3865C48.1135 21.9273 48.3543 23.5483 48.3543 25.1853C48.3543 30.61 45.6741 35.6655 41.1642 38.6989C38.5963 40.4322 36.9593 43.2569 36.7025 46.3545H35.1457V37.2545L39.2543 33.2742C39.6074 32.9211 39.6234 32.3594 39.2704 32.0063C38.9173 31.6532 38.3555 31.6372 38.0025 31.9903L37.3445 32.6322L36.0284 32.1347C35.8198 32.0544 35.5951 32.0544 35.4024 32.1347L33.8938 32.6964L32.3852 32.1347C32.1765 32.0544 31.9519 32.0544 31.7593 32.1347L30.2506 32.6964L28.742 32.1347C28.5333 32.0544 28.3086 32.0544 28.1161 32.1347L26.8 32.6322L26.1419 31.9903C25.7889 31.6372 25.2111 31.6532 24.874 32.0063C24.521 32.3594 24.537 32.9372 24.8902 33.2742L28.9988 37.2545V46.3545H27.442C27.1691 43.273 25.516 40.4322 22.9 38.6508C18.5185 35.6655 15.8543 30.7063 15.7901 25.41C15.7099 21.0125 17.4111 16.8397 20.5568 13.6939C23.7024 10.5323 27.8753 8.83096 32.2889 8.8952C37.9703 8.97539 43.1061 11.9285 46.0271 16.8075C46.2839 17.2409 46.8457 17.3693 47.263 17.1125C47.6963 16.8557 47.8247 16.31 47.5679 15.8766C46.0111 13.2767 43.7963 11.11 41.1963 9.56925C38.5161 7.99642 35.4346 7.12975 32.3049 7.09765C27.4099 7.03345 22.7876 8.92728 19.2889 12.426C15.7901 15.9248 13.8963 20.5471 13.9605 25.4421C14.0407 31.3161 16.9938 36.8211 21.8568 40.1433C23.9753 41.5877 25.3235 43.8668 25.5963 46.3545H23.3333C22.2901 46.3545 21.4235 47.205 21.4235 48.2643V50.2063C21.4235 51.2495 22.2741 52.1161 23.3333 52.1161H23.7506C23.7506 52.1483 23.7506 52.1804 23.7506 52.2125V54.1544C23.7506 55.1976 24.6012 56.0483 25.6444 56.0643C25.6766 56.8507 25.837 57.6211 26.1419 58.3433C26.3346 58.8088 26.8642 59.0174 27.3297 58.8248C27.795 58.6322 28.0037 58.1026 27.8111 57.6371C27.6025 57.1397 27.4741 56.5939 27.4581 56.0483H36.6703C36.5581 58.5038 34.5358 60.4618 32.0642 60.4618C31.4061 60.4618 30.7802 60.3334 30.1864 60.0606C29.737 59.852 29.1913 60.0606 28.9988 60.51C28.7901 60.9594 28.9988 61.489 29.4481 61.6976C30.2666 62.0668 31.1494 62.2593 32.0642 62.2593C35.5308 62.2593 38.3555 59.4989 38.4679 56.0483C39.5111 56.0483 40.3617 55.1976 40.3617 54.1384V52.1964C40.3617 52.1643 40.3617 52.1323 40.3617 52.1001H40.779C41.8222 52.1001 42.6889 51.2495 42.6889 50.1902V48.2482C42.6889 47.205 41.8383 46.3384 40.779 46.3384H38.5161C38.7729 43.8347 40.1049 41.5717 42.1753 40.1754C47.1667 36.805 50.1518 31.1877 50.1518 25.1693C50.1518 23.3556 49.879 21.5581 49.3494 19.8409C49.221 19.3915 48.7074 19.1186 48.2259 19.2631ZM28.2123 34.0124L28.421 33.9322L29.9296 34.4939C30.1383 34.5742 30.3629 34.5742 30.5556 34.4939L32.0642 33.9322L33.5728 34.4939C33.7815 34.5742 34.0062 34.5742 34.1988 34.4939L35.7074 33.9322L35.916 34.0124L33.621 36.2273C33.4444 36.4038 33.3481 36.6285 33.3481 36.8693V46.3545H30.7802V36.8693C30.7802 36.6285 30.684 36.3878 30.5074 36.2273L28.2123 34.0124ZM38.5481 54.1544C38.5481 54.2026 38.5 54.2507 38.4518 54.2507H25.6605C25.5963 54.2507 25.5642 54.2026 25.5642 54.1544V52.2125C25.5642 52.1643 25.6123 52.1161 25.6605 52.1161H38.4518C38.5161 52.1161 38.5481 52.1643 38.5481 52.2125V54.1544ZM40.779 48.168C40.8272 48.168 40.8753 48.2162 40.8753 48.2643V50.2063C40.8753 50.2705 40.8272 50.3026 40.779 50.3026H23.3494C23.3012 50.3026 23.2531 50.2544 23.2531 50.2063V48.2643C23.2531 48.2162 23.3012 48.168 23.3494 48.168H40.779Z" fill="#20805C"/>
<path d="M32.0642 4.38519C32.5617 4.38519 32.963 3.98396 32.963 3.48642V1.5284C32.963 1.03087 32.5617 0.629639 32.0642 0.629639C31.5667 0.629639 31.1655 1.03087 31.1655 1.5284V3.48642C31.1655 3.98396 31.5667 4.38519 32.0642 4.38519Z" fill="#CBCBCB"/>
<path d="M19.8345 7.00125C19.995 7.29015 20.3 7.45064 20.621 7.45064C20.7815 7.45064 20.9259 7.41853 21.0704 7.32224C21.5037 7.06545 21.6481 6.51977 21.4074 6.08644L20.4284 4.40125C20.1716 3.96792 19.626 3.82347 19.1926 4.06422C18.7593 4.32101 18.6148 4.86669 18.8556 5.30002L19.8345 7.00125Z" fill="#CBCBCB"/>
<path d="M12.6926 14.1433L11.0074 13.1642C10.5741 12.9074 10.0284 13.068 9.77162 13.5013C9.51483 13.9346 9.6753 14.4803 10.1086 14.7371L11.7939 15.7161C11.9383 15.7964 12.0827 15.8445 12.2432 15.8445C12.5481 15.8445 12.8531 15.684 13.0296 15.3951C13.2704 14.9457 13.1259 14.4001 12.6926 14.1433Z" fill="#CBCBCB"/>
<path d="M54.0198 38.0086L52.3345 37.0296C51.9012 36.7728 51.3556 36.9333 51.0988 37.3666C50.842 37.8 51.0025 38.3456 51.4358 38.6024L53.121 39.5814C53.2655 39.6617 53.4259 39.7098 53.5704 39.7098C53.8753 39.7098 54.1803 39.5493 54.3568 39.2604C54.5975 38.811 54.4531 38.2493 54.0198 38.0086Z" fill="#CBCBCB"/>
<path d="M10.0765 26.3729C10.0765 25.8753 9.6753 25.4741 9.17776 25.4741H7.21975C6.72222 25.4741 6.32099 25.8753 6.32099 26.3729C6.32099 26.8704 6.72222 27.2717 7.21975 27.2717H9.17776C9.6753 27.2717 10.0765 26.8704 10.0765 26.3729Z" fill="#CBCBCB"/>
<path d="M56.8926 25.4741H54.9506C54.4531 25.4741 54.0519 25.8753 54.0519 26.3729C54.0519 26.8704 54.4531 27.2717 54.9506 27.2717H56.9086C57.4062 27.2717 57.8074 26.8704 57.8074 26.3729C57.7914 25.8753 57.3901 25.4741 56.8926 25.4741Z" fill="#CBCBCB"/>
<path d="M11.7939 37.0295L10.1086 38.0085C9.6753 38.2653 9.53086 38.811 9.77162 39.2443C9.93209 39.5332 10.237 39.6937 10.558 39.6937C10.7185 39.6937 10.8629 39.6616 11.0074 39.5653L12.6926 38.5863C13.1259 38.3295 13.2704 37.7838 13.0296 37.3505C12.7728 36.9332 12.2111 36.7888 11.7939 37.0295Z" fill="#CBCBCB"/>
<path d="M51.8852 15.8285C52.0457 15.8285 52.1901 15.7964 52.3345 15.7001L54.0198 14.721C54.4531 14.4642 54.5975 13.9186 54.3568 13.4853C54.1 13.0519 53.5543 12.9075 53.121 13.1482L51.4358 14.1272C51.0025 14.384 50.858 14.9297 51.0988 15.363C51.2593 15.668 51.5642 15.8285 51.8852 15.8285Z" fill="#CBCBCB"/>
<path d="M43.058 7.32223C43.2025 7.40247 43.363 7.45062 43.5074 7.45062C43.8124 7.45062 44.1173 7.29013 44.2939 7.00124L45.2728 5.31606C45.5296 4.88272 45.3691 4.33705 44.9358 4.08026C44.5024 3.82347 43.9568 3.98396 43.7 4.41729L42.721 6.10248C42.4803 6.53581 42.6247 7.08149 43.058 7.32223Z" fill="#CBCBCB"/>
</g>
<defs>
<clipPath id="clip0_338_29244">
<rect width="64" height="61.6296" fill="white" transform="translate(0 0.629639)"/>
</clipPath>
</defs>
</svg>
