<svg width="20" height="21" viewBox="0 0 20 21" fill="none" xmlns="http://www.w3.org/2000/svg">
<path fill-rule="evenodd" clip-rule="evenodd" d="M10 19.6343C14.8325 19.6343 18.75 15.7168 18.75 10.8843C18.75 6.05179 14.8325 2.13428 10 2.13428C5.16751 2.13428 1.25 6.05179 1.25 10.8843C1.25 12.4536 1.66312 13.9264 2.38655 15.1999L1.25 19.6343L5.82179 18.5742C7.06336 19.2502 8.48682 19.6343 10 19.6343ZM10 18.2881C14.089 18.2881 17.4038 14.9733 17.4038 10.8843C17.4038 6.79525 14.089 3.48043 10 3.48043C5.91097 3.48043 2.59615 6.79525 2.59615 10.8843C2.59615 12.4631 3.09031 13.9264 3.9324 15.1282L3.26923 17.615L5.79996 16.9824C6.99335 17.8059 8.44036 18.2881 10 18.2881Z" fill="#BFC8D0"/>
<path d="M17.5 10.2593C17.5 14.4014 14.1421 17.7593 10 17.7593C8.4201 17.7593 6.9543 17.2708 5.74541 16.4366L3.18182 17.0775L3.8536 14.5583C3.00058 13.341 2.5 11.8586 2.5 10.2593C2.5 6.11714 5.85786 2.75928 10 2.75928C14.1421 2.75928 17.5 6.11714 17.5 10.2593Z" fill="url(#paint0_linear_362_17555)"/>
<path fill-rule="evenodd" clip-rule="evenodd" d="M10 19.0093C14.8325 19.0093 18.75 15.0918 18.75 10.2593C18.75 5.42679 14.8325 1.50928 10 1.50928C5.16751 1.50928 1.25 5.42679 1.25 10.2593C1.25 11.8286 1.66312 13.3014 2.38655 14.5749L1.25 19.0093L5.82179 17.9492C7.06336 18.6252 8.48682 19.0093 10 19.0093ZM10 17.6631C14.089 17.6631 17.4038 14.3483 17.4038 10.2593C17.4038 6.17025 14.089 2.85543 10 2.85543C5.91097 2.85543 2.59615 6.17025 2.59615 10.2593C2.59615 11.8381 3.09031 13.3014 3.9324 14.5032L3.26923 16.99L5.79996 16.3574C6.99335 17.1809 8.44036 17.6631 10 17.6631Z" fill="white"/>
<path d="M7.81251 6.19689C7.60447 5.77903 7.28533 5.81602 6.96292 5.81602C6.38673 5.81602 5.48828 6.5062 5.48828 7.79068C5.48828 8.84338 5.95216 9.99573 7.51526 11.7195C9.02378 13.3831 11.0059 14.2437 12.6514 14.2144C14.2969 14.1851 14.6354 12.7691 14.6354 12.2909C14.6354 12.079 14.5039 11.9732 14.4133 11.9445C13.8525 11.6754 12.8183 11.1739 12.583 11.0797C12.3477 10.9855 12.2248 11.1129 12.1484 11.1823C11.935 11.3856 11.512 11.9849 11.3672 12.1198C11.2224 12.2546 11.0064 12.1863 10.9166 12.1354C10.5859 12.0027 9.68933 11.6039 8.97467 10.9111C8.09083 10.0543 8.03896 9.75955 7.87244 9.49715C7.73922 9.28724 7.83698 9.15845 7.88576 9.10216C8.07619 8.88244 8.33913 8.5432 8.45705 8.37462C8.57496 8.20604 8.48135 7.9501 8.42518 7.79068C8.18361 7.10509 7.97895 6.53118 7.81251 6.19689Z" fill="white"/>
<defs>
<linearGradient id="paint0_linear_362_17555" x1="16.5625" y1="4.63428" x2="2.5" y2="17.7593" gradientUnits="userSpaceOnUse">
<stop stop-color="#5BD066"/>
<stop offset="1" stop-color="#27B43E"/>
</linearGradient>
</defs>
</svg>
