<svg width="20" height="21" viewBox="0 0 20 21" fill="none" xmlns="http://www.w3.org/2000/svg">
<path d="M18.0899 6.45909C17.8953 5.73627 17.3254 5.16636 16.6026 4.97176C15.2821 4.61035 9.99996 4.61035 9.99996 4.61035C9.99996 4.61035 4.71786 4.61035 3.39734 4.95786C2.68842 5.15246 2.10461 5.73627 1.91001 6.45909C1.5625 7.77961 1.5625 10.518 1.5625 10.518C1.5625 10.518 1.5625 13.2702 1.91001 14.5768C2.10461 15.2997 2.67452 15.8696 3.39734 16.0642C4.73176 16.4256 9.99996 16.4256 9.99996 16.4256C9.99996 16.4256 15.2821 16.4256 16.6026 16.0781C17.3254 15.8835 17.8953 15.3136 18.0899 14.5907C18.4374 13.2702 18.4374 10.5319 18.4374 10.5319C18.4374 10.5319 18.4513 7.77961 18.0899 6.45909Z" fill="#FF0000"/>
<path d="M8.31799 12.9513L12.7105 10.4215L8.31799 7.8916V12.9513Z" fill="white"/>
</svg>
