<svg width="60" height="60" viewBox="0 0 60 60" fill="none" xmlns="http://www.w3.org/2000/svg">
<rect width="60" height="60" rx="5" fill="#E5E5E5"/>
<path d="M39.3267 9.24511C38.8002 9.20561 38.2783 9.36703 37.866 9.69688C37.6557 9.85281 37.4883 10.0595 37.3795 10.2976C37.2706 10.5358 37.2239 10.7976 37.2436 11.0587C37.2609 11.2643 37.2153 11.4703 37.1127 11.6493C37.0102 11.8284 36.8556 11.972 36.6694 12.061L35.1779 12.7651C34.9436 12.8739 34.6852 12.9207 34.4275 12.9009C34.1699 12.8811 33.9217 12.7955 33.7067 12.6521C33.2148 12.3309 32.6699 12.0992 32.0973 11.9676C30.8891 11.6892 29.4166 11.7692 28.0355 12.9636C24.9371 15.6434 27.5338 19.5387 27.5338 19.5387C27.9754 20.0996 28.5619 20.5293 29.2298 20.7814C29.8977 21.0335 30.6218 21.0984 31.3239 20.9693C31.5383 20.9288 31.7599 20.9521 31.9612 21.0363C32.1625 21.1204 32.3347 21.2618 32.4564 21.4429L33.2599 22.657C33.3642 22.8191 33.4211 23.0072 33.4242 23.1999C33.4273 23.3926 33.3764 23.5824 33.2774 23.7478C33.0406 24.1555 32.9545 24.6334 33.0343 25.0981C33.0422 25.1452 33.0516 25.1922 33.0625 25.2393C33.4155 26.7727 35.5907 26.379 35.5907 26.379C35.5907 26.379 37.8655 25.8575 37.3522 23.9752C37.088 23.0064 36.3144 22.7319 35.7447 22.6656C35.5432 22.6399 35.3542 22.5538 35.2026 22.4186C35.051 22.2834 34.9438 22.1055 34.8953 21.9082L34.4521 20.165C34.4047 19.9791 34.4061 19.784 34.4562 19.5988C34.5063 19.4136 34.6034 19.2445 34.7381 19.1078C35.8636 17.9697 35.9348 16.735 35.8361 15.9833C35.8056 15.7445 35.834 15.5018 35.9187 15.2764C36.0033 15.051 36.1417 14.8496 36.3219 14.6899L37.8662 13.3103C37.9957 13.1946 38.153 13.1143 38.3227 13.0772C38.4924 13.0401 38.6688 13.0474 38.8348 13.0985C39.696 13.3631 40.9903 13.0038 41.186 11.1456C41.347 9.61711 40.1222 9.29523 39.3267 9.24511Z" fill="#F74F73"/>
<path d="M15.9916 23.9795L35.407 38.3L24.4376 47.1585L17.0192 40.2436C16.5615 39.8169 16.2595 39.2496 16.1611 38.6316C16.052 37.9455 15.6922 37.3242 15.1513 36.8881L10.3 32.9757C10.3 32.9757 11.1722 27.6514 15.9916 23.9795Z" fill="#F7AFA6"/>
<path d="M28.3604 43.9906L29.9293 41.017L30.9676 36.3291L24.2123 33.958C21.9708 36.2095 19.9208 38.6438 18.0835 41.2357L24.4364 47.1583L28.3604 43.9906Z" fill="#D3716E"/>
<path d="M27.3528 8.10978C27.1177 7.89848 26.8328 7.7504 26.5249 7.67944C26.2169 7.60848 25.8959 7.61697 25.5921 7.70412C25.2883 7.79126 25.0116 7.9542 24.7881 8.17763C24.5645 8.40105 24.4014 8.67764 24.3141 8.9814C24.2442 9.24463 24.2127 9.51655 24.2204 9.78879C24.2384 10.7979 24.8814 11.155 25.4655 11.2711C25.7712 11.3326 26.086 11.3322 26.3915 11.27C26.697 11.2079 26.987 11.0852 27.2444 10.9093C27.7167 10.5823 28.1667 10.0138 27.9137 9.08107C27.8232 8.71042 27.6286 8.37339 27.3528 8.10978Z" fill="#F74F73"/>
<path d="M19.1009 15.6593C19.1009 15.6593 18.0663 16.7311 18.7621 17.916C19.2153 18.6878 19.8084 18.9306 20.3406 18.9546C20.7407 18.9677 21.1356 18.8611 21.4749 18.6486C21.8141 18.4361 22.0823 18.1273 22.2452 17.7617C22.2903 17.6596 22.3589 17.5697 22.4454 17.4992C22.5318 17.4287 22.6337 17.3797 22.7427 17.3561L22.778 17.349C22.9143 17.3212 23.036 17.2453 23.1208 17.1351C23.2057 17.025 23.2481 16.888 23.2402 16.7491L23.2308 16.5813C23.2236 16.4561 23.176 16.3366 23.0951 16.2407C23.0141 16.1449 22.9042 16.078 22.782 16.05L22.3443 15.9501C22.2123 15.9205 22.092 15.8522 21.9989 15.754C21.6211 15.3523 20.4435 14.3477 19.1009 15.6593Z" fill="#B21F42"/>
<path d="M33.017 14.3236C32.7945 14.208 32.5361 14.1826 32.2954 14.2528C32.0547 14.3229 31.8504 14.4831 31.7248 14.7001C31.5612 14.9968 31.5 15.3392 31.5509 15.6742C31.6592 16.5405 32.4015 16.7975 32.7808 16.8728C32.9399 16.9058 33.1048 16.8981 33.2601 16.8502C33.5728 16.7514 34.0593 16.469 34.0593 15.6742C34.0592 14.9903 33.4906 14.562 33.017 14.3236Z" fill="#B21F42"/>
<path d="M28.6427 15.0591C28.7314 14.9959 28.8336 14.9544 28.9412 14.9378C29.0488 14.9212 29.1587 14.9301 29.2623 14.9637C29.3658 14.9972 29.4601 15.0546 29.5375 15.1311C29.6149 15.2077 29.6733 15.3013 29.708 15.4044C29.7691 15.6172 29.7812 15.841 29.7435 16.0591C29.728 16.2703 29.6412 16.4699 29.4972 16.6253C29.3533 16.7806 29.1609 16.8824 28.9515 16.9139C28.7934 16.9427 28.6303 16.9158 28.4899 16.8376C28.3495 16.7595 28.2406 16.6351 28.1818 16.4856C28.0294 16.1031 27.9771 15.5356 28.6427 15.0591Z" fill="#B21F42"/>
<path d="M30.4843 19.1053C30.7779 19.1053 31.016 18.8673 31.016 18.5737C31.016 18.28 30.7779 18.042 30.4843 18.042C30.1907 18.042 29.9526 18.28 29.9526 18.5737C29.9526 18.8673 30.1907 19.1053 30.4843 19.1053Z" fill="#B21F42"/>
<path d="M28.584 35.3312C28.584 35.3312 30.588 36.7914 32.7221 36.3194L26.1918 31.5029L22.5881 34.2813C22.5881 34.2813 24.8817 37.9006 28.584 35.3312Z" fill="#D3716E"/>
<path d="M49.7008 34.4945C49.7008 34.4945 46.2528 37.6654 44.4491 39.5295C43.8403 40.1584 43.218 40.7794 42.5894 41.389L30.096 51.8864C29.7719 52.0726 29.4047 52.1709 29.031 52.1716C28.6572 52.1723 28.2897 52.0753 27.9649 51.8903C24.7529 50.0386 21.7436 47.8557 18.9861 45.3773C18.6388 45.0626 18.4184 44.632 18.3662 44.1663C18.314 43.7006 18.4336 43.2319 18.7026 42.8481C20.4082 40.3959 22.4414 38.0107 24.4304 35.8902C24.4304 35.8902 29.5128 30.8385 31.133 29.4116C31.6152 28.9817 32.2005 28.6841 32.832 28.5478C33.4634 28.4114 34.1194 28.4411 34.736 28.6337C35.8616 28.9826 37.0316 29.1676 38.2099 29.1831C39.0141 29.1988 39.7986 28.9336 40.4281 28.433L44.7498 24.9883C44.7498 24.9883 47.9839 28.1786 49.7008 34.4945Z" fill="#FFD0CA"/>
<path d="M42.0304 40.6128C41.7199 40.1915 41.3015 39.8617 40.8193 39.6581C40.3371 39.4545 39.809 39.3846 39.2905 39.4558C38.7719 39.527 38.2822 39.7366 37.8727 40.0626C37.4632 40.3886 37.1492 40.8189 36.9636 41.3083C36.5169 41.2466 36.0621 41.2845 35.6318 41.4194C35.2015 41.5543 34.8064 41.7829 34.4749 42.0886C34.1434 42.3943 33.8838 42.7697 33.7146 43.1877C33.5454 43.6057 33.4709 44.056 33.4965 44.5063C32.8864 44.6553 32.3423 45.0007 31.9478 45.4893C31.5534 45.978 31.3305 46.5828 31.3136 47.2105C30.8702 47.334 30.4613 47.5583 30.1188 47.8658C29.6056 48.3334 29.2916 48.9802 29.2416 49.6726C29.1917 50.3651 29.4097 51.0503 29.8506 51.5866L30.0958 51.8853C30.1686 51.8439 30.239 51.7983 30.3064 51.7486C32.5362 50.0905 37.7494 46.0814 42.5888 41.3887C42.3978 41.1183 42.2107 40.8578 42.0304 40.6128Z" fill="#E5837C"/>
<path d="M23.4135 24.7382C23.4135 24.7382 23.5138 26.2245 24.8586 26.5037C25.735 26.6857 26.3127 26.409 26.6881 26.0307C26.9663 25.7428 27.1524 25.3786 27.2225 24.9845C27.2927 24.5904 27.2438 24.1843 27.082 23.8181C27.0367 23.7162 27.0161 23.605 27.0218 23.4936C27.0276 23.3822 27.0597 23.2737 27.1153 23.1771L27.1337 23.1461C27.2045 23.0265 27.2299 22.8853 27.2053 22.7485C27.1806 22.6116 27.1075 22.4882 26.9993 22.4009L26.8684 22.2953C26.7708 22.2165 26.6502 22.1716 26.5249 22.1673C26.3995 22.163 26.2762 22.1996 26.1734 22.2714L25.8063 22.5284C25.6957 22.6063 25.5644 22.6497 25.4291 22.6529C24.8775 22.6639 23.3424 22.8627 23.4135 24.7382Z" fill="#F74F73"/>
<path d="M25.7646 39.5625C23.5199 41.7155 20.7502 45.1508 19.9199 46.197C20.1529 46.3965 20.4028 46.6066 20.6699 46.8272C21.4623 45.8275 24.2206 42.3996 26.4421 40.2692C26.5339 40.1789 26.5864 40.0561 26.5883 39.9274C26.5902 39.7986 26.5412 39.6743 26.4521 39.5814C26.363 39.4885 26.2409 39.4344 26.1122 39.4308C25.9835 39.4273 25.8586 39.4746 25.7645 39.5625H25.7646Z" fill="#E5837C"/>
<path d="M27.8648 42.0591C26.2601 43.7315 23.477 47.2329 22.5989 48.3474C22.853 48.5388 23.1158 48.7329 23.3872 48.9296C24.2766 47.8021 27.0296 44.3443 28.5713 42.737C28.6556 42.6424 28.6998 42.5188 28.6949 42.3923C28.6899 42.2657 28.6361 42.146 28.5447 42.0583C28.4533 41.9706 28.3315 41.9217 28.2049 41.9219C28.0782 41.9221 27.9566 41.9714 27.8655 42.0594L27.8648 42.0591Z" fill="#E5837C"/>
<path d="M26.0852 50.7605C26.7616 49.9198 28.7593 47.4601 30.2371 45.8785C30.3245 45.7834 30.3708 45.6576 30.3659 45.5286C30.3609 45.3995 30.3052 45.2776 30.2109 45.1895C30.1165 45.1013 29.9911 45.054 29.862 45.0578C29.7329 45.0617 29.6106 45.1164 29.5216 45.21C27.9738 46.8665 25.8728 49.4613 25.2588 50.2258C25.529 50.4042 25.8045 50.5825 26.0852 50.7605Z" fill="#E5837C"/>
<path d="M28.5841 35.3313C28.5841 35.3313 32.1482 37.929 34.8318 35.0772L28.9693 31.375C27.6159 32.638 26.0381 34.1776 24.4307 35.8911C25.4541 36.3832 26.8671 36.5229 28.5841 35.3313Z" fill="#E5837C"/>
<path d="M22.5882 28.8457C22.5882 28.8457 25.3009 29.2833 29.5973 28.9369C29.9124 28.9115 30.2293 28.952 30.5278 29.0559C30.8263 29.1598 31.0999 29.3247 31.3311 29.5403L35.0712 33.0327C35.2174 33.1695 35.3294 33.3388 35.3982 33.5269C35.467 33.7149 35.4907 33.9165 35.4673 34.1154C35.444 34.3142 35.3743 34.5049 35.2638 34.6719C35.1533 34.8389 35.0051 34.9776 34.8312 35.0768C33.496 35.8438 31.265 36.3615 28.7271 33.823C28.7271 33.823 26.4206 36.3468 22.5879 34.2814L22.5882 28.8457Z" fill="#F7AFA6"/>
<path d="M39.9544 45.7647L41.8676 43.8883C42.0499 43.7098 42.1632 43.4726 42.1876 43.2186C42.2119 42.9646 42.1457 42.7102 42.0006 42.5003C41.7606 42.1527 41.455 41.7193 41.129 41.2758C40.9824 41.0762 40.7959 40.9091 40.5813 40.7853C40.3667 40.6615 40.1288 40.5836 39.8825 40.5566C39.6363 40.5295 39.3871 40.554 39.1508 40.6283C38.9144 40.7027 38.6962 40.8253 38.5097 40.9884C38.1753 41.2813 37.962 41.6883 37.9115 42.13C37.861 42.5717 37.9769 43.0164 38.2365 43.3773L39.9544 45.7647Z" fill="#F7AFA6"/>
<path d="M39.9542 45.7648L38.2364 43.3774L38.1047 43.1954C37.9527 42.9855 37.76 42.8085 37.5381 42.6748C37.3162 42.5411 37.0696 42.4536 36.813 42.4174C36.5565 42.3811 36.2953 42.397 36.045 42.464C35.7948 42.5311 35.5606 42.6478 35.3565 42.8074C34.9605 43.1168 34.7011 43.5687 34.6335 44.0667C34.5659 44.5647 34.6955 45.0693 34.9947 45.4731L37.1264 48.3517C37.1264 48.3517 38.763 46.9332 39.9542 45.7648Z" fill="#F7AFA6"/>
<path d="M37.1264 48.3508L35.5876 46.2576C35.4419 46.0594 35.2561 45.8942 35.0422 45.7726C34.8284 45.6511 34.5913 45.5759 34.3465 45.5522C34.1017 45.5284 33.8546 45.5564 33.6213 45.6345C33.3881 45.7126 33.1739 45.839 32.9928 46.0054C32.6709 46.3015 32.4715 46.7073 32.4338 47.143C32.3961 47.5787 32.5228 48.0128 32.7891 48.3597L34.6165 50.7385L37.1264 48.3508Z" fill="#F7AFA6"/>
<path d="M34.6894 50.6695L33.2046 48.8998C33.0706 48.7253 32.9018 48.5805 32.7089 48.4746C32.5161 48.3687 32.3034 48.304 32.0842 48.2845C31.865 48.2651 31.6442 48.2914 31.4357 48.3617C31.2273 48.432 31.0356 48.5448 30.873 48.693C30.5719 48.9674 30.3877 49.347 30.3584 49.7533C30.329 50.1596 30.4568 50.5617 30.7153 50.8766L31.6213 51.9797C31.7156 52.0945 31.8326 52.1887 31.9649 52.2564C32.0972 52.324 32.242 52.3638 32.3904 52.373C32.5387 52.3823 32.6873 52.3609 32.827 52.3103C32.9667 52.2596 33.0945 52.1807 33.2024 52.0785L34.6894 50.6695Z" fill="#F7AFA6"/>
<path d="M32.3682 47.1426C32.2847 47.0431 32.1652 46.9809 32.0358 46.9696C31.9064 46.9583 31.7779 46.9989 31.6784 47.0824C31.579 47.1659 31.5168 47.2855 31.5055 47.4149C31.4942 47.5442 31.5348 47.6728 31.6183 47.7722L34.3341 51.0068L35.0455 50.3313L32.3682 47.1426Z" fill="#E5837C"/>
<path d="M37.4963 48.028L34.4751 43.9169C34.3977 43.8136 34.2827 43.7449 34.155 43.726C34.0272 43.7071 33.8972 43.7393 33.7932 43.8158C33.6892 43.8922 33.6195 44.0067 33.5995 44.1342C33.5794 44.2617 33.6105 44.392 33.686 44.4967L36.7686 48.6924L37.4963 48.028Z" fill="#E5837C"/>
<path d="M40.3078 45.418L37.616 41.6768C37.5787 41.624 37.5313 41.5791 37.4766 41.5447C37.4218 41.5103 37.3608 41.4871 37.297 41.4764C37.2332 41.4658 37.168 41.4678 37.105 41.4825C37.042 41.4972 36.9826 41.5242 36.9301 41.562C36.8777 41.5997 36.8332 41.6475 36.7993 41.7026C36.7654 41.7577 36.7427 41.8189 36.7326 41.8827C36.7225 41.9466 36.7251 42.0118 36.7403 42.0747C36.7556 42.1375 36.7831 42.1967 36.8213 42.2489L39.5973 46.1098C39.8326 45.8872 40.069 45.6569 40.3066 45.419L40.3078 45.418Z" fill="#E5837C"/>
<path d="M44.7998 39.868C46.5731 38.0355 49.9972 34.8845 50.0315 34.853C50.0814 34.8102 50.122 34.7578 50.1512 34.6989C50.1803 34.64 50.1973 34.5759 50.2011 34.5103C50.2049 34.4447 50.1955 34.379 50.1734 34.3172C50.1513 34.2553 50.117 34.1985 50.0725 34.1502C50.028 34.1019 49.9743 34.063 49.9144 34.0359C49.8546 34.0087 49.7899 33.9939 49.7243 33.9923C49.6586 33.9907 49.5933 34.0024 49.5322 34.0265C49.4711 34.0507 49.4155 34.0869 49.3687 34.133C49.3341 34.1648 45.8894 37.3349 44.0962 39.1871C43.3922 39.9146 42.6339 40.6662 41.8422 41.4246C41.734 41.2739 41.6269 41.1258 41.5226 40.9837C41.2511 40.615 40.8749 40.3366 40.4429 40.1846C40.011 40.0327 39.5433 40.0143 39.1007 40.1319C38.6582 40.2494 38.2613 40.4975 37.9617 40.8438C37.6621 41.19 37.4737 41.6185 37.421 42.0733C37.247 42.0051 37.0657 41.9572 36.8808 41.9305C36.476 41.8733 36.0633 41.9198 35.6813 42.0655C35.2993 42.2112 34.9605 42.4515 34.6966 42.7637C34.4327 43.076 34.2524 43.4501 34.1724 43.851C34.0924 44.252 34.1154 44.6666 34.2393 45.0563C33.8977 45.0461 33.5584 45.1143 33.2474 45.2557C32.9363 45.397 32.6618 45.6078 32.4449 45.8717C32.2279 46.1357 32.0743 46.4459 31.9959 46.7784C31.9175 47.111 31.9163 47.4571 31.9924 47.7901C31.5944 47.7798 31.2018 47.8841 30.8614 48.0906C30.521 48.2972 30.2472 48.5973 30.0726 48.9551C29.898 49.3129 29.83 49.7134 29.8766 50.1088C29.9233 50.5043 30.0826 50.8779 30.3357 51.1853L31.2417 52.2884C31.3788 52.455 31.5488 52.5917 31.7409 52.69C31.933 52.7883 32.1433 52.8461 32.3586 52.8599C32.3911 52.8619 32.4235 52.8629 32.4559 52.8629C32.8584 52.8625 33.2456 52.7085 33.5383 52.4322L42.2095 44.2357C42.4725 43.9789 42.6368 43.6378 42.6738 43.272C42.7109 42.9063 42.6182 42.5392 42.412 42.2348C43.2518 41.433 44.0554 40.6376 44.7998 39.868ZM35.6574 43.1907C35.9086 42.9928 36.2191 42.8853 36.5389 42.8854C36.6075 42.8853 36.676 42.89 36.7439 42.8995C36.9354 42.9258 37.1196 42.9909 37.2853 43.0907C37.4509 43.1904 37.5945 43.3229 37.7074 43.4799L39.2667 45.6458L39.309 45.7048C38.5552 46.4268 37.6947 47.1956 37.204 47.6288L35.9818 45.9668C35.9437 45.9149 35.9022 45.8662 35.86 45.8182L35.3874 45.1801C35.1622 44.8795 35.0643 44.5024 35.1148 44.1302C35.1653 43.758 35.3602 43.4207 35.6574 43.191V43.1907ZM33.324 46.364C33.5546 46.1497 33.8578 46.0308 34.1726 46.0314C34.215 46.0314 34.2566 46.0333 34.2997 46.0374C34.6031 46.0654 34.8857 46.204 35.0937 46.4268L36.4754 48.2926L34.6727 50.0075L33.1775 48.0601C32.9841 47.8108 32.8918 47.4978 32.919 47.1835C32.9461 46.8692 33.0908 46.5767 33.324 46.3643V46.364ZM32.8648 51.7211C32.8057 51.7771 32.7356 51.8204 32.6591 51.8481C32.5825 51.8759 32.5011 51.8876 32.4198 51.8826C32.3385 51.8775 32.2591 51.8557 32.1866 51.8186C32.1141 51.7815 32.05 51.7298 31.9984 51.6668L31.0924 50.5637C30.9135 50.3459 30.8251 50.0677 30.8454 49.7866C30.8657 49.5055 30.9932 49.2429 31.2016 49.0531C31.4027 48.868 31.6661 48.7655 31.9394 48.7659C31.9725 48.7659 32.0061 48.7675 32.0397 48.7705C32.1915 48.7832 32.339 48.8277 32.4725 48.901C32.6061 48.9744 32.7227 49.075 32.8149 49.1963L33.9585 50.6855L32.8648 51.7211ZM41.5238 43.5366L40.0179 45.0139L38.633 43.0892C38.4937 42.8957 38.4105 42.6675 38.3924 42.4297C38.3743 42.192 38.422 41.9538 38.5304 41.7414C38.6387 41.529 38.8035 41.3506 39.0066 41.2257C39.2097 41.1007 39.4433 41.0342 39.6818 41.0333C39.7302 41.0333 39.7787 41.036 39.8269 41.0412C40.0062 41.0599 40.1795 41.1161 40.3357 41.2061C40.4919 41.2961 40.6274 41.4178 40.7335 41.5635C41.0085 41.9377 41.2992 42.3458 41.5971 42.7764C41.6768 42.8913 41.7132 43.0308 41.6998 43.1701C41.6864 43.3093 41.624 43.4393 41.5238 43.5369V43.5366Z" fill="#3C3C4F"/>
<path d="M44.4444 24.6043L40.1227 28.049C39.5822 28.4786 38.9088 28.7061 38.2186 28.6923C37.0881 28.6769 35.9656 28.4997 34.8853 28.1663C34.2537 27.9663 33.5837 27.9186 32.9301 28.0272C32.2766 28.1359 31.658 28.3977 31.1251 28.7913C30.6481 28.5245 30.1029 28.4047 29.558 28.447C27.4967 28.6268 25.4235 28.6258 23.3623 28.444C22.9914 28.4073 22.6372 28.2712 22.3373 28.05L16.2816 23.5839C16.2299 23.5457 16.1711 23.5181 16.1087 23.5026C16.0463 23.4872 15.9815 23.4842 15.9179 23.4938C15.8543 23.5034 15.7933 23.5254 15.7382 23.5586C15.6831 23.5918 15.6352 23.6355 15.597 23.6873C15.5588 23.739 15.5312 23.7978 15.5158 23.8602C15.5003 23.9226 15.4973 23.9874 15.5069 24.051C15.5165 24.1146 15.5385 24.1756 15.5717 24.2307C15.6049 24.2858 15.6487 24.3337 15.7004 24.3719L21.7552 28.8382C22.1973 29.1641 22.7192 29.3647 23.2658 29.4185C25.3851 29.606 27.5169 29.6076 29.6365 29.4232C29.8837 29.4034 30.1323 29.4352 30.3666 29.5167C30.6008 29.5981 30.8155 29.7275 30.997 29.8964L34.7368 33.3886C34.8272 33.4721 34.8965 33.5759 34.939 33.6914C34.9815 33.8069 34.9961 33.9309 34.9814 34.0531C34.9676 34.1767 34.9247 34.2953 34.8561 34.3991C34.7876 34.5029 34.6955 34.5891 34.5873 34.6504C33.3301 35.3727 31.3529 35.755 29.0735 33.4748C29.0245 33.4264 28.966 33.3887 28.9016 33.3643C28.8371 33.3399 28.7683 33.3294 28.6996 33.3333C28.6308 33.3372 28.5636 33.3555 28.5024 33.387C28.4411 33.4185 28.3872 33.4625 28.344 33.5162C28.2699 33.6084 26.4876 35.7538 23.0852 33.9201C23.0285 33.8887 22.9662 33.8689 22.9019 33.8617C22.8375 33.8546 22.7723 33.8603 22.7102 33.8785C22.648 33.8968 22.5901 33.9271 22.5398 33.9679C22.4894 34.0087 22.4477 34.059 22.417 34.116C22.3862 34.1731 22.3671 34.2356 22.3607 34.3C22.3543 34.3645 22.3608 34.4296 22.3797 34.4915C22.3987 34.5535 22.4297 34.611 22.4711 34.6609C22.5124 34.7107 22.5632 34.7519 22.6206 34.782C23.1194 35.055 23.6474 35.2708 24.1947 35.4252C22.3696 37.3436 20.6599 39.3685 19.0745 41.4893L17.3522 39.884C16.9751 39.5312 16.7259 39.0631 16.644 38.5532C16.5164 37.7473 16.094 37.0174 15.4587 36.5053L10.6069 32.593C10.5056 32.5137 10.3771 32.4774 10.2493 32.492C10.1214 32.5067 10.0045 32.571 9.92371 32.6712C9.84293 32.7713 9.80482 32.8993 9.81761 33.0273C9.8304 33.1553 9.89307 33.2732 9.99207 33.3554L14.8433 37.2675C15.2902 37.6275 15.5874 38.1407 15.6771 38.7075C15.7937 39.4328 16.1481 40.0988 16.6847 40.6006L18.4965 42.2896C18.4309 42.3825 18.3647 42.4755 18.3005 42.5679C17.9646 43.0499 17.8156 43.6377 17.8815 44.2215C17.9473 44.8053 18.2234 45.3451 18.6582 45.7402C21.4426 48.241 24.4802 50.4445 27.7217 52.3151C28.0934 52.5264 28.5108 52.6445 28.9381 52.6592H28.9548C29.0831 52.659 29.2063 52.6085 29.2978 52.5184C29.3892 52.4283 29.4417 52.306 29.4438 52.1776C29.4459 52.0493 29.3975 51.9252 29.309 51.8322C29.2206 51.7392 29.0991 51.6846 28.9709 51.6802C28.7023 51.6709 28.44 51.5967 28.2064 51.464C25.0259 49.6282 22.0455 47.466 19.3134 45.0122C19.0554 44.7769 18.8919 44.4557 18.8533 44.1086C18.8148 43.7615 18.9039 43.4123 19.104 43.1261C20.738 40.7769 22.8417 38.2528 25.3563 35.6232C26.5852 35.7075 27.7979 35.3044 28.7318 34.5013C30.1423 35.779 31.4684 36.188 32.5884 36.1878C33.4631 36.179 34.3203 35.9415 35.0749 35.499C35.3152 35.3616 35.5199 35.1696 35.6725 34.9386C35.8251 34.7076 35.9213 34.444 35.9534 34.1691C35.9855 33.8941 35.9526 33.6154 35.8573 33.3555C35.762 33.0955 35.607 32.8616 35.4048 32.6725L31.931 29.4288C32.3237 29.1859 32.7642 29.0307 33.2224 28.9736C33.6806 28.9166 34.1458 28.9591 34.586 29.0984C35.7572 29.4608 36.9743 29.6537 38.2001 29.6711C39.118 29.6876 40.013 29.3847 40.7323 28.8143L45.0538 25.3696C45.1554 25.2887 45.2206 25.1707 45.2352 25.0417C45.2498 24.9127 45.2125 24.7831 45.1315 24.6816C45.0506 24.58 44.9327 24.5148 44.8036 24.5002C44.6746 24.4856 44.5451 24.5229 44.4435 24.6039L44.4444 24.6043Z" fill="#3C3C4F"/>
<path d="M27.6845 7.74892C27.3878 7.48049 27.0275 7.29213 26.6377 7.20163C26.2479 7.11113 25.8415 7.12147 25.4568 7.23168C25.0722 7.34189 24.7219 7.54833 24.4392 7.83151C24.1565 8.11468 23.9506 8.46525 23.841 8.8501C23.759 9.15847 23.7216 9.477 23.7299 9.79598C23.7485 10.8349 24.3461 11.5466 25.3695 11.7493C25.5516 11.7853 25.7367 11.8034 25.9222 11.8034C26.493 11.8045 27.0506 11.6322 27.5212 11.3093C28.3373 10.7445 28.644 9.90666 28.3845 8.95033C28.27 8.49152 28.0272 8.0748 27.6845 7.74892ZM26.9645 10.5044C26.7611 10.6428 26.5321 10.7392 26.2909 10.788C26.0498 10.8367 25.8013 10.8369 25.5601 10.7885C24.9823 10.6741 24.72 10.3625 24.7095 9.77819C24.7029 9.55288 24.7285 9.32778 24.7856 9.10972C24.8487 8.88478 24.9691 8.68006 25.135 8.51557C25.301 8.35109 25.5067 8.23248 25.7322 8.17132C25.8581 8.13525 25.9884 8.11686 26.1193 8.11669C26.453 8.1153 26.7747 8.24058 27.0196 8.46723C27.2268 8.66908 27.3726 8.92553 27.44 9.20685C27.5907 9.76309 27.4396 10.1753 26.9645 10.5044Z" fill="#3C3C4F"/>
<path d="M22.9236 24.755C22.9236 24.7598 22.9236 24.7646 22.9243 24.7691C22.9677 25.4114 23.4069 26.7004 24.7587 26.981C24.9651 27.025 25.1756 27.0477 25.3867 27.0486C25.6929 27.0538 25.997 26.9966 26.2803 26.8805C26.5637 26.7645 26.8205 26.592 27.0351 26.3735C27.383 26.0173 27.6163 25.565 27.7047 25.0749C27.7932 24.5849 27.733 24.0796 27.5316 23.6241C27.5165 23.5928 27.5091 23.5583 27.5099 23.5236C27.5107 23.4888 27.5197 23.4547 27.5363 23.4241L27.5542 23.3939C27.6839 23.1727 27.7301 22.9124 27.6846 22.6601C27.6391 22.4078 27.5048 22.1801 27.306 22.0181L27.1753 21.9125C26.9948 21.7678 26.7723 21.6853 26.5411 21.6774C26.3098 21.6695 26.0822 21.7365 25.8922 21.8685L25.5251 22.1254C25.494 22.1478 25.4569 22.1603 25.4187 22.1616C24.9669 22.1706 24.1212 22.2801 23.526 22.9111C23.0971 23.3651 22.8946 23.9863 22.9236 24.755ZM24.2379 23.5832C24.601 23.1984 25.1979 23.1456 25.4379 23.1408C25.6701 23.1357 25.8957 23.0617 26.0857 22.928L26.4528 22.6709C26.4686 22.66 26.4876 22.6544 26.5069 22.6551C26.5262 22.6558 26.5447 22.6627 26.5598 22.6747L26.6905 22.7802C26.7071 22.7938 26.7183 22.8129 26.722 22.8341C26.7257 22.8553 26.7217 22.8771 26.7107 22.8955L26.6929 22.9259C26.5985 23.0889 26.5437 23.2718 26.5328 23.4599C26.522 23.648 26.5554 23.836 26.6305 24.0088C26.7548 24.2853 26.7934 24.5927 26.7415 24.8913C26.6895 25.19 26.5493 25.4662 26.339 25.6845C25.9931 26.0333 25.5412 26.144 24.9569 26.0233C24.0285 25.8306 23.9105 24.8092 23.901 24.7079C23.8849 24.2155 23.998 23.8372 24.2379 23.5831V23.5832Z" fill="#3C3C4F"/>
<path d="M39.3569 8.75497C38.7067 8.70719 38.0627 8.90796 37.5549 9.31671C37.283 9.52195 37.0673 9.79235 36.9275 10.103C36.7877 10.4136 36.7283 10.7544 36.755 11.094C36.765 11.2008 36.742 11.308 36.6892 11.4014C36.6365 11.4948 36.5564 11.5698 36.4598 11.6163L34.9683 12.3212C34.8096 12.3945 34.6347 12.4256 34.4606 12.4115C34.2864 12.3973 34.1188 12.3384 33.9741 12.2405C33.4343 11.8875 32.8362 11.633 32.2076 11.4887C31.4257 11.2912 30.6074 11.2885 29.8242 11.4808C29.0411 11.6731 28.3171 12.0545 27.7156 12.5916C25.0059 14.9351 26.145 18.3375 27.1259 19.8085L27.134 19.8202C27.6278 20.4587 28.2881 20.9486 29.0423 21.2361C29.7965 21.5235 30.6154 21.5974 31.4089 21.4496C31.5293 21.4262 31.6539 21.4385 31.7674 21.485C31.8809 21.5315 31.9784 21.6102 32.0477 21.7113L32.851 22.9254C32.9051 23.0118 32.9338 23.1115 32.9341 23.2133C32.9344 23.3152 32.9062 23.4151 32.8527 23.5017C32.558 24.0076 32.4511 24.6014 32.551 25.1783C32.5604 25.234 32.5718 25.2905 32.5851 25.3477C32.8709 26.5918 34.0684 26.9169 35.0079 26.9169C35.2324 26.9175 35.4565 26.8983 35.6775 26.8596C35.685 26.8583 35.6925 26.8568 35.6998 26.8551C35.7543 26.8425 37.041 26.5377 37.6287 25.5562C37.7789 25.3004 37.8739 25.0159 37.9076 24.7211C37.9413 24.4263 37.9129 24.1278 37.8243 23.8446C37.5642 22.891 36.8456 22.299 35.8009 22.1776C35.698 22.1632 35.6017 22.1182 35.5248 22.0483C35.4479 21.9784 35.3938 21.8869 35.3696 21.7858L34.9269 20.045V20.0434C34.9006 19.9393 34.9015 19.8302 34.9294 19.7265C34.9574 19.6228 35.0116 19.5281 35.0867 19.4513C35.5538 18.9996 35.9087 18.4449 36.1232 17.8315C36.3377 17.2181 36.4058 16.5631 36.322 15.9187C36.3019 15.7589 36.3211 15.5966 36.378 15.4459C36.4349 15.2952 36.5278 15.1607 36.6485 15.0541L38.1927 13.6747C38.2596 13.6154 38.3406 13.5742 38.4279 13.5551C38.5152 13.536 38.606 13.5397 38.6915 13.5657C39.0022 13.6617 39.3301 13.6884 39.6522 13.6441C39.9743 13.5999 40.2828 13.4856 40.556 13.3093C40.9948 13.0193 41.5443 12.4174 41.6733 11.1962C41.7439 10.5296 41.5985 9.97784 41.2426 9.55657C40.843 9.08476 40.1912 8.80763 39.3569 8.75497ZM40.698 11.0936C40.6275 11.7596 40.3917 12.2433 40.0148 12.4923C39.8624 12.5896 39.6906 12.6522 39.5114 12.676C39.3322 12.6997 39.15 12.6839 38.9775 12.6297C38.7309 12.5547 38.4691 12.5443 38.2172 12.5993C37.9654 12.6544 37.7319 12.7732 37.5391 12.9444L35.9948 14.324C35.755 14.5367 35.5709 14.8049 35.4585 15.1051C35.346 15.4053 35.3087 15.7284 35.3497 16.0463C35.4113 16.4997 35.3728 16.961 35.2369 17.3979C35.1009 17.8348 34.871 18.2366 34.5631 18.5751L34.5336 18.4551C34.5024 18.329 34.4225 18.2205 34.3113 18.1533C34.2002 18.0862 34.0669 18.066 33.9408 18.0971C33.8148 18.1282 33.7062 18.2082 33.6391 18.3193C33.572 18.4305 33.5518 18.5638 33.5829 18.6898L33.9758 20.2816V20.2829V20.285L34.4191 22.0282C34.4928 22.3212 34.6533 22.5851 34.8794 22.7855C35.1055 22.9859 35.3868 23.1133 35.6866 23.1513C36.6491 23.2631 36.8215 23.8954 36.8782 24.1033C36.9305 24.2587 36.9496 24.4233 36.9343 24.5866C36.9189 24.7498 36.8695 24.908 36.7892 25.051C36.4414 25.6359 35.5962 25.8709 35.4903 25.898C35.3338 25.9223 33.7698 26.138 33.5379 25.1286C33.529 25.09 33.5214 25.0519 33.515 25.0143C33.4541 24.6619 33.5195 24.2993 33.6996 23.9905C33.8446 23.7465 33.9183 23.4667 33.9124 23.183C33.9064 22.8993 33.8212 22.6229 33.6662 22.3851L32.8629 21.171C32.7161 20.9511 32.5171 20.7711 32.2837 20.6469C32.0503 20.5228 31.7898 20.4585 31.5254 20.4598C31.4285 20.4598 31.3319 20.4683 31.2365 20.4853C30.6265 20.6008 29.9966 20.5474 29.4146 20.3311C28.8327 20.1148 28.3208 19.7438 27.9343 19.2579C27.7858 19.0321 25.6493 15.6721 28.3546 13.3321C29.4003 12.4277 30.622 12.1285 31.9861 12.4426C32.5023 12.561 32.9935 12.77 33.4368 13.0599C33.7214 13.2501 34.0503 13.3635 34.3917 13.3891C34.733 13.4148 35.0752 13.3518 35.385 13.2063L36.8765 12.5014C37.1529 12.3709 37.3827 12.1591 37.5352 11.8943C37.6877 11.6295 37.7556 11.3243 37.7297 11.0199C37.7166 10.8373 37.7507 10.6544 37.8286 10.4888C37.9065 10.3232 38.0257 10.1803 38.1747 10.074C38.4909 9.82231 38.891 9.70032 39.2939 9.73276C39.6145 9.75295 40.1966 9.83907 40.4922 10.1889C40.6728 10.4011 40.7404 10.6971 40.6986 11.0936H40.698Z" fill="#3C3C4F"/>
</svg>
