<svg width="275" height="60" viewBox="0 0 275 60" fill="none" xmlns="http://www.w3.org/2000/svg">
<rect width="60" height="60" rx="5" fill="#E5E5E5"/>
<path d="M39.3266 9.24511C38.8001 9.20561 38.2782 9.36703 37.866 9.69688C37.6557 9.85281 37.4882 10.0595 37.3794 10.2976C37.2706 10.5358 37.2238 10.7976 37.2435 11.0587C37.2609 11.2643 37.2152 11.4703 37.1127 11.6493C37.0101 11.8284 36.8555 11.972 36.6694 12.061L35.1778 12.7651C34.9435 12.8739 34.6851 12.9207 34.4275 12.9009C34.1699 12.8811 33.9216 12.7955 33.7066 12.6521C33.2147 12.3309 32.6698 12.0992 32.0972 11.9676C30.889 11.6892 29.4166 11.7692 28.0354 12.9636C24.937 15.6434 27.5337 19.5387 27.5337 19.5387C27.9754 20.0996 28.5618 20.5293 29.2297 20.7814C29.8977 21.0335 30.6217 21.0984 31.3239 20.9693C31.5383 20.9288 31.7599 20.9521 31.9612 21.0363C32.1625 21.1204 32.3346 21.2618 32.4564 21.4429L33.2598 22.657C33.3641 22.8191 33.4211 23.0072 33.4241 23.1999C33.4272 23.3926 33.3764 23.5824 33.2773 23.7478C33.0405 24.1555 32.9545 24.6334 33.0342 25.0981C33.0421 25.1452 33.0515 25.1922 33.0625 25.2393C33.4154 26.7727 35.5906 26.379 35.5906 26.379C35.5906 26.379 37.8654 25.8575 37.3521 23.9752C37.088 23.0064 36.3143 22.7319 35.7447 22.6656C35.5432 22.6399 35.3541 22.5538 35.2025 22.4186C35.0509 22.2834 34.9438 22.1055 34.8952 21.9082L34.4521 20.165C34.4046 19.9791 34.4061 19.784 34.4562 19.5988C34.5063 19.4136 34.6034 19.2445 34.7381 19.1078C35.8635 17.9697 35.9347 16.735 35.836 15.9833C35.8056 15.7445 35.8339 15.5018 35.9186 15.2764C36.0033 15.051 36.1417 14.8496 36.3218 14.6899L37.8661 13.3103C37.9957 13.1946 38.1529 13.1143 38.3226 13.0772C38.4923 13.0401 38.6687 13.0474 38.8347 13.0985C39.6959 13.3631 40.9902 13.0038 41.1859 11.1456C41.347 9.61711 40.1221 9.29523 39.3266 9.24511Z" fill="#F74F73"/>
<path d="M15.9915 23.979L35.407 38.2995L24.4375 47.1581L17.0191 40.2431C16.5615 39.8164 16.2594 39.2491 16.1611 38.6311C16.0519 37.945 15.6921 37.3237 15.1512 36.8876L10.3 32.9752C10.3 32.9752 11.1722 27.6509 15.9915 23.979Z" fill="#F7AFA6"/>
<path d="M28.3604 43.9906L29.9293 41.017L30.9675 36.3291L24.2122 33.958C21.9707 36.2095 19.9207 38.6438 18.0834 41.2357L24.4364 47.1583L28.3604 43.9906Z" fill="#D3716E"/>
<path d="M27.3527 8.10929C27.1177 7.89799 26.8328 7.74991 26.5248 7.67895C26.2168 7.60799 25.8958 7.61648 25.592 7.70363C25.2882 7.79077 25.0115 7.95371 24.788 8.17714C24.5644 8.40057 24.4014 8.67715 24.3141 8.98091C24.2442 9.24414 24.2126 9.51606 24.2203 9.7883C24.2384 10.7974 24.8813 11.1545 25.4655 11.2707C25.7711 11.3321 26.086 11.3317 26.3915 11.2695C26.697 11.2074 26.9869 11.0848 27.2443 10.9088C27.7167 10.5819 28.1666 10.0133 27.9136 9.08058C27.8232 8.70993 27.6285 8.3729 27.3527 8.10929Z" fill="#F74F73"/>
<path d="M19.1011 15.6585C19.1011 15.6585 18.0664 16.7303 18.7622 17.9152C19.2154 18.687 19.8085 18.9299 20.3407 18.9539C20.7408 18.9669 21.1357 18.8604 21.475 18.6479C21.8143 18.4354 22.0825 18.1266 22.2453 17.7609C22.2904 17.6589 22.359 17.569 22.4455 17.4985C22.5319 17.428 22.6338 17.379 22.7428 17.3553L22.7781 17.3483C22.9144 17.3205 23.0361 17.2446 23.121 17.1344C23.2058 17.0243 23.2482 16.8872 23.2404 16.7484L23.2309 16.5806C23.2237 16.4553 23.1761 16.3358 23.0952 16.24C23.0142 16.1442 22.9044 16.0773 22.7821 16.0493L22.3444 15.9494C22.2124 15.9197 22.0921 15.8515 21.999 15.7533C21.6212 15.3516 20.4437 14.347 19.1011 15.6585Z" fill="#B21F42"/>
<path d="M33.017 14.3231C32.7945 14.2075 32.5361 14.1821 32.2954 14.2523C32.0547 14.3224 31.8504 14.4826 31.7248 14.6996C31.5612 14.9963 31.5 15.3387 31.5509 15.6737C31.6592 16.54 32.4015 16.797 32.7808 16.8723C32.9399 16.9054 33.1048 16.8976 33.2601 16.8497C33.5728 16.7509 34.0593 16.4685 34.0593 15.6737C34.0592 14.9898 33.4906 14.5615 33.017 14.3231Z" fill="#B21F42"/>
<path d="M28.6428 15.0586C28.7314 14.9954 28.8336 14.9539 28.9412 14.9373C29.0488 14.9208 29.1588 14.9296 29.2624 14.9632C29.3659 14.9967 29.4602 15.0541 29.5376 15.1306C29.615 15.2072 29.6734 15.3008 29.7081 15.4039C29.7691 15.6167 29.7813 15.8405 29.7435 16.0586C29.7281 16.2698 29.6412 16.4694 29.4973 16.6248C29.3534 16.7801 29.1609 16.8819 28.9515 16.9134C28.7935 16.9422 28.6303 16.9153 28.4899 16.8371C28.3496 16.759 28.2407 16.6346 28.1818 16.4851C28.0295 16.1026 27.9771 15.5351 28.6428 15.0586Z" fill="#B21F42"/>
<path d="M30.4842 19.1056C30.7778 19.1056 31.0159 18.8675 31.0159 18.5739C31.0159 18.2803 30.7778 18.0422 30.4842 18.0422C30.1906 18.0422 29.9525 18.2803 29.9525 18.5739C29.9525 18.8675 30.1906 19.1056 30.4842 19.1056Z" fill="#B21F42"/>
<path d="M28.584 35.3307C28.584 35.3307 30.588 36.7909 32.722 36.3189L26.1917 31.5024L22.5881 34.2808C22.5881 34.2808 24.8816 37.9001 28.584 35.3307Z" fill="#D3716E"/>
<path d="M49.7008 34.4948C49.7008 34.4948 46.2527 37.6656 44.449 39.5297C43.8403 40.1587 43.218 40.7797 42.5893 41.3893L30.0959 51.8866C29.7718 52.0728 29.4047 52.1711 29.0309 52.1718C28.6571 52.1725 28.2896 52.0756 27.9648 51.8906C24.7528 50.0388 21.7435 47.8559 18.986 45.3775C18.6388 45.0629 18.4184 44.6322 18.3662 44.1665C18.314 43.7008 18.4336 43.2321 18.7025 42.8484C20.4081 40.3961 22.4413 38.0109 24.4304 35.8905C24.4304 35.8905 29.5127 30.8387 31.133 29.4119C31.6151 28.982 32.2005 28.6843 32.8319 28.548C33.4634 28.4117 34.1194 28.4413 34.7359 28.634C35.8616 28.9828 37.0315 29.1678 38.2099 29.1833C39.014 29.1991 39.7985 28.9338 40.428 28.4332L44.7497 24.9885C44.7497 24.9885 47.9838 28.1788 49.7008 34.4948Z" fill="#FFD0CA"/>
<path d="M42.0304 40.6128C41.7198 40.1915 41.3014 39.8617 40.8192 39.6581C40.3371 39.4545 39.8089 39.3846 39.2904 39.4558C38.7719 39.527 38.2821 39.7366 37.8726 40.0626C37.4632 40.3886 37.1491 40.8189 36.9636 41.3083C36.5169 41.2466 36.062 41.2845 35.6317 41.4194C35.2014 41.5543 34.8063 41.7829 34.4749 42.0886C34.1434 42.3943 33.8837 42.7697 33.7145 43.1877C33.5454 43.6057 33.4709 44.056 33.4964 44.5063C32.8864 44.6553 32.3422 45.0007 31.9478 45.4893C31.5533 45.978 31.3305 46.5828 31.3135 47.2105C30.8701 47.334 30.4612 47.5583 30.1188 47.8658C29.6055 48.3334 29.2915 48.9802 29.2416 49.6726C29.1917 50.3651 29.4097 51.0503 29.8505 51.5866L30.0957 51.8853C30.1686 51.8439 30.2389 51.7983 30.3064 51.7486C32.5361 50.0905 37.7493 46.0814 42.5887 41.3887C42.3977 41.1183 42.2107 40.8578 42.0304 40.6128Z" fill="#E5837C"/>
<path d="M23.4135 24.7377C23.4135 24.7377 23.5138 26.224 24.8586 26.5033C25.735 26.6852 26.3127 26.4085 26.6881 26.0302C26.9663 25.7423 27.1524 25.3781 27.2225 24.984C27.2927 24.5899 27.2438 24.1838 27.082 23.8177C27.0367 23.7157 27.0161 23.6045 27.0218 23.4931C27.0276 23.3817 27.0597 23.2733 27.1153 23.1766L27.1337 23.1457C27.2045 23.026 27.2299 22.8848 27.2053 22.748C27.1806 22.6111 27.1075 22.4877 26.9993 22.4004L26.8684 22.2948C26.7708 22.216 26.6502 22.1711 26.5249 22.1668C26.3995 22.1625 26.2762 22.1991 26.1734 22.2709L25.8063 22.5279C25.6957 22.6058 25.5644 22.6492 25.4291 22.6524C24.8775 22.6634 23.3424 22.8622 23.4135 24.7377Z" fill="#F74F73"/>
<path d="M25.7646 39.562C23.5199 41.715 20.7502 45.1503 19.9199 46.1965C20.1529 46.396 20.4028 46.6061 20.6699 46.8267C21.4623 45.827 24.2206 42.3991 26.4421 40.2688C26.5339 40.1784 26.5864 40.0556 26.5883 39.9269C26.5902 39.7982 26.5412 39.6739 26.4521 39.5809C26.363 39.488 26.2409 39.4339 26.1122 39.4304C25.9835 39.4268 25.8586 39.4741 25.7645 39.562H25.7646Z" fill="#E5837C"/>
<path d="M27.8649 42.0591C26.2603 43.7315 23.4771 47.2329 22.599 48.3474C22.8531 48.5388 23.1159 48.7329 23.3873 48.9296C24.2767 47.8021 27.0297 44.3443 28.5715 42.737C28.6557 42.6424 28.7 42.5188 28.695 42.3923C28.69 42.2657 28.6362 42.146 28.5448 42.0583C28.4535 41.9706 28.3317 41.9217 28.205 41.9219C28.0783 41.9221 27.9567 41.9714 27.8656 42.0594L27.8649 42.0591Z" fill="#E5837C"/>
<path d="M26.0853 50.76C26.7617 49.9193 28.7593 47.4596 30.2372 45.878C30.3246 45.7829 30.3708 45.6572 30.3659 45.5281C30.361 45.399 30.3053 45.2771 30.2109 45.189C30.1165 45.1008 29.9912 45.0535 29.8621 45.0573C29.733 45.0612 29.6106 45.1159 29.5217 45.2096C27.9738 46.866 25.8728 49.4608 25.2589 50.2253C25.5291 50.4037 25.8045 50.582 26.0853 50.76Z" fill="#E5837C"/>
<path d="M28.5841 35.3308C28.5841 35.3308 32.1482 37.9285 34.8318 35.0767L28.9693 31.3745C27.6159 32.6375 26.0381 34.1771 24.4307 35.8906C25.4541 36.3827 26.8671 36.5224 28.5841 35.3308Z" fill="#E5837C"/>
<path d="M22.5881 28.8452C22.5881 28.8452 25.3008 29.2829 29.5973 28.9364C29.9123 28.911 30.2292 28.9515 30.5277 29.0554C30.8263 29.1593 31.0999 29.3243 31.331 29.5398L35.0711 33.0322C35.2173 33.1691 35.3293 33.3383 35.3981 33.5264C35.4669 33.7144 35.4906 33.916 35.4673 34.1149C35.4439 34.3138 35.3742 34.5044 35.2637 34.6714C35.1532 34.8384 35.005 34.9771 34.8311 35.0763C33.496 35.8433 31.265 36.361 28.727 33.8225C28.727 33.8225 26.4205 36.3463 22.5878 34.2809L22.5881 28.8452Z" fill="#F7AFA6"/>
<path d="M39.9543 45.7647L41.8676 43.8883C42.0499 43.7098 42.1632 43.4726 42.1875 43.2186C42.2118 42.9646 42.1456 42.7102 42.0005 42.5003C41.7605 42.1527 41.4549 41.7193 41.1289 41.2758C40.9823 41.0762 40.7958 40.9091 40.5812 40.7853C40.3667 40.6615 40.1287 40.5836 39.8824 40.5566C39.6362 40.5295 39.387 40.554 39.1507 40.6283C38.9144 40.7027 38.6961 40.8253 38.5097 40.9884C38.1752 41.2813 37.9619 41.6883 37.9114 42.13C37.8609 42.5717 37.9768 43.0164 38.2365 43.3773L39.9543 45.7647Z" fill="#F7AFA6"/>
<path d="M39.9542 45.7645L38.2363 43.3771L38.1046 43.1951C37.9527 42.9853 37.76 42.8082 37.538 42.6746C37.3161 42.5409 37.0695 42.4533 36.813 42.4171C36.5564 42.3809 36.2952 42.3968 36.045 42.4638C35.7947 42.5308 35.5606 42.6476 35.3565 42.8072C34.9605 43.1166 34.701 43.5685 34.6334 44.0664C34.5658 44.5644 34.6954 45.0691 34.9946 45.4729L37.1264 48.3515C37.1264 48.3515 38.7629 46.9329 39.9542 45.7645Z" fill="#F7AFA6"/>
<path d="M37.1264 48.351L35.5875 46.2578C35.4418 46.0596 35.256 45.8944 35.0422 45.7728C34.8283 45.6513 34.5913 45.5762 34.3464 45.5524C34.1016 45.5286 33.8545 45.5567 33.6213 45.6348C33.388 45.7129 33.1739 45.8393 32.9927 46.0057C32.6708 46.3017 32.4714 46.7076 32.4337 47.1433C32.396 47.579 32.5228 48.013 32.789 48.3599L34.6164 50.7388L37.1264 48.351Z" fill="#F7AFA6"/>
<path d="M34.6896 50.6695L33.2047 48.8998C33.0707 48.7253 32.9019 48.5805 32.7091 48.4746C32.5162 48.3687 32.3035 48.304 32.0843 48.2845C31.8652 48.2651 31.6443 48.2914 31.4359 48.3617C31.2274 48.432 31.0358 48.5448 30.8731 48.693C30.5721 48.9674 30.3878 49.347 30.3585 49.7533C30.3292 50.1596 30.4569 50.5617 30.7154 50.8766L31.6214 51.9797C31.7157 52.0945 31.8327 52.1887 31.965 52.2564C32.0973 52.324 32.2422 52.3638 32.3905 52.373C32.5388 52.3823 32.6874 52.3609 32.8271 52.3103C32.9669 52.2596 33.0946 52.1807 33.2026 52.0785L34.6896 50.6695Z" fill="#F7AFA6"/>
<path d="M32.3681 47.1428C32.2846 47.0434 32.165 46.9811 32.0357 46.9699C31.9063 46.9586 31.7778 46.9992 31.6783 47.0827C31.5789 47.1662 31.5167 47.2857 31.5054 47.4151C31.4941 47.5445 31.5347 47.673 31.6182 47.7724L34.334 51.0071L35.0454 50.3316L32.3681 47.1428Z" fill="#E5837C"/>
<path d="M37.4964 48.0273L34.4752 43.9162C34.3978 43.8128 34.2828 43.7442 34.1551 43.7253C34.0274 43.7063 33.8973 43.7386 33.7933 43.815C33.6893 43.8915 33.6196 44.0059 33.5996 44.1335C33.5795 44.261 33.6106 44.3913 33.6862 44.496L36.7687 48.6916L37.4964 48.0273Z" fill="#E5837C"/>
<path d="M40.3078 45.4175L37.616 41.6763C37.5787 41.6235 37.5313 41.5786 37.4765 41.5442C37.4217 41.5098 37.3607 41.4866 37.297 41.476C37.2332 41.4653 37.1679 41.4673 37.105 41.482C37.042 41.4967 36.9825 41.5237 36.9301 41.5615C36.8776 41.5993 36.8331 41.6471 36.7992 41.7021C36.7653 41.7572 36.7426 41.8184 36.7325 41.8823C36.7224 41.9461 36.7251 42.0114 36.7403 42.0742C36.7555 42.137 36.783 42.1962 36.8213 42.2484L39.5972 46.1093C39.8325 45.8867 40.069 45.6564 40.3065 45.4185L40.3078 45.4175Z" fill="#E5837C"/>
<path d="M44.7999 39.8683C46.5732 38.0358 49.9973 34.8847 50.0316 34.8533C50.0814 34.8104 50.1221 34.758 50.1512 34.6991C50.1804 34.6402 50.1973 34.5761 50.2012 34.5105C50.205 34.445 50.1956 34.3793 50.1735 34.3174C50.1514 34.2555 50.1171 34.1988 50.0726 34.1504C50.0281 34.1021 49.9743 34.0632 49.9145 34.0361C49.8547 34.009 49.79 33.9942 49.7243 33.9926C49.6587 33.991 49.5933 34.0026 49.5323 34.0268C49.4712 34.0509 49.4156 34.0871 49.3688 34.1332C49.3342 34.165 45.8895 37.3351 44.0963 39.1874C43.3922 39.9149 42.634 40.6665 41.8422 41.4249C41.7341 41.2741 41.6269 41.126 41.5226 40.984C41.2511 40.6153 40.8749 40.3368 40.443 40.1849C40.011 40.0329 39.5433 40.0145 39.1008 40.1321C38.6582 40.2497 38.2613 40.4977 37.9617 40.844C37.6621 41.1903 37.4737 41.6187 37.421 42.0736C37.2471 42.0054 37.0658 41.9574 36.8809 41.9307C36.476 41.8736 36.0633 41.92 35.6814 42.0657C35.2994 42.2115 34.9606 42.4517 34.6967 42.764C34.4328 43.0762 34.2524 43.4503 34.1724 43.8513C34.0924 44.2522 34.1155 44.6669 34.2393 45.0565C33.8978 45.0463 33.5585 45.1145 33.2474 45.2559C32.9364 45.3973 32.6619 45.608 32.4449 45.872C32.228 46.136 32.0744 46.4461 31.996 46.7787C31.9176 47.1112 31.9164 47.4573 31.9925 47.7904C31.5945 47.78 31.2019 47.8843 30.8615 48.0909C30.5211 48.2974 30.2473 48.5975 30.0727 48.9554C29.898 49.3132 29.83 49.7137 29.8767 50.1091C29.9233 50.5045 30.0827 50.8782 30.3358 51.1855L31.2417 52.2887C31.3789 52.4553 31.5488 52.592 31.741 52.6903C31.9331 52.7886 32.1433 52.8464 32.3587 52.8602C32.3912 52.8621 32.4236 52.8631 32.456 52.8631C32.8585 52.8628 33.2457 52.7087 33.5384 52.4324L42.2096 44.236C42.4726 43.9791 42.6369 43.638 42.6739 43.2723C42.7109 42.9065 42.6182 42.5394 42.412 42.2351C43.2519 41.4332 44.0555 40.6378 44.7999 39.8683ZM35.6574 43.191C35.9086 42.9931 36.2191 42.8855 36.5389 42.8856C36.6075 42.8856 36.676 42.8903 36.7439 42.8997C36.9355 42.9261 37.1197 42.9911 37.2853 43.0909C37.451 43.1907 37.5946 43.3231 37.7075 43.4801L39.2668 45.646L39.3091 45.7051C38.5552 46.427 37.6948 47.1959 37.204 47.629L35.9819 45.9671C35.9437 45.9151 35.9022 45.8664 35.86 45.8184L35.3875 45.1803C35.1623 44.8798 35.0643 44.5026 35.1148 44.1305C35.1653 43.7583 35.3602 43.4209 35.6574 43.1913V43.191ZM33.3241 46.3642C33.5546 46.1499 33.8579 46.031 34.1727 46.0316C34.215 46.0316 34.2567 46.0336 34.2997 46.0377C34.6032 46.0657 34.8858 46.2043 35.0937 46.427L36.4754 48.2928L34.6727 50.0077L33.1775 48.0603C32.9842 47.811 32.8919 47.498 32.919 47.1837C32.9462 46.8694 33.0908 46.5769 33.3241 46.3645V46.3642ZM32.8648 51.7213C32.8057 51.7773 32.7357 51.8206 32.6591 51.8484C32.5826 51.8762 32.5011 51.8879 32.4198 51.8828C32.3385 51.8777 32.2592 51.8559 32.1867 51.8188C32.1142 51.7817 32.0501 51.7301 31.9984 51.6671L31.0925 50.5639C30.9136 50.3461 30.8252 50.068 30.8455 49.7869C30.8658 49.5057 30.9933 49.2432 31.2016 49.0533C31.4027 48.8683 31.6661 48.7658 31.9394 48.7662C31.9726 48.7662 32.0062 48.7677 32.0398 48.7707C32.1916 48.7835 32.3391 48.8279 32.4726 48.9013C32.6061 48.9746 32.7228 49.0752 32.815 49.1965L33.9585 50.6858L32.8648 51.7213ZM41.5239 43.5369L40.018 45.0141L38.633 43.0895C38.4938 42.8959 38.4105 42.6677 38.3924 42.43C38.3743 42.1922 38.4221 41.9541 38.5305 41.7417C38.6388 41.5293 38.8036 41.3508 39.0067 41.2259C39.2098 41.101 39.4434 41.0344 39.6818 41.0335C39.7303 41.0336 39.7787 41.0362 39.8269 41.0414C40.0062 41.0602 40.1796 41.1163 40.3357 41.2063C40.4919 41.2963 40.6275 41.4181 40.7336 41.5638C41.0086 41.9379 41.2993 42.3461 41.5972 42.7766C41.6769 42.8916 41.7133 43.0311 41.6999 43.1703C41.6865 43.3096 41.6241 43.4395 41.5239 43.5372V43.5369Z" fill="#3C3C4F"/>
<path d="M44.4444 24.6038L40.1227 28.0485C39.5822 28.4781 38.9088 28.7056 38.2186 28.6918C37.0881 28.6764 35.9656 28.4993 34.8853 28.1658C34.2537 27.9658 33.5837 27.9181 32.9301 28.0267C32.2766 28.1354 31.658 28.3972 31.1251 28.7908C30.6481 28.524 30.1029 28.4042 29.558 28.4465C27.4967 28.6263 25.4235 28.6254 23.3623 28.4435C22.9914 28.4068 22.6372 28.2707 22.3373 28.0495L16.2816 23.5834C16.2299 23.5452 16.1711 23.5176 16.1087 23.5022C16.0463 23.4867 15.9815 23.4837 15.9179 23.4933C15.8543 23.5029 15.7933 23.5249 15.7382 23.5581C15.6831 23.5913 15.6352 23.635 15.597 23.6868C15.5588 23.7385 15.5312 23.7973 15.5158 23.8597C15.5003 23.9221 15.4973 23.9869 15.5069 24.0505C15.5165 24.1141 15.5385 24.1752 15.5717 24.2302C15.6049 24.2853 15.6487 24.3333 15.7004 24.3714L21.7552 28.8377C22.1973 29.1637 22.7192 29.3642 23.2658 29.4181C25.3851 29.6055 27.5169 29.6071 29.6365 29.4227C29.8837 29.4029 30.1323 29.4347 30.3666 29.5162C30.6008 29.5976 30.8155 29.727 30.997 29.8959L34.7368 33.3881C34.8272 33.4716 34.8965 33.5754 34.939 33.6909C34.9815 33.8064 34.9961 33.9304 34.9814 34.0526C34.9676 34.1762 34.9247 34.2948 34.8561 34.3986C34.7876 34.5025 34.6955 34.5886 34.5873 34.6499C33.3301 35.3722 31.3529 35.7545 29.0735 33.4743C29.0245 33.4259 28.966 33.3882 28.9016 33.3638C28.8371 33.3395 28.7683 33.3289 28.6996 33.3328C28.6308 33.3367 28.5636 33.355 28.5024 33.3865C28.4411 33.418 28.3872 33.462 28.344 33.5157C28.2699 33.6079 26.4876 35.7533 23.0852 33.9196C23.0285 33.8882 22.9662 33.8684 22.9019 33.8612C22.8375 33.8541 22.7723 33.8598 22.7102 33.8781C22.648 33.8963 22.5901 33.9267 22.5398 33.9674C22.4894 34.0082 22.4477 34.0585 22.417 34.1155C22.3862 34.1726 22.3671 34.2351 22.3607 34.2996C22.3543 34.364 22.3608 34.4291 22.3797 34.491C22.3987 34.553 22.4297 34.6105 22.4711 34.6604C22.5124 34.7103 22.5632 34.7514 22.6206 34.7815C23.1194 35.0545 23.6474 35.2703 24.1947 35.4247C22.3696 37.3431 20.6599 39.368 19.0745 41.4888L17.3522 39.8835C16.9751 39.5307 16.7259 39.0626 16.644 38.5527C16.5164 37.7468 16.094 37.017 15.4587 36.5048L10.6069 32.5925C10.5056 32.5132 10.3771 32.4769 10.2493 32.4915C10.1214 32.5062 10.0045 32.5705 9.92371 32.6707C9.84293 32.7708 9.80482 32.8988 9.81761 33.0268C9.8304 33.1548 9.89307 33.2727 9.99207 33.3549L14.8433 37.267C15.2902 37.627 15.5874 38.1402 15.6771 38.707C15.7937 39.4324 16.1481 40.0983 16.6847 40.6001L18.4965 42.2891C18.4309 42.382 18.3647 42.475 18.3005 42.5674C17.9646 43.0494 17.8156 43.6372 17.8815 44.221C17.9473 44.8048 18.2234 45.3446 18.6582 45.7398C21.4426 48.2405 24.4802 50.4441 27.7217 52.3146C28.0934 52.5259 28.5108 52.644 28.9381 52.6587H28.9548C29.0831 52.6585 29.2063 52.608 29.2978 52.5179C29.3892 52.4279 29.4417 52.3055 29.4438 52.1771C29.4459 52.0488 29.3975 51.9247 29.309 51.8317C29.2206 51.7387 29.0991 51.6841 28.9709 51.6798C28.7023 51.6705 28.44 51.5962 28.2064 51.4635C25.0259 49.6277 22.0455 47.4655 19.3134 45.0117C19.0554 44.7764 18.8919 44.4552 18.8533 44.1081C18.8148 43.761 18.9039 43.4118 19.104 43.1256C20.738 40.7764 22.8417 38.2523 25.3563 35.6228C26.5852 35.707 27.7979 35.3039 28.7318 34.5008C30.1423 35.7785 31.4684 36.1875 32.5884 36.1873C33.4631 36.1785 34.3203 35.941 35.0749 35.4985C35.3152 35.3611 35.5199 35.1691 35.6725 34.9381C35.8251 34.7071 35.9213 34.4435 35.9534 34.1686C35.9855 33.8936 35.9526 33.6149 35.8573 33.355C35.762 33.095 35.607 32.8611 35.4048 32.672L31.931 29.4284C32.3237 29.1855 32.7642 29.0302 33.2224 28.9731C33.6806 28.9161 34.1458 28.9586 34.586 29.0979C35.7572 29.4603 36.9743 29.6532 38.2001 29.6706C39.118 29.6871 40.013 29.3842 40.7323 28.8138L45.0538 25.3691C45.1554 25.2882 45.2206 25.1702 45.2352 25.0412C45.2498 24.9122 45.2125 24.7826 45.1315 24.6811C45.0506 24.5795 44.9327 24.5143 44.8036 24.4997C44.6746 24.4852 44.5451 24.5224 44.4435 24.6034L44.4444 24.6038Z" fill="#3C3C4F"/>
<path d="M27.6846 7.74868C27.3878 7.48025 27.0276 7.29189 26.6378 7.20139C26.248 7.11088 25.8416 7.12122 25.4569 7.23143C25.0722 7.34164 24.722 7.54808 24.4393 7.83126C24.1565 8.11444 23.9507 8.465 23.8411 8.84985C23.7591 9.15823 23.7216 9.47675 23.73 9.79574C23.7486 10.8347 24.3462 11.5463 25.3696 11.7491C25.5516 11.7851 25.7367 11.8032 25.9223 11.8031C26.493 11.8043 27.0507 11.632 27.5213 11.309C28.3374 10.7443 28.644 9.90642 28.3845 8.95009C28.2701 8.49127 28.0273 8.07455 27.6846 7.74868ZM26.9646 10.5042C26.7612 10.6425 26.5322 10.7389 26.291 10.7877C26.0499 10.8365 25.8014 10.8367 25.5602 10.7882C24.9823 10.6739 24.72 10.3623 24.7096 9.77795C24.7029 9.55264 24.7286 9.32753 24.7857 9.10948C24.8488 8.88453 24.9692 8.67981 25.1351 8.51533C25.301 8.35085 25.5068 8.23223 25.7323 8.17108C25.8581 8.135 25.9884 8.11661 26.1194 8.11644C26.453 8.11506 26.7748 8.24034 27.0197 8.46698C27.2269 8.66883 27.3727 8.92528 27.4401 9.20661C27.5907 9.76284 27.4397 10.1751 26.9646 10.5042Z" fill="#3C3C4F"/>
<path d="M22.9236 24.7545C22.9236 24.7593 22.9236 24.7641 22.9243 24.7686C22.9677 25.4109 23.4069 26.6999 24.7587 26.9805C24.9651 27.0245 25.1756 27.0472 25.3867 27.0482C25.6929 27.0533 25.997 26.9961 26.2803 26.8801C26.5637 26.764 26.8205 26.5915 27.0351 26.3731C27.383 26.0168 27.6163 25.5645 27.7047 25.0744C27.7932 24.5844 27.733 24.0791 27.5316 23.6237C27.5165 23.5923 27.5091 23.5578 27.5099 23.5231C27.5107 23.4883 27.5197 23.4542 27.5363 23.4236L27.5542 23.3934C27.6839 23.1722 27.7301 22.9119 27.6846 22.6596C27.6391 22.4073 27.5048 22.1796 27.306 22.0176L27.1753 21.912C26.9948 21.7673 26.7723 21.6848 26.5411 21.6769C26.3098 21.669 26.0822 21.736 25.8922 21.868L25.5251 22.1249C25.494 22.1473 25.4569 22.1598 25.4187 22.1611C24.9669 22.1701 24.1212 22.2797 23.526 22.9106C23.0971 23.3646 22.8946 23.9858 22.9236 24.7545ZM24.2379 23.5827C24.601 23.1979 25.1979 23.1451 25.4379 23.1403C25.6701 23.1352 25.8957 23.0612 26.0857 22.9275L26.4528 22.6704C26.4686 22.6595 26.4876 22.6539 26.5069 22.6546C26.5262 22.6553 26.5447 22.6622 26.5598 22.6742L26.6905 22.7797C26.7071 22.7933 26.7183 22.8124 26.722 22.8336C26.7257 22.8548 26.7217 22.8766 26.7107 22.895L26.6929 22.9254C26.5985 23.0884 26.5437 23.2714 26.5328 23.4594C26.522 23.6475 26.5554 23.8356 26.6305 24.0084C26.7548 24.2848 26.7934 24.5922 26.7415 24.8908C26.6895 25.1895 26.5493 25.4657 26.339 25.684C25.9931 26.0328 25.5412 26.1435 24.9569 26.0228C24.0285 25.8301 23.9105 24.8087 23.901 24.7075C23.8849 24.215 23.998 23.8367 24.2379 23.5826V23.5827Z" fill="#3C3C4F"/>
<path d="M39.3569 8.75473C38.7068 8.70695 38.0628 8.90772 37.555 9.31647C37.2831 9.52171 37.0673 9.79211 36.9275 10.1027C36.7877 10.4133 36.7284 10.7542 36.7551 11.0937C36.765 11.2005 36.7421 11.3078 36.6893 11.4012C36.6365 11.4945 36.5565 11.5695 36.4599 11.6161L34.9683 12.321C34.8097 12.3943 34.6348 12.4254 34.4606 12.4112C34.2865 12.3971 34.1189 12.3382 33.9742 12.2402C33.4344 11.8872 32.8363 11.6327 32.2076 11.4885C31.4258 11.291 30.6074 11.2883 29.8243 11.4805C29.0412 11.6728 28.3171 12.0542 27.7157 12.5913C25.0059 14.9349 26.1451 18.3372 27.126 19.8083L27.134 19.82C27.6278 20.4585 28.2882 20.9484 29.0424 21.2358C29.7966 21.5233 30.6155 21.5971 31.409 21.4493C31.5294 21.4259 31.654 21.4383 31.7675 21.4848C31.881 21.5313 31.9784 21.6099 32.0478 21.7111L32.8511 22.9252C32.9051 23.0115 32.9339 23.1112 32.9342 23.2131C32.9345 23.3149 32.9063 23.4148 32.8528 23.5015C32.558 24.0074 32.4512 24.6011 32.5511 25.1781C32.5605 25.2338 32.5719 25.2903 32.5851 25.3475C32.871 26.5915 34.0685 26.9167 35.008 26.9167C35.2324 26.9173 35.4565 26.8981 35.6776 26.8593C35.6851 26.8581 35.6926 26.8565 35.6999 26.8548C35.7544 26.8423 37.0411 26.5375 37.6288 25.556C37.779 25.3001 37.874 25.0157 37.9076 24.7209C37.9413 24.4261 37.9129 24.1275 37.8243 23.8444C37.5643 22.8907 36.8457 22.2988 35.801 22.1774C35.698 22.163 35.6018 22.1179 35.5249 22.0481C35.4479 21.9782 35.3938 21.8867 35.3697 21.7856L34.927 20.0448V20.0432C34.9006 19.9391 34.9015 19.83 34.9295 19.7263C34.9575 19.6226 35.0116 19.5278 35.0868 19.4511C35.5538 18.9993 35.9088 18.4446 36.1233 17.8312C36.3378 17.2179 36.4058 16.5628 36.3221 15.9184C36.3019 15.7586 36.3211 15.5963 36.378 15.4456C36.435 15.295 36.5278 15.1605 36.6486 15.0539L38.1928 13.6744C38.2597 13.6151 38.3406 13.5739 38.428 13.5549C38.5153 13.5358 38.6061 13.5394 38.6916 13.5655C39.0022 13.6614 39.3301 13.6882 39.6522 13.6439C39.9743 13.5996 40.2829 13.4853 40.5561 13.3091C40.9949 13.0191 41.5443 12.4171 41.6734 11.196C41.7439 10.5293 41.5985 9.9776 41.2426 9.55633C40.8431 9.08452 40.1913 8.80739 39.3569 8.75473ZM40.6981 11.0933C40.6275 11.7594 40.3918 12.2431 40.0148 12.4921C39.8624 12.5893 39.6906 12.652 39.5114 12.6757C39.3322 12.6995 39.15 12.6837 38.9776 12.6295C38.7309 12.5545 38.4692 12.544 38.2173 12.5991C37.9655 12.6542 37.732 12.773 37.5391 12.9441L35.9948 14.3237C35.7551 14.5365 35.571 14.8046 35.4585 15.1048C35.3461 15.405 35.3088 15.7282 35.3498 16.0461C35.4113 16.4994 35.3728 16.9608 35.2369 17.3977C35.101 17.8346 34.871 18.2364 34.5631 18.5748L34.5336 18.4548C34.5025 18.3288 34.4226 18.2202 34.3114 18.1531C34.2003 18.086 34.067 18.0657 33.9409 18.0969C33.8148 18.128 33.7063 18.2079 33.6392 18.3191C33.572 18.4303 33.5518 18.5635 33.583 18.6896L33.9759 20.2814V20.2826V20.2848L34.4191 22.028C34.4929 22.321 34.6533 22.5849 34.8795 22.7853C35.1056 22.9856 35.3869 23.1131 35.6866 23.1511C36.6492 23.2629 36.8215 23.8952 36.8783 24.103C36.9306 24.2584 36.9497 24.4231 36.9343 24.5863C36.919 24.7496 36.8695 24.9078 36.7892 25.0507C36.4415 25.6356 35.5963 25.8707 35.4904 25.8978C35.3338 25.9221 33.7699 26.1378 33.5379 25.1284C33.5291 25.0898 33.5215 25.0517 33.5151 25.014C33.4541 24.6617 33.5195 24.2991 33.6997 23.9902C33.8446 23.7462 33.9183 23.4665 33.9124 23.1828C33.9065 22.899 33.8212 22.6226 33.6663 22.3849L32.863 21.1708C32.7162 20.9509 32.5172 20.7708 32.2838 20.6467C32.0504 20.5226 31.7898 20.4583 31.5255 20.4595C31.4286 20.4595 31.3319 20.4681 31.2366 20.4851C30.6266 20.6005 29.9966 20.5472 29.4147 20.3309C28.8327 20.1146 28.3209 19.7435 27.9343 19.2577C27.7858 19.0318 25.6494 15.6718 28.3546 13.3318C29.4003 12.4274 30.6221 12.1283 31.9861 12.4424C32.5024 12.5608 32.9935 12.7698 33.4368 13.0596C33.7214 13.2498 34.0504 13.3632 34.3917 13.3889C34.7331 13.4145 35.0752 13.3515 35.3851 13.206L36.8766 12.5011C37.153 12.3707 37.3828 12.1589 37.5353 11.894C37.6878 11.6292 37.7556 11.3241 37.7297 11.0196C37.7167 10.837 37.7507 10.6542 37.8287 10.4886C37.9066 10.3229 38.0257 10.1801 38.1747 10.0737C38.491 9.82206 38.8911 9.70007 39.294 9.73252C39.6146 9.7527 40.1966 9.83882 40.4923 10.1887C40.6728 10.4008 40.7405 10.6969 40.6987 11.0933H40.6981Z" fill="#3C3C4F"/>
<path d="M84.786 28.2V38H83.764V33.478H77.632V38H76.596V28.2H77.632V32.568H83.764V28.2H84.786ZM89.1747 30.636H90.1687V38H89.1747V30.636ZM89.6787 29.026C89.4733 29.026 89.3007 28.956 89.1607 28.816C89.0207 28.676 88.9507 28.508 88.9507 28.312C88.9507 28.1253 89.0207 27.962 89.1607 27.822C89.3007 27.682 89.4733 27.612 89.6787 27.612C89.884 27.612 90.0567 27.682 90.1967 27.822C90.3367 27.9527 90.4067 28.1113 90.4067 28.298C90.4067 28.5033 90.3367 28.676 90.1967 28.816C90.0567 28.956 89.884 29.026 89.6787 29.026ZM98.0864 30.58C99.0104 30.58 99.7431 30.8507 100.284 31.392C100.835 31.924 101.11 32.7033 101.11 33.73V38H100.116V33.828C100.116 33.0627 99.9251 32.4793 99.5424 32.078C99.1598 31.6767 98.6138 31.476 97.9044 31.476C97.1111 31.476 96.4811 31.714 96.0144 32.19C95.5571 32.6567 95.3284 33.3053 95.3284 34.136V38H94.3344V30.636H95.2864V31.994C95.5571 31.546 95.9304 31.2007 96.4064 30.958C96.8918 30.706 97.4518 30.58 98.0864 30.58ZM111.956 27.612V38H111.004V36.544C110.706 37.0387 110.309 37.4167 109.814 37.678C109.329 37.9393 108.778 38.07 108.162 38.07C107.472 38.07 106.846 37.9113 106.286 37.594C105.726 37.2767 105.288 36.8333 104.97 36.264C104.653 35.6947 104.494 35.046 104.494 34.318C104.494 33.59 104.653 32.9413 104.97 32.372C105.288 31.8027 105.726 31.364 106.286 31.056C106.846 30.7387 107.472 30.58 108.162 30.58C108.76 30.58 109.296 30.706 109.772 30.958C110.258 31.2007 110.654 31.56 110.962 32.036V27.612H111.956ZM108.246 37.188C108.76 37.188 109.222 37.0713 109.632 36.838C110.052 36.5953 110.379 36.2547 110.612 35.816C110.855 35.3773 110.976 34.878 110.976 34.318C110.976 33.758 110.855 33.2587 110.612 32.82C110.379 32.3813 110.052 32.0453 109.632 31.812C109.222 31.5693 108.76 31.448 108.246 31.448C107.724 31.448 107.252 31.5693 106.832 31.812C106.422 32.0453 106.095 32.3813 105.852 32.82C105.619 33.2587 105.502 33.758 105.502 34.318C105.502 34.878 105.619 35.3773 105.852 35.816C106.095 36.2547 106.422 36.5953 106.832 36.838C107.252 37.0713 107.724 37.188 108.246 37.188ZM118.701 30.58C119.662 30.58 120.399 30.8227 120.913 31.308C121.426 31.784 121.683 32.4933 121.683 33.436V38H120.731V36.852C120.507 37.2347 120.175 37.5333 119.737 37.748C119.307 37.9627 118.794 38.07 118.197 38.07C117.375 38.07 116.722 37.874 116.237 37.482C115.751 37.09 115.509 36.572 115.509 35.928C115.509 35.3027 115.733 34.7987 116.181 34.416C116.638 34.0333 117.361 33.842 118.351 33.842H120.689V33.394C120.689 32.7593 120.511 32.2787 120.157 31.952C119.802 31.616 119.284 31.448 118.603 31.448C118.136 31.448 117.688 31.5273 117.259 31.686C116.829 31.8353 116.461 32.0453 116.153 32.316L115.705 31.574C116.078 31.2567 116.526 31.014 117.049 30.846C117.571 30.6687 118.122 30.58 118.701 30.58ZM118.351 37.286C118.911 37.286 119.391 37.16 119.793 36.908C120.194 36.6467 120.493 36.2733 120.689 35.788V34.584H118.379C117.119 34.584 116.489 35.0227 116.489 35.9C116.489 36.3293 116.652 36.67 116.979 36.922C117.305 37.1647 117.763 37.286 118.351 37.286ZM126.734 32.078C126.968 31.5833 127.313 31.21 127.77 30.958C128.237 30.706 128.811 30.58 129.492 30.58V31.546L129.254 31.532C128.48 31.532 127.873 31.77 127.434 32.246C126.996 32.722 126.776 33.3893 126.776 34.248V38H125.782V30.636H126.734V32.078ZM132.692 30.636H133.686V38H132.692V30.636ZM133.196 29.026C132.991 29.026 132.818 28.956 132.678 28.816C132.538 28.676 132.468 28.508 132.468 28.312C132.468 28.1253 132.538 27.962 132.678 27.822C132.818 27.682 132.991 27.612 133.196 27.612C133.402 27.612 133.574 27.682 133.714 27.822C133.854 27.9527 133.924 28.1113 133.924 28.298C133.924 28.5033 133.854 28.676 133.714 28.816C133.574 28.956 133.402 29.026 133.196 29.026ZM146.71 30.58C147.401 30.58 148.026 30.7387 148.586 31.056C149.146 31.364 149.585 31.8027 149.902 32.372C150.219 32.9413 150.378 33.59 150.378 34.318C150.378 35.046 150.219 35.6947 149.902 36.264C149.585 36.8333 149.146 37.2767 148.586 37.594C148.026 37.9113 147.401 38.07 146.71 38.07C146.094 38.07 145.539 37.9393 145.044 37.678C144.559 37.4167 144.167 37.0387 143.868 36.544V38H142.916V27.612H143.91V32.036C144.218 31.56 144.61 31.2007 145.086 30.958C145.571 30.706 146.113 30.58 146.71 30.58ZM146.64 37.188C147.153 37.188 147.62 37.0713 148.04 36.838C148.46 36.5953 148.787 36.2547 149.02 35.816C149.263 35.3773 149.384 34.878 149.384 34.318C149.384 33.758 149.263 33.2587 149.02 32.82C148.787 32.3813 148.46 32.0453 148.04 31.812C147.62 31.5693 147.153 31.448 146.64 31.448C146.117 31.448 145.646 31.5693 145.226 31.812C144.815 32.0453 144.489 32.3813 144.246 32.82C144.013 33.2587 143.896 33.758 143.896 34.318C143.896 34.878 144.013 35.3773 144.246 35.816C144.489 36.2547 144.815 36.5953 145.226 36.838C145.646 37.0713 146.117 37.188 146.64 37.188ZM160.216 34.626H154.056C154.112 35.3913 154.406 36.012 154.938 36.488C155.47 36.9547 156.142 37.188 156.954 37.188C157.412 37.188 157.832 37.1087 158.214 36.95C158.597 36.782 158.928 36.5393 159.208 36.222L159.768 36.866C159.442 37.258 159.031 37.5567 158.536 37.762C158.051 37.9673 157.514 38.07 156.926 38.07C156.17 38.07 155.498 37.9113 154.91 37.594C154.332 37.2673 153.879 36.8193 153.552 36.25C153.226 35.6807 153.062 35.0367 153.062 34.318C153.062 33.5993 153.216 32.9553 153.524 32.386C153.842 31.8167 154.271 31.3733 154.812 31.056C155.363 30.7387 155.979 30.58 156.66 30.58C157.342 30.58 157.953 30.7387 158.494 31.056C159.036 31.3733 159.46 31.8167 159.768 32.386C160.076 32.946 160.23 33.59 160.23 34.318L160.216 34.626ZM156.66 31.434C155.951 31.434 155.354 31.6627 154.868 32.12C154.392 32.568 154.122 33.156 154.056 33.884H159.278C159.213 33.156 158.938 32.568 158.452 32.12C157.976 31.6627 157.379 31.434 156.66 31.434ZM164.606 32.078C164.839 31.5833 165.184 31.21 165.642 30.958C166.108 30.706 166.682 30.58 167.364 30.58V31.546L167.126 31.532C166.351 31.532 165.744 31.77 165.306 32.246C164.867 32.722 164.648 33.3893 164.648 34.248V38H163.654V30.636H164.606V32.078ZM169.581 40.786C169.273 40.786 168.983 40.744 168.713 40.66C168.433 40.5853 168.204 40.4687 168.027 40.31L168.377 39.554C168.666 39.806 169.049 39.932 169.525 39.932C169.917 39.932 170.215 39.8153 170.421 39.582C170.635 39.3487 170.743 39.0033 170.743 38.546V30.636H171.737V38.546C171.737 39.2367 171.55 39.7827 171.177 40.184C170.803 40.5853 170.271 40.786 169.581 40.786ZM171.247 29.012C171.041 29.012 170.869 28.942 170.729 28.802C170.589 28.662 170.519 28.494 170.519 28.298C170.519 28.1113 170.589 27.948 170.729 27.808C170.869 27.668 171.041 27.598 171.247 27.598C171.452 27.598 171.625 27.668 171.765 27.808C171.905 27.9387 171.975 28.0973 171.975 28.284C171.975 28.4893 171.905 28.662 171.765 28.802C171.625 28.942 171.452 29.012 171.247 29.012ZM178.491 30.58C179.452 30.58 180.189 30.8227 180.703 31.308C181.216 31.784 181.473 32.4933 181.473 33.436V38H180.521V36.852C180.297 37.2347 179.965 37.5333 179.527 37.748C179.097 37.9627 178.584 38.07 177.987 38.07C177.165 38.07 176.512 37.874 176.027 37.482C175.541 37.09 175.299 36.572 175.299 35.928C175.299 35.3027 175.523 34.7987 175.971 34.416C176.428 34.0333 177.151 33.842 178.141 33.842H180.479V33.394C180.479 32.7593 180.301 32.2787 179.947 31.952C179.592 31.616 179.074 31.448 178.393 31.448C177.926 31.448 177.478 31.5273 177.049 31.686C176.619 31.8353 176.251 32.0453 175.943 32.316L175.495 31.574C175.868 31.2567 176.316 31.014 176.839 30.846C177.361 30.6687 177.912 30.58 178.491 30.58ZM178.141 37.286C178.701 37.286 179.181 37.16 179.583 36.908C179.984 36.6467 180.283 36.2733 180.479 35.788V34.584H178.169C176.909 34.584 176.279 35.0227 176.279 35.9C176.279 36.3293 176.442 36.67 176.769 36.922C177.095 37.1647 177.553 37.286 178.141 37.286ZM189.366 30.58C190.057 30.58 190.682 30.7387 191.242 31.056C191.802 31.364 192.241 31.8027 192.558 32.372C192.876 32.9413 193.034 33.59 193.034 34.318C193.034 35.046 192.876 35.6947 192.558 36.264C192.241 36.8333 191.802 37.2767 191.242 37.594C190.682 37.9113 190.057 38.07 189.366 38.07C188.75 38.07 188.195 37.9393 187.7 37.678C187.215 37.4167 186.823 37.0387 186.524 36.544V38H185.572V27.612H186.566V32.036C186.874 31.56 187.266 31.2007 187.742 30.958C188.228 30.706 188.769 30.58 189.366 30.58ZM189.296 37.188C189.81 37.188 190.276 37.0713 190.696 36.838C191.116 36.5953 191.443 36.2547 191.676 35.816C191.919 35.3773 192.04 34.878 192.04 34.318C192.04 33.758 191.919 33.2587 191.676 32.82C191.443 32.3813 191.116 32.0453 190.696 31.812C190.276 31.5693 189.81 31.448 189.296 31.448C188.774 31.448 188.302 31.5693 187.882 31.812C187.472 32.0453 187.145 32.3813 186.902 32.82C186.669 33.2587 186.552 33.758 186.552 34.318C186.552 34.878 186.669 35.3773 186.902 35.816C187.145 36.2547 187.472 36.5953 187.882 36.838C188.302 37.0713 188.774 37.188 189.296 37.188ZM198.996 30.58C199.957 30.58 200.694 30.8227 201.208 31.308C201.721 31.784 201.978 32.4933 201.978 33.436V38H201.026V36.852C200.802 37.2347 200.47 37.5333 200.032 37.748C199.602 37.9627 199.089 38.07 198.492 38.07C197.67 38.07 197.017 37.874 196.532 37.482C196.046 37.09 195.804 36.572 195.804 35.928C195.804 35.3027 196.028 34.7987 196.476 34.416C196.933 34.0333 197.656 33.842 198.646 33.842H200.984V33.394C200.984 32.7593 200.806 32.2787 200.452 31.952C200.097 31.616 199.579 31.448 198.898 31.448C198.431 31.448 197.983 31.5273 197.554 31.686C197.124 31.8353 196.756 32.0453 196.448 32.316L196 31.574C196.373 31.2567 196.821 31.014 197.344 30.846C197.866 30.6687 198.417 30.58 198.996 30.58ZM198.646 37.286C199.206 37.286 199.686 37.16 200.088 36.908C200.489 36.6467 200.788 36.2733 200.984 35.788V34.584H198.674C197.414 34.584 196.784 35.0227 196.784 35.9C196.784 36.3293 196.947 36.67 197.274 36.922C197.6 37.1647 198.058 37.286 198.646 37.286ZM209.955 37.552C209.769 37.72 209.535 37.8507 209.255 37.944C208.985 38.028 208.7 38.07 208.401 38.07C207.711 38.07 207.179 37.8833 206.805 37.51C206.432 37.1367 206.245 36.6093 206.245 35.928V31.476H204.929V30.636H206.245V29.026H207.239V30.636H209.479V31.476H207.239V35.872C207.239 36.3107 207.347 36.6467 207.561 36.88C207.785 37.104 208.103 37.216 208.513 37.216C208.719 37.216 208.915 37.1833 209.101 37.118C209.297 37.0527 209.465 36.9593 209.605 36.838L209.955 37.552ZM222.107 37.552C221.92 37.72 221.687 37.8507 221.407 37.944C221.136 38.028 220.852 38.07 220.553 38.07C219.862 38.07 219.33 37.8833 218.957 37.51C218.584 37.1367 218.397 36.6093 218.397 35.928V31.476H217.081V30.636H218.397V29.026H219.391V30.636H221.631V31.476H219.391V35.872C219.391 36.3107 219.498 36.6467 219.713 36.88C219.937 37.104 220.254 37.216 220.665 37.216C220.87 37.216 221.066 37.1833 221.253 37.118C221.449 37.0527 221.617 36.9593 221.757 36.838L222.107 37.552ZM227.892 30.58C228.854 30.58 229.591 30.8227 230.104 31.308C230.618 31.784 230.874 32.4933 230.874 33.436V38H229.922V36.852C229.698 37.2347 229.367 37.5333 228.928 37.748C228.499 37.9627 227.986 38.07 227.388 38.07C226.567 38.07 225.914 37.874 225.428 37.482C224.943 37.09 224.7 36.572 224.7 35.928C224.7 35.3027 224.924 34.7987 225.372 34.416C225.83 34.0333 226.553 33.842 227.542 33.842H229.88V33.394C229.88 32.7593 229.703 32.2787 229.348 31.952C228.994 31.616 228.476 31.448 227.794 31.448C227.328 31.448 226.88 31.5273 226.45 31.686C226.021 31.8353 225.652 32.0453 225.344 32.316L224.896 31.574C225.27 31.2567 225.718 31.014 226.24 30.846C226.763 30.6687 227.314 30.58 227.892 30.58ZM227.542 37.286C228.102 37.286 228.583 37.16 228.984 36.908C229.386 36.6467 229.684 36.2733 229.88 35.788V34.584H227.57C226.31 34.584 225.68 35.0227 225.68 35.9C225.68 36.3293 225.844 36.67 226.17 36.922C226.497 37.1647 226.954 37.286 227.542 37.286ZM238.726 30.58C239.65 30.58 240.383 30.8507 240.924 31.392C241.475 31.924 241.75 32.7033 241.75 33.73V38H240.756V33.828C240.756 33.0627 240.565 32.4793 240.182 32.078C239.8 31.6767 239.254 31.476 238.544 31.476C237.751 31.476 237.121 31.714 236.654 32.19C236.197 32.6567 235.968 33.3053 235.968 34.136V38H234.974V30.636H235.926V31.994C236.197 31.546 236.57 31.2007 237.046 30.958C237.532 30.706 238.092 30.58 238.726 30.58ZM252.694 30.636V37.104C252.694 38.3547 252.386 39.2787 251.77 39.876C251.164 40.4827 250.244 40.786 249.012 40.786C248.331 40.786 247.682 40.6833 247.066 40.478C246.46 40.282 245.965 40.0067 245.582 39.652L246.086 38.896C246.441 39.2133 246.87 39.4607 247.374 39.638C247.888 39.8153 248.424 39.904 248.984 39.904C249.918 39.904 250.604 39.6847 251.042 39.246C251.481 38.8167 251.7 38.1447 251.7 37.23V36.292C251.392 36.7587 250.986 37.1133 250.482 37.356C249.988 37.5987 249.437 37.72 248.83 37.72C248.14 37.72 247.51 37.5707 246.94 37.272C246.38 36.964 245.937 36.5393 245.61 35.998C245.293 35.4473 245.134 34.8267 245.134 34.136C245.134 33.4453 245.293 32.8293 245.61 32.288C245.937 31.7467 246.38 31.3267 246.94 31.028C247.5 30.7293 248.13 30.58 248.83 30.58C249.456 30.58 250.02 30.706 250.524 30.958C251.028 31.21 251.434 31.574 251.742 32.05V30.636H252.694ZM248.928 36.838C249.46 36.838 249.941 36.726 250.37 36.502C250.8 36.2687 251.131 35.9467 251.364 35.536C251.607 35.1253 251.728 34.6587 251.728 34.136C251.728 33.6133 251.607 33.1513 251.364 32.75C251.131 32.3393 250.8 32.022 250.37 31.798C249.95 31.5647 249.47 31.448 248.928 31.448C248.396 31.448 247.916 31.56 247.486 31.784C247.066 32.008 246.735 32.3253 246.492 32.736C246.259 33.1467 246.142 33.6133 246.142 34.136C246.142 34.6587 246.259 35.1253 246.492 35.536C246.735 35.9467 247.066 36.2687 247.486 36.502C247.916 36.726 248.396 36.838 248.928 36.838ZM259.45 30.58C260.411 30.58 261.149 30.8227 261.662 31.308C262.175 31.784 262.432 32.4933 262.432 33.436V38H261.48V36.852C261.256 37.2347 260.925 37.5333 260.486 37.748C260.057 37.9627 259.543 38.07 258.946 38.07C258.125 38.07 257.471 37.874 256.986 37.482C256.501 37.09 256.258 36.572 256.258 35.928C256.258 35.3027 256.482 34.7987 256.93 34.416C257.387 34.0333 258.111 33.842 259.1 33.842H261.438V33.394C261.438 32.7593 261.261 32.2787 260.906 31.952C260.551 31.616 260.033 31.448 259.352 31.448C258.885 31.448 258.437 31.5273 258.008 31.686C257.579 31.8353 257.21 32.0453 256.902 32.316L256.454 31.574C256.827 31.2567 257.275 31.014 257.798 30.846C258.321 30.6687 258.871 30.58 259.45 30.58ZM259.1 37.286C259.66 37.286 260.141 37.16 260.542 36.908C260.943 36.6467 261.242 36.2733 261.438 35.788V34.584H259.128C257.868 34.584 257.238 35.0227 257.238 35.9C257.238 36.3293 257.401 36.67 257.728 36.922C258.055 37.1647 258.512 37.286 259.1 37.286ZM270.284 30.58C271.208 30.58 271.94 30.8507 272.482 31.392C273.032 31.924 273.308 32.7033 273.308 33.73V38H272.314V33.828C272.314 33.0627 272.122 32.4793 271.74 32.078C271.357 31.6767 270.811 31.476 270.102 31.476C269.308 31.476 268.678 31.714 268.212 32.19C267.754 32.6567 267.526 33.3053 267.526 34.136V38H266.532V30.636H267.484V31.994C267.754 31.546 268.128 31.2007 268.604 30.958C269.089 30.706 269.649 30.58 270.284 30.58Z" fill="#1D1313"/>
</svg>
