<svg width="257" height="60" viewBox="0 0 257 60" fill="none" xmlns="http://www.w3.org/2000/svg">
<rect width="60" height="60" rx="5" fill="#E6E6E6"/>
<path d="M37.6042 47.0786C37.5967 47.9633 37.5673 48.9716 37.4996 50.0637C37.4996 50.0637 43.964 50.5769 46.6359 44.8656C46.846 44.4101 46.9425 43.9105 46.9172 43.4095C46.8869 42.7319 46.8485 41.6133 46.8466 40.2754C43.393 42.1762 40.2306 44.3637 37.6042 47.0786Z" fill="#FFCAC0"/>
<path d="M46.8469 40.2752C46.8455 39.1203 46.8713 37.8026 46.9533 36.4651H43.6216L37.5002 43.3754C37.5002 43.3754 37.6237 44.8272 37.6048 47.0783C38.9204 46.8581 43.9069 45.6846 46.8469 40.2752Z" fill="#E5837C"/>
<path d="M25.3248 9.68475C25.3248 9.68475 24.531 8.02508 22.3302 8.85491C21.0922 9.32164 20.9705 10.1995 21.1011 10.8781C21.1709 11.2195 21.1498 11.5732 21.0401 11.9039C20.9303 12.2346 20.7357 12.5306 20.4757 12.7625C19.9283 13.2401 19.3475 13.6779 18.7378 14.0728C18.5153 14.2155 18.2641 14.3072 18.002 14.3414C17.7399 14.3755 17.4736 14.3513 17.222 14.2704C16.529 14.0583 15.8092 13.9468 15.0846 13.9391C14.8482 13.9354 14.6155 13.881 14.4021 13.7794C14.1887 13.6777 13.9997 13.5314 13.8478 13.3503C13.6883 13.1524 13.4871 12.9921 13.2587 12.8805C13.0303 12.769 12.7802 12.7091 12.526 12.7049H12.4033C12.2179 12.7049 12.04 12.7785 11.9087 12.9096C11.7775 13.0406 11.7037 13.2184 11.7035 13.4039V14.1672C11.704 14.541 11.5774 14.9038 11.3444 15.196C10.2635 16.5499 7.33495 20.8498 11.0007 23.8127C12.8233 25.2856 14.619 25.5383 16.0972 25.3292C16.3787 25.2866 16.6665 25.3215 16.9297 25.4301C17.1929 25.5387 17.4216 25.7169 17.5911 25.9456C17.8247 26.2726 18.0308 26.6184 18.2072 26.9794C18.3416 27.2538 18.4198 27.5522 18.4373 27.8571C18.4549 28.1621 18.4113 28.4675 18.3093 28.7554C18.1427 29.2366 18.12 29.9045 18.8297 30.511C19.3417 30.9486 19.9941 31.0119 20.5965 30.9279C22.3612 30.6816 22.7142 28.2334 21.0607 27.5696C21.0422 27.5622 21.0233 27.5554 21.0042 27.5478C20.4828 27.3557 20.0498 26.9793 19.7869 26.4898C19.5773 26.0963 19.4101 25.6817 19.2881 25.2528C19.2098 24.9872 19.2042 24.7053 19.2717 24.4367C19.3392 24.1681 19.4774 23.9225 19.6719 23.7253C19.9428 23.4594 20.1717 23.1538 20.3507 22.8191C20.8424 21.8944 21.1145 20.6639 20.9245 19.0291C20.858 18.4026 20.706 17.7883 20.4727 17.2031C20.3594 16.9234 20.319 16.6196 20.3552 16.32C20.3914 16.0205 20.503 15.735 20.6797 15.4903C21.217 14.7386 21.8196 14.0356 22.4802 13.3895C22.7473 13.133 23.0817 12.9575 23.4446 12.8835C26.6706 12.2118 25.3248 9.68475 25.3248 9.68475Z" fill="#F74F73"/>
<path d="M28.3341 48.8021C27.8517 48.2442 27.1868 48.3299 26.7106 48.5022C26.5575 48.5568 26.394 48.576 26.2324 48.5582C26.0708 48.5405 25.9153 48.4863 25.7777 48.3997C25.1414 48.0155 24.5589 47.5485 24.0455 47.011C23.8141 46.7607 23.6827 46.4341 23.6763 46.0933C23.6584 44.7804 23.2478 41.5594 19.7061 41.0146C15.3844 40.3497 13.5483 43.4789 13.5832 46.3593C13.5846 46.5562 13.5182 46.7477 13.3951 46.9014L13.0944 47.2809C12.9714 47.4361 12.8888 47.6194 12.8538 47.8144C12.8188 48.0093 12.8327 48.2099 12.8941 48.3982L12.9253 48.4939C13.0126 48.7465 13.183 48.962 13.4087 49.1051C13.6344 49.2482 13.9019 49.3105 14.1676 49.2818C14.3316 49.2694 14.4957 49.3032 14.6415 49.3793C14.7872 49.4554 14.9087 49.5708 14.9923 49.7124C15.4355 50.4517 16.5875 51.7595 19.1217 51.5601C20.7161 51.4349 21.7509 50.7265 22.4229 49.8851C22.577 49.6911 22.7806 49.5422 23.0121 49.4541C23.2436 49.366 23.4946 49.3419 23.7387 49.3844C24.1025 49.4519 24.4595 49.5518 24.8054 49.6829C24.9723 49.7447 25.1214 49.8466 25.2397 49.9795C25.358 50.1124 25.4419 50.2723 25.4839 50.4452C25.6443 51.1061 26.3526 51.5766 27.2071 51.5682L27.2993 51.5673C27.6549 51.5689 28.0005 51.4493 28.2789 51.2281C28.5574 51.007 28.7522 50.6975 28.8312 50.3508C28.9329 49.8496 28.7866 49.326 28.3341 48.8021Z" fill="#F74F73"/>
<path d="M22.012 36.1735C21.7398 36.3144 21.512 36.5282 21.3541 36.791C21.1962 37.0538 21.1144 37.3552 21.1178 37.6618C21.1304 38.2306 21.3982 38.9219 22.5014 39.243C23.3322 39.4844 23.8533 39.2288 24.1792 38.8414C24.7767 38.1303 24.6135 37.0674 23.8951 36.479C23.409 36.0803 22.7453 35.7884 22.012 36.1735Z" fill="#F74F73"/>
<path d="M10.4516 48.6777C10.2496 48.4471 9.98753 48.2771 9.69461 48.1867C9.40168 48.0962 9.08941 48.089 8.79259 48.1656C8.24327 48.314 7.63607 48.7395 7.58892 49.8873C7.5532 50.7518 7.92563 51.1968 8.38036 51.4205C9.2133 51.8299 10.2066 51.4175 10.606 50.579C10.8764 50.0115 11.0013 49.2973 10.4516 48.6777Z" fill="#F74F73"/>
<path d="M16.3727 43.7947C16.1764 44.0046 16.0284 44.2549 15.939 44.5281C15.8516 44.7937 15.8521 45.0805 15.9403 45.3459C16.0286 45.6113 16.2 45.8411 16.4291 46.0015L16.6046 46.1251C16.8122 46.2746 17.0597 46.3588 17.3154 46.3668C17.5711 46.3749 17.8234 46.3064 18.04 46.1701C18.2321 46.0508 18.3923 45.8867 18.5069 45.6918C18.6215 45.4969 18.6871 45.2771 18.698 45.0513C18.7237 44.7284 18.6611 44.4046 18.5167 44.1146C18.4232 43.9228 18.2844 43.7566 18.1123 43.6304C17.9402 43.5043 17.7399 43.4219 17.5289 43.3904C17.3178 43.3589 17.1023 43.3792 16.9008 43.4497C16.6994 43.5201 16.5181 43.6385 16.3727 43.7947Z" fill="#B21F42"/>
<path d="M18.7258 47.7164C18.594 47.8572 18.4947 48.025 18.4348 48.2083C18.3761 48.3864 18.3764 48.5788 18.4356 48.7568C18.4948 48.9348 18.6098 49.089 18.7635 49.1965L18.8812 49.2795C19.0204 49.3799 19.1864 49.4364 19.3579 49.4417C19.5295 49.4471 19.6987 49.4011 19.8439 49.3096C19.9727 49.2296 20.0802 49.1196 20.1571 48.9888C20.234 48.8581 20.2779 48.7107 20.2852 48.5592C20.3025 48.3427 20.2605 48.1256 20.1636 47.9311C20.101 47.8025 20.0079 47.691 19.8925 47.6063C19.7771 47.5216 19.6428 47.4664 19.5012 47.4452C19.3597 47.4241 19.2151 47.4377 19.08 47.485C18.9449 47.5322 18.8233 47.6117 18.7258 47.7164Z" fill="#B21F42"/>
<path d="M18.5762 19.5052C18.4826 19.2623 18.3169 19.0538 18.1015 18.9078C17.886 18.7617 17.631 18.6851 17.3707 18.6881C16.7303 18.6951 15.9016 18.9632 15.6846 20.2344C15.4686 21.4989 16.2211 22.0046 16.8764 22.2068C17.1335 22.2867 17.4097 22.2806 17.663 22.1894C17.9163 22.0983 18.133 21.927 18.2803 21.7016C18.6167 21.1831 18.9265 20.3943 18.5762 19.5052Z" fill="#B21F42"/>
<path d="M12.9134 16.7294C13.0909 16.618 13.3023 16.5738 13.5095 16.6049C13.7167 16.636 13.9059 16.7403 14.0428 16.8988C14.3454 17.2499 14.6075 17.7916 14.2622 18.4537C13.9406 19.0693 13.3305 19.192 12.8139 19.1664C12.685 19.16 12.559 19.1254 12.4449 19.065C12.3308 19.0046 12.2313 18.9199 12.1535 18.817C12.0756 18.714 12.0213 18.5952 11.9944 18.4689C11.9674 18.3427 11.9685 18.2121 11.9975 18.0863C12.0529 17.8108 12.1624 17.5491 12.3197 17.3162C12.4769 17.0833 12.6787 16.8839 12.9134 16.7294Z" fill="#B21F42"/>
<path d="M8.91963 31.4815C8.91963 31.4815 9.2689 33.0755 10.7713 33.1603C11.7504 33.2155 12.3317 32.8215 12.6772 32.3514C12.932 31.9945 13.0747 31.5697 13.0869 31.1314C13.0991 30.693 12.9804 30.2609 12.7458 29.8904C12.6801 29.7873 12.6397 29.6702 12.628 29.5486C12.6162 29.4269 12.6333 29.3042 12.678 29.1905L12.6928 29.1539C12.7503 29.0128 12.755 28.8558 12.7061 28.7115C12.6572 28.5673 12.558 28.4455 12.4266 28.3684L12.2676 28.2751C12.1491 28.2056 12.0112 28.1765 11.8747 28.1921C11.7382 28.2077 11.6105 28.2673 11.5108 28.3618L11.1543 28.6997C11.0471 28.8022 10.9119 28.8704 10.7658 28.8957C10.1699 28.9976 8.53887 29.461 8.91963 31.4815Z" fill="#F74F73"/>
<path d="M16.2591 34.5136C16.2591 34.5136 14.8383 33.7107 13.7732 34.7736C13.0791 35.4662 12.9845 36.1618 13.1051 36.7329C13.2011 37.1608 13.4224 37.5504 13.7409 37.8518C14.0594 38.1533 14.4606 38.353 14.8931 38.4253C15.0137 38.4451 15.1279 38.4932 15.2264 38.5655C15.3249 38.6379 15.4049 38.7325 15.4599 38.8416L15.4772 38.8771C15.544 39.0139 15.6579 39.1222 15.798 39.182C15.9382 39.2417 16.0951 39.2491 16.2402 39.2026L16.4156 39.1461C16.5464 39.1042 16.6601 39.0208 16.7394 38.9087C16.8188 38.7965 16.8596 38.6616 16.8557 38.5243L16.8416 38.0332C16.8368 37.8851 16.8761 37.7389 16.9546 37.6131C17.2764 37.1022 18.0186 35.5775 16.2591 34.5136Z" fill="#B21F42"/>
<path d="M9.2872 8.90173C9.18038 9.17486 9.15154 9.4723 9.20389 9.76086C9.25624 10.0494 9.38772 10.3178 9.58367 10.536C9.95186 10.9369 10.5807 11.2649 11.5761 10.799C12.3256 10.448 12.5393 9.93585 12.5288 9.45119C12.5094 8.56305 11.7212 7.90192 10.8334 7.93241C10.2324 7.95302 9.57097 8.16182 9.2872 8.90173Z" fill="#B21F42"/>
<path d="M28.8857 28.5449C28.8728 30.4578 28.8087 32.8527 28.6017 34.7182C32.5394 38.9321 36.8174 42.0601 42.2696 41.4415C43.3344 40.391 45.3888 38.1521 45.9869 35.9921L44.1664 32.2246L42.8443 23.9818C42.8443 23.9818 33.5956 23.7511 28.8857 28.5449Z" fill="#FFCAC0"/>
<path d="M28.8617 25.262C28.8617 25.262 28.8983 26.6728 28.8857 28.5451L29.6092 28.1881C29.6092 28.1881 29.7765 29.9487 32.2847 29.1783C34.7928 28.4079 36.5736 27.1178 38.6809 26.7595C38.6809 26.7595 38.9968 29.8654 43.2008 27.8344C43.6276 27.6283 44.0526 27.4131 44.4721 27.1932L44.7582 22.4859C44.7582 22.4859 35.0835 21.3026 28.8617 25.262Z" fill="#E5837C"/>
<path d="M50.337 32.7529C55.2399 25.7617 49.9471 21.4689 49.9471 21.4689C48.7348 17.4878 45.7284 12.8007 38.2742 14.4756C29.4137 16.4662 27.2456 22.554 26.7279 25.8381C26.69 26.0736 26.719 26.3149 26.8114 26.5348C26.9039 26.7547 27.0561 26.9442 27.2509 27.0818C27.4457 27.2195 27.6752 27.2997 27.9133 27.3134C28.1514 27.3272 28.3886 27.2738 28.5979 27.1595C29.9795 26.4113 30.6498 25.6257 30.6498 25.6257C30.5553 25.7687 30.4702 25.9176 30.3948 26.0714C30.2914 26.2776 30.2557 26.5111 30.2928 26.7387C30.33 26.9663 30.4381 27.1764 30.6017 27.3389C30.7653 27.5014 30.9761 27.6081 31.204 27.6437C31.4319 27.6793 31.6651 27.642 31.8706 27.5371C35.7182 25.5889 40.8898 24.1239 40.8898 24.1239C40.8898 24.1239 40.3375 24.6365 40.1274 25.6706C40.0987 25.816 40.1068 25.9662 40.1511 26.1076C40.1954 26.249 40.2745 26.377 40.381 26.4799C40.4876 26.5829 40.6182 26.6575 40.761 26.6969C40.9038 26.7363 41.0542 26.7393 41.1985 26.7056C41.6314 26.5993 42.2024 26.3539 42.9377 25.8533C42.9377 25.8533 40.4346 31.3602 44.5306 34.728C44.5306 34.7282 47.8794 36.2576 50.337 32.7529Z" fill="#5C5C6D"/>
<path d="M27.9372 34.9949C27.9672 34.8001 28.0673 34.6229 28.2189 34.4968C28.3704 34.3707 28.5628 34.3043 28.7599 34.3102C29.8826 34.3342 30.9902 34.0488 31.9616 33.4853C33.9011 32.4024 35.0285 33.0244 36.2556 33.8113C36.5604 34.0073 36.8952 34.1519 37.2467 34.2396C38.153 34.4644 39.9729 34.7691 41.8154 34.2228C41.8154 34.2228 38.2708 39.6017 42.2695 41.4418C42.2695 41.4418 41.0707 45.1313 35.1748 45.1313C32.2269 45.1313 30.4533 44.1289 29.4165 43.1275C28.5839 42.3118 28.0504 41.2393 27.9022 40.0831C27.6726 38.3939 27.6844 36.6807 27.9372 34.9949Z" fill="#BDF2DC"/>
<path d="M11.1721 41.005C11.5524 41.005 11.8607 40.6967 11.8607 40.3163C11.8607 39.936 11.5524 39.6277 11.1721 39.6277C10.7917 39.6277 10.4834 39.936 10.4834 40.3163C10.4834 40.6967 10.7917 41.005 11.1721 41.005Z" fill="#F74F73"/>
<path d="M20.8477 45.3061C21.2158 45.3061 21.5141 45.0078 21.5141 44.6397C21.5141 44.2717 21.2158 43.9734 20.8477 43.9734C20.4797 43.9734 20.1814 44.2717 20.1814 44.6397C20.1814 45.0078 20.4797 45.3061 20.8477 45.3061Z" fill="#B21F42"/>
<path d="M31.9616 31.6217C32.3047 31.6217 32.5828 31.3436 32.5828 31.0006C32.5828 30.6575 32.3047 30.3794 31.9616 30.3794C31.6186 30.3794 31.3405 30.6575 31.3405 31.0006C31.3405 31.3436 31.6186 31.6217 31.9616 31.6217Z" fill="#E5837C"/>
<path d="M26.5764 16.6844C27.0522 16.6844 27.438 16.2986 27.438 15.8228C27.438 15.3469 27.0522 14.9612 26.5764 14.9612C26.1005 14.9612 25.7148 15.3469 25.7148 15.8228C25.7148 16.2986 26.1005 16.6844 26.5764 16.6844Z" fill="#B21F42"/>
<path d="M13.0607 22.1675C13.4193 22.1675 13.7101 21.8767 13.7101 21.5181C13.7101 21.1594 13.4193 20.8687 13.0607 20.8687C12.702 20.8687 12.4113 21.1594 12.4113 21.5181C12.4113 21.8767 12.702 22.1675 13.0607 22.1675Z" fill="#B21F42"/>
<path d="M36.1225 31.6217C36.4656 31.6217 36.7437 31.3436 36.7437 31.0006C36.7437 30.6575 36.4656 30.3794 36.1225 30.3794C35.7795 30.3794 35.5013 30.6575 35.5013 31.0006C35.5013 31.3436 35.7795 31.6217 36.1225 31.6217Z" fill="#E5837C"/>
<path d="M43.6235 34.3812C43.6235 34.3812 43.4347 31.0818 45.9864 30.9596C47.8217 30.8717 48.216 32.681 48.2925 33.7034C48.3273 34.1702 48.2795 34.6394 48.1513 35.0896C47.8948 35.9931 47.2513 37.4446 45.7574 37.4995C45.4709 37.5074 45.1872 37.4409 44.9342 37.3064C44.6811 37.1719 44.4673 36.974 44.3136 36.7321C44.0115 36.2602 43.6913 35.5058 43.6235 34.3812Z" fill="#FFCAC0"/>
<path d="M45.3176 35.2435C45.2007 35.2433 45.0878 35.2013 44.9991 35.1251C44.9105 35.0489 44.852 34.9435 44.8342 34.828C44.5637 33.0616 45.5252 32.3365 46.0715 32.2C46.1964 32.1695 46.3282 32.1894 46.4386 32.2553C46.5489 32.3211 46.629 32.4278 46.6614 32.5522C46.6938 32.6765 46.676 32.8087 46.6118 32.9201C46.5477 33.0314 46.4423 33.1131 46.3184 33.1474C46.2377 33.1727 45.6082 33.412 45.8023 34.6798C45.8219 34.808 45.7898 34.9389 45.713 35.0435C45.6362 35.1481 45.5211 35.218 45.3929 35.2378C45.368 35.2416 45.3428 35.2435 45.3176 35.2435Z" fill="#E5837C"/>
<path d="M18.4711 13.6598C18.3092 13.7633 18.1264 13.8296 17.9358 13.854C17.7451 13.8784 17.5515 13.8603 17.3687 13.8009C16.6304 13.5754 15.8637 13.4564 15.0918 13.4473C14.9257 13.4447 14.7622 13.4063 14.6123 13.3348C14.4624 13.2634 14.3296 13.1605 14.223 13.0331C14.0173 12.7807 13.7588 12.5764 13.4656 12.4348C13.1724 12.2931 12.8518 12.2175 12.5262 12.2131H12.4035C12.0882 12.2135 11.786 12.3389 11.563 12.5618C11.34 12.7847 11.2146 13.087 11.2143 13.4023V14.1657C11.2142 14.4284 11.1253 14.6833 10.9621 14.889C9.8783 16.2465 6.65623 20.9294 10.6939 24.1925C12.3674 25.5447 14.2092 26.0901 16.1673 25.8129C16.3608 25.7826 16.5588 25.8057 16.7402 25.8796C16.9216 25.9534 17.0794 26.0754 17.1966 26.2322C17.4138 26.5375 17.6058 26.8601 17.7705 27.1966C17.8751 27.4129 17.9358 27.6478 17.9491 27.8877C17.9624 28.1276 17.9281 28.3677 17.848 28.5943C17.5515 29.4498 17.7879 30.2624 18.5131 30.8822C18.9712 31.2651 19.5539 31.4667 20.1507 31.4488C20.323 31.4484 20.4951 31.436 20.6657 31.4117C21.1636 31.3452 21.6249 31.1139 21.976 30.7546C22.3271 30.3954 22.5478 29.9289 22.6028 29.4296C22.6726 28.947 22.5764 28.455 22.3298 28.0343C22.0833 27.6137 21.7011 27.2892 21.246 27.1143C21.2231 27.105 21.1998 27.0961 21.1765 27.0875C20.7672 26.9371 20.4271 26.6421 20.2205 26.2581C20.0272 25.8952 19.873 25.5128 19.7605 25.1174C19.7058 24.9362 19.7008 24.7436 19.746 24.5599C19.7912 24.3761 19.885 24.2078 20.0175 24.0727C20.3237 23.772 20.5824 23.4264 20.7846 23.0479C21.3845 21.92 21.5957 20.549 21.4124 18.9714C21.3401 18.3007 21.1767 17.6429 20.9266 17.0164C20.8454 16.8133 20.8167 16.5929 20.8431 16.3758C20.8696 16.1586 20.9504 15.9517 21.0781 15.774C21.5985 15.0459 22.1819 14.365 22.8218 13.7393C23.0222 13.5471 23.2732 13.4159 23.5455 13.361C24.7344 13.1134 25.5208 12.5964 25.8823 11.8242C26.3883 10.7442 25.8322 9.59728 25.7636 9.46358C25.4172 8.74867 24.2239 7.61516 22.1584 8.39431C20.9542 8.84834 20.3937 9.7866 20.6213 10.9682C20.676 11.2256 20.6616 11.4928 20.5796 11.7428C20.4975 11.9928 20.3508 12.2167 20.1543 12.3916C19.6242 12.8539 19.0617 13.2777 18.4711 13.6598ZM20.7976 13.1289C21.121 12.84 21.3634 12.4716 21.5008 12.0603C21.6383 11.649 21.6661 11.2089 21.5814 10.7836C21.4436 10.0677 21.7367 9.59968 22.5023 9.31083C24.205 8.66933 24.8176 9.76669 24.8842 9.89742C24.8868 9.90264 24.8895 9.90772 24.8921 9.91281C24.8964 9.92085 25.3106 10.734 24.9942 11.4093C24.7704 11.8872 24.2153 12.2215 23.3444 12.4027C22.8907 12.4955 22.4727 12.7153 22.1391 13.0365C21.4574 13.7027 20.8358 14.4278 20.2815 15.2033C20.0576 15.5159 19.9162 15.8799 19.8703 16.2616C19.8244 16.6433 19.8755 17.0305 20.0189 17.3873C20.235 17.9311 20.376 18.5019 20.438 19.0839C20.598 20.4598 20.4231 21.6392 19.9183 22.5878C19.7627 22.8788 19.5636 23.1443 19.3279 23.3752C19.0704 23.6337 18.8871 23.9566 18.7972 24.3102C18.7073 24.6638 18.7141 25.0351 18.817 25.3852C18.9486 25.8474 19.1288 26.2944 19.3548 26.7186C19.6739 27.3138 20.2 27.7715 20.8337 28.0051L20.8783 28.0224C21.1322 28.1184 21.3453 28.2988 21.4819 28.5333C21.6186 28.7678 21.6706 29.0421 21.6291 29.3103C21.6004 29.5954 21.476 29.8623 21.2762 30.0677C21.0764 30.273 20.813 30.4047 20.5288 30.4413C19.9438 30.5227 19.4793 30.4205 19.1477 30.1372C18.7268 29.7775 18.6074 29.3889 18.7719 28.9142C18.8942 28.5644 18.9459 28.1939 18.9241 27.8241C18.9023 27.4542 18.8073 27.0923 18.6448 26.7594C18.4561 26.3743 18.236 26.0054 17.9868 25.6564C17.796 25.396 17.5462 25.1846 17.2578 25.0395C16.9695 24.8944 16.6509 24.8198 16.3281 24.8217C16.2277 24.8217 16.1274 24.8288 16.0279 24.8429C14.3505 25.0801 12.7624 24.605 11.3083 23.4303C8.06418 20.8095 10.5201 17.0119 11.7266 15.4999C12.028 15.1205 12.1922 14.6503 12.1925 14.1657V13.4023C12.1925 13.3466 12.2147 13.2932 12.2541 13.2539C12.2935 13.2145 12.3469 13.1924 12.4025 13.1923H12.5252C12.7078 13.1969 12.8872 13.2413 13.0508 13.3226C13.2144 13.4039 13.3582 13.52 13.4721 13.6627C13.6691 13.8979 13.9146 14.0878 14.1916 14.2196C14.4687 14.3514 14.7709 14.4219 15.0777 14.4264C15.7462 14.4342 16.4104 14.5357 17.0508 14.7279L16.6117 15.0584C16.4793 15.1578 16.3182 15.2117 16.1526 15.212H15.715C15.5851 15.212 15.4606 15.2636 15.3688 15.3554C15.2769 15.4472 15.2254 15.5718 15.2254 15.7016C15.2254 15.8315 15.2769 15.956 15.3688 16.0478C15.4606 16.1396 15.5851 16.1912 15.715 16.1912H16.1526C16.5306 16.1904 16.8982 16.0675 17.2007 15.8408L19.0231 14.4689C19.6455 14.0648 20.2384 13.6173 20.7976 13.1295V13.1289Z" fill="#3C3C4F"/>
<path d="M12.4583 48.644C12.5798 49.0012 12.8186 49.3068 13.1359 49.5109C13.4533 49.715 13.8304 49.8056 14.2058 49.768C14.2788 49.7629 14.3517 49.7784 14.4163 49.8127C14.4809 49.8471 14.5345 49.8989 14.571 49.9623C15.0575 50.7737 16.2087 52.0688 18.6032 52.0686C18.7813 52.0686 18.9665 52.0612 19.1586 52.0465C20.6893 51.9262 21.9157 51.3013 22.8042 50.1889C22.9031 50.0633 23.0342 49.9669 23.1835 49.9097C23.3327 49.8525 23.4947 49.8368 23.6522 49.8641C23.9869 49.9264 24.3154 50.0185 24.6337 50.1394C24.7255 50.1734 24.8075 50.2293 24.8726 50.3024C24.9376 50.3755 24.9837 50.4635 25.0068 50.5586C25.2214 51.4431 26.1142 52.0559 27.1829 52.0559H27.2111L27.3033 52.0549C27.7708 52.0549 28.2243 51.8955 28.5891 51.6032C28.954 51.3109 29.2083 50.903 29.3103 50.4468C29.4056 49.9795 29.3779 49.2589 28.7032 48.4795C28.1843 47.8796 27.417 47.7232 26.5425 48.0397C26.459 48.0693 26.3698 48.0795 26.2817 48.0695C26.1936 48.0595 26.109 48.0295 26.0343 47.9818C25.4357 47.6217 24.8877 47.1835 24.4048 46.6786C24.2545 46.5167 24.1688 46.3053 24.164 46.0844C24.148 44.9368 23.7852 41.1449 19.7786 40.5284C17.8614 40.2336 16.2143 40.6292 15.0135 41.6719C13.769 42.7527 13.0685 44.4624 13.0915 46.363C13.0916 46.4474 13.0626 46.5293 13.0093 46.5948L12.7089 46.9743C12.5353 47.1927 12.4185 47.4508 12.3693 47.7254C12.32 48.0001 12.3397 48.2827 12.4266 48.5478L12.4583 48.644ZM13.4768 47.5832L13.7775 47.2037C13.9701 46.9616 14.0738 46.6608 14.0713 46.3515C14.0521 44.7633 14.6444 43.2905 15.656 42.4127C16.647 41.5522 17.9837 41.244 19.6302 41.4975C22.3267 41.9121 23.0185 44.0104 23.1561 45.5385L22.862 45.2703C22.8147 45.2262 22.759 45.192 22.6983 45.1696C22.6376 45.1472 22.5731 45.137 22.5084 45.1397C22.4438 45.1424 22.3803 45.1578 22.3217 45.1852C22.2631 45.2125 22.2104 45.2512 22.1668 45.2991C22.1233 45.3469 22.0896 45.4029 22.0678 45.4638C22.046 45.5247 22.0364 45.5893 22.0397 45.6539C22.0431 45.7185 22.0591 45.7819 22.0871 45.8402C22.115 45.8986 22.1542 45.9508 22.2025 45.9939L23.7026 47.3608C24.2403 47.9237 24.8508 48.4124 25.5177 48.8139C25.7179 48.9402 25.9443 49.0191 26.1796 49.0446C26.4149 49.0701 26.6529 49.0416 26.8755 48.9612C27.5984 48.6999 27.8723 49.0165 27.9626 49.1207C28.2993 49.5101 28.4261 49.8801 28.3501 50.2518C28.2938 50.4889 28.1584 50.6997 27.9663 50.8496C27.7742 50.9995 27.5368 51.0796 27.2931 51.0766L27.201 51.0776H27.1836C26.5779 51.0776 26.0641 50.7643 25.9585 50.3293C25.8978 50.0783 25.7763 49.8461 25.6047 49.6531C25.4331 49.4602 25.2167 49.3124 24.9745 49.2228C24.6008 49.0815 24.2153 48.9738 23.8225 48.9012C23.4917 48.8434 23.1515 48.8758 22.8376 48.9951C22.5237 49.1143 22.2478 49.316 22.0388 49.5788C21.3265 50.4709 20.3317 50.9731 19.082 51.0712C16.8356 51.2478 15.8169 50.1375 15.4107 49.4597C15.2903 49.2556 15.1189 49.0864 14.9132 48.9687C14.7076 48.851 14.4748 48.7889 14.2379 48.7885C14.2011 48.7885 14.1641 48.79 14.1269 48.7929C13.9708 48.8133 13.8124 48.7796 13.6782 48.6974C13.544 48.6152 13.442 48.4894 13.3892 48.3411L13.358 48.2458C13.3213 48.1342 13.313 48.0152 13.3337 47.8995C13.3544 47.7838 13.4036 47.6751 13.4768 47.5832Z" fill="#3C3C4F"/>
<path d="M24.2049 36.0988C23.4221 35.4576 22.5624 35.33 21.7839 35.7391C21.4317 35.9232 21.1372 36.2011 20.9332 36.5422C20.7292 36.8832 20.6235 37.2741 20.6278 37.6715C20.6405 38.2488 20.8833 39.2809 22.3643 39.7116C22.6075 39.7852 22.86 39.8238 23.1141 39.8264C23.3892 39.8306 23.6618 39.7723 23.9112 39.656C24.1606 39.5397 24.3804 39.3684 24.5541 39.155C24.7302 38.9451 24.8627 38.702 24.9436 38.4402C25.0245 38.1784 25.0522 37.903 25.0252 37.6303C24.9959 37.3336 24.9084 37.0456 24.7677 36.7828C24.6269 36.52 24.4357 36.2876 24.2049 36.0988ZM23.804 38.5249C23.6346 38.7269 23.3287 38.972 22.6375 38.7713C21.9563 38.5736 21.6192 38.2066 21.6069 37.6498C21.6057 37.4342 21.6641 37.2225 21.7758 37.0382C21.8874 36.8538 22.0479 36.7039 22.2395 36.6051C22.3811 36.5247 22.5409 36.4819 22.7037 36.4807C22.9314 36.4807 23.2284 36.564 23.5845 36.8555C23.7151 36.9619 23.8235 37.0929 23.9035 37.2412C23.9834 37.3895 24.0333 37.5521 24.0504 37.7197C24.065 37.8634 24.0508 38.0086 24.0085 38.1468C23.9662 38.285 23.8966 38.4133 23.804 38.5242V38.5249Z" fill="#3C3C4F"/>
<path d="M8.16367 51.8579C8.44416 51.9963 8.75274 52.0683 9.06551 52.0683C9.30109 52.0679 9.53492 52.0279 9.75728 51.9501C10.0382 51.8507 10.2967 51.6969 10.5181 51.4974C10.7394 51.298 10.9193 51.0568 11.0473 50.7878C11.4825 49.8744 11.4003 49.009 10.8171 48.351C10.5541 48.053 10.2138 47.8336 9.83376 47.7171C9.45377 47.6006 9.04896 47.5916 8.66415 47.691C8.10692 47.8416 7.16259 48.3243 7.09906 49.8651C7.05007 51.0553 7.65092 51.6058 8.16367 51.8579ZM8.07756 49.9059C8.10678 49.197 8.38222 48.782 8.91982 48.6367C9.0122 48.6118 9.10747 48.5992 9.20316 48.5993C9.37008 48.6005 9.53487 48.637 9.68676 48.7062C9.83865 48.7754 9.97424 48.8759 10.0847 49.0011C10.2021 49.1334 10.5593 49.5361 10.1634 50.367C10.0915 50.5192 9.99016 50.6557 9.86532 50.7687C9.74049 50.8818 9.59458 50.969 9.43596 51.0256C9.29994 51.0744 9.15553 51.0955 9.01123 51.0876C8.86693 51.0797 8.72568 51.0429 8.59582 50.9795C8.35906 50.8628 8.04791 50.6249 8.07756 49.9059Z" fill="#3C3C4F"/>
<path d="M8.43799 31.5705L8.44081 31.5846C8.58919 32.2623 9.26147 33.5639 10.7431 33.6475C10.8137 33.6514 10.8836 33.6534 10.9514 33.6534C12.0822 33.6534 12.7259 33.1102 13.0713 32.6392C13.3849 32.2043 13.5612 31.6855 13.5773 31.1495C13.5934 30.6136 13.4486 30.0851 13.1616 29.6321C13.1364 29.5945 13.1205 29.5515 13.115 29.5066C13.1096 29.4616 13.1149 29.416 13.1304 29.3735L13.1454 29.3368C13.2459 29.0866 13.2536 28.8086 13.167 28.5532C13.0804 28.2978 12.9053 28.0818 12.6733 27.9442L12.5146 27.8512C12.3043 27.729 12.0602 27.6779 11.8185 27.7056C11.5769 27.7333 11.3506 27.8382 11.1734 28.0048L10.817 28.3428C10.7802 28.3784 10.7336 28.4022 10.6833 28.4113C10.2033 28.493 9.31738 28.7446 8.78444 29.5105C8.40072 30.0615 8.28411 30.7546 8.43799 31.5705ZM9.58773 30.0706C9.92881 29.5805 10.5822 29.4225 10.847 29.3775C11.0888 29.336 11.3127 29.2235 11.4902 29.0542L11.8466 28.7163C11.8694 28.695 11.8985 28.6815 11.9295 28.6779C11.9606 28.6744 11.992 28.6809 12.0191 28.6966L12.1779 28.7897C12.2076 28.8074 12.2301 28.8351 12.2412 28.8679C12.2523 28.9006 12.2513 28.9362 12.2385 28.9683L12.2235 29.0053C12.1505 29.1904 12.1219 29.3901 12.14 29.5882C12.1581 29.7864 12.2225 29.9776 12.328 30.1463C12.5123 30.4336 12.6063 30.7696 12.5981 31.1108C12.5898 31.4521 12.4795 31.783 12.2815 32.0611C11.9531 32.5092 11.4666 32.7085 10.7983 32.6706C9.72368 32.61 9.42439 31.4866 9.39827 31.3798C9.29775 30.8355 9.36142 30.3953 9.58773 30.0706Z" fill="#3C3C4F"/>
<path d="M49.6149 32.8922C49.5728 32.9416 49.5409 32.9988 49.5211 33.0606C49.5013 33.1224 49.494 33.1876 49.4996 33.2522C49.5052 33.3168 49.5236 33.3797 49.5537 33.4372C49.5839 33.4947 49.6251 33.5456 49.6751 33.587C49.725 33.6284 49.7827 33.6594 49.8448 33.6783C49.9069 33.6972 49.9721 33.7036 50.0367 33.6971C50.1012 33.6905 50.1639 33.6712 50.2209 33.6403C50.2779 33.6093 50.3282 33.5674 50.3689 33.5168C50.495 33.3646 50.6189 33.2018 50.7375 33.0328C53.3916 29.2486 53.1282 26.2061 52.4401 24.3201C52.0055 23.1297 51.2976 22.0578 50.3734 21.1907C49.5862 18.6763 48.3694 16.7512 46.7558 15.4672C44.5448 13.708 41.6554 13.2135 38.1665 13.9973C29.0844 16.038 26.7984 22.2437 26.244 25.7613C26.1919 26.0869 26.2322 26.4206 26.3602 26.7246C26.4882 27.0285 26.6988 27.2905 26.9681 27.4808C27.2374 27.6711 27.5547 27.7822 27.8839 27.8014C28.2131 27.8206 28.5411 27.7471 28.8307 27.5894C29.1783 27.4016 29.5144 27.1933 29.8373 26.9658C29.9109 27.2405 30.0568 27.4904 30.26 27.6894C30.4951 27.9259 30.7997 28.081 31.1292 28.132C31.4587 28.1831 31.7959 28.1274 32.0915 27.9732C34.7429 26.6301 38.0716 25.508 39.8212 24.9582C39.7475 25.1582 39.6893 25.3636 39.6473 25.5725C39.6021 25.7987 39.6145 26.0327 39.6834 26.2528C39.7523 26.473 39.8754 26.6722 40.0415 26.8324C40.2075 26.9925 40.4112 27.1083 40.6337 27.1691C40.8562 27.23 41.0904 27.2339 41.3148 27.1805C41.5691 27.1158 41.817 27.0283 42.0554 26.919C41.7569 28.0222 41.485 29.7104 41.9054 31.4464C41.92 31.5094 41.947 31.5688 41.9848 31.6213C42.0226 31.6738 42.0703 31.7183 42.1254 31.7522C42.1804 31.7861 42.2416 31.8088 42.3055 31.8189C42.3694 31.829 42.4346 31.8264 42.4974 31.8112C42.5603 31.796 42.6195 31.7685 42.6716 31.7303C42.7238 31.692 42.7678 31.6439 42.8012 31.5886C42.8347 31.5332 42.8568 31.4718 42.8664 31.4079C42.876 31.3439 42.8728 31.2787 42.8571 31.216C42.2343 28.6445 43.3718 26.0803 43.3831 26.0553C43.4272 25.9581 43.4383 25.8491 43.4147 25.745C43.3911 25.6408 43.3342 25.5472 43.2525 25.4785C43.1708 25.4097 43.0689 25.3696 42.9622 25.3641C42.8556 25.3587 42.7501 25.3882 42.6618 25.4483C42.1837 25.7979 41.6487 26.0623 41.0806 26.2298C41.0174 26.245 40.9513 26.2438 40.8887 26.2264C40.826 26.2089 40.7689 26.1757 40.7226 26.13C40.674 26.0845 40.6378 26.0273 40.6174 25.9639C40.597 25.9005 40.5931 25.8329 40.6061 25.7676C40.6893 25.2909 40.9023 24.8464 41.2217 24.4829C41.3022 24.4082 41.3552 24.3085 41.3723 24.2C41.3893 24.0914 41.3693 23.9803 41.3155 23.8845C41.2617 23.7887 41.1773 23.7138 41.0757 23.6718C40.9742 23.6298 40.8615 23.6232 40.7558 23.6531C40.7035 23.6672 35.494 25.1526 31.6486 27.1006C31.5362 27.1614 31.407 27.1839 31.2807 27.1647C31.1543 27.1455 31.0377 27.0856 30.9484 26.9942C30.8551 26.905 30.7934 26.7878 30.7727 26.6605C30.7519 26.5331 30.7732 26.4024 30.8333 26.2883C30.8991 26.1535 30.9737 26.0233 31.0564 25.8982C31.1256 25.7945 31.1526 25.6682 31.1319 25.5452C31.1112 25.4222 31.0444 25.3117 30.945 25.2364C30.8456 25.161 30.7212 25.1264 30.5972 25.1396C30.4732 25.1528 30.3589 25.2129 30.2777 25.3075C30.2714 25.3147 29.6366 26.0406 28.3642 26.7296C28.2351 26.8005 28.0888 26.8336 27.9418 26.8254C27.7949 26.8171 27.6532 26.7676 27.5329 26.6827C27.4127 26.5978 27.3188 26.4808 27.2618 26.345C27.2049 26.2093 27.1872 26.0603 27.2109 25.915C27.7266 22.6428 29.8634 16.8677 38.3809 14.9539C45.3974 13.3777 48.2882 17.7045 49.4774 21.6121C49.5059 21.705 49.5613 21.7874 49.6365 21.849C49.8375 22.0136 54.5055 25.9551 49.9351 32.4724C49.8323 32.6182 49.7243 32.7601 49.6149 32.8922Z" fill="#3C3C4F"/>
<path d="M48.6211 35.2218C48.7655 34.7164 48.8193 34.1894 48.7801 33.6652C48.6224 31.5557 47.5942 30.3919 45.9625 30.4689C45.6037 30.4755 45.2501 30.5555 44.9235 30.7041C44.5968 30.8527 44.3042 31.0667 44.0635 31.3329C43.7774 31.6611 43.5587 32.0424 43.42 32.455C43.0295 32.994 42.4355 33.4325 41.6508 33.7582C39.9326 34.2602 38.2287 33.9772 37.3633 33.7626C37.0637 33.6878 36.7784 33.5645 36.5188 33.3974C35.1417 32.5142 33.8301 31.8787 31.7219 33.0561C30.9445 33.5039 30.0734 33.7643 29.1777 33.8164C29.287 32.4752 29.3519 30.8289 29.3711 28.9123C29.3723 28.7826 29.322 28.6576 29.2311 28.5649C29.1402 28.4723 29.0163 28.4195 28.8865 28.4182H28.8814C28.7524 28.4182 28.6287 28.4692 28.537 28.5599C28.4454 28.6507 28.3932 28.7739 28.3919 28.9029C28.3722 30.8949 28.3026 32.5876 28.185 33.9401C27.9926 34.0309 27.8253 34.1673 27.6977 34.3375C27.57 34.5077 27.4859 34.7065 27.4526 34.9166C27.1911 36.6493 27.1788 38.4105 27.416 40.1467C27.5802 41.4118 28.1646 42.5851 29.0752 43.4785C30.0861 44.4553 31.9646 45.6197 35.1741 45.6197C35.82 45.6218 36.4651 45.5746 37.1038 45.4786C37.1272 46.5831 37.1248 48.1838 37.0102 50.0331C37.0023 50.1612 37.045 50.2873 37.1291 50.3842C37.2132 50.4812 37.332 50.5412 37.46 50.5515C37.4809 50.553 37.6449 50.5656 37.9187 50.5656C39.0321 50.5592 40.139 50.3941 41.2058 50.0751C43.8947 49.2677 45.9255 47.538 47.0788 45.0731C47.3216 44.5457 47.4337 43.9675 47.4055 43.3876C47.3531 42.21 47.2833 39.8723 47.3966 37.3452C47.9367 36.8744 48.3556 36.1591 48.6211 35.2218ZM29.7563 42.7736C29.1446 42.1747 28.7099 41.4189 28.4998 40.589C29.5535 41.0892 30.6655 41.4561 31.81 41.681C31.8734 41.6945 31.939 41.6952 32.0027 41.683C32.0664 41.6709 32.1271 41.6463 32.1813 41.6105C32.2354 41.5747 32.2819 41.5285 32.318 41.4746C32.3541 41.4207 32.3792 41.3602 32.3917 41.2965C32.4042 41.2328 32.4039 41.1673 32.3909 41.1038C32.3779 41.0402 32.3524 40.9799 32.3158 40.9262C32.2793 40.8726 32.2324 40.8268 32.178 40.7915C32.1236 40.7561 32.0627 40.7319 31.9989 40.7203C30.7079 40.4727 29.4643 40.0223 28.3142 39.3859C28.2519 38.7559 28.2227 38.123 28.2265 37.4899C29.1095 37.8146 31.0619 38.3912 33.7701 38.3912C35.3198 38.3876 36.864 38.2065 38.3724 37.8512C38.4357 37.8373 38.4956 37.8109 38.5486 37.7737C38.6016 37.7365 38.6467 37.6891 38.6813 37.6343C38.7158 37.5795 38.7392 37.5183 38.7499 37.4545C38.7607 37.3906 38.7587 37.3252 38.744 37.2621C38.7293 37.199 38.7023 37.1394 38.6644 37.0869C38.6265 37.0343 38.5786 36.9898 38.5234 36.9559C38.4682 36.922 38.4068 36.8993 38.3428 36.8893C38.2788 36.8793 38.2134 36.8821 38.1505 36.8976C32.8482 38.1314 29.0289 36.7632 28.266 36.453C28.2964 36.0053 28.3459 35.5424 28.4213 35.0695C28.4317 34.9924 28.4703 34.9219 28.5296 34.8716C28.589 34.8213 28.6649 34.7948 28.7426 34.7973C29.9552 34.8256 31.1521 34.5187 32.2014 33.9104C33.8501 32.9899 34.7335 33.4136 35.9926 34.221C36.3423 34.4459 36.7265 34.6118 37.1299 34.7123C38.3476 35.0179 39.6121 35.0914 40.857 34.9287C40.3262 35.9915 39.6482 37.7456 39.9567 39.3204C38.8163 40.0363 37.5507 40.53 36.2268 40.7755C36.1067 40.7976 35.9992 40.8637 35.9253 40.9609C35.8514 41.0581 35.8165 41.1794 35.8274 41.301C35.8384 41.4227 35.8943 41.5358 35.9843 41.6183C36.0744 41.7008 36.192 41.7467 36.3141 41.747C36.3437 41.7469 36.3732 41.7442 36.4023 41.7389C37.7743 41.4854 39.0894 40.9867 40.2847 40.2669C40.5937 40.8498 41.0624 41.3327 41.6359 41.6589C41.1625 42.5369 39.5699 44.6391 35.1763 44.6391C32.8931 44.64 31.0195 43.9945 29.7563 42.7736ZM46.4275 43.4297C46.4487 43.8515 46.368 44.2723 46.192 44.6563C44.0806 49.1693 39.5144 49.5788 38.0167 49.5869C38.1095 47.8222 38.1045 46.3116 38.0791 45.2811C41.4045 44.4358 42.4719 42.2549 42.6899 41.7113C43.4081 40.9994 44.0758 40.2383 44.6881 39.4335C44.7661 39.3297 44.7997 39.1992 44.7815 39.0706C44.7633 38.942 44.6947 38.8259 44.5909 38.7479C44.5395 38.7093 44.481 38.6811 44.4187 38.6651C44.3564 38.6491 44.2916 38.6455 44.2279 38.6545C44.0994 38.6727 43.9833 38.7413 43.9053 38.8451C43.372 39.5469 42.7939 40.2134 42.1746 40.8406C41.8843 40.6877 41.6279 40.4778 41.4208 40.2233C41.2137 39.9689 41.0601 39.6752 40.9694 39.36C40.4527 37.5576 41.8164 35.1571 42.1504 34.6068C42.4943 34.458 42.8232 34.2768 43.1329 34.0658C43.1268 34.2622 43.1329 34.389 43.1343 34.4085C43.1456 34.5965 43.1639 34.7819 43.1889 34.9591C43.1972 35.0234 43.2181 35.0854 43.2504 35.1415C43.2828 35.1977 43.326 35.2468 43.3775 35.2861C43.429 35.3255 43.4878 35.3542 43.5505 35.3706C43.6132 35.387 43.6785 35.3908 43.7427 35.3818C43.8069 35.3728 43.8686 35.3511 43.9244 35.3181C43.9801 35.285 44.0287 35.2412 44.0674 35.1892C44.1061 35.1372 44.1341 35.078 44.1497 35.0152C44.1653 34.9523 44.1684 34.8869 44.1585 34.8228C44.1372 34.6709 44.1215 34.5122 44.1119 34.3517C44.1119 34.3365 44.0394 32.8194 44.7937 31.9846C44.9482 31.8159 45.136 31.6809 45.3452 31.5883C45.5544 31.4956 45.7805 31.4472 46.0094 31.4462C47.3473 31.3805 47.723 32.6569 47.8039 33.7376C47.8343 34.1471 47.7921 34.5588 47.6792 34.9536C47.4197 35.8675 46.8722 36.966 45.7383 37.0077C45.5728 37.0134 45.4082 36.9823 45.2562 36.9166C45.1371 36.8668 45.0031 36.866 44.8834 36.9145C44.7638 36.963 44.6681 37.0568 44.6172 37.1754C44.5664 37.2941 44.5645 37.4281 44.6119 37.5482C44.6593 37.6682 44.7523 37.7647 44.8705 37.8166C45.1313 37.9294 45.4125 37.9876 45.6967 37.9877C45.7225 37.9877 45.7485 37.9877 45.7743 37.9863C45.9845 37.9783 46.193 37.9454 46.3955 37.8882C46.3146 40.2226 46.3784 42.3276 46.4275 43.4297Z" fill="#3C3C4F"/>
<path d="M34.0306 40.9455C33.9441 40.9433 33.8581 40.9403 33.7728 40.9364C33.708 40.9325 33.6431 40.9416 33.5819 40.963C33.5207 40.9844 33.4643 41.0177 33.4161 41.0611C33.3679 41.1045 33.3287 41.157 33.301 41.2156C33.2732 41.2743 33.2574 41.3378 33.2544 41.4026C33.2514 41.4674 33.2614 41.5322 33.2836 41.5931C33.3059 41.654 33.34 41.7099 33.384 41.7575C33.4281 41.8052 33.4811 41.8436 33.5401 41.8705C33.5991 41.8974 33.6629 41.9124 33.7277 41.9145C33.8203 41.9188 33.9136 41.9221 34.0075 41.9244H34.0194C34.1482 41.9242 34.2717 41.8733 34.3632 41.7827C34.4548 41.6921 34.5069 41.5691 34.5084 41.4403C34.5098 41.3116 34.4605 41.1874 34.3711 41.0948C34.2816 41.0021 34.1593 40.9484 34.0306 40.9453V40.9455Z" fill="#3C3C4F"/>
<path d="M86.8779 28.2V38H85.8839V30.16L82.0339 36.754H81.5439L77.6939 30.202V38H76.6999V28.2H77.5539L81.8099 35.466L86.0239 28.2H86.8779ZM97.673 34.626H91.513C91.569 35.3913 91.863 36.012 92.395 36.488C92.927 36.9547 93.599 37.188 94.411 37.188C94.8683 37.188 95.2883 37.1087 95.671 36.95C96.0537 36.782 96.385 36.5393 96.665 36.222L97.225 36.866C96.8983 37.258 96.4877 37.5567 95.993 37.762C95.5077 37.9673 94.971 38.07 94.383 38.07C93.627 38.07 92.955 37.9113 92.367 37.594C91.7883 37.2673 91.3357 36.8193 91.009 36.25C90.6823 35.6807 90.519 35.0367 90.519 34.318C90.519 33.5993 90.673 32.9553 90.981 32.386C91.2983 31.8167 91.7277 31.3733 92.269 31.056C92.8197 30.7387 93.4357 30.58 94.117 30.58C94.7983 30.58 95.4097 30.7387 95.951 31.056C96.4923 31.3733 96.917 31.8167 97.225 32.386C97.533 32.946 97.687 33.59 97.687 34.318L97.673 34.626ZM94.117 31.434C93.4077 31.434 92.8103 31.6627 92.325 32.12C91.849 32.568 91.5783 33.156 91.513 33.884H96.735C96.6697 33.156 96.3943 32.568 95.909 32.12C95.433 31.6627 94.8357 31.434 94.117 31.434ZM104.862 30.58C105.786 30.58 106.519 30.8507 107.06 31.392C107.611 31.924 107.886 32.7033 107.886 33.73V38H106.892V33.828C106.892 33.0627 106.701 32.4793 106.318 32.078C105.936 31.6767 105.39 31.476 104.68 31.476C103.887 31.476 103.257 31.714 102.79 32.19C102.333 32.6567 102.104 33.3053 102.104 34.136V38H101.11V30.636H102.062V31.994C102.333 31.546 102.706 31.2007 103.182 30.958C103.668 30.706 104.228 30.58 104.862 30.58ZM118.83 30.636V37.104C118.83 38.3547 118.522 39.2787 117.906 39.876C117.3 40.4827 116.38 40.786 115.148 40.786C114.467 40.786 113.818 40.6833 113.202 40.478C112.596 40.282 112.101 40.0067 111.718 39.652L112.222 38.896C112.577 39.2133 113.006 39.4607 113.51 39.638C114.024 39.8153 114.56 39.904 115.12 39.904C116.054 39.904 116.74 39.6847 117.178 39.246C117.617 38.8167 117.836 38.1447 117.836 37.23V36.292C117.528 36.7587 117.122 37.1133 116.618 37.356C116.124 37.5987 115.573 37.72 114.966 37.72C114.276 37.72 113.646 37.5707 113.076 37.272C112.516 36.964 112.073 36.5393 111.746 35.998C111.429 35.4473 111.27 34.8267 111.27 34.136C111.27 33.4453 111.429 32.8293 111.746 32.288C112.073 31.7467 112.516 31.3267 113.076 31.028C113.636 30.7293 114.266 30.58 114.966 30.58C115.592 30.58 116.156 30.706 116.66 30.958C117.164 31.21 117.57 31.574 117.878 32.05V30.636H118.83ZM115.064 36.838C115.596 36.838 116.077 36.726 116.506 36.502C116.936 36.2687 117.267 35.9467 117.5 35.536C117.743 35.1253 117.864 34.6587 117.864 34.136C117.864 33.6133 117.743 33.1513 117.5 32.75C117.267 32.3393 116.936 32.022 116.506 31.798C116.086 31.5647 115.606 31.448 115.064 31.448C114.532 31.448 114.052 31.56 113.622 31.784C113.202 32.008 112.871 32.3253 112.628 32.736C112.395 33.1467 112.278 33.6133 112.278 34.136C112.278 34.6587 112.395 35.1253 112.628 35.536C112.871 35.9467 113.202 36.2687 113.622 36.502C114.052 36.726 114.532 36.838 115.064 36.838ZM129.828 30.636V37.104C129.828 38.3547 129.52 39.2787 128.904 39.876C128.297 40.4827 127.378 40.786 126.146 40.786C125.464 40.786 124.816 40.6833 124.2 40.478C123.593 40.282 123.098 40.0067 122.716 39.652L123.22 38.896C123.574 39.2133 124.004 39.4607 124.508 39.638C125.021 39.8153 125.558 39.904 126.118 39.904C127.051 39.904 127.737 39.6847 128.176 39.246C128.614 38.8167 128.834 38.1447 128.834 37.23V36.292C128.526 36.7587 128.12 37.1133 127.616 37.356C127.121 37.5987 126.57 37.72 125.964 37.72C125.273 37.72 124.643 37.5707 124.074 37.272C123.514 36.964 123.07 36.5393 122.744 35.998C122.426 35.4473 122.268 34.8267 122.268 34.136C122.268 33.4453 122.426 32.8293 122.744 32.288C123.07 31.7467 123.514 31.3267 124.074 31.028C124.634 30.7293 125.264 30.58 125.964 30.58C126.589 30.58 127.154 30.706 127.658 30.958C128.162 31.21 128.568 31.574 128.876 32.05V30.636H129.828ZM126.062 36.838C126.594 36.838 127.074 36.726 127.504 36.502C127.933 36.2687 128.264 35.9467 128.498 35.536C128.74 35.1253 128.862 34.6587 128.862 34.136C128.862 33.6133 128.74 33.1513 128.498 32.75C128.264 32.3393 127.933 32.022 127.504 31.798C127.084 31.5647 126.603 31.448 126.062 31.448C125.53 31.448 125.049 31.56 124.62 31.784C124.2 32.008 123.868 32.3253 123.626 32.736C123.392 33.1467 123.276 33.6133 123.276 34.136C123.276 34.6587 123.392 35.1253 123.626 35.536C123.868 35.9467 124.2 36.2687 124.62 36.502C125.049 36.726 125.53 36.838 126.062 36.838ZM140.643 30.636V38H139.691V36.656C139.43 37.104 139.071 37.454 138.613 37.706C138.156 37.9487 137.633 38.07 137.045 38.07C136.084 38.07 135.323 37.804 134.763 37.272C134.213 36.7307 133.937 35.942 133.937 34.906V30.636H134.931V34.808C134.931 35.5827 135.123 36.1707 135.505 36.572C135.888 36.9733 136.434 37.174 137.143 37.174C137.918 37.174 138.529 36.9407 138.977 36.474C139.425 35.998 139.649 35.34 139.649 34.5V30.636H140.643ZM148.579 30.58C149.503 30.58 150.236 30.8507 150.777 31.392C151.328 31.924 151.603 32.7033 151.603 33.73V38H150.609V33.828C150.609 33.0627 150.418 32.4793 150.035 32.078C149.653 31.6767 149.107 31.476 148.397 31.476C147.604 31.476 146.974 31.714 146.507 32.19C146.05 32.6567 145.821 33.3053 145.821 34.136V38H144.827V30.636H145.779V31.994C146.05 31.546 146.423 31.2007 146.899 30.958C147.385 30.706 147.945 30.58 148.579 30.58ZM158.278 30.58C159.239 30.58 159.977 30.8227 160.49 31.308C161.003 31.784 161.26 32.4933 161.26 33.436V38H160.308V36.852C160.084 37.2347 159.753 37.5333 159.314 37.748C158.885 37.9627 158.371 38.07 157.774 38.07C156.953 38.07 156.299 37.874 155.814 37.482C155.329 37.09 155.086 36.572 155.086 35.928C155.086 35.3027 155.31 34.7987 155.758 34.416C156.215 34.0333 156.939 33.842 157.928 33.842H160.266V33.394C160.266 32.7593 160.089 32.2787 159.734 31.952C159.379 31.616 158.861 31.448 158.18 31.448C157.713 31.448 157.265 31.5273 156.836 31.686C156.407 31.8353 156.038 32.0453 155.73 32.316L155.282 31.574C155.655 31.2567 156.103 31.014 156.626 30.846C157.149 30.6687 157.699 30.58 158.278 30.58ZM157.928 37.286C158.488 37.286 158.969 37.16 159.37 36.908C159.771 36.6467 160.07 36.2733 160.266 35.788V34.584H157.956C156.696 34.584 156.066 35.0227 156.066 35.9C156.066 36.3293 156.229 36.67 156.556 36.922C156.883 37.1647 157.34 37.286 157.928 37.286ZM168.09 34.304L166.354 35.9V38H165.36V27.612H166.354V34.654L170.75 30.636H171.982L168.832 33.646L172.276 38H171.058L168.09 34.304ZM177.607 30.58C178.569 30.58 179.306 30.8227 179.819 31.308C180.333 31.784 180.589 32.4933 180.589 33.436V38H179.637V36.852C179.413 37.2347 179.082 37.5333 178.643 37.748C178.214 37.9627 177.701 38.07 177.103 38.07C176.282 38.07 175.629 37.874 175.143 37.482C174.658 37.09 174.415 36.572 174.415 35.928C174.415 35.3027 174.639 34.7987 175.087 34.416C175.545 34.0333 176.268 33.842 177.257 33.842H179.595V33.394C179.595 32.7593 179.418 32.2787 179.063 31.952C178.709 31.616 178.191 31.448 177.509 31.448C177.043 31.448 176.595 31.5273 176.165 31.686C175.736 31.8353 175.367 32.0453 175.059 32.316L174.611 31.574C174.985 31.2567 175.433 31.014 175.955 30.846C176.478 30.6687 177.029 30.58 177.607 30.58ZM177.257 37.286C177.817 37.286 178.298 37.16 178.699 36.908C179.101 36.6467 179.399 36.2733 179.595 35.788V34.584H177.285C176.025 34.584 175.395 35.0227 175.395 35.9C175.395 36.3293 175.559 36.67 175.885 36.922C176.212 37.1647 176.669 37.286 177.257 37.286ZM188.441 30.58C189.365 30.58 190.098 30.8507 190.639 31.392C191.19 31.924 191.465 32.7033 191.465 33.73V38H190.471V33.828C190.471 33.0627 190.28 32.4793 189.897 32.078C189.514 31.6767 188.968 31.476 188.259 31.476C187.466 31.476 186.836 31.714 186.369 32.19C185.912 32.6567 185.683 33.3053 185.683 34.136V38H184.689V30.636H185.641V31.994C185.912 31.546 186.285 31.2007 186.761 30.958C187.246 30.706 187.806 30.58 188.441 30.58ZM211.016 28.2V38H210.022V30.16L206.172 36.754H205.682L201.832 30.202V38H200.838V28.2H201.692L205.948 35.466L210.162 28.2H211.016ZM217.975 30.58C218.936 30.58 219.674 30.8227 220.187 31.308C220.7 31.784 220.957 32.4933 220.957 33.436V38H220.005V36.852C219.781 37.2347 219.45 37.5333 219.011 37.748C218.582 37.9627 218.068 38.07 217.471 38.07C216.65 38.07 215.996 37.874 215.511 37.482C215.026 37.09 214.783 36.572 214.783 35.928C214.783 35.3027 215.007 34.7987 215.455 34.416C215.912 34.0333 216.636 33.842 217.625 33.842H219.963V33.394C219.963 32.7593 219.786 32.2787 219.431 31.952C219.076 31.616 218.558 31.448 217.877 31.448C217.41 31.448 216.962 31.5273 216.533 31.686C216.104 31.8353 215.735 32.0453 215.427 32.316L214.979 31.574C215.352 31.2567 215.8 31.014 216.323 30.846C216.846 30.6687 217.396 30.58 217.975 30.58ZM217.625 37.286C218.185 37.286 218.666 37.16 219.067 36.908C219.468 36.6467 219.767 36.2733 219.963 35.788V34.584H217.653C216.393 34.584 215.763 35.0227 215.763 35.9C215.763 36.3293 215.926 36.67 216.253 36.922C216.58 37.1647 217.037 37.286 217.625 37.286ZM227.031 38.07C226.433 38.07 225.859 37.986 225.309 37.818C224.767 37.6407 224.343 37.4213 224.035 37.16L224.483 36.376C224.791 36.6187 225.178 36.8193 225.645 36.978C226.111 37.1273 226.597 37.202 227.101 37.202C227.773 37.202 228.267 37.0993 228.585 36.894C228.911 36.6793 229.075 36.3807 229.075 35.998C229.075 35.7273 228.986 35.5173 228.809 35.368C228.631 35.2093 228.407 35.0927 228.137 35.018C227.866 34.934 227.507 34.8547 227.059 34.78C226.461 34.668 225.981 34.556 225.617 34.444C225.253 34.3227 224.94 34.122 224.679 33.842C224.427 33.562 224.301 33.1747 224.301 32.68C224.301 32.064 224.557 31.56 225.071 31.168C225.584 30.776 226.298 30.58 227.213 30.58C227.689 30.58 228.165 30.6453 228.641 30.776C229.117 30.8973 229.509 31.0607 229.817 31.266L229.383 32.064C228.776 31.644 228.053 31.434 227.213 31.434C226.578 31.434 226.097 31.546 225.771 31.77C225.453 31.994 225.295 32.288 225.295 32.652C225.295 32.932 225.383 33.156 225.561 33.324C225.747 33.492 225.976 33.618 226.247 33.702C226.517 33.7767 226.891 33.856 227.367 33.94C227.955 34.052 228.426 34.164 228.781 34.276C229.135 34.388 229.439 34.5793 229.691 34.85C229.943 35.1207 230.069 35.494 230.069 35.97C230.069 36.614 229.798 37.1273 229.257 37.51C228.725 37.8833 227.983 38.07 227.031 38.07ZM236.036 34.304L234.3 35.9V38H233.306V27.612H234.3V34.654L238.696 30.636H239.928L236.778 33.646L240.222 38H239.004L236.036 34.304ZM249.226 34.626H243.066C243.122 35.3913 243.416 36.012 243.948 36.488C244.48 36.9547 245.152 37.188 245.964 37.188C246.421 37.188 246.841 37.1087 247.224 36.95C247.606 36.782 247.938 36.5393 248.218 36.222L248.778 36.866C248.451 37.258 248.04 37.5567 247.546 37.762C247.06 37.9673 246.524 38.07 245.936 38.07C245.18 38.07 244.508 37.9113 243.92 37.594C243.341 37.2673 242.888 36.8193 242.562 36.25C242.235 35.6807 242.072 35.0367 242.072 34.318C242.072 33.5993 242.226 32.9553 242.534 32.386C242.851 31.8167 243.28 31.3733 243.822 31.056C244.372 30.7387 244.988 30.58 245.67 30.58C246.351 30.58 246.962 30.7387 247.504 31.056C248.045 31.3733 248.47 31.8167 248.778 32.386C249.086 32.946 249.24 33.59 249.24 34.318L249.226 34.626ZM245.67 31.434C244.96 31.434 244.363 31.6627 243.878 32.12C243.402 32.568 243.131 33.156 243.066 33.884H248.288C248.222 33.156 247.947 32.568 247.462 32.12C246.986 31.6627 246.388 31.434 245.67 31.434ZM253.615 32.078C253.848 31.5833 254.194 31.21 254.651 30.958C255.118 30.706 255.692 30.58 256.373 30.58V31.546L256.135 31.532C255.36 31.532 254.754 31.77 254.315 32.246C253.876 32.722 253.657 33.3893 253.657 34.248V38H252.663V30.636H253.615V32.078Z" fill="#1D1313"/>
</svg>
