<svg width="20" height="20" viewBox="0 0 20 20" fill="none" xmlns="http://www.w3.org/2000/svg">
<path d="M10.0005 2.72729C8.02544 2.72729 7.77757 2.73593 7.00183 2.77123C6.22761 2.80669 5.69915 2.92926 5.23673 3.10911C4.75842 3.29487 4.35267 3.54336 3.94844 3.94775C3.54391 4.35199 3.29543 4.75775 3.10907 5.23593C2.92877 5.69851 2.80605 6.22714 2.7712 7.00108C2.73651 7.77684 2.72742 8.02487 2.72742 10C2.72742 11.9752 2.7362 12.2223 2.77136 12.9981C2.80696 13.7723 2.92953 14.3008 3.10922 14.7632C3.29513 15.2415 3.5436 15.6473 3.94799 16.0515C4.35206 16.4561 4.75781 16.7052 5.23583 16.8909C5.69854 17.0708 6.22716 17.1934 7.00123 17.2288C7.77696 17.2641 8.02468 17.2727 9.99962 17.2727C11.9749 17.2727 12.222 17.2641 12.9977 17.2288C13.7719 17.1934 14.301 17.0708 14.7637 16.8909C15.2419 16.7052 15.647 16.4561 16.0511 16.0515C16.4556 15.6473 16.7041 15.2415 16.8905 14.7634C17.0693 14.3008 17.192 13.7721 17.2283 12.9982C17.2632 12.2224 17.2723 11.9752 17.2723 10C17.2723 8.02487 17.2632 7.77699 17.2283 7.00123C17.192 6.22699 17.0693 5.69851 16.8905 5.23608C16.7041 4.75775 16.4556 4.35199 16.0511 3.94775C15.6466 3.5432 15.242 3.29472 14.7633 3.10911C14.2996 2.92926 13.7709 2.80669 12.9967 2.77123C12.2209 2.73593 11.974 2.72729 9.99826 2.72729H10.0005ZM9.34813 4.0379C9.54176 4.0376 9.75781 4.0379 10.0005 4.0379C11.9423 4.0379 12.1724 4.04487 12.9392 4.07972C13.6483 4.11214 14.0331 4.23063 14.2895 4.33017C14.6289 4.46199 14.8708 4.61957 15.1252 4.87411C15.3798 5.12866 15.5373 5.37108 15.6694 5.71048C15.769 5.96654 15.8876 6.35139 15.9199 7.06048C15.9547 7.82714 15.9623 8.05745 15.9623 9.99835C15.9623 11.9393 15.9547 12.1696 15.9199 12.9362C15.8875 13.6453 15.769 14.0302 15.6694 14.2862C15.5376 14.6256 15.3798 14.8673 15.1252 15.1217C14.8707 15.3762 14.629 15.5338 14.2895 15.6656C14.0334 15.7656 13.6483 15.8838 12.9392 15.9162C12.1726 15.9511 11.9423 15.9587 10.0005 15.9587C8.05862 15.9587 7.82847 15.9511 7.06183 15.9162C6.35276 15.8835 5.96792 15.765 5.71142 15.6655C5.37203 15.5337 5.12962 15.3761 4.87508 15.1215C4.62054 14.867 4.46297 14.6252 4.33085 14.2856C4.23131 14.0296 4.11268 13.6447 4.08041 12.9356C4.04556 12.169 4.03859 11.9387 4.03859 9.99654C4.03859 8.05441 4.04556 7.82532 4.08041 7.05866C4.11283 6.34957 4.23131 5.96472 4.33085 5.70835C4.46267 5.36896 4.62054 5.12654 4.87508 4.87199C5.12962 4.61745 5.37203 4.45987 5.71142 4.32775C5.96777 4.22775 6.35276 4.10957 7.06183 4.07699C7.73272 4.04669 7.99271 4.0376 9.34813 4.03608V4.0379ZM13.8825 5.24548C13.4007 5.24548 13.0098 5.63593 13.0098 6.1179C13.0098 6.59972 13.4007 6.99063 13.8825 6.99063C14.3643 6.99063 14.7552 6.59972 14.7552 6.1179C14.7552 5.63608 14.3643 5.24517 13.8825 5.24517V5.24548ZM10.0005 6.26517C7.93802 6.26517 6.26579 7.93745 6.26579 10C6.26579 12.0626 7.93802 13.7341 10.0005 13.7341C12.063 13.7341 13.7347 12.0626 13.7347 10C13.7347 7.93745 12.0629 6.26517 10.0004 6.26517H10.0005ZM10.0005 7.57578C11.3393 7.57578 12.4247 8.66108 12.4247 10C12.4247 11.3388 11.3393 12.4243 10.0005 12.4243C8.66163 12.4243 7.57636 11.3388 7.57636 10C7.57636 8.66108 8.66163 7.57578 10.0005 7.57578Z" fill="white"/>
</svg>
