<svg width="236" height="60" viewBox="0 0 236 60" fill="none" xmlns="http://www.w3.org/2000/svg">
<rect width="60" height="60" rx="5" fill="#E5E5E5"/>
<path d="M34.8166 45.5332V49.5039C34.8135 49.947 34.9558 50.3789 35.2218 50.7333C35.7495 51.425 36.8757 52.3826 39.0652 52.3826C41.2547 52.3826 42.3809 51.4248 42.9086 50.7333C43.1746 50.3789 43.317 49.947 43.3138 49.5039V47.7468L34.8166 45.5332Z" fill="#FFCAC0"/>
<path d="M34.8164 45.533C36.1817 46.6978 39.065 48.4027 43.3135 47.7466V43.1108H34.8164V45.533Z" fill="#E5837C"/>
<path d="M39.0651 26.3265C39.0651 26.3265 30.5131 25.7734 31.7718 36.9839C31.7718 36.9839 31.8487 44.6717 39.0651 45.032C46.2815 44.6717 46.3584 36.9839 46.3584 36.9839C49.789 33.4559 47.8656 24.8879 47.8656 24.8879L39.0651 26.3265Z" fill="#FFCAC0"/>
<path d="M48.3896 29.2884C48.3379 27.8096 48.1627 26.3376 47.8658 24.8879L39.0653 26.3264C39.0653 26.3264 33.0158 25.936 31.8421 32.4817C32.1029 32.7499 33.2718 33.6607 35.7905 31.7233C37.5953 30.3576 39.6307 29.3273 41.7999 28.6815C41.7999 28.6815 41.5525 33.0093 46.9436 30.1159C47.4687 29.8346 47.9487 29.5582 48.3896 29.2884Z" fill="#E5837C"/>
<path d="M33.3651 30.1879C33.3651 30.1879 31.5767 32.269 31.7718 36.9838L29.3835 34.6578C29.3835 34.6578 28.2601 31.1634 29.073 28.5946L33.3647 26.3264C33.3647 26.3264 34.2431 27.7492 33.3651 30.1879Z" fill="#5C5C6D"/>
<path d="M18.3818 39.5446V12.3202C18.3818 11.5004 18.0562 10.7142 17.4765 10.1346C16.8969 9.5549 16.1107 9.22925 15.2909 9.22925C14.8849 9.22914 14.4829 9.309 14.1078 9.46429C13.7327 9.61957 13.3919 9.84723 13.1048 10.1343C12.8177 10.4213 12.5899 10.7621 12.4345 11.1371C12.2791 11.5122 12.1992 11.9142 12.1992 12.3202V12.7606C12.2773 12.912 12.318 13.0799 12.318 13.2502C12.318 13.4206 12.2773 13.5884 12.1992 13.7398V15.4076C12.3012 15.726 12.3012 16.0683 12.1992 16.3868V18.0546C12.3012 18.373 12.3012 18.7154 12.1992 19.0338V39.5242C12.2007 39.7531 12.1473 39.979 12.0432 40.183C11.9392 40.3869 11.7877 40.5628 11.6014 40.6959C10.4834 41.4797 9.64414 42.5992 9.20525 43.892C8.76636 45.1849 8.75067 46.584 9.16047 47.8864C9.57027 49.1888 10.3843 50.3268 11.4844 51.1354C12.5845 51.944 13.9136 52.3812 15.279 52.3836C16.6443 52.386 17.9749 51.9534 19.0779 51.1486C20.1808 50.3438 20.9987 49.2086 21.413 47.9077C21.8274 46.6067 21.8165 45.2076 21.3821 43.9132C20.9477 42.6188 20.1123 41.4964 18.9971 40.7088C18.8087 40.5783 18.6545 40.4044 18.5474 40.2018C18.4403 39.9992 18.3836 39.7738 18.3818 39.5446Z" fill="#E3F2FF"/>
<path d="M16.2827 42.0651V21.9506C16.2866 21.6876 16.1888 21.4334 16.0097 21.2409C15.8305 21.0484 15.5839 20.9326 15.3214 20.9177C15.1887 20.9136 15.0564 20.9362 14.9326 20.9842C14.8087 21.0322 14.6958 21.1045 14.6004 21.197C14.5051 21.2895 14.4293 21.4001 14.3775 21.5224C14.3258 21.6448 14.2991 21.7762 14.2992 21.9091V42.0654C14.2977 42.2732 14.2407 42.4769 14.1339 42.6552C14.0272 42.8335 13.8746 42.9799 13.6921 43.0793C13.0548 43.4333 12.5532 43.9889 12.2658 44.6589C11.9785 45.3289 11.9217 46.0753 12.1044 46.781C12.2871 47.4868 12.6989 48.1119 13.2752 48.5582C13.8516 49.0046 14.5598 49.247 15.2888 49.2473C16.0178 49.2477 16.7263 49.006 17.3031 48.5602C17.8799 48.1144 18.2923 47.4897 18.4757 46.7841C18.6591 46.0786 18.603 45.3321 18.3163 44.6618C18.0296 43.9916 17.5285 43.4355 16.8916 43.0809C16.7087 42.9813 16.5558 42.8346 16.4487 42.656C16.3416 42.4774 16.2843 42.2733 16.2827 42.0651Z" fill="#F74F73"/>
<path d="M43.3158 26.6137C43.3158 26.6137 37.8767 28.3527 33.6705 31.0945C33.5012 31.2036 33.3033 31.26 33.1018 31.2564C32.9004 31.2528 32.7046 31.1894 32.5393 31.0744C32.374 30.9593 32.2465 30.7977 32.1732 30.6101C32.0999 30.4225 32.084 30.2173 32.1275 30.0206C32.2875 29.3183 32.567 28.6488 32.9538 28.0412C31.5031 28.3243 30.1031 28.8235 28.8005 29.5221C28.5966 29.633 28.3652 29.6835 28.1336 29.6676C27.902 29.6516 27.6798 29.5699 27.493 29.432C27.3062 29.2942 27.1627 29.1059 27.0792 28.8893C26.9957 28.6727 26.9757 28.4367 27.0217 28.2092C27.2668 27.0164 27.8135 25.4787 28.9739 23.737C30.7682 21.083 33.2818 18.9955 36.2202 17.7192C37.5087 17.1453 38.8441 16.6833 40.2118 16.3382C41.2937 16.0634 42.435 16.1409 43.4698 16.5594C44.7647 17.0922 46.3357 18.1726 46.9208 20.3429C46.9208 20.3429 56.5552 26.4428 46.6928 36.4763C46.6928 36.4763 47.4339 32.6452 46.1797 28.6604C46.1787 28.6602 42.1057 30.5473 43.3158 26.6137Z" fill="#5C5C6D"/>
<path d="M32.021 36.7837C32.021 36.7837 31.8242 34.6987 30.4066 34.1678C30.2281 34.1027 30.0374 34.0775 29.848 34.094C29.6587 34.1105 29.4752 34.1682 29.3105 34.2631C29.1458 34.3581 29.0039 34.4879 28.8948 34.6435C28.7857 34.7992 28.7119 34.9768 28.6788 35.164C28.5728 35.7287 28.5567 36.5807 28.7745 37.8647C29.2887 40.8972 32.294 39.8153 32.294 39.8153L32.021 36.7837Z" fill="#FFCAC0"/>
<path d="M46.1112 36.7837C46.1112 36.7837 46.308 34.6987 47.7255 34.1678C47.9041 34.1027 48.0948 34.0775 48.2842 34.094C48.4735 34.1105 48.657 34.1682 48.8217 34.2631C48.9863 34.3581 49.1282 34.4879 49.2374 34.6435C49.3465 34.7992 49.4202 34.9768 49.4534 35.164C49.5594 35.7287 49.5755 36.5807 49.3577 37.8647C48.8435 40.8972 45.8381 39.8153 45.8381 39.8153L46.1112 36.7837Z" fill="#FFCAC0"/>
<path d="M39.0652 39.282C39.0652 39.282 37.3882 39.2669 36.4661 41.0562C36.4459 41.0948 36.436 41.1379 36.4372 41.1815C36.4385 41.225 36.451 41.2675 36.4734 41.3049C36.4958 41.3422 36.5275 41.3732 36.5653 41.3948C36.6031 41.4164 36.6459 41.4279 36.6895 41.4282H41.441C41.4846 41.4278 41.5273 41.4163 41.5652 41.3947C41.603 41.3731 41.6346 41.3421 41.657 41.3048C41.6794 41.2674 41.6919 41.225 41.6931 41.1814C41.6944 41.1379 41.6844 41.0948 41.6642 41.0562C40.7422 39.2669 39.0652 39.282 39.0652 39.282Z" fill="#EF7575"/>
<path d="M15.2346 18.5443C15.2346 18.4144 15.183 18.2899 15.0912 18.1981C14.9993 18.1063 14.8748 18.0547 14.745 18.0547H12.1998V19.0339H14.745C14.8093 19.0339 14.8729 19.0212 14.9323 18.9966C14.9917 18.972 15.0457 18.9359 15.0912 18.8905C15.1366 18.845 15.1727 18.791 15.1973 18.7316C15.2219 18.6722 15.2346 18.6086 15.2346 18.5443Z" fill="#84B4D3"/>
<path d="M13.7624 15.4075H12.1998V16.3867H13.7624C13.8922 16.3867 14.0168 16.3351 14.1086 16.2433C14.2004 16.1515 14.252 16.0269 14.252 15.8971C14.252 15.7672 14.2004 15.6427 14.1086 15.5509C14.0168 15.4591 13.8922 15.4075 13.7624 15.4075Z" fill="#84B4D3"/>
<path d="M13.7624 12.7605H12.1998V13.7397H13.7624C13.8922 13.7397 14.0168 13.6881 14.1086 13.5963C14.2004 13.5045 14.252 13.3799 14.252 13.2501C14.252 13.1202 14.2004 12.9957 14.1086 12.9039C14.0168 12.8121 13.8922 12.7605 13.7624 12.7605Z" fill="#84B4D3"/>
<path d="M34.7533 13.4058C34.6724 13.4058 34.5928 13.3857 34.5215 13.3473C34.4503 13.309 34.3897 13.2536 34.3451 13.1861C34.3005 13.1186 34.2733 13.0411 34.2659 12.9605C34.2586 12.8799 34.2713 12.7988 34.303 12.7243L34.8873 11.3515C34.9412 11.2239 34.9471 11.0811 34.9037 10.9496C34.8603 10.818 34.7708 10.7066 34.6515 10.6361C34.3251 10.4438 34.0804 10.1387 33.9635 9.77827C33.8466 9.41789 33.8657 9.0272 34.0171 8.67992L34.566 7.42345C34.5917 7.36454 34.6288 7.31128 34.6751 7.2667C34.7214 7.22212 34.7761 7.1871 34.8359 7.16364C34.8958 7.14018 34.9597 7.12874 35.024 7.12997C35.0882 7.1312 35.1516 7.14508 35.2105 7.17081C35.2694 7.19655 35.3227 7.23363 35.3673 7.27995C35.4119 7.32627 35.4469 7.38091 35.4703 7.44076C35.4938 7.50061 35.5052 7.5645 35.504 7.62877C35.5028 7.69304 35.4889 7.75645 35.4632 7.81535L34.9143 9.07183C34.8586 9.19967 34.8517 9.34346 34.8947 9.47608C34.9378 9.60871 35.0278 9.72101 35.1479 9.79183C35.4718 9.98332 35.7152 10.2858 35.8329 10.6432C35.9507 11.0005 35.9348 11.3885 35.7882 11.735L35.204 13.1078C35.1664 13.1962 35.1036 13.2716 35.0235 13.3246C34.9434 13.3776 34.8494 13.4058 34.7533 13.4058Z" fill="#F74F73"/>
<path d="M39.9699 13.4059C39.889 13.4058 39.8093 13.3857 39.7381 13.3474C39.6669 13.3091 39.6062 13.2537 39.5616 13.1862C39.517 13.1187 39.4898 13.0412 39.4825 12.9606C39.4751 12.88 39.4879 12.7989 39.5195 12.7244L40.1039 11.3516C40.1578 11.224 40.1636 11.0812 40.1203 10.9496C40.0769 10.8181 39.9873 10.7067 39.8681 10.6361C39.5417 10.4439 39.2969 10.1387 39.18 9.77835C39.0631 9.41798 39.0822 9.02728 39.2337 8.68L39.7823 7.42353C39.8355 7.30646 39.9326 7.21502 40.0527 7.16896C40.1728 7.1229 40.3061 7.12592 40.424 7.17736C40.5419 7.22881 40.6348 7.32455 40.6826 7.44391C40.7305 7.56327 40.7295 7.69667 40.6799 7.8153L40.1311 9.07177C40.0753 9.19957 40.0683 9.34336 40.1113 9.47601C40.1543 9.60865 40.2443 9.72097 40.3645 9.79177C40.6883 9.98321 40.9317 10.2856 41.0495 10.6429C41.1673 11.0003 41.1514 11.3881 41.0049 11.7346L40.4207 13.1074C40.3831 13.1959 40.3204 13.2714 40.2402 13.3245C40.16 13.3776 40.066 13.4059 39.9699 13.4059Z" fill="#F74F73"/>
<path d="M45.1863 13.4059C45.1054 13.4058 45.0258 13.3857 44.9546 13.3474C44.8833 13.3091 44.8227 13.2537 44.7781 13.1862C44.7335 13.1187 44.7063 13.0412 44.6989 12.9606C44.6916 12.88 44.7043 12.7989 44.736 12.7244L45.3203 11.3516C45.3743 11.224 45.3802 11.0812 45.3368 10.9496C45.2934 10.818 45.2038 10.7067 45.0846 10.6361C44.7581 10.4438 44.5134 10.1387 44.3965 9.77834C44.2796 9.41797 44.2987 9.02728 44.4501 8.68L44.9987 7.42353C45.0519 7.30646 45.1491 7.21502 45.2692 7.16896C45.3892 7.1229 45.5226 7.12592 45.6405 7.17736C45.7583 7.22881 45.8512 7.32455 45.8991 7.44391C45.947 7.56327 45.946 7.69667 45.8963 7.8153L45.3476 9.07177C45.2918 9.19957 45.2848 9.34336 45.3277 9.47601C45.3707 9.60865 45.4608 9.72097 45.5809 9.79177C45.9048 9.98326 46.1483 10.2858 46.266 10.6432C46.3838 11.0006 46.3678 11.3885 46.2212 11.7351L45.6368 13.1079C45.5993 13.1962 45.5365 13.2716 45.4564 13.3246C45.3763 13.3776 45.2824 13.4059 45.1863 13.4059Z" fill="#F74F73"/>
<path d="M34.999 35.7081C34.9204 35.7087 34.8417 35.7053 34.7634 35.6979C34.6342 35.6841 34.5159 35.6195 34.4343 35.5183C34.3528 35.4172 34.3147 35.2878 34.3286 35.1586C34.3425 35.0295 34.4071 34.9111 34.5082 34.8295C34.6093 34.748 34.7387 34.71 34.8679 34.7238C34.92 34.7289 36.0233 34.8241 36.802 33.9756C36.8455 33.9282 36.8979 33.8899 36.9562 33.8628C37.0145 33.8357 37.0776 33.8203 37.1418 33.8176C37.2061 33.8148 37.2702 33.8248 37.3306 33.8469C37.391 33.8689 37.4465 33.9027 37.4938 33.9461C37.5412 33.9896 37.5795 34.042 37.6066 34.1003C37.6338 34.1587 37.6491 34.2217 37.6518 34.286C37.6546 34.3502 37.6446 34.4144 37.6226 34.4748C37.6005 34.5352 37.5668 34.5906 37.5233 34.638C36.6442 35.5962 35.4902 35.7081 34.999 35.7081Z" fill="#E5837C"/>
<path d="M43.1334 35.7084C42.6424 35.7084 41.4884 35.5964 40.6086 34.6386C40.5648 34.5912 40.5308 34.5358 40.5085 34.4753C40.4862 34.4148 40.4761 34.3505 40.4787 34.2861C40.4814 34.2217 40.4967 34.1584 40.5238 34.1C40.5509 34.0415 40.5893 33.989 40.6368 33.9454C40.6843 33.9018 40.7399 33.868 40.8005 33.8459C40.861 33.8239 40.9254 33.814 40.9898 33.8169C41.0541 33.8198 41.1173 33.8353 41.1757 33.8627C41.2341 33.89 41.2865 33.9286 41.3299 33.9763C42.1115 34.8274 43.2182 34.729 43.2651 34.7245C43.3291 34.7177 43.3937 34.7236 43.4554 34.7417C43.5171 34.7599 43.5747 34.7901 43.6247 34.8305C43.6748 34.8709 43.7164 34.9207 43.7472 34.9772C43.7779 35.0337 43.7973 35.0957 43.8041 35.1596C43.8109 35.2236 43.8051 35.2883 43.7869 35.35C43.7687 35.4117 43.7386 35.4692 43.6982 35.5193C43.6578 35.5693 43.6079 35.6109 43.5514 35.6417C43.495 35.6725 43.433 35.6918 43.369 35.6987C43.2907 35.7059 43.212 35.7091 43.1334 35.7084Z" fill="#E5837C"/>
<path d="M30.6694 35.7308C30.4555 35.4799 30.1516 35.323 29.8232 35.2938C29.754 35.2918 29.6868 35.3171 29.6361 35.3642C29.5855 35.4113 29.5554 35.4765 29.5524 35.5457C29.5495 35.6153 29.5741 35.6834 29.6208 35.7351C29.6675 35.7869 29.7327 35.8183 29.8023 35.8225C29.9953 35.86 30.1709 35.9592 30.3027 36.1051C30.4345 36.251 30.5153 36.4358 30.533 36.6316C30.533 36.6316 30.1774 36.5566 30.1442 37.0814C30.111 37.6061 30.3005 37.9452 30.894 37.954C30.9578 37.9501 31.018 37.9232 31.0636 37.8784C31.1091 37.8336 31.1369 37.7738 31.1418 37.71C31.2101 36.8226 31.0511 36.1565 30.6694 35.7308Z" fill="#E5837C"/>
<path d="M47.509 35.7082C47.7284 35.451 48.04 35.2901 48.3768 35.2601C48.4477 35.2581 48.5166 35.284 48.5686 35.3324C48.6205 35.3807 48.6513 35.4476 48.6543 35.5185C48.6573 35.5899 48.6321 35.6596 48.5842 35.7126C48.5364 35.7657 48.4696 35.7979 48.3983 35.8022C48.2003 35.8407 48.0203 35.9424 47.8851 36.092C47.75 36.2416 47.6672 36.4311 47.649 36.6319C47.649 36.6319 48.0137 36.555 48.0476 37.093C48.0815 37.631 47.8873 37.9788 47.2789 37.9877C47.2135 37.9837 47.1517 37.9563 47.1049 37.9103C47.0582 37.8643 47.0297 37.803 47.0248 37.7376C46.9552 36.8276 47.1177 36.1447 47.509 35.7082Z" fill="#E5837C"/>
<path d="M15.0211 52.8654C15.112 52.8688 15.2027 52.8705 15.2933 52.8706C17.1268 52.8697 18.885 52.1407 20.1812 50.8439C21.4774 49.5471 22.2056 47.7887 22.2057 45.9551C22.2045 44.8484 21.9382 43.7581 21.4291 42.7754C20.9201 41.7927 20.1831 40.9462 19.2798 40.3068C19.1556 40.2214 19.0536 40.1075 18.9824 39.9747C18.9111 39.8418 18.8728 39.6939 18.8704 39.5432V12.3186C18.8704 11.3689 18.4932 10.4582 17.8217 9.78675C17.1502 9.11527 16.2395 8.73804 15.2899 8.73804C14.3403 8.73804 13.4296 9.11527 12.7581 9.78675C12.0866 10.4582 11.7094 11.3689 11.7094 12.3186V39.5233C11.711 39.6735 11.6764 39.8219 11.6086 39.956C11.5407 40.0901 11.4417 40.2059 11.3197 40.2937C10.1349 41.1247 9.24066 42.3064 8.76294 43.6725C8.28522 45.0386 8.24811 46.5201 8.65685 47.9084C9.06559 49.2967 9.89956 50.5218 11.0413 51.411C12.183 52.3003 13.575 52.809 15.0211 52.8654ZM11.8827 41.0944C12.1333 40.9162 12.3373 40.6804 12.4776 40.4068C12.6179 40.1333 12.6903 39.83 12.6889 39.5225V12.3186C12.6889 11.6286 12.9629 10.967 13.4508 10.4791C13.9386 9.9913 14.6003 9.71724 15.2902 9.71724C15.9801 9.71724 16.6418 9.9913 17.1296 10.4791C17.6174 10.967 17.8915 11.6286 17.8915 12.3186V39.5436C17.8939 39.8509 17.9698 40.1531 18.113 40.425C18.2561 40.6969 18.4623 40.9306 18.7143 41.1065C19.4898 41.6555 20.1226 42.3821 20.5596 43.2258C20.9967 44.0694 21.2254 45.0054 21.2265 45.9555C21.2265 46.7546 21.0651 47.5455 20.7521 48.2807C20.4391 49.016 19.9809 49.6804 19.4049 50.2343C18.829 50.7882 18.1471 51.2201 17.4002 51.5042C16.6533 51.7882 15.8567 51.9185 15.0582 51.8873C13.8168 51.8389 12.6218 51.4021 11.6417 50.6386C10.6616 49.8751 9.94575 48.8232 9.59506 47.6314C9.24437 46.4395 9.27649 45.1676 9.68691 43.9949C10.0973 42.8222 10.8653 41.8079 11.8827 41.0948V41.0944Z" fill="#3C3C4F"/>
<path d="M15.2903 49.7365C16.1621 49.7367 17.0073 49.4357 17.6826 48.8844C18.358 48.333 18.8221 47.5653 18.9963 46.711C19.1706 45.8568 19.0444 44.9686 18.639 44.1967C18.2336 43.4249 17.5739 42.8169 16.7717 42.4755V21.9074C16.7717 21.5145 16.6156 21.1377 16.3378 20.8599C16.06 20.5821 15.6832 20.426 15.2903 20.426C14.8974 20.426 14.5206 20.5821 14.2428 20.8599C13.965 21.1377 13.8089 21.5145 13.8089 21.9074V42.4755C13.0067 42.8169 12.347 43.4249 11.9416 44.1967C11.5362 44.9686 11.41 45.8568 11.5843 46.711C11.7585 47.5653 12.2226 48.333 12.898 48.8844C13.5734 49.4357 14.4185 49.7367 15.2903 49.7365ZM14.4459 43.2838C14.5452 43.2524 14.6319 43.1903 14.6934 43.1063C14.755 43.0224 14.7881 42.921 14.7881 42.8169V21.9087C14.7881 21.7755 14.841 21.6478 14.9352 21.5536C15.0294 21.4594 15.1571 21.4065 15.2903 21.4065C15.4235 21.4065 15.5512 21.4594 15.6454 21.5536C15.7396 21.6478 15.7925 21.7755 15.7925 21.9087V42.8169C15.7925 42.921 15.8257 43.0224 15.8872 43.1063C15.9487 43.1903 16.0354 43.2524 16.1347 43.2838C16.7726 43.4854 17.3173 43.9087 17.6703 44.477C18.0232 45.0453 18.1612 45.7211 18.0592 46.3823C17.9572 47.0435 17.6219 47.6464 17.1141 48.0819C16.6062 48.5174 15.9593 48.7568 15.2903 48.7568C14.6213 48.7568 13.9744 48.5174 13.4665 48.0819C12.9587 47.6464 12.6234 47.0435 12.5214 46.3823C12.4194 45.7211 12.5574 45.0453 12.9103 44.477C13.2633 43.9087 13.808 43.4854 14.4459 43.2838Z" fill="#3C3C4F"/>
<path d="M27.1961 29.8205C27.5153 30.0597 27.9085 30.1789 28.3068 30.1575C28.2141 31.6737 28.4993 33.1893 28.7229 34.0993C28.4508 34.361 28.267 34.701 28.1971 35.072C28.0601 35.8017 28.0918 36.7682 28.2914 37.9449C28.4651 38.9693 28.9152 39.7001 29.6292 40.1172C30.0869 40.3722 30.6042 40.5009 31.128 40.4901C31.4149 40.4889 31.7011 40.4592 31.9822 40.4014C32.4302 41.5848 33.1554 42.8414 34.3266 43.8153V49.5021C34.3242 50.0524 34.5017 50.5885 34.8321 51.0286C35.3572 51.7164 36.6052 52.8704 39.0646 52.8704C41.524 52.8704 42.7723 51.7164 43.2971 51.0286C43.6275 50.5885 43.8051 50.0524 43.8028 49.5021V43.8155C44.9745 42.8414 45.6993 41.5849 46.1471 40.401C46.4289 40.4591 46.7158 40.4889 47.0035 40.4901C47.5273 40.5008 48.0445 40.3721 48.5021 40.1172C49.2162 39.7002 49.6663 38.9693 49.84 37.9449C50.0395 36.7685 50.0711 35.802 49.9342 35.072C49.861 34.6789 49.6601 34.3209 49.3626 34.0537C51.2452 31.3582 51.9602 28.7116 51.4802 26.1824C50.8111 22.653 48.047 20.5266 47.3412 20.0346C46.6595 17.7646 44.9695 16.6454 43.6548 16.1042C42.5229 15.6485 41.2758 15.5632 40.0924 15.8606C38.6972 16.2122 37.3349 16.6834 36.0207 17.2691C32.9965 18.582 30.4101 20.731 28.5653 23.4635C27.5388 25.0043 26.8578 26.5671 26.541 28.1082C26.4737 28.4264 26.4997 28.7572 26.6159 29.061C26.7321 29.3647 26.9336 29.6285 27.1961 29.8205ZM32.1417 31.3815C31.7725 32.2957 31.5231 33.2538 31.3999 34.232C31.1651 34.0023 30.8852 33.8238 30.5779 33.7077C30.2717 33.593 29.9395 33.5658 29.6186 33.629C29.419 32.7505 29.1547 31.2197 29.3203 29.8002C30.185 29.3651 31.0904 29.0164 32.0236 28.7592C31.8595 29.1317 31.7335 29.5199 31.6473 29.9178C31.5906 30.1837 31.6066 30.46 31.6936 30.7175C31.7806 30.9751 31.9354 31.2045 32.1417 31.3815ZM30.1229 39.2717C29.6712 39.0077 29.3796 38.5063 29.2567 37.7812C29.0765 36.719 29.0438 35.8684 29.1594 35.2529C29.1815 35.1328 29.2296 35.0191 29.3003 34.9197C29.371 34.8202 29.4627 34.7375 29.5688 34.6773C29.6689 34.6197 29.7805 34.5851 29.8956 34.5761C30.0107 34.567 30.1263 34.5836 30.2342 34.6248C31.3353 35.037 31.5281 36.7832 31.533 36.8284L31.7689 39.4447C31.3567 39.5265 30.6669 39.5894 30.1231 39.2717H30.1229ZM42.8234 49.5021C42.8261 49.8378 42.7191 50.1652 42.5186 50.4345C42.0115 51.0991 41.0006 51.8912 39.0645 51.8912C37.1284 51.8912 36.1176 51.0991 35.6104 50.4345C35.4099 50.1652 35.3029 49.8378 35.3056 49.5021V44.4955C36.2913 45.0602 37.516 45.4432 39.04 45.5193C39.0482 45.5193 39.0563 45.5193 39.0645 45.5193C39.0727 45.5193 39.0807 45.5193 39.0889 45.5193C40.6136 45.4432 41.8376 45.0605 42.8234 44.4955V49.5021ZM48.8752 37.7813C48.7527 38.5043 48.4626 39.0049 48.0129 39.2693C47.4657 39.5911 46.7755 39.528 46.3631 39.4457L46.5989 36.8284C46.6037 36.7832 46.7966 35.037 47.8977 34.6248C48.0056 34.5836 48.1212 34.567 48.2363 34.576C48.3513 34.5851 48.4629 34.6197 48.563 34.6773C48.6691 34.7375 48.7607 34.8202 48.8315 34.9196C48.9022 35.019 48.9503 35.1327 48.9724 35.2527C49.087 35.8685 49.0547 36.72 48.8752 37.7813ZM27.5001 28.3058C27.7914 26.8884 28.424 25.4419 29.3802 24.0066C31.1219 21.4292 33.5632 19.4027 36.4171 18.1651C37.6797 17.6024 38.9884 17.1496 40.3287 16.8115C41.3095 16.5638 42.3436 16.6333 43.2824 17.0103C44.4276 17.4816 45.9062 18.4644 46.4471 20.4691C46.479 20.5876 46.5543 20.6897 46.6579 20.7553C46.6897 20.7755 49.8441 22.8089 50.5184 26.3654C50.9543 28.6647 50.2629 31.1055 48.4695 33.6225C48.1619 33.5695 47.8458 33.5992 47.5534 33.7084C47.5 33.7284 47.4483 33.7501 47.3981 33.7733C47.4057 32.59 47.2997 31.4088 47.0816 30.2457C47.0695 30.1826 47.045 30.1225 47.0097 30.0688C46.9743 30.0151 46.9287 29.9688 46.8755 29.9328C46.8223 29.8967 46.7625 29.8714 46.6995 29.8585C46.6365 29.8455 46.5716 29.845 46.5085 29.8572C46.4453 29.8693 46.3852 29.8937 46.3315 29.9291C46.2778 29.9644 46.2316 30.01 46.1955 30.0632C46.1594 30.1165 46.1342 30.1763 46.1212 30.2392C46.1082 30.3022 46.1078 30.3671 46.1199 30.4303C46.3766 31.8122 46.4693 33.2196 46.3962 34.6232C45.7483 35.5219 45.6303 36.6689 45.6238 36.7372V36.7393L45.3567 39.7053C44.6519 41.8098 42.9886 44.335 39.0653 44.5411C35.1472 44.3353 33.4833 41.8164 32.7769 39.7136L32.5087 36.7393V36.7372C32.4648 36.3642 32.3796 35.9973 32.2545 35.6432C32.2573 35.6292 32.2593 35.6151 32.2606 35.6009C32.3377 33.8302 32.7124 32.5575 33.0499 31.7496C33.3641 31.7635 33.6746 31.6777 33.9369 31.5043C37.0804 29.4554 40.9716 27.9578 42.6413 27.3625C42.5229 28.2014 42.6854 28.8193 43.1277 29.2054C44.1512 30.0991 46.159 29.2085 46.3845 29.1041L47.2932 28.6805C47.4109 28.6257 47.502 28.5263 47.5464 28.4043C47.5909 28.2823 47.585 28.1476 47.5302 28.0299C47.4753 27.9122 47.376 27.8211 47.254 27.7767C47.1319 27.7322 46.9973 27.7381 46.8796 27.7929L45.9717 28.2165C45.4389 28.4616 44.201 28.8454 43.7702 28.4683C43.5128 28.2432 43.5172 27.6197 43.7823 26.7581C43.8086 26.6726 43.811 26.5816 43.7892 26.4948C43.7674 26.4081 43.7222 26.3289 43.6586 26.266C43.595 26.2032 43.5154 26.1589 43.4284 26.138C43.3414 26.1172 43.2504 26.1206 43.1652 26.1478C42.9406 26.2197 37.6146 27.9385 33.4012 30.6848C33.3159 30.742 33.2153 30.772 33.1126 30.7709C33.0099 30.7698 32.9099 30.7376 32.8259 30.6786C32.737 30.6192 32.6683 30.5342 32.6287 30.4348C32.5892 30.3355 32.5808 30.2265 32.6045 30.1222C32.7538 29.475 33.0123 28.858 33.369 28.2977C33.418 28.2177 33.4431 28.1253 33.4411 28.0315C33.4392 27.9377 33.4103 27.8464 33.3579 27.7686C33.3056 27.6907 33.232 27.6295 33.1459 27.5923C33.0598 27.5551 32.9648 27.5434 32.8722 27.5586C31.3672 27.8491 29.9149 28.3662 28.565 29.0923C28.4427 29.1608 28.3031 29.1919 28.1633 29.1818C28.0235 29.1718 27.8897 29.1211 27.7784 29.0359C27.6657 28.9547 27.5793 28.8423 27.5298 28.7126C27.4804 28.5828 27.47 28.4414 27.5001 28.3058Z" fill="#3C3C4F"/>
<path d="M39.0657 38.7908H39.0635C38.9137 38.7908 36.8065 38.8351 35.8416 41.2445C35.8119 41.3188 35.8008 41.3993 35.8093 41.4788C35.8179 41.5584 35.8458 41.6346 35.8906 41.7009C35.9355 41.7672 35.9959 41.8214 36.0666 41.859C36.1372 41.8965 36.216 41.9161 36.296 41.9161H41.833C41.913 41.9161 41.9918 41.8965 42.0625 41.8589C42.1332 41.8214 42.1936 41.7672 42.2384 41.7009C42.2833 41.6346 42.3112 41.5584 42.3198 41.4788C42.3284 41.3993 42.3173 41.3188 42.2876 41.2445C41.3224 38.835 39.2153 38.7908 39.0657 38.7908ZM37.1033 40.9366C37.3162 40.6026 37.6045 40.323 37.9448 40.1203C38.2852 39.9176 38.6684 39.7974 39.0635 39.7694H39.0652C39.4605 39.7974 39.8437 39.9176 40.1842 40.1203C40.5247 40.3231 40.8129 40.6027 41.0259 40.9369L37.1033 40.9366Z" fill="#3C3C4F"/>
<path d="M79.298 27.084C78.57 27.084 77.87 26.9673 77.198 26.734C76.5353 26.5007 76.022 26.1927 75.658 25.81L76.064 25.012C76.4187 25.3667 76.89 25.656 77.478 25.88C78.066 26.0947 78.6727 26.202 79.298 26.202C80.1753 26.202 80.8333 26.0433 81.272 25.726C81.7107 25.3993 81.93 24.9793 81.93 24.466C81.93 24.074 81.8087 23.7613 81.566 23.528C81.3327 23.2947 81.0433 23.1173 80.698 22.996C80.3527 22.8653 79.872 22.7253 79.256 22.576C78.5187 22.3893 77.9307 22.212 77.492 22.044C77.0533 21.8667 76.6753 21.6007 76.358 21.246C76.05 20.8913 75.896 20.4107 75.896 19.804C75.896 19.3093 76.0267 18.8613 76.288 18.46C76.5493 18.0493 76.9507 17.7227 77.492 17.48C78.0333 17.2373 78.7053 17.116 79.508 17.116C80.068 17.116 80.614 17.1953 81.146 17.354C81.6873 17.5033 82.154 17.7133 82.546 17.984L82.196 18.81C81.7853 18.5393 81.3467 18.3387 80.88 18.208C80.4133 18.068 79.956 17.998 79.508 17.998C78.6493 17.998 78.0007 18.166 77.562 18.502C77.1327 18.8287 76.918 19.2533 76.918 19.776C76.918 20.168 77.0347 20.4853 77.268 20.728C77.5107 20.9613 77.8093 21.1433 78.164 21.274C78.528 21.3953 79.0133 21.5307 79.62 21.68C80.3387 21.8573 80.9173 22.0347 81.356 22.212C81.804 22.38 82.182 22.6413 82.49 22.996C82.798 23.3413 82.952 23.8127 82.952 24.41C82.952 24.9047 82.8167 25.3573 82.546 25.768C82.2847 26.1693 81.8787 26.4913 81.328 26.734C80.7773 26.9673 80.1007 27.084 79.298 27.084ZM93.0353 19.636V27H92.0833V25.656C91.8219 26.104 91.4626 26.454 91.0053 26.706C90.5479 26.9487 90.0253 27.07 89.4373 27.07C88.4759 27.07 87.7153 26.804 87.1553 26.272C86.6046 25.7307 86.3293 24.942 86.3293 23.906V19.636H87.3233V23.808C87.3233 24.5827 87.5146 25.1707 87.8973 25.572C88.2799 25.9733 88.8259 26.174 89.5353 26.174C90.3099 26.174 90.9213 25.9407 91.3693 25.474C91.8173 24.998 92.0413 24.34 92.0413 23.5V19.636H93.0353ZM100.971 19.58C101.895 19.58 102.628 19.8507 103.169 20.392C103.72 20.924 103.995 21.7033 103.995 22.73V27H103.001V22.828C103.001 22.0627 102.81 21.4793 102.427 21.078C102.045 20.6767 101.499 20.476 100.789 20.476C99.9959 20.476 99.3659 20.714 98.8992 21.19C98.4419 21.6567 98.2132 22.3053 98.2132 23.136V27H97.2192V16.612H98.2132V20.924C98.4839 20.4947 98.8572 20.1633 99.3332 19.93C99.8092 19.6967 100.355 19.58 100.971 19.58ZM114.73 19.636V27H113.778V25.656C113.516 26.104 113.157 26.454 112.7 26.706C112.242 26.9487 111.72 27.07 111.132 27.07C110.17 27.07 109.41 26.804 108.85 26.272C108.299 25.7307 108.024 24.942 108.024 23.906V19.636H109.018V23.808C109.018 24.5827 109.209 25.1707 109.592 25.572C109.974 25.9733 110.52 26.174 111.23 26.174C112.004 26.174 112.616 25.9407 113.064 25.474C113.512 24.998 113.736 24.34 113.736 23.5V19.636H114.73ZM127.856 26.552C127.669 26.72 127.436 26.8507 127.156 26.944C126.885 27.028 126.6 27.07 126.302 27.07C125.611 27.07 125.079 26.8833 124.706 26.51C124.332 26.1367 124.146 25.6093 124.146 24.928V20.476H122.83V19.636H124.146V18.026H125.14V19.636H127.38V20.476H125.14V24.872C125.14 25.3107 125.247 25.6467 125.462 25.88C125.686 26.104 126.003 26.216 126.414 26.216C126.619 26.216 126.815 26.1833 127.002 26.118C127.198 26.0527 127.366 25.9593 127.506 25.838L127.856 26.552ZM137.701 19.636V27H136.749V25.656C136.488 26.104 136.129 26.454 135.671 26.706C135.214 26.9487 134.691 27.07 134.103 27.07C133.142 27.07 132.381 26.804 131.821 26.272C131.271 25.7307 130.995 24.942 130.995 23.906V19.636H131.989V23.808C131.989 24.5827 132.181 25.1707 132.563 25.572C132.946 25.9733 133.492 26.174 134.201 26.174C134.976 26.174 135.587 25.9407 136.035 25.474C136.483 24.998 136.707 24.34 136.707 23.5V19.636H137.701ZM145.679 19.58C146.37 19.58 146.995 19.7387 147.555 20.056C148.115 20.364 148.554 20.8027 148.871 21.372C149.189 21.9413 149.347 22.59 149.347 23.318C149.347 24.046 149.189 24.6947 148.871 25.264C148.554 25.8333 148.115 26.2767 147.555 26.594C146.995 26.9113 146.37 27.07 145.679 27.07C145.063 27.07 144.508 26.9393 144.013 26.678C143.528 26.4167 143.136 26.0387 142.837 25.544V27H141.885V16.612H142.879V21.036C143.187 20.56 143.579 20.2007 144.055 19.958C144.541 19.706 145.082 19.58 145.679 19.58ZM145.609 26.188C146.123 26.188 146.589 26.0713 147.009 25.838C147.429 25.5953 147.756 25.2547 147.989 24.816C148.232 24.3773 148.353 23.878 148.353 23.318C148.353 22.758 148.232 22.2587 147.989 21.82C147.756 21.3813 147.429 21.0453 147.009 20.812C146.589 20.5693 146.123 20.448 145.609 20.448C145.087 20.448 144.615 20.5693 144.195 20.812C143.785 21.0453 143.458 21.3813 143.215 21.82C142.982 22.2587 142.865 22.758 142.865 23.318C142.865 23.878 142.982 24.3773 143.215 24.816C143.458 25.2547 143.785 25.5953 144.195 25.838C144.615 26.0713 145.087 26.188 145.609 26.188ZM159.409 19.636V27H158.457V25.656C158.196 26.104 157.837 26.454 157.379 26.706C156.922 26.9487 156.399 27.07 155.811 27.07C154.85 27.07 154.089 26.804 153.529 26.272C152.979 25.7307 152.703 24.942 152.703 23.906V19.636H153.697V23.808C153.697 24.5827 153.889 25.1707 154.271 25.572C154.654 25.9733 155.2 26.174 155.909 26.174C156.684 26.174 157.295 25.9407 157.743 25.474C158.191 24.998 158.415 24.34 158.415 23.5V19.636H159.409ZM167.345 19.58C168.269 19.58 169.002 19.8507 169.543 20.392C170.094 20.924 170.369 21.7033 170.369 22.73V27H169.375V22.828C169.375 22.0627 169.184 21.4793 168.801 21.078C168.419 20.6767 167.873 20.476 167.163 20.476C166.37 20.476 165.74 20.714 165.273 21.19C164.816 21.6567 164.587 22.3053 164.587 23.136V27H163.593V16.612H164.587V20.924C164.858 20.4947 165.231 20.1633 165.707 19.93C166.183 19.6967 166.729 19.58 167.345 19.58ZM183.284 19.58C184.208 19.58 184.941 19.8507 185.482 20.392C186.033 20.924 186.308 21.7033 186.308 22.73V27H185.314V22.828C185.314 22.0627 185.123 21.4793 184.74 21.078C184.357 20.6767 183.811 20.476 183.102 20.476C182.309 20.476 181.679 20.714 181.212 21.19C180.755 21.6567 180.526 22.3053 180.526 23.136V27H179.532V19.636H180.484V20.994C180.755 20.546 181.128 20.2007 181.604 19.958C182.089 19.706 182.649 19.58 183.284 19.58ZM193.444 27.07C192.735 27.07 192.095 26.9113 191.526 26.594C190.957 26.2673 190.509 25.8193 190.182 25.25C189.855 24.6807 189.692 24.0367 189.692 23.318C189.692 22.5993 189.855 21.9553 190.182 21.386C190.509 20.8167 190.957 20.3733 191.526 20.056C192.095 19.7387 192.735 19.58 193.444 19.58C194.153 19.58 194.793 19.7387 195.362 20.056C195.931 20.3733 196.375 20.8167 196.692 21.386C197.019 21.9553 197.182 22.5993 197.182 23.318C197.182 24.0367 197.019 24.6807 196.692 25.25C196.375 25.8193 195.931 26.2673 195.362 26.594C194.793 26.9113 194.153 27.07 193.444 27.07ZM193.444 26.188C193.967 26.188 194.433 26.0713 194.844 25.838C195.264 25.5953 195.591 25.2547 195.824 24.816C196.057 24.3773 196.174 23.878 196.174 23.318C196.174 22.758 196.057 22.2587 195.824 21.82C195.591 21.3813 195.264 21.0453 194.844 20.812C194.433 20.5693 193.967 20.448 193.444 20.448C192.921 20.448 192.45 20.5693 192.03 20.812C191.619 21.0453 191.293 21.3813 191.05 21.82C190.817 22.2587 190.7 22.758 190.7 23.318C190.7 23.878 190.817 24.3773 191.05 24.816C191.293 25.2547 191.619 25.5953 192.03 25.838C192.45 26.0713 192.921 26.188 193.444 26.188ZM201.563 21.078C201.797 20.5833 202.142 20.21 202.599 19.958C203.066 19.706 203.64 19.58 204.321 19.58V20.546L204.083 20.532C203.309 20.532 202.702 20.77 202.263 21.246C201.825 21.722 201.605 22.3893 201.605 23.248V27H200.611V19.636H201.563V21.078ZM216.705 19.58C217.629 19.58 218.352 19.846 218.875 20.378C219.407 20.91 219.673 21.694 219.673 22.73V27H218.679V22.828C218.679 22.0627 218.492 21.4793 218.119 21.078C217.755 20.6767 217.237 20.476 216.565 20.476C215.8 20.476 215.198 20.714 214.759 21.19C214.32 21.6567 214.101 22.3053 214.101 23.136V27H213.107V22.828C213.107 22.0627 212.92 21.4793 212.547 21.078C212.183 20.6767 211.66 20.476 210.979 20.476C210.223 20.476 209.621 20.714 209.173 21.19C208.734 21.6567 208.515 22.3053 208.515 23.136V27H207.521V19.636H208.473V20.98C208.734 20.532 209.098 20.1867 209.565 19.944C210.032 19.7013 210.568 19.58 211.175 19.58C211.791 19.58 212.323 19.7107 212.771 19.972C213.228 20.2333 213.569 20.6207 213.793 21.134C214.064 20.6487 214.451 20.2707 214.955 20C215.468 19.72 216.052 19.58 216.705 19.58ZM226.345 19.58C227.306 19.58 228.043 19.8227 228.557 20.308C229.07 20.784 229.327 21.4933 229.327 22.436V27H228.375V25.852C228.151 26.2347 227.819 26.5333 227.381 26.748C226.951 26.9627 226.438 27.07 225.841 27.07C225.019 27.07 224.366 26.874 223.881 26.482C223.395 26.09 223.153 25.572 223.153 24.928C223.153 24.3027 223.377 23.7987 223.825 23.416C224.282 23.0333 225.005 22.842 225.995 22.842H228.333V22.394C228.333 21.7593 228.155 21.2787 227.801 20.952C227.446 20.616 226.928 20.448 226.247 20.448C225.78 20.448 225.332 20.5273 224.903 20.686C224.473 20.8353 224.105 21.0453 223.797 21.316L223.349 20.574C223.722 20.2567 224.17 20.014 224.693 19.846C225.215 19.6687 225.766 19.58 226.345 19.58ZM225.995 26.286C226.555 26.286 227.035 26.16 227.437 25.908C227.838 25.6467 228.137 25.2733 228.333 24.788V23.584H226.023C224.763 23.584 224.133 24.0227 224.133 24.9C224.133 25.3293 224.296 25.67 224.623 25.922C224.949 26.1647 225.407 26.286 225.995 26.286ZM233.427 16.612H234.421V27H233.427V16.612ZM78.08 46.716C77.5573 45.8573 77.156 44.8727 76.876 43.762C76.596 42.642 76.456 41.4427 76.456 40.164C76.456 38.8853 76.596 37.686 76.876 36.566C77.156 35.4367 77.5573 34.452 78.08 33.612H79.032C78.4813 34.5547 78.0753 35.5673 77.814 36.65C77.562 37.7327 77.436 38.904 77.436 40.164C77.436 41.424 77.562 42.5953 77.814 43.678C78.0753 44.7607 78.4813 45.7733 79.032 46.716H78.08ZM84.3674 44.07C83.7701 44.07 83.1961 43.986 82.6454 43.818C82.1041 43.6407 81.6794 43.4213 81.3714 43.16L81.8194 42.376C82.1274 42.6187 82.5148 42.8193 82.9814 42.978C83.4481 43.1273 83.9334 43.202 84.4374 43.202C85.1094 43.202 85.6041 43.0993 85.9214 42.894C86.2481 42.6793 86.4114 42.3807 86.4114 41.998C86.4114 41.7273 86.3228 41.5173 86.1454 41.368C85.9681 41.2093 85.7441 41.0927 85.4734 41.018C85.2028 40.934 84.8434 40.8547 84.3954 40.78C83.7981 40.668 83.3174 40.556 82.9534 40.444C82.5894 40.3227 82.2768 40.122 82.0154 39.842C81.7634 39.562 81.6374 39.1747 81.6374 38.68C81.6374 38.064 81.8941 37.56 82.4074 37.168C82.9208 36.776 83.6348 36.58 84.5494 36.58C85.0254 36.58 85.5014 36.6453 85.9774 36.776C86.4534 36.8973 86.8454 37.0607 87.1534 37.266L86.7194 38.064C86.1128 37.644 85.3894 37.434 84.5494 37.434C83.9148 37.434 83.4341 37.546 83.1074 37.77C82.7901 37.994 82.6314 38.288 82.6314 38.652C82.6314 38.932 82.7201 39.156 82.8974 39.324C83.0841 39.492 83.3128 39.618 83.5834 39.702C83.8541 39.7767 84.2274 39.856 84.7034 39.94C85.2914 40.052 85.7628 40.164 86.1174 40.276C86.4721 40.388 86.7754 40.5793 87.0274 40.85C87.2794 41.1207 87.4054 41.494 87.4054 41.97C87.4054 42.614 87.1348 43.1273 86.5934 43.51C86.0614 43.8833 85.3194 44.07 84.3674 44.07ZM97.279 36.636V44H96.327V42.656C96.0657 43.104 95.7064 43.454 95.249 43.706C94.7917 43.9487 94.269 44.07 93.681 44.07C92.7197 44.07 91.959 43.804 91.399 43.272C90.8484 42.7307 90.573 41.942 90.573 40.906V36.636H91.567V40.808C91.567 41.5827 91.7584 42.1707 92.141 42.572C92.5237 42.9733 93.0697 43.174 93.779 43.174C94.5537 43.174 95.165 42.9407 95.613 42.474C96.061 41.998 96.285 41.34 96.285 40.5V36.636H97.279ZM105.215 36.58C106.139 36.58 106.872 36.8507 107.413 37.392C107.964 37.924 108.239 38.7033 108.239 39.73V44H107.245V39.828C107.245 39.0627 107.054 38.4793 106.671 38.078C106.288 37.6767 105.742 37.476 105.033 37.476C104.24 37.476 103.61 37.714 103.143 38.19C102.686 38.6567 102.457 39.3053 102.457 40.136V44H101.463V33.612H102.457V37.924C102.728 37.4947 103.101 37.1633 103.577 36.93C104.053 36.6967 104.599 36.58 105.215 36.58ZM118.974 36.636V44H118.022V42.656C117.76 43.104 117.401 43.454 116.944 43.706C116.486 43.9487 115.964 44.07 115.376 44.07C114.414 44.07 113.654 43.804 113.094 43.272C112.543 42.7307 112.268 41.942 112.268 40.906V36.636H113.262V40.808C113.262 41.5827 113.453 42.1707 113.836 42.572C114.218 42.9733 114.764 43.174 115.474 43.174C116.248 43.174 116.86 42.9407 117.308 42.474C117.756 41.998 117.98 41.34 117.98 40.5V36.636H118.974ZM134.942 33.612V44H133.99V42.544C133.691 43.0387 133.294 43.4167 132.8 43.678C132.314 43.9393 131.764 44.07 131.148 44.07C130.457 44.07 129.832 43.9113 129.272 43.594C128.712 43.2767 128.273 42.8333 127.956 42.264C127.638 41.6947 127.48 41.046 127.48 40.318C127.48 39.59 127.638 38.9413 127.956 38.372C128.273 37.8027 128.712 37.364 129.272 37.056C129.832 36.7387 130.457 36.58 131.148 36.58C131.745 36.58 132.282 36.706 132.758 36.958C133.243 37.2007 133.64 37.56 133.948 38.036V33.612H134.942ZM131.232 43.188C131.745 43.188 132.207 43.0713 132.618 42.838C133.038 42.5953 133.364 42.2547 133.598 41.816C133.84 41.3773 133.962 40.878 133.962 40.318C133.962 39.758 133.84 39.2587 133.598 38.82C133.364 38.3813 133.038 38.0453 132.618 37.812C132.207 37.5693 131.745 37.448 131.232 37.448C130.709 37.448 130.238 37.5693 129.818 37.812C129.407 38.0453 129.08 38.3813 128.838 38.82C128.604 39.2587 128.488 39.758 128.488 40.318C128.488 40.878 128.604 41.3773 128.838 41.816C129.08 42.2547 129.407 42.5953 129.818 42.838C130.238 43.0713 130.709 43.188 131.232 43.188ZM139.11 36.636H140.104V44H139.11V36.636ZM139.614 35.026C139.408 35.026 139.236 34.956 139.096 34.816C138.956 34.676 138.886 34.508 138.886 34.312C138.886 34.1253 138.956 33.962 139.096 33.822C139.236 33.682 139.408 33.612 139.614 33.612C139.819 33.612 139.992 33.682 140.132 33.822C140.272 33.9527 140.342 34.1113 140.342 34.298C140.342 34.5033 140.272 34.676 140.132 34.816C139.992 34.956 139.819 35.026 139.614 35.026ZM148.064 36.58C148.754 36.58 149.38 36.7387 149.94 37.056C150.5 37.364 150.938 37.8027 151.256 38.372C151.573 38.9413 151.732 39.59 151.732 40.318C151.732 41.046 151.573 41.6947 151.256 42.264C150.938 42.8333 150.5 43.2767 149.94 43.594C149.38 43.9113 148.754 44.07 148.064 44.07C147.448 44.07 146.892 43.9393 146.398 43.678C145.912 43.4167 145.52 43.0387 145.222 42.544V44H144.27V33.612H145.264V38.036C145.572 37.56 145.964 37.2007 146.44 36.958C146.925 36.706 147.466 36.58 148.064 36.58ZM147.994 43.188C148.507 43.188 148.974 43.0713 149.394 42.838C149.814 42.5953 150.14 42.2547 150.374 41.816C150.616 41.3773 150.738 40.878 150.738 40.318C150.738 39.758 150.616 39.2587 150.374 38.82C150.14 38.3813 149.814 38.0453 149.394 37.812C148.974 37.5693 148.507 37.448 147.994 37.448C147.471 37.448 147 37.5693 146.58 37.812C146.169 38.0453 145.842 38.3813 145.6 38.82C145.366 39.2587 145.25 39.758 145.25 40.318C145.25 40.878 145.366 41.3773 145.6 41.816C145.842 42.2547 146.169 42.5953 146.58 42.838C147 43.0713 147.471 43.188 147.994 43.188ZM157.693 36.58C158.654 36.58 159.392 36.8227 159.905 37.308C160.418 37.784 160.675 38.4933 160.675 39.436V44H159.723V42.852C159.499 43.2347 159.168 43.5333 158.729 43.748C158.3 43.9627 157.786 44.07 157.189 44.07C156.368 44.07 155.714 43.874 155.229 43.482C154.744 43.09 154.501 42.572 154.501 41.928C154.501 41.3027 154.725 40.7987 155.173 40.416C155.63 40.0333 156.354 39.842 157.343 39.842H159.681V39.394C159.681 38.7593 159.504 38.2787 159.149 37.952C158.794 37.616 158.276 37.448 157.595 37.448C157.128 37.448 156.68 37.5273 156.251 37.686C155.822 37.8353 155.453 38.0453 155.145 38.316L154.697 37.574C155.07 37.2567 155.518 37.014 156.041 36.846C156.564 36.6687 157.114 36.58 157.693 36.58ZM157.343 43.286C157.903 43.286 158.384 43.16 158.785 42.908C159.186 42.6467 159.485 42.2733 159.681 41.788V40.584H157.371C156.111 40.584 155.481 41.0227 155.481 41.9C155.481 42.3293 155.644 42.67 155.971 42.922C156.298 43.1647 156.755 43.286 157.343 43.286ZM175.446 36.636L172.66 44H171.722L169.398 37.966L167.074 44H166.136L163.364 36.636H164.316L166.626 42.894L168.992 36.636H169.846L172.198 42.894L174.536 36.636H175.446ZM180.7 36.58C181.661 36.58 182.399 36.8227 182.912 37.308C183.425 37.784 183.682 38.4933 183.682 39.436V44H182.73V42.852C182.506 43.2347 182.175 43.5333 181.736 43.748C181.307 43.9627 180.793 44.07 180.196 44.07C179.375 44.07 178.721 43.874 178.236 43.482C177.751 43.09 177.508 42.572 177.508 41.928C177.508 41.3027 177.732 40.7987 178.18 40.416C178.637 40.0333 179.361 39.842 180.35 39.842H182.688V39.394C182.688 38.7593 182.511 38.2787 182.156 37.952C181.801 37.616 181.283 37.448 180.602 37.448C180.135 37.448 179.687 37.5273 179.258 37.686C178.829 37.8353 178.46 38.0453 178.152 38.316L177.704 37.574C178.077 37.2567 178.525 37.014 179.048 36.846C179.571 36.6687 180.121 36.58 180.7 36.58ZM180.35 43.286C180.91 43.286 181.391 43.16 181.792 42.908C182.193 42.6467 182.492 42.2733 182.688 41.788V40.584H180.378C179.118 40.584 178.488 41.0227 178.488 41.9C178.488 42.3293 178.651 42.67 178.978 42.922C179.305 43.1647 179.762 43.286 180.35 43.286ZM191.534 36.58C192.458 36.58 193.19 36.8507 193.732 37.392C194.282 37.924 194.558 38.7033 194.558 39.73V44H193.564V39.828C193.564 39.0627 193.372 38.4793 192.99 38.078C192.607 37.6767 192.061 37.476 191.352 37.476C190.558 37.476 189.928 37.714 189.462 38.19C189.004 38.6567 188.776 39.3053 188.776 40.136V44H187.782V33.612H188.776V37.924C189.046 37.4947 189.42 37.1633 189.896 36.93C190.372 36.6967 190.918 36.58 191.534 36.58ZM206.394 38.4C207.421 38.456 208.2 38.736 208.732 39.24C209.274 39.7347 209.544 40.3833 209.544 41.186C209.544 41.746 209.409 42.2453 209.138 42.684C208.868 43.1133 208.466 43.454 207.934 43.706C207.402 43.958 206.754 44.084 205.988 44.084C205.279 44.084 204.607 43.972 203.972 43.748C203.347 43.5147 202.843 43.2067 202.46 42.824L202.95 42.026C203.277 42.362 203.711 42.6373 204.252 42.852C204.794 43.0573 205.372 43.16 205.988 43.16C206.791 43.16 207.412 42.9873 207.85 42.642C208.289 42.2873 208.508 41.802 208.508 41.186C208.508 40.5793 208.289 40.1033 207.85 39.758C207.412 39.4127 206.749 39.24 205.862 39.24H205.162V38.498L207.878 35.096H202.866V34.2H209.166V34.914L206.394 38.4ZM219.103 34.2V34.914L215.001 44H213.909L217.941 35.096H212.901V36.93H211.907V34.2H219.103ZM224.113 39.478C223.348 39.478 222.727 39.212 222.251 38.68C221.784 38.1387 221.551 37.4153 221.551 36.51C221.551 35.6047 221.784 34.886 222.251 34.354C222.727 33.822 223.348 33.556 224.113 33.556C224.878 33.556 225.494 33.822 225.961 34.354C226.437 34.886 226.675 35.6047 226.675 36.51C226.675 37.4153 226.437 38.1387 225.961 38.68C225.494 39.212 224.878 39.478 224.113 39.478ZM224.113 38.834C224.654 38.834 225.093 38.6287 225.429 38.218C225.765 37.8073 225.933 37.238 225.933 36.51C225.933 35.782 225.765 35.2173 225.429 34.816C225.093 34.4053 224.654 34.2 224.113 34.2C223.572 34.2 223.133 34.4053 222.797 34.816C222.461 35.2173 222.293 35.782 222.293 36.51C222.293 37.238 222.461 37.8073 222.797 38.218C223.133 38.6287 223.572 38.834 224.113 38.834ZM229.079 46.716C229.629 45.7733 230.035 44.7653 230.297 43.692C230.558 42.6093 230.689 41.4333 230.689 40.164C230.689 38.8947 230.558 37.7233 230.297 36.65C230.035 35.5673 229.629 34.5547 229.079 33.612H230.031C230.553 34.452 230.955 35.4367 231.235 36.566C231.524 37.686 231.669 38.8853 231.669 40.164C231.669 41.4427 231.529 42.642 231.249 43.762C230.969 44.882 230.563 45.8667 230.031 46.716H229.079Z" fill="#1D1313"/>
</svg>
