<svg width="35" height="32" viewBox="0 0 35 32" fill="none" xmlns="http://www.w3.org/2000/svg">
<path d="M0 10.5198C0 6.79871 0 4.93817 0.820944 3.522C1.51274 2.32861 2.59862 1.35556 3.9304 0.735642C5.51078 0 7.58705 0 11.7396 0H23.2604C27.413 0 29.4892 0 31.0696 0.735642C32.4014 1.35556 33.4873 2.32861 34.1791 3.522C35 4.93817 35 6.79871 35 10.5198V20.8435C35 24.5646 35 26.4251 34.1791 27.8413C33.4873 29.0347 32.4014 30.0077 31.0696 30.6276C29.4892 31.3633 27.413 31.3633 23.2604 31.3633H11.7396C7.58705 31.3633 5.51078 31.3633 3.9304 30.6276C2.59862 30.0077 1.51274 29.0347 0.820944 27.8413C0 26.4251 0 24.5646 0 20.8435V10.5198Z" fill="#303030"/>
<path d="M28.9982 15.9986V15.9931C28.9982 12.7382 27.5811 9.81506 25.3309 7.8049L25.3199 7.79573C25.2921 7.76577 25.2611 7.73902 25.2273 7.71599L25.2255 7.71507C23.2269 5.96021 20.6568 4.99484 17.9973 5.00002C15.2181 5.00002 12.681 6.03214 10.747 7.73524L10.7589 7.72515C10.7356 7.74283 10.7141 7.76279 10.6948 7.78473V7.78565C9.53211 8.8152 8.60146 10.0801 7.96449 11.4964C7.32752 12.9128 6.99877 14.4484 7 16.0014C7 19.2554 8.41522 22.1785 10.6636 24.1896L10.6746 24.1988C10.7037 24.2318 10.7363 24.2616 10.7718 24.2877L10.7736 24.2886C12.7716 26.0409 15.3398 27.0048 17.9973 27C20.6672 27.0041 23.2463 26.0312 25.2484 24.2648L25.2365 24.2748C26.4193 23.2464 27.3674 21.976 28.0167 20.5494C28.666 19.1228 29.0014 17.5734 29 16.006V15.9995L28.9982 15.9986ZM24.9083 23.1529C24.3635 22.7121 23.7775 22.3248 23.1586 21.9961L23.099 21.9668C23.6609 20.3471 23.9991 18.4799 24.0312 16.5376V16.5229H27.9368C27.805 19.0358 26.7235 21.4047 24.9111 23.1501L24.9083 23.1529ZM18.5234 21.7734C19.6994 21.8366 20.7983 22.0951 21.8121 22.5158L21.7461 22.492C20.934 24.3436 19.791 25.6159 18.5234 25.8954V21.7734ZM18.5234 20.7248V16.5229H22.9853C22.9499 18.2629 22.6482 19.9872 22.0907 21.6359L22.1265 21.5158C20.9885 21.0481 19.7782 20.7807 18.549 20.7257L18.5243 20.7248H18.5234ZM18.5234 15.4743V11.2725C19.7857 11.2149 21.0284 10.9385 22.1961 10.4558L22.1237 10.4824C22.6324 11.9664 22.945 13.6768 22.9853 15.4551V15.4743H18.5234ZM18.5234 10.2239V6.10364C19.791 6.38321 20.934 7.64999 21.7461 9.50707C20.7983 9.90122 19.6994 10.1588 18.55 10.223L18.5234 10.2239ZM21.1393 6.55737C22.2194 6.91764 23.2295 7.46085 24.1256 8.1633L24.1045 8.1468C23.6984 8.46579 23.2429 8.76644 22.7626 9.02768L22.7113 9.05334C22.3232 8.13738 21.7895 7.29019 21.1311 6.54454L21.1393 6.55462V6.55737ZM17.473 6.10639V10.2239C16.3423 10.1662 15.23 9.91507 14.1842 9.48141L14.2502 9.50524C15.066 7.65366 16.2072 6.38229 17.4748 6.10272L17.473 6.10639ZM13.286 9.05059C12.7891 8.78327 12.3157 8.47449 11.8708 8.12755L11.8928 8.14405C12.7627 7.46222 13.7413 6.93172 14.7874 6.57479L14.857 6.5537C14.2158 7.27915 13.6933 8.10144 13.3089 8.9901L13.286 9.04968V9.05059ZM17.4748 11.2716V15.4734H13.0128C13.0532 13.6759 13.3657 11.9655 13.9102 10.3614L13.8744 10.4814C15.012 10.9484 16.2216 11.2154 17.45 11.2707L17.4748 11.2716ZM17.4748 16.522V20.7238C16.2125 20.7815 14.9698 21.0578 13.802 21.5406L13.8744 21.514C13.3657 20.0309 13.0532 18.3195 13.0128 16.5413V16.522H17.4748ZM17.4748 21.7725V25.8927C16.2072 25.6131 15.0642 24.3463 14.2521 22.4893C15.1998 22.0951 16.2988 21.8385 17.4482 21.7743L17.4748 21.7734V21.7725ZM14.8625 25.439C13.7827 25.0798 12.7726 24.5378 11.8763 23.8367L11.8983 23.8532C12.3043 23.5342 12.7599 23.2336 13.2401 22.9723L13.2915 22.9467C13.6763 23.863 14.21 24.7094 14.8708 25.4518L14.8625 25.4426V25.439ZM22.7122 22.9457C23.2438 23.2345 23.6994 23.5342 24.1274 23.8688L24.1054 23.8523C23.2354 24.5341 22.2569 25.0646 21.2108 25.4216L21.1412 25.4426C21.7824 24.7175 22.3049 23.8955 22.6893 23.0072L22.7122 22.9476V22.9457ZM27.9368 15.4743H24.0312C24.0031 13.5778 23.6758 11.6975 23.0614 9.90306L23.099 10.0296C23.7465 9.68862 24.3595 9.28588 24.9294 8.82694L24.9074 8.84344C26.7161 10.5823 27.798 12.9424 27.9349 15.4477L27.9358 15.4734L27.9368 15.4743ZM11.0898 8.84435C11.6178 9.27333 12.2108 9.66657 12.8396 10.0011L12.8992 10.0305C12.3373 11.6501 11.9991 13.5173 11.967 15.4596V15.4743H8.0605C8.1922 12.9615 9.27374 10.5925 11.0862 8.8471L11.0889 8.84435H11.0898ZM8.06141 16.5229H11.967C11.9951 18.4195 12.3224 20.2997 12.9368 22.0942L12.8992 21.9677C12.2108 22.3334 11.6187 22.7267 11.0687 23.1703L11.0907 23.1538C9.28207 21.4149 8.20015 19.0548 8.06325 16.5495L8.06233 16.5239L8.06141 16.5229Z" fill="white"/>
</svg>
