<svg width="35" height="35" viewBox="0 0 35 35" fill="none" xmlns="http://www.w3.org/2000/svg">
<path d="M0 11.7396C0 7.58705 0 5.51078 0.820944 3.9304C1.51274 2.59862 2.59862 1.51274 3.9304 0.820944C5.51078 0 7.58705 0 11.7396 0H23.2604C27.413 0 29.4892 0 31.0696 0.820944C32.4014 1.51274 33.4873 2.59862 34.1791 3.9304C35 5.51078 35 7.58705 35 11.7396V23.2604C35 27.413 35 29.4892 34.1791 31.0696C33.4873 32.4014 32.4014 33.4873 31.0696 34.1791C29.4892 35 27.413 35 23.2604 35H11.7396C7.58705 35 5.51078 35 3.9304 34.1791C2.59862 33.4873 1.51274 32.4014 0.820944 31.0696C0 29.4892 0 27.413 0 23.2604V11.7396Z" fill="url(#paint0_linear)"/>
<path fill-rule="evenodd" clip-rule="evenodd" d="M18.5163 4.8069C21.6144 4.95916 24.5011 6.23669 26.706 8.44305C29.0579 10.7964 30.3524 13.9246 30.3512 17.2513C30.3483 24.1163 24.7597 29.702 17.8942 29.702H17.8891C15.8042 29.7013 13.7557 29.1785 11.9362 28.1866L5.33252 29.9179L7.09981 23.466C6.00969 21.5778 5.43607 19.436 5.43697 17.2415C5.43973 10.3766 11.0279 4.7915 17.8941 4.7915L18.5163 4.8069ZM12.2421 25.9325L12.6202 26.1568C14.2099 27.0997 16.0321 27.5986 17.89 27.5993H17.8942C23.6009 27.5993 28.2456 22.9568 28.2479 17.2506C28.2489 14.4855 27.173 11.8854 25.2182 9.92939C23.2634 7.97322 20.6638 6.89532 17.8983 6.89442C12.1872 6.89442 7.54249 11.5364 7.54021 17.2422C7.53943 19.1976 8.0868 21.102 9.12323 22.7496L9.36941 23.1412L8.32345 26.9599L12.2421 25.9325ZM24.1699 20.2121C24.0921 20.0822 23.8847 20.0044 23.5734 19.8487C23.2622 19.693 21.7319 18.9404 21.4466 18.8364C21.1613 18.7328 20.9537 18.6809 20.7463 18.9922C20.5388 19.3036 19.9423 20.0044 19.7607 20.2121C19.5791 20.4197 19.3976 20.4457 19.0864 20.29C18.7751 20.1343 17.7722 19.8057 16.5833 18.7458C15.658 17.9209 15.0333 16.9021 14.8517 16.5907C14.6702 16.2793 14.8324 16.1108 14.9882 15.9558C15.1282 15.8163 15.2995 15.5924 15.4551 15.4107C15.6107 15.2291 15.6626 15.0993 15.7664 14.8917C15.8701 14.684 15.8182 14.5024 15.7404 14.3467C15.6626 14.1909 15.0401 12.6596 14.7808 12.0367C14.5281 11.4301 14.2714 11.5122 14.0804 11.5026C13.8991 11.4936 13.6914 11.4917 13.4839 11.4917C13.2764 11.4917 12.9392 11.5695 12.6539 11.881C12.3685 12.1924 11.5645 12.9451 11.5645 14.4763C11.5645 16.0077 12.6798 17.4869 12.8354 17.6946C12.9911 17.9023 15.0302 21.0445 18.1526 22.3922C18.8952 22.7127 19.475 22.9041 19.927 23.0475C20.6727 23.2843 21.3512 23.2509 21.8875 23.1708C22.4855 23.0815 23.729 22.4182 23.9884 21.6915C24.2478 20.9647 24.2478 20.3418 24.1699 20.2121Z" fill="white"/>
<defs>
<linearGradient id="paint0_linear" x1="17.5" y1="35" x2="17.5" y2="0" gradientUnits="userSpaceOnUse">
<stop stop-color="#25CF43"/>
<stop offset="1" stop-color="#61FD7D"/>
</linearGradient>
</defs>
</svg>
