<svg width="16" height="16" viewBox="0 0 16 16" fill="none" xmlns="http://www.w3.org/2000/svg">
<path d="M7.83336 15.003C6.7808 14.1052 5.80518 13.1209 4.91668 12.0605C3.58334 10.468 2 8.09629 2 5.83628C1.99942 4.68208 2.34126 3.55365 2.98225 2.59379C3.62324 1.63394 4.53457 0.885811 5.60091 0.444092C6.66724 0.00237228 7.84065 -0.113084 8.97263 0.112335C10.1046 0.337754 11.1443 0.893915 11.96 1.71043C12.5032 2.25115 12.9337 2.89422 13.2266 3.60242C13.5196 4.31062 13.6692 5.06989 13.6667 5.83628C13.6667 8.09629 12.0834 10.468 10.75 12.0605C9.86154 13.1209 8.88591 14.1052 7.83336 15.003ZM7.83336 3.33627C7.17032 3.33627 6.53443 3.59967 6.06558 4.06851C5.59674 4.53735 5.33335 5.17324 5.33335 5.83628C5.33335 6.49933 5.59674 7.13522 6.06558 7.60406C6.53443 8.0729 7.17032 8.3363 7.83336 8.3363C8.4964 8.3363 9.13229 8.0729 9.60113 7.60406C10.07 7.13522 10.3334 6.49933 10.3334 5.83628C10.3334 5.17324 10.07 4.53735 9.60113 4.06851C9.13229 3.59967 8.4964 3.33627 7.83336 3.33627Z" fill="#DDDDDD"/>
</svg>
