<svg width="314" height="60" viewBox="0 0 314 60" fill="none" xmlns="http://www.w3.org/2000/svg">
<rect width="60" height="60" rx="5" fill="#E5E5E5"/>
<path d="M30.077 18.9697L33.3036 15.6284C34.0116 15.4595 34.7392 15.3867 35.4667 15.4118C37.909 15.4797 39.0339 17.2152 39.5522 18.8166C39.5522 18.8166 44.4801 16.8507 47.3575 21.3785C48.4367 23.0764 48.4327 25.0302 48.0062 26.8093L45.2831 31.3401L35.1116 33.9542L30.077 18.9697Z" fill="#9FCBF7"/>
<path d="M45.4108 32.2536C45.4108 32.2536 47.2902 29.7804 48.0032 26.8205C33.5066 29.9678 33.197 18.2373 33.3036 15.6299C30.3897 16.3435 29.3305 18.5431 29.3305 18.5431L28.1456 22.8594L35.7626 35.8928L45.4108 32.2536Z" fill="#6F9AD8"/>
<path d="M31.1044 14.6119C30.9767 16.8646 30.5256 23.691 29.3887 31.3714L25.8566 47.5291C25.8566 47.5291 18.7319 47.1606 14.8891 45.0548C14.8891 45.0548 15.4679 40.7382 15.3102 38.6852L12.3182 34.7873C11.4607 33.3756 10.6514 31.6727 10.2571 29.8381C10.2571 29.8381 9.52011 25.2614 7.46698 22.9978L8.86378 21.6379C9.04767 21.4593 9.2847 21.3455 9.53903 21.3136C9.79335 21.2817 10.0511 21.3335 10.2734 21.4611C11.3204 22.0589 13.2757 23.382 15.4687 25.8932C15.4687 25.8932 16.8847 20.9125 17.784 10.4238C17.8016 10.219 17.8953 10.0282 18.0467 9.88914C18.1981 9.75006 18.3961 9.6728 18.6017 9.6726H21.2853L21.3428 8.81806C21.356 8.61743 21.4425 8.42865 21.5858 8.28762C21.7291 8.14659 21.9193 8.06315 22.1201 8.05316C22.6697 8.02606 23.457 8.00404 24.2204 8.04215C24.419 8.05103 24.6068 8.13493 24.7459 8.2769C24.885 8.41887 24.9651 8.60834 24.9699 8.80705C24.9822 9.36724 24.9881 10.1587 24.9477 10.794L27.4439 10.8478C27.6512 10.8521 27.8483 10.9385 27.992 11.088C28.1356 11.2375 28.214 11.4379 28.21 11.6453C28.1993 12.1958 28.181 12.9582 28.1524 13.6641L30.3654 13.7854C30.4682 13.7909 30.569 13.8168 30.6618 13.8614C30.7547 13.906 30.8378 13.9685 30.9065 14.0452C30.9751 14.122 31.028 14.2116 31.0619 14.3089C31.0959 14.4061 31.1103 14.5091 31.1044 14.6119Z" fill="#FFCAC0"/>
<path d="M40.5805 10.511C40.1946 8.97569 38.2594 8.37442 37.0934 9.44482C36.8673 9.65391 36.6935 9.91314 36.5859 10.2017C36.5859 10.2017 36.4148 12.037 38.6311 12.3514C39.8816 12.5287 40.6762 11.2345 40.6762 11.2345C40.6706 10.9906 40.6385 10.748 40.5805 10.511Z" fill="#9FCBF7"/>
<path d="M27.8565 32.8344L23.5694 29.8386C23.5694 29.8386 21.2465 30.768 21.654 34.6386C21.654 34.6386 18.2837 36.5144 19.1277 41.1128C19.5915 43.6399 20.7206 45.0906 22.1829 46.3496C22.9208 46.9808 23.8375 47.3654 24.8047 47.4495C25.4604 47.5084 25.8565 47.529 25.8565 47.529C27.1349 43.5717 28.1172 39.0594 28.8675 34.6515L27.8565 32.8344Z" fill="#E5837C"/>
<path d="M11.7524 13.1012C11.7524 13.1012 9.70352 12.9808 9.82409 15.2706C9.82522 15.2913 9.82649 15.3117 9.8279 15.3321C9.8279 15.3321 10.7143 16.8932 12.2746 16.0825C13.8349 15.2719 13.0268 13.586 13.0268 13.586C12.6695 13.2842 12.22 13.1132 11.7524 13.1012Z" fill="#9FCBF7"/>
<path d="M27.0803 24.3107L26.1461 24.0171C27.1413 20.8521 27.659 13.7017 27.664 13.6299L28.6418 13.6914C28.6207 13.9889 28.1099 21.0354 27.0803 24.3107Z" fill="#E5837C"/>
<path d="M25.4762 23.6839L23.9949 23.377C24.9841 19.2066 25.4198 11.1584 25.4384 10.8045L24.4588 10.7682C24.4541 10.8542 24.009 19.101 23.0357 23.1776L20.5872 22.6701C21.4766 17.7371 21.7739 9.74695 21.7769 9.66577L20.7834 9.67198C20.7806 9.75231 20.5011 17.6089 19.628 22.4713L18.8977 22.3201C18.7706 22.2938 18.6381 22.319 18.5296 22.3903C18.4211 22.4616 18.3453 22.5731 18.319 22.7002C18.2926 22.8274 18.3179 22.9598 18.3892 23.0683C18.4604 23.1769 18.5719 23.2527 18.6991 23.279L25.2779 24.6423C25.4051 24.6687 25.5375 24.6434 25.646 24.5721C25.7545 24.5009 25.8303 24.3894 25.8566 24.2622C25.883 24.1351 25.8577 24.0027 25.7865 23.8941C25.7152 23.7856 25.6037 23.7098 25.4765 23.6835L25.4762 23.6839Z" fill="#E5837C"/>
<path d="M47.3414 13.4129C47.2592 13.413 47.1783 13.3923 47.1061 13.3529C47.034 13.3134 46.9729 13.2564 46.9287 13.1871L46.4372 12.4191C46.4026 12.3649 46.3789 12.3045 46.3676 12.2412C46.3563 12.1779 46.3576 12.113 46.3714 12.0502C46.3852 11.9874 46.4112 11.9279 46.4479 11.8751C46.4847 11.8224 46.5315 11.7774 46.5857 11.7428C46.6398 11.7081 46.7003 11.6844 46.7636 11.6731C46.8269 11.6618 46.8918 11.6631 46.9546 11.6769C47.0174 11.6907 47.0768 11.7167 47.1296 11.7535C47.1823 11.7903 47.2273 11.837 47.262 11.8912L47.7535 12.6592C47.8008 12.7332 47.8273 12.8185 47.8303 12.9063C47.8333 12.994 47.8126 13.0809 47.7705 13.158C47.7284 13.235 47.6663 13.2993 47.5909 13.3441C47.5154 13.3889 47.4292 13.4127 47.3414 13.4128V13.4129Z" fill="#9FCBF7"/>
<path d="M49.2869 16.4528C49.2046 16.4529 49.1236 16.4322 49.0514 16.3927C48.9793 16.3533 48.9182 16.2962 48.8739 16.2269L48.3826 15.4589C48.3144 15.3495 48.2921 15.2177 48.3205 15.092C48.3489 14.9663 48.4256 14.8569 48.5342 14.7874C48.6427 14.7179 48.7743 14.6941 48.9003 14.721C49.0263 14.7479 49.1367 14.8234 49.2074 14.9312L49.6988 15.6992C49.7461 15.7731 49.7727 15.8584 49.7757 15.9462C49.7787 16.0339 49.7581 16.1209 49.716 16.1979C49.6739 16.2749 49.6118 16.3392 49.5363 16.384C49.4608 16.4288 49.3747 16.4525 49.2869 16.4526V16.4528Z" fill="#9FCBF7"/>
<path d="M49.2044 13.8218C49.0985 13.8219 48.9955 13.7876 48.9107 13.7242C48.8259 13.6607 48.764 13.5715 48.7342 13.4699C48.7045 13.3683 48.7084 13.2597 48.7456 13.1605C48.7827 13.0614 48.851 12.9769 48.9402 12.9198L49.708 12.4284C49.7622 12.3926 49.8229 12.3679 49.8867 12.3558C49.9504 12.3437 50.016 12.3443 50.0795 12.3578C50.143 12.3712 50.2032 12.3971 50.2566 12.4341C50.3099 12.471 50.3555 12.5181 50.3905 12.5728C50.4255 12.6275 50.4492 12.6886 50.4604 12.7525C50.4716 12.8164 50.4699 12.882 50.4555 12.9453C50.4411 13.0086 50.4143 13.0684 50.3766 13.1212C50.3389 13.174 50.2911 13.2188 50.2359 13.253L49.4683 13.7444C49.3896 13.7951 49.298 13.8219 49.2044 13.8218Z" fill="#9FCBF7"/>
<path d="M46.1648 15.7674C46.0589 15.7675 45.9558 15.7332 45.871 15.6698C45.7863 15.6063 45.7243 15.5171 45.6946 15.4155C45.6648 15.3139 45.6688 15.2053 45.7059 15.1061C45.743 15.007 45.8113 14.9225 45.9005 14.8654L46.6685 14.3739C46.7226 14.3392 46.7831 14.3155 46.8464 14.3042C46.9097 14.293 46.9746 14.2942 47.0374 14.308C47.1002 14.3218 47.1597 14.3478 47.2124 14.3846C47.2651 14.4214 47.3101 14.4682 47.3448 14.5223C47.3794 14.5765 47.4031 14.6369 47.4144 14.7002C47.4257 14.7635 47.4244 14.8284 47.4106 14.8912C47.3968 14.954 47.3708 15.0135 47.3341 15.0662C47.2973 15.119 47.2505 15.1639 47.1963 15.1986L46.4283 15.69C46.3497 15.7406 46.2582 15.7675 46.1648 15.7674Z" fill="#9FCBF7"/>
<path d="M28.9977 24.1033C28.9977 24.1033 25.5232 21.7344 23.2597 24.735C21.8982 26.5398 22.5553 28.5158 23.5703 29.8386C23.5703 29.8386 21.6279 31.3679 23.2072 34.7897C23.2072 34.7897 21.3437 35.523 20.8746 37.9443C21.6397 40.1832 24.0289 41.8711 27.0122 44.1237C27.0122 44.1237 32.7786 43.2039 33.726 37.9924L28.9977 24.1033Z" fill="#9FCBF7"/>
<path d="M20.8757 37.9445C20.7142 38.871 20.737 39.8203 20.9427 40.738C21.8903 45.4232 27.2598 44.6861 27.2598 44.6861C27.2598 44.6861 33.9979 43.9492 34.9455 38.7376L32.5606 32.8703L28.3562 26.6541C28.3562 26.6541 32.512 39.58 20.8757 37.9445Z" fill="#6F9AD8"/>
<path d="M27.3223 25.5952L33.9435 39.174C33.9435 39.174 31.267 37.1269 26.9535 38.8237C26.7183 38.9152 26.516 39.0754 26.3732 39.2835C26.2303 39.4916 26.1535 39.7379 26.1528 39.9903V41.2987C26.1528 41.2987 28.8518 41.3577 30.6598 43.3054C30.6598 43.3054 32.6285 46.0671 37.1247 46.3227C37.5972 46.3509 38.0549 46.4974 38.4559 46.7489C38.8569 47.0003 39.1882 47.3485 39.4194 47.7615L41.793 51.9811C41.793 51.9811 49.3476 49.7384 52.5347 45.7834L50.3422 41.488C49.9077 40.6366 49.5677 39.7402 49.3286 38.8147C48.5794 35.9152 46.4465 28.7389 42.4687 23.0792C42.3359 22.8911 42.16 22.7377 41.9555 22.632C41.7511 22.5262 41.5243 22.4711 41.2941 22.4714H39.4757L39.0845 21.7699C38.9787 21.58 38.8234 21.4222 38.6353 21.3133C38.4471 21.2044 38.2329 21.1484 38.0155 21.1513C37.1749 21.151 36.335 21.2004 35.5002 21.2991L35.3477 20.9817C35.2646 20.808 35.1354 20.6605 34.9741 20.5552C34.8129 20.4499 34.6258 20.391 34.4333 20.3848C33.8726 20.3653 33.3112 20.3984 32.7566 20.4836C32.6599 20.4996 32.5679 20.5362 32.4866 20.5908C32.4053 20.6455 32.3367 20.7169 32.2855 20.8004C32.2342 20.8839 32.2015 20.9774 32.1896 21.0746C32.1776 21.1718 32.1867 21.2705 32.2162 21.3639C32.7624 23.0962 34.2409 27.7856 35.7792 32.6591C35.7838 32.6735 35.7831 32.6891 35.777 32.7029C35.7709 32.7167 35.76 32.7279 35.7462 32.7341C35.7325 32.7404 35.7169 32.7414 35.7025 32.737C35.688 32.7325 35.6757 32.7229 35.6679 32.7099C34.7962 31.2627 31.9904 26.6482 30.0707 23.9912C29.9508 23.826 29.7743 23.7107 29.5748 23.6674C29.3753 23.6241 29.1669 23.6557 28.9893 23.7562L27.6612 24.5055C27.4765 24.6097 27.3385 24.7805 27.2755 24.9831C27.2124 25.1856 27.2292 25.4046 27.3223 25.5952Z" fill="#FFCAC0"/>
<path d="M39.1256 31.9923C37.2774 27.1458 35.0209 21.4162 34.9987 21.3596C35.3336 21.2913 35.6736 21.2507 36.0152 21.2383C36.0376 21.2948 38.192 26.7951 40.0404 31.643C40.046 31.6578 40.0487 31.6736 40.0482 31.6895C40.0477 31.7053 40.044 31.7209 40.0375 31.7353C40.0309 31.7498 40.0215 31.7628 40.0099 31.7736C39.9983 31.7844 39.9847 31.7928 39.9698 31.7983L39.28 32.0612C39.2504 32.0724 39.2175 32.0715 39.1886 32.0586C39.1596 32.0457 39.137 32.0218 39.1256 31.9923Z" fill="#E5837C"/>
<path d="M42.1539 30.6145C41.1354 27.6701 38.9672 22.5118 38.9459 22.4614L40.0016 22.4717C40.0231 22.5224 42.0545 27.3302 43.0801 30.2966C43.0852 30.3115 43.0873 30.3273 43.0863 30.3431C43.0853 30.3589 43.0812 30.3743 43.0741 30.3884C43.0671 30.4026 43.0574 30.4152 43.0455 30.4256C43.0336 30.436 43.0197 30.4439 43.0047 30.4489L42.3062 30.6881C42.2914 30.6933 42.2757 30.6955 42.26 30.6946C42.2443 30.6937 42.2289 30.6897 42.2148 30.6829C42.2006 30.6761 42.1879 30.6665 42.1775 30.6548C42.167 30.643 42.159 30.6294 42.1539 30.6145Z" fill="#E5837C"/>
<path d="M14.6957 32.186L12.6306 35.2846C13.4102 36.5031 14.3077 37.6421 15.3101 38.6851C17.9454 35.6809 14.6957 32.186 14.6957 32.186Z" fill="#E5837C"/>
<path d="M14.6957 32.1861C13.9834 31.1087 12.5894 30.6661 11.4204 31.2166C10.7146 31.5492 10.0841 32.2394 10.1247 33.6495C10.1324 33.9828 10.1725 34.3145 10.2444 34.64C10.2444 34.64 11.2773 36.4154 13.4657 35.6771C15.654 34.9387 15.0944 32.9133 15.0944 32.9133C14.9807 32.6608 14.8474 32.4177 14.6957 32.1861Z" fill="#9FCBF7"/>
<path d="M10.9837 17.063C11.2748 17.1529 11.5832 17.172 11.8832 17.1186C12.1832 17.0652 12.4661 16.9409 12.7083 16.7561C13.24 16.367 13.8686 15.6809 13.6502 14.6977C13.5684 14.2692 13.3493 13.8789 13.026 13.5859C13.0025 14.4048 12.7377 15.3249 11.7566 15.6868C10.8013 16.0397 10.1966 15.7321 9.82874 15.3314C9.9061 16.4306 10.4517 16.885 10.9837 17.063Z" fill="#6F9AD8"/>
<path d="M39.0875 13.3566C39.8139 13.1902 40.6602 12.7165 40.6773 11.4135C40.6782 11.3519 40.6762 11.2933 40.6744 11.2345C40.2558 11.6822 39.6097 11.9654 38.6122 11.791C37.0786 11.5228 36.6498 10.8143 36.5873 10.2024C36.5303 10.3507 36.4874 10.5039 36.4591 10.6602C36.3791 11.0464 36.3995 11.4466 36.5184 11.8226C36.6373 12.1987 36.8506 12.5379 37.138 12.8079C37.3911 13.0553 37.7022 13.2352 38.0428 13.331C38.3834 13.4269 38.7426 13.4357 39.0875 13.3566Z" fill="#6F9AD8"/>
<path d="M15.0948 32.9133C14.6839 33.7494 13.8617 34.8465 12.3248 35.0684C11.2039 35.2303 10.5865 34.9756 10.2463 34.6398C10.3697 35.2605 10.6767 35.8298 11.1276 36.2739C11.4145 36.54 11.7577 36.7377 12.1318 36.8524C12.5058 36.9672 12.901 36.9958 13.2876 36.9363C13.9965 36.8345 14.8235 36.4929 15.2763 35.7237C15.4228 35.4638 15.5162 35.1774 15.5512 34.8811C15.5861 34.5847 15.5619 34.2844 15.4798 33.9976C15.3813 33.6263 15.2525 33.2636 15.0948 32.9133Z" fill="#6F9AD8"/>
<path d="M44.6672 23.4175C45.4264 23.4175 46.0419 22.802 46.0419 22.0428C46.0419 21.2837 45.4264 20.6682 44.6672 20.6682C43.908 20.6682 43.2926 21.2837 43.2926 22.0428C43.2926 22.802 43.908 23.4175 44.6672 23.4175Z" fill="white"/>
<path d="M22.615 28.4999C23.6346 28.4999 24.4611 27.6734 24.4611 26.6538C24.4611 25.6342 23.6346 24.8076 22.615 24.8076C21.5954 24.8076 20.7688 25.6342 20.7688 26.6538C20.7688 27.6734 21.5954 28.4999 22.615 28.4999Z" fill="white"/>
<path d="M11.9025 33.89C12.373 33.89 12.7545 33.5086 12.7545 33.038C12.7545 32.5675 12.373 32.186 11.9025 32.186C11.4319 32.186 11.0505 32.5675 11.0505 33.038C11.0505 33.5086 11.4319 33.89 11.9025 33.89Z" fill="white"/>
<path d="M25.0784 30.5405C25.1879 30.5578 25.2917 30.6013 25.3808 30.6673C25.4699 30.7333 25.5417 30.8198 25.5903 30.9195C25.6388 31.0192 25.6625 31.1291 25.6594 31.2399C25.6563 31.3507 25.6265 31.4592 25.5726 31.556C25.1453 32.3051 24.8862 33.1381 24.8133 33.9974C24.8101 34.0554 24.7871 34.1105 24.7481 34.1536C24.7092 34.1967 24.6566 34.2252 24.5992 34.2342C24.5419 34.2433 24.4831 34.2324 24.4328 34.2034C24.3824 34.1744 24.3435 34.1291 24.3226 34.0749C23.9438 33.1093 23.9145 32.0417 24.2397 31.0568C24.2952 30.8851 24.4102 30.7387 24.5639 30.6441C24.7176 30.5495 24.9001 30.5127 25.0784 30.5405Z" fill="white"/>
<path d="M46.4213 20.1608C46.3722 20.2024 46.3319 20.2533 46.3025 20.3104C46.2731 20.3676 46.2553 20.4301 46.25 20.4942C46.2448 20.5582 46.2522 20.6227 46.2719 20.6839C46.2916 20.7451 46.3232 20.8019 46.3648 20.8509C46.3995 20.8916 46.434 20.9333 46.4683 20.976C46.5498 21.0771 46.6682 21.1416 46.7974 21.1554C46.8613 21.1623 46.926 21.1564 46.9877 21.1383C47.0494 21.1201 47.1069 21.09 47.157 21.0496C47.2071 21.0092 47.2487 20.9594 47.2795 20.9029C47.3103 20.8464 47.3296 20.7844 47.3365 20.7205C47.3433 20.6565 47.3375 20.5918 47.3193 20.5301C47.3012 20.4684 47.271 20.4109 47.2306 20.3609C47.1911 20.312 47.1514 20.2641 47.1115 20.217C47.0274 20.1181 46.9074 20.0566 46.778 20.0461C46.6486 20.0355 46.5203 20.0768 46.4213 20.1608Z" fill="#3C3C4F"/>
<path d="M15.9516 23.8265C16.0147 23.8391 16.0796 23.8393 16.1427 23.8268C16.2057 23.8144 16.2658 23.7896 16.3193 23.754C16.3728 23.7183 16.4187 23.6725 16.4545 23.619C16.4903 23.5656 16.5152 23.5057 16.5278 23.4426C17.0301 20.9373 17.7402 16.652 18.271 10.464C18.2784 10.3815 18.3163 10.3047 18.3773 10.2486C18.4383 10.1925 18.518 10.1611 18.6008 10.1606H21.2847C21.4089 10.1606 21.5284 10.1134 21.6191 10.0286C21.7098 9.94374 21.7649 9.82763 21.7732 9.70374L21.8306 8.8492C21.8359 8.7683 21.8707 8.69217 21.9285 8.63525C21.9862 8.57833 22.0628 8.54459 22.1438 8.54044C22.6648 8.51475 23.4439 8.49202 24.1953 8.52929C24.2704 8.53175 24.3417 8.56284 24.3946 8.61618C24.4475 8.66952 24.478 8.74107 24.4798 8.81616C24.4918 9.36167 24.4979 10.1421 24.4585 10.7613C24.4543 10.8272 24.4635 10.8932 24.4855 10.9555C24.5076 11.0177 24.5419 11.0749 24.5866 11.1235C24.6313 11.1721 24.6853 11.2112 24.7455 11.2384C24.8056 11.2656 24.8706 11.2804 24.9367 11.2818L27.4327 11.3355C27.5103 11.3372 27.584 11.3696 27.6379 11.4255C27.6917 11.4815 27.7212 11.5564 27.7199 11.634C27.7098 12.1571 27.6917 12.9302 27.6626 13.6426C27.6575 13.771 27.7032 13.8963 27.7897 13.9914C27.8762 14.0865 27.9966 14.1437 28.125 14.1508L30.3381 14.2721C30.3766 14.2742 30.4143 14.2839 30.4491 14.3006C30.4839 14.3173 30.515 14.3407 30.5408 14.3694C30.5665 14.3982 30.5863 14.4317 30.599 14.4682C30.6118 14.5046 30.6172 14.5431 30.6151 14.5817C30.5495 15.7371 30.3959 18.14 30.1048 21.2515C30.0978 21.3161 30.1036 21.3814 30.1221 21.4437C30.1405 21.506 30.1711 21.5639 30.2122 21.6143C30.2532 21.6646 30.3039 21.7062 30.3612 21.7368C30.4185 21.7673 30.4813 21.7862 30.5459 21.7922C30.6106 21.7983 30.6758 21.7914 30.7378 21.772C30.7998 21.7526 30.8572 21.7211 30.9069 21.6793C30.9566 21.6374 30.9974 21.5861 31.0271 21.5284C31.0568 21.4706 31.0746 21.4075 31.0797 21.3427C31.2383 19.6471 31.3561 18.1629 31.4415 16.9716C32.553 16.2173 33.9038 15.8563 35.4522 15.8987C37.2207 15.9478 38.4433 16.9794 39.0856 18.9648C39.1063 19.0284 39.1398 19.0871 39.1841 19.1373C39.2284 19.1875 39.2824 19.2282 39.343 19.2567C39.4035 19.2852 39.4693 19.301 39.5362 19.3032C39.6031 19.3053 39.6697 19.2937 39.7319 19.2691C39.7581 19.2586 42.3961 18.2442 44.7796 19.5437C44.836 19.5745 44.898 19.5939 44.9619 19.6007C45.0259 19.6076 45.0905 19.6017 45.1522 19.5836C45.2139 19.5654 45.2714 19.5353 45.3214 19.4949C45.3715 19.4546 45.4131 19.4047 45.4439 19.3483C45.4746 19.2918 45.494 19.2299 45.5009 19.1659C45.5077 19.102 45.5019 19.0373 45.4837 18.9756C45.4656 18.914 45.4354 18.8564 45.3951 18.8064C45.3547 18.7564 45.3049 18.7148 45.2484 18.684C43.0833 17.5035 40.8207 17.9268 39.8524 18.201C39.0328 16.1086 37.5292 14.9768 35.4796 14.9199C33.9972 14.8776 32.6711 15.1683 31.523 15.7803C31.5526 15.3223 31.5756 14.937 31.5927 14.6367C31.6022 14.4697 31.5786 14.3024 31.5233 14.1444C31.4681 13.9865 31.3822 13.8409 31.2706 13.7162C31.1591 13.5915 31.024 13.49 30.8732 13.4176C30.7223 13.3451 30.5587 13.3031 30.3916 13.294L28.6589 13.2001C28.678 12.6296 28.691 12.0648 28.699 11.6532C28.7049 11.3165 28.5772 10.991 28.3439 10.7481C28.1106 10.5052 27.7906 10.3645 27.4538 10.3568L25.4586 10.3145C25.474 9.78322 25.4682 9.21992 25.4586 8.79541C25.4497 8.47347 25.3197 8.16671 25.0947 7.9363C24.8697 7.70588 24.5661 7.56874 24.2445 7.55221C23.4527 7.51268 22.6389 7.5364 22.0959 7.56336C21.7752 7.57925 21.4714 7.7124 21.2424 7.9375C21.0134 8.1626 20.875 8.46398 20.8535 8.7844L20.827 9.18223H18.6008C18.2732 9.1842 17.958 9.30806 17.7167 9.52968C17.4753 9.7513 17.3251 10.0548 17.2953 10.3811C16.7683 16.5237 16.065 20.7703 15.5678 23.251C15.5425 23.3782 15.5687 23.5103 15.6406 23.6182C15.7126 23.7261 15.8245 23.801 15.9516 23.8265Z" fill="#3C3C4F"/>
<path d="M10.2553 30.3259C10.2816 30.3259 10.3079 30.3238 10.3339 30.3195C10.462 30.2988 10.5767 30.2281 10.6527 30.1229C10.7287 30.0177 10.7598 29.8866 10.7392 29.7585C10.7097 29.575 10.0274 25.4502 8.13324 23.0296L9.20477 21.9869C9.31196 21.8814 9.45092 21.8143 9.60015 21.7958C9.74937 21.7772 9.90053 21.8085 10.0302 21.8845C11.8037 22.9575 13.4069 24.2895 14.7867 25.8362C14.9927 26.0739 15.2571 26.254 15.5538 26.3586C16.2634 26.6007 16.934 26.9449 17.5443 27.3804C18.965 28.4457 19.6489 30.0133 19.5773 32.0392C19.575 32.1035 19.5854 32.1675 19.6079 32.2278C19.6304 32.288 19.6645 32.3432 19.7083 32.3903C19.7521 32.4373 19.8048 32.4753 19.8633 32.502C19.9218 32.5287 19.985 32.5436 20.0492 32.5459C20.0552 32.5459 20.061 32.5459 20.0669 32.5459C20.1937 32.5458 20.3155 32.4965 20.4067 32.4084C20.4979 32.3204 20.5514 32.2004 20.5559 32.0737C20.7355 27.0132 16.6321 25.6808 15.7316 25.4501C13.5063 22.9316 11.5144 21.6035 10.5166 21.0335C10.2016 20.8546 9.83724 20.7823 9.47784 20.8276C9.11845 20.8729 8.78335 21.0332 8.52261 21.2847L7.12426 22.6448C7.03338 22.7333 6.98038 22.8536 6.97643 22.9804C6.97248 23.1072 7.01789 23.2305 7.10308 23.3245C9.0331 25.4523 9.76524 29.8693 9.77259 29.9138C9.79097 30.0286 9.84964 30.1332 9.93808 30.2087C10.0265 30.2842 10.139 30.3257 10.2553 30.3259Z" fill="#3C3C4F"/>
<path d="M25.8964 23.7139C25.961 23.7094 26.0241 23.6921 26.082 23.6631C26.1398 23.634 26.1914 23.5938 26.2336 23.5447C26.2758 23.4956 26.3079 23.4386 26.328 23.377C26.348 23.3155 26.3556 23.2505 26.3504 23.186C26.3452 23.1214 26.3272 23.0586 26.2975 23.001C26.2679 22.9435 26.2271 22.8924 26.1775 22.8507C26.1279 22.809 26.0706 22.7776 26.0088 22.7582C25.947 22.7389 25.882 22.732 25.8175 22.7379C24.6392 22.8332 23.6468 23.4054 22.8676 24.4384C21.6836 26.008 21.716 27.984 22.9332 29.7912C22.378 30.4635 21.4533 32.1449 22.7544 34.9773C23.1041 35.7388 23.7359 36.3348 24.5165 36.6395C24.5771 36.662 24.6415 36.6723 24.706 36.6698C24.7705 36.6673 24.8339 36.6521 24.8925 36.6249C24.9511 36.5978 25.0038 36.5594 25.0475 36.5119C25.0911 36.4643 25.125 36.4086 25.1471 36.3479C25.1691 36.2873 25.179 36.2228 25.1761 36.1583C25.1731 36.0938 25.1575 36.0305 25.13 35.9721C25.1025 35.9137 25.0637 35.8613 25.0159 35.8179C24.968 35.7745 24.9121 35.741 24.8513 35.7194C24.3274 35.5074 23.9015 35.1075 23.6571 34.598C23.6559 34.5953 23.6542 34.5933 23.6531 34.5908C23.652 34.5883 23.6516 34.5853 23.6504 34.5827C22.2669 31.585 23.8092 30.2731 23.8719 30.2215C23.8752 30.2191 23.8774 30.2159 23.8805 30.2133C23.8836 30.2108 23.8877 30.2087 23.8911 30.2057C23.8983 30.1995 24.6289 29.5717 25.4441 29.459C25.5084 29.451 25.5705 29.4303 25.6268 29.3981C25.6831 29.3658 25.7324 29.3228 25.7719 29.2713C25.8114 29.2199 25.8403 29.1611 25.8568 29.0984C25.8734 29.0357 25.8774 28.9704 25.8685 28.9061C25.8596 28.8419 25.8381 28.7801 25.8051 28.7242C25.7721 28.6684 25.7284 28.6196 25.6764 28.5809C25.6245 28.5421 25.5653 28.514 25.5024 28.4982C25.4395 28.4825 25.3741 28.4794 25.31 28.4892C24.7267 28.5879 24.1717 28.8118 23.6832 29.1455C23.1123 28.2484 22.4452 26.6251 23.6499 25.0281C24.253 24.228 25.0091 23.7857 25.8964 23.7139Z" fill="#3C3C4F"/>
<path d="M49.802 38.6918C49.0781 35.9158 48.1591 33.1944 47.0519 30.5479C48.0795 28.642 49.1509 25.8737 48.6236 23.2498C48.5955 23.125 48.5196 23.0163 48.4123 22.9467C48.305 22.8772 48.1748 22.8523 48.0494 22.8775C47.924 22.9027 47.8135 22.976 47.7414 23.0816C47.6693 23.1872 47.6414 23.3168 47.6636 23.4428C48.0749 25.4887 47.3663 27.6874 46.5465 29.3863C45.5302 27.0795 44.2989 24.8736 42.8689 22.7977C42.691 22.5453 42.455 22.3393 42.1808 22.1972C41.9066 22.055 41.6023 21.9808 41.2935 21.9809H39.7627L39.5117 21.5295C39.3648 21.2658 39.1501 21.046 38.8898 20.8931C38.6294 20.7401 38.333 20.6595 38.031 20.6596H38.0087C37.3403 20.6684 36.462 20.6945 35.788 20.7663C35.6664 20.5115 35.4769 20.2952 35.2402 20.1412C35.0036 19.9871 34.7291 19.9014 34.4468 19.8933C33.8551 19.8734 33.2627 19.9088 32.6775 19.9989C32.5114 20.0262 32.3532 20.0889 32.2136 20.1827C32.0739 20.2766 31.956 20.3993 31.8679 20.5427C31.7798 20.6861 31.7236 20.8467 31.703 21.0137C31.6825 21.1807 31.698 21.3502 31.7487 21.5106C32.1683 22.8416 33.1379 25.9165 34.2616 29.4788C33.078 27.5785 31.611 25.2871 30.4667 23.7031C30.2765 23.44 29.996 23.2564 29.6789 23.1872C29.3617 23.1181 29.0302 23.1684 28.7478 23.3284L27.4198 24.0776C27.1268 24.2434 26.908 24.5147 26.8079 24.8361C26.7079 25.1576 26.7341 25.5051 26.8813 25.8079L32.8695 38.0895C31.5962 37.6334 29.4901 37.299 26.7738 38.3675C26.4463 38.4939 26.1648 38.7166 25.9665 39.0062C25.7681 39.2957 25.6621 39.6386 25.6626 39.9896V41.2982C25.6628 41.426 25.7129 41.5486 25.8021 41.64C25.8914 41.7315 26.0128 41.7844 26.1406 41.7877C26.1644 41.7877 28.4508 41.8663 30.0838 43.4201C29.156 43.7987 28.1849 44.0608 27.1926 44.2004C26.9916 44.2278 22.2687 44.8266 21.4222 40.6402C21.0558 38.8295 21.2919 37.3633 22.1237 36.2822C22.1629 36.2312 22.1917 36.173 22.2084 36.1109C22.2251 36.0488 22.2294 35.984 22.2211 35.9202C22.2127 35.8565 22.1919 35.795 22.1598 35.7392C22.1277 35.6835 22.085 35.6347 22.034 35.5955C21.983 35.5562 21.9248 35.5275 21.8627 35.5108C21.8006 35.4941 21.7358 35.4897 21.672 35.4981C21.6082 35.5064 21.5467 35.5272 21.491 35.5593C21.4353 35.5914 21.3864 35.6342 21.3472 35.6852C20.6511 36.5897 19.9325 38.2173 20.4618 40.8343C21.1861 44.4165 24.2755 45.106 26.048 45.1995C25.8341 45.9534 25.6136 46.6842 25.3895 47.3775C25.3698 47.4387 25.3622 47.5032 25.3674 47.5673C25.3725 47.6314 25.3902 47.6938 25.4195 47.7511C25.4488 47.8083 25.4891 47.8592 25.538 47.9009C25.587 47.9426 25.6437 47.9742 25.7048 47.994C25.766 48.0138 25.8305 48.0213 25.8946 48.0161C25.9587 48.011 26.0211 47.9933 26.0784 47.964C26.1356 47.9347 26.1865 47.8945 26.2282 47.8455C26.2699 47.7965 26.3015 47.7399 26.3213 47.6787C26.5754 46.8911 26.8254 46.0551 27.0661 45.194C27.2175 45.1835 27.3061 45.1725 27.3119 45.1717C28.5104 45.0073 29.6797 44.675 30.7856 44.1847C31.6686 45.0632 33.692 46.6169 37.0962 46.8106C37.4869 46.8331 37.8655 46.954 38.1969 47.162C38.5284 47.3701 38.8018 47.6586 38.9919 48.0007L41.3655 52.2206C41.4291 52.3338 41.5351 52.4171 41.6602 52.4521C41.7852 52.4871 41.9191 52.471 42.0323 52.4074C42.1454 52.3437 42.2287 52.2377 42.2637 52.1127C42.2988 51.9876 42.2827 51.8538 42.219 51.7406L39.8456 47.5201C39.5753 47.0346 39.1866 46.6253 38.7156 46.3302C38.2447 46.0352 37.7068 45.864 37.1519 45.8327C32.9658 45.5946 31.0756 43.0444 31.0579 43.02C31.0457 43.0029 31.0324 42.9865 31.0181 42.971C29.5418 41.3808 27.5471 40.9591 26.6416 40.8477V39.9889C26.6419 39.8348 26.6889 39.6843 26.7765 39.5574C26.864 39.4305 26.988 39.3331 27.1321 39.2781C30.7472 37.8565 33.0851 39.1889 33.559 39.5017L33.9945 40.3911C34.0524 40.5064 34.1535 40.5941 34.2757 40.6353C34.3979 40.6765 34.5315 40.6677 34.6473 40.611C34.7631 40.5543 34.8519 40.4542 34.8943 40.3324C34.9368 40.2106 34.9294 40.077 34.8739 39.9606L34.3028 38.7942L27.7617 25.3794C27.7237 25.301 27.7169 25.2109 27.7428 25.1277C27.7688 25.0444 27.8255 24.9742 27.9013 24.9312L29.2294 24.1818C29.3022 24.1404 29.3877 24.1272 29.4696 24.1447C29.5515 24.1623 29.624 24.2094 29.6734 24.2771C31.9322 27.4038 35.4798 33.3477 35.5153 33.4074C35.5768 33.5104 35.674 33.5872 35.7885 33.6233C35.9029 33.6593 36.0266 33.6521 36.1361 33.603C36.2455 33.5539 36.3332 33.4663 36.3824 33.3569C36.4315 33.2475 36.4388 33.1238 36.4028 33.0093C34.8094 27.9611 33.248 23.0089 32.683 21.217C32.6744 21.1902 32.6717 21.162 32.6752 21.1341C32.6787 21.1062 32.6882 21.0794 32.703 21.0556C32.7174 21.0319 32.7367 21.0116 32.7597 20.9961C32.7827 20.9806 32.8088 20.9703 32.8362 20.966C33.3595 20.8859 33.8892 20.8547 34.4183 20.8728C34.5211 20.876 34.6211 20.9075 34.7071 20.9639C34.7932 21.0203 34.862 21.0993 34.906 21.1923L35.0584 21.5096C35.104 21.6044 35.1789 21.6819 35.272 21.7308C35.365 21.7797 35.4714 21.7974 35.5753 21.7813C36.387 21.6842 37.204 21.637 38.0216 21.6401C38.1506 21.6391 38.2775 21.6727 38.3891 21.7372C38.5008 21.8017 38.5933 21.8949 38.6569 22.0071L39.0481 22.7085C39.0905 22.7847 39.1525 22.8481 39.2276 22.8922C39.3028 22.9364 39.3884 22.9597 39.4755 22.9597H41.2938C41.4455 22.9594 41.5951 22.9958 41.7299 23.0655C41.8647 23.1353 41.9807 23.2364 42.0681 23.3605C46.0095 28.9678 48.1271 36.1215 48.854 38.9366C49.1025 39.8967 49.4552 40.8268 49.9059 41.7102L52.0983 46.0056C52.1573 46.1213 52.2599 46.2087 52.3834 46.2488C52.5069 46.2888 52.6413 46.2782 52.7569 46.2191C52.8726 46.1601 52.9601 46.0575 53.0001 45.934C53.0402 45.8105 53.0295 45.6761 52.9705 45.5605L50.778 41.2649C50.3598 40.4453 50.0326 39.5825 49.802 38.6918Z" fill="#3C3C4F"/>
<path d="M39.2539 8.52509C38.826 8.39199 38.3707 8.3734 37.9334 8.47118C37.496 8.56895 37.092 8.77967 36.7615 9.08231C36.3418 9.47743 36.0657 10.0012 35.9769 10.5707C35.882 11.0354 35.9072 11.5167 36.0502 11.9689C36.1932 12.4211 36.4492 12.8293 36.7941 13.155C37.2834 13.6312 37.9396 13.8974 38.6225 13.8966C38.8156 13.8967 39.0081 13.875 39.1963 13.8319C40.45 13.5448 41.1497 12.6875 41.1666 11.4178C41.1734 11.072 41.1357 10.7267 41.0542 10.3906C40.9434 9.94939 40.7189 9.54495 40.403 9.21762C40.0871 8.89029 39.6909 8.6515 39.2539 8.52509ZM38.9778 12.8774C38.7131 12.9374 38.4376 12.9304 38.1763 12.8569C37.9149 12.7835 37.6761 12.6461 37.4813 12.457C37.2511 12.2427 37.0804 11.9725 36.9856 11.6727C36.8908 11.3728 36.8753 11.0536 36.9406 10.7459C36.993 10.387 37.163 10.0556 37.424 9.80372C37.7145 9.53704 38.0949 9.38978 38.4892 9.39135C38.6531 9.39167 38.8162 9.41588 38.9731 9.46321C39.2473 9.54146 39.4961 9.69023 39.6947 9.89467C39.8934 10.0991 40.035 10.3521 40.1054 10.6283C40.166 10.8826 40.1937 11.1435 40.1877 11.4048C40.1767 12.2118 39.7811 12.6935 38.9778 12.8774Z" fill="#3C3C4F"/>
<path d="M11.7741 12.6091H11.7571C11.5947 12.6042 10.6594 12.606 9.99024 13.2712C9.5094 13.7491 9.28874 14.4289 9.3342 15.294C9.41523 16.8293 10.3059 17.3507 10.8283 17.5256C11.0557 17.6009 11.2937 17.6391 11.5333 17.6385C12.0607 17.6346 12.5732 17.4632 12.9969 17.1492C13.9395 16.4594 14.341 15.5504 14.1277 14.5895C14.0233 14.039 13.7322 13.5413 13.3034 13.1805C12.8746 12.8197 12.3345 12.6179 11.7741 12.6091ZM12.4188 16.3591C12.2396 16.4975 12.0301 16.5913 11.8075 16.6326C11.585 16.6739 11.3557 16.6616 11.1389 16.5967C10.6221 16.4243 10.3519 15.9814 10.3131 15.2426C10.283 14.672 10.4053 14.2441 10.6764 13.971C11.0362 13.6085 11.5827 13.5876 11.703 13.5876C11.718 13.5876 11.7263 13.5876 11.727 13.5876C11.7362 13.5876 11.7476 13.5876 11.7565 13.5876C11.7576 13.5878 11.7588 13.5878 11.7599 13.5876C11.8853 13.5876 12.9112 13.6243 13.1726 14.8017C13.2996 15.3763 13.0461 15.9001 12.419 16.3591H12.4188Z" fill="#3C3C4F"/>
<path d="M15.6981 35.9704C15.8767 35.6541 15.9911 35.3057 16.0347 34.9452C16.0783 34.5846 16.0503 34.219 15.9523 33.8692C15.7736 33.1771 15.487 32.5173 15.1032 31.9142C14.2477 30.6208 12.5749 30.1296 11.2113 30.7721C10.4643 31.1241 9.58449 31.9111 9.63475 33.6619C9.6716 34.9365 10.06 35.9348 10.7894 36.6266C11.3571 37.162 12.1095 37.4578 12.8899 37.4523C13.0461 37.4522 13.2022 37.441 13.3569 37.4187C13.4167 37.4101 13.4757 37.3999 13.5343 37.3888C14.1254 38.1384 14.6092 38.663 14.8322 38.8955C14.9411 40.9375 14.4086 44.9461 14.4027 44.9876C14.3934 45.0517 14.3968 45.117 14.4129 45.1797C14.429 45.2424 14.4574 45.3014 14.4964 45.3531C14.5354 45.4048 14.5843 45.4482 14.6402 45.4809C14.6961 45.5135 14.7579 45.5348 14.8221 45.5434C14.8863 45.552 14.9515 45.5478 15.0141 45.531C15.0766 45.5142 15.1352 45.4852 15.1865 45.4456C15.2377 45.406 15.2806 45.3567 15.3127 45.3004C15.3447 45.2441 15.3653 45.182 15.3731 45.1178C15.397 44.9395 15.9572 40.726 15.7967 38.6454C15.7876 38.528 15.7366 38.4177 15.653 38.3348C15.6476 38.3293 15.173 37.8568 14.5193 37.0536C15.007 36.8116 15.4158 36.4359 15.6981 35.9704ZM14.8545 35.4736C14.4395 36.178 13.6511 36.3877 13.2179 36.45C12.9044 36.4979 12.5841 36.475 12.2806 36.3828C11.9771 36.2906 11.6981 36.1314 11.4643 35.9172C10.9292 35.4089 10.643 34.6405 10.6141 33.6338C10.5859 32.6395 10.9175 31.9932 11.6291 31.6573C11.895 31.5323 12.1854 31.4678 12.4792 31.4684C12.8382 31.4714 13.1909 31.5628 13.5061 31.7347C13.8214 31.9066 14.0893 32.1536 14.2862 32.4538C14.6123 32.9689 14.8556 33.5319 15.0071 34.1224C15.0717 34.3466 15.0914 34.5813 15.0653 34.8132C15.0391 35.045 14.9674 35.2694 14.8545 35.4736Z" fill="#3C3C4F"/>
<path d="M86.774 21.2V31H85.78V23.16L81.93 29.754H81.44L77.59 23.202V31H76.596V21.2H77.45L81.706 28.466L85.92 21.2H86.774ZM97.5691 27.626H91.4091C91.4651 28.3913 91.7591 29.012 92.2911 29.488C92.8231 29.9547 93.4951 30.188 94.3071 30.188C94.7644 30.188 95.1844 30.1087 95.5671 29.95C95.9498 29.782 96.2811 29.5393 96.5611 29.222L97.1211 29.866C96.7944 30.258 96.3838 30.5567 95.8891 30.762C95.4038 30.9673 94.8671 31.07 94.2791 31.07C93.5231 31.07 92.8511 30.9113 92.2631 30.594C91.6844 30.2673 91.2318 29.8193 90.9051 29.25C90.5784 28.6807 90.4151 28.0367 90.4151 27.318C90.4151 26.5993 90.5691 25.9553 90.8771 25.386C91.1944 24.8167 91.6238 24.3733 92.1651 24.056C92.7158 23.7387 93.3318 23.58 94.0131 23.58C94.6944 23.58 95.3058 23.7387 95.8471 24.056C96.3884 24.3733 96.8131 24.8167 97.1211 25.386C97.4291 25.946 97.5831 26.59 97.5831 27.318L97.5691 27.626ZM94.0131 24.434C93.3038 24.434 92.7064 24.6627 92.2211 25.12C91.7451 25.568 91.4744 26.156 91.4091 26.884H96.6311C96.5658 26.156 96.2904 25.568 95.8051 25.12C95.3291 24.6627 94.7318 24.434 94.0131 24.434ZM104.758 23.58C105.682 23.58 106.415 23.8507 106.956 24.392C107.507 24.924 107.782 25.7033 107.782 26.73V31H106.788V26.828C106.788 26.0627 106.597 25.4793 106.214 25.078C105.832 24.6767 105.286 24.476 104.576 24.476C103.783 24.476 103.153 24.714 102.686 25.19C102.229 25.6567 102 26.3053 102 27.136V31H101.006V23.636H101.958V24.994C102.229 24.546 102.602 24.2007 103.078 23.958C103.564 23.706 104.124 23.58 104.758 23.58ZM114.96 31.07C114.232 31.07 113.579 30.9113 113 30.594C112.431 30.2767 111.983 29.8333 111.656 29.264C111.33 28.6853 111.166 28.0367 111.166 27.318C111.166 26.5993 111.33 25.9553 111.656 25.386C111.983 24.8167 112.431 24.3733 113 24.056C113.579 23.7387 114.232 23.58 114.96 23.58C115.595 23.58 116.16 23.706 116.654 23.958C117.158 24.2007 117.555 24.56 117.844 25.036L117.102 25.54C116.86 25.176 116.552 24.9053 116.178 24.728C115.805 24.5413 115.399 24.448 114.96 24.448C114.428 24.448 113.948 24.5693 113.518 24.812C113.098 25.0453 112.767 25.3813 112.524 25.82C112.291 26.2587 112.174 26.758 112.174 27.318C112.174 27.8873 112.291 28.3913 112.524 28.83C112.767 29.2593 113.098 29.5953 113.518 29.838C113.948 30.0713 114.428 30.188 114.96 30.188C115.399 30.188 115.805 30.0993 116.178 29.922C116.552 29.7447 116.86 29.474 117.102 29.11L117.844 29.614C117.555 30.09 117.158 30.454 116.654 30.706C116.15 30.9487 115.586 31.07 114.96 31.07ZM127.833 23.636V31H126.881V29.656C126.62 30.104 126.26 30.454 125.803 30.706C125.346 30.9487 124.823 31.07 124.235 31.07C123.274 31.07 122.513 30.804 121.953 30.272C121.402 29.7307 121.127 28.942 121.127 27.906V23.636H122.121V27.808C122.121 28.5827 122.312 29.1707 122.695 29.572C123.078 29.9733 123.624 30.174 124.333 30.174C125.108 30.174 125.719 29.9407 126.167 29.474C126.615 28.998 126.839 28.34 126.839 27.5V23.636H127.833ZM135.069 31.07C134.341 31.07 133.688 30.9113 133.109 30.594C132.54 30.2767 132.092 29.8333 131.765 29.264C131.438 28.6853 131.275 28.0367 131.275 27.318C131.275 26.5993 131.438 25.9553 131.765 25.386C132.092 24.8167 132.54 24.3733 133.109 24.056C133.688 23.7387 134.341 23.58 135.069 23.58C135.704 23.58 136.268 23.706 136.763 23.958C137.267 24.2007 137.664 24.56 137.953 25.036L137.211 25.54C136.968 25.176 136.66 24.9053 136.287 24.728C135.914 24.5413 135.508 24.448 135.069 24.448C134.537 24.448 134.056 24.5693 133.627 24.812C133.207 25.0453 132.876 25.3813 132.633 25.82C132.4 26.2587 132.283 26.758 132.283 27.318C132.283 27.8873 132.4 28.3913 132.633 28.83C132.876 29.2593 133.207 29.5953 133.627 29.838C134.056 30.0713 134.537 30.188 135.069 30.188C135.508 30.188 135.914 30.0993 136.287 29.922C136.66 29.7447 136.968 29.474 137.211 29.11L137.953 29.614C137.664 30.09 137.267 30.454 136.763 30.706C136.259 30.9487 135.694 31.07 135.069 31.07ZM141.306 23.636H142.3V31H141.306V23.636ZM141.81 22.026C141.604 22.026 141.432 21.956 141.292 21.816C141.152 21.676 141.082 21.508 141.082 21.312C141.082 21.1253 141.152 20.962 141.292 20.822C141.432 20.682 141.604 20.612 141.81 20.612C142.015 20.612 142.188 20.682 142.328 20.822C142.468 20.9527 142.538 21.1113 142.538 21.298C142.538 21.5033 142.468 21.676 142.328 21.816C142.188 21.956 142.015 22.026 141.81 22.026ZM155.407 30.552C155.221 30.72 154.987 30.8507 154.707 30.944C154.437 31.028 154.152 31.07 153.853 31.07C153.163 31.07 152.631 30.8833 152.257 30.51C151.884 30.1367 151.697 29.6093 151.697 28.928V24.476H150.381V23.636H151.697V22.026H152.691V23.636H154.931V24.476H152.691V28.872C152.691 29.3107 152.799 29.6467 153.013 29.88C153.237 30.104 153.555 30.216 153.965 30.216C154.171 30.216 154.367 30.1833 154.553 30.118C154.749 30.0527 154.917 29.9593 155.057 29.838L155.407 30.552ZM161.193 23.58C162.154 23.58 162.892 23.8227 163.405 24.308C163.918 24.784 164.175 25.4933 164.175 26.436V31H163.223V29.852C162.999 30.2347 162.668 30.5333 162.229 30.748C161.8 30.9627 161.286 31.07 160.689 31.07C159.868 31.07 159.214 30.874 158.729 30.482C158.244 30.09 158.001 29.572 158.001 28.928C158.001 28.3027 158.225 27.7987 158.673 27.416C159.13 27.0333 159.854 26.842 160.843 26.842H163.181V26.394C163.181 25.7593 163.004 25.2787 162.649 24.952C162.294 24.616 161.776 24.448 161.095 24.448C160.628 24.448 160.18 24.5273 159.751 24.686C159.322 24.8353 158.953 25.0453 158.645 25.316L158.197 24.574C158.57 24.2567 159.018 24.014 159.541 23.846C160.064 23.6687 160.614 23.58 161.193 23.58ZM160.843 30.286C161.403 30.286 161.884 30.16 162.285 29.908C162.686 29.6467 162.985 29.2733 163.181 28.788V27.584H160.871C159.611 27.584 158.981 28.0227 158.981 28.9C158.981 29.3293 159.144 29.67 159.471 29.922C159.798 30.1647 160.255 30.286 160.843 30.286ZM172.027 23.58C172.951 23.58 173.683 23.8507 174.225 24.392C174.775 24.924 175.051 25.7033 175.051 26.73V31H174.057V26.828C174.057 26.0627 173.865 25.4793 173.483 25.078C173.1 24.6767 172.554 24.476 171.845 24.476C171.051 24.476 170.421 24.714 169.955 25.19C169.497 25.6567 169.269 26.3053 169.269 27.136V31H168.275V23.636H169.227V24.994C169.497 24.546 169.871 24.2007 170.347 23.958C170.832 23.706 171.392 23.58 172.027 23.58ZM185.995 23.636V30.104C185.995 31.3547 185.687 32.2787 185.071 32.876C184.464 33.4827 183.545 33.786 182.313 33.786C181.631 33.786 180.983 33.6833 180.367 33.478C179.76 33.282 179.265 33.0067 178.883 32.652L179.387 31.896C179.741 32.2133 180.171 32.4607 180.675 32.638C181.188 32.8153 181.725 32.904 182.285 32.904C183.218 32.904 183.904 32.6847 184.343 32.246C184.781 31.8167 185.001 31.1447 185.001 30.23V29.292C184.693 29.7587 184.287 30.1133 183.783 30.356C183.288 30.5987 182.737 30.72 182.131 30.72C181.44 30.72 180.81 30.5707 180.241 30.272C179.681 29.964 179.237 29.5393 178.911 28.998C178.593 28.4473 178.435 27.8267 178.435 27.136C178.435 26.4453 178.593 25.8293 178.911 25.288C179.237 24.7467 179.681 24.3267 180.241 24.028C180.801 23.7293 181.431 23.58 182.131 23.58C182.756 23.58 183.321 23.706 183.825 23.958C184.329 24.21 184.735 24.574 185.043 25.05V23.636H185.995ZM182.229 29.838C182.761 29.838 183.241 29.726 183.671 29.502C184.1 29.2687 184.431 28.9467 184.665 28.536C184.907 28.1253 185.029 27.6587 185.029 27.136C185.029 26.6133 184.907 26.1513 184.665 25.75C184.431 25.3393 184.1 25.022 183.671 24.798C183.251 24.5647 182.77 24.448 182.229 24.448C181.697 24.448 181.216 24.56 180.787 24.784C180.367 25.008 180.035 25.3253 179.793 25.736C179.559 26.1467 179.443 26.6133 179.443 27.136C179.443 27.6587 179.559 28.1253 179.793 28.536C180.035 28.9467 180.367 29.2687 180.787 29.502C181.216 29.726 181.697 29.838 182.229 29.838ZM192.75 23.58C193.712 23.58 194.449 23.8227 194.962 24.308C195.476 24.784 195.732 25.4933 195.732 26.436V31H194.78V29.852C194.556 30.2347 194.225 30.5333 193.786 30.748C193.357 30.9627 192.844 31.07 192.246 31.07C191.425 31.07 190.772 30.874 190.286 30.482C189.801 30.09 189.558 29.572 189.558 28.928C189.558 28.3027 189.782 27.7987 190.23 27.416C190.688 27.0333 191.411 26.842 192.4 26.842H194.738V26.394C194.738 25.7593 194.561 25.2787 194.206 24.952C193.852 24.616 193.334 24.448 192.652 24.448C192.186 24.448 191.738 24.5273 191.308 24.686C190.879 24.8353 190.51 25.0453 190.202 25.316L189.754 24.574C190.128 24.2567 190.576 24.014 191.098 23.846C191.621 23.6687 192.172 23.58 192.75 23.58ZM192.4 30.286C192.96 30.286 193.441 30.16 193.842 29.908C194.244 29.6467 194.542 29.2733 194.738 28.788V27.584H192.428C191.168 27.584 190.538 28.0227 190.538 28.9C190.538 29.3293 190.702 29.67 191.028 29.922C191.355 30.1647 191.812 30.286 192.4 30.286ZM203.584 23.58C204.508 23.58 205.241 23.8507 205.782 24.392C206.333 24.924 206.608 25.7033 206.608 26.73V31H205.614V26.828C205.614 26.0627 205.423 25.4793 205.04 25.078C204.657 24.6767 204.111 24.476 203.402 24.476C202.609 24.476 201.979 24.714 201.512 25.19C201.055 25.6567 200.826 26.3053 200.826 27.136V31H199.832V23.636H200.784V24.994C201.055 24.546 201.428 24.2007 201.904 23.958C202.389 23.706 202.949 23.58 203.584 23.58ZM222.491 20.612V31H221.539V29.544C221.24 30.0387 220.843 30.4167 220.349 30.678C219.863 30.9393 219.313 31.07 218.697 31.07C218.006 31.07 217.381 30.9113 216.821 30.594C216.261 30.2767 215.822 29.8333 215.505 29.264C215.187 28.6947 215.029 28.046 215.029 27.318C215.029 26.59 215.187 25.9413 215.505 25.372C215.822 24.8027 216.261 24.364 216.821 24.056C217.381 23.7387 218.006 23.58 218.697 23.58C219.294 23.58 219.831 23.706 220.307 23.958C220.792 24.2007 221.189 24.56 221.497 25.036V20.612H222.491ZM218.781 30.188C219.294 30.188 219.756 30.0713 220.167 29.838C220.587 29.5953 220.913 29.2547 221.147 28.816C221.389 28.3773 221.511 27.878 221.511 27.318C221.511 26.758 221.389 26.2587 221.147 25.82C220.913 25.3813 220.587 25.0453 220.167 24.812C219.756 24.5693 219.294 24.448 218.781 24.448C218.258 24.448 217.787 24.5693 217.367 24.812C216.956 25.0453 216.629 25.3813 216.387 25.82C216.153 26.2587 216.037 26.758 216.037 27.318C216.037 27.878 216.153 28.3773 216.387 28.816C216.629 29.2547 216.956 29.5953 217.367 29.838C217.787 30.0713 218.258 30.188 218.781 30.188ZM229.235 23.58C230.196 23.58 230.934 23.8227 231.447 24.308C231.96 24.784 232.217 25.4933 232.217 26.436V31H231.265V29.852C231.041 30.2347 230.71 30.5333 230.271 30.748C229.842 30.9627 229.328 31.07 228.731 31.07C227.91 31.07 227.256 30.874 226.771 30.482C226.286 30.09 226.043 29.572 226.043 28.928C226.043 28.3027 226.267 27.7987 226.715 27.416C227.172 27.0333 227.896 26.842 228.885 26.842H231.223V26.394C231.223 25.7593 231.046 25.2787 230.691 24.952C230.336 24.616 229.818 24.448 229.137 24.448C228.67 24.448 228.222 24.5273 227.793 24.686C227.364 24.8353 226.995 25.0453 226.687 25.316L226.239 24.574C226.612 24.2567 227.06 24.014 227.583 23.846C228.106 23.6687 228.656 23.58 229.235 23.58ZM228.885 30.286C229.445 30.286 229.926 30.16 230.327 29.908C230.728 29.6467 231.027 29.2733 231.223 28.788V27.584H228.913C227.653 27.584 227.023 28.0227 227.023 28.9C227.023 29.3293 227.186 29.67 227.513 29.922C227.84 30.1647 228.297 30.286 228.885 30.286ZM240.069 23.58C240.993 23.58 241.726 23.8507 242.267 24.392C242.818 24.924 243.093 25.7033 243.093 26.73V31H242.099V26.828C242.099 26.0627 241.908 25.4793 241.525 25.078C241.142 24.6767 240.596 24.476 239.887 24.476C239.094 24.476 238.464 24.714 237.997 25.19C237.54 25.6567 237.311 26.3053 237.311 27.136V31H236.317V23.636H237.269V24.994C237.54 24.546 237.913 24.2007 238.389 23.958C238.874 23.706 239.434 23.58 240.069 23.58ZM85.57 40.58C86.494 40.58 87.2173 40.846 87.74 41.378C88.272 41.91 88.538 42.694 88.538 43.73V48H87.544V43.828C87.544 43.0627 87.3573 42.4793 86.984 42.078C86.62 41.6767 86.102 41.476 85.43 41.476C84.6647 41.476 84.0627 41.714 83.624 42.19C83.1853 42.6567 82.966 43.3053 82.966 44.136V48H81.972V43.828C81.972 43.0627 81.7853 42.4793 81.412 42.078C81.048 41.6767 80.5253 41.476 79.844 41.476C79.088 41.476 78.486 41.714 78.038 42.19C77.5993 42.6567 77.38 43.3053 77.38 44.136V48H76.386V40.636H77.338V41.98C77.5993 41.532 77.9633 41.1867 78.43 40.944C78.8967 40.7013 79.4333 40.58 80.04 40.58C80.656 40.58 81.188 40.7107 81.636 40.972C82.0933 41.2333 82.434 41.6207 82.658 42.134C82.9287 41.6487 83.316 41.2707 83.82 41C84.3333 40.72 84.9167 40.58 85.57 40.58ZM99.073 44.626H92.913C92.969 45.3913 93.263 46.012 93.795 46.488C94.327 46.9547 94.999 47.188 95.811 47.188C96.2683 47.188 96.6883 47.1087 97.071 46.95C97.4537 46.782 97.785 46.5393 98.065 46.222L98.625 46.866C98.2983 47.258 97.8877 47.5567 97.393 47.762C96.9077 47.9673 96.371 48.07 95.783 48.07C95.027 48.07 94.355 47.9113 93.767 47.594C93.1883 47.2673 92.7357 46.8193 92.409 46.25C92.0823 45.6807 91.919 45.0367 91.919 44.318C91.919 43.5993 92.073 42.9553 92.381 42.386C92.6983 41.8167 93.1277 41.3733 93.669 41.056C94.2197 40.7387 94.8357 40.58 95.517 40.58C96.1983 40.58 96.8097 40.7387 97.351 41.056C97.8923 41.3733 98.317 41.8167 98.625 42.386C98.933 42.946 99.087 43.59 99.087 44.318L99.073 44.626ZM95.517 41.434C94.8077 41.434 94.2103 41.6627 93.725 42.12C93.249 42.568 92.9783 43.156 92.913 43.884H98.135C98.0697 43.156 97.7943 42.568 97.309 42.12C96.833 41.6627 96.2357 41.434 95.517 41.434ZM106.262 40.58C107.186 40.58 107.919 40.8507 108.46 41.392C109.011 41.924 109.286 42.7033 109.286 43.73V48H108.292V43.828C108.292 43.0627 108.101 42.4793 107.718 42.078C107.336 41.6767 106.79 41.476 106.08 41.476C105.287 41.476 104.657 41.714 104.19 42.19C103.733 42.6567 103.504 43.3053 103.504 44.136V48H102.51V40.636H103.462V41.994C103.733 41.546 104.106 41.2007 104.582 40.958C105.068 40.706 105.628 40.58 106.262 40.58ZM120.23 40.636V47.104C120.23 48.3547 119.922 49.2787 119.306 49.876C118.7 50.4827 117.78 50.786 116.548 50.786C115.867 50.786 115.218 50.6833 114.602 50.478C113.996 50.282 113.501 50.0067 113.118 49.652L113.622 48.896C113.977 49.2133 114.406 49.4607 114.91 49.638C115.424 49.8153 115.96 49.904 116.52 49.904C117.454 49.904 118.14 49.6847 118.578 49.246C119.017 48.8167 119.236 48.1447 119.236 47.23V46.292C118.928 46.7587 118.522 47.1133 118.018 47.356C117.524 47.5987 116.973 47.72 116.366 47.72C115.676 47.72 115.046 47.5707 114.476 47.272C113.916 46.964 113.473 46.5393 113.146 45.998C112.829 45.4473 112.67 44.8267 112.67 44.136C112.67 43.4453 112.829 42.8293 113.146 42.288C113.473 41.7467 113.916 41.3267 114.476 41.028C115.036 40.7293 115.666 40.58 116.366 40.58C116.992 40.58 117.556 40.706 118.06 40.958C118.564 41.21 118.97 41.574 119.278 42.05V40.636H120.23ZM116.464 46.838C116.996 46.838 117.477 46.726 117.906 46.502C118.336 46.2687 118.667 45.9467 118.9 45.536C119.143 45.1253 119.264 44.6587 119.264 44.136C119.264 43.6133 119.143 43.1513 118.9 42.75C118.667 42.3393 118.336 42.022 117.906 41.798C117.486 41.5647 117.006 41.448 116.464 41.448C115.932 41.448 115.452 41.56 115.022 41.784C114.602 42.008 114.271 42.3253 114.028 42.736C113.795 43.1467 113.678 43.6133 113.678 44.136C113.678 44.6587 113.795 45.1253 114.028 45.536C114.271 45.9467 114.602 46.2687 115.022 46.502C115.452 46.726 115.932 46.838 116.464 46.838ZM131.228 40.636V47.104C131.228 48.3547 130.92 49.2787 130.304 49.876C129.697 50.4827 128.778 50.786 127.546 50.786C126.864 50.786 126.216 50.6833 125.6 50.478C124.993 50.282 124.498 50.0067 124.116 49.652L124.62 48.896C124.974 49.2133 125.404 49.4607 125.908 49.638C126.421 49.8153 126.958 49.904 127.518 49.904C128.451 49.904 129.137 49.6847 129.576 49.246C130.014 48.8167 130.234 48.1447 130.234 47.23V46.292C129.926 46.7587 129.52 47.1133 129.016 47.356C128.521 47.5987 127.97 47.72 127.364 47.72C126.673 47.72 126.043 47.5707 125.474 47.272C124.914 46.964 124.47 46.5393 124.144 45.998C123.826 45.4473 123.668 44.8267 123.668 44.136C123.668 43.4453 123.826 42.8293 124.144 42.288C124.47 41.7467 124.914 41.3267 125.474 41.028C126.034 40.7293 126.664 40.58 127.364 40.58C127.989 40.58 128.554 40.706 129.058 40.958C129.562 41.21 129.968 41.574 130.276 42.05V40.636H131.228ZM127.462 46.838C127.994 46.838 128.474 46.726 128.904 46.502C129.333 46.2687 129.664 45.9467 129.898 45.536C130.14 45.1253 130.262 44.6587 130.262 44.136C130.262 43.6133 130.14 43.1513 129.898 42.75C129.664 42.3393 129.333 42.022 128.904 41.798C128.484 41.5647 128.003 41.448 127.462 41.448C126.93 41.448 126.449 41.56 126.02 41.784C125.6 42.008 125.268 42.3253 125.026 42.736C124.792 43.1467 124.676 43.6133 124.676 44.136C124.676 44.6587 124.792 45.1253 125.026 45.536C125.268 45.9467 125.6 46.2687 126.02 46.502C126.449 46.726 126.93 46.838 127.462 46.838ZM142.043 40.636V48H141.091V46.656C140.83 47.104 140.471 47.454 140.013 47.706C139.556 47.9487 139.033 48.07 138.445 48.07C137.484 48.07 136.723 47.804 136.163 47.272C135.613 46.7307 135.337 45.942 135.337 44.906V40.636H136.331V44.808C136.331 45.5827 136.523 46.1707 136.905 46.572C137.288 46.9733 137.834 47.174 138.543 47.174C139.318 47.174 139.929 46.9407 140.377 46.474C140.825 45.998 141.049 45.34 141.049 44.5V40.636H142.043ZM149.979 40.58C150.903 40.58 151.636 40.8507 152.177 41.392C152.728 41.924 153.003 42.7033 153.003 43.73V48H152.009V43.828C152.009 43.0627 151.818 42.4793 151.435 42.078C151.053 41.6767 150.507 41.476 149.797 41.476C149.004 41.476 148.374 41.714 147.907 42.19C147.45 42.6567 147.221 43.3053 147.221 44.136V48H146.227V40.636H147.179V41.994C147.45 41.546 147.823 41.2007 148.299 40.958C148.785 40.706 149.345 40.58 149.979 40.58ZM159.678 40.58C160.639 40.58 161.377 40.8227 161.89 41.308C162.403 41.784 162.66 42.4933 162.66 43.436V48H161.708V46.852C161.484 47.2347 161.153 47.5333 160.714 47.748C160.285 47.9627 159.771 48.07 159.174 48.07C158.353 48.07 157.699 47.874 157.214 47.482C156.729 47.09 156.486 46.572 156.486 45.928C156.486 45.3027 156.71 44.7987 157.158 44.416C157.615 44.0333 158.339 43.842 159.328 43.842H161.666V43.394C161.666 42.7593 161.489 42.2787 161.134 41.952C160.779 41.616 160.261 41.448 159.58 41.448C159.113 41.448 158.665 41.5273 158.236 41.686C157.807 41.8353 157.438 42.0453 157.13 42.316L156.682 41.574C157.055 41.2567 157.503 41.014 158.026 40.846C158.549 40.6687 159.099 40.58 159.678 40.58ZM159.328 47.286C159.888 47.286 160.369 47.16 160.77 46.908C161.171 46.6467 161.47 46.2733 161.666 45.788V44.584H159.356C158.096 44.584 157.466 45.0227 157.466 45.9C157.466 46.3293 157.629 46.67 157.956 46.922C158.283 47.1647 158.74 47.286 159.328 47.286ZM169.49 44.304L167.754 45.9V48H166.76V37.612H167.754V44.654L172.15 40.636H173.382L170.232 43.646L173.676 48H172.458L169.49 44.304ZM179.007 40.58C179.969 40.58 180.706 40.8227 181.219 41.308C181.733 41.784 181.989 42.4933 181.989 43.436V48H181.037V46.852C180.813 47.2347 180.482 47.5333 180.043 47.748C179.614 47.9627 179.101 48.07 178.503 48.07C177.682 48.07 177.029 47.874 176.543 47.482C176.058 47.09 175.815 46.572 175.815 45.928C175.815 45.3027 176.039 44.7987 176.487 44.416C176.945 44.0333 177.668 43.842 178.657 43.842H180.995V43.394C180.995 42.7593 180.818 42.2787 180.463 41.952C180.109 41.616 179.591 41.448 178.909 41.448C178.443 41.448 177.995 41.5273 177.565 41.686C177.136 41.8353 176.767 42.0453 176.459 42.316L176.011 41.574C176.385 41.2567 176.833 41.014 177.355 40.846C177.878 40.6687 178.429 40.58 179.007 40.58ZM178.657 47.286C179.217 47.286 179.698 47.16 180.099 46.908C180.501 46.6467 180.799 46.2733 180.995 45.788V44.584H178.685C177.425 44.584 176.795 45.0227 176.795 45.9C176.795 46.3293 176.959 46.67 177.285 46.922C177.612 47.1647 178.069 47.286 178.657 47.286ZM189.841 40.58C190.765 40.58 191.498 40.8507 192.039 41.392C192.59 41.924 192.865 42.7033 192.865 43.73V48H191.871V43.828C191.871 43.0627 191.68 42.4793 191.297 42.078C190.914 41.6767 190.368 41.476 189.659 41.476C188.866 41.476 188.236 41.714 187.769 42.19C187.312 42.6567 187.083 43.3053 187.083 44.136V48H186.089V40.636H187.041V41.994C187.312 41.546 187.685 41.2007 188.161 40.958C188.646 40.706 189.206 40.58 189.841 40.58ZM205.78 40.58C206.704 40.58 207.436 40.8507 207.978 41.392C208.528 41.924 208.804 42.7033 208.804 43.73V48H207.81V43.828C207.81 43.0627 207.618 42.4793 207.236 42.078C206.853 41.6767 206.307 41.476 205.598 41.476C204.804 41.476 204.174 41.714 203.708 42.19C203.25 42.6567 203.022 43.3053 203.022 44.136V48H202.028V37.612H203.022V41.924C203.292 41.4947 203.666 41.1633 204.142 40.93C204.618 40.6967 205.164 40.58 205.78 40.58ZM215.478 40.58C216.44 40.58 217.177 40.8227 217.69 41.308C218.204 41.784 218.46 42.4933 218.46 43.436V48H217.508V46.852C217.284 47.2347 216.953 47.5333 216.514 47.748C216.085 47.9627 215.572 48.07 214.974 48.07C214.153 48.07 213.5 47.874 213.014 47.482C212.529 47.09 212.286 46.572 212.286 45.928C212.286 45.3027 212.51 44.7987 212.958 44.416C213.416 44.0333 214.139 43.842 215.128 43.842H217.466V43.394C217.466 42.7593 217.289 42.2787 216.934 41.952C216.58 41.616 216.062 41.448 215.38 41.448C214.914 41.448 214.466 41.5273 214.036 41.686C213.607 41.8353 213.238 42.0453 212.93 42.316L212.482 41.574C212.856 41.2567 213.304 41.014 213.826 40.846C214.349 40.6687 214.9 40.58 215.478 40.58ZM215.128 47.286C215.688 47.286 216.169 47.16 216.57 46.908C216.972 46.6467 217.27 46.2733 217.466 45.788V44.584H215.156C213.896 44.584 213.266 45.0227 213.266 45.9C213.266 46.3293 213.43 46.67 213.756 46.922C214.083 47.1647 214.54 47.286 215.128 47.286ZM226.312 40.58C227.236 40.58 227.969 40.8507 228.51 41.392C229.061 41.924 229.336 42.7033 229.336 43.73V48H228.342V43.828C228.342 43.0627 228.151 42.4793 227.768 42.078C227.386 41.6767 226.84 41.476 226.13 41.476C225.337 41.476 224.707 41.714 224.24 42.19C223.783 42.6567 223.554 43.3053 223.554 44.136V48H222.56V40.636H223.512V41.994C223.783 41.546 224.156 41.2007 224.632 40.958C225.118 40.706 225.678 40.58 226.312 40.58ZM240.182 37.612V48H239.23V46.544C238.932 47.0387 238.535 47.4167 238.04 47.678C237.555 47.9393 237.004 48.07 236.388 48.07C235.698 48.07 235.072 47.9113 234.512 47.594C233.952 47.2767 233.514 46.8333 233.196 46.264C232.879 45.6947 232.72 45.046 232.72 44.318C232.72 43.59 232.879 42.9413 233.196 42.372C233.514 41.8027 233.952 41.364 234.512 41.056C235.072 40.7387 235.698 40.58 236.388 40.58C236.986 40.58 237.522 40.706 237.998 40.958C238.484 41.2007 238.88 41.56 239.188 42.036V37.612H240.182ZM236.472 47.188C236.986 47.188 237.448 47.0713 237.858 46.838C238.278 46.5953 238.605 46.2547 238.838 45.816C239.081 45.3773 239.202 44.878 239.202 44.318C239.202 43.758 239.081 43.2587 238.838 42.82C238.605 42.3813 238.278 42.0453 237.858 41.812C237.448 41.5693 236.986 41.448 236.472 41.448C235.95 41.448 235.478 41.5693 235.058 41.812C234.648 42.0453 234.321 42.3813 234.078 42.82C233.845 43.2587 233.728 43.758 233.728 44.318C233.728 44.878 233.845 45.3773 234.078 45.816C234.321 46.2547 234.648 46.5953 235.058 46.838C235.478 47.0713 235.95 47.188 236.472 47.188ZM246.324 48.07C245.727 48.07 245.153 47.986 244.602 47.818C244.061 47.6407 243.636 47.4213 243.328 47.16L243.776 46.376C244.084 46.6187 244.472 46.8193 244.938 46.978C245.405 47.1273 245.89 47.202 246.394 47.202C247.066 47.202 247.561 47.0993 247.878 46.894C248.205 46.6793 248.368 46.3807 248.368 45.998C248.368 45.7273 248.28 45.5173 248.102 45.368C247.925 45.2093 247.701 45.0927 247.43 45.018C247.16 44.934 246.8 44.8547 246.352 44.78C245.755 44.668 245.274 44.556 244.91 44.444C244.546 44.3227 244.234 44.122 243.972 43.842C243.72 43.562 243.594 43.1747 243.594 42.68C243.594 42.064 243.851 41.56 244.364 41.168C244.878 40.776 245.592 40.58 246.506 40.58C246.982 40.58 247.458 40.6453 247.934 40.776C248.41 40.8973 248.802 41.0607 249.11 41.266L248.676 42.064C248.07 41.644 247.346 41.434 246.506 41.434C245.872 41.434 245.391 41.546 245.064 41.77C244.747 41.994 244.588 42.288 244.588 42.652C244.588 42.932 244.677 43.156 244.854 43.324C245.041 43.492 245.27 43.618 245.54 43.702C245.811 43.7767 246.184 43.856 246.66 43.94C247.248 44.052 247.72 44.164 248.074 44.276C248.429 44.388 248.732 44.5793 248.984 44.85C249.236 45.1207 249.362 45.494 249.362 45.97C249.362 46.614 249.092 47.1273 248.55 47.51C248.018 47.8833 247.276 48.07 246.324 48.07ZM255.176 40.58C256.137 40.58 256.875 40.8227 257.388 41.308C257.901 41.784 258.158 42.4933 258.158 43.436V48H257.206V46.852C256.982 47.2347 256.651 47.5333 256.212 47.748C255.783 47.9627 255.269 48.07 254.672 48.07C253.851 48.07 253.197 47.874 252.712 47.482C252.227 47.09 251.984 46.572 251.984 45.928C251.984 45.3027 252.208 44.7987 252.656 44.416C253.113 44.0333 253.837 43.842 254.826 43.842H257.164V43.394C257.164 42.7593 256.987 42.2787 256.632 41.952C256.277 41.616 255.759 41.448 255.078 41.448C254.611 41.448 254.163 41.5273 253.734 41.686C253.305 41.8353 252.936 42.0453 252.628 42.316L252.18 41.574C252.553 41.2567 253.001 41.014 253.524 40.846C254.047 40.6687 254.597 40.58 255.176 40.58ZM254.826 47.286C255.386 47.286 255.867 47.16 256.268 46.908C256.669 46.6467 256.968 46.2733 257.164 45.788V44.584H254.854C253.594 44.584 252.964 45.0227 252.964 45.9C252.964 46.3293 253.127 46.67 253.454 46.922C253.781 47.1647 254.238 47.286 254.826 47.286ZM266.01 40.58C266.934 40.58 267.667 40.8507 268.208 41.392C268.759 41.924 269.034 42.7033 269.034 43.73V48H268.04V43.828C268.04 43.0627 267.849 42.4793 267.466 42.078C267.083 41.6767 266.537 41.476 265.828 41.476C265.035 41.476 264.405 41.714 263.938 42.19C263.481 42.6567 263.252 43.3053 263.252 44.136V48H262.258V40.636H263.21V41.994C263.481 41.546 263.854 41.2007 264.33 40.958C264.815 40.706 265.375 40.58 266.01 40.58ZM273.132 40.636H274.126V48H273.132V40.636ZM273.636 39.026C273.431 39.026 273.258 38.956 273.118 38.816C272.978 38.676 272.908 38.508 272.908 38.312C272.908 38.1253 272.978 37.962 273.118 37.822C273.258 37.682 273.431 37.612 273.636 37.612C273.842 37.612 274.014 37.682 274.154 37.822C274.294 37.9527 274.364 38.1113 274.364 38.298C274.364 38.5033 274.294 38.676 274.154 38.816C274.014 38.956 273.842 39.026 273.636 39.026ZM282.17 47.552C281.984 47.72 281.75 47.8507 281.47 47.944C281.2 48.028 280.915 48.07 280.616 48.07C279.926 48.07 279.394 47.8833 279.02 47.51C278.647 47.1367 278.46 46.6093 278.46 45.928V41.476H277.144V40.636H278.46V39.026H279.454V40.636H281.694V41.476H279.454V45.872C279.454 46.3107 279.562 46.6467 279.776 46.88C280 47.104 280.318 47.216 280.728 47.216C280.934 47.216 281.13 47.1833 281.316 47.118C281.512 47.0527 281.68 46.9593 281.82 46.838L282.17 47.552ZM285.38 40.636H286.374V48H285.38V40.636ZM285.884 39.026C285.678 39.026 285.506 38.956 285.366 38.816C285.226 38.676 285.156 38.508 285.156 38.312C285.156 38.1253 285.226 37.962 285.366 37.822C285.506 37.682 285.678 37.612 285.884 37.612C286.089 37.612 286.262 37.682 286.402 37.822C286.542 37.9527 286.612 38.1113 286.612 38.298C286.612 38.5033 286.542 38.676 286.402 38.816C286.262 38.956 286.089 39.026 285.884 39.026ZM295.734 47.174V48H289.742V47.342L294.376 41.476H289.826V40.636H295.65V41.294L291.016 47.174H295.734ZM305.379 44.626H299.219C299.275 45.3913 299.569 46.012 300.101 46.488C300.633 46.9547 301.305 47.188 302.117 47.188C302.574 47.188 302.994 47.1087 303.377 46.95C303.76 46.782 304.091 46.5393 304.371 46.222L304.931 46.866C304.604 47.258 304.194 47.5567 303.699 47.762C303.214 47.9673 302.677 48.07 302.089 48.07C301.333 48.07 300.661 47.9113 300.073 47.594C299.494 47.2673 299.042 46.8193 298.715 46.25C298.388 45.6807 298.225 45.0367 298.225 44.318C298.225 43.5993 298.379 42.9553 298.687 42.386C299.004 41.8167 299.434 41.3733 299.975 41.056C300.526 40.7387 301.142 40.58 301.823 40.58C302.504 40.58 303.116 40.7387 303.657 41.056C304.198 41.3733 304.623 41.8167 304.931 42.386C305.239 42.946 305.393 43.59 305.393 44.318L305.379 44.626ZM301.823 41.434C301.114 41.434 300.516 41.6627 300.031 42.12C299.555 42.568 299.284 43.156 299.219 43.884H304.441C304.376 43.156 304.1 42.568 303.615 42.12C303.139 41.6627 302.542 41.434 301.823 41.434ZM309.768 42.078C310.001 41.5833 310.347 41.21 310.804 40.958C311.271 40.706 311.845 40.58 312.526 40.58V41.546L312.288 41.532C311.513 41.532 310.907 41.77 310.468 42.246C310.029 42.722 309.81 43.3893 309.81 44.248V48H308.816V40.636H309.768V42.078Z" fill="#1D1313"/>
</svg>
