<svg width="60" height="60" viewBox="0 0 60 60" fill="none" xmlns="http://www.w3.org/2000/svg">
<rect width="60" height="60" rx="5" fill="#E5E5E5"/>
<path d="M33.6224 21.713C33.6224 21.713 32.5 23.5982 33.8963 25.0622C34.806 26.0161 35.7382 26.1645 36.5093 26.0198C37.0874 25.9039 37.6178 25.6182 38.0328 25.1993C38.4477 24.7804 38.7283 24.2473 38.8387 23.6681C38.8691 23.5066 38.9371 23.3546 39.0374 23.2244C39.1376 23.0942 39.2672 22.9896 39.4156 22.919L39.4637 22.8968C39.6497 22.8111 39.7987 22.6613 39.8833 22.4748C39.9679 22.2883 39.9825 22.0776 39.9245 21.8812L39.8539 21.6437C39.8016 21.4666 39.6931 21.3113 39.5448 21.2011C39.3965 21.091 39.2164 21.0321 39.0317 21.0331L38.3713 21.0371C38.172 21.039 37.9767 20.9817 37.8101 20.8723C37.1325 20.4248 35.1057 19.3811 33.6224 21.713Z" fill="#B21F42"/>
<path d="M11.2558 7.62715C11.2558 7.62715 8.76556 7.4984 7.95379 9.9368C7.14203 12.3752 9.77878 13.8295 9.77878 13.8295C9.77878 13.8295 11.7307 14.9181 13.6741 12.8144C15.6176 10.7107 13.3889 8.5287 13.3889 8.5287C12.8005 7.99525 12.0484 7.67738 11.2558 7.62715Z" fill="#F74F73"/>
<path d="M25.2112 12.3959C25.2112 12.3959 25.9993 11.2401 25.0993 10.1124C24.1993 8.98464 22.7501 9.80968 22.7501 9.80968C22.7501 9.80968 21.6717 10.4167 22.0847 11.9861C22.4978 13.5554 24.1672 13.1465 24.1672 13.1465C24.5912 13.0239 24.96 12.7588 25.2112 12.3959Z" fill="#B21F42"/>
<path d="M11.7881 51.381C11.7881 51.381 12.7685 49.9431 11.6489 48.5404C10.5294 47.1377 8.72657 48.1639 8.72657 48.1639C8.72657 48.1639 7.3854 48.9189 7.89885 50.8712C8.41231 52.8235 10.4893 52.3147 10.4893 52.3147C11.0168 52.1623 11.4756 51.8325 11.7881 51.381Z" fill="#B21F42"/>
<path d="M10.7898 40.1465C10.7898 40.1465 11.347 39.3293 10.7107 38.5321C10.0744 37.7349 9.04922 38.3181 9.04922 38.3181C9.04922 38.3181 8.28686 38.7471 8.57882 39.8569C8.87077 40.9667 10.0516 40.6771 10.0516 40.6771C10.3514 40.5905 10.6122 40.4031 10.7898 40.1465Z" fill="#B21F42"/>
<path d="M51.2663 25.1331L51.0545 24.6954C50.9537 24.4818 50.9028 24.248 50.9059 24.0118C50.9089 23.7756 50.9657 23.5432 51.0721 23.3322C51.7963 21.8499 51.4747 20.1798 51.4747 20.1798C51.4747 20.1798 51.1448 18.4612 49.6618 17.3788C49.3263 17.1433 48.9637 16.949 48.5818 16.8C48.4237 16.7365 48.2863 16.6304 48.1848 16.4934C48.0834 16.3565 48.0218 16.1941 48.0071 16.0244L47.8589 14.2914C47.8419 14.1015 47.8813 13.9108 47.9721 13.7431C48.063 13.5754 48.2013 13.4383 48.3696 13.3488C50.0324 12.4766 49.0165 10.3886 49.0165 10.3886C49.0165 10.3886 48.32 9.10587 46.4622 9.56512C44.6045 10.0244 45.0568 12 45.0568 12C45.1548 12.4641 45.4104 12.8799 45.7802 13.1768C45.9164 13.2821 46.0217 13.4222 46.0849 13.5823C46.1481 13.7424 46.1668 13.9167 46.1392 14.0866L45.871 15.8744C45.8461 16.0449 45.7737 16.2048 45.6619 16.3358C45.5502 16.4668 45.4037 16.5636 45.2393 16.615C44.6979 16.7854 44.1881 17.0434 43.7302 17.3788C40.6937 19.5679 42.6475 23.4282 42.6475 23.4282C42.6475 23.4282 44.0275 26.1812 47.9216 25.4816C48.134 25.4421 48.3524 25.4477 48.5626 25.4981C48.7727 25.5485 48.9699 25.6426 49.1413 25.7743L49.8304 26.3094C49.9882 26.4318 50.1839 26.495 50.3835 26.488C50.5831 26.4809 50.7738 26.404 50.9225 26.2707L51.0681 26.1402C51.206 26.0166 51.2999 25.8515 51.3357 25.6698C51.3714 25.4881 51.3471 25.2997 51.2663 25.1331Z" fill="#F74F73"/>
<path d="M39.8571 10.3511C37.6522 7.58865 34.1019 9.60959 34.1019 9.60959C34.1019 9.60959 31.525 11.1343 32.0568 13.809C32.1459 14.2849 32.1071 14.7758 31.9443 15.2317C31.7815 15.6876 31.5005 16.0921 31.1301 16.4039C29.6606 17.6646 27.8002 18.8314 26.2369 19.713C25.6306 20.0517 24.9418 20.2145 24.248 20.183C23.5542 20.1515 22.883 19.9271 22.3098 19.5349C20.8868 18.5716 19.0009 18.0065 16.4634 18.2677C16.1052 18.3055 15.7431 18.2524 15.4108 18.1132C15.0785 17.9741 14.7867 17.7533 14.5624 17.4714L14.2577 17.0867C14.0746 16.8556 13.8221 16.6894 13.5375 16.6126C13.2528 16.5358 12.951 16.5525 12.6765 16.6601L12.4457 16.7506C12.174 16.8572 11.9432 17.0475 11.7867 17.2939C11.6302 17.5403 11.5561 17.8301 11.5751 18.1214L11.6235 18.8639C11.6432 19.181 11.5923 19.4985 11.4743 19.7935C11.3564 20.0885 11.1745 20.3537 10.9416 20.5698C6.13144 25.0657 9.19341 32.0955 9.19341 32.0955C9.19341 32.0955 10.3728 34.4523 13.3916 35.6598C13.6852 35.7762 13.9431 35.9677 14.1394 36.2152C14.3357 36.4626 14.4636 36.7573 14.5103 37.0697C14.7686 38.758 14.9195 40.461 14.962 42.1684C14.9632 42.3642 14.9119 42.5567 14.8132 42.7258C14.7146 42.895 14.5724 43.0345 14.4014 43.1298C14.4014 43.1298 12.7103 44.0817 13.358 46.5425C14.0057 49.0034 16.6235 48.3624 16.6235 48.3624C17.2887 48.1703 17.8671 47.7545 18.2612 47.1853C18.2612 47.1853 19.497 45.3727 18.0857 43.6045C17.9391 43.4185 17.7677 43.2536 17.5762 43.1143C17.4204 43.0048 17.2956 42.8569 17.2138 42.6849C17.132 42.513 17.096 42.3228 17.1093 42.1329C17.21 40.8497 17.4416 38.9987 17.974 37.3761C18.0739 37.0684 18.2553 36.7935 18.4989 36.5807C18.7425 36.3678 19.0393 36.2249 19.3576 36.1672C25.8672 35.0149 27.3032 28.9303 26.6754 26.0475C26.564 25.5507 26.5544 25.0365 26.6471 24.5359C26.7397 24.0353 26.9328 23.5587 27.2147 23.1347C28.608 21.064 30.5715 19.271 32.086 18.058C32.4511 17.7601 32.8873 17.5623 33.352 17.4841C33.8166 17.4059 34.2936 17.45 34.736 17.612C36.123 18.1378 37.5737 17.784 37.5737 17.784C37.5737 17.784 39.179 17.3938 40.1315 15.9452C40.1312 15.9452 42.062 13.1135 39.8571 10.3511Z" fill="#F74F73"/>
<path d="M39.8571 10.3511C37.6522 7.58865 34.1019 9.60959 34.1019 9.60959C34.1019 9.60959 31.525 11.1343 32.0568 13.809C32.1459 14.2849 32.1071 14.7758 31.9443 15.2317C31.7815 15.6876 31.5005 16.0921 31.1301 16.4039C29.6606 17.6646 27.8002 18.8314 26.2369 19.713C25.6306 20.0517 24.9418 20.2145 24.248 20.183C23.5542 20.1515 22.883 19.9271 22.3098 19.5349C20.8868 18.5716 19.0009 18.0065 16.4634 18.2677C16.1052 18.3055 15.7431 18.2524 15.4108 18.1132C15.0785 17.9741 14.7867 17.7533 14.5624 17.4714L14.2577 17.0867C14.0746 16.8556 13.8221 16.6894 13.5375 16.6126C13.2528 16.5358 12.951 16.5525 12.6765 16.6601L12.4457 16.7506C12.174 16.8572 11.9432 17.0475 11.7867 17.2939C11.6302 17.5403 11.5561 17.8301 11.5751 18.1214L11.6235 18.8639C11.6432 19.181 11.5923 19.4985 11.4743 19.7935C11.3564 20.0885 11.1745 20.3537 10.9416 20.5698C6.13144 25.0657 9.19341 32.0955 9.19341 32.0955C9.19341 32.0955 10.3728 34.4523 13.3916 35.6598C13.6852 35.7762 13.9431 35.9677 14.1394 36.2152C14.3357 36.4626 14.4636 36.7573 14.5103 37.0697C14.7686 38.758 14.9195 40.461 14.962 42.1684C14.9632 42.3642 14.9119 42.5567 14.8132 42.7258C14.7146 42.895 14.5724 43.0345 14.4014 43.1298C14.4014 43.1298 12.7103 44.0817 13.358 46.5425C14.0057 49.0034 16.6235 48.3624 16.6235 48.3624C17.2887 48.1703 17.8671 47.7545 18.2612 47.1853C18.2612 47.1853 19.497 45.3727 18.0857 43.6045C17.9391 43.4185 17.7677 43.2536 17.5762 43.1143C17.4204 43.0048 17.2956 42.8569 17.2138 42.6849C17.132 42.513 17.096 42.3228 17.1093 42.1329C17.21 40.8497 17.4416 38.9987 17.974 37.3761C18.0739 37.0684 18.2553 36.7935 18.4989 36.5807C18.7425 36.3678 19.0393 36.2249 19.3576 36.1672C25.8672 35.0149 27.3032 28.9303 26.6754 26.0475C26.564 25.5507 26.5544 25.0365 26.6471 24.5359C26.7397 24.0353 26.9328 23.5587 27.2147 23.1347C28.608 21.064 30.5715 19.271 32.086 18.058C32.4511 17.7601 32.8873 17.5623 33.352 17.4841C33.8166 17.4059 34.2936 17.45 34.736 17.612C36.123 18.1378 37.5737 17.784 37.5737 17.784C37.5737 17.784 39.179 17.3938 40.1315 15.9452C40.1312 15.9452 42.062 13.1135 39.8571 10.3511Z" fill="#F74F73"/>
<path d="M21.4328 25.7243C20.7677 26.1298 20.1822 26.6534 19.7052 27.2692C19.4331 27.6103 19.2631 28.0216 19.2152 28.4553C19.1672 28.8891 19.2431 29.3275 19.4342 29.7199C19.4542 29.7597 19.4756 29.7998 19.4983 29.8402C19.7238 30.2275 20.0625 30.5365 20.4688 30.7256C20.8752 30.9147 21.3297 30.9748 21.7712 30.8979L21.8193 30.89C22.1174 30.8408 22.4025 30.7316 22.6571 30.569C22.9118 30.4064 23.1308 30.1938 23.3008 29.9441C23.9079 29.0547 24.5881 27.5723 23.6731 26.2039C23.4321 25.8523 23.0654 25.6066 22.6486 25.5174C22.2318 25.4281 21.7966 25.5022 21.4328 25.7243Z" fill="#B21F42"/>
<path d="M14.9963 21.8396C14.8098 22.0189 14.6404 22.2152 14.4903 22.4259C14.2239 22.7928 14.0948 23.2416 14.1256 23.6939C14.1563 24.1462 14.3451 24.5734 14.6588 24.9008C15.0172 25.2633 15.5787 25.5843 16.4551 25.7463C16.8569 25.8232 17.2728 25.7705 17.6428 25.5957C18.0127 25.421 18.3176 25.1332 18.5134 24.774C18.6814 24.4493 18.7759 24.0916 18.7901 23.7263C18.837 22.8358 18.1618 22.1361 17.5184 21.676C17.1451 21.4044 16.6885 21.2721 16.2278 21.302C15.7671 21.3319 15.3314 21.5221 14.9963 21.8396Z" fill="#B21F42"/>
<path d="M14.622 28.3964C14.9521 28.6375 15.2484 28.9217 15.5031 29.2414C15.6729 29.4567 15.7892 29.7091 15.8423 29.9781C15.8954 30.2471 15.8838 30.5248 15.8085 30.7884C15.7332 31.052 15.5963 31.2939 15.4091 31.4942C15.222 31.6946 14.9899 31.8476 14.732 31.9406C14.6499 31.9688 14.5624 31.9949 14.4697 32.0189C13.0563 32.3774 12.3097 31.3361 12.0347 30.8198C11.9394 30.6419 11.8764 30.4486 11.8486 30.2487C11.8208 30.0476 11.8146 29.8441 11.83 29.6417C11.9369 28.2706 13.512 27.584 14.622 28.3964Z" fill="#B21F42"/>
<path d="M47.4635 18.7716C47.3295 18.8968 47.2107 19.0375 47.1097 19.1906C46.9566 19.4139 46.8936 19.6868 46.9332 19.9545C46.9728 20.2223 47.1122 20.4652 47.3235 20.6346C47.5298 20.7913 47.7579 20.9173 48.0004 21.0086C48.6639 21.2672 49.0945 20.8815 49.3355 20.5246C49.4332 20.3794 49.4932 20.2122 49.5099 20.0379C49.5266 19.8637 49.4995 19.6881 49.4311 19.527C49.3201 19.2672 49.1614 19.0305 48.9632 18.8291C48.7696 18.6267 48.5048 18.5076 48.225 18.4969C47.9451 18.4862 47.6721 18.5847 47.4635 18.7716Z" fill="#B21F42"/>
<path d="M46.0958 21.7925C46.0958 21.7925 47.089 22.1414 46.6941 23.1378C46.4811 23.6757 45.807 24.0309 45.3343 23.6972C43.9936 22.7506 44.9472 21.2477 46.0958 21.7925Z" fill="#B21F42"/>
<path d="M25.1938 43.3031C25.6259 43.3031 25.9762 42.9528 25.9762 42.5207C25.9762 42.0886 25.6259 41.7383 25.1938 41.7383C24.7617 41.7383 24.4114 42.0886 24.4114 42.5207C24.4114 42.9528 24.7617 43.3031 25.1938 43.3031Z" fill="#B21F42"/>
<path d="M44.7128 20.576C45.0065 20.576 45.2445 20.338 45.2445 20.0444C45.2445 19.7507 45.0065 19.5127 44.7128 19.5127C44.4192 19.5127 44.1812 19.7507 44.1812 20.0444C44.1812 20.338 44.4192 20.576 44.7128 20.576Z" fill="#B21F42"/>
<path d="M41.6348 28.667C40.7766 29.4819 39.6019 29.9627 38.3584 30.2329C37.2957 30.6381 36.3463 30.7818 35.5648 30.5377C34.2277 30.5628 32.8911 30.4647 31.572 30.2446V34.5302C31.7497 35.3503 31.7497 36.199 31.572 37.0191V40.4846C31.572 40.6517 31.576 40.8188 31.5839 40.9858L33.2046 45.9629C33.5409 46.495 33.9199 46.999 34.3377 47.4698L35.8089 48.875C37.5133 50.2431 39.5049 51.2083 41.6348 51.6985C42.57 44.4875 42.5406 36.7955 41.6348 28.667Z" fill="#BDDEFF"/>
<path d="M45.9501 30.4113C44.9239 30.297 43.9229 30.0184 42.9853 29.5859L31.5852 40.9861C31.6292 42.0286 31.845 43.0568 32.2237 44.0291C32.4898 44.703 32.8184 45.3506 33.2051 45.9632L47.8976 31.2705C47.3481 31.1506 46.6346 30.8034 45.9501 30.4113Z" fill="#EEF7FF"/>
<path d="M34.3384 47.469C34.7895 47.9769 35.2816 48.4468 35.8096 48.874L49.3484 35.3815V34.5947C48.8068 34.6588 48.0751 34.725 47.248 34.7455L34.3384 47.469Z" fill="#EEF7FF"/>
<path d="M51.0464 44.0288C51.4846 42.8992 51.7056 41.697 51.6978 40.4853V30.2446C51.6978 30.2446 44.6789 31.5576 41.635 28.667V51.6992C41.635 51.6992 48.5181 50.4185 51.0464 44.0288Z" fill="#7AAEED"/>
<path d="M31.572 34.5307V37.0196L38.3584 30.2334C37.439 30.4235 36.5036 30.5255 35.5648 30.5379L31.572 34.5307Z" fill="#EEF7FF"/>
<path d="M46.7083 26.0828C47.144 26.0811 47.5786 26.0407 48.0071 25.9621C48.1521 25.9348 48.3011 25.9384 48.4446 25.9724C48.5881 26.0065 48.7228 26.0703 48.8401 26.1597L49.5292 26.6948C49.7774 26.8878 50.0855 26.9875 50.3998 26.9764C50.714 26.9653 51.0144 26.8441 51.2484 26.6341L51.3938 26.5036C51.6102 26.3086 51.7576 26.0488 51.814 25.7629C51.8703 25.4771 51.8326 25.1808 51.7064 24.9182L51.4946 24.4806C51.426 24.3338 51.3918 24.1733 51.3947 24.0113C51.3976 23.8493 51.4375 23.6902 51.5114 23.546C52.2983 21.9352 51.9694 20.1607 51.9551 20.0863C51.9402 20.0085 51.5707 18.165 49.9568 16.9868C49.5866 16.7255 49.1862 16.51 48.7643 16.3449C48.6899 16.3155 48.6252 16.2659 48.5775 16.2017C48.5298 16.1376 48.501 16.0614 48.4942 15.9817L48.346 14.2487C48.3369 14.1547 48.3558 14.0602 48.4003 13.977C48.4449 13.8939 48.513 13.8257 48.5963 13.7812C50.2442 12.9168 49.8793 11.0433 49.456 10.1733C49.4528 10.1668 49.4495 10.1603 49.4461 10.154C49.1428 9.59521 48.105 8.65412 46.3445 9.08881C44.5134 9.54057 44.3865 11.2473 44.5765 12.0967C44.6964 12.6793 45.0191 13.2005 45.4871 13.5676C45.5521 13.6201 45.602 13.689 45.6314 13.7672C45.6609 13.8454 45.669 13.93 45.6549 14.0123L45.3866 15.8005C45.3753 15.8795 45.3419 15.9538 45.2904 16.0148C45.2389 16.0758 45.1713 16.1211 45.0952 16.1455C44.5029 16.3319 43.9449 16.6138 43.4435 16.98C40.7733 18.9051 41.4691 22.1832 42.2093 23.6458C42.2229 23.6735 43.4721 26.0831 46.7083 26.0828ZM44.0159 17.7747C44.431 17.4708 44.893 17.2368 45.3835 17.0818C45.6357 17.0026 45.8605 16.854 46.0323 16.6531C46.2041 16.4523 46.3159 16.2071 46.3551 15.9457L46.6233 14.1577C46.6646 13.9003 46.6352 13.6364 46.5382 13.3943C46.4413 13.1522 46.2804 12.941 46.0727 12.7833C45.8034 12.5611 45.6156 12.2557 45.5389 11.9152C45.5378 11.9082 45.5358 11.8988 45.5343 11.8917C45.5005 11.7364 45.2422 10.3698 46.579 10.0395C47.9676 9.69657 48.5073 10.4913 48.581 10.6138C48.6591 10.7832 49.3151 12.2983 48.1414 12.9143C47.8872 13.0481 47.6783 13.2542 47.541 13.5065C47.4038 13.7589 47.3443 14.0463 47.3701 14.3324L47.5187 16.0653C47.5403 16.3256 47.6341 16.5748 47.7896 16.7847C47.9451 16.9946 48.156 17.1569 48.3988 17.2535C48.7427 17.388 49.0696 17.5623 49.3729 17.773C50.6734 18.7225 50.9905 20.2569 50.993 20.2701C50.9955 20.2834 51.2717 21.8056 50.6313 23.1162C50.4919 23.3937 50.4178 23.6994 50.4147 24.0098C50.4115 24.3203 50.4794 24.6274 50.6131 24.9076L50.8249 25.3453C50.8589 25.4163 50.869 25.4964 50.8538 25.5737C50.8385 25.6509 50.7986 25.7212 50.7402 25.7739L50.5946 25.9043C50.5313 25.9612 50.4501 25.9939 50.3651 25.9969C50.2801 25.9999 50.1967 25.973 50.1296 25.9207L49.4405 25.3858C49.0854 25.1119 48.6494 24.964 48.201 24.9652C48.0779 24.9652 47.955 24.9762 47.8339 24.998C44.3687 25.6207 43.1339 23.3039 43.0832 23.205C43.0116 23.0633 41.3498 19.6967 44.0159 17.7747Z" fill="#3C3C4F"/>
<path d="M8.74411 32.2888C8.74764 32.2968 8.75131 32.3047 8.75526 32.3124C8.80665 32.4155 10.0541 34.8501 13.2094 36.1122C13.4231 36.1972 13.6109 36.3367 13.7541 36.5168C13.8972 36.6969 13.9908 36.9113 14.0255 37.1387C14.28 38.8057 14.4291 40.4871 14.4719 42.1729C14.4722 42.2807 14.4435 42.3867 14.3889 42.4796C14.3343 42.5726 14.2557 42.6492 14.1613 42.7015C13.4624 43.0948 12.2962 44.4296 12.8845 46.6654C13.3572 48.4613 14.7747 48.9345 15.8845 48.9345C16.1723 48.9356 16.4593 48.9027 16.7394 48.8364C17.5221 48.6154 18.2032 48.1285 18.6656 47.4594C19.1635 46.7292 19.7629 44.9196 18.4679 43.2972C18.2933 43.0766 18.0895 42.8808 17.862 42.7153C17.7744 42.655 17.7039 42.573 17.6575 42.4774C17.6111 42.3817 17.5903 42.2756 17.5971 42.1695C17.6948 40.9243 17.9202 39.1081 18.4388 37.5271C18.5108 37.3034 18.6421 37.1034 18.8188 36.9485C18.9954 36.7936 19.2109 36.6896 19.442 36.6475C22.1203 36.1736 24.273 34.8237 25.6679 32.7439C27.2155 30.4356 27.5296 27.6639 27.1545 25.941C27.0582 25.5087 27.0499 25.0614 27.1301 24.6259C27.2103 24.1903 27.3774 23.7754 27.6214 23.4057C29.0041 21.3515 30.9791 19.5707 32.3931 18.4384C32.692 18.1942 33.0491 18.0317 33.4295 17.9668C33.8099 17.9019 34.2007 17.9368 34.5636 18.0681C36.0742 18.641 37.6251 18.2738 37.6901 18.258C37.7632 18.2402 39.4949 17.804 40.5368 16.2193C40.5581 16.188 42.6434 13.0541 40.2403 10.044C38.2897 7.60005 35.2144 8.41181 33.8532 9.18659C33.7357 9.25605 30.9848 10.9224 31.5773 13.9029C31.6494 14.2935 31.6165 14.6963 31.4821 15.0701C31.3476 15.4439 31.1164 15.7753 30.812 16.0305C29.297 17.3304 27.3574 18.5176 25.997 19.2849C25.995 19.2861 25.9935 19.2878 25.9915 19.2889C25.9895 19.29 25.9874 19.2904 25.9856 19.2917L22.9867 21.0921C22.7412 21.24 22.455 21.3057 22.1696 21.2796L21.4706 21.2168C21.4063 21.2106 21.3415 21.2172 21.2798 21.2362C21.2181 21.2551 21.1607 21.2861 21.111 21.3273C21.0613 21.3685 21.0203 21.4192 20.9903 21.4763C20.9602 21.5335 20.9418 21.596 20.936 21.6603C20.9302 21.7246 20.9372 21.7894 20.9566 21.851C20.9759 21.9126 21.0073 21.9697 21.0488 22.0192C21.0904 22.0686 21.1413 22.1093 21.1986 22.139C21.256 22.1686 21.3186 22.1867 21.3829 22.192L22.0819 22.2549C22.1525 22.2612 22.2231 22.2643 22.2937 22.2643C22.7155 22.2646 23.1293 22.1495 23.4904 21.9316L26.4834 20.1347C27.881 19.3459 29.8757 18.1236 31.4488 16.7747C31.885 16.4063 32.2155 15.9287 32.4067 15.3907C32.5978 14.8528 32.6427 14.2737 32.5367 13.7127C32.0809 11.4192 34.2591 10.0852 34.3438 10.0348C34.4742 9.96108 37.5619 8.25878 39.4748 10.656C41.4198 13.0928 39.7964 15.5661 39.7226 15.6758C38.8935 16.9366 37.471 17.3047 37.4588 17.3076C37.4467 17.3106 36.1311 17.6167 34.91 17.1537C34.3878 16.9625 33.8248 16.91 33.2762 17.0016C32.7277 17.0932 32.2122 17.3256 31.7804 17.6761C30.3138 18.8508 28.2606 20.704 26.809 22.8608C26.4915 23.3401 26.2737 23.8785 26.1686 24.4438C26.0636 25.0091 26.0734 25.5898 26.1976 26.1512C26.5287 27.6714 26.2418 30.1314 24.8545 32.2005C23.6121 34.0537 21.6815 35.2588 19.2718 35.6853C19.1493 35.7073 19.0289 35.7395 18.9118 35.7814L19.1547 34.881C19.1945 34.7326 19.267 34.5949 19.3669 34.4782C19.4669 34.3616 19.5917 34.2688 19.7323 34.2067C19.8496 34.1532 19.9411 34.0556 19.9869 33.935C20.0327 33.8144 20.029 33.6806 19.9767 33.5627C19.9244 33.4449 19.8277 33.3523 19.7076 33.3053C19.5875 33.2583 19.4537 33.2606 19.3353 33.3117C19.0613 33.4326 18.8179 33.6134 18.623 33.8408C18.4282 34.0683 18.2868 34.3366 18.2094 34.6259L17.5035 37.2405C16.9585 38.9096 16.7228 40.8004 16.6212 42.0947C16.6004 42.3686 16.6511 42.6431 16.7684 42.8915C16.8856 43.1399 17.0653 43.3536 17.2899 43.5117C17.4451 43.6251 17.584 43.759 17.703 43.9099C18.8639 45.364 17.8971 46.8491 17.852 46.917C17.5254 47.3814 17.0526 47.723 16.5091 47.8871C16.2882 47.9394 14.3382 48.3433 13.8317 46.4189C13.297 44.387 14.5768 43.5954 14.6444 43.5559C14.8914 43.4171 15.0966 43.2146 15.2386 42.9695C15.3806 42.7243 15.4542 42.4456 15.4517 42.1623C15.4082 40.4332 15.2556 38.7086 14.9948 36.9988C14.9349 36.6019 14.7721 36.2277 14.5228 35.9132C14.2735 35.5986 13.9463 35.3548 13.5736 35.2058C10.8784 34.1278 9.72557 32.0535 9.63691 31.8882C9.49488 31.5468 6.87761 25.0401 11.2762 20.9289C11.5624 20.6637 11.7858 20.338 11.9304 19.9756C12.0749 19.6132 12.1369 19.2231 12.1119 18.8337L12.0633 18.0914C12.0506 17.9037 12.0982 17.7167 12.1992 17.5579C12.3001 17.399 12.4491 17.2765 12.6245 17.2082L12.855 17.1177C13.0318 17.0475 13.2266 17.0363 13.4102 17.0858C13.5939 17.1353 13.7567 17.2429 13.8742 17.3925L14.1784 17.7745C14.4532 18.1216 14.8115 18.3935 15.2198 18.5646C15.6281 18.7357 16.0732 18.8005 16.5133 18.753C18.6842 18.5298 20.5428 18.9285 22.0352 19.9389C22.1406 20.0103 22.2509 20.0779 22.3628 20.14C22.4763 20.202 22.6097 20.2166 22.7339 20.1805C22.8581 20.1445 22.963 20.0608 23.0257 19.9477C23.0884 19.8346 23.1038 19.7013 23.0686 19.5769C23.0333 19.4525 22.9503 19.3471 22.8376 19.2837C22.7509 19.2355 22.6655 19.1832 22.5835 19.1284C20.8957 17.985 18.8187 17.5312 16.413 17.779C16.1365 17.809 15.857 17.7685 15.6005 17.6612C15.3439 17.554 15.1187 17.3835 14.9458 17.1657L14.641 16.7809C14.3939 16.466 14.0515 16.2394 13.6651 16.1351C13.2786 16.0308 12.8687 16.0543 12.4967 16.2021L12.2662 16.2926C11.8972 16.4363 11.5837 16.6941 11.3714 17.0283C11.159 17.3626 11.059 17.7559 11.0857 18.151L11.1342 18.8933C11.1496 19.1381 11.1102 19.3832 11.0191 19.6108C10.9279 19.8385 10.7871 20.043 10.6071 20.2095C8.52867 22.152 7.54933 24.8634 7.77493 28.0504C7.87688 29.5049 8.20382 30.9347 8.74411 32.2888Z" fill="#3C3C4F"/>
<path d="M25.7247 42.519C25.7247 42.4138 25.6935 42.311 25.6351 42.2236C25.5767 42.1362 25.4937 42.068 25.3965 42.0278C25.2994 41.9875 25.1925 41.977 25.0893 41.9975C24.9862 42.018 24.8915 42.0687 24.8171 42.143C24.7427 42.2174 24.6921 42.3121 24.6716 42.4153C24.6511 42.5184 24.6616 42.6253 24.7018 42.7224C24.7421 42.8196 24.8102 42.9026 24.8977 42.961C24.9851 43.0195 25.0879 43.0506 25.193 43.0506C25.2629 43.0507 25.332 43.0369 25.3965 43.0102C25.461 42.9835 25.5197 42.9443 25.569 42.895C25.6184 42.8456 25.6576 42.787 25.6843 42.7225C25.711 42.6579 25.7247 42.5888 25.7247 42.519Z" fill="#3C3C4F"/>
<path d="M51.5943 29.6933C51.529 29.7054 45.2294 30.8485 42.2888 28.4944C42.1037 28.3439 41.8729 28.2612 41.6343 28.2598C41.3959 28.2612 41.1651 28.344 40.98 28.4943C38.0435 30.8446 31.7398 29.7054 31.6743 29.6933C31.5935 29.6782 31.5104 29.6811 31.4308 29.7019C31.3512 29.7226 31.2772 29.7606 31.214 29.8131C31.1508 29.8657 31.1 29.9315 31.0651 30.006C31.0302 30.0804 31.0121 30.1616 31.0122 30.2439V40.4837C31.0033 41.7661 31.2376 43.0386 31.7027 44.2337C34.1523 50.4243 40.3925 52.004 41.4015 52.2216C41.4774 52.238 41.5549 52.2462 41.6325 52.2462H41.6359C41.7135 52.2462 41.791 52.238 41.8669 52.2216C42.8761 52.004 49.1164 50.4245 51.5657 44.2337C52.0307 43.0386 52.2649 41.7661 52.256 40.4837V30.2611C52.2581 30.1609 52.2344 30.062 52.1871 29.9736C52.1302 29.8706 52.0424 29.7881 51.936 29.7378C51.8296 29.6875 51.7101 29.6719 51.5943 29.6933ZM32.7433 43.8218C32.3302 42.7577 32.1225 41.6249 32.1313 40.4834V30.8975C33.8071 31.1266 38.2385 31.5178 41.0749 29.7891V50.9797C39.3419 50.4744 34.6729 48.6987 32.7433 43.8218ZM51.1376 40.4834C51.1464 41.6249 50.9388 42.7577 50.5256 43.8218C48.5958 48.6994 43.9263 50.475 42.194 50.9794V29.7888C45.0305 31.5176 49.4622 31.1262 51.1376 30.8972V40.4834Z" fill="#3C3C4F"/>
</svg>
