<svg width="48" height="48" viewBox="0 0 48 48" fill="none" xmlns="http://www.w3.org/2000/svg">
<circle cx="24" cy="24" r="24" fill="#D3D6CD"/>
<path d="M7.703 29.091C7.37367 29.091 7.10067 28.9913 6.884 28.792C6.676 28.584 6.572 28.3283 6.572 28.025C6.572 27.7217 6.676 27.4703 6.884 27.271C7.10067 27.063 7.37367 26.959 7.703 26.959C8.02367 26.959 8.288 27.063 8.496 27.271C8.704 27.4703 8.808 27.7217 8.808 28.025C8.808 28.3283 8.704 28.584 8.496 28.792C8.288 28.9913 8.02367 29.091 7.703 29.091ZM9.83195 24.45C9.83195 23.5573 10.0313 22.76 10.43 22.058C10.8373 21.3473 11.3876 20.797 12.081 20.407C12.783 20.0083 13.5673 19.809 14.434 19.809C15.448 19.809 16.3363 20.069 17.099 20.589C17.8616 21.109 18.3946 21.8283 18.698 22.747H16.605C16.397 22.3137 16.1023 21.9887 15.721 21.772C15.3483 21.5553 14.915 21.447 14.421 21.447C13.8923 21.447 13.42 21.5727 13.004 21.824C12.5966 22.0667 12.276 22.4133 12.042 22.864C11.8166 23.3147 11.704 23.8433 11.704 24.45C11.704 25.048 11.8166 25.5767 12.042 26.036C12.276 26.4867 12.5966 26.8377 13.004 27.089C13.42 27.3317 13.8923 27.453 14.421 27.453C14.915 27.453 15.3483 27.3447 15.721 27.128C16.1023 26.9027 16.397 26.5733 16.605 26.14H18.698C18.3946 27.0673 17.8616 27.791 17.099 28.311C16.345 28.8223 15.4566 29.078 14.434 29.078C13.5673 29.078 12.783 28.883 12.081 28.493C11.3876 28.0943 10.8373 27.544 10.43 26.842C10.0313 26.14 9.83195 25.3427 9.83195 24.45ZM24.4645 29.091C23.6151 29.091 22.8351 28.8917 22.1245 28.493C21.4138 28.0943 20.8505 27.544 20.4345 26.842C20.0185 26.1313 19.8105 25.3297 19.8105 24.437C19.8105 23.553 20.0185 22.76 20.4345 22.058C20.8505 21.3473 21.4138 20.7927 22.1245 20.394C22.8351 19.9953 23.6151 19.796 24.4645 19.796C25.3225 19.796 26.1025 19.9953 26.8045 20.394C27.5151 20.7927 28.0741 21.3473 28.4815 22.058C28.8975 22.76 29.1055 23.553 29.1055 24.437C29.1055 25.3297 28.8975 26.1313 28.4815 26.842C28.0741 27.544 27.5151 28.0943 26.8045 28.493C26.0938 28.8917 25.3138 29.091 24.4645 29.091ZM24.4645 27.466C25.0105 27.466 25.4915 27.3447 25.9075 27.102C26.3235 26.8507 26.6485 26.4953 26.8825 26.036C27.1165 25.5767 27.2335 25.0437 27.2335 24.437C27.2335 23.8303 27.1165 23.3017 26.8825 22.851C26.6485 22.3917 26.3235 22.0407 25.9075 21.798C25.4915 21.5553 25.0105 21.434 24.4645 21.434C23.9185 21.434 23.4331 21.5553 23.0085 21.798C22.5925 22.0407 22.2675 22.3917 22.0335 22.851C21.7995 23.3017 21.6825 23.8303 21.6825 24.437C21.6825 25.0437 21.7995 25.5767 22.0335 26.036C22.2675 26.4953 22.5925 26.8507 23.0085 27.102C23.4331 27.3447 23.9185 27.466 24.4645 27.466ZM40.3525 19.926V29H38.5325V23.098L36.1015 29H34.7235L32.2795 23.098V29H30.4595V19.926H32.5265L35.4125 26.673L38.2985 19.926H40.3525Z" fill="#FD6F20"/>
</svg>
