<svg width="238" height="60" viewBox="0 0 238 60" fill="none" xmlns="http://www.w3.org/2000/svg">
<rect width="60" height="60" rx="5" fill="#E5E5E5"/>
<path d="M33.6224 21.713C33.6224 21.713 32.5 23.5982 33.8963 25.0622C34.806 26.0161 35.7382 26.1645 36.5093 26.0198C37.0874 25.9039 37.6178 25.6182 38.0328 25.1993C38.4477 24.7804 38.7283 24.2473 38.8387 23.6681C38.8691 23.5066 38.9371 23.3546 39.0374 23.2244C39.1376 23.0942 39.2672 22.9896 39.4156 22.919L39.4637 22.8968C39.6497 22.8111 39.7987 22.6613 39.8833 22.4748C39.9679 22.2883 39.9825 22.0776 39.9245 21.8812L39.8539 21.6437C39.8016 21.4666 39.6931 21.3113 39.5448 21.2011C39.3965 21.091 39.2164 21.0321 39.0317 21.0331L38.3713 21.0371C38.172 21.039 37.9767 20.9817 37.8101 20.8723C37.1325 20.4248 35.1057 19.3811 33.6224 21.713Z" fill="#B21F42"/>
<path d="M11.2556 7.62691C11.2556 7.62691 8.76544 7.49815 7.95367 9.93655C7.14191 12.375 9.77866 13.8292 9.77866 13.8292C9.77866 13.8292 11.7306 14.9178 13.674 12.8142C15.6174 10.7105 13.3888 8.52846 13.3888 8.52846C12.8004 7.995 12.0483 7.67714 11.2556 7.62691Z" fill="#F74F73"/>
<path d="M25.2112 12.3954C25.2112 12.3954 25.9993 11.2396 25.0993 10.1119C24.1993 8.98416 22.7501 9.80919 22.7501 9.80919C22.7501 9.80919 21.6717 10.4162 22.0847 11.9856C22.4978 13.5549 24.1672 13.146 24.1672 13.146C24.5912 13.0234 24.96 12.7583 25.2112 12.3954Z" fill="#B21F42"/>
<path d="M11.7881 51.381C11.7881 51.381 12.7685 49.9431 11.6489 48.5404C10.5294 47.1377 8.72657 48.1639 8.72657 48.1639C8.72657 48.1639 7.3854 48.9189 7.89885 50.8712C8.41231 52.8235 10.4893 52.3147 10.4893 52.3147C11.0168 52.1623 11.4756 51.8325 11.7881 51.381Z" fill="#B21F42"/>
<path d="M10.7899 40.1462C10.7899 40.1462 11.3471 39.3291 10.7108 38.5319C10.0746 37.7346 9.04934 38.3178 9.04934 38.3178C9.04934 38.3178 8.28699 38.7469 8.57894 39.8567C8.87089 40.9664 10.0517 40.6769 10.0517 40.6769C10.3515 40.5903 10.6123 40.4028 10.7899 40.1462Z" fill="#B21F42"/>
<path d="M51.2662 25.1333L51.0544 24.6957C50.9536 24.4821 50.9027 24.2483 50.9057 24.012C50.9088 23.7758 50.9656 23.5434 51.0719 23.3325C51.7962 21.8501 51.4746 20.18 51.4746 20.18C51.4746 20.18 51.1446 18.4615 49.6617 17.3791C49.3262 17.1435 48.9636 16.9492 48.5817 16.8002C48.4236 16.7367 48.2861 16.6306 48.1847 16.4937C48.0832 16.3568 48.0217 16.1944 48.007 16.0246L47.8587 14.2917C47.8418 14.1017 47.8812 13.911 47.972 13.7433C48.0629 13.5757 48.2011 13.4385 48.3695 13.349C50.0323 12.4768 49.0164 10.3888 49.0164 10.3888C49.0164 10.3888 48.3198 9.10612 46.4621 9.56536C44.6043 10.0246 45.0567 12.0002 45.0567 12.0002C45.1546 12.4643 45.4102 12.8801 45.7801 13.1771C45.9163 13.2823 46.0216 13.4224 46.0847 13.5826C46.1479 13.7427 46.1667 13.9169 46.1391 14.0868L45.8708 15.8747C45.846 16.0451 45.7736 16.205 45.6618 16.3361C45.5501 16.4671 45.4036 16.5639 45.2392 16.6153C44.6978 16.7856 44.1879 17.0436 43.73 17.3791C40.6936 19.5681 42.6473 23.4285 42.6473 23.4285C42.6473 23.4285 44.0274 26.1814 47.9214 25.4819C48.1339 25.4423 48.3523 25.4479 48.5625 25.4984C48.7726 25.5488 48.9698 25.6429 49.1412 25.7745L49.8303 26.3096C49.988 26.4321 50.1838 26.4953 50.3834 26.4882C50.583 26.4811 50.7737 26.4042 50.9224 26.2709L51.068 26.1405C51.2059 26.0169 51.2998 25.8517 51.3355 25.67C51.3713 25.4883 51.3469 25.3 51.2662 25.1333Z" fill="#F74F73"/>
<path d="M39.8572 10.3508C37.6523 7.58841 34.102 9.60935 34.102 9.60935C34.102 9.60935 31.5251 11.1341 32.0569 13.8088C32.146 14.2846 32.1072 14.7756 31.9444 15.2315C31.7816 15.6874 31.5006 16.0919 31.1302 16.4036C29.6607 17.6643 27.8003 18.8311 26.2371 19.7128C25.6307 20.0515 24.9419 20.2142 24.2481 20.1828C23.5544 20.1513 22.8831 19.9268 22.31 19.5346C20.8869 18.5714 19.0011 18.0062 16.4636 18.2674C16.1053 18.3053 15.7432 18.2522 15.4109 18.113C15.0786 17.9738 14.7868 17.7531 14.5625 17.4712L14.2578 17.0865C14.0747 16.8554 13.8222 16.6892 13.5376 16.6124C13.2529 16.5356 12.9511 16.5522 12.6766 16.6598L12.4458 16.7503C12.1741 16.857 11.9433 17.0472 11.7868 17.2937C11.6303 17.5401 11.5562 17.8299 11.5752 18.1212L11.6236 18.8636C11.6433 19.1807 11.5924 19.4982 11.4745 19.7933C11.3565 20.0883 11.1746 20.3534 10.9417 20.5696C6.13156 25.0655 9.19353 32.0952 9.19353 32.0952C9.19353 32.0952 10.3729 34.452 13.3917 35.6595C13.6853 35.776 13.9432 35.9675 14.1395 36.2149C14.3358 36.4624 14.4637 36.7571 14.5104 37.0695C14.7687 38.7578 14.9196 40.4608 14.9621 42.1682C14.9634 42.364 14.912 42.5565 14.8134 42.7256C14.7148 42.8947 14.5725 43.0342 14.4015 43.1296C14.4015 43.1296 12.7104 44.0814 13.3581 46.5423C14.0058 49.0031 16.6237 48.3622 16.6237 48.3622C17.2888 48.1701 17.8672 47.7543 18.2613 47.185C18.2613 47.185 19.4972 45.3725 18.0858 43.6042C17.9392 43.4183 17.7678 43.2534 17.5763 43.1141C17.4205 43.0046 17.2957 42.8567 17.2139 42.6847C17.1321 42.5127 17.0961 42.3226 17.1094 42.1326C17.2101 40.8495 17.4418 38.9985 17.9741 37.3758C18.0741 37.0681 18.2555 36.7933 18.4991 36.5804C18.7427 36.3676 19.0394 36.2247 19.3577 36.1669C25.8673 35.0146 27.3034 28.9301 26.6756 26.0472C26.5641 25.5505 26.5545 25.0363 26.6472 24.5357C26.7399 24.0351 26.933 23.5584 27.2148 23.1345C28.6081 21.0637 30.5716 19.2708 32.0861 18.0578C32.4512 17.7599 32.8875 17.5621 33.3521 17.4839C33.8167 17.4057 34.2937 17.4498 34.7362 17.6118C36.1231 18.1375 37.5738 17.7838 37.5738 17.7838C37.5738 17.7838 39.1791 17.3935 40.1316 15.9449C40.1314 15.9449 42.0621 13.1132 39.8572 10.3508Z" fill="#F74F73"/>
<path d="M39.8572 10.3508C37.6523 7.58841 34.102 9.60935 34.102 9.60935C34.102 9.60935 31.5251 11.1341 32.0569 13.8088C32.146 14.2846 32.1072 14.7756 31.9444 15.2315C31.7816 15.6874 31.5006 16.0919 31.1302 16.4036C29.6607 17.6643 27.8003 18.8311 26.2371 19.7128C25.6307 20.0515 24.9419 20.2142 24.2481 20.1828C23.5544 20.1513 22.8831 19.9268 22.31 19.5346C20.8869 18.5714 19.0011 18.0062 16.4636 18.2674C16.1053 18.3053 15.7432 18.2522 15.4109 18.113C15.0786 17.9738 14.7868 17.7531 14.5625 17.4712L14.2578 17.0865C14.0747 16.8554 13.8222 16.6892 13.5376 16.6124C13.2529 16.5356 12.9511 16.5522 12.6766 16.6598L12.4458 16.7503C12.1741 16.857 11.9433 17.0472 11.7868 17.2937C11.6303 17.5401 11.5562 17.8299 11.5752 18.1212L11.6236 18.8636C11.6433 19.1807 11.5924 19.4982 11.4745 19.7933C11.3565 20.0883 11.1746 20.3534 10.9417 20.5696C6.13156 25.0655 9.19353 32.0952 9.19353 32.0952C9.19353 32.0952 10.3729 34.452 13.3917 35.6595C13.6853 35.776 13.9432 35.9675 14.1395 36.2149C14.3358 36.4624 14.4637 36.7571 14.5104 37.0695C14.7687 38.7578 14.9196 40.4608 14.9621 42.1682C14.9634 42.364 14.912 42.5565 14.8134 42.7256C14.7148 42.8947 14.5725 43.0342 14.4015 43.1296C14.4015 43.1296 12.7104 44.0814 13.3581 46.5423C14.0058 49.0031 16.6237 48.3622 16.6237 48.3622C17.2888 48.1701 17.8672 47.7543 18.2613 47.185C18.2613 47.185 19.4972 45.3725 18.0858 43.6042C17.9392 43.4183 17.7678 43.2534 17.5763 43.1141C17.4205 43.0046 17.2957 42.8567 17.2139 42.6847C17.1321 42.5127 17.0961 42.3226 17.1094 42.1326C17.2101 40.8495 17.4418 38.9985 17.9741 37.3758C18.0741 37.0681 18.2555 36.7933 18.4991 36.5804C18.7427 36.3676 19.0394 36.2247 19.3577 36.1669C25.8673 35.0146 27.3034 28.9301 26.6756 26.0472C26.5641 25.5505 26.5545 25.0363 26.6472 24.5357C26.7399 24.0351 26.933 23.5584 27.2148 23.1345C28.6081 21.0637 30.5716 19.2708 32.0861 18.0578C32.4512 17.7599 32.8875 17.5621 33.3521 17.4839C33.8167 17.4057 34.2937 17.4498 34.7362 17.6118C36.1231 18.1375 37.5738 17.7838 37.5738 17.7838C37.5738 17.7838 39.1791 17.3935 40.1316 15.9449C40.1314 15.9449 42.0621 13.1132 39.8572 10.3508Z" fill="#F74F73"/>
<path d="M21.4328 25.7238C20.7677 26.1293 20.1822 26.6529 19.7052 27.2687C19.4331 27.6098 19.2631 28.0211 19.2152 28.4548C19.1672 28.8886 19.2431 29.327 19.4342 29.7194C19.4542 29.7592 19.4756 29.7993 19.4983 29.8397C19.7238 30.227 20.0625 30.536 20.4688 30.7251C20.8752 30.9142 21.3297 30.9743 21.7712 30.8974L21.8193 30.8895C22.1174 30.8403 22.4025 30.7311 22.6571 30.5685C22.9118 30.4059 23.1308 30.1933 23.3008 29.9436C23.9079 29.0542 24.5881 27.5718 23.6731 26.2034C23.4321 25.8518 23.0654 25.6061 22.6486 25.5169C22.2318 25.4276 21.7966 25.5017 21.4328 25.7238Z" fill="#B21F42"/>
<path d="M14.9962 21.8394C14.8097 22.0186 14.6403 22.2149 14.4903 22.4257C14.2238 22.7925 14.0947 23.2413 14.1255 23.6937C14.1563 24.146 14.345 24.5732 14.6587 24.9005C15.0171 25.2631 15.5786 25.5841 16.455 25.746C16.8569 25.8229 17.2728 25.7702 17.6427 25.5955C18.0127 25.4207 18.3176 25.133 18.5134 24.7737C18.6813 24.449 18.7758 24.0914 18.7901 23.7261C18.837 22.8355 18.1617 22.1359 17.5184 21.6758C17.145 21.4042 16.6884 21.2719 16.2277 21.3018C15.7671 21.3316 15.3314 21.5219 14.9962 21.8394Z" fill="#B21F42"/>
<path d="M14.622 28.3964C14.9521 28.6375 15.2484 28.9217 15.5031 29.2414C15.6729 29.4567 15.7892 29.7091 15.8423 29.9781C15.8954 30.2471 15.8838 30.5248 15.8085 30.7884C15.7332 31.052 15.5963 31.2939 15.4091 31.4942C15.222 31.6946 14.9899 31.8476 14.732 31.9406C14.6499 31.9688 14.5624 31.9949 14.4697 32.0189C13.0563 32.3774 12.3097 31.3361 12.0347 30.8198C11.9394 30.6419 11.8764 30.4486 11.8486 30.2487C11.8208 30.0476 11.8146 29.8441 11.83 29.6417C11.9369 28.2706 13.512 27.584 14.622 28.3964Z" fill="#B21F42"/>
<path d="M47.4634 18.7714C47.3293 18.8966 47.2106 19.0372 47.1096 19.1904C46.9565 19.4136 46.8934 19.6865 46.9331 19.9543C46.9727 20.2221 47.1121 20.465 47.3233 20.6343C47.5297 20.7911 47.7577 20.917 48.0003 21.0083C48.6638 21.2669 49.0944 20.8812 49.3354 20.5244C49.4331 20.3792 49.4931 20.2119 49.5097 20.0377C49.5264 19.8635 49.4994 19.6879 49.431 19.5268C49.3199 19.267 49.1613 19.0302 48.9631 18.8288C48.7695 18.6265 48.5047 18.5074 48.2249 18.4966C47.945 18.4859 47.6719 18.5844 47.4634 18.7714Z" fill="#B21F42"/>
<path d="M46.0958 21.7928C46.0958 21.7928 47.089 22.1416 46.6941 23.1381C46.4811 23.6759 45.807 24.0311 45.3343 23.6974C43.9936 22.7508 44.9472 21.248 46.0958 21.7928Z" fill="#B21F42"/>
<path d="M25.1937 43.3028C25.6258 43.3028 25.9761 42.9525 25.9761 42.5204C25.9761 42.0883 25.6258 41.738 25.1937 41.738C24.7616 41.738 24.4113 42.0883 24.4113 42.5204C24.4113 42.9525 24.7616 43.3028 25.1937 43.3028Z" fill="#B21F42"/>
<path d="M44.7128 20.5763C45.0065 20.5763 45.2445 20.3382 45.2445 20.0446C45.2445 19.751 45.0065 19.5129 44.7128 19.5129C44.4192 19.5129 44.1812 19.751 44.1812 20.0446C44.1812 20.3382 44.4192 20.5763 44.7128 20.5763Z" fill="#B21F42"/>
<path d="M41.6349 28.6667C40.7766 29.4816 39.6019 29.9625 38.3584 30.2327C37.2958 30.6379 36.3464 30.7816 35.5648 30.5375C34.2277 30.5626 32.8912 30.4644 31.5721 30.2444V34.5299C31.7497 35.3501 31.7497 36.1987 31.5721 37.0189V40.4843C31.5721 40.6515 31.576 40.8186 31.5839 40.9855L33.2046 45.9627C33.541 46.4948 33.9199 46.9987 34.3377 47.4696L35.8089 48.8747C37.5134 50.2428 39.5049 51.2081 41.6349 51.6983C42.57 44.4873 42.5406 36.7953 41.6349 28.6667Z" fill="#BDDEFF"/>
<path d="M45.9501 30.4108C44.9239 30.2965 43.9229 30.0179 42.9853 29.5854L31.5852 40.9856C31.6292 42.0282 31.845 43.0563 32.2237 44.0286C32.4898 44.7025 32.8184 45.3501 33.2051 45.9628L47.8976 31.27C47.3481 31.1501 46.6346 30.803 45.9501 30.4108Z" fill="#EEF7FF"/>
<path d="M34.3384 47.469C34.7895 47.9769 35.2816 48.4468 35.8096 48.874L49.3484 35.3815V34.5947C48.8068 34.6588 48.0751 34.725 47.248 34.7455L34.3384 47.469Z" fill="#EEF7FF"/>
<path d="M51.0465 44.0286C51.4847 42.8989 51.7057 41.6967 51.6978 40.4851V30.2444C51.6978 30.2444 44.679 31.5573 41.6351 28.6667V51.699C41.6351 51.699 48.5181 50.4182 51.0465 44.0286Z" fill="#7AAEED"/>
<path d="M31.5721 34.5299V37.0189L38.3585 30.2327C37.439 30.4228 36.5036 30.5247 35.5648 30.5372L31.5721 34.5299Z" fill="#EEF7FF"/>
<path d="M46.7082 26.0823C47.1438 26.0806 47.5785 26.0402 48.007 25.9616C48.1519 25.9343 48.301 25.9379 48.4445 25.9719C48.588 26.006 48.7227 26.0698 48.8399 26.1592L49.529 26.6943C49.7773 26.8873 50.0854 26.987 50.3997 26.9759C50.7139 26.9648 51.0143 26.8437 51.2483 26.6336L51.3937 26.5031C51.6101 26.3081 51.7575 26.0483 51.8138 25.7625C51.8702 25.4767 51.8324 25.1803 51.7062 24.9177L51.4945 24.4801C51.4258 24.3333 51.3917 24.1728 51.3946 24.0108C51.3975 23.8489 51.4374 23.6897 51.5113 23.5455C52.2982 21.9347 51.9693 20.1602 51.955 20.0858C51.94 20.008 51.5706 18.1646 49.9566 16.9863C49.5865 16.725 49.1861 16.5095 48.7641 16.3444C48.6898 16.315 48.6251 16.2654 48.5774 16.2013C48.5297 16.1371 48.5008 16.0609 48.4941 15.9813L48.3458 14.2482C48.3367 14.1543 48.3557 14.0597 48.4002 13.9766C48.4448 13.8934 48.5129 13.8252 48.5961 13.7807C50.2441 12.9163 49.8791 11.0428 49.4559 10.1728C49.4527 10.1663 49.4494 10.1598 49.446 10.1535C49.1426 9.59472 48.1048 8.65363 46.3444 9.08832C44.5133 9.54008 44.3864 11.2468 44.5764 12.0962C44.6963 12.6788 45.019 13.2001 45.487 13.5671C45.552 13.6196 45.6018 13.6885 45.6313 13.7667C45.6608 13.8449 45.6689 13.9295 45.6547 14.0118L45.3865 15.8C45.3752 15.879 45.3418 15.9533 45.2903 16.0143C45.2388 16.0753 45.1711 16.1206 45.0951 16.145C44.5028 16.3314 43.9448 16.6133 43.4433 16.9795C40.7731 18.9046 41.469 22.1827 42.2092 23.6453C42.2227 23.673 43.472 26.0826 46.7082 26.0823ZM44.0158 17.7742C44.4309 17.4703 44.8929 17.2363 45.3834 17.0813C45.6355 17.0021 45.8603 16.8535 46.0321 16.6527C46.2039 16.4518 46.3158 16.2067 46.355 15.9453L46.6232 14.1573C46.6645 13.8998 46.6351 13.6359 46.5381 13.3938C46.4411 13.1517 46.2802 12.9405 46.0726 12.7828C45.8033 12.5606 45.6155 12.2552 45.5388 11.9147C45.5377 11.9078 45.5357 11.8983 45.5342 11.8912C45.5004 11.7359 45.2421 10.3694 46.5789 10.039C47.9675 9.69608 48.5072 10.4908 48.5809 10.6133C48.659 10.7827 49.315 12.2978 48.1413 12.9138C47.8871 13.0476 47.6782 13.2537 47.5409 13.5061C47.4037 13.7584 47.3442 14.0458 47.37 14.3319L47.5185 16.0648C47.5402 16.3252 47.634 16.5743 47.7895 16.7842C47.9449 16.9941 48.1559 17.1564 48.3986 17.253C48.7425 17.3875 49.0695 17.5618 49.3727 17.7725C50.6733 18.7221 50.9903 20.2564 50.9929 20.2696C50.9954 20.2829 51.2716 21.8051 50.6312 23.1158C50.4918 23.3932 50.4177 23.6989 50.4146 24.0093C50.4114 24.3198 50.4793 24.6269 50.613 24.9071L50.8247 25.3448C50.8588 25.4158 50.8689 25.4959 50.8537 25.5732C50.8384 25.6504 50.7985 25.7207 50.74 25.7734L50.5945 25.9039C50.5312 25.9607 50.4499 25.9935 50.3649 25.9964C50.2799 25.9994 50.1966 25.9725 50.1295 25.9202L49.4404 25.3853C49.0853 25.1114 48.6492 24.9635 48.2008 24.9647C48.0778 24.9647 47.9549 24.9757 47.8338 24.9975C44.3686 25.6202 43.1337 23.3034 43.0831 23.2046C43.0115 23.0628 41.3497 19.6962 44.0158 17.7742Z" fill="#3C3C4F"/>
<path d="M8.74411 32.2886C8.74764 32.2965 8.75131 32.3044 8.75526 32.3122C8.80665 32.4152 10.0541 34.8498 13.2094 36.1119C13.4231 36.197 13.6109 36.3365 13.7541 36.5166C13.8972 36.6966 13.9908 36.911 14.0255 37.1384C14.28 38.8055 14.4291 40.4869 14.4719 42.1726C14.4722 42.2805 14.4435 42.3864 14.3889 42.4794C14.3343 42.5724 14.2557 42.649 14.1613 42.7012C13.4624 43.0945 12.2962 44.4294 12.8845 46.6652C13.3572 48.4611 14.7747 48.9343 15.8845 48.9343C16.1723 48.9354 16.4593 48.9025 16.7394 48.8362C17.5221 48.6152 18.2032 48.1282 18.6656 47.4591C19.1635 46.729 19.7629 44.9194 18.4679 43.297C18.2933 43.0764 18.0895 42.8806 17.862 42.715C17.7744 42.6548 17.7039 42.5728 17.6575 42.4771C17.6111 42.3814 17.5903 42.2754 17.5971 42.1693C17.6948 40.9241 17.9202 39.1078 18.4388 37.5268C18.5108 37.3031 18.6421 37.1032 18.8188 36.9483C18.9954 36.7934 19.2109 36.6893 19.442 36.6473C22.1203 36.1734 24.273 34.8234 25.6679 32.7436C27.2155 30.4354 27.5296 27.6637 27.1545 25.9407C27.0582 25.5085 27.0499 25.0612 27.1301 24.6256C27.2103 24.1901 27.3774 23.7751 27.6214 23.4055C29.0041 21.3512 30.9791 19.5704 32.3931 18.4382C32.692 18.194 33.0491 18.0315 33.4295 17.9666C33.8099 17.9017 34.2007 17.9366 34.5636 18.0679C36.0742 18.6408 37.6251 18.2736 37.6901 18.2578C37.7632 18.24 39.4949 17.8038 40.5368 16.219C40.5581 16.1877 42.6434 13.0539 40.2403 10.0437C38.2897 7.5998 35.2144 8.41157 33.8532 9.18634C33.7357 9.2558 30.9848 10.9221 31.5773 13.9026C31.6494 14.2933 31.6165 14.6961 31.4821 15.0699C31.3476 15.4437 31.1164 15.7751 30.812 16.0303C29.297 17.3301 27.3574 18.5174 25.997 19.2847C25.995 19.2858 25.9935 19.2875 25.9915 19.2886C25.9895 19.2898 25.9874 19.2902 25.9856 19.2915L22.9867 21.0919C22.7412 21.2398 22.455 21.3055 22.1696 21.2794L21.4706 21.2166C21.4063 21.2104 21.3415 21.2169 21.2798 21.2359C21.2181 21.2549 21.1607 21.2859 21.111 21.3271C21.0613 21.3683 21.0203 21.4189 20.9903 21.4761C20.9602 21.5332 20.9418 21.5958 20.936 21.6601C20.9302 21.7244 20.9372 21.7892 20.9566 21.8508C20.9759 21.9123 21.0073 21.9695 21.0488 22.0189C21.0904 22.0683 21.1413 22.1091 21.1986 22.1387C21.256 22.1684 21.3186 22.1864 21.3829 22.1918L22.0819 22.2546C22.1525 22.261 22.2231 22.2641 22.2937 22.2641C22.7155 22.2643 23.1293 22.1493 23.4904 21.9313L26.4834 20.1344C27.881 19.3457 29.8757 18.1234 31.4488 16.7744C31.885 16.4061 32.2155 15.9285 32.4067 15.3905C32.5978 14.8525 32.6427 14.2735 32.5367 13.7125C32.0809 11.4189 34.2591 10.0849 34.3438 10.0345C34.4742 9.96084 37.5619 8.25853 39.4748 10.6557C41.4198 13.0926 39.7964 15.5658 39.7226 15.6755C38.8935 16.9364 37.471 17.3044 37.4588 17.3074C37.4467 17.3103 36.1311 17.6164 34.91 17.1535C34.3878 16.9622 33.8248 16.9098 33.2762 17.0014C32.7277 17.0929 32.2122 17.3253 31.7804 17.6758C30.3138 18.8506 28.2606 20.7038 26.809 22.8606C26.4915 23.3399 26.2737 23.8782 26.1686 24.4436C26.0636 25.0089 26.0734 25.5895 26.1976 26.151C26.5287 27.6711 26.2418 30.1311 24.8545 32.2002C23.6121 34.0534 21.6815 35.2585 19.2718 35.685C19.1493 35.7071 19.0289 35.7393 18.9118 35.7812L19.1547 34.8807C19.1945 34.7323 19.267 34.5947 19.3669 34.478C19.4669 34.3613 19.5917 34.2685 19.7323 34.2065C19.8496 34.153 19.9411 34.0553 19.9869 33.9347C20.0327 33.8142 20.029 33.6804 19.9767 33.5625C19.9244 33.4446 19.8277 33.3521 19.7076 33.3051C19.5875 33.2581 19.4537 33.2604 19.3353 33.3114C19.0613 33.4323 18.8179 33.6132 18.623 33.8406C18.4282 34.0681 18.2868 34.3363 18.2094 34.6256L17.5035 37.2402C16.9585 38.9094 16.7228 40.8001 16.6212 42.0944C16.6004 42.3683 16.6511 42.6429 16.7684 42.8913C16.8856 43.1397 17.0653 43.3534 17.2899 43.5114C17.4451 43.6248 17.584 43.7588 17.703 43.9097C18.8639 45.3638 17.8971 46.8488 17.852 46.9167C17.5254 47.3812 17.0526 47.7227 16.5091 47.8869C16.2882 47.9391 14.3382 48.343 13.8317 46.4187C13.297 44.3867 14.5768 43.5951 14.6444 43.5556C14.8914 43.4169 15.0966 43.2143 15.2386 42.9692C15.3806 42.7241 15.4542 42.4453 15.4517 42.1621C15.4082 40.433 15.2556 38.7084 14.9948 36.9985C14.9349 36.6017 14.7721 36.2274 14.5228 35.9129C14.2735 35.5984 13.9463 35.3546 13.5736 35.2056C10.8784 34.1276 9.72557 32.0533 9.63691 31.8879C9.49488 31.5466 6.87761 25.0399 11.2762 20.9287C11.5624 20.6634 11.7858 20.3378 11.9304 19.9753C12.0749 19.6129 12.1369 19.2229 12.1119 18.8335L12.0633 18.0912C12.0506 17.9034 12.0982 17.7165 12.1992 17.5576C12.3001 17.3988 12.4491 17.2763 12.6245 17.208L12.855 17.1175C13.0318 17.0472 13.2266 17.036 13.4102 17.0856C13.5939 17.1351 13.7567 17.2426 13.8742 17.3922L14.1784 17.7742C14.4532 18.1214 14.8115 18.3932 15.2198 18.5644C15.6281 18.7355 16.0732 18.8003 16.5133 18.7527C18.6842 18.5295 20.5428 18.9282 22.0352 19.9386C22.1406 20.0101 22.2509 20.0777 22.3628 20.1398C22.4763 20.2018 22.6097 20.2163 22.7339 20.1803C22.8581 20.1443 22.963 20.0606 23.0257 19.9475C23.0884 19.8344 23.1038 19.7011 23.0686 19.5767C23.0333 19.4523 22.9503 19.3468 22.8376 19.2834C22.7509 19.2353 22.6655 19.1829 22.5835 19.1281C20.8957 17.9847 18.8187 17.531 16.413 17.7788C16.1365 17.8087 15.857 17.7682 15.6005 17.661C15.3439 17.5538 15.1187 17.3833 14.9458 17.1655L14.641 16.7806C14.3939 16.4657 14.0515 16.2392 13.6651 16.1349C13.2786 16.0306 12.8687 16.054 12.4967 16.2018L12.2662 16.2923C11.8972 16.4361 11.5837 16.6938 11.3714 17.0281C11.159 17.3624 11.059 17.7557 11.0857 18.1508L11.1342 18.8931C11.1496 19.1378 11.1102 19.3829 11.0191 19.6106C10.9279 19.8383 10.7871 20.0428 10.6071 20.2093C8.52867 22.1517 7.54933 24.8631 7.77493 28.0502C7.87688 29.5046 8.20382 30.9344 8.74411 32.2886Z" fill="#3C3C4F"/>
<path d="M25.7247 42.5187C25.7247 42.4136 25.6935 42.3108 25.6351 42.2234C25.5767 42.1359 25.4937 42.0678 25.3965 42.0275C25.2994 41.9873 25.1925 41.9768 25.0893 41.9973C24.9862 42.0178 24.8915 42.0684 24.8171 42.1428C24.7427 42.2171 24.6921 42.3119 24.6716 42.415C24.6511 42.5181 24.6616 42.625 24.7018 42.7222C24.7421 42.8193 24.8102 42.9024 24.8977 42.9608C24.9851 43.0192 25.0879 43.0504 25.193 43.0504C25.2629 43.0504 25.332 43.0367 25.3965 43.01C25.461 42.9833 25.5197 42.9441 25.569 42.8947C25.6184 42.8453 25.6576 42.7867 25.6843 42.7222C25.711 42.6577 25.7247 42.5886 25.7247 42.5187Z" fill="#3C3C4F"/>
<path d="M51.5942 29.6928C51.5289 29.7049 45.2293 30.848 42.2887 28.4939C42.1036 28.3435 41.8727 28.2607 41.6342 28.2593C41.3958 28.2608 41.165 28.3435 40.9799 28.4938C38.0434 30.8441 31.7397 29.7049 31.6742 29.6928C31.5934 29.6777 31.5102 29.6807 31.4307 29.7014C31.3511 29.7221 31.2771 29.7601 31.2139 29.8126C31.1507 29.8652 31.0998 29.9311 31.065 30.0055C31.0301 30.0799 31.012 30.1612 31.0121 30.2434V40.4832C31.0032 41.7656 31.2375 43.0381 31.7026 44.2333C34.1521 50.4238 40.3924 52.0035 41.4014 52.2212C41.4773 52.2375 41.5547 52.2458 41.6324 52.2457H41.6358C41.7134 52.2457 41.7908 52.2375 41.8667 52.2212C42.876 52.0035 49.1163 50.424 51.5656 44.2333C52.0305 43.0381 52.2648 41.7656 52.2559 40.4832V30.2606C52.258 30.1605 52.2342 30.0615 52.187 29.9732C52.1301 29.8701 52.0423 29.7876 51.9359 29.7373C51.8295 29.687 51.7099 29.6714 51.5942 29.6928ZM32.7432 43.8213C32.33 42.7572 32.1224 41.6244 32.1312 40.4829V30.897C33.807 31.1261 38.2384 31.5173 41.0747 29.7886V50.9792C39.3418 50.474 34.6728 48.6982 32.7432 43.8213ZM51.1375 40.4829C51.1463 41.6244 50.9387 42.7572 50.5255 43.8213C48.5956 48.6989 43.9262 50.4745 42.1938 50.9789V29.7884C45.0304 31.5171 49.462 31.1257 51.1375 30.8967V40.4829Z" fill="#3C3C4F"/>
<path d="M84.786 26.2V36H83.764V31.478H77.632V36H76.596V26.2H77.632V30.568H83.764V26.2H84.786ZM89.1747 28.636H90.1687V36H89.1747V28.636ZM89.6787 27.026C89.4733 27.026 89.3007 26.956 89.1607 26.816C89.0207 26.676 88.9507 26.508 88.9507 26.312C88.9507 26.1253 89.0207 25.962 89.1607 25.822C89.3007 25.682 89.4733 25.612 89.6787 25.612C89.884 25.612 90.0567 25.682 90.1967 25.822C90.3367 25.9527 90.4067 26.1113 90.4067 26.298C90.4067 26.5033 90.3367 26.676 90.1967 26.816C90.0567 26.956 89.884 27.026 89.6787 27.026ZM98.0864 28.58C99.0104 28.58 99.7431 28.8507 100.284 29.392C100.835 29.924 101.11 30.7033 101.11 31.73V36H100.116V31.828C100.116 31.0627 99.9251 30.4793 99.5424 30.078C99.1598 29.6767 98.6138 29.476 97.9044 29.476C97.1111 29.476 96.4811 29.714 96.0144 30.19C95.5571 30.6567 95.3284 31.3053 95.3284 32.136V36H94.3344V28.636H95.2864V29.994C95.5571 29.546 95.9304 29.2007 96.4064 28.958C96.8918 28.706 97.4518 28.58 98.0864 28.58ZM111.956 25.612V36H111.004V34.544C110.706 35.0387 110.309 35.4167 109.814 35.678C109.329 35.9393 108.778 36.07 108.162 36.07C107.472 36.07 106.846 35.9113 106.286 35.594C105.726 35.2767 105.288 34.8333 104.97 34.264C104.653 33.6947 104.494 33.046 104.494 32.318C104.494 31.59 104.653 30.9413 104.97 30.372C105.288 29.8027 105.726 29.364 106.286 29.056C106.846 28.7387 107.472 28.58 108.162 28.58C108.76 28.58 109.296 28.706 109.772 28.958C110.258 29.2007 110.654 29.56 110.962 30.036V25.612H111.956ZM108.246 35.188C108.76 35.188 109.222 35.0713 109.632 34.838C110.052 34.5953 110.379 34.2547 110.612 33.816C110.855 33.3773 110.976 32.878 110.976 32.318C110.976 31.758 110.855 31.2587 110.612 30.82C110.379 30.3813 110.052 30.0453 109.632 29.812C109.222 29.5693 108.76 29.448 108.246 29.448C107.724 29.448 107.252 29.5693 106.832 29.812C106.422 30.0453 106.095 30.3813 105.852 30.82C105.619 31.2587 105.502 31.758 105.502 32.318C105.502 32.878 105.619 33.3773 105.852 33.816C106.095 34.2547 106.422 34.5953 106.832 34.838C107.252 35.0713 107.724 35.188 108.246 35.188ZM118.701 28.58C119.662 28.58 120.399 28.8227 120.913 29.308C121.426 29.784 121.683 30.4933 121.683 31.436V36H120.731V34.852C120.507 35.2347 120.175 35.5333 119.737 35.748C119.307 35.9627 118.794 36.07 118.197 36.07C117.375 36.07 116.722 35.874 116.237 35.482C115.751 35.09 115.509 34.572 115.509 33.928C115.509 33.3027 115.733 32.7987 116.181 32.416C116.638 32.0333 117.361 31.842 118.351 31.842H120.689V31.394C120.689 30.7593 120.511 30.2787 120.157 29.952C119.802 29.616 119.284 29.448 118.603 29.448C118.136 29.448 117.688 29.5273 117.259 29.686C116.829 29.8353 116.461 30.0453 116.153 30.316L115.705 29.574C116.078 29.2567 116.526 29.014 117.049 28.846C117.571 28.6687 118.122 28.58 118.701 28.58ZM118.351 35.286C118.911 35.286 119.391 35.16 119.793 34.908C120.194 34.6467 120.493 34.2733 120.689 33.788V32.584H118.379C117.119 32.584 116.489 33.0227 116.489 33.9C116.489 34.3293 116.652 34.67 116.979 34.922C117.305 35.1647 117.763 35.286 118.351 35.286ZM126.734 30.078C126.968 29.5833 127.313 29.21 127.77 28.958C128.237 28.706 128.811 28.58 129.492 28.58V29.546L129.254 29.532C128.48 29.532 127.873 29.77 127.434 30.246C126.996 30.722 126.776 31.3893 126.776 32.248V36H125.782V28.636H126.734V30.078ZM132.692 28.636H133.686V36H132.692V28.636ZM133.196 27.026C132.991 27.026 132.818 26.956 132.678 26.816C132.538 26.676 132.468 26.508 132.468 26.312C132.468 26.1253 132.538 25.962 132.678 25.822C132.818 25.682 132.991 25.612 133.196 25.612C133.402 25.612 133.574 25.682 133.714 25.822C133.854 25.9527 133.924 26.1113 133.924 26.298C133.924 26.5033 133.854 26.676 133.714 26.816C133.574 26.956 133.402 27.026 133.196 27.026ZM146.164 31.394L144.162 33.424V36H143.126V26.2H144.162V32.122L149.916 26.2H151.106L146.864 30.638L151.4 36H150.168L146.164 31.394ZM160.339 32.626H154.179C154.235 33.3913 154.529 34.012 155.061 34.488C155.593 34.9547 156.265 35.188 157.077 35.188C157.535 35.188 157.955 35.1087 158.337 34.95C158.72 34.782 159.051 34.5393 159.331 34.222L159.891 34.866C159.565 35.258 159.154 35.5567 158.659 35.762C158.174 35.9673 157.637 36.07 157.049 36.07C156.293 36.07 155.621 35.9113 155.033 35.594C154.455 35.2673 154.002 34.8193 153.675 34.25C153.349 33.6807 153.185 33.0367 153.185 32.318C153.185 31.5993 153.339 30.9553 153.647 30.386C153.965 29.8167 154.394 29.3733 154.935 29.056C155.486 28.7387 156.102 28.58 156.783 28.58C157.465 28.58 158.076 28.7387 158.617 29.056C159.159 29.3733 159.583 29.8167 159.891 30.386C160.199 30.946 160.353 31.59 160.353 32.318L160.339 32.626ZM156.783 29.434C156.074 29.434 155.477 29.6627 154.991 30.12C154.515 30.568 154.245 31.156 154.179 31.884H159.401C159.336 31.156 159.061 30.568 158.575 30.12C158.099 29.6627 157.502 29.434 156.783 29.434ZM164.729 30.078C164.962 29.5833 165.307 29.21 165.765 28.958C166.231 28.706 166.805 28.58 167.487 28.58V29.546L167.249 29.532C166.474 29.532 165.867 29.77 165.429 30.246C164.99 30.722 164.771 31.3893 164.771 32.248V36H163.777V28.636H164.729V30.078ZM177.432 28.636V36H176.48V34.656C176.218 35.104 175.859 35.454 175.402 35.706C174.944 35.9487 174.422 36.07 173.834 36.07C172.872 36.07 172.112 35.804 171.552 35.272C171.001 34.7307 170.726 33.942 170.726 32.906V28.636H171.72V32.808C171.72 33.5827 171.911 34.1707 172.294 34.572C172.676 34.9733 173.222 35.174 173.932 35.174C174.706 35.174 175.318 34.9407 175.766 34.474C176.214 33.998 176.438 33.34 176.438 32.5V28.636H177.432ZM190.8 28.58C191.724 28.58 192.447 28.846 192.97 29.378C193.502 29.91 193.768 30.694 193.768 31.73V36H192.774V31.828C192.774 31.0627 192.587 30.4793 192.214 30.078C191.85 29.6767 191.332 29.476 190.66 29.476C189.894 29.476 189.292 29.714 188.854 30.19C188.415 30.6567 188.196 31.3053 188.196 32.136V36H187.202V31.828C187.202 31.0627 187.015 30.4793 186.642 30.078C186.278 29.6767 185.755 29.476 185.074 29.476C184.318 29.476 183.716 29.714 183.268 30.19C182.829 30.6567 182.61 31.3053 182.61 32.136V36H181.616V28.636H182.568V29.98C182.829 29.532 183.193 29.1867 183.66 28.944C184.126 28.7013 184.663 28.58 185.27 28.58C185.886 28.58 186.418 28.7107 186.866 28.972C187.323 29.2333 187.664 29.6207 187.888 30.134C188.158 29.6487 188.546 29.2707 189.05 29C189.563 28.72 190.146 28.58 190.8 28.58ZM204.499 28.636V36H203.547V34.656C203.286 35.104 202.927 35.454 202.469 35.706C202.012 35.9487 201.489 36.07 200.901 36.07C199.94 36.07 199.179 35.804 198.619 35.272C198.069 34.7307 197.793 33.942 197.793 32.906V28.636H198.787V32.808C198.787 33.5827 198.979 34.1707 199.361 34.572C199.744 34.9733 200.29 35.174 200.999 35.174C201.774 35.174 202.385 34.9407 202.833 34.474C203.281 33.998 203.505 33.34 203.505 32.5V28.636H204.499ZM212.435 28.58C213.359 28.58 214.092 28.8507 214.633 29.392C215.184 29.924 215.459 30.7033 215.459 31.73V36H214.465V31.828C214.465 31.0627 214.274 30.4793 213.891 30.078C213.509 29.6767 212.963 29.476 212.253 29.476C211.46 29.476 210.83 29.714 210.363 30.19C209.906 30.6567 209.677 31.3053 209.677 32.136V36H208.683V28.636H209.635V29.994C209.906 29.546 210.279 29.2007 210.755 28.958C211.241 28.706 211.801 28.58 212.435 28.58ZM222.134 28.58C223.095 28.58 223.833 28.8227 224.346 29.308C224.859 29.784 225.116 30.4933 225.116 31.436V36H224.164V34.852C223.94 35.2347 223.609 35.5333 223.17 35.748C222.741 35.9627 222.227 36.07 221.63 36.07C220.809 36.07 220.155 35.874 219.67 35.482C219.185 35.09 218.942 34.572 218.942 33.928C218.942 33.3027 219.166 32.7987 219.614 32.416C220.071 32.0333 220.795 31.842 221.784 31.842H224.122V31.394C224.122 30.7593 223.945 30.2787 223.59 29.952C223.235 29.616 222.717 29.448 222.036 29.448C221.569 29.448 221.121 29.5273 220.692 29.686C220.263 29.8353 219.894 30.0453 219.586 30.316L219.138 29.574C219.511 29.2567 219.959 29.014 220.482 28.846C221.005 28.6687 221.555 28.58 222.134 28.58ZM221.784 35.286C222.344 35.286 222.825 35.16 223.226 34.908C223.627 34.6467 223.926 34.2733 224.122 33.788V32.584H221.812C220.552 32.584 219.922 33.0227 219.922 33.9C219.922 34.3293 220.085 34.67 220.412 34.922C220.739 35.1647 221.196 35.286 221.784 35.286ZM232.968 28.58C233.892 28.58 234.624 28.8507 235.166 29.392C235.716 29.924 235.992 30.7033 235.992 31.73V36H234.998V31.828C234.998 31.0627 234.806 30.4793 234.424 30.078C234.041 29.6767 233.495 29.476 232.786 29.476C231.992 29.476 231.362 29.714 230.896 30.19C230.438 30.6567 230.21 31.3053 230.21 32.136V36H229.216V28.636H230.168V29.994C230.438 29.546 230.812 29.2007 231.288 28.958C231.773 28.706 232.333 28.58 232.968 28.58Z" fill="#1D1313"/>
</svg>
