<svg width="35" height="35" viewBox="0 0 35 35" fill="none" xmlns="http://www.w3.org/2000/svg">
<g clip-path="url(#clip0)">
<path d="M0.0200195 11.7396C0.0200195 7.58705 0.0200195 5.51078 0.840963 3.9304C1.53276 2.59862 2.61864 1.51274 3.95041 0.820944C5.5308 0 7.60707 0 11.7596 0H23.2804C27.433 0 29.5092 0 31.0896 0.820944C32.4214 1.51274 33.5073 2.59862 34.1991 3.9304C35.02 5.51078 35.02 7.58705 35.02 11.7396V23.2604C35.02 27.413 35.02 29.4892 34.1991 31.0696C33.5073 32.4014 32.4214 33.4873 31.0896 34.1791C29.5092 35 27.433 35 23.2804 35H11.7596C7.60707 35 5.5308 35 3.95041 34.1791C2.61864 33.4873 1.53276 32.4014 0.840963 31.0696C0.0200195 29.4892 0.0200195 27.413 0.0200195 23.2604V11.7396Z" fill="url(#paint0_radial)"/>
<path d="M0.0200195 11.7396C0.0200195 7.58705 0.0200195 5.51078 0.840963 3.9304C1.53276 2.59862 2.61864 1.51274 3.95041 0.820944C5.5308 0 7.60707 0 11.7596 0H23.2804C27.433 0 29.5092 0 31.0896 0.820944C32.4214 1.51274 33.5073 2.59862 34.1991 3.9304C35.02 5.51078 35.02 7.58705 35.02 11.7396V23.2604C35.02 27.413 35.02 29.4892 34.1991 31.0696C33.5073 32.4014 32.4214 33.4873 31.0896 34.1791C29.5092 35 27.433 35 23.2804 35H11.7596C7.60707 35 5.5308 35 3.95041 34.1791C2.61864 33.4873 1.53276 32.4014 0.840963 31.0696C0.0200195 29.4892 0.0200195 27.413 0.0200195 23.2604V11.7396Z" fill="url(#paint1_radial)"/>
<path d="M17.5004 4.77295C14.044 4.77295 13.6102 4.78806 12.2527 4.84984C10.8978 4.91189 9.97299 5.1264 9.16377 5.44113C8.32671 5.76621 7.61666 6.20106 6.90925 6.90874C6.20132 7.61617 5.76648 8.32624 5.44036 9.16306C5.12484 9.97257 4.91007 10.8977 4.84909 12.2521C4.78837 13.6097 4.77246 14.0437 4.77246 17.5002C4.77246 20.9567 4.78784 21.3892 4.84935 22.7468C4.91166 24.1017 5.12616 25.0265 5.44062 25.8358C5.76595 26.6729 6.20079 27.3829 6.90846 28.0904C7.61559 28.7983 8.32565 29.2342 9.16218 29.5593C9.97192 29.874 10.897 30.0886 12.2516 30.1506C13.6092 30.2124 14.0427 30.2275 17.4988 30.2275C20.9555 30.2275 21.3879 30.2124 22.7455 30.1506C24.1004 30.0886 25.0262 29.874 25.836 29.5593C26.6728 29.2342 27.3818 28.7983 28.0889 28.0904C28.7968 27.3829 29.2317 26.6729 29.5578 25.8361C29.8707 25.0265 30.0854 24.1014 30.1491 22.747C30.2101 21.3895 30.226 20.9567 30.226 17.5002C30.226 14.0437 30.2101 13.6099 30.1491 12.2523C30.0854 10.8974 29.8707 9.97257 29.5578 9.16333C29.2317 8.32624 28.7968 7.61617 28.0889 6.90874C27.381 6.20079 26.673 5.76594 25.8352 5.44113C25.0239 5.1264 24.0985 4.91189 22.7436 4.84984C21.3861 4.78806 20.9539 4.77295 17.4964 4.77295H17.5004ZM16.3587 7.06651C16.6976 7.06598 17.0756 7.06651 17.5004 7.06651C20.8985 7.06651 21.3012 7.07871 22.6431 7.13969C23.884 7.19643 24.5575 7.40378 25.0061 7.57799C25.6 7.80867 26.0234 8.08443 26.4686 8.52988C26.9141 8.97533 27.1898 9.39958 27.421 9.99352C27.5952 10.4416 27.8028 11.1151 27.8593 12.356C27.9203 13.6977 27.9335 14.1007 27.9335 17.4973C27.9335 20.8939 27.9203 21.2969 27.8593 22.6386C27.8026 23.8795 27.5952 24.553 27.421 25.0011C27.1903 25.595 26.9141 26.0179 26.4686 26.4631C26.0232 26.9086 25.6003 27.1843 25.0061 27.415C24.558 27.59 23.884 27.7968 22.6431 27.8536C21.3015 27.9146 20.8985 27.9278 17.5004 27.9278C14.1021 27.9278 13.6993 27.9146 12.3577 27.8536C11.1168 27.7963 10.4433 27.589 9.99446 27.4148C9.40054 27.1841 8.97631 26.9083 8.53087 26.4629C8.08543 26.0174 7.80968 25.5942 7.57847 25C7.40428 24.5519 7.19667 23.8784 7.14019 22.6375C7.07921 21.2959 7.06701 20.8928 7.06701 17.4941C7.06701 14.0954 7.07921 13.6945 7.14019 12.3528C7.19693 11.1119 7.40428 10.4384 7.57847 9.9898C7.80915 9.39586 8.08543 8.97162 8.53087 8.52617C8.97631 8.08071 9.40054 7.80496 9.99446 7.57374C10.4431 7.39874 11.1168 7.19193 12.3577 7.13492C13.5317 7.08189 13.9867 7.06598 16.3587 7.06333V7.06651ZM24.2939 9.17977C23.4508 9.17977 22.7667 9.86306 22.7667 10.7065C22.7667 11.5497 23.4508 12.2338 24.2939 12.2338C25.1371 12.2338 25.8211 11.5497 25.8211 10.7065C25.8211 9.86333 25.1371 9.17924 24.2939 9.17924V9.17977ZM17.5004 10.9642C13.891 10.9642 10.9646 13.8907 10.9646 17.5002C10.9646 21.1097 13.891 24.0349 17.5004 24.0349C21.1098 24.0349 24.0351 21.1097 24.0351 17.5002C24.0351 13.8907 21.1095 10.9642 17.5001 10.9642H17.5004ZM17.5004 13.2578C19.8432 13.2578 21.7427 15.1571 21.7427 17.5002C21.7427 19.8431 19.8432 21.7426 17.5004 21.7426C15.1573 21.7426 13.2581 19.8431 13.2581 17.5002C13.2581 15.1571 15.1573 13.2578 17.5004 13.2578Z" fill="white"/>
</g>
<defs>
<radialGradient id="paint0_radial" cx="0" cy="0" r="1" gradientUnits="userSpaceOnUse" gradientTransform="translate(9.31694 37.6957) rotate(-90) scale(34.6876 32.2622)">
<stop stop-color="#FFDD55"/>
<stop offset="0.1" stop-color="#FFDD55"/>
<stop offset="0.5" stop-color="#FF543E"/>
<stop offset="1" stop-color="#C837AB"/>
</radialGradient>
<radialGradient id="paint1_radial" cx="0" cy="0" r="1" gradientUnits="userSpaceOnUse" gradientTransform="translate(-5.84267 2.52134) rotate(78.6806) scale(15.5055 63.9143)">
<stop stop-color="#3771C8"/>
<stop offset="0.128" stop-color="#3771C8"/>
<stop offset="1" stop-color="#6600FF" stop-opacity="0"/>
</radialGradient>
<clipPath id="clip0">
<rect width="35" height="35" fill="white"/>
</clipPath>
</defs>
</svg>
