<svg width="60" height="60" viewBox="0 0 60 60" fill="none" xmlns="http://www.w3.org/2000/svg">
<rect width="60" height="60" rx="5" fill="#E5E5E5"/>
<path d="M34.8167 45.5332V49.5039C34.8135 49.947 34.9559 50.3789 35.2219 50.7333C35.7496 51.425 36.8758 52.3826 39.0653 52.3826C41.2548 52.3826 42.3809 51.4248 42.9087 50.7333C43.1747 50.3789 43.317 49.947 43.3138 49.5039V47.7468L34.8167 45.5332Z" fill="#FFCAC0"/>
<path d="M34.8164 45.5325C36.1817 46.6974 39.065 48.4022 43.3135 47.7461V43.1104H34.8164V45.5325Z" fill="#E5837C"/>
<path d="M39.0651 26.3263C39.0651 26.3263 30.513 25.7732 31.7717 36.9837C31.7717 36.9837 31.8487 44.6715 39.0651 45.0317C46.2814 44.6715 46.3584 36.9837 46.3584 36.9837C49.789 33.4557 47.8656 24.8877 47.8656 24.8877L39.0651 26.3263Z" fill="#FFCAC0"/>
<path d="M48.3895 29.2882C48.3379 27.8093 48.1627 26.3374 47.8657 24.8877L39.0652 26.3261C39.0652 26.3261 33.0158 25.9358 31.842 32.4815C32.1028 32.7497 33.2717 33.6604 35.7905 31.7231C37.5952 30.3573 39.6306 29.327 41.7998 28.6813C41.7998 28.6813 41.5525 33.009 46.9436 30.1156C47.4686 29.8344 47.9486 29.558 48.3895 29.2882Z" fill="#E5837C"/>
<path d="M33.365 30.1876C33.365 30.1876 31.5766 32.2687 31.7717 36.9836L29.3834 34.6576C29.3834 34.6576 28.2599 31.1632 29.0728 28.5943L33.3646 26.3262C33.3646 26.3262 34.243 27.7489 33.365 30.1876Z" fill="#5C5C6D"/>
<path d="M18.3819 39.5449V12.3204C18.3819 11.5006 18.0563 10.7145 17.4766 10.1348C16.8969 9.55514 16.1107 9.22949 15.291 9.22949C14.885 9.22938 14.483 9.30925 14.1079 9.46453C13.7328 9.61981 13.3919 9.84747 13.1048 10.1345C12.8177 10.4215 12.59 10.7623 12.4346 11.1374C12.2792 11.5124 12.1992 11.9144 12.1992 12.3204V12.7609C12.2773 12.9123 12.3181 13.0801 12.3181 13.2505C12.3181 13.4208 12.2773 13.5887 12.1992 13.7401V15.4078C12.3013 15.7262 12.3013 16.0686 12.1992 16.387V18.0549C12.3013 18.3733 12.3013 18.7156 12.1992 19.0341V39.5244C12.2008 39.7533 12.1473 39.9793 12.0433 40.1832C11.9393 40.3872 11.7877 40.5631 11.6015 40.6962C10.4835 41.4799 9.64421 42.5994 9.20531 43.8923C8.76642 45.1852 8.75073 46.5842 9.16053 47.8866C9.57033 49.189 10.3843 50.327 11.4844 51.1357C12.5846 51.9443 13.9137 52.3815 15.279 52.3839C16.6444 52.3862 17.975 51.9536 19.0779 51.1489C20.1809 50.3441 20.9988 49.2089 21.4131 47.9079C21.8274 46.607 21.8166 45.2078 21.3822 43.9134C20.9478 42.6191 20.1124 41.4967 18.9972 40.709C18.8088 40.5785 18.6546 40.4046 18.5475 40.202C18.4404 39.9994 18.3836 39.774 18.3819 39.5449Z" fill="#E3F2FF"/>
<path d="M16.2826 42.0649V21.9503C16.2866 21.6874 16.1888 21.4331 16.0096 21.2406C15.8305 21.0482 15.5839 20.9324 15.3214 20.9175C15.1886 20.9134 15.0564 20.936 14.9325 20.9839C14.8087 21.0319 14.6957 21.1043 14.6004 21.1967C14.505 21.2892 14.4292 21.3999 14.3775 21.5222C14.3257 21.6445 14.2991 21.776 14.2991 21.9088V42.0651C14.2977 42.273 14.2406 42.4766 14.1339 42.6549C14.0271 42.8332 13.8746 42.9797 13.692 43.0791C13.0548 43.4331 12.5531 43.9887 12.2658 44.6587C11.9784 45.3286 11.9216 46.075 12.1043 46.7808C12.287 47.4865 12.6988 48.1116 13.2752 48.558C13.8515 49.0044 14.5598 49.2467 15.2888 49.2471C16.0178 49.2474 16.7263 49.0057 17.303 48.5599C17.8798 48.1141 18.2923 47.4894 18.4757 46.7839C18.659 46.0783 18.603 45.3319 18.3163 44.6616C18.0296 43.9914 17.5284 43.4353 16.8915 43.0806C16.7086 42.981 16.5557 42.8343 16.4486 42.6557C16.3416 42.4771 16.2842 42.2731 16.2826 42.0649Z" fill="#F74F73"/>
<path d="M43.3158 26.6137C43.3158 26.6137 37.8767 28.3527 33.6705 31.0945C33.5012 31.2036 33.3033 31.26 33.1018 31.2564C32.9004 31.2528 32.7046 31.1894 32.5393 31.0744C32.374 30.9593 32.2465 30.7977 32.1732 30.6101C32.0999 30.4225 32.084 30.2173 32.1275 30.0206C32.2875 29.3183 32.567 28.6488 32.9538 28.0412C31.5031 28.3243 30.1031 28.8235 28.8005 29.5221C28.5966 29.633 28.3652 29.6835 28.1336 29.6676C27.902 29.6516 27.6798 29.5699 27.493 29.432C27.3062 29.2942 27.1627 29.1059 27.0792 28.8893C26.9957 28.6727 26.9757 28.4367 27.0217 28.2092C27.2668 27.0164 27.8135 25.4787 28.9739 23.737C30.7682 21.083 33.2818 18.9955 36.2202 17.7192C37.5087 17.1453 38.8441 16.6833 40.2118 16.3382C41.2937 16.0634 42.435 16.1409 43.4698 16.5594C44.7647 17.0922 46.3357 18.1726 46.9208 20.3429C46.9208 20.3429 56.5552 26.4428 46.6928 36.4763C46.6928 36.4763 47.4339 32.6452 46.1797 28.6604C46.1787 28.6602 42.1057 30.5473 43.3158 26.6137Z" fill="#5C5C6D"/>
<path d="M32.0209 36.7835C32.0209 36.7835 31.8241 34.6984 30.4066 34.1676C30.228 34.1025 30.0373 34.0773 29.848 34.0938C29.6586 34.1102 29.4751 34.1679 29.3104 34.2629C29.1458 34.3578 29.0039 34.4877 28.8947 34.6433C28.7856 34.7989 28.7119 34.9766 28.6787 35.1637C28.5727 35.7285 28.5566 36.5805 28.7744 37.8645C29.2886 40.8969 32.294 39.8151 32.294 39.8151L32.0209 36.7835Z" fill="#FFCAC0"/>
<path d="M46.1112 36.7835C46.1112 36.7835 46.308 34.6984 47.7255 34.1676C47.9041 34.1025 48.0948 34.0773 48.2842 34.0938C48.4735 34.1102 48.657 34.1679 48.8217 34.2629C48.9863 34.3578 49.1282 34.4877 49.2374 34.6433C49.3465 34.7989 49.4202 34.9766 49.4534 35.1637C49.5594 35.7285 49.5755 36.5805 49.3577 37.8645C48.8435 40.8969 45.8381 39.8151 45.8381 39.8151L46.1112 36.7835Z" fill="#FFCAC0"/>
<path d="M39.0651 39.2822C39.0651 39.2822 37.388 39.2671 36.466 41.0564C36.4458 41.095 36.4358 41.1382 36.4371 41.1817C36.4384 41.2253 36.4508 41.2677 36.4733 41.3051C36.4957 41.3425 36.5273 41.3734 36.5652 41.395C36.603 41.4166 36.6458 41.4281 36.6894 41.4284H41.4409C41.4845 41.4281 41.5272 41.4166 41.565 41.395C41.6029 41.3734 41.6345 41.3424 41.6569 41.305C41.6793 41.2677 41.6918 41.2252 41.693 41.1817C41.6943 41.1381 41.6843 41.095 41.6641 41.0564C40.7421 39.2671 39.0651 39.2822 39.0651 39.2822Z" fill="#EF7575"/>
<path d="M15.2344 18.5443C15.2344 18.4144 15.1829 18.2899 15.091 18.1981C14.9992 18.1063 14.8747 18.0547 14.7448 18.0547H12.1997V19.0339H14.7448C14.8091 19.0339 14.8728 19.0212 14.9322 18.9966C14.9916 18.972 15.0456 18.9359 15.091 18.8905C15.1365 18.845 15.1726 18.791 15.1972 18.7316C15.2218 18.6722 15.2344 18.6086 15.2344 18.5443Z" fill="#84B4D3"/>
<path d="M13.7622 15.4072H12.1997V16.3864H13.7622C13.8921 16.3864 14.0166 16.3348 14.1084 16.243C14.2003 16.1512 14.2518 16.0267 14.2518 15.8968C14.2518 15.767 14.2003 15.6424 14.1084 15.5506C14.0166 15.4588 13.8921 15.4072 13.7622 15.4072Z" fill="#84B4D3"/>
<path d="M13.7622 12.7607H12.1997V13.7399H13.7622C13.8921 13.7399 14.0166 13.6884 14.1084 13.5965C14.2003 13.5047 14.2518 13.3802 14.2518 13.2503C14.2518 13.1205 14.2003 12.996 14.1084 12.9041C14.0166 12.8123 13.8921 12.7607 13.7622 12.7607Z" fill="#84B4D3"/>
<path d="M34.7532 13.4058C34.6723 13.4058 34.5927 13.3857 34.5214 13.3473C34.4502 13.309 34.3895 13.2536 34.3449 13.1861C34.3003 13.1186 34.2731 13.0411 34.2658 12.9605C34.2585 12.8799 34.2712 12.7988 34.3029 12.7243L34.8872 11.3515C34.9411 11.2239 34.9469 11.0811 34.9036 10.9496C34.8602 10.818 34.7706 10.7066 34.6514 10.6361C34.325 10.4438 34.0802 10.1387 33.9633 9.77827C33.8465 9.41789 33.8655 9.0272 34.017 8.67992L34.5659 7.42345C34.5916 7.36454 34.6287 7.31128 34.675 7.2667C34.7213 7.22212 34.776 7.1871 34.8358 7.16364C34.8957 7.14018 34.9596 7.12874 35.0238 7.12997C35.0881 7.1312 35.1515 7.14508 35.2104 7.17081C35.2693 7.19655 35.3226 7.23363 35.3672 7.27995C35.4117 7.32627 35.4468 7.38091 35.4702 7.44076C35.4937 7.50061 35.5051 7.5645 35.5039 7.62877C35.5027 7.69304 35.4888 7.75645 35.463 7.81535L34.9142 9.07183C34.8585 9.19967 34.8516 9.34346 34.8946 9.47608C34.9376 9.60871 35.0277 9.72101 35.1478 9.79183C35.4717 9.98332 35.7151 10.2858 35.8328 10.6432C35.9506 11.0005 35.9347 11.3885 35.788 11.735L35.2038 13.1078C35.1663 13.1962 35.1035 13.2716 35.0234 13.3246C34.9432 13.3776 34.8493 13.4058 34.7532 13.4058Z" fill="#F74F73"/>
<path d="M39.9698 13.4061C39.8889 13.4061 39.8092 13.386 39.738 13.3476C39.6667 13.3093 39.6061 13.2539 39.5615 13.1864C39.5169 13.1189 39.4897 13.0414 39.4823 12.9608C39.475 12.8803 39.4877 12.7991 39.5194 12.7247L40.1037 11.3519C40.1577 11.2243 40.1635 11.0814 40.1201 10.9499C40.0768 10.8183 39.9872 10.7069 39.868 10.6364C39.5415 10.4441 39.2968 10.139 39.1799 9.7786C39.063 9.41822 39.0821 9.02752 39.2335 8.68025L39.7821 7.42378C39.8354 7.3067 39.9325 7.21526 40.0526 7.16921C40.1726 7.12315 40.306 7.12617 40.4239 7.17761C40.5417 7.22905 40.6346 7.32479 40.6825 7.44415C40.7304 7.56351 40.7294 7.69691 40.6797 7.81554L40.131 9.07201C40.0752 9.19981 40.0682 9.34361 40.1112 9.47625C40.1542 9.6089 40.2442 9.72122 40.3644 9.79201C40.6882 9.98345 40.9316 10.2859 41.0494 10.6432C41.1672 11.0005 41.1513 11.3884 41.0047 11.7349L40.4205 13.1077C40.383 13.1962 40.3202 13.2717 40.2401 13.3248C40.1599 13.3778 40.0659 13.4061 39.9698 13.4061Z" fill="#F74F73"/>
<path d="M45.1863 13.4061C45.1054 13.4061 45.0257 13.386 44.9545 13.3476C44.8832 13.3093 44.8226 13.2539 44.778 13.1864C44.7334 13.1189 44.7062 13.0414 44.6989 12.9608C44.6915 12.8803 44.7043 12.7991 44.7359 12.7247L45.3203 11.3519C45.3742 11.2243 45.3801 11.0814 45.3367 10.9499C45.2934 10.8183 45.2038 10.7069 45.0845 10.6364C44.7581 10.4441 44.5133 10.139 44.3965 9.77858C44.2796 9.41821 44.2986 9.02753 44.45 8.68025L44.9987 7.42378C45.0519 7.3067 45.149 7.21526 45.2691 7.16921C45.3892 7.12315 45.5225 7.12617 45.6404 7.17761C45.7583 7.22905 45.8512 7.32479 45.899 7.44415C45.9469 7.56351 45.9459 7.69691 45.8963 7.81554L45.3475 9.07201C45.2917 9.19981 45.2847 9.34361 45.3277 9.47625C45.3707 9.6089 45.4607 9.72122 45.5809 9.79201C45.9048 9.98351 46.1482 10.286 46.266 10.6434C46.3837 11.0008 46.3678 11.3888 46.2211 11.7353L45.6368 13.1081C45.5992 13.1965 45.5365 13.2719 45.4563 13.3249C45.3762 13.3779 45.2823 13.4061 45.1863 13.4061Z" fill="#F74F73"/>
<path d="M34.9989 35.7084C34.9203 35.709 34.8416 35.7056 34.7633 35.6982C34.6341 35.6843 34.5157 35.6197 34.4342 35.5186C34.3527 35.4175 34.3146 35.2881 34.3285 35.1589C34.3423 35.0297 34.4069 34.9113 34.5081 34.8298C34.6092 34.7482 34.7386 34.7102 34.8678 34.7241C34.9199 34.7291 36.0232 34.8243 36.8019 33.9758C36.8454 33.9285 36.8978 33.8901 36.9561 33.863C37.0144 33.8359 37.0775 33.8206 37.1417 33.8178C37.206 33.8151 37.2701 33.825 37.3305 33.8471C37.3909 33.8692 37.4464 33.9029 37.4937 33.9464C37.5411 33.9899 37.5794 34.0423 37.6065 34.1006C37.6336 34.1589 37.649 34.222 37.6517 34.2862C37.6545 34.3505 37.6445 34.4146 37.6225 34.475C37.6004 34.5354 37.5667 34.5909 37.5232 34.6382C36.6441 35.5964 35.4901 35.7084 34.9989 35.7084Z" fill="#E5837C"/>
<path d="M43.1333 35.7084C42.6423 35.7084 41.4883 35.5964 40.6085 34.6386C40.5648 34.5912 40.5307 34.5358 40.5085 34.4753C40.4862 34.4148 40.4761 34.3505 40.4787 34.2861C40.4813 34.2217 40.4966 34.1584 40.5237 34.1C40.5509 34.0415 40.5893 33.989 40.6367 33.9454C40.6842 33.9018 40.7398 33.868 40.8004 33.8459C40.861 33.8239 40.9253 33.814 40.9897 33.8169C41.0541 33.8198 41.1173 33.8353 41.1756 33.8627C41.234 33.89 41.2864 33.9286 41.3298 33.9763C42.1115 34.8274 43.2182 34.729 43.265 34.7245C43.329 34.7177 43.3937 34.7236 43.4554 34.7417C43.5171 34.7599 43.5746 34.7901 43.6247 34.8305C43.6747 34.8709 43.7163 34.9207 43.7471 34.9772C43.7779 35.0337 43.7972 35.0957 43.804 35.1596C43.8109 35.2236 43.805 35.2883 43.7869 35.35C43.7687 35.4117 43.7385 35.4692 43.6981 35.5193C43.6577 35.5693 43.6079 35.6109 43.5514 35.6417C43.4949 35.6725 43.4329 35.6918 43.3689 35.6987C43.2906 35.7059 43.212 35.7091 43.1333 35.7084Z" fill="#E5837C"/>
<path d="M30.6692 35.731C30.4553 35.4801 30.1514 35.3232 29.823 35.2941C29.7538 35.292 29.6866 35.3173 29.636 35.3644C29.5853 35.4116 29.5552 35.4768 29.5522 35.5459C29.5494 35.6156 29.5739 35.6836 29.6206 35.7354C29.6674 35.7871 29.7325 35.8185 29.8021 35.8228C29.9951 35.8603 30.1707 35.9595 30.3025 36.1054C30.4343 36.2513 30.5151 36.436 30.5328 36.6318C30.5328 36.6318 30.1772 36.5569 30.144 37.0816C30.1109 37.6064 30.3003 37.9455 30.8938 37.9542C30.9576 37.9503 31.0178 37.9235 31.0634 37.8787C31.1089 37.8338 31.1367 37.774 31.1416 37.7103C31.2099 36.8229 31.051 36.1568 30.6692 35.731Z" fill="#E5837C"/>
<path d="M47.5089 35.708C47.7284 35.4508 48.04 35.2899 48.3767 35.2599C48.4477 35.2578 48.5166 35.2838 48.5685 35.3321C48.6205 35.3805 48.6513 35.4473 48.6543 35.5182C48.6572 35.5896 48.6321 35.6593 48.5842 35.7124C48.5363 35.7655 48.4695 35.7976 48.3982 35.802C48.2003 35.8404 48.0202 35.9421 47.8851 36.0918C47.75 36.2414 47.6671 36.4309 47.649 36.6317C47.649 36.6317 48.0136 36.5548 48.0475 37.0928C48.0814 37.6308 47.8873 37.9785 47.2788 37.9874C47.2134 37.9835 47.1516 37.956 47.1049 37.9101C47.0582 37.8641 47.0297 37.8027 47.0247 37.7374C46.9551 36.8274 47.1176 36.1445 47.5089 35.708Z" fill="#E5837C"/>
<path d="M15.021 52.8657C15.112 52.869 15.2027 52.8708 15.2932 52.8709C17.1268 52.8699 18.8849 52.1409 20.1811 50.8441C21.4773 49.5473 22.2055 47.7889 22.2057 45.9554C22.2044 44.8486 21.9381 43.7583 21.4291 42.7757C20.92 41.793 20.183 40.9465 19.2798 40.307C19.1555 40.2217 19.0535 40.1078 18.9823 39.9749C18.9111 39.8421 18.8727 39.6941 18.8704 39.5434V12.3188C18.8704 11.3692 18.4931 10.4585 17.8216 9.78699C17.1502 9.11551 16.2395 8.73828 15.2898 8.73828C14.3402 8.73828 13.4295 9.11551 12.758 9.78699C12.0866 10.4585 11.7093 11.3692 11.7093 12.3188V39.5235C11.7109 39.6737 11.6763 39.8222 11.6085 39.9562C11.5407 40.0903 11.4416 40.2061 11.3197 40.2939C10.1349 41.1249 9.2406 42.3067 8.76288 43.6728C8.28516 45.0388 8.24805 46.5204 8.65679 47.9087C9.06552 49.2969 9.8995 50.522 11.0412 51.4113C12.183 52.3006 13.5749 52.8092 15.021 52.8657ZM11.8827 41.0947C12.1332 40.9165 12.3372 40.6806 12.4775 40.4071C12.6178 40.1335 12.6903 39.8302 12.6888 39.5228V12.3188C12.6888 11.6289 12.9629 10.9672 13.4507 10.4794C13.9386 9.99155 14.6002 9.71748 15.2901 9.71748C15.98 9.71748 16.6417 9.99155 17.1295 10.4794C17.6174 10.9672 17.8914 11.6289 17.8914 12.3188V39.5438C17.8938 39.8511 17.9698 40.1534 18.1129 40.4253C18.2561 40.6972 18.4623 40.9309 18.7142 41.1068C19.4897 41.6557 20.1225 42.3824 20.5596 43.226C20.9966 44.0696 21.2253 45.0057 21.2265 45.9558C21.2264 46.7549 21.0651 47.5457 20.7521 48.281C20.4391 49.0162 19.9809 49.6807 19.4049 50.2346C18.8289 50.7885 18.147 51.2204 17.4001 51.5044C16.6532 51.7885 15.8567 51.9188 15.0582 51.8876C13.8167 51.8391 12.6217 51.4024 11.6416 50.6388C10.6615 49.8753 9.94569 48.8235 9.595 47.6316C9.2443 46.4397 9.27643 45.1678 9.68685 43.9952C10.0973 42.8225 10.8653 41.8082 11.8827 41.0951V41.0947Z" fill="#3C3C4F"/>
<path d="M15.2902 49.7363C16.162 49.7365 17.0071 49.4355 17.6825 48.8841C18.3578 48.3328 18.8219 47.565 18.9962 46.7108C19.1705 45.8565 19.0443 44.9683 18.6388 44.1965C18.2334 43.4247 17.5738 42.8166 16.7715 42.4753V21.9071C16.7715 21.5143 16.6155 21.1375 16.3377 20.8597C16.0599 20.5819 15.6831 20.4258 15.2902 20.4258C14.8973 20.4258 14.5205 20.5819 14.2427 20.8597C13.9649 21.1375 13.8088 21.5143 13.8088 21.9071V42.4753C13.0066 42.8166 12.3469 43.4247 11.9415 44.1965C11.5361 44.9683 11.4099 45.8565 11.5841 46.7108C11.7584 47.565 12.2225 48.3328 12.8979 48.8841C13.5732 49.4355 14.4184 49.7365 15.2902 49.7363ZM14.4458 43.2835C14.5451 43.2522 14.6318 43.19 14.6933 43.1061C14.7548 43.0221 14.788 42.9208 14.788 42.8167V21.9084C14.788 21.7752 14.8409 21.6475 14.9351 21.5533C15.0293 21.4592 15.157 21.4063 15.2902 21.4063C15.4234 21.4063 15.5511 21.4592 15.6453 21.5533C15.7394 21.6475 15.7923 21.7752 15.7923 21.9084V42.8167C15.7923 42.9208 15.8255 43.0221 15.8871 43.1061C15.9486 43.19 16.0353 43.2522 16.1346 43.2835C16.7725 43.4852 17.3172 43.9084 17.6701 44.4767C18.0231 45.045 18.1611 45.7209 18.0591 46.3821C17.9571 47.0433 17.6218 47.6461 17.114 48.0816C16.6061 48.5172 15.9592 48.7566 15.2902 48.7566C14.6212 48.7566 13.9742 48.5172 13.4664 48.0816C12.9585 47.6461 12.6233 47.0433 12.5213 46.3821C12.4193 45.7209 12.5572 45.045 12.9102 44.4767C13.2632 43.9084 13.8079 43.4852 14.4458 43.2835Z" fill="#3C3C4F"/>
<path d="M27.196 29.8205C27.5153 30.0597 27.9084 30.1789 28.3068 30.1575C28.214 31.6737 28.4992 33.1893 28.7228 34.0993C28.4507 34.361 28.267 34.701 28.1971 35.072C28.06 35.8017 28.0918 36.7682 28.2914 37.9449C28.465 38.9693 28.9151 39.7001 29.6292 40.1172C30.0869 40.3722 30.6041 40.5009 31.1279 40.4901C31.4149 40.4889 31.7011 40.4592 31.9822 40.4014C32.4301 41.5848 33.1553 42.8414 34.3265 43.8153V49.5021C34.3241 50.0524 34.5017 50.5885 34.8321 51.0286C35.3571 51.7164 36.6051 52.8704 39.0645 52.8704C41.524 52.8704 42.7723 51.7164 43.297 51.0286C43.6275 50.5885 43.8051 50.0524 43.8027 49.5021V43.8155C44.9745 42.8414 45.6993 41.5849 46.1471 40.401C46.4289 40.4591 46.7157 40.4889 47.0035 40.4901C47.5272 40.5008 48.0444 40.3721 48.5021 40.1172C49.2161 39.7002 49.6662 38.9693 49.84 37.9449C50.0395 36.7685 50.0711 35.802 49.9341 35.072C49.861 34.6789 49.66 34.3209 49.3625 34.0537C51.2451 31.3582 51.9602 28.7116 51.4802 26.1824C50.811 22.653 48.0469 20.5266 47.3412 20.0346C46.6594 17.7646 44.9694 16.6454 43.6548 16.1042C42.5229 15.6485 41.2757 15.5632 40.0923 15.8606C38.6971 16.2122 37.3349 16.6834 36.0206 17.2691C32.9965 18.582 30.41 20.731 28.5653 23.4635C27.5388 25.0043 26.8577 26.5671 26.5409 28.1082C26.4736 28.4264 26.4997 28.7572 26.6159 29.061C26.7321 29.3647 26.9335 29.6285 27.196 29.8205ZM32.1417 31.3815C31.7724 32.2957 31.5231 33.2538 31.3998 34.232C31.165 34.0023 30.8851 33.8238 30.5779 33.7077C30.2716 33.593 29.9394 33.5658 29.6186 33.629C29.419 32.7505 29.1547 31.2197 29.3203 29.8002C30.1849 29.3651 31.0904 29.0164 32.0235 28.7592C31.8595 29.1317 31.7334 29.5199 31.6473 29.9178C31.5906 30.1837 31.6065 30.46 31.6935 30.7175C31.7805 30.9751 31.9353 31.2045 32.1417 31.3815ZM30.1229 39.2717C29.6711 39.0077 29.3796 38.5063 29.2566 37.7812C29.0765 36.719 29.0437 35.8684 29.1593 35.2529C29.1814 35.1328 29.2295 35.0191 29.3002 34.9197C29.371 34.8202 29.4626 34.7375 29.5687 34.6773C29.6688 34.6197 29.7804 34.5851 29.8955 34.5761C30.0106 34.567 30.1263 34.5836 30.2341 34.6248C31.3353 35.037 31.528 36.7832 31.5329 36.8284L31.7688 39.4447C31.3566 39.5265 30.6668 39.5894 30.123 39.2717H30.1229ZM42.8234 49.5021C42.826 49.8378 42.719 50.1652 42.5186 50.4345C42.0115 51.0991 41.0005 51.8912 39.0644 51.8912C37.1283 51.8912 36.1175 51.0991 35.6104 50.4345C35.4099 50.1652 35.3029 49.8378 35.3056 49.5021V44.4955C36.2913 45.0602 37.516 45.4432 39.04 45.5193C39.0482 45.5193 39.0562 45.5193 39.0644 45.5193C39.0726 45.5193 39.0806 45.5193 39.0888 45.5193C40.6135 45.4432 41.8375 45.0605 42.8234 44.4955V49.5021ZM48.8752 37.7813C48.7526 38.5043 48.4625 39.0049 48.0129 39.2693C47.4657 39.5911 46.7755 39.528 46.3631 39.4457L46.5988 36.8284C46.6036 36.7832 46.7965 35.037 47.8977 34.6248C48.0055 34.5836 48.1211 34.567 48.2362 34.576C48.3513 34.5851 48.4629 34.6197 48.5629 34.6773C48.669 34.7375 48.7607 34.8202 48.8314 34.9196C48.9021 35.019 48.9502 35.1327 48.9723 35.2527C49.0869 35.8685 49.0546 36.72 48.8752 37.7813ZM27.5001 28.3058C27.7913 26.8884 28.4239 25.4419 29.3801 24.0066C31.1218 21.4292 33.5632 19.4027 36.4171 18.1651C37.6796 17.6024 38.9883 17.1496 40.3286 16.8115C41.3095 16.5638 42.3436 16.6333 43.2823 17.0103C44.4276 17.4816 45.9061 18.4644 46.4471 20.4691C46.479 20.5876 46.5542 20.6897 46.6579 20.7553C46.6896 20.7755 49.8441 22.8089 50.5183 26.3654C50.9543 28.6647 50.2628 31.1055 48.4694 33.6225C48.1619 33.5695 47.8457 33.5992 47.5533 33.7084C47.5 33.7284 47.4482 33.7501 47.3981 33.7733C47.4056 32.59 47.2996 31.4088 47.0815 30.2457C47.0694 30.1826 47.045 30.1225 47.0096 30.0688C46.9743 30.0151 46.9287 29.9688 46.8755 29.9328C46.8222 29.8967 46.7624 29.8714 46.6995 29.8585C46.6365 29.8455 46.5716 29.845 46.5084 29.8572C46.4453 29.8693 46.3851 29.8937 46.3314 29.9291C46.2777 29.9644 46.2315 30.01 46.1954 30.0632C46.1594 30.1165 46.1341 30.1763 46.1211 30.2392C46.1082 30.3022 46.1077 30.3671 46.1198 30.4303C46.3765 31.8122 46.4692 33.2196 46.3961 34.6232C45.7483 35.5219 45.6302 36.6689 45.6237 36.7372V36.7393L45.3566 39.7053C44.6519 41.8098 42.9885 44.335 39.0653 44.5411C35.1472 44.3353 33.4833 41.8164 32.7768 39.7136L32.5086 36.7393V36.7372C32.4647 36.3642 32.3795 35.9973 32.2545 35.6432C32.2572 35.6292 32.2592 35.6151 32.2606 35.6009C32.3376 33.8302 32.7123 32.5575 33.0499 31.7496C33.364 31.7635 33.6745 31.6777 33.9369 31.5043C37.0803 29.4554 40.9716 27.9578 42.6413 27.3625C42.5228 28.2014 42.6853 28.8193 43.1276 29.2054C44.1511 30.0991 46.1589 29.2085 46.3844 29.1041L47.2932 28.6805C47.4109 28.6257 47.5019 28.5263 47.5464 28.4043C47.5908 28.2823 47.585 28.1476 47.5301 28.0299C47.4753 27.9122 47.3759 27.8211 47.2539 27.7767C47.1319 27.7322 46.9972 27.7381 46.8795 27.7929L45.9716 28.2165C45.4388 28.4616 44.201 28.8454 43.7701 28.4683C43.5127 28.2432 43.5171 27.6197 43.7822 26.7581C43.8085 26.6726 43.8109 26.5816 43.7891 26.4948C43.7673 26.4081 43.7222 26.3289 43.6586 26.266C43.595 26.2032 43.5154 26.1589 43.4284 26.138C43.3414 26.1172 43.2504 26.1206 43.1652 26.1478C42.9405 26.2197 37.6145 27.9385 33.4011 30.6848C33.3158 30.742 33.2152 30.772 33.1125 30.7709C33.0098 30.7698 32.9099 30.7376 32.8258 30.6786C32.7369 30.6192 32.6682 30.5342 32.6287 30.4348C32.5891 30.3355 32.5807 30.2265 32.6045 30.1222C32.7538 29.475 33.0123 28.858 33.3689 28.2977C33.418 28.2177 33.443 28.1253 33.4411 28.0315C33.4391 27.9377 33.4102 27.8464 33.3579 27.7686C33.3055 27.6907 33.2319 27.6295 33.1458 27.5923C33.0597 27.5551 32.9647 27.5434 32.8721 27.5586C31.3671 27.8491 29.9149 28.3662 28.565 29.0923C28.4427 29.1608 28.303 29.1919 28.1632 29.1818C28.0234 29.1718 27.8896 29.1211 27.7783 29.0359C27.6656 28.9547 27.5792 28.8423 27.5297 28.7126C27.4803 28.5828 27.47 28.4414 27.5001 28.3058Z" fill="#3C3C4F"/>
<path d="M39.0655 38.791H39.0634C38.9136 38.791 36.8064 38.8353 35.8415 41.2448C35.8117 41.3191 35.8006 41.3995 35.8092 41.4791C35.8177 41.5586 35.8457 41.6349 35.8905 41.7012C35.9354 41.7674 35.9958 41.8217 36.0664 41.8592C36.1371 41.8967 36.2159 41.9164 36.2959 41.9164H41.8329C41.9129 41.9163 41.9917 41.8967 42.0624 41.8592C42.133 41.8217 42.1934 41.7674 42.2383 41.7011C42.2832 41.6349 42.3111 41.5586 42.3197 41.4791C42.3282 41.3995 42.3172 41.3191 42.2875 41.2448C41.3222 38.8352 39.2152 38.791 39.0655 38.791ZM37.1032 40.9369C37.3161 40.6028 37.6043 40.3232 37.9447 40.1206C38.2851 39.9179 38.6682 39.7977 39.0634 39.7696H39.0651C39.4604 39.7976 39.8436 39.9178 40.1841 40.1206C40.5246 40.3233 40.8128 40.603 41.0258 40.9372L37.1032 40.9369Z" fill="#3C3C4F"/>
</svg>
