<svg width="60" height="60" viewBox="0 0 60 60" fill="none" xmlns="http://www.w3.org/2000/svg">
<rect width="60" height="60" rx="5" fill="#E6E6E6"/>
<path d="M37.6041 47.0786C37.5966 47.9633 37.5673 48.9716 37.4995 50.0637C37.4995 50.0637 43.964 50.5769 46.6359 44.8656C46.8459 44.4101 46.9424 43.9105 46.9171 43.4095C46.8869 42.7319 46.8485 41.6133 46.8465 40.2754C43.3929 42.1762 40.2306 44.3637 37.6041 47.0786Z" fill="#FFCAC0"/>
<path d="M46.8467 40.2759C46.8453 39.1211 46.8711 37.8033 46.9532 36.4658H43.6214L37.5 43.3761C37.5 43.3761 37.6235 44.828 37.6046 47.079C38.9202 46.8588 43.9067 45.6853 46.8467 40.2759Z" fill="#E5837C"/>
<path d="M25.3248 9.68524C25.3248 9.68524 24.531 8.02557 22.3302 8.8554C21.0922 9.32213 20.9705 10.2 21.1011 10.8786C21.1709 11.22 21.1498 11.5737 21.0401 11.9044C20.9303 12.235 20.7357 12.5311 20.4757 12.763C19.9283 13.2406 19.3475 13.6784 18.7378 14.0733C18.5153 14.216 18.2641 14.3077 18.002 14.3418C17.7399 14.376 17.4736 14.3518 17.222 14.2709C16.529 14.0588 15.8092 13.9473 15.0846 13.9396C14.8482 13.9359 14.6155 13.8814 14.4021 13.7798C14.1887 13.6782 13.9997 13.5319 13.8478 13.3507C13.6883 13.1529 13.4871 12.9925 13.2587 12.881C13.0303 12.7695 12.7802 12.7096 12.526 12.7054H12.4033C12.2179 12.7054 12.04 12.779 11.9087 12.9101C11.7775 13.0411 11.7037 13.2189 11.7035 13.4044V14.1677C11.704 14.5415 11.5774 14.9043 11.3444 15.1965C10.2635 16.5504 7.33495 20.8503 11.0007 23.8132C12.8233 25.2861 14.619 25.5388 16.0972 25.3297C16.3787 25.2871 16.6665 25.322 16.9297 25.4306C17.1929 25.5392 17.4216 25.7174 17.5911 25.9461C17.8247 26.2731 18.0308 26.6189 18.2072 26.9799C18.3416 27.2543 18.4198 27.5527 18.4373 27.8576C18.4549 28.1626 18.4113 28.468 18.3093 28.7559C18.1427 29.2371 18.12 29.905 18.8297 30.5115C19.3417 30.9491 19.9941 31.0123 20.5965 30.9283C22.3612 30.6821 22.7142 28.2339 21.0607 27.57C21.0422 27.5627 21.0233 27.5559 21.0042 27.5483C20.4828 27.3562 20.0498 26.9798 19.7869 26.4903C19.5773 26.0968 19.4101 25.6822 19.2881 25.2533C19.2098 24.9876 19.2042 24.7058 19.2717 24.4372C19.3392 24.1686 19.4774 23.9229 19.6719 23.7258C19.9428 23.4599 20.1717 23.1543 20.3507 22.8196C20.8424 21.8949 21.1145 20.6644 20.9245 19.0296C20.858 18.4031 20.706 17.7888 20.4727 17.2036C20.3594 16.9239 20.319 16.6201 20.3552 16.3205C20.3914 16.0209 20.503 15.7355 20.6797 15.4908C21.217 14.7391 21.8196 14.0361 22.4802 13.39C22.7473 13.1335 23.0817 12.958 23.4446 12.884C26.6706 12.2123 25.3248 9.68524 25.3248 9.68524Z" fill="#F74F73"/>
<path d="M28.3341 48.8026C27.8517 48.2446 27.1868 48.3303 26.7106 48.5027C26.5575 48.5573 26.394 48.5765 26.2324 48.5587C26.0708 48.541 25.9153 48.4868 25.7777 48.4002C25.1414 48.016 24.5589 47.549 24.0455 47.0115C23.8141 46.7612 23.6827 46.4346 23.6763 46.0938C23.6584 44.7809 23.2478 41.5599 19.7061 41.0151C15.3844 40.3502 13.5483 43.4794 13.5832 46.3598C13.5846 46.5567 13.5182 46.7481 13.3951 46.9019L13.0944 47.2814C12.9714 47.4366 12.8888 47.6199 12.8538 47.8149C12.8188 48.0098 12.8327 48.2104 12.8941 48.3987L12.9253 48.4944C13.0126 48.747 13.183 48.9625 13.4087 49.1056C13.6344 49.2487 13.9019 49.311 14.1676 49.2823C14.3316 49.2699 14.4957 49.3037 14.6415 49.3798C14.7872 49.4559 14.9087 49.5713 14.9923 49.7129C15.4355 50.4522 16.5875 51.7599 19.1217 51.5606C20.7161 51.4354 21.7509 50.727 22.4229 49.8855C22.577 49.6916 22.7806 49.5427 23.0121 49.4546C23.2436 49.3665 23.4946 49.3424 23.7387 49.3849C24.1025 49.4524 24.4595 49.5523 24.8054 49.6834C24.9723 49.7452 25.1214 49.8471 25.2397 49.98C25.358 50.1129 25.4419 50.2728 25.4839 50.4457C25.6443 51.1066 26.3526 51.5771 27.2071 51.5686L27.2993 51.5678C27.6549 51.5694 28.0005 51.4498 28.2789 51.2286C28.5574 51.0075 28.7522 50.698 28.8312 50.3513C28.9329 49.8501 28.7866 49.3265 28.3341 48.8026Z" fill="#F74F73"/>
<path d="M22.012 36.1737C21.7397 36.3147 21.512 36.5284 21.3541 36.7912C21.1962 37.054 21.1144 37.3555 21.1178 37.662C21.1303 38.2308 21.3982 38.9222 22.5013 39.2432C23.3321 39.4846 23.8532 39.2291 24.1792 38.8417C24.7766 38.1306 24.6134 37.0677 23.895 36.4792C23.4089 36.0806 22.7453 35.7886 22.012 36.1737Z" fill="#F74F73"/>
<path d="M10.4514 48.6779C10.2495 48.4473 9.98741 48.2773 9.69449 48.1869C9.40156 48.0965 9.08928 48.0892 8.79247 48.1659C8.24315 48.3143 7.63595 48.7398 7.5888 49.8875C7.55308 50.7521 7.9255 51.1971 8.38023 51.4207C9.21317 51.8301 10.2065 51.4177 10.6059 50.5793C10.8762 50.0118 11.0012 49.2975 10.4514 48.6779Z" fill="#F74F73"/>
<path d="M16.3727 43.7947C16.1764 44.0046 16.0284 44.2549 15.939 44.5281C15.8516 44.7937 15.8521 45.0805 15.9403 45.3459C16.0286 45.6113 16.2 45.8411 16.4291 46.0015L16.6046 46.1251C16.8122 46.2746 17.0597 46.3588 17.3154 46.3668C17.5711 46.3749 17.8234 46.3064 18.04 46.1701C18.2321 46.0508 18.3923 45.8867 18.5069 45.6918C18.6215 45.4969 18.6871 45.2771 18.698 45.0513C18.7237 44.7284 18.6611 44.4046 18.5167 44.1146C18.4232 43.9228 18.2844 43.7566 18.1123 43.6304C17.9402 43.5043 17.7399 43.4219 17.5289 43.3904C17.3178 43.3589 17.1023 43.3792 16.9008 43.4497C16.6994 43.5201 16.5181 43.6385 16.3727 43.7947Z" fill="#B21F42"/>
<path d="M18.7256 47.7164C18.5939 47.8572 18.4946 48.025 18.4347 48.2083C18.376 48.3864 18.3763 48.5788 18.4355 48.7568C18.4947 48.9348 18.6096 49.089 18.7633 49.1965L18.8811 49.2795C19.0203 49.3799 19.1863 49.4364 19.3578 49.4417C19.5293 49.4471 19.6986 49.4011 19.8438 49.3096C19.9726 49.2296 20.0801 49.1196 20.157 48.9888C20.2338 48.8581 20.2778 48.7107 20.2851 48.5592C20.3024 48.3427 20.2604 48.1256 20.1635 47.9311C20.1008 47.8025 20.0078 47.691 19.8924 47.6063C19.777 47.5216 19.6427 47.4664 19.5011 47.4452C19.3595 47.4241 19.215 47.4377 19.0799 47.485C18.9447 47.5322 18.8232 47.6117 18.7256 47.7164Z" fill="#B21F42"/>
<path d="M18.5761 19.5057C18.4825 19.2628 18.3168 19.0543 18.1013 18.9083C17.8859 18.7622 17.6309 18.6855 17.3706 18.6886C16.7302 18.6956 15.9015 18.9637 15.6845 20.2349C15.4685 21.4994 16.221 22.0051 16.8763 22.2072C17.1334 22.2872 17.4095 22.2811 17.6629 22.1899C17.9162 22.0988 18.1329 21.9275 18.2802 21.7021C18.6166 21.1836 18.9263 20.3948 18.5761 19.5057Z" fill="#B21F42"/>
<path d="M12.9134 16.7299C13.0908 16.6185 13.3023 16.5743 13.5095 16.6054C13.7166 16.6365 13.9059 16.7408 14.0428 16.8993C14.3453 17.2504 14.6075 17.7921 14.2622 18.4542C13.9406 19.0698 13.3304 19.1924 12.8138 19.1669C12.6849 19.1605 12.5589 19.1258 12.4448 19.0655C12.3307 19.0051 12.2313 18.9204 12.1534 18.8175C12.0756 18.7145 12.0213 18.5957 11.9943 18.4694C11.9674 18.3432 11.9684 18.2125 11.9974 18.0868C12.0529 17.8113 12.1624 17.5496 12.3196 17.3167C12.4768 17.0838 12.6786 16.8843 12.9134 16.7299Z" fill="#B21F42"/>
<path d="M8.9195 31.482C8.9195 31.482 9.26877 33.076 10.7712 33.1608C11.7502 33.216 12.3316 32.822 12.6771 32.3519C12.9319 31.995 13.0746 31.5702 13.0868 31.1319C13.099 30.6935 12.9802 30.2614 12.7457 29.8909C12.68 29.7878 12.6396 29.6707 12.6278 29.5491C12.6161 29.4274 12.6332 29.3047 12.6779 29.1909L12.6927 29.1544C12.7501 29.0133 12.7548 28.8563 12.7059 28.712C12.657 28.5678 12.5578 28.446 12.4265 28.3689L12.2675 28.2756C12.149 28.2061 12.0111 28.177 11.8746 28.1926C11.7381 28.2082 11.6104 28.2678 11.5107 28.3622L11.1542 28.7002C11.047 28.8026 10.9118 28.8709 10.7657 28.8962C10.1698 28.9981 8.53875 29.4614 8.9195 31.482Z" fill="#F74F73"/>
<path d="M16.2592 34.5133C16.2592 34.5133 14.8384 33.7105 13.7732 34.7734C13.0792 35.466 12.9846 36.1616 13.1052 36.7326C13.2011 37.1605 13.4225 37.5501 13.741 37.8516C14.0595 38.1531 14.4606 38.3527 14.8932 38.425C15.0138 38.4449 15.128 38.4929 15.2265 38.5653C15.325 38.6376 15.405 38.7322 15.46 38.8414L15.4772 38.8768C15.5441 39.0137 15.658 39.1219 15.7981 39.1817C15.9382 39.2415 16.0952 39.2488 16.2403 39.2024L16.4156 39.1459C16.5465 39.1039 16.6601 39.0206 16.7395 38.9084C16.8189 38.7963 16.8597 38.6614 16.8558 38.524L16.8417 38.033C16.8369 37.8849 16.8762 37.7386 16.9546 37.6129C17.2765 37.1019 18.0187 35.5772 16.2592 34.5133Z" fill="#B21F42"/>
<path d="M9.2872 8.90197C9.18038 9.1751 9.15154 9.47254 9.20389 9.76111C9.25624 10.0497 9.38772 10.318 9.58367 10.5362C9.95186 10.9372 10.5807 11.2651 11.5761 10.7992C12.3256 10.4483 12.5393 9.93609 12.5288 9.45143C12.5094 8.56329 11.7212 7.90216 10.8334 7.93265C10.2324 7.95327 9.57097 8.16207 9.2872 8.90197Z" fill="#B21F42"/>
<path d="M28.8855 28.5454C28.8726 30.4583 28.8085 32.8532 28.6016 34.7187C32.5393 38.9326 36.8172 42.0606 42.2694 41.442C43.3342 40.3915 45.3886 38.1526 45.9867 35.9926L44.1663 32.2251L42.8441 23.9822C42.8441 23.9822 33.5954 23.7516 28.8855 28.5454Z" fill="#FFCAC0"/>
<path d="M28.8616 25.262C28.8616 25.262 28.8981 26.6728 28.8856 28.5451L29.6091 28.1881C29.6091 28.1881 29.7764 29.9487 32.2845 29.1783C34.7927 28.4079 36.5735 27.1178 38.6808 26.7595C38.6808 26.7595 38.9966 29.8654 43.2007 27.8344C43.6275 27.6283 44.0524 27.4131 44.472 27.1932L44.758 22.4859C44.758 22.4859 35.0834 21.3026 28.8616 25.262Z" fill="#E5837C"/>
<path d="M50.3369 32.7531C55.2399 25.7619 49.947 21.4692 49.947 21.4692C48.7347 17.488 45.7284 12.801 38.2741 14.4759C29.4136 16.4665 27.2456 22.5543 26.7279 25.8383C26.69 26.0738 26.7189 26.3152 26.8114 26.5351C26.9038 26.7549 27.0561 26.9444 27.2509 27.0821C27.4457 27.2197 27.6751 27.3 27.9133 27.3137C28.1514 27.3274 28.3886 27.2741 28.5979 27.1597C29.9794 26.4115 30.6497 25.626 30.6497 25.626C30.5553 25.7689 30.4701 25.9178 30.3948 26.0717C30.2913 26.2778 30.2556 26.5113 30.2928 26.739C30.3299 26.9666 30.438 27.1766 30.6016 27.3392C30.7653 27.5017 30.9761 27.6083 31.2039 27.6439C31.4318 27.6795 31.6651 27.6422 31.8705 27.5374C35.7181 25.5891 40.8897 24.1242 40.8897 24.1242C40.8897 24.1242 40.3374 24.6368 40.1273 25.6709C40.0986 25.8162 40.1068 25.9664 40.1511 26.1078C40.1954 26.2492 40.2744 26.3772 40.381 26.4802C40.4875 26.5831 40.6181 26.6577 40.761 26.6971C40.9038 26.7366 41.0542 26.7396 41.1985 26.7058C41.6313 26.5995 42.2024 26.3542 42.9376 25.8536C42.9376 25.8536 40.4345 31.3604 44.5305 34.7282C44.5305 34.7285 47.8793 36.2578 50.3369 32.7531Z" fill="#5C5C6D"/>
<path d="M27.9371 34.9954C27.967 34.8006 28.0672 34.6234 28.2187 34.4973C28.3703 34.3712 28.5627 34.3048 28.7597 34.3107C29.8824 34.3347 30.9901 34.0493 31.9615 33.4858C33.901 32.4029 35.0284 33.0249 36.2555 33.8118C36.5602 34.0077 36.895 34.1524 37.2466 34.2401C38.1529 34.4649 39.9728 34.7695 41.8153 34.2233C41.8153 34.2233 38.2707 39.6022 42.2693 41.4422C42.2693 41.4422 41.0706 45.1317 35.1747 45.1317C32.2267 45.1317 30.4531 44.1294 29.4163 43.128C28.5837 42.3123 28.0503 41.2397 27.9021 40.0836C27.6725 38.3944 27.6843 36.6812 27.9371 34.9954Z" fill="#BDF2DC"/>
<path d="M11.1721 41.0052C11.5524 41.0052 11.8607 40.6969 11.8607 40.3166C11.8607 39.9363 11.5524 39.6279 11.1721 39.6279C10.7917 39.6279 10.4834 39.9363 10.4834 40.3166C10.4834 40.6969 10.7917 41.0052 11.1721 41.0052Z" fill="#F74F73"/>
<path d="M20.8477 45.3063C21.2158 45.3063 21.5141 45.008 21.5141 44.64C21.5141 44.272 21.2158 43.9736 20.8477 43.9736C20.4797 43.9736 20.1814 44.272 20.1814 44.64C20.1814 45.008 20.4797 45.3063 20.8477 45.3063Z" fill="#B21F42"/>
<path d="M31.9615 31.6222C32.3046 31.6222 32.5827 31.3441 32.5827 31.0011C32.5827 30.658 32.3046 30.3799 31.9615 30.3799C31.6184 30.3799 31.3403 30.658 31.3403 31.0011C31.3403 31.3441 31.6184 31.6222 31.9615 31.6222Z" fill="#E5837C"/>
<path d="M26.5764 16.6851C27.0523 16.6851 27.438 16.2994 27.438 15.8235C27.438 15.3477 27.0523 14.9619 26.5764 14.9619C26.1006 14.9619 25.7148 15.3477 25.7148 15.8235C25.7148 16.2994 26.1006 16.6851 26.5764 16.6851Z" fill="#B21F42"/>
<path d="M13.0605 22.168C13.4192 22.168 13.71 21.8772 13.71 21.5186C13.71 21.1599 13.4192 20.8691 13.0605 20.8691C12.7019 20.8691 12.4111 21.1599 12.4111 21.5186C12.4111 21.8772 12.7019 22.168 13.0605 22.168Z" fill="#B21F42"/>
<path d="M36.1224 31.6222C36.4655 31.6222 36.7436 31.3441 36.7436 31.0011C36.7436 30.658 36.4655 30.3799 36.1224 30.3799C35.7793 30.3799 35.5012 30.658 35.5012 31.0011C35.5012 31.3441 35.7793 31.6222 36.1224 31.6222Z" fill="#E5837C"/>
<path d="M43.6235 34.3817C43.6235 34.3817 43.4347 31.0822 45.9864 30.9601C47.8217 30.8722 48.216 32.6815 48.2925 33.7039C48.3273 34.1707 48.2795 34.6399 48.1513 35.0901C47.8948 35.9936 47.2513 37.4451 45.7574 37.5C45.4709 37.5079 45.1872 37.4414 44.9342 37.3069C44.6811 37.1724 44.4673 36.9745 44.3136 36.7325C44.0115 36.2607 43.6913 35.5063 43.6235 34.3817Z" fill="#FFCAC0"/>
<path d="M45.3175 35.244C45.2006 35.2438 45.0876 35.2018 44.999 35.1256C44.9104 35.0494 44.8519 34.944 44.8341 34.8285C44.5636 33.0621 45.525 32.337 46.0714 32.2005C46.1963 32.17 46.3281 32.1899 46.4385 32.2557C46.5488 32.3216 46.6289 32.4283 46.6613 32.5527C46.6937 32.677 46.6759 32.8092 46.6117 32.9205C46.5476 33.0319 46.4422 33.1136 46.3183 33.1479C46.2376 33.1732 45.608 33.4125 45.8022 34.6803C45.8218 34.8085 45.7896 34.9393 45.7129 35.044C45.6361 35.1486 45.521 35.2185 45.3928 35.2383C45.3678 35.2421 45.3427 35.244 45.3175 35.244Z" fill="#E5837C"/>
<path d="M18.471 13.66C18.3091 13.7635 18.1263 13.8299 17.9356 13.8543C17.745 13.8787 17.5514 13.8606 17.3686 13.8012C16.6303 13.5757 15.8636 13.4566 15.0917 13.4475C14.9256 13.4449 14.7621 13.4066 14.6122 13.3351C14.4622 13.2636 14.3295 13.1607 14.2229 13.0333C14.0172 12.7809 13.7587 12.5767 13.4655 12.435C13.1723 12.2934 12.8517 12.2177 12.5261 12.2134H12.4034C12.0881 12.2137 11.7858 12.3391 11.5629 12.562C11.3399 12.785 11.2145 13.0872 11.2141 13.4025V14.166C11.2141 14.4286 11.1252 14.6835 10.962 14.8892C9.87818 16.2468 6.65611 20.9296 10.6938 24.1928C12.3673 25.545 14.209 26.0903 16.1672 25.8132C16.3606 25.7829 16.5587 25.8059 16.7401 25.8798C16.9215 25.9537 17.0792 26.0756 17.1965 26.2325C17.4137 26.5378 17.6056 26.8603 17.7704 27.1969C17.875 27.4131 17.9357 27.648 17.949 27.8879C17.9623 28.1278 17.9279 28.368 17.8479 28.5945C17.5514 29.45 17.7877 30.2626 18.513 30.8824C18.9711 31.2653 19.5538 31.467 20.1506 31.4491C20.3229 31.4486 20.495 31.4362 20.6656 31.412C21.1635 31.3455 21.6248 31.1141 21.9759 30.7549C22.327 30.3956 22.5477 29.9291 22.6027 29.4298C22.6725 28.9473 22.5763 28.4553 22.3297 28.0346C22.0832 27.6139 21.701 27.2895 21.2458 27.1146C21.223 27.1052 21.1997 27.0963 21.1764 27.0877C20.7671 26.9374 20.427 26.6423 20.2203 26.2583C20.0271 25.8954 19.8729 25.5131 19.7604 25.1176C19.7057 24.9364 19.7007 24.7439 19.7459 24.5601C19.7911 24.3763 19.8848 24.2081 20.0173 24.0729C20.3236 23.7722 20.5823 23.4267 20.7845 23.0481C21.3843 21.9202 21.5955 20.5493 21.4123 18.9716C21.34 18.3009 21.1766 17.6432 20.9265 17.0166C20.8453 16.8135 20.8165 16.5932 20.843 16.376C20.8695 16.1589 20.9503 15.9519 21.078 15.7743C21.5983 15.0461 22.1818 14.3652 22.8217 13.7395C23.0221 13.5473 23.2731 13.4161 23.5453 13.3613C24.7343 13.1137 25.5207 12.5967 25.8822 11.8244C26.3882 10.7444 25.8321 9.59752 25.7635 9.46383C25.417 8.74891 24.2238 7.6154 22.1583 8.39456C20.954 8.84858 20.3936 9.78684 20.6211 10.9685C20.6758 11.2258 20.6615 11.4931 20.5794 11.7431C20.4974 11.9931 20.3507 12.2169 20.1541 12.3918C19.6241 12.8542 19.0616 13.278 18.471 13.66ZM20.7975 13.1292C21.1209 12.8402 21.3632 12.4719 21.5007 12.0606C21.6382 11.6492 21.6659 11.2092 21.5813 10.7838C21.4435 10.0679 21.7366 9.59992 22.5022 9.31107C24.2049 8.66957 24.8175 9.76693 24.8841 9.89766C24.8866 9.90289 24.8893 9.90797 24.892 9.91305C24.8962 9.9211 25.3105 10.7343 24.9941 11.4095C24.7703 11.8874 24.2152 12.2217 23.3443 12.403C22.8906 12.4957 22.4725 12.7155 22.1389 13.0367C21.4573 13.703 20.8356 14.428 20.2813 15.2035C20.0575 15.5161 19.9161 15.8801 19.8702 16.2619C19.8243 16.6436 19.8754 17.0307 20.0187 17.3875C20.2349 17.9314 20.3759 18.5022 20.4379 19.0842C20.5978 20.4601 20.4229 21.6394 19.9182 22.588C19.7626 22.879 19.5635 23.1446 19.3278 23.3755C19.0703 23.6339 18.8869 23.9569 18.797 24.3105C18.7072 24.6641 18.714 25.0354 18.8169 25.3854C18.9484 25.8477 19.1287 26.2947 19.3546 26.7188C19.6738 27.3141 20.1999 27.7718 20.8336 28.0054L20.8782 28.0226C21.132 28.1187 21.3451 28.2991 21.4818 28.5335C21.6185 28.768 21.6705 29.0423 21.629 29.3105C21.6003 29.5956 21.4759 29.8626 21.2761 30.0679C21.0763 30.2733 20.8128 30.405 20.5287 30.4415C19.9436 30.523 19.4792 30.4208 19.1475 30.1374C18.7267 29.7777 18.6073 29.3892 18.7717 28.9144C18.894 28.5647 18.9458 28.1942 18.924 27.8243C18.9022 27.4544 18.8072 27.0926 18.6447 26.7596C18.4559 26.3745 18.2358 26.0056 17.9866 25.6566C17.7959 25.3962 17.5461 25.1848 17.2577 25.0397C16.9694 24.8947 16.6507 24.82 16.328 24.822C16.2275 24.822 16.1272 24.8291 16.0278 24.8432C14.3504 25.0803 12.7623 24.6053 11.3082 23.4306C8.06406 20.8098 10.52 17.0121 11.7265 15.5001C12.0279 15.1208 12.1921 14.6505 12.1923 14.166V13.4025C12.1924 13.3468 12.2146 13.2935 12.254 13.2541C12.2933 13.2147 12.3467 13.1926 12.4024 13.1926H12.5251C12.7077 13.1971 12.8871 13.2416 13.0507 13.3228C13.2142 13.4041 13.358 13.5202 13.472 13.663C13.669 13.8981 13.9144 14.0881 14.1915 14.2198C14.4686 14.3516 14.7708 14.4221 15.0776 14.4266C15.7461 14.4345 16.4103 14.536 17.0506 14.7282L16.6116 15.0586C16.4791 15.1581 16.3181 15.2119 16.1525 15.2122H15.7148C15.585 15.2122 15.4605 15.2638 15.3686 15.3556C15.2768 15.4475 15.2252 15.572 15.2252 15.7018C15.2252 15.8317 15.2768 15.9562 15.3686 16.048C15.4605 16.1399 15.585 16.1914 15.7148 16.1914H16.1525C16.5305 16.1906 16.8981 16.0677 17.2006 15.841L19.023 14.4691C19.6454 14.0651 20.2383 13.6175 20.7975 13.1298V13.1292Z" fill="#3C3C4F"/>
<path d="M12.4583 48.644C12.5798 49.0012 12.8186 49.3068 13.1359 49.5109C13.4533 49.715 13.8304 49.8056 14.2058 49.768C14.2788 49.7629 14.3517 49.7784 14.4163 49.8127C14.4809 49.8471 14.5345 49.8989 14.571 49.9623C15.0575 50.7737 16.2087 52.0688 18.6032 52.0686C18.7813 52.0686 18.9665 52.0612 19.1586 52.0465C20.6893 51.9262 21.9157 51.3013 22.8042 50.1889C22.9031 50.0633 23.0342 49.9669 23.1835 49.9097C23.3327 49.8525 23.4947 49.8368 23.6522 49.8641C23.9869 49.9264 24.3154 50.0185 24.6337 50.1394C24.7255 50.1734 24.8075 50.2293 24.8726 50.3024C24.9376 50.3755 24.9837 50.4635 25.0068 50.5586C25.2214 51.4431 26.1142 52.0559 27.1829 52.0559H27.2111L27.3033 52.0549C27.7708 52.0549 28.2243 51.8955 28.5891 51.6032C28.954 51.3109 29.2083 50.903 29.3103 50.4468C29.4056 49.9795 29.3779 49.2589 28.7032 48.4795C28.1843 47.8796 27.417 47.7232 26.5425 48.0397C26.459 48.0693 26.3698 48.0795 26.2817 48.0695C26.1936 48.0595 26.109 48.0295 26.0343 47.9818C25.4357 47.6217 24.8877 47.1835 24.4048 46.6786C24.2545 46.5167 24.1688 46.3053 24.164 46.0844C24.148 44.9368 23.7852 41.1449 19.7786 40.5284C17.8614 40.2336 16.2143 40.6292 15.0135 41.6719C13.769 42.7527 13.0685 44.4624 13.0915 46.363C13.0916 46.4474 13.0626 46.5293 13.0093 46.5948L12.7089 46.9743C12.5353 47.1927 12.4185 47.4508 12.3693 47.7254C12.32 48.0001 12.3397 48.2827 12.4266 48.5478L12.4583 48.644ZM13.4768 47.5832L13.7775 47.2037C13.9701 46.9616 14.0738 46.6608 14.0713 46.3515C14.0521 44.7633 14.6444 43.2905 15.656 42.4127C16.647 41.5522 17.9837 41.244 19.6302 41.4975C22.3267 41.9121 23.0185 44.0104 23.1561 45.5385L22.862 45.2703C22.8147 45.2262 22.759 45.192 22.6983 45.1696C22.6376 45.1472 22.5731 45.137 22.5084 45.1397C22.4438 45.1424 22.3803 45.1578 22.3217 45.1852C22.2631 45.2125 22.2104 45.2512 22.1668 45.2991C22.1233 45.3469 22.0896 45.4029 22.0678 45.4638C22.046 45.5247 22.0364 45.5893 22.0397 45.6539C22.0431 45.7185 22.0591 45.7819 22.0871 45.8402C22.115 45.8986 22.1542 45.9508 22.2025 45.9939L23.7026 47.3608C24.2403 47.9237 24.8508 48.4124 25.5177 48.8139C25.7179 48.9402 25.9443 49.0191 26.1796 49.0446C26.4149 49.0701 26.6529 49.0416 26.8755 48.9612C27.5984 48.6999 27.8723 49.0165 27.9626 49.1207C28.2993 49.5101 28.4261 49.8801 28.3501 50.2518C28.2938 50.4889 28.1584 50.6997 27.9663 50.8496C27.7742 50.9995 27.5368 51.0796 27.2931 51.0766L27.201 51.0776H27.1836C26.5779 51.0776 26.0641 50.7643 25.9585 50.3293C25.8978 50.0783 25.7763 49.8461 25.6047 49.6531C25.4331 49.4602 25.2167 49.3124 24.9745 49.2228C24.6008 49.0815 24.2153 48.9738 23.8225 48.9012C23.4917 48.8434 23.1515 48.8758 22.8376 48.9951C22.5237 49.1143 22.2478 49.316 22.0388 49.5788C21.3265 50.4709 20.3317 50.9731 19.082 51.0712C16.8356 51.2478 15.8169 50.1375 15.4107 49.4597C15.2903 49.2556 15.1189 49.0864 14.9132 48.9687C14.7076 48.851 14.4748 48.7889 14.2379 48.7885C14.2011 48.7885 14.1641 48.79 14.1269 48.7929C13.9708 48.8133 13.8124 48.7796 13.6782 48.6974C13.544 48.6152 13.442 48.4894 13.3892 48.3411L13.358 48.2458C13.3213 48.1342 13.313 48.0152 13.3337 47.8995C13.3544 47.7838 13.4036 47.6751 13.4768 47.5832Z" fill="#3C3C4F"/>
<path d="M24.2049 36.0988C23.4221 35.4576 22.5624 35.33 21.7839 35.7391C21.4317 35.9232 21.1372 36.2011 20.9332 36.5422C20.7292 36.8832 20.6235 37.2741 20.6278 37.6715C20.6405 38.2488 20.8833 39.2809 22.3643 39.7116C22.6075 39.7852 22.86 39.8238 23.1141 39.8264C23.3892 39.8306 23.6618 39.7723 23.9112 39.656C24.1606 39.5397 24.3804 39.3684 24.5541 39.155C24.7302 38.9451 24.8627 38.702 24.9436 38.4402C25.0245 38.1784 25.0522 37.903 25.0252 37.6303C24.9959 37.3336 24.9084 37.0456 24.7677 36.7828C24.6269 36.52 24.4357 36.2876 24.2049 36.0988ZM23.804 38.5249C23.6346 38.7269 23.3287 38.972 22.6375 38.7713C21.9563 38.5736 21.6192 38.2066 21.6069 37.6498C21.6057 37.4342 21.6641 37.2225 21.7758 37.0382C21.8874 36.8538 22.0479 36.7039 22.2395 36.6051C22.3811 36.5247 22.5409 36.4819 22.7037 36.4807C22.9314 36.4807 23.2284 36.564 23.5845 36.8555C23.7151 36.9619 23.8235 37.0929 23.9035 37.2412C23.9834 37.3895 24.0333 37.5521 24.0504 37.7197C24.065 37.8634 24.0508 38.0086 24.0085 38.1468C23.9662 38.285 23.8966 38.4133 23.804 38.5242V38.5249Z" fill="#3C3C4F"/>
<path d="M8.16361 51.8584C8.4441 51.9968 8.75268 52.0688 9.06545 52.0688C9.30102 52.0684 9.53486 52.0284 9.75721 51.9506C10.0381 51.8512 10.2966 51.6974 10.518 51.4979C10.7394 51.2985 10.9192 51.0573 11.0473 50.7883C11.4824 49.8749 11.4002 49.0095 10.817 48.3515C10.554 48.0535 10.2137 47.8341 9.8337 47.7176C9.45371 47.6011 9.0489 47.5921 8.66408 47.6915C8.10686 47.8421 7.16253 48.3248 7.099 49.8656C7.05001 51.0558 7.65086 51.6063 8.16361 51.8584ZM8.0775 49.9064C8.10672 49.1975 8.38215 48.7825 8.91975 48.6372C9.01214 48.6123 9.10741 48.5997 9.2031 48.5998C9.37002 48.601 9.5348 48.6374 9.6867 48.7067C9.83859 48.7759 9.97418 48.8764 10.0846 49.0016C10.2021 49.1339 10.5592 49.5366 10.1634 50.3675C10.0914 50.5197 9.9901 50.6562 9.86526 50.7692C9.74043 50.8823 9.59452 50.9695 9.4359 51.026C9.29988 51.0749 9.15546 51.096 9.01117 51.0881C8.86687 51.0801 8.72562 51.0434 8.59575 50.98C8.359 50.8633 8.04785 50.6254 8.0775 49.9064Z" fill="#3C3C4F"/>
<path d="M8.43805 31.5705L8.44087 31.5846C8.58925 32.2623 9.26153 33.5639 10.7432 33.6475C10.8138 33.6514 10.8836 33.6534 10.9514 33.6534C12.0822 33.6534 12.726 33.1102 13.0713 32.6392C13.385 32.2043 13.5613 31.6855 13.5774 31.1495C13.5935 30.6136 13.4487 30.0851 13.1617 29.6321C13.1365 29.5945 13.1205 29.5515 13.1151 29.5066C13.1097 29.4616 13.1149 29.416 13.1305 29.3735L13.1454 29.3368C13.246 29.0866 13.2536 28.8086 13.167 28.5532C13.0805 28.2978 12.9053 28.0818 12.6733 27.9442L12.5147 27.8512C12.3044 27.729 12.0602 27.6779 11.8186 27.7056C11.5769 27.7333 11.3507 27.8382 11.1735 28.0048L10.817 28.3428C10.7802 28.3784 10.7337 28.4022 10.6833 28.4113C10.2033 28.493 9.31744 28.7446 8.7845 29.5105C8.40078 30.0615 8.28417 30.7546 8.43805 31.5705ZM9.58779 30.0706C9.92887 29.5805 10.5822 29.4225 10.8471 29.3775C11.0889 29.336 11.3128 29.2235 11.4903 29.0542L11.8466 28.7163C11.8694 28.695 11.8985 28.6815 11.9296 28.6779C11.9607 28.6744 11.9921 28.6809 12.0191 28.6966L12.178 28.7897C12.2077 28.8074 12.2301 28.8351 12.2412 28.8679C12.2523 28.9006 12.2514 28.9362 12.2385 28.9683L12.2236 29.0053C12.1505 29.1904 12.1219 29.3901 12.1401 29.5882C12.1582 29.7864 12.2226 29.9776 12.328 30.1463C12.5123 30.4336 12.6064 30.7696 12.5981 31.1108C12.5898 31.4521 12.4796 31.783 12.2816 32.0611C11.9532 32.5092 11.4667 32.7085 10.7984 32.6706C9.72374 32.61 9.42445 31.4866 9.39833 31.3798C9.29781 30.8355 9.36148 30.3953 9.58779 30.0706Z" fill="#3C3C4F"/>
<path d="M49.6147 32.8925C49.5726 32.9418 49.5407 32.9991 49.5209 33.0609C49.5011 33.1227 49.4938 33.1878 49.4994 33.2524C49.505 33.3171 49.5234 33.38 49.5535 33.4375C49.5837 33.4949 49.6249 33.5459 49.6749 33.5872C49.7249 33.6286 49.7826 33.6597 49.8446 33.6786C49.9067 33.6975 49.9719 33.7038 50.0365 33.6973C50.1011 33.6908 50.1637 33.6715 50.2207 33.6405C50.2777 33.6096 50.3281 33.5676 50.3687 33.517C50.4948 33.3648 50.6188 33.2021 50.7373 33.0331C53.3915 29.2488 53.128 26.2063 52.4399 24.3204C52.0053 23.1299 51.2975 22.058 50.3732 21.1909C49.586 18.6766 48.3692 16.7515 46.7556 15.4675C44.5446 13.7083 41.6552 13.2137 38.1663 13.9976C29.0843 16.0383 26.7982 22.244 26.2438 25.7615C26.1918 26.0872 26.232 26.4209 26.36 26.7248C26.488 27.0287 26.6986 27.2907 26.9679 27.481C27.2372 27.6714 27.5545 27.7824 27.8837 27.8016C28.2129 27.8208 28.541 27.7474 28.8306 27.5896C29.1781 27.4018 29.5142 27.1936 29.8371 26.966C29.9107 27.2407 30.0567 27.4907 30.2598 27.6897C30.4949 27.9261 30.7995 28.0812 31.129 28.1323C31.4585 28.1833 31.7957 28.1277 32.0913 27.9735C34.7427 26.6303 38.0714 25.5082 39.821 24.9585C39.7473 25.1585 39.6891 25.3638 39.6471 25.5728C39.6019 25.799 39.6143 26.0329 39.6832 26.253C39.7521 26.4732 39.8752 26.6725 40.0413 26.8326C40.2073 26.9927 40.411 27.1085 40.6335 27.1694C40.856 27.2302 41.0902 27.2341 41.3147 27.1807C41.5689 27.1161 41.8168 27.0286 42.0553 26.9193C41.7567 28.0224 41.4848 29.7106 41.9052 31.4467C41.9199 31.5096 41.9469 31.5691 41.9846 31.6216C42.0224 31.674 42.0702 31.7185 42.1252 31.7524C42.1802 31.7863 42.2415 31.809 42.3053 31.8191C42.3692 31.8293 42.4344 31.8267 42.4972 31.8114C42.5601 31.7962 42.6193 31.7687 42.6714 31.7305C42.7236 31.6923 42.7676 31.6441 42.8011 31.5888C42.8345 31.5335 42.8566 31.4721 42.8662 31.4081C42.8758 31.3442 42.8726 31.279 42.8569 31.2163C42.2341 28.6447 43.3716 26.0806 43.3829 26.0556C43.427 25.9583 43.4381 25.8493 43.4145 25.7452C43.391 25.6411 43.334 25.5475 43.2523 25.4787C43.1706 25.41 43.0687 25.3698 42.962 25.3644C42.8554 25.3589 42.7499 25.3885 42.6616 25.4485C42.1835 25.7981 41.6486 26.0625 41.0804 26.2301C41.0172 26.2453 40.9511 26.2441 40.8885 26.2266C40.8258 26.2092 40.7687 26.176 40.7224 26.1303C40.6738 26.0847 40.6376 26.0276 40.6172 25.9642C40.5968 25.9007 40.593 25.8332 40.6059 25.7679C40.6891 25.2912 40.9021 24.8466 41.2215 24.4832C41.302 24.4084 41.3551 24.3088 41.3721 24.2002C41.3891 24.0917 41.3691 23.9806 41.3153 23.8848C41.2615 23.789 41.1771 23.714 41.0756 23.6721C40.974 23.6301 40.8613 23.6235 40.7556 23.6533C40.7034 23.6674 35.4938 25.1529 31.6484 27.1008C31.536 27.1617 31.4068 27.1842 31.2805 27.165C31.1541 27.1457 31.0375 27.0859 30.9482 26.9944C30.8549 26.9052 30.7932 26.7881 30.7725 26.6607C30.7517 26.5334 30.773 26.4027 30.8331 26.2885C30.899 26.1538 30.9735 26.0235 31.0562 25.8984C31.1254 25.7947 31.1525 25.6684 31.1318 25.5454C31.1111 25.4224 31.0442 25.312 30.9448 25.2366C30.8455 25.1612 30.7211 25.1266 30.597 25.1399C30.473 25.1531 30.3587 25.2131 30.2775 25.3078C30.2713 25.315 29.6364 26.0409 28.364 26.7298C28.2349 26.8007 28.0886 26.8339 27.9416 26.8256C27.7947 26.8173 27.653 26.7679 27.5328 26.683C27.4125 26.598 27.3186 26.481 27.2616 26.3453C27.2047 26.2095 27.187 26.0605 27.2107 25.9152C27.7264 22.6431 29.8633 16.868 38.3807 14.9542C45.3972 13.3779 48.2881 17.7047 49.4772 21.6123C49.5057 21.7053 49.5611 21.7877 49.6363 21.8492C49.8373 22.0138 54.5053 25.9553 49.9349 32.4726C49.8321 32.6184 49.7241 32.7603 49.6147 32.8925Z" fill="#3C3C4F"/>
<path d="M48.6211 35.2216C48.7655 34.7161 48.8193 34.1891 48.7801 33.6649C48.6224 31.5555 47.5942 30.3916 45.9625 30.4687C45.6037 30.4752 45.2501 30.5553 44.9235 30.7039C44.5968 30.8525 44.3042 31.0665 44.0635 31.3327C43.7774 31.6608 43.5587 32.0421 43.42 32.4548C43.0295 32.9938 42.4355 33.4323 41.6508 33.758C39.9326 34.26 38.2287 33.9769 37.3633 33.7623C37.0637 33.6876 36.7784 33.5642 36.5188 33.3971C35.1417 32.5139 33.8301 31.8785 31.7219 33.0559C30.9445 33.5037 30.0734 33.764 29.1777 33.8161C29.287 32.475 29.3519 30.8287 29.3711 28.9121C29.3723 28.7823 29.322 28.6574 29.2311 28.5647C29.1402 28.4721 29.0163 28.4193 28.8865 28.418H28.8814C28.7524 28.418 28.6287 28.4689 28.537 28.5597C28.4454 28.6504 28.3932 28.7737 28.3919 28.9026C28.3722 30.8946 28.3026 32.5873 28.185 33.9398C27.9926 34.0306 27.8253 34.1671 27.6977 34.3372C27.57 34.5074 27.4859 34.7062 27.4526 34.9163C27.1911 36.6491 27.1788 38.4103 27.416 40.1465C27.5802 41.4116 28.1646 42.5849 29.0752 43.4783C30.0861 44.4551 31.9646 45.6195 35.1741 45.6195C35.82 45.6215 36.4651 45.5743 37.1038 45.4783C37.1272 46.5829 37.1248 48.1835 37.0102 50.0328C37.0023 50.1609 37.045 50.287 37.1291 50.384C37.2132 50.4809 37.332 50.541 37.46 50.5512C37.4809 50.5528 37.6449 50.5653 37.9187 50.5653C39.0321 50.559 40.139 50.3938 41.2058 50.0749C43.8947 49.2675 45.9255 47.5378 47.0788 45.0729C47.3216 44.5455 47.4337 43.9673 47.4055 43.3873C47.3531 42.2098 47.2833 39.8721 47.3966 37.345C47.9367 36.8742 48.3556 36.1588 48.6211 35.2216ZM29.7563 42.7734C29.1446 42.1745 28.7099 41.4186 28.4998 40.5888C29.5535 41.089 30.6655 41.4558 31.81 41.6808C31.8734 41.6942 31.939 41.6949 32.0027 41.6828C32.0664 41.6707 32.1271 41.646 32.1813 41.6102C32.2354 41.5744 32.2819 41.5283 32.318 41.4744C32.3541 41.4205 32.3792 41.3599 32.3917 41.2963C32.4042 41.2326 32.4039 41.1671 32.3909 41.1035C32.3779 41.0399 32.3524 40.9796 32.3158 40.926C32.2793 40.8724 32.2324 40.8266 32.178 40.7912C32.1236 40.7559 32.0627 40.7317 31.9989 40.7201C30.7079 40.4724 29.4643 40.0221 28.3142 39.3857C28.2519 38.7557 28.2227 38.1228 28.2265 37.4897C29.1095 37.8144 31.0619 38.391 33.7701 38.391C35.3198 38.3874 36.864 38.2062 38.3724 37.851C38.4357 37.837 38.4956 37.8107 38.5486 37.7734C38.6016 37.7362 38.6467 37.6888 38.6813 37.634C38.7158 37.5792 38.7392 37.5181 38.7499 37.4542C38.7607 37.3903 38.7587 37.3249 38.744 37.2618C38.7293 37.1987 38.7023 37.1392 38.6644 37.0866C38.6265 37.034 38.5786 36.9895 38.5234 36.9556C38.4682 36.9217 38.4068 36.8991 38.3428 36.8891C38.2788 36.8791 38.2134 36.8819 38.1505 36.8973C32.8482 38.1312 29.0289 36.7629 28.266 36.4528C28.2964 36.0051 28.3459 35.5422 28.4213 35.0692C28.4317 34.9921 28.4703 34.9216 28.5296 34.8713C28.589 34.8211 28.6649 34.7946 28.7426 34.797C29.9552 34.8254 31.1521 34.5185 32.2014 33.9102C33.8501 32.9897 34.7335 33.4134 35.9926 34.2208C36.3423 34.4456 36.7265 34.6116 37.1299 34.712C38.3476 35.0177 39.6121 35.0911 40.857 34.9285C40.3262 35.9912 39.6482 37.7454 39.9567 39.3202C38.8163 40.0361 37.5507 40.5298 36.2268 40.7753C36.1067 40.7973 35.9992 40.8635 35.9253 40.9607C35.8514 41.0579 35.8165 41.1792 35.8274 41.3008C35.8384 41.4224 35.8943 41.5356 35.9843 41.6181C36.0744 41.7006 36.192 41.7464 36.3141 41.7467C36.3437 41.7467 36.3732 41.744 36.4023 41.7387C37.7743 41.4851 39.0894 40.9865 40.2847 40.2666C40.5937 40.8496 41.0624 41.3324 41.6359 41.6586C41.1625 42.5366 39.5699 44.6389 35.1763 44.6389C32.8931 44.6397 31.0195 43.9943 29.7563 42.7734ZM46.4275 43.4294C46.4487 43.8513 46.368 44.2721 46.192 44.6561C44.0806 49.1691 39.5144 49.5785 38.0167 49.5867C38.1095 47.822 38.1045 46.3114 38.0791 45.2808C41.4045 44.4356 42.4719 42.2547 42.6899 41.711C43.4081 40.9992 44.0758 40.2381 44.6881 39.4333C44.7661 39.3295 44.7997 39.1989 44.7815 39.0703C44.7633 38.9418 44.6947 38.8257 44.5909 38.7476C44.5395 38.709 44.481 38.6809 44.4187 38.6649C44.3564 38.6488 44.2916 38.6452 44.2279 38.6543C44.0994 38.6725 43.9833 38.741 43.9053 38.8448C43.372 39.5466 42.7939 40.2132 42.1746 40.8404C41.8843 40.6875 41.6279 40.4775 41.4208 40.2231C41.2137 39.9687 41.0601 39.675 40.9694 39.3597C40.4527 37.5573 41.8164 35.1569 42.1504 34.6066C42.4943 34.4577 42.8232 34.2766 43.1329 34.0656C43.1268 34.262 43.1329 34.3888 43.1343 34.4082C43.1456 34.5963 43.1639 34.7816 43.1889 34.9588C43.1972 35.0231 43.2181 35.0851 43.2504 35.1413C43.2828 35.1974 43.326 35.2466 43.3775 35.2859C43.429 35.3252 43.4878 35.3539 43.5505 35.3704C43.6132 35.3868 43.6785 35.3906 43.7427 35.3816C43.8069 35.3726 43.8686 35.3509 43.9244 35.3178C43.9801 35.2848 44.0287 35.241 44.0674 35.189C44.1061 35.137 44.1341 35.0778 44.1497 35.0149C44.1653 34.952 44.1684 34.8866 44.1585 34.8226C44.1372 34.6707 44.1215 34.512 44.1119 34.3515C44.1119 34.3362 44.0394 32.8191 44.7937 31.9844C44.9482 31.8156 45.136 31.6807 45.3452 31.588C45.5544 31.4954 45.7805 31.447 46.0094 31.4459C47.3473 31.3803 47.723 32.6567 47.8039 33.7374C47.8343 34.1469 47.7921 34.5585 47.6792 34.9533C47.4197 35.8673 46.8722 36.9658 45.7383 37.0074C45.5728 37.0131 45.4082 36.982 45.2562 36.9164C45.1371 36.8666 45.0031 36.8658 44.8834 36.9143C44.7638 36.9627 44.6681 37.0565 44.6172 37.1752C44.5664 37.2939 44.5645 37.4278 44.6119 37.5479C44.6593 37.668 44.7523 37.7645 44.8705 37.8164C45.1313 37.9291 45.4125 37.9874 45.6967 37.9875C45.7225 37.9875 45.7485 37.9875 45.7743 37.9861C45.9845 37.9781 46.193 37.9451 46.3955 37.888C46.3146 40.2223 46.3784 42.3274 46.4275 43.4294Z" fill="#3C3C4F"/>
<path d="M34.0306 40.9455C33.9441 40.9433 33.8581 40.9403 33.7728 40.9364C33.708 40.9325 33.6431 40.9416 33.5819 40.963C33.5207 40.9844 33.4643 41.0177 33.4161 41.0611C33.3679 41.1045 33.3287 41.157 33.301 41.2156C33.2732 41.2743 33.2574 41.3378 33.2544 41.4026C33.2514 41.4674 33.2614 41.5322 33.2836 41.5931C33.3059 41.654 33.34 41.7099 33.384 41.7575C33.4281 41.8052 33.4811 41.8436 33.5401 41.8705C33.5991 41.8974 33.6629 41.9124 33.7277 41.9145C33.8203 41.9188 33.9136 41.9221 34.0075 41.9244H34.0194C34.1482 41.9242 34.2717 41.8733 34.3632 41.7827C34.4548 41.6921 34.5069 41.5691 34.5084 41.4403C34.5098 41.3116 34.4605 41.1874 34.3711 41.0948C34.2816 41.0021 34.1593 40.9484 34.0306 40.9453V40.9455Z" fill="#3C3C4F"/>
</svg>
