<svg width="60" height="60" viewBox="0 0 60 60" fill="none" xmlns="http://www.w3.org/2000/svg">
<rect width="60" height="60" rx="5" fill="#E5E5E5"/>
<path d="M41.8953 34.6566C41.8903 35.2454 41.8708 35.9165 41.8257 36.6433C41.8257 36.6433 46.128 36.9849 47.9062 33.1838C48.046 32.8807 48.1102 32.5482 48.0934 32.2148C48.0732 31.7638 48.0477 31.0193 48.0464 30.1289C45.7479 31.3939 43.6433 32.8498 41.8953 34.6566Z" fill="#FFCAC0"/>
<path d="M48.0467 30.1295C48.0458 29.3609 48.063 28.4839 48.1176 27.5938H45.9002L41.8262 32.1928C41.8262 32.1928 41.9084 33.159 41.8958 34.6572C42.7714 34.5106 46.0901 33.7296 48.0467 30.1295Z" fill="#E5837C"/>
<path d="M36.093 22.3222C36.0845 23.5954 36.0418 25.1893 35.9041 26.4308C38.5247 29.2352 41.3718 31.3171 45.0004 30.9053C45.709 30.2062 47.0763 28.7161 47.4744 27.2786L46.2628 24.7712L45.3829 19.2854C45.3829 19.2854 39.2276 19.1318 36.093 22.3222Z" fill="#FFCAC0"/>
<path d="M36.0769 20.1375C36.0769 20.1375 36.1012 21.0764 36.0929 22.3225L36.5744 22.0848C36.5744 22.0848 36.6857 23.2566 38.355 22.7439C40.0242 22.2311 41.2094 21.3726 42.6119 21.1341C42.6119 21.1341 42.8221 23.2011 45.62 21.8495C45.9041 21.7123 46.1869 21.5691 46.4661 21.4227L46.6565 18.2899C46.6565 18.2899 40.2177 17.5024 36.0769 20.1375Z" fill="#E5837C"/>
<path d="M50.3693 25.1229C53.6324 20.47 50.1098 17.613 50.1098 17.613C49.303 14.9634 47.3022 11.8441 42.3412 12.9588C36.4442 14.2836 35.0013 18.3352 34.6568 20.5208C34.6316 20.6776 34.6508 20.8382 34.7123 20.9845C34.7739 21.1309 34.8752 21.257 35.0048 21.3486C35.1345 21.4402 35.2872 21.4936 35.4457 21.5027C35.6042 21.5119 35.762 21.4764 35.9013 21.4003C36.8208 20.9023 37.2669 20.3795 37.2669 20.3795C37.204 20.4746 37.1473 20.5737 37.0972 20.6761C37.0284 20.8133 37.0046 20.9687 37.0293 21.1202C37.054 21.2717 37.126 21.4115 37.2349 21.5197C37.3438 21.6278 37.4841 21.6988 37.6357 21.7225C37.7874 21.7462 37.9426 21.7214 38.0793 21.6516C40.6401 20.355 44.0819 19.38 44.0819 19.38C44.0819 19.38 43.7143 19.7212 43.5745 20.4094C43.5554 20.5061 43.5608 20.6061 43.5903 20.7002C43.6198 20.7943 43.6724 20.8795 43.7433 20.948C43.8142 21.0165 43.9012 21.0662 43.9962 21.0924C44.0913 21.1186 44.1914 21.1206 44.2874 21.0982C44.5755 21.0274 44.9555 20.8642 45.4448 20.531C45.4448 20.531 43.779 24.196 46.505 26.4373C46.505 26.4375 48.7337 27.4553 50.3693 25.1229Z" fill="#5C5C6D"/>
<path d="M35.4617 26.6147C35.4816 26.485 35.5483 26.3671 35.6491 26.2832C35.7499 26.1992 35.878 26.1551 36.0091 26.159C36.7563 26.1749 37.4935 25.985 38.14 25.61C39.4308 24.8893 40.1811 25.3032 40.9978 25.827C41.2006 25.9574 41.4234 26.0537 41.6574 26.112C42.2606 26.2616 43.4718 26.4644 44.698 26.1008C44.698 26.1008 42.3389 29.6806 45.0002 30.9052C45.0002 30.9052 44.2024 33.3607 40.2785 33.3607C38.3165 33.3607 37.1362 32.6936 36.4461 32.0272C35.892 31.4843 35.537 30.7705 35.4384 30.001C35.2856 28.8768 35.2934 27.7366 35.4617 26.6147Z" fill="#BDF2DC"/>
<path d="M38.14 24.3698C38.3683 24.3698 38.5534 24.1847 38.5534 23.9564C38.5534 23.7281 38.3683 23.543 38.14 23.543C37.9117 23.543 37.7266 23.7281 37.7266 23.9564C37.7266 24.1847 37.9117 24.3698 38.14 24.3698Z" fill="#E5837C"/>
<path d="M40.9092 24.3698C41.1376 24.3698 41.3226 24.1847 41.3226 23.9564C41.3226 23.7281 41.1376 23.543 40.9092 23.543C40.6809 23.543 40.4958 23.7281 40.4958 23.9564C40.4958 24.1847 40.6809 24.3698 40.9092 24.3698Z" fill="#E5837C"/>
<path d="M45.9015 26.2069C45.9015 26.2069 45.7759 24.0111 47.4741 23.9298C48.6955 23.8713 48.9579 25.0754 49.0089 25.7558C49.032 26.0665 49.0002 26.3788 48.9149 26.6784C48.7442 27.2797 48.3159 28.2457 47.3217 28.2823C47.131 28.2875 46.9422 28.2433 46.7738 28.1537C46.6054 28.0642 46.463 27.9325 46.3608 27.7715C46.1597 27.4575 45.9466 26.9554 45.9015 26.2069Z" fill="#FFCAC0"/>
<path d="M47.0288 26.7809C46.951 26.7808 46.8758 26.7529 46.8168 26.7021C46.7578 26.6514 46.7189 26.5813 46.7071 26.5044C46.527 25.3288 47.1669 24.8462 47.5305 24.7554C47.6136 24.7351 47.7013 24.7483 47.7748 24.7922C47.8482 24.836 47.9015 24.907 47.9231 24.9898C47.9447 25.0725 47.9328 25.1605 47.8901 25.2346C47.8474 25.3087 47.7773 25.3631 47.6948 25.3859C47.6411 25.4028 47.2221 25.562 47.3513 26.4058C47.3644 26.4911 47.343 26.5782 47.2919 26.6478C47.2408 26.7174 47.1642 26.764 47.0789 26.7772C47.0623 26.7797 47.0455 26.7809 47.0288 26.7809Z" fill="#E5837C"/>
<path d="M49.8888 25.2157C49.8608 25.2485 49.8396 25.2866 49.8264 25.3278C49.8132 25.3689 49.8084 25.4122 49.8121 25.4552C49.8158 25.4983 49.828 25.5401 49.8481 25.5784C49.8681 25.6166 49.8956 25.6505 49.9289 25.6781C49.9621 25.7056 50.0005 25.7263 50.0418 25.7389C50.0831 25.7514 50.1265 25.7557 50.1695 25.7513C50.2125 25.747 50.2542 25.7341 50.2921 25.7135C50.3301 25.6929 50.3636 25.665 50.3906 25.6313C50.4745 25.5301 50.557 25.4217 50.6359 25.3093C52.4023 22.7907 52.227 20.7659 51.7691 19.5107C51.4798 18.7184 51.0087 18.005 50.3936 17.4279C49.8697 15.7546 49.0599 14.4734 47.986 13.6188C46.5145 12.448 44.5915 12.1189 42.2695 12.6405C36.2252 13.9987 34.7037 18.1288 34.3348 20.4698C34.3002 20.6865 34.3269 20.9086 34.4121 21.1109C34.4973 21.3132 34.6375 21.4875 34.8167 21.6142C34.9959 21.7409 35.2071 21.8148 35.4262 21.8276C35.6453 21.8403 35.8636 21.7914 36.0563 21.6865C36.2877 21.5615 36.5114 21.4229 36.7263 21.2714C36.7752 21.4543 36.8724 21.6206 37.0076 21.7531C37.164 21.9104 37.3667 22.0136 37.586 22.0476C37.8053 22.0816 38.0297 22.0446 38.2265 21.9419C39.9911 21.048 42.2064 20.3012 43.3708 19.9354C43.3218 20.0685 43.2831 20.2051 43.2551 20.3442C43.225 20.4947 43.2333 20.6504 43.2791 20.7969C43.325 20.9435 43.4069 21.0761 43.5174 21.1827C43.6279 21.2892 43.7635 21.3663 43.9115 21.4068C44.0596 21.4473 44.2155 21.4499 44.3649 21.4144C44.5341 21.3713 44.699 21.3131 44.8578 21.2403C44.6591 21.9745 44.4781 23.0981 44.7579 24.2535C44.7677 24.2954 44.7856 24.3349 44.8108 24.3698C44.8359 24.4048 44.8677 24.4344 44.9043 24.4569C44.941 24.4795 44.9817 24.4946 45.0242 24.5013C45.0667 24.5081 45.1101 24.5063 45.1519 24.4962C45.1937 24.4861 45.2331 24.4678 45.2678 24.4424C45.3025 24.4169 45.3319 24.3849 45.3541 24.348C45.3764 24.3112 45.3911 24.2703 45.3975 24.2278C45.4039 24.1852 45.4017 24.1418 45.3913 24.1001C44.9768 22.3887 45.7338 20.6821 45.7413 20.6655C45.7707 20.6008 45.7781 20.5283 45.7624 20.459C45.7467 20.3896 45.7088 20.3274 45.6544 20.2816C45.6001 20.2358 45.5322 20.2091 45.4613 20.2055C45.3903 20.2019 45.3201 20.2215 45.2613 20.2615C44.9431 20.4942 44.5871 20.6701 44.209 20.7816C44.1669 20.7918 44.1229 20.791 44.0812 20.7793C44.0395 20.7677 44.0015 20.7457 43.9707 20.7152C43.9384 20.6849 43.9143 20.6469 43.9007 20.6047C43.8871 20.5625 43.8846 20.5175 43.8932 20.474C43.9485 20.1568 44.0903 19.8609 44.3029 19.619C44.3565 19.5693 44.3918 19.503 44.4031 19.4307C44.4144 19.3585 44.4011 19.2845 44.3653 19.2208C44.3295 19.157 44.2733 19.1072 44.2058 19.0792C44.1382 19.0513 44.0632 19.0469 43.9928 19.0667C43.958 19.0761 40.4909 20.0648 37.9317 21.3612C37.8569 21.4016 37.7709 21.4166 37.6868 21.4038C37.6028 21.3911 37.5251 21.3512 37.4657 21.2903C37.4036 21.231 37.3626 21.153 37.3488 21.0683C37.3349 20.9835 37.3491 20.8965 37.3891 20.8205C37.4329 20.7309 37.4825 20.6442 37.5376 20.5609C37.5837 20.4919 37.6016 20.4079 37.5879 20.326C37.5741 20.2442 37.5296 20.1706 37.4635 20.1205C37.3973 20.0703 37.3145 20.0473 37.232 20.0561C37.1495 20.0649 37.0734 20.1048 37.0193 20.1678C37.0152 20.1726 36.5927 20.6557 35.7458 21.1143C35.66 21.1614 35.5626 21.1835 35.4648 21.178C35.3669 21.1725 35.2726 21.1396 35.1926 21.0831C35.1126 21.0265 35.0501 20.9487 35.0122 20.8583C34.9743 20.768 34.9625 20.6688 34.9783 20.5721C35.3215 18.3944 36.7436 14.5509 42.4123 13.2772C47.0819 12.2282 49.0059 15.1078 49.7973 17.7084C49.8163 17.7702 49.8531 17.8251 49.9032 17.8661C50.037 17.9756 53.1437 20.5988 50.1019 24.9362C50.0335 25.0333 49.9616 25.1277 49.8888 25.2157Z" fill="#3C3C4F"/>
<path d="M49.2274 26.7663C49.3235 26.4299 49.3593 26.0792 49.3332 25.7303C49.2283 24.3264 48.544 23.5518 47.458 23.6031C47.2192 23.6074 46.9839 23.6607 46.7665 23.7596C46.5491 23.8585 46.3543 24.001 46.1942 24.1781C46.0038 24.3965 45.8583 24.6503 45.7659 24.9249C45.5061 25.2836 45.1107 25.5755 44.5885 25.7922C43.4449 26.1263 42.311 25.9379 41.735 25.7951C41.5356 25.7454 41.3457 25.6633 41.1729 25.5521C40.2565 24.9643 39.3835 24.5414 37.9805 25.325C37.4631 25.623 36.8833 25.7962 36.2873 25.8309C36.36 24.9383 36.4032 23.8427 36.416 22.5671C36.4168 22.4808 36.3833 22.3976 36.3228 22.3359C36.2623 22.2743 36.1798 22.2391 36.0934 22.2383H36.0901C36.0042 22.2383 35.9219 22.2722 35.8609 22.3326C35.7999 22.393 35.7652 22.475 35.7643 22.5608C35.7512 23.8866 35.7048 25.0131 35.6266 25.9132C35.4985 25.9737 35.3872 26.0645 35.3023 26.1777C35.2173 26.291 35.1613 26.4233 35.1391 26.5631C34.9651 27.7163 34.9569 28.8885 35.1148 30.044C35.2241 30.8859 35.613 31.6668 36.2191 32.2614C36.8918 32.9114 38.142 33.6864 40.278 33.6864C40.7079 33.6878 41.1372 33.6564 41.5623 33.5925C41.5779 34.3276 41.5763 35.3929 41.5 36.6236C41.4947 36.7089 41.5232 36.7928 41.5791 36.8573C41.6351 36.9218 41.7142 36.9618 41.7994 36.9686C41.8133 36.9696 41.9224 36.978 42.1046 36.978C42.8457 36.9738 43.5823 36.8639 44.2923 36.6516C46.0818 36.1143 47.4334 34.9631 48.2009 33.3226C48.3626 32.9716 48.4372 32.5868 48.4183 32.2009C48.3835 31.4172 48.3371 29.8613 48.4124 28.1795C48.7719 27.8661 49.0507 27.3901 49.2274 26.7663ZM36.6723 31.7922C36.2652 31.3937 35.9759 30.8906 35.8361 30.3383C36.5374 30.6712 37.2774 30.9154 38.0391 31.0651C38.0813 31.074 38.1249 31.0745 38.1674 31.0664C38.2098 31.0584 38.2502 31.0419 38.2862 31.0181C38.3222 30.9943 38.3532 30.9636 38.3772 30.9277C38.4012 30.8918 38.4179 30.8515 38.4262 30.8092C38.4346 30.7668 38.4344 30.7232 38.4257 30.6809C38.4171 30.6386 38.4001 30.5984 38.3758 30.5627C38.3514 30.5271 38.3202 30.4966 38.284 30.4731C38.2478 30.4495 38.2073 30.4334 38.1648 30.4257C37.3057 30.2609 36.478 29.9612 35.7125 29.5376C35.6711 29.1183 35.6516 28.6971 35.6542 28.2758C36.2419 28.4919 37.5412 28.8756 39.3436 28.8756C40.375 28.8732 41.4027 28.7527 42.4066 28.5162C42.4487 28.507 42.4886 28.4894 42.5238 28.4646C42.5591 28.4398 42.5891 28.4083 42.6121 28.3718C42.6351 28.3354 42.6507 28.2947 42.6579 28.2522C42.665 28.2097 42.6637 28.1661 42.6539 28.1241C42.6441 28.0821 42.6261 28.0425 42.6009 28.0075C42.5757 27.9725 42.5438 27.9429 42.5071 27.9203C42.4703 27.8978 42.4295 27.8827 42.3869 27.8761C42.3443 27.8694 42.3008 27.8713 42.2589 27.8815C38.7301 28.7027 36.1882 27.7921 35.6805 27.5857C35.7007 27.2877 35.7337 26.9796 35.7838 26.6649C35.7908 26.6136 35.8164 26.5667 35.8559 26.5332C35.8954 26.4997 35.946 26.4821 35.9977 26.4837C36.8047 26.5026 37.6013 26.2984 38.2996 25.8935C39.3969 25.2809 39.9848 25.5629 40.8228 26.1002C41.0555 26.2499 41.3112 26.3603 41.5797 26.4272C42.3901 26.6306 43.2316 26.6795 44.0601 26.5712C43.7069 27.2785 43.2557 28.4459 43.461 29.494C42.702 29.9705 41.8598 30.2991 40.9786 30.4625C40.8987 30.4771 40.8271 30.5211 40.778 30.5858C40.7288 30.6505 40.7056 30.7313 40.7128 30.8122C40.7201 30.8931 40.7574 30.9684 40.8173 31.0233C40.8772 31.0782 40.9554 31.1088 41.0367 31.109C41.0564 31.1089 41.0761 31.1072 41.0954 31.1036C42.0085 30.9349 42.8838 30.603 43.6792 30.1239C43.8849 30.5119 44.1968 30.8332 44.5785 31.0503C44.2635 31.6347 43.2035 33.0338 40.2795 33.0338C38.7599 33.0343 37.513 32.6048 36.6723 31.7922ZM47.7675 32.2289C47.7816 32.5096 47.7279 32.7897 47.6108 33.0452C46.2056 36.0488 43.1666 36.3212 42.1698 36.3267C42.2317 35.1522 42.2283 34.1469 42.2114 33.461C44.4245 32.8985 45.1349 31.447 45.28 31.0852C45.758 30.6114 46.2024 30.1049 46.6099 29.5693C46.6618 29.5002 46.6842 29.4133 46.672 29.3277C46.6599 29.2422 46.6143 29.1649 46.5452 29.113C46.511 29.0873 46.472 29.0686 46.4306 29.0579C46.3891 29.0472 46.346 29.0448 46.3036 29.0508C46.218 29.063 46.1408 29.1086 46.0889 29.1777C45.734 29.6447 45.3492 30.0884 44.937 30.5058C44.7439 30.404 44.5732 30.2643 44.4354 30.0949C44.2975 29.9256 44.1954 29.7302 44.1349 29.5203C43.7911 28.3208 44.6987 26.7232 44.921 26.357C45.1498 26.2579 45.3688 26.1374 45.5748 25.9969C45.5708 26.1276 45.5748 26.212 45.5758 26.225C45.5833 26.3501 45.5955 26.4735 45.6121 26.5914C45.6176 26.6342 45.6315 26.6755 45.6531 26.7128C45.6746 26.7502 45.7033 26.7829 45.7376 26.8091C45.7719 26.8353 45.811 26.8544 45.8528 26.8653C45.8945 26.8762 45.938 26.8788 45.9807 26.8728C46.0234 26.8668 46.0645 26.8523 46.1016 26.8303C46.1387 26.8083 46.171 26.7792 46.1968 26.7446C46.2225 26.71 46.2411 26.6706 46.2516 26.6287C46.262 26.5869 46.264 26.5434 46.2574 26.5007C46.2432 26.3996 46.2328 26.294 46.2264 26.1872C46.2264 26.1771 46.1781 25.1674 46.6801 24.6118C46.783 24.4995 46.908 24.4097 47.0472 24.3481C47.1864 24.2864 47.3369 24.2542 47.4892 24.2535C48.3796 24.2098 48.6297 25.0593 48.6835 25.7785C48.7037 26.051 48.6756 26.325 48.6005 26.5877C48.4278 27.196 48.0635 27.9271 47.3088 27.9548C47.1987 27.9586 47.0891 27.9379 46.9879 27.8942C46.9087 27.8611 46.8195 27.8606 46.7399 27.8928C46.6602 27.9251 46.5966 27.9875 46.5627 28.0665C46.5289 28.1455 46.5276 28.2346 46.5591 28.3145C46.5907 28.3945 46.6526 28.4587 46.7313 28.4932C46.9049 28.5682 47.092 28.607 47.2811 28.6071C47.2983 28.6071 47.3156 28.6071 47.3328 28.6061C47.4727 28.6008 47.6114 28.5789 47.7462 28.5408C47.6923 30.0944 47.7348 31.4954 47.7675 32.2289Z" fill="#3C3C4F"/>
<path d="M39.5169 30.5759C39.4593 30.5745 39.4021 30.5725 39.3453 30.5699C39.3022 30.5673 39.259 30.5733 39.2183 30.5876C39.1775 30.6018 39.14 30.624 39.1079 30.6529C39.0758 30.6818 39.0498 30.7167 39.0313 30.7558C39.0129 30.7948 39.0023 30.8371 39.0003 30.8802C38.9984 30.9233 39.005 30.9664 39.0198 31.007C39.0346 31.0475 39.0573 31.0847 39.0866 31.1164C39.1159 31.1481 39.1512 31.1736 39.1905 31.1916C39.2298 31.2095 39.2722 31.2195 39.3153 31.2209C39.377 31.2237 39.439 31.2259 39.5015 31.2274H39.5094C39.5951 31.2273 39.6774 31.1935 39.7383 31.1332C39.7992 31.0729 39.8339 30.991 39.8349 30.9053C39.8358 30.8196 39.803 30.737 39.7435 30.6753C39.684 30.6136 39.6025 30.5779 39.5169 30.5758V30.5759Z" fill="#3C3C4F"/>
<path d="M18.1023 35.1371C18.1072 35.7259 18.1268 36.3969 18.1719 37.1238C18.1719 37.1238 13.8696 37.4653 12.0913 33.6643C11.9516 33.3611 11.8874 33.0286 11.9042 32.6952C11.9243 32.2442 11.9499 31.4998 11.9512 30.6094C14.2496 31.8744 16.3543 33.3303 18.1023 35.1371Z" fill="#FFCAC0"/>
<path d="M11.9509 30.6099C11.9518 29.8414 11.9346 28.9644 11.88 28.0742H14.0974L18.1714 32.6732C18.1714 32.6732 18.0892 33.6395 18.1018 35.1376C17.2262 34.9911 13.9075 34.2101 11.9509 30.6099Z" fill="#E5837C"/>
<path d="M23.9046 22.8027C23.9131 24.0758 23.9558 25.6697 24.0935 26.9113C21.4729 29.7157 18.6258 31.7975 14.9971 31.3858C14.2885 30.6867 12.9213 29.1966 12.5232 27.759L13.7347 25.2517L14.6146 19.7658C14.6146 19.7658 20.77 19.6123 23.9046 22.8027Z" fill="#FFCAC0"/>
<path d="M23.9207 20.618C23.9207 20.618 23.8963 21.5569 23.9047 22.8029L23.4232 22.5653C23.4232 22.5653 23.3118 23.7371 21.6426 23.2243C19.9733 22.7116 18.7882 21.853 17.3857 21.6146C17.3857 21.6146 17.1755 23.6816 14.3775 22.33C14.0935 22.1928 13.8107 22.0496 13.5314 21.9032L13.3411 18.7704C13.3411 18.7704 19.7799 17.9828 23.9207 20.618Z" fill="#E5837C"/>
<path d="M9.62823 25.6033C6.36519 20.9505 9.88774 18.0935 9.88774 18.0935C10.6946 15.4439 12.6954 12.3245 17.6564 13.4392C23.5533 14.764 24.9962 18.8157 25.3408 21.0013C25.366 21.158 25.3468 21.3187 25.2852 21.465C25.2237 21.6113 25.1223 21.7375 24.9927 21.8291C24.8631 21.9207 24.7103 21.9741 24.5519 21.9832C24.3934 21.9923 24.2355 21.9568 24.0962 21.8807C23.1768 21.3828 22.7307 20.86 22.7307 20.86C22.7935 20.9551 22.8502 21.0542 22.9003 21.1566C22.9692 21.2938 22.993 21.4492 22.9682 21.6007C22.9435 21.7522 22.8716 21.892 22.7627 22.0001C22.6538 22.1083 22.5135 22.1793 22.3618 22.203C22.2102 22.2267 22.0549 22.2019 21.9182 22.1321C19.3575 20.8355 15.9157 19.8605 15.9157 19.8605C15.9157 19.8605 16.2832 20.2016 16.423 20.8899C16.4422 20.9866 16.4367 21.0866 16.4072 21.1807C16.3778 21.2747 16.3252 21.3599 16.2542 21.4285C16.1833 21.497 16.0964 21.5466 16.0013 21.5729C15.9063 21.5991 15.8062 21.6011 15.7102 21.5787C15.4221 21.5079 15.042 21.3446 14.5527 21.0114C14.5527 21.0114 16.2186 24.6764 13.4926 26.9178C13.4926 26.918 11.2638 27.9358 9.62823 25.6033Z" fill="#383333"/>
<path d="M24.5359 27.0952C24.516 26.9655 24.4493 26.8476 24.3485 26.7636C24.2476 26.6797 24.1196 26.6355 23.9884 26.6395C23.2412 26.6554 22.504 26.4655 21.8576 26.0905C20.5668 25.3697 19.8164 25.7837 18.9998 26.3074C18.7969 26.4378 18.5741 26.5341 18.3402 26.5925C17.737 26.7421 16.5258 26.9448 15.2995 26.5813C15.2995 26.5813 17.6586 30.1611 14.9974 31.3857C14.9974 31.3857 15.7952 33.8412 19.7191 33.8412C21.681 33.8412 22.8614 33.1741 23.5514 32.5077C24.1055 31.9647 24.4606 31.2509 24.5592 30.4815C24.712 29.3573 24.7041 28.2171 24.5359 27.0952Z" fill="#BDF2DC"/>
<path d="M21.8576 24.8503C21.6293 24.8503 21.4442 24.6652 21.4442 24.4368C21.4442 24.2085 21.6293 24.0234 21.8576 24.0234C22.0859 24.0234 22.271 24.2085 22.271 24.4368C22.271 24.6652 22.0859 24.8503 21.8576 24.8503Z" fill="#E5837C"/>
<path d="M19.0883 24.8503C18.86 24.8503 18.6749 24.6652 18.6749 24.4368C18.6749 24.2085 18.86 24.0234 19.0883 24.0234C19.3166 24.0234 19.5017 24.2085 19.5017 24.4368C19.5017 24.6652 19.3166 24.8503 19.0883 24.8503Z" fill="#E5837C"/>
<path d="M14.0961 26.6874C14.0961 26.6874 14.2217 24.4915 12.5235 24.4103C11.3021 24.3517 11.0396 25.5559 10.9887 26.2363C10.9656 26.547 10.9974 26.8593 11.0827 27.1589C11.2534 27.7602 11.6816 28.7262 12.6759 28.7627C12.8666 28.768 13.0553 28.7237 13.2238 28.6342C13.3922 28.5447 13.5345 28.413 13.6368 28.252C13.8379 27.938 14.051 27.4359 14.0961 26.6874Z" fill="#FFCAC0"/>
<path d="M12.9688 27.2614C13.0466 27.2613 13.1218 27.2333 13.1808 27.1826C13.2398 27.1319 13.2787 27.0618 13.2905 26.9849C13.4705 25.8093 12.8307 25.3267 12.467 25.2359C12.3839 25.2156 12.2962 25.2288 12.2227 25.2726C12.1493 25.3165 12.096 25.3875 12.0745 25.4702C12.0529 25.553 12.0647 25.641 12.1074 25.7151C12.1501 25.7892 12.2203 25.8436 12.3027 25.8664C12.3565 25.8832 12.7754 26.0425 12.6462 26.8862C12.6332 26.9716 12.6546 27.0586 12.7056 27.1283C12.7567 27.1979 12.8334 27.2444 12.9187 27.2576C12.9353 27.2601 12.952 27.2614 12.9688 27.2614Z" fill="#E5837C"/>
<path d="M10.1087 25.6961C10.1368 25.729 10.158 25.7671 10.1712 25.8082C10.1843 25.8494 10.1892 25.8927 10.1855 25.9357C10.1817 25.9787 10.1695 26.0206 10.1494 26.0588C10.1294 26.0971 10.1019 26.131 10.0687 26.1585C10.0354 26.1861 9.99702 26.2067 9.95571 26.2193C9.91439 26.2319 9.87099 26.2361 9.82802 26.2318C9.78506 26.2274 9.74338 26.2146 9.70542 26.194C9.66747 26.1734 9.63398 26.1455 9.60692 26.1118C9.52301 26.0105 9.44052 25.9022 9.36159 25.7897C7.5952 23.2712 7.77052 21.2463 8.22847 19.9912C8.51772 19.1989 8.98882 18.4855 9.60391 17.9084C10.1278 16.235 10.9376 14.9538 12.0116 14.0993C13.483 12.9285 15.406 12.5994 17.728 13.121C23.7724 14.4792 25.2938 18.6092 25.6628 20.9503C25.6974 21.167 25.6706 21.3891 25.5854 21.5914C25.5002 21.7936 25.3601 21.968 25.1808 22.0947C25.0016 22.2213 24.7905 22.2953 24.5714 22.308C24.3522 22.3208 24.1339 22.2719 23.9412 22.1669C23.7099 22.0419 23.4862 21.9034 23.2713 21.7519C23.2223 21.9347 23.1252 22.1011 22.99 22.2335C22.8335 22.3909 22.6308 22.4941 22.4115 22.5281C22.1922 22.562 21.9678 22.525 21.7711 22.4224C20.0065 21.5285 17.7911 20.7817 16.6267 20.4158C16.6758 20.5489 16.7145 20.6856 16.7425 20.8246C16.7726 20.9752 16.7643 21.1309 16.7184 21.2774C16.6726 21.4239 16.5906 21.5566 16.4801 21.6631C16.3696 21.7697 16.2341 21.8468 16.086 21.8872C15.9379 21.9277 15.782 21.9303 15.6327 21.8948C15.4635 21.8518 15.2985 21.7935 15.1398 21.7208C15.3385 22.455 15.5195 23.5785 15.2396 24.7339C15.2299 24.7758 15.2119 24.8154 15.1868 24.8503C15.1617 24.8852 15.1299 24.9148 15.0932 24.9374C15.0566 24.96 15.0159 24.9751 14.9734 24.9818C14.9309 24.9885 14.8874 24.9868 14.8456 24.9767C14.8038 24.9666 14.7644 24.9482 14.7297 24.9228C14.695 24.8974 14.6657 24.8653 14.6434 24.8285C14.6212 24.7917 14.6064 24.7508 14.6001 24.7083C14.5937 24.6657 14.5958 24.6223 14.6063 24.5806C15.0207 22.8692 14.2637 21.1626 14.2562 21.146C14.2268 21.0813 14.2194 21.0087 14.2351 20.9394C14.2508 20.8701 14.2887 20.8078 14.3431 20.7621C14.3975 20.7163 14.4653 20.6896 14.5363 20.686C14.6073 20.6823 14.6775 20.702 14.7362 20.742C15.0544 20.9746 15.4104 21.1506 15.7885 21.2621C15.8306 21.2722 15.8746 21.2714 15.9163 21.2598C15.958 21.2482 15.996 21.2261 16.0268 21.1957C16.0592 21.1654 16.0833 21.1273 16.0968 21.0851C16.1104 21.0429 16.113 20.998 16.1043 20.9545C16.049 20.6372 15.9073 20.3414 15.6947 20.0995C15.6411 20.0497 15.6058 19.9834 15.5944 19.9112C15.5831 19.8389 15.5964 19.765 15.6322 19.7012C15.668 19.6375 15.7242 19.5876 15.7918 19.5597C15.8594 19.5317 15.9344 19.5273 16.0047 19.5472C16.0395 19.5566 19.5066 20.5452 22.0658 21.8416C22.1406 21.8821 22.2266 21.8971 22.3107 21.8843C22.3948 21.8715 22.4724 21.8317 22.5318 21.7708C22.5939 21.7114 22.635 21.6335 22.6488 21.5487C22.6626 21.464 22.6484 21.377 22.6084 21.301C22.5646 21.2113 22.515 21.1246 22.46 21.0414C22.4139 20.9724 22.3959 20.8883 22.4097 20.8065C22.4235 20.7246 22.468 20.6511 22.5341 20.6009C22.6002 20.5508 22.683 20.5277 22.7656 20.5365C22.8481 20.5453 22.9242 20.5853 22.9782 20.6483C22.9824 20.6531 23.4049 21.1362 24.2517 21.5947C24.3376 21.6419 24.435 21.664 24.5328 21.6585C24.6306 21.6529 24.7249 21.62 24.8049 21.5635C24.885 21.507 24.9475 21.4291 24.9854 21.3388C25.0233 21.2485 25.035 21.1493 25.0193 21.0526C24.676 18.8748 23.2539 15.0313 17.5853 13.7577C12.9156 12.7086 10.9917 15.5882 10.2003 18.1889C10.1813 18.2507 10.1444 18.3056 10.0944 18.3465C9.96057 18.4561 6.85388 21.0793 9.89565 25.4167C9.96405 25.5138 10.0359 25.6082 10.1087 25.6961Z" fill="#3C3C4F"/>
<path d="M10.7701 27.2467C10.6741 26.9103 10.6382 26.5596 10.6643 26.2108C10.7693 24.8069 11.4536 24.0323 12.5395 24.0836C12.7783 24.0879 13.0137 24.1412 13.231 24.2401C13.4484 24.339 13.6432 24.4814 13.8033 24.6586C13.9938 24.877 14.1393 25.1307 14.2316 25.4054C14.4915 25.7641 14.8869 26.0559 15.4091 26.2727C16.5526 26.6068 17.6866 26.4184 18.2626 26.2756C18.4619 26.2258 18.6518 26.1437 18.8246 26.0325C19.7411 25.4447 20.614 25.0218 22.0171 25.8054C22.5345 26.1035 23.1142 26.2767 23.7103 26.3114C23.6376 25.4188 23.5943 24.3232 23.5816 23.0476C23.5808 22.9612 23.6143 22.8781 23.6748 22.8164C23.7353 22.7547 23.8177 22.7196 23.9041 22.7188H23.9075C23.9933 22.7188 24.0757 22.7527 24.1367 22.8131C24.1977 22.8734 24.2324 22.9555 24.2333 23.0413C24.2464 24.367 24.2927 25.4936 24.371 26.3937C24.499 26.4541 24.6104 26.5449 24.6953 26.6582C24.7803 26.7715 24.8363 26.9038 24.8584 27.0436C25.0324 28.1968 25.0406 29.3689 24.8828 30.5244C24.7735 31.3664 24.3846 32.1473 23.7785 32.7418C23.1058 33.3919 21.8556 34.1669 19.7195 34.1669C19.2897 34.1682 18.8603 34.1368 18.4352 34.0729C18.4196 34.808 18.4212 35.8733 18.4975 37.1041C18.5028 37.1893 18.4744 37.2733 18.4184 37.3378C18.3624 37.4023 18.2833 37.4423 18.1982 37.4491C18.1843 37.4501 18.0751 37.4585 17.8929 37.4585C17.1519 37.4542 16.4152 37.3443 15.7052 37.1321C13.9157 36.5947 12.5641 35.4436 11.7966 33.8031C11.635 33.4521 11.5604 33.0673 11.5792 32.6813C11.614 31.8976 11.6605 30.3418 11.5851 28.6599C11.2256 28.3466 10.9469 27.8705 10.7701 27.2467ZM23.3252 32.2727C23.7323 31.8741 24.0217 31.3711 24.1615 30.8188C23.4602 31.1517 22.7201 31.3958 21.9585 31.5456C21.9162 31.5545 21.8726 31.5549 21.8302 31.5469C21.7878 31.5388 21.7474 31.5224 21.7113 31.4986C21.6753 31.4748 21.6444 31.444 21.6203 31.4082C21.5963 31.3723 21.5796 31.332 21.5713 31.2896C21.563 31.2473 21.5631 31.2037 21.5718 31.1614C21.5805 31.1191 21.5975 31.0789 21.6218 31.0432C21.6461 31.0075 21.6773 30.977 21.7135 30.9535C21.7497 30.93 21.7903 30.9139 21.8327 30.9062C22.6919 30.7414 23.5196 30.4416 24.285 30.0181C24.3264 29.5988 24.3459 29.1776 24.3434 28.7563C23.7557 28.9724 22.4563 29.3561 20.654 29.3561C19.6226 29.3537 18.5949 29.2331 17.5909 28.9967C17.5488 28.9874 17.509 28.9699 17.4737 28.9451C17.4384 28.9203 17.4084 28.8888 17.3854 28.8523C17.3624 28.8158 17.3469 28.7752 17.3397 28.7326C17.3325 28.6901 17.3339 28.6466 17.3436 28.6046C17.3534 28.5626 17.3714 28.523 17.3966 28.488C17.4218 28.453 17.4537 28.4234 17.4905 28.4008C17.5272 28.3782 17.5681 28.3632 17.6107 28.3565C17.6533 28.3499 17.6968 28.3517 17.7386 28.362C21.2675 29.1832 23.8093 28.2726 24.3171 28.0661C24.2969 27.7682 24.2639 27.4601 24.2137 27.1454C24.2068 27.094 24.1811 27.0471 24.1416 27.0137C24.1021 26.9802 24.0516 26.9626 23.9999 26.9642C23.1928 26.9831 22.3963 26.7788 21.6979 26.374C20.6007 25.7614 20.0128 26.0433 19.1748 26.5807C18.9421 26.7303 18.6864 26.8408 18.4179 26.9076C17.6074 27.1111 16.7659 27.1599 15.9374 27.0517C16.2907 27.759 16.7419 28.9264 16.5366 29.9745C17.2955 30.4509 18.1378 30.7795 19.0189 30.9429C19.0988 30.9576 19.1704 31.0016 19.2196 31.0663C19.2687 31.131 19.292 31.2117 19.2847 31.2927C19.2774 31.3736 19.2402 31.4489 19.1803 31.5038C19.1204 31.5587 19.0421 31.5892 18.9608 31.5894C18.9411 31.5894 18.9215 31.5876 18.9021 31.5841C17.989 31.4153 17.1137 31.0835 16.3183 30.6044C16.1126 30.9923 15.8007 31.3137 15.419 31.5308C15.7341 32.1151 16.794 33.5142 19.718 33.5142C21.2376 33.5148 22.4845 33.0852 23.3252 32.2727ZM12.23 32.7093C12.2159 32.9901 12.2697 33.2701 12.3867 33.5257C13.792 36.5292 16.8309 36.8017 17.8277 36.8072C17.7659 35.6327 17.7693 34.6274 17.7862 33.9415C15.573 33.3789 14.8626 31.9275 14.7175 31.5657C14.2395 31.0919 13.7952 30.5854 13.3877 30.0498C13.3357 29.9807 13.3134 29.8938 13.3255 29.8082C13.3376 29.7226 13.3833 29.6454 13.4524 29.5935C13.4866 29.5677 13.5255 29.549 13.567 29.5384C13.6084 29.5277 13.6515 29.5253 13.6939 29.5313C13.7795 29.5434 13.8567 29.5891 13.9087 29.6581C14.2636 30.1252 14.6483 30.5688 15.0605 30.9862C15.2537 30.8845 15.4243 30.7448 15.5622 30.5754C15.7 30.4061 15.8022 30.2106 15.8626 30.0008C16.2065 28.8013 15.2989 27.2037 15.0766 26.8375C14.8477 26.7384 14.6288 26.6178 14.4227 26.4774C14.4267 26.6081 14.4227 26.6925 14.4218 26.7054C14.4143 26.8306 14.402 26.954 14.3854 27.0719C14.3799 27.1147 14.366 27.1559 14.3445 27.1933C14.3229 27.2307 14.2942 27.2634 14.2599 27.2896C14.2256 27.3157 14.1865 27.3348 14.1448 27.3458C14.103 27.3567 14.0596 27.3592 14.0169 27.3532C13.9741 27.3472 13.933 27.3328 13.896 27.3108C13.8589 27.2888 13.8265 27.2597 13.8008 27.225C13.775 27.1904 13.7564 27.1511 13.746 27.1092C13.7356 27.0674 13.7336 27.0238 13.7401 26.9812C13.7543 26.8801 13.7647 26.7745 13.7711 26.6677C13.7711 26.6575 13.8194 25.6479 13.3174 25.0923C13.2145 24.98 13.0896 24.8902 12.9503 24.8285C12.8111 24.7669 12.6606 24.7347 12.5083 24.7339C11.6179 24.6903 11.3679 25.5397 11.314 26.259C11.2938 26.5315 11.3219 26.8055 11.397 27.0682C11.5697 27.6765 11.9341 28.4076 12.6887 28.4353C12.7988 28.4391 12.9084 28.4184 13.0096 28.3747C13.0889 28.3415 13.178 28.341 13.2577 28.3733C13.3373 28.4056 13.401 28.468 13.4348 28.5469C13.4687 28.6259 13.47 28.7151 13.4384 28.795C13.4068 28.8749 13.345 28.9391 13.2663 28.9737C13.0927 29.0487 12.9056 29.0875 12.7164 29.0875C12.6993 29.0875 12.682 29.0875 12.6648 29.0866C12.5249 29.0813 12.3861 29.0594 12.2514 29.0213C12.3052 30.5749 12.2627 31.9759 12.23 32.7093Z" fill="#3C3C4F"/>
<path d="M20.4807 31.0564C20.5382 31.055 20.5954 31.053 20.6522 31.0504C20.6953 31.0478 20.7385 31.0538 20.7793 31.0681C20.82 31.0823 20.8575 31.1045 20.8896 31.1334C20.9217 31.1622 20.9478 31.1972 20.9662 31.2362C20.9847 31.2752 20.9952 31.3175 20.9972 31.3607C20.9992 31.4038 20.9926 31.4469 20.9778 31.4874C20.963 31.528 20.9403 31.5652 20.911 31.5969C20.8816 31.6286 20.8463 31.6541 20.8071 31.672C20.7678 31.69 20.7254 31.6999 20.6822 31.7013C20.6206 31.7042 20.5585 31.7064 20.496 31.7079H20.4881C20.4024 31.7078 20.3202 31.6739 20.2593 31.6136C20.1983 31.5533 20.1636 31.4715 20.1627 31.3858C20.1617 31.3001 20.1945 31.2174 20.254 31.1558C20.3136 31.0941 20.395 31.0584 20.4807 31.0563V31.0564Z" fill="#3C3C4F"/>
<path d="M15.7525 47.7525C15.6158 47.8892 15.6158 48.1108 15.7525 48.2475L17.9799 50.4749C18.1166 50.6116 18.3382 50.6116 18.4749 50.4749C18.6116 50.3382 18.6116 50.1166 18.4749 49.9799L16.495 48L18.4749 46.0201C18.6116 45.8834 18.6116 45.6618 18.4749 45.5251C18.3382 45.3884 18.1166 45.3884 17.9799 45.5251L15.7525 47.7525ZM44.2475 48.2475C44.3842 48.1108 44.3842 47.8892 44.2475 47.7525L42.0201 45.5251C41.8834 45.3884 41.6618 45.3884 41.5251 45.5251C41.3884 45.6618 41.3884 45.8834 41.5251 46.0201L43.505 48L41.5251 49.9799C41.3884 50.1166 41.3884 50.3382 41.5251 50.4749C41.6618 50.6116 41.8834 50.6116 42.0201 50.4749L44.2475 48.2475ZM16 48.35L44 48.35V47.65L16 47.65V48.35Z" fill="black"/>
<path d="M26.485 43.21C26.805 42.9433 27.06 42.7217 27.25 42.545C27.44 42.365 27.5983 42.1783 27.725 41.985C27.8517 41.7917 27.915 41.6017 27.915 41.415C27.915 41.245 27.875 41.1117 27.795 41.015C27.715 40.9183 27.5917 40.87 27.425 40.87C27.2583 40.87 27.13 40.9267 27.04 41.04C26.95 41.15 26.9033 41.3017 26.9 41.495H26.22C26.2333 41.095 26.3517 40.7917 26.575 40.585C26.8017 40.3783 27.0883 40.275 27.435 40.275C27.815 40.275 28.1067 40.3767 28.31 40.58C28.5133 40.78 28.615 41.045 28.615 41.375C28.615 41.635 28.545 41.8833 28.405 42.12C28.265 42.3567 28.105 42.5633 27.925 42.74C27.745 42.9133 27.51 43.1233 27.22 43.37H28.695V43.95H26.225V43.43L26.485 43.21ZM34.2125 40.51V44H33.5125V41.73L32.5775 44H32.0475L31.1075 41.73V44H30.4075V40.51H31.2025L32.3125 43.105L33.4225 40.51H34.2125Z" fill="#5C5C6D"/>
</svg>
