<svg width="60" height="60" viewBox="0 0 60 60" fill="none" xmlns="http://www.w3.org/2000/svg">
<rect width="60" height="60" rx="5" fill="#E5E5E5"/>
<path d="M30.0769 18.97L33.3035 15.6286C34.0116 15.4598 34.7391 15.3869 35.4666 15.4121C37.909 15.48 39.0338 17.2155 39.5521 18.8168C39.5521 18.8168 44.48 16.8509 47.3575 21.3787C48.4366 23.0767 48.4327 25.0304 48.0062 26.8095L45.283 31.3403L35.1115 33.9545L30.0769 18.97Z" fill="#9FCBF7"/>
<path d="M45.4107 32.2536C45.4107 32.2536 47.2902 29.7804 48.0031 26.8205C33.5065 29.9678 33.1969 18.2373 33.3035 15.6299C30.3896 16.3435 29.3304 18.5431 29.3304 18.5431L28.1455 22.8594L35.7625 35.8928L45.4107 32.2536Z" fill="#6F9AD8"/>
<path d="M31.1043 14.6117C30.9765 16.8643 30.5254 23.6908 29.3885 31.3712L25.8564 47.5288C25.8564 47.5288 18.7317 47.1604 14.8889 45.0546C14.8889 45.0546 15.4677 40.738 15.31 38.685L12.318 34.7871C11.4605 33.3753 10.6512 31.6725 10.2569 29.8379C10.2569 29.8379 9.51993 25.2612 7.4668 22.9976L8.8636 21.6376C9.04749 21.4591 9.28452 21.3452 9.53884 21.3134C9.79317 21.2815 10.051 21.3333 10.2732 21.4609C11.3202 22.0586 13.2755 23.3817 15.4685 25.893C15.4685 25.893 16.8845 20.9123 17.7838 10.4236C17.8014 10.2187 17.8952 10.028 18.0465 9.88889C18.1979 9.74982 18.396 9.67256 18.6015 9.67236H21.2851L21.3426 8.81781C21.3558 8.61718 21.4423 8.4284 21.5856 8.28738C21.729 8.14635 21.9191 8.06291 22.1199 8.05292C22.6695 8.02581 23.4569 8.00379 24.2202 8.04191C24.4188 8.05079 24.6066 8.13468 24.7457 8.27666C24.8848 8.41863 24.9649 8.60809 24.9697 8.8068C24.982 9.36699 24.9879 10.1584 24.9475 10.7937L27.4437 10.8475C27.651 10.8518 27.8481 10.9382 27.9918 11.0877C28.1354 11.2373 28.2139 11.4377 28.2099 11.645C28.1991 12.1956 28.1808 12.958 28.1523 13.6638L30.3652 13.7851C30.4681 13.7907 30.5688 13.8165 30.6616 13.8611C30.7545 13.9057 30.8376 13.9682 30.9063 14.045C30.975 14.1218 31.0278 14.2114 31.0618 14.3086C31.0957 14.4059 31.1102 14.5089 31.1043 14.6117Z" fill="#FFCAC0"/>
<path d="M40.5804 10.5107C40.1946 8.97545 38.2593 8.37417 37.0934 9.44458C36.8673 9.65367 36.6934 9.9129 36.5858 10.2014C36.5858 10.2014 36.4147 12.0367 38.631 12.3511C39.8816 12.5284 40.6761 11.2343 40.6761 11.2343C40.6706 10.9903 40.6385 10.7477 40.5804 10.5107Z" fill="#9FCBF7"/>
<path d="M27.8564 32.8346L23.5693 29.8389C23.5693 29.8389 21.2464 30.7682 21.6538 34.6389C21.6538 34.6389 18.2835 36.5147 19.1276 41.1131C19.5914 43.6401 20.7205 45.0909 22.1828 46.3499C22.9206 46.981 23.8374 47.3656 24.8046 47.4498C25.4602 47.5087 25.8564 47.5293 25.8564 47.5293C27.1347 43.572 28.117 39.0597 28.8674 34.6517L27.8564 32.8346Z" fill="#E5837C"/>
<path d="M11.7523 13.1017C11.7523 13.1017 9.7034 12.9813 9.82397 15.2711C9.8251 15.2917 9.82637 15.3122 9.82778 15.3325C9.82778 15.3325 10.7142 16.8937 12.2745 16.083C13.8348 15.2724 13.0267 13.5865 13.0267 13.5865C12.6694 13.2847 12.2199 13.1137 11.7523 13.1017Z" fill="#9FCBF7"/>
<path d="M27.0802 24.3107L26.146 24.0171C27.1411 20.8521 27.6588 13.7017 27.6639 13.6299L28.6417 13.6914C28.6205 13.9889 28.1098 21.0354 27.0802 24.3107Z" fill="#E5837C"/>
<path d="M25.4761 23.6841L23.9947 23.3772C24.9839 19.2069 25.4196 11.1587 25.4382 10.8047L24.4586 10.7685C24.4539 10.8544 24.0088 19.1013 23.0356 23.1779L20.587 22.6703C21.4764 17.7374 21.7737 9.74719 21.7767 9.66602L20.7832 9.67223C20.7804 9.75256 20.5009 17.6092 19.6278 22.4716L18.8975 22.3204C18.7704 22.294 18.638 22.3193 18.5294 22.3906C18.4209 22.4618 18.3451 22.5733 18.3188 22.7005C18.2924 22.8276 18.3177 22.9601 18.389 23.0686C18.4603 23.1771 18.5717 23.2529 18.6989 23.2792L25.2777 24.6426C25.4049 24.6689 25.5373 24.6437 25.6458 24.5724C25.7544 24.5011 25.8301 24.3896 25.8565 24.2625C25.8828 24.1353 25.8576 24.0029 25.7863 23.8944C25.715 23.7858 25.6035 23.7101 25.4763 23.6837L25.4761 23.6841Z" fill="#E5837C"/>
<path d="M47.3413 13.4134C47.2591 13.4135 47.1782 13.3928 47.106 13.3533C47.0339 13.3139 46.9728 13.2568 46.9285 13.1876L46.4371 12.4196C46.4024 12.3654 46.3788 12.3049 46.3675 12.2417C46.3562 12.1784 46.3575 12.1135 46.3712 12.0507C46.385 11.9879 46.4111 11.9284 46.4478 11.8756C46.4846 11.8229 46.5314 11.7779 46.5855 11.7432C46.6397 11.7086 46.7001 11.6849 46.7634 11.6736C46.8267 11.6623 46.8916 11.6636 46.9544 11.6774C47.0172 11.6912 47.0767 11.7172 47.1295 11.754C47.1822 11.7907 47.2272 11.8375 47.2618 11.8917L47.7534 12.6597C47.8007 12.7337 47.8272 12.819 47.8302 12.9067C47.8332 12.9945 47.8125 13.0814 47.7704 13.1585C47.7283 13.2355 47.6662 13.2998 47.5907 13.3446C47.5153 13.3894 47.4291 13.4132 47.3413 13.4133V13.4134Z" fill="#9FCBF7"/>
<path d="M49.2867 16.4525C49.2045 16.4526 49.1235 16.432 49.0513 16.3925C48.9791 16.353 48.9181 16.296 48.8738 16.2266L48.3825 15.4586C48.3143 15.3493 48.292 15.2175 48.3204 15.0918C48.3487 14.9661 48.4255 14.8566 48.5341 14.7872C48.6426 14.7177 48.7742 14.6938 48.9002 14.7208C49.0262 14.7477 49.1366 14.8232 49.2073 14.9309L49.6987 15.6989C49.746 15.7729 49.7726 15.8582 49.7756 15.9459C49.7786 16.0337 49.758 16.1206 49.7159 16.1976C49.6738 16.2747 49.6117 16.339 49.5362 16.3838C49.4607 16.4286 49.3745 16.4523 49.2867 16.4524V16.4525Z" fill="#9FCBF7"/>
<path d="M49.2043 13.8223C49.0984 13.8224 48.9954 13.7881 48.9106 13.7247C48.8258 13.6612 48.7639 13.572 48.7341 13.4704C48.7043 13.3687 48.7083 13.2602 48.7454 13.161C48.7826 13.0619 48.8508 12.9774 48.94 12.9203L49.7079 12.4289C49.762 12.3931 49.8228 12.3684 49.8865 12.3563C49.9503 12.3441 50.0158 12.3448 50.0793 12.3583C50.1428 12.3717 50.203 12.3976 50.2564 12.4345C50.3098 12.4715 50.3553 12.5186 50.3903 12.5733C50.4253 12.628 50.4491 12.689 50.4603 12.753C50.4714 12.8169 50.4698 12.8825 50.4554 12.9457C50.441 13.009 50.4142 13.0688 50.3765 13.1217C50.3388 13.1745 50.2909 13.2193 50.2358 13.2535L49.4682 13.7449C49.3895 13.7955 49.2979 13.8224 49.2043 13.8223Z" fill="#9FCBF7"/>
<path d="M46.1648 15.7676C46.0589 15.7677 45.9558 15.7335 45.871 15.67C45.7863 15.6066 45.7243 15.5173 45.6946 15.4157C45.6648 15.3141 45.6688 15.2056 45.7059 15.1064C45.743 15.0072 45.8113 14.9228 45.9005 14.8657L46.6685 14.3741C46.7226 14.3394 46.7831 14.3158 46.8464 14.3045C46.9097 14.2932 46.9746 14.2945 47.0374 14.3083C47.1002 14.322 47.1597 14.3481 47.2124 14.3848C47.2651 14.4216 47.3101 14.4684 47.3448 14.5225C47.3794 14.5767 47.4031 14.6372 47.4144 14.7004C47.4257 14.7637 47.4244 14.8286 47.4106 14.8914C47.3968 14.9542 47.3708 15.0137 47.3341 15.0665C47.2973 15.1192 47.2505 15.1642 47.1963 15.1989L46.4283 15.6903C46.3497 15.7408 46.2582 15.7677 46.1648 15.7676Z" fill="#9FCBF7"/>
<path d="M28.9977 24.1038C28.9977 24.1038 25.5232 21.7349 23.2597 24.7354C21.8982 26.5402 22.5552 28.5163 23.5703 29.8391C23.5703 29.8391 21.6278 31.3683 23.2072 34.7902C23.2072 34.7902 21.3436 35.5234 20.8745 37.9448C21.6397 40.1837 24.0288 41.8716 27.0122 44.1242C27.0122 44.1242 32.7785 43.2044 33.7259 37.9929L28.9977 24.1038Z" fill="#9FCBF7"/>
<path d="M20.8755 37.9447C20.714 38.8712 20.7368 39.8205 20.9426 40.7382C21.8902 45.4234 27.2597 44.6863 27.2597 44.6863C27.2597 44.6863 33.9978 43.9494 34.9453 38.7379L32.5604 32.8706L28.3561 26.6543C28.3561 26.6543 32.5119 39.5803 20.8755 37.9447Z" fill="#6F9AD8"/>
<path d="M27.3221 25.5957L33.9433 39.1745C33.9433 39.1745 31.2668 37.1274 26.9533 38.8242C26.7181 38.9156 26.5158 39.0759 26.373 39.284C26.2302 39.492 26.1534 39.7384 26.1526 39.9908V41.2992C26.1526 41.2992 28.8516 41.3582 30.6596 43.3059C30.6596 43.3059 32.6284 46.0676 37.1245 46.3232C37.597 46.3514 38.0548 46.4979 38.4557 46.7493C38.8567 47.0008 39.188 47.349 39.4192 47.762L41.7928 51.9816C41.7928 51.9816 49.3475 49.7388 52.5345 45.7839L50.342 41.4885C49.9075 40.6371 49.5676 39.7407 49.3284 38.8152C48.5792 35.9157 46.4463 28.7394 42.4685 23.0797C42.3358 22.8916 42.1598 22.7382 41.9553 22.6325C41.7509 22.5267 41.5241 22.4716 41.2939 22.4719H39.4755L39.0843 21.7704C38.9785 21.5805 38.8233 21.4227 38.6351 21.3138C38.4469 21.2049 38.2328 21.1489 38.0154 21.1517C37.1747 21.1515 36.3348 21.2009 35.5 21.2996L35.3476 20.9822C35.2644 20.8085 35.1352 20.6609 34.974 20.5557C34.8127 20.4504 34.6256 20.3915 34.4332 20.3853C33.8724 20.3658 33.311 20.3989 32.7564 20.4841C32.6598 20.5001 32.5677 20.5366 32.4864 20.5913C32.4051 20.6459 32.3365 20.7174 32.2853 20.8009C32.234 20.8844 32.2013 20.9779 32.1894 21.0751C32.1774 21.1723 32.1865 21.271 32.216 21.3644C32.7622 23.0967 34.2407 27.7861 35.779 32.6596C35.7837 32.674 35.7829 32.6896 35.7768 32.7034C35.7707 32.7172 35.7598 32.7284 35.746 32.7346C35.7323 32.7409 35.7167 32.7419 35.7023 32.7375C35.6878 32.733 35.6755 32.7234 35.6677 32.7104C34.796 31.2632 31.9902 26.6487 30.0705 23.9917C29.9506 23.8265 29.7741 23.7112 29.5746 23.6679C29.3752 23.6246 29.1667 23.6562 28.9891 23.7567L27.6611 24.506C27.4763 24.6101 27.3383 24.781 27.2753 24.9835C27.2123 25.1861 27.229 25.4051 27.3221 25.5957Z" fill="#FFCAC0"/>
<path d="M39.1254 31.9923C37.2773 27.1458 35.0207 21.4162 34.9985 21.3596C35.3335 21.2913 35.6734 21.2507 36.015 21.2383C36.0375 21.2948 38.1918 26.7951 40.0402 31.643C40.0459 31.6578 40.0485 31.6736 40.048 31.6895C40.0475 31.7053 40.0438 31.7209 40.0373 31.7353C40.0307 31.7498 40.0214 31.7628 40.0098 31.7736C39.9981 31.7844 39.9845 31.7928 39.9696 31.7983L39.2799 32.0612C39.2502 32.0724 39.2174 32.0715 39.1884 32.0586C39.1595 32.0457 39.1368 32.0218 39.1254 31.9923Z" fill="#E5837C"/>
<path d="M42.1537 30.614C41.1353 27.6696 38.9671 22.5113 38.9458 22.4609L40.0015 22.4712C40.023 22.5219 42.0544 27.3297 43.08 30.2961C43.0851 30.311 43.0872 30.3269 43.0862 30.3426C43.0852 30.3584 43.081 30.3738 43.074 30.388C43.067 30.4021 43.0573 30.4147 43.0454 30.4251C43.0334 30.4355 43.0196 30.4434 43.0046 30.4484L42.3061 30.6876C42.2912 30.6928 42.2755 30.695 42.2598 30.6941C42.2442 30.6932 42.2288 30.6892 42.2146 30.6824C42.2005 30.6756 42.1878 30.666 42.1774 30.6543C42.1669 30.6425 42.1589 30.6289 42.1537 30.614Z" fill="#E5837C"/>
<path d="M14.6955 32.1865L12.6304 35.2851C13.41 36.5036 14.3075 37.6426 15.3099 38.6856C17.9452 35.6814 14.6955 32.1865 14.6955 32.1865Z" fill="#E5837C"/>
<path d="M14.6957 32.1861C13.9833 31.1087 12.5893 30.6661 11.4204 31.2166C10.7145 31.5492 10.084 32.2394 10.1247 33.6495C10.1323 33.9828 10.1724 34.3145 10.2444 34.64C10.2444 34.64 11.2772 36.4154 13.4656 35.6771C15.654 34.9387 15.0944 32.9133 15.0944 32.9133C14.9806 32.6608 14.8473 32.4177 14.6957 32.1861Z" fill="#9FCBF7"/>
<path d="M10.9836 17.063C11.2747 17.1529 11.5831 17.172 11.8831 17.1186C12.1831 17.0652 12.466 16.9409 12.7082 16.7561C13.2399 16.367 13.8685 15.6809 13.6501 14.6977C13.5683 14.2692 13.3491 13.8789 13.0258 13.5859C13.0024 14.4048 12.7376 15.3249 11.7565 15.6868C10.8012 16.0397 10.1965 15.7321 9.82861 15.3314C9.90598 16.4306 10.4516 16.885 10.9836 17.063Z" fill="#6F9AD8"/>
<path d="M39.0875 13.3563C39.8138 13.19 40.6602 12.7162 40.6773 11.4133C40.6781 11.3516 40.6761 11.293 40.6743 11.2343C40.2557 11.682 39.6097 11.9652 38.6121 11.7908C37.0785 11.5226 36.6498 10.814 36.5872 10.2021C36.5303 10.3504 36.4873 10.5037 36.4591 10.66C36.3791 11.0462 36.3995 11.4464 36.5183 11.8224C36.6372 12.1984 36.8506 12.5377 37.138 12.8077C37.391 13.0551 37.7021 13.2349 38.0427 13.3308C38.3833 13.4266 38.7426 13.4354 39.0875 13.3563Z" fill="#6F9AD8"/>
<path d="M15.0947 32.9131C14.6837 33.7491 13.8615 34.8462 12.3246 35.0681C11.2037 35.2301 10.5863 34.9754 10.2461 34.6395C10.3695 35.2603 10.6766 35.8296 11.1275 36.2736C11.4143 36.5397 11.7576 36.7375 12.1316 36.8522C12.5056 36.9669 12.9008 36.9956 13.2875 36.936C13.9963 36.8343 14.8233 36.4926 15.2761 35.7235C15.4226 35.4636 15.516 35.1771 15.551 34.8808C15.5859 34.5845 15.5617 34.2842 15.4796 33.9973C15.3811 33.626 15.2523 33.2634 15.0947 32.9131Z" fill="#6F9AD8"/>
<path d="M44.6671 23.4172C45.4263 23.4172 46.0418 22.8018 46.0418 22.0426C46.0418 21.2834 45.4263 20.668 44.6671 20.668C43.9079 20.668 43.2925 21.2834 43.2925 22.0426C43.2925 22.8018 43.9079 23.4172 44.6671 23.4172Z" fill="white"/>
<path d="M22.615 28.4999C23.6346 28.4999 24.4611 27.6734 24.4611 26.6538C24.4611 25.6342 23.6346 24.8076 22.615 24.8076C21.5954 24.8076 20.7688 25.6342 20.7688 26.6538C20.7688 27.6734 21.5954 28.4999 22.615 28.4999Z" fill="white"/>
<path d="M11.9023 33.8905C12.3728 33.8905 12.7543 33.5091 12.7543 33.0385C12.7543 32.568 12.3728 32.1865 11.9023 32.1865C11.4317 32.1865 11.0503 32.568 11.0503 33.0385C11.0503 33.5091 11.4317 33.8905 11.9023 33.8905Z" fill="white"/>
<path d="M25.0783 30.5403C25.1878 30.5576 25.2915 30.6011 25.3807 30.667C25.4698 30.733 25.5416 30.8195 25.5901 30.9192C25.6386 31.0189 25.6624 31.1288 25.6593 31.2397C25.6562 31.3505 25.6264 31.4589 25.5724 31.5558C25.1452 32.3048 24.8861 33.1379 24.8132 33.9972C24.8099 34.0552 24.7869 34.1103 24.748 34.1534C24.709 34.1965 24.6565 34.2249 24.5991 34.234C24.5417 34.2431 24.483 34.2322 24.4326 34.2032C24.3823 34.1742 24.3434 34.1288 24.3225 34.0747C23.9437 33.1091 23.9144 32.0415 24.2396 31.0566C24.2951 30.8848 24.4101 30.7385 24.5638 30.6438C24.7175 30.5492 24.9 30.5125 25.0783 30.5403Z" fill="white"/>
<path d="M46.4211 20.1613C46.3721 20.2029 46.3317 20.2537 46.3024 20.3109C46.273 20.3681 46.2552 20.4306 46.2499 20.4946C46.2447 20.5587 46.2521 20.6232 46.2718 20.6844C46.2915 20.7456 46.323 20.8024 46.3647 20.8514C46.3994 20.8921 46.4339 20.9338 46.4681 20.9765C46.5497 21.0775 46.6681 21.1421 46.7973 21.1559C46.8612 21.1627 46.9259 21.1569 46.9876 21.1388C47.0493 21.1206 47.1068 21.0905 47.1569 21.0501C47.2069 21.0097 47.2485 20.9598 47.2793 20.9034C47.3101 20.8469 47.3295 20.7849 47.3363 20.721C47.3432 20.657 47.3373 20.5923 47.3192 20.5306C47.301 20.4689 47.2709 20.4114 47.2305 20.3614C47.191 20.3125 47.1513 20.2646 47.1114 20.2175C47.0272 20.1186 46.9073 20.0571 46.7779 20.0465C46.6484 20.036 46.5201 20.0773 46.4211 20.1613Z" fill="#3C3C4F"/>
<path d="M15.9516 23.8265C16.0147 23.8391 16.0796 23.8393 16.1427 23.8268C16.2057 23.8144 16.2658 23.7896 16.3193 23.754C16.3728 23.7183 16.4187 23.6725 16.4545 23.619C16.4903 23.5656 16.5152 23.5057 16.5278 23.4426C17.0301 20.9373 17.7402 16.652 18.271 10.464C18.2784 10.3815 18.3163 10.3047 18.3773 10.2486C18.4383 10.1925 18.518 10.1611 18.6008 10.1606H21.2847C21.4089 10.1606 21.5284 10.1134 21.6191 10.0286C21.7098 9.94374 21.7649 9.82763 21.7732 9.70374L21.8306 8.8492C21.8359 8.7683 21.8707 8.69217 21.9285 8.63525C21.9862 8.57833 22.0628 8.54459 22.1438 8.54044C22.6648 8.51475 23.4439 8.49202 24.1953 8.52929C24.2704 8.53175 24.3417 8.56284 24.3946 8.61618C24.4475 8.66952 24.478 8.74107 24.4798 8.81616C24.4918 9.36167 24.4979 10.1421 24.4585 10.7613C24.4543 10.8272 24.4635 10.8932 24.4855 10.9555C24.5076 11.0177 24.5419 11.0749 24.5866 11.1235C24.6313 11.1721 24.6853 11.2112 24.7455 11.2384C24.8056 11.2656 24.8706 11.2804 24.9367 11.2818L27.4327 11.3355C27.5103 11.3372 27.584 11.3696 27.6379 11.4255C27.6917 11.4815 27.7212 11.5564 27.7199 11.634C27.7098 12.1571 27.6917 12.9302 27.6626 13.6426C27.6575 13.771 27.7032 13.8963 27.7897 13.9914C27.8762 14.0865 27.9966 14.1437 28.125 14.1508L30.3381 14.2721C30.3766 14.2742 30.4143 14.2839 30.4491 14.3006C30.4839 14.3173 30.515 14.3407 30.5408 14.3694C30.5665 14.3982 30.5863 14.4317 30.599 14.4682C30.6118 14.5046 30.6172 14.5431 30.6151 14.5817C30.5495 15.7371 30.3959 18.14 30.1048 21.2515C30.0978 21.3161 30.1036 21.3814 30.1221 21.4437C30.1405 21.506 30.1711 21.5639 30.2122 21.6143C30.2532 21.6646 30.3039 21.7062 30.3612 21.7368C30.4185 21.7673 30.4813 21.7862 30.5459 21.7922C30.6106 21.7983 30.6758 21.7914 30.7378 21.772C30.7998 21.7526 30.8572 21.7211 30.9069 21.6793C30.9566 21.6374 30.9974 21.5861 31.0271 21.5284C31.0568 21.4706 31.0746 21.4075 31.0797 21.3427C31.2383 19.6471 31.3561 18.1629 31.4415 16.9716C32.553 16.2173 33.9038 15.8563 35.4522 15.8987C37.2207 15.9478 38.4433 16.9794 39.0856 18.9648C39.1063 19.0284 39.1398 19.0871 39.1841 19.1373C39.2284 19.1875 39.2824 19.2282 39.343 19.2567C39.4035 19.2852 39.4693 19.301 39.5362 19.3032C39.6031 19.3053 39.6697 19.2937 39.7319 19.2691C39.7581 19.2586 42.3961 18.2442 44.7796 19.5437C44.836 19.5745 44.898 19.5939 44.9619 19.6007C45.0259 19.6076 45.0905 19.6017 45.1522 19.5836C45.2139 19.5654 45.2714 19.5353 45.3214 19.4949C45.3715 19.4546 45.4131 19.4047 45.4439 19.3483C45.4746 19.2918 45.494 19.2299 45.5009 19.1659C45.5077 19.102 45.5019 19.0373 45.4837 18.9756C45.4656 18.914 45.4354 18.8564 45.3951 18.8064C45.3547 18.7564 45.3049 18.7148 45.2484 18.684C43.0833 17.5035 40.8207 17.9268 39.8524 18.201C39.0328 16.1086 37.5292 14.9768 35.4796 14.9199C33.9972 14.8776 32.6711 15.1683 31.523 15.7803C31.5526 15.3223 31.5756 14.937 31.5927 14.6367C31.6022 14.4697 31.5786 14.3024 31.5233 14.1444C31.4681 13.9865 31.3822 13.8409 31.2706 13.7162C31.1591 13.5915 31.024 13.49 30.8732 13.4176C30.7223 13.3451 30.5587 13.3031 30.3916 13.294L28.6589 13.2001C28.678 12.6296 28.691 12.0648 28.699 11.6532C28.7049 11.3165 28.5772 10.991 28.3439 10.7481C28.1106 10.5052 27.7906 10.3645 27.4538 10.3568L25.4586 10.3145C25.474 9.78322 25.4682 9.21992 25.4586 8.79541C25.4497 8.47347 25.3197 8.16671 25.0947 7.9363C24.8697 7.70588 24.5661 7.56874 24.2445 7.55221C23.4527 7.51268 22.6389 7.5364 22.0959 7.56336C21.7752 7.57925 21.4714 7.7124 21.2424 7.9375C21.0134 8.1626 20.875 8.46398 20.8535 8.7844L20.827 9.18223H18.6008C18.2732 9.1842 17.958 9.30806 17.7167 9.52968C17.4753 9.7513 17.3251 10.0548 17.2953 10.3811C16.7683 16.5237 16.065 20.7703 15.5678 23.251C15.5425 23.3782 15.5687 23.5103 15.6406 23.6182C15.7126 23.7261 15.8245 23.801 15.9516 23.8265Z" fill="#3C3C4F"/>
<path d="M10.2551 30.3259C10.2815 30.3259 10.3078 30.3238 10.3338 30.3195C10.4619 30.2988 10.5766 30.2281 10.6526 30.1229C10.7286 30.0177 10.7597 29.8866 10.7391 29.7585C10.7096 29.575 10.0273 25.4502 8.13312 23.0296L9.20465 21.9869C9.31184 21.8814 9.4508 21.8143 9.60003 21.7958C9.74925 21.7772 9.90041 21.8085 10.0301 21.8845C11.8036 22.9575 13.4068 24.2895 14.7866 25.8362C14.9926 26.0739 15.257 26.254 15.5536 26.3586C16.2633 26.6007 16.9339 26.9449 17.5442 27.3804C18.9649 28.4457 19.6487 30.0133 19.5772 32.0392C19.5749 32.1035 19.5853 32.1675 19.6078 32.2278C19.6302 32.288 19.6644 32.3432 19.7082 32.3903C19.752 32.4373 19.8047 32.4753 19.8632 32.502C19.9217 32.5287 19.9849 32.5436 20.0491 32.5459C20.055 32.5459 20.0608 32.5459 20.0668 32.5459C20.1936 32.5458 20.3154 32.4965 20.4066 32.4084C20.4978 32.3204 20.5513 32.2004 20.5558 32.0737C20.7354 27.0132 16.6319 25.6808 15.7315 25.4501C13.5062 22.9316 11.5143 21.6035 10.5165 21.0335C10.2015 20.8546 9.83712 20.7823 9.47772 20.8276C9.11833 20.8729 8.78322 21.0332 8.52249 21.2847L7.12413 22.6448C7.03326 22.7333 6.98026 22.8536 6.97631 22.9804C6.97236 23.1072 7.01776 23.2305 7.10296 23.3245C9.03298 25.4523 9.76512 29.8693 9.77246 29.9138C9.79084 30.0286 9.84951 30.1332 9.93796 30.2087C10.0264 30.2842 10.1388 30.3257 10.2551 30.3259Z" fill="#3C3C4F"/>
<path d="M25.8963 23.7143C25.9609 23.7099 26.024 23.6926 26.0819 23.6635C26.1398 23.6345 26.1913 23.5943 26.2335 23.5452C26.2758 23.4961 26.3078 23.4391 26.3279 23.3775C26.3479 23.316 26.3556 23.251 26.3504 23.1865C26.3451 23.1219 26.3272 23.0591 26.2975 23.0015C26.2678 22.9439 26.227 22.8929 26.1774 22.8512C26.1279 22.8095 26.0705 22.7781 26.0087 22.7587C25.9469 22.7394 25.8819 22.7325 25.8174 22.7384C24.6392 22.8337 23.6467 23.4059 22.8675 24.4389C21.6835 26.0085 21.716 27.9845 22.9332 29.7917C22.3779 30.464 21.4532 32.1454 22.7543 34.9778C23.1041 35.7393 23.7359 36.3353 24.5165 36.64C24.577 36.6625 24.6414 36.6728 24.7059 36.6703C24.7704 36.6678 24.8338 36.6525 24.8924 36.6254C24.951 36.5983 25.0037 36.5599 25.0474 36.5124C25.0911 36.4648 25.1249 36.4091 25.147 36.3484C25.1691 36.2877 25.1789 36.2233 25.176 36.1588C25.1731 36.0943 25.1574 36.031 25.1299 35.9726C25.1024 35.9142 25.0636 35.8618 25.0158 35.8184C24.968 35.775 24.912 35.7415 24.8512 35.7198C24.3274 35.5079 23.9015 35.108 23.657 34.5985C23.6559 34.5958 23.6542 34.5938 23.653 34.5913C23.6519 34.5887 23.6515 34.5858 23.6504 34.5832C22.2668 31.5855 23.8092 30.2735 23.8719 30.222C23.8751 30.2196 23.8774 30.2164 23.8805 30.2138C23.8836 30.2113 23.8877 30.2092 23.8911 30.2062C23.8983 30.2 24.6289 29.5722 25.444 29.4595C25.5084 29.4515 25.5705 29.4308 25.6268 29.3986C25.683 29.3663 25.7323 29.3233 25.7718 29.2718C25.8113 29.2204 25.8402 29.1616 25.8568 29.0989C25.8734 29.0362 25.8773 28.9709 25.8685 28.9066C25.8596 28.8424 25.838 28.7805 25.805 28.7247C25.7721 28.6689 25.7283 28.6201 25.6764 28.5813C25.6244 28.5426 25.5652 28.5145 25.5023 28.4987C25.4394 28.483 25.374 28.4799 25.3099 28.4896C24.7266 28.5884 24.1716 28.8123 23.6831 29.146C23.1122 28.2489 22.4451 26.6255 23.6498 25.0286C24.2529 24.2285 25.009 23.7862 25.8963 23.7143Z" fill="#3C3C4F"/>
<path d="M49.8019 38.6916C49.0779 35.9156 48.1589 33.1942 47.0517 30.5477C48.0794 28.6418 49.1508 25.8734 48.6235 23.2495C48.5953 23.1248 48.5194 23.016 48.4121 22.9465C48.3048 22.8769 48.1746 22.8521 48.0492 22.8773C47.9239 22.9025 47.8133 22.9757 47.7412 23.0814C47.6692 23.187 47.6412 23.3166 47.6635 23.4425C48.0747 25.4885 47.3661 27.6871 46.5463 29.3861C45.53 27.0793 44.2987 24.8733 42.8687 22.7975C42.6908 22.5451 42.4548 22.3391 42.1806 22.1969C41.9065 22.0548 41.6021 21.9806 41.2933 21.9806H39.7625L39.5115 21.5293C39.3646 21.2655 39.1499 21.0458 38.8896 20.8928C38.6293 20.7399 38.3328 20.6593 38.0308 20.6594H38.0085C37.3401 20.6681 36.4618 20.6942 35.7878 20.7661C35.6662 20.5113 35.4767 20.295 35.24 20.1409C35.0034 19.9869 34.7289 19.9011 34.4467 19.8931C33.8549 19.8732 33.2625 19.9085 32.6773 19.9987C32.5113 20.026 32.353 20.0887 32.2134 20.1825C32.0737 20.2763 31.9558 20.3991 31.8677 20.5424C31.7796 20.6858 31.7234 20.8464 31.7028 21.0134C31.6823 21.1804 31.6978 21.3499 31.7485 21.5104C32.1681 22.8414 33.1377 25.9162 34.2614 29.4785C33.0778 27.5783 31.6108 25.2869 30.4665 23.7029C30.2763 23.4398 29.9958 23.2561 29.6787 23.187C29.3615 23.1178 29.03 23.1681 28.7477 23.3282L27.4196 24.0774C27.1266 24.2432 26.9078 24.5144 26.8077 24.8359C26.7077 25.1574 26.734 25.5049 26.8812 25.8077L32.8693 38.0893C31.596 37.6332 29.49 37.2987 26.7736 38.3673C26.4461 38.4937 26.1646 38.7163 25.9663 39.0059C25.7679 39.2955 25.6619 39.6384 25.6624 39.9894V41.298C25.6626 41.4257 25.7127 41.5484 25.802 41.6398C25.8912 41.7312 26.0127 41.7842 26.1404 41.7874C26.1643 41.7874 28.4506 41.8661 30.0836 43.4198C29.1558 43.7985 28.1847 44.0605 27.1925 44.2001C26.9914 44.2275 22.2685 44.8264 21.422 40.6399C21.0557 38.8292 21.2917 37.3631 22.1235 36.282C22.1627 36.231 22.1915 36.1728 22.2082 36.1107C22.2249 36.0486 22.2292 35.9838 22.2209 35.92C22.2126 35.8562 22.1917 35.7947 22.1596 35.739C22.1275 35.6833 22.0848 35.6344 22.0338 35.5952C21.9828 35.556 21.9246 35.5272 21.8625 35.5105C21.8004 35.4938 21.7356 35.4895 21.6718 35.4978C21.6081 35.5062 21.5466 35.527 21.4908 35.5591C21.4351 35.5912 21.3862 35.6339 21.347 35.6849C20.6509 36.5894 19.9323 38.2171 20.4616 40.8341C21.186 44.4163 24.2753 45.1058 26.0478 45.1992C25.8339 45.9531 25.6134 46.684 25.3893 47.3773C25.3696 47.4385 25.362 47.503 25.3672 47.5671C25.3723 47.6311 25.3901 47.6936 25.4193 47.7508C25.4486 47.8081 25.4889 47.859 25.5378 47.9007C25.5868 47.9424 25.6435 47.974 25.7047 47.9938C25.7658 48.0135 25.8303 48.0211 25.8944 48.0159C25.9585 48.0108 26.0209 47.993 26.0782 47.9638C26.1354 47.9345 26.1863 47.8942 26.228 47.8453C26.2697 47.7963 26.3013 47.7396 26.3211 47.6784C26.5752 46.8908 26.8253 46.0549 27.066 45.1937C27.2173 45.1833 27.306 45.1723 27.3117 45.1714C28.5102 45.007 29.6795 44.6748 30.7854 44.1845C31.6684 45.063 33.6918 46.6166 37.096 46.8103C37.4867 46.8328 37.8653 46.9537 38.1968 47.1618C38.5282 47.3699 38.8017 47.6584 38.9917 48.0005L41.3653 52.2204C41.4289 52.3335 41.535 52.4168 41.66 52.4518C41.785 52.4869 41.9189 52.4708 42.0321 52.4071C42.1453 52.3435 42.2285 52.2375 42.2636 52.1124C42.2986 51.9874 42.2825 51.8535 42.2188 51.7404L39.8454 47.5199C39.5751 47.0343 39.1864 46.625 38.7154 46.33C38.2445 46.0349 37.7066 45.8638 37.1517 45.8324C32.9656 45.5944 31.0754 43.0442 31.0577 43.0197C31.0455 43.0026 31.0322 42.9863 31.0179 42.9708C29.5416 41.3806 27.5469 40.9589 26.6414 40.8475V39.9887C26.6417 39.8345 26.6887 39.684 26.7763 39.5571C26.8639 39.4302 26.9878 39.3329 27.1319 39.2779C30.747 37.8562 33.0849 39.1886 33.5588 39.5015L33.9943 40.3909C34.0522 40.5061 34.1533 40.5939 34.2755 40.635C34.3977 40.6762 34.5313 40.6675 34.6471 40.6108C34.7629 40.5541 34.8517 40.4539 34.8941 40.3321C34.9366 40.2103 34.9292 40.0767 34.8737 39.9603L34.3027 38.7939L27.7615 25.3792C27.7235 25.3007 27.7167 25.2107 27.7427 25.1274C27.7686 25.0442 27.8253 24.9739 27.9012 24.9309L29.2292 24.1816C29.302 24.1401 29.3875 24.1269 29.4694 24.1445C29.5513 24.1621 29.6238 24.2092 29.6732 24.2769C31.932 27.4035 35.4796 33.3475 35.5151 33.4072C35.5766 33.5102 35.6739 33.587 35.7883 33.623C35.9027 33.6591 36.0264 33.6519 36.1359 33.6028C36.2454 33.5537 36.333 33.4661 36.3822 33.3566C36.4313 33.2472 36.4386 33.1235 36.4027 33.0091C34.8092 27.9609 33.2478 23.0087 32.6828 21.2167C32.6742 21.19 32.6716 21.1617 32.675 21.1338C32.6785 21.106 32.688 21.0792 32.7028 21.0554C32.7172 21.0316 32.7365 21.0113 32.7595 20.9958C32.7825 20.9804 32.8086 20.9701 32.836 20.9657C33.3593 20.8857 33.889 20.8545 34.4181 20.8725C34.521 20.8757 34.6209 20.9073 34.7069 20.9636C34.793 21.02 34.8618 21.099 34.9058 21.192L35.0582 21.5094C35.1038 21.6041 35.1787 21.6817 35.2718 21.7306C35.3649 21.7795 35.4712 21.7972 35.5751 21.781C36.3869 21.6839 37.2038 21.6368 38.0214 21.6398C38.1504 21.6389 38.2773 21.6724 38.389 21.737C38.5006 21.8015 38.5931 21.8947 38.6567 22.0069L39.0479 22.7083C39.0903 22.7844 39.1523 22.8478 39.2275 22.892C39.3026 22.9361 39.3882 22.9594 39.4754 22.9594H41.2936C41.4453 22.9592 41.5949 22.9955 41.7297 23.0653C41.8645 23.135 41.9805 23.2362 42.0679 23.3602C46.0093 28.9676 48.1269 36.1213 48.8539 38.9364C49.1023 39.8965 49.455 40.8265 49.9058 41.7099L52.0981 46.0054C52.1571 46.121 52.2597 46.2085 52.3832 46.2485C52.5067 46.2886 52.6411 46.2779 52.7568 46.2189C52.8724 46.1599 52.9599 46.0573 52.9999 45.9338C53.04 45.8102 53.0293 45.6759 52.9703 45.5602L50.7778 41.2646C50.3596 40.4451 50.0324 39.5823 49.8019 38.6916Z" fill="#3C3C4F"/>
<path d="M39.2538 8.52484C38.8259 8.39175 38.3706 8.37316 37.9332 8.47093C37.4959 8.5687 37.0918 8.77942 36.7613 9.08207C36.3416 9.47719 36.0656 10.0009 35.9768 10.5705C35.8819 11.0352 35.9071 11.5164 36.0501 11.9686C36.1931 12.4209 36.4491 12.8291 36.794 13.1547C37.2833 13.631 37.9395 13.8971 38.6223 13.8963C38.8154 13.8964 39.008 13.8748 39.1962 13.8317C40.4499 13.5445 41.1495 12.6873 41.1665 11.4175C41.1733 11.0717 41.1355 10.7265 41.0541 10.3904C40.9433 9.94915 40.7188 9.54471 40.4029 9.21738C40.087 8.89004 39.6908 8.65126 39.2538 8.52484ZM38.9777 12.8772C38.713 12.9372 38.4374 12.9301 38.1761 12.8567C37.9148 12.7833 37.676 12.6458 37.4812 12.4567C37.251 12.2425 37.0802 11.9723 36.9855 11.6724C36.8907 11.3726 36.8752 11.0533 36.9405 10.7457C36.9928 10.3868 37.1629 10.0553 37.4239 9.80348C37.7144 9.5368 38.0947 9.38953 38.4891 9.3911C38.653 9.39143 38.816 9.41563 38.973 9.46296C39.2471 9.54121 39.4959 9.68999 39.6946 9.89443C39.8933 10.0989 40.0349 10.3518 40.1052 10.6281C40.1659 10.8823 40.1936 11.1433 40.1876 11.4046C40.1765 12.2115 39.781 12.6932 38.9777 12.8772Z" fill="#3C3C4F"/>
<path d="M11.7739 12.6091H11.7568C11.5945 12.6042 10.6592 12.606 9.99 13.2712C9.50915 13.7491 9.28849 14.4289 9.33395 15.294C9.41499 16.8293 10.3057 17.3507 10.828 17.5256C11.0554 17.6009 11.2935 17.6391 11.5331 17.6385C12.0604 17.6346 12.5729 17.4632 12.9966 17.1492C13.9393 16.4594 14.3408 15.5504 14.1275 14.5895C14.0231 14.039 13.7319 13.5413 13.3031 13.1805C12.8744 12.8197 12.3342 12.6179 11.7739 12.6091ZM12.4185 16.3591C12.2394 16.4975 12.0299 16.5913 11.8073 16.6326C11.5847 16.6739 11.3555 16.6616 11.1386 16.5967C10.6219 16.4243 10.3517 15.9814 10.3129 15.2426C10.2828 14.672 10.4051 14.2441 10.6761 13.971C11.036 13.6085 11.5825 13.5876 11.7028 13.5876C11.7177 13.5876 11.726 13.5876 11.7268 13.5876C11.7359 13.5876 11.7474 13.5876 11.7563 13.5876C11.7574 13.5878 11.7585 13.5878 11.7596 13.5876C11.885 13.5876 12.9109 13.6243 13.1724 14.8017C13.2993 15.3763 13.0459 15.9001 12.4188 16.3591H12.4185Z" fill="#3C3C4F"/>
<path d="M15.698 35.9706C15.8766 35.6544 15.991 35.306 16.0346 34.9454C16.0782 34.5848 16.0502 34.2192 15.9521 33.8695C15.7734 33.1773 15.4869 32.5176 15.1031 31.9145C14.2476 30.621 12.5748 30.1299 11.2111 30.7724C10.4642 31.1243 9.58437 31.9114 9.63463 33.6621C9.67147 34.9368 10.0599 35.935 10.7893 36.6268C11.357 37.1622 12.1094 37.458 12.8897 37.4525C13.046 37.4524 13.2021 37.4412 13.3567 37.4189C13.4166 37.4103 13.4756 37.4002 13.5342 37.389C14.1253 38.1387 14.6091 38.6633 14.832 38.8958C14.941 40.9378 14.4085 44.9463 14.4026 44.9878C14.3932 45.0519 14.3967 45.1172 14.4128 45.18C14.4289 45.2427 14.4572 45.3016 14.4962 45.3533C14.5353 45.405 14.5841 45.4484 14.64 45.4811C14.696 45.5138 14.7578 45.535 14.822 45.5437C14.8862 45.5523 14.9514 45.5481 15.014 45.5313C15.0765 45.5145 15.1351 45.4855 15.1864 45.4459C15.2376 45.4063 15.2805 45.3569 15.3125 45.3006C15.3446 45.2444 15.3651 45.1823 15.373 45.118C15.3969 44.9397 15.9571 40.7263 15.7966 38.6456C15.7875 38.5282 15.7365 38.4179 15.6528 38.335C15.6475 38.3295 15.1728 37.857 14.5192 37.0539C15.0069 36.8119 15.4157 36.4362 15.698 35.9706ZM14.8543 35.4738C14.4394 36.1783 13.651 36.3879 13.2178 36.4502C12.9043 36.4982 12.584 36.4752 12.2805 36.383C11.977 36.2908 11.698 36.1317 11.4641 35.9174C10.9291 35.4092 10.6429 34.6407 10.614 33.634C10.5857 32.6397 10.9174 31.9934 11.629 31.6575C11.8949 31.5325 12.1852 31.468 12.4791 31.4686C12.8381 31.4716 13.1908 31.5631 13.506 31.735C13.8212 31.9069 14.0892 32.1539 14.2861 32.4541C14.6122 32.9691 14.8554 33.5321 15.007 34.1226C15.0716 34.3468 15.0913 34.5816 15.0651 34.8134C15.039 35.0453 14.9673 35.2697 14.8543 35.4738Z" fill="#3C3C4F"/>
</svg>
