<svg width="162" height="60" viewBox="0 0 162 60" fill="none" xmlns="http://www.w3.org/2000/svg">
<rect width="60" height="60" rx="5" fill="#E5E5E5"/>
<path d="M41.8952 34.6566C41.8903 35.2454 41.8707 35.9165 41.8256 36.6433C41.8256 36.6433 46.1279 36.9849 47.9061 33.1838C48.0459 32.8807 48.1101 32.5482 48.0933 32.2148C48.0732 31.7638 48.0476 31.0193 48.0463 30.1289C45.7479 31.3939 43.6432 32.8498 41.8952 34.6566Z" fill="#FFCAC0"/>
<path d="M48.0465 30.129C48.0455 29.3604 48.0627 28.4834 48.1173 27.5933H45.8999L41.8259 32.1923C41.8259 32.1923 41.9081 33.1585 41.8956 34.6567C42.7711 34.5101 46.0898 33.7291 48.0465 30.129Z" fill="#E5837C"/>
<path d="M36.0928 22.322C36.0842 23.5951 36.0415 25.189 35.9038 26.4306C38.5245 29.235 41.3715 31.3168 45.0002 30.9051C45.7088 30.206 47.0761 28.7159 47.4742 27.2783L46.2626 24.771L45.3827 19.2851C45.3827 19.2851 39.2274 19.1316 36.0928 22.322Z" fill="#FFCAC0"/>
<path d="M36.0769 20.137C36.0769 20.137 36.1012 21.0759 36.0929 22.322L36.5744 22.0844C36.5744 22.0844 36.6857 23.2561 38.355 22.7434C40.0242 22.2306 41.2094 21.3721 42.6119 21.1336C42.6119 21.1336 42.8221 23.2007 45.62 21.849C45.9041 21.7118 46.1869 21.5686 46.4661 21.4222L46.6565 18.2894C46.6565 18.2894 40.2177 17.5019 36.0769 20.137Z" fill="#E5837C"/>
<path d="M50.3692 25.1226C53.6322 20.4698 50.1097 17.6128 50.1097 17.6128C49.3029 14.9632 47.3021 11.8438 42.341 12.9585C36.4441 14.2833 35.0012 18.335 34.6566 20.5206C34.6314 20.6773 34.6507 20.838 34.7122 20.9843C34.7737 21.1306 34.8751 21.2567 35.0047 21.3483C35.1344 21.44 35.2871 21.4934 35.4456 21.5025C35.604 21.5116 35.7619 21.4761 35.9012 21.4C36.8207 20.9021 37.2668 20.3793 37.2668 20.3793C37.2039 20.4744 37.1472 20.5735 37.0971 20.6759C37.0282 20.8131 37.0045 20.9685 37.0292 21.12C37.0539 21.2715 37.1259 21.4113 37.2348 21.5194C37.3437 21.6276 37.484 21.6986 37.6356 21.7223C37.7873 21.746 37.9425 21.7212 38.0792 21.6514C40.6399 20.3548 44.0818 19.3798 44.0818 19.3798C44.0818 19.3798 43.7142 19.7209 43.5744 20.4092C43.5553 20.5059 43.5607 20.6059 43.5902 20.6999C43.6197 20.794 43.6723 20.8792 43.7432 20.9477C43.8141 21.0163 43.9011 21.0659 43.9961 21.0921C44.0911 21.1184 44.1912 21.1204 44.2873 21.098C44.5753 21.0272 44.9554 20.8639 45.4447 20.5307C45.4447 20.5307 43.7789 24.1957 46.5048 26.4371C46.5048 26.4373 48.7336 27.4551 50.3692 25.1226Z" fill="#5C5C6D"/>
<path d="M35.4615 26.6144C35.4815 26.4848 35.5481 26.3669 35.649 26.2829C35.7498 26.199 35.8779 26.1548 36.009 26.1588C36.7562 26.1747 37.4934 25.9848 38.1399 25.6098C39.4307 24.889 40.181 25.303 40.9977 25.8267C41.2005 25.9571 41.4233 26.0534 41.6573 26.1118C42.2605 26.2614 43.4717 26.4641 44.6979 26.1006C44.6979 26.1006 42.3388 29.6804 45.0001 30.905C45.0001 30.905 44.2023 33.3605 40.2783 33.3605C38.3164 33.3605 37.136 32.6934 36.446 32.0269C35.8919 31.484 35.5369 30.7702 35.4382 30.0008C35.2855 28.8766 35.2933 27.7364 35.4615 26.6144Z" fill="#BDF2DC"/>
<path d="M38.1399 24.3698C38.3682 24.3698 38.5533 24.1847 38.5533 23.9564C38.5533 23.7281 38.3682 23.543 38.1399 23.543C37.9116 23.543 37.7265 23.7281 37.7265 23.9564C37.7265 24.1847 37.9116 24.3698 38.1399 24.3698Z" fill="#E5837C"/>
<path d="M40.9091 24.3698C41.1374 24.3698 41.3225 24.1847 41.3225 23.9564C41.3225 23.7281 41.1374 23.543 40.9091 23.543C40.6807 23.543 40.4957 23.7281 40.4957 23.9564C40.4957 24.1847 40.6807 24.3698 40.9091 24.3698Z" fill="#E5837C"/>
<path d="M45.9013 26.2062C45.9013 26.2062 45.7756 24.0103 47.4738 23.9291C48.6953 23.8705 48.9577 25.0747 49.0086 25.7551C49.0317 26.0658 48.9999 26.3781 48.9147 26.6777C48.7439 27.279 48.3157 28.245 47.3214 28.2815C47.1308 28.2868 46.942 28.2425 46.7735 28.153C46.6051 28.0635 46.4628 27.9318 46.3605 27.7708C46.1595 27.4568 45.9464 26.9547 45.9013 26.2062Z" fill="#FFCAC0"/>
<path d="M47.0288 26.7799C46.951 26.7798 46.8758 26.7519 46.8168 26.7012C46.7578 26.6505 46.7189 26.5803 46.7071 26.5034C46.527 25.3278 47.1669 24.8453 47.5305 24.7544C47.6136 24.7341 47.7013 24.7473 47.7748 24.7912C47.8482 24.835 47.9015 24.906 47.9231 24.9888C47.9447 25.0716 47.9328 25.1595 47.8901 25.2336C47.8474 25.3078 47.7773 25.3621 47.6948 25.385C47.6411 25.4018 47.2221 25.561 47.3513 26.4048C47.3644 26.4901 47.343 26.5772 47.2919 26.6468C47.2408 26.7165 47.1642 26.763 47.0789 26.7762C47.0623 26.7787 47.0455 26.78 47.0288 26.7799Z" fill="#E5837C"/>
<path d="M49.8887 25.2152C49.8606 25.248 49.8394 25.2861 49.8263 25.3273C49.8131 25.3684 49.8082 25.4117 49.812 25.4548C49.8157 25.4978 49.8279 25.5396 49.848 25.5779C49.868 25.6161 49.8955 25.65 49.9287 25.6776C49.962 25.7051 50.0004 25.7258 50.0417 25.7384C50.083 25.7509 50.1264 25.7552 50.1694 25.7508C50.2124 25.7465 50.254 25.7336 50.292 25.713C50.3299 25.6924 50.3634 25.6645 50.3905 25.6308C50.4744 25.5296 50.5569 25.4212 50.6358 25.3088C52.4022 22.7902 52.2269 20.7654 51.7689 19.5102C51.4797 18.7179 51.0086 18.0045 50.3935 17.4274C49.8696 15.7541 49.0598 14.4729 47.9859 13.6183C46.5144 12.4475 44.5914 12.1184 42.2694 12.64C36.2251 13.9982 34.7036 18.1283 34.3347 20.4693C34.3 20.686 34.3268 20.9081 34.412 21.1104C34.4972 21.3127 34.6374 21.4871 34.8166 21.6137C34.9958 21.7404 35.207 21.8143 35.4261 21.8271C35.6452 21.8398 35.8635 21.791 36.0562 21.686C36.2875 21.561 36.5112 21.4224 36.7261 21.271C36.7751 21.4538 36.8722 21.6201 37.0074 21.7526C37.1639 21.9099 37.3666 22.0131 37.5859 22.0471C37.8052 22.0811 38.0296 22.0441 38.2264 21.9414C39.991 21.0475 42.2063 20.3008 43.3707 19.9349C43.3216 20.068 43.2829 20.2046 43.2549 20.3437C43.2249 20.4942 43.2331 20.6499 43.279 20.7964C43.3248 20.943 43.4068 21.0756 43.5173 21.1822C43.6278 21.2887 43.7633 21.3658 43.9114 21.4063C44.0595 21.4468 44.2154 21.4494 44.3648 21.4139C44.534 21.3708 44.6989 21.3126 44.8577 21.2399C44.6589 21.974 44.478 23.0976 44.7578 24.253C44.7675 24.2949 44.7855 24.3344 44.8106 24.3694C44.8358 24.4043 44.8676 24.4339 44.9042 24.4565C44.9408 24.479 44.9816 24.4941 45.0241 24.5009C45.0666 24.5076 45.11 24.5059 45.1518 24.4957C45.1936 24.4856 45.233 24.4673 45.2677 24.4419C45.3024 24.4164 45.3318 24.3844 45.354 24.3476C45.3763 24.3107 45.391 24.2699 45.3974 24.2273C45.4037 24.1848 45.4016 24.1414 45.3911 24.0996C44.9767 22.3882 45.7337 20.6817 45.7412 20.665C45.7706 20.6003 45.778 20.5278 45.7623 20.4585C45.7466 20.3892 45.7087 20.3269 45.6543 20.2811C45.5999 20.2354 45.5321 20.2086 45.4611 20.205C45.3902 20.2014 45.32 20.221 45.2612 20.261C44.943 20.4937 44.587 20.6696 44.2089 20.7812C44.1668 20.7913 44.1228 20.7905 44.0811 20.7789C44.0394 20.7672 44.0014 20.7452 43.9706 20.7147C43.9382 20.6844 43.9141 20.6464 43.9006 20.6042C43.887 20.562 43.8844 20.517 43.8931 20.4735C43.9484 20.1563 44.0902 19.8604 44.3027 19.6185C44.3563 19.5688 44.3916 19.5025 44.403 19.4302C44.4143 19.358 44.401 19.284 44.3652 19.2203C44.3294 19.1565 44.2732 19.1067 44.2056 19.0787C44.1381 19.0508 44.0631 19.0464 43.9927 19.0663C43.9579 19.0756 40.4908 20.0643 37.9316 21.3607C37.8568 21.4012 37.7708 21.4161 37.6867 21.4033C37.6026 21.3906 37.525 21.3507 37.4656 21.2898C37.4035 21.2305 37.3625 21.1525 37.3486 21.0678C37.3348 20.983 37.349 20.896 37.389 20.8201C37.4328 20.7304 37.4824 20.6437 37.5375 20.5605C37.5835 20.4914 37.6015 20.4074 37.5877 20.3255C37.574 20.2437 37.5295 20.1702 37.4633 20.12C37.3972 20.0698 37.3144 20.0468 37.2319 20.0556C37.1493 20.0644 37.0733 20.1044 37.0192 20.1673C37.0151 20.1721 36.5925 20.6553 35.7457 21.1138C35.6598 21.1609 35.5624 21.183 35.4646 21.1775C35.3668 21.172 35.2725 21.1391 35.1925 21.0826C35.1125 21.0261 35.05 20.9482 35.0121 20.8578C34.9742 20.7675 34.9624 20.6683 34.9782 20.5716C35.3214 18.3939 36.7435 14.5504 42.4121 13.2767C47.0818 12.2277 49.0058 15.1073 49.7972 17.7079C49.8161 17.7698 49.853 17.8246 49.9031 17.8656C50.0368 17.9751 53.1435 20.5983 50.1018 24.9358C50.0334 25.0328 49.9615 25.1272 49.8887 25.2152Z" fill="#3C3C4F"/>
<path d="M49.2273 26.7658C49.3233 26.4294 49.3592 26.0787 49.3331 25.7298C49.2281 24.3259 48.5438 23.5513 47.4579 23.6026C47.2191 23.607 46.9838 23.6602 46.7664 23.7591C46.549 23.858 46.3542 24.0005 46.1941 24.1776C46.0037 24.396 45.8581 24.6498 45.7658 24.9244C45.5059 25.2831 45.1106 25.575 44.5883 25.7917C43.4448 26.1258 42.3108 25.9375 41.7349 25.7946C41.5355 25.7449 41.3456 25.6628 41.1728 25.5516C40.2564 24.9638 39.3834 24.5409 37.9803 25.3245C37.463 25.6225 36.8832 25.7957 36.2871 25.8304C36.3599 24.9378 36.4031 23.8422 36.4159 22.5666C36.4167 22.4803 36.3831 22.3971 36.3227 22.3355C36.2622 22.2738 36.1797 22.2387 36.0933 22.2378H36.0899C36.0041 22.2378 35.9217 22.2717 35.8607 22.3321C35.7997 22.3925 35.7651 22.4745 35.7642 22.5603C35.751 23.8861 35.7047 25.0126 35.6264 25.9127C35.4984 25.9732 35.3871 26.064 35.3021 26.1772C35.2172 26.2905 35.1612 26.4228 35.139 26.5626C34.965 27.7158 34.9568 28.888 35.1147 30.0435C35.224 30.8854 35.6128 31.6663 36.2189 32.2609C36.8917 32.911 38.1419 33.6859 40.2779 33.6859C40.7077 33.6873 41.1371 33.6559 41.5622 33.592C41.5778 34.3271 41.5762 35.3924 41.4999 36.6231C41.4946 36.7084 41.523 36.7923 41.579 36.8568C41.635 36.9214 41.7141 36.9613 41.7992 36.9681C41.8131 36.9692 41.9223 36.9775 42.1045 36.9775C42.8455 36.9733 43.5822 36.8634 44.2922 36.6511C46.0817 36.1138 47.4333 34.9626 48.2008 33.3221C48.3624 32.9711 48.437 32.5863 48.4182 32.2004C48.3834 31.4167 48.337 29.8608 48.4123 28.179C48.7718 27.8656 49.0506 27.3896 49.2273 26.7658ZM36.6722 31.7917C36.2651 31.3932 35.9758 30.8901 35.836 30.3378C36.5372 30.6707 37.2773 30.9149 38.039 31.0646C38.0812 31.0735 38.1248 31.074 38.1672 31.0659C38.2097 31.0579 38.2501 31.0414 38.2861 31.0176C38.3221 30.9938 38.353 30.9631 38.3771 30.9272C38.4011 30.8913 38.4178 30.8511 38.4261 30.8087C38.4345 30.7663 38.4343 30.7227 38.4256 30.6804C38.4169 30.6381 38.4 30.5979 38.3756 30.5623C38.3513 30.5266 38.3201 30.4961 38.2839 30.4726C38.2477 30.449 38.2072 30.433 38.1647 30.4252C37.3055 30.2604 36.4779 29.9607 35.7124 29.5371C35.671 29.1178 35.6515 28.6966 35.6541 28.2753C36.2418 28.4914 37.5411 28.8751 39.3435 28.8751C40.3749 28.8727 41.4026 28.7522 42.4065 28.5157C42.4486 28.5065 42.4884 28.4889 42.5237 28.4641C42.559 28.4394 42.589 28.4078 42.612 28.3713C42.635 28.3349 42.6506 28.2942 42.6577 28.2517C42.6649 28.2092 42.6636 28.1656 42.6538 28.1237C42.644 28.0817 42.626 28.042 42.6008 28.007C42.5756 27.972 42.5437 27.9424 42.507 27.9199C42.4702 27.8973 42.4294 27.8822 42.3868 27.8756C42.3442 27.8689 42.3007 27.8708 42.2588 27.8811C38.7299 28.7022 36.1881 27.7916 35.6804 27.5852C35.7006 27.2872 35.7336 26.9792 35.7837 26.6644C35.7906 26.6131 35.8163 26.5662 35.8558 26.5327C35.8953 26.4992 35.9458 26.4816 35.9976 26.4833C36.8046 26.5021 37.6011 26.2979 38.2995 25.893C39.3968 25.2804 39.9846 25.5624 40.8226 26.0997C41.0554 26.2494 41.3111 26.3598 41.5796 26.4267C42.39 26.6301 43.2315 26.679 44.06 26.5707C43.7067 27.278 43.2556 28.4455 43.4609 29.4935C42.7019 29.97 41.8596 30.2986 40.9785 30.462C40.8986 30.4766 40.827 30.5206 40.7779 30.5853C40.7287 30.65 40.7055 30.7308 40.7127 30.8117C40.72 30.8926 40.7572 30.9679 40.8171 31.0228C40.8771 31.0778 40.9553 31.1083 41.0366 31.1085C41.0563 31.1085 41.0759 31.1067 41.0953 31.1031C42.0084 30.9344 42.8837 30.6025 43.6791 30.1234C43.8848 30.5114 44.1967 30.8327 44.5784 31.0499C44.2634 31.6342 43.2034 33.0333 40.2794 33.0333C38.7598 33.0339 37.5129 32.6043 36.6722 31.7917ZM47.7674 32.2284C47.7815 32.5091 47.7277 32.7892 47.6107 33.0448C46.2054 36.0483 43.1665 36.3208 42.1697 36.3262C42.2315 35.1517 42.2281 34.1464 42.2112 33.4605C44.4244 32.898 45.1348 31.4465 45.2799 31.0847C45.7579 30.611 46.2022 30.1044 46.6097 29.5688C46.6617 29.4997 46.684 29.4128 46.6719 29.3273C46.6598 29.2417 46.6141 29.1644 46.5451 29.1125C46.5108 29.0868 46.4719 29.0681 46.4305 29.0574C46.389 29.0467 46.3459 29.0443 46.3035 29.0503C46.2179 29.0625 46.1407 29.1081 46.0887 29.1772C45.7338 29.6442 45.3491 30.0879 44.9369 30.5053C44.7437 30.4035 44.5731 30.2638 44.4353 30.0945C44.2974 29.9251 44.1952 29.7297 44.1348 29.5199C43.7909 28.3203 44.6986 26.7227 44.9209 26.3565C45.1497 26.2574 45.3686 26.1369 45.5747 25.9965C45.5707 26.1272 45.5747 26.2115 45.5756 26.2245C45.5832 26.3496 45.5954 26.473 45.612 26.5909C45.6175 26.6337 45.6314 26.675 45.6529 26.7123C45.6745 26.7497 45.7032 26.7824 45.7375 26.8086C45.7718 26.8348 45.8109 26.8539 45.8526 26.8648C45.8944 26.8757 45.9378 26.8783 45.9806 26.8723C46.0233 26.8663 46.0644 26.8519 46.1015 26.8299C46.1386 26.8078 46.1709 26.7787 46.1967 26.7441C46.2224 26.7095 46.241 26.6701 46.2514 26.6283C46.2618 26.5864 46.2638 26.5429 46.2573 26.5003C46.2431 26.3992 46.2327 26.2936 46.2263 26.1867C46.2263 26.1766 46.178 25.1669 46.68 24.6113C46.7829 24.499 46.9078 24.4092 47.0471 24.3476C47.1863 24.2859 47.3368 24.2537 47.4891 24.253C48.3795 24.2093 48.6295 25.0588 48.6834 25.778C48.7036 26.0505 48.6755 26.3245 48.6004 26.5873C48.4277 27.1955 48.0633 27.9266 47.3087 27.9543C47.1986 27.9581 47.089 27.9374 46.9878 27.8937C46.9086 27.8606 46.8194 27.8601 46.7397 27.8923C46.6601 27.9246 46.5964 27.987 46.5626 28.066C46.5287 28.145 46.5275 28.2341 46.559 28.314C46.5906 28.394 46.6524 28.4582 46.7311 28.4927C46.9047 28.5678 47.0918 28.6065 47.281 28.6066C47.2982 28.6066 47.3154 28.6066 47.3326 28.6057C47.4725 28.6003 47.6113 28.5784 47.7461 28.5404C47.6922 30.0939 47.7347 31.4949 47.7674 32.2284Z" fill="#3C3C4F"/>
<path d="M39.5168 30.575C39.4592 30.5735 39.4021 30.5715 39.3452 30.5689C39.3022 30.5664 39.259 30.5724 39.2182 30.5866C39.1775 30.6009 39.14 30.6231 39.1079 30.6519C39.0758 30.6808 39.0497 30.7158 39.0313 30.7548C39.0128 30.7938 39.0023 30.8361 39.0003 30.8792C38.9983 30.9223 39.0049 30.9654 39.0197 31.006C39.0345 31.0465 39.0572 31.0837 39.0865 31.1154C39.1158 31.1471 39.1512 31.1727 39.1904 31.1906C39.2297 31.2085 39.2721 31.2185 39.3153 31.2199C39.3769 31.2228 39.439 31.2249 39.5015 31.2265H39.5094C39.5951 31.2263 39.6773 31.1925 39.7382 31.1322C39.7991 31.0719 39.8338 30.99 39.8348 30.9043C39.8358 30.8186 39.8029 30.736 39.7434 30.6743C39.6839 30.6126 39.6025 30.5769 39.5168 30.5749V30.575Z" fill="#3C3C4F"/>
<path d="M18.1023 35.1366C18.1072 35.7254 18.1268 36.3965 18.1719 37.1233C18.1719 37.1233 13.8696 37.4648 12.0913 33.6638C11.9516 33.3607 11.8874 33.0281 11.9042 32.6947C11.9243 32.2437 11.9499 31.4993 11.9512 30.6089C14.2496 31.8739 16.3543 33.3298 18.1023 35.1366Z" fill="#FFCAC0"/>
<path d="M11.951 30.609C11.9519 29.8404 11.9347 28.9634 11.8801 28.0732H14.0975L18.1715 32.6723C18.1715 32.6723 18.0893 33.6385 18.1019 35.1367C17.2263 34.9901 13.9076 34.2091 11.951 30.609Z" fill="#E5837C"/>
<path d="M23.9047 22.802C23.9132 24.0751 23.9559 25.669 24.0936 26.9105C21.473 29.715 18.6259 31.7968 14.9973 31.3851C14.2886 30.6859 12.9214 29.1959 12.5233 27.7583L13.7349 25.251L14.6148 19.7651C14.6148 19.7651 20.7701 19.6116 23.9047 22.802Z" fill="#FFCAC0"/>
<path d="M23.9206 20.617C23.9206 20.617 23.8963 21.5559 23.9046 22.802L23.4231 22.5643C23.4231 22.5643 23.3118 23.7361 21.6425 23.2234C19.9733 22.7106 18.7881 21.8521 17.3856 21.6136C17.3856 21.6136 17.1754 23.6806 14.3775 22.329C14.0934 22.1918 13.8106 22.0486 13.5314 21.9022L13.341 18.7694C13.341 18.7694 19.7798 17.9819 23.9206 20.617Z" fill="#E5837C"/>
<path d="M9.62829 25.6026C6.36525 20.9497 9.8878 18.0928 9.8878 18.0928C10.6946 15.4432 12.6954 12.3238 17.6565 13.4385C23.5534 14.7633 24.9963 18.8149 25.3408 21.0006C25.3661 21.1573 25.3468 21.3179 25.2853 21.4643C25.2238 21.6106 25.1224 21.7367 24.9928 21.8283C24.8631 21.9199 24.7104 21.9733 24.5519 21.9825C24.3935 21.9916 24.2356 21.9561 24.0963 21.88C23.1768 21.382 22.7307 20.8593 22.7307 20.8593C22.7936 20.9544 22.8503 21.0535 22.9004 21.1559C22.9693 21.2931 22.993 21.4485 22.9683 21.6C22.9436 21.7514 22.8716 21.8913 22.7627 21.9994C22.6538 22.1076 22.5135 22.1786 22.3619 22.2023C22.2102 22.226 22.055 22.2011 21.9183 22.1313C19.3576 20.8347 15.9157 19.8597 15.9157 19.8597C15.9157 19.8597 16.2833 20.2009 16.4231 20.8891C16.4422 20.9859 16.4368 21.0858 16.4073 21.1799C16.3778 21.274 16.3252 21.3592 16.2543 21.4277C16.1834 21.4962 16.0964 21.5459 16.0014 21.5721C15.9064 21.5984 15.8063 21.6004 15.7102 21.5779C15.4222 21.5072 15.0421 21.3439 14.5528 21.0107C14.5528 21.0107 16.2186 24.6757 13.4927 26.917C13.4927 26.9172 11.2639 27.9351 9.62829 25.6026Z" fill="#383333"/>
<path d="M24.536 27.0944C24.516 26.9647 24.4494 26.8468 24.3485 26.7629C24.2477 26.679 24.1196 26.6348 23.9885 26.6387C23.2413 26.6547 22.5041 26.4648 21.8576 26.0897C20.5668 25.369 19.8165 25.783 18.9998 26.3067C18.797 26.4371 18.5742 26.5334 18.3402 26.5918C17.737 26.7413 16.5258 26.9441 15.2996 26.5806C15.2996 26.5806 17.6587 30.1603 14.9974 31.385C14.9974 31.385 15.7952 33.8405 19.7192 33.8405C21.6811 33.8405 22.8615 33.1734 23.5515 32.5069C24.1056 31.964 24.4606 31.2502 24.5593 30.4807C24.712 29.3566 24.7042 28.2164 24.536 27.0944Z" fill="#BDF2DC"/>
<path d="M21.8575 24.8498C21.6292 24.8498 21.4441 24.6647 21.4441 24.4364C21.4441 24.208 21.6292 24.0229 21.8575 24.0229C22.0858 24.0229 22.2709 24.208 22.2709 24.4364C22.2709 24.6647 22.0858 24.8498 21.8575 24.8498Z" fill="#E5837C"/>
<path d="M19.0884 24.8498C18.8601 24.8498 18.675 24.6647 18.675 24.4364C18.675 24.208 18.8601 24.0229 19.0884 24.0229C19.3167 24.0229 19.5018 24.208 19.5018 24.4364C19.5018 24.6647 19.3167 24.8498 19.0884 24.8498Z" fill="#E5837C"/>
<path d="M14.0962 26.6862C14.0962 26.6862 14.2218 24.4903 12.5236 24.409C11.3022 24.3505 11.0398 25.5547 10.9888 26.2351C10.9657 26.5458 10.9975 26.8581 11.0828 27.1577C11.2535 27.759 11.6818 28.725 12.676 28.7615C12.8667 28.7668 13.0555 28.7225 13.2239 28.633C13.3923 28.5435 13.5346 28.4118 13.6369 28.2508C13.838 27.9368 14.0511 27.4347 14.0962 26.6862Z" fill="#FFCAC0"/>
<path d="M12.9687 27.2599C13.0465 27.2598 13.1217 27.2319 13.1807 27.1811C13.2397 27.1304 13.2786 27.0603 13.2904 26.9834C13.4705 25.8078 12.8306 25.3253 12.467 25.2344C12.3839 25.2141 12.2961 25.2273 12.2227 25.2712C12.1492 25.315 12.096 25.386 12.0744 25.4688C12.0528 25.5515 12.0647 25.6395 12.1074 25.7136C12.1501 25.7877 12.2202 25.8421 12.3027 25.8649C12.3564 25.8818 12.7754 26.041 12.6462 26.8848C12.6331 26.9701 12.6545 27.0572 12.7056 27.1268C12.7567 27.1964 12.8333 27.243 12.9186 27.2562C12.9352 27.2587 12.952 27.2599 12.9687 27.2599Z" fill="#E5837C"/>
<path d="M10.1088 25.6952C10.1368 25.728 10.158 25.7661 10.1712 25.8072C10.1844 25.8484 10.1892 25.8917 10.1855 25.9347C10.1818 25.9778 10.1695 26.0196 10.1495 26.0579C10.1295 26.0961 10.102 26.13 10.0687 26.1576C10.0355 26.1851 9.99709 26.2058 9.95577 26.2183C9.91446 26.2309 9.87105 26.2352 9.82808 26.2308C9.78512 26.2265 9.74344 26.2136 9.70549 26.193C9.66753 26.1724 9.63404 26.1445 9.60698 26.1108C9.52307 26.0095 9.44058 25.9012 9.36165 25.7887C7.59526 23.2702 7.77058 21.2453 8.22853 19.9902C8.51778 19.1979 8.98888 18.4845 9.60397 17.9074C10.1279 16.2341 10.9377 14.9529 12.0116 14.0983C13.4831 12.9275 15.4061 12.5984 17.7281 13.12C23.7724 14.4782 25.2939 18.6083 25.6628 20.9493C25.6975 21.166 25.6707 21.3881 25.5855 21.5904C25.5003 21.7927 25.3601 21.967 25.1809 22.0937C25.0017 22.2204 24.7905 22.2943 24.5714 22.307C24.3523 22.3198 24.134 22.2709 23.9413 22.1659C23.71 22.041 23.4863 21.9024 23.2714 21.7509C23.2224 21.9338 23.1253 22.1001 22.99 22.2326C22.8336 22.3899 22.6309 22.4931 22.4116 22.5271C22.1923 22.5611 21.9679 22.524 21.7711 22.4214C20.0065 21.5275 17.7912 20.7807 16.6268 20.4149C16.6759 20.5479 16.7146 20.6846 16.7426 20.8237C16.7726 20.9742 16.7643 21.1299 16.7185 21.2764C16.6727 21.4229 16.5907 21.5556 16.4802 21.6621C16.3697 21.7687 16.2341 21.8458 16.0861 21.8863C15.938 21.9268 15.7821 21.9294 15.6327 21.8938C15.4635 21.8508 15.2986 21.7926 15.1398 21.7198C15.3386 22.454 15.5195 23.5776 15.2397 24.7329C15.2299 24.7748 15.212 24.8144 15.1868 24.8493C15.1617 24.8843 15.1299 24.9139 15.0933 24.9364C15.0567 24.959 15.0159 24.9741 14.9734 24.9808C14.9309 24.9876 14.8875 24.9858 14.8457 24.9757C14.8039 24.9656 14.7645 24.9473 14.7298 24.9218C14.6951 24.8964 14.6657 24.8644 14.6435 24.8275C14.6212 24.7907 14.6065 24.7498 14.6001 24.7073C14.5937 24.6647 14.5959 24.6213 14.6063 24.5796C15.0208 22.8682 14.2638 21.1616 14.2563 21.145C14.2269 21.0803 14.2195 21.0077 14.2352 20.9384C14.2509 20.8691 14.2888 20.8069 14.3432 20.7611C14.3975 20.7153 14.4654 20.6886 14.5363 20.685C14.6073 20.6813 14.6775 20.701 14.7363 20.741C15.0545 20.9737 15.4105 21.1496 15.7886 21.2611C15.8307 21.2713 15.8747 21.2705 15.9164 21.2588C15.9581 21.2472 15.9961 21.2251 16.0269 21.1947C16.0592 21.1644 16.0833 21.1264 16.0969 21.0842C16.1105 21.042 16.113 20.997 16.1044 20.9535C16.0491 20.6363 15.9073 20.3404 15.6947 20.0985C15.6411 20.0488 15.6058 19.9824 15.5945 19.9102C15.5832 19.838 15.5965 19.764 15.6323 19.7003C15.6681 19.6365 15.7243 19.5866 15.7919 19.5587C15.8594 19.5308 15.9344 19.5264 16.0048 19.5462C16.0396 19.5556 19.5067 20.5442 22.0659 21.8407C22.1407 21.8811 22.2267 21.8961 22.3108 21.8833C22.3949 21.8705 22.4725 21.8307 22.5319 21.7698C22.594 21.7105 22.635 21.6325 22.6489 21.5477C22.6627 21.463 22.6485 21.376 22.6085 21.3C22.5647 21.2104 22.5151 21.1237 22.46 21.0404C22.414 20.9714 22.396 20.8874 22.4098 20.8055C22.4235 20.7236 22.468 20.6501 22.5342 20.6C22.6003 20.5498 22.6831 20.5268 22.7656 20.5356C22.8482 20.5444 22.9242 20.5843 22.9783 20.6473C22.9824 20.6521 23.405 21.1352 24.2518 21.5937C24.3377 21.6409 24.4351 21.663 24.5329 21.6575C24.6307 21.652 24.725 21.6191 24.805 21.5626C24.885 21.506 24.9475 21.4282 24.9854 21.3378C25.0233 21.2475 25.0351 21.1483 25.0193 21.0516C24.6761 18.8739 23.254 15.0304 17.5853 13.7567C12.9157 12.7077 10.9917 15.5872 10.2003 18.1879C10.1813 18.2497 10.1445 18.3046 10.0944 18.3455C9.96063 18.4551 6.85394 21.0783 9.89571 25.4157C9.96411 25.5128 10.036 25.6072 10.1088 25.6952Z" fill="#3C3C4F"/>
<path d="M10.7702 27.2458C10.6741 26.9094 10.6383 26.5586 10.6644 26.2098C10.7693 24.8059 11.4536 24.0313 12.5396 24.0826C12.7784 24.0869 13.0137 24.1402 13.2311 24.2391C13.4485 24.338 13.6433 24.4805 13.8034 24.6576C13.9938 24.876 14.1393 25.1297 14.2317 25.4044C14.4915 25.7631 14.8869 26.0549 15.4091 26.2717C16.5527 26.6058 17.6867 26.4174 18.2626 26.2746C18.462 26.2249 18.6519 26.1428 18.8247 26.0315C19.7411 25.4438 20.6141 25.0209 22.0171 25.8045C22.5345 26.1025 23.1143 26.2757 23.7103 26.3104C23.6376 25.4178 23.5944 24.3222 23.5816 23.0466C23.5808 22.9603 23.6143 22.8771 23.6748 22.8154C23.7353 22.7538 23.8178 22.7186 23.9042 22.7178H23.9076C23.9934 22.7178 24.0758 22.7517 24.1368 22.8121C24.1977 22.8725 24.2324 22.9545 24.2333 23.0403C24.2465 24.3661 24.2928 25.4926 24.3711 26.3927C24.4991 26.4532 24.6104 26.544 24.6954 26.6572C24.7803 26.7705 24.8363 26.9028 24.8585 27.0426C25.0325 28.1958 25.0407 29.368 24.8828 30.5235C24.7735 31.3654 24.3846 32.1463 23.7786 32.7408C23.1058 33.3909 21.8556 34.1659 19.7196 34.1659C19.2897 34.1673 18.8604 34.1359 18.4353 34.0719C18.4197 34.8071 18.4213 35.8723 18.4976 37.1031C18.5029 37.1884 18.4745 37.2723 18.4185 37.3368C18.3625 37.4013 18.2834 37.4413 18.1983 37.4481C18.1843 37.4491 18.0752 37.4575 17.893 37.4575C17.1519 37.4533 16.4153 37.3434 15.7053 37.1311C13.9158 36.5937 12.5642 35.4426 11.7967 33.8021C11.635 33.4511 11.5604 33.0663 11.5792 32.6803C11.6141 31.8966 11.6605 30.3408 11.5852 28.659C11.2257 28.3456 10.9469 27.8695 10.7702 27.2458ZM23.3253 32.2717C23.7324 31.8732 24.0217 31.3701 24.1615 30.8178C23.4603 31.1507 22.7202 31.3948 21.9585 31.5446C21.9163 31.5535 21.8727 31.554 21.8302 31.5459C21.7878 31.5378 21.7474 31.5214 21.7114 31.4976C21.6754 31.4738 21.6444 31.4431 21.6204 31.4072C21.5964 31.3713 21.5797 31.331 21.5714 31.2887C21.563 31.2463 21.5632 31.2027 21.5719 31.1604C21.5805 31.1181 21.5975 31.0779 21.6219 31.0422C21.6462 31.0066 21.6774 30.9761 21.7136 30.9525C21.7498 30.929 21.7903 30.9129 21.8328 30.9052C22.692 30.7404 23.5196 30.4406 24.2851 30.0171C24.3265 29.5978 24.346 29.1766 24.3434 28.7553C23.7557 28.9714 22.4564 29.3551 20.654 29.3551C19.6226 29.3527 18.5949 29.2321 17.591 28.9957C17.5489 28.9864 17.509 28.9689 17.4738 28.9441C17.4385 28.9193 17.4085 28.8878 17.3855 28.8513C17.3625 28.8149 17.3469 28.7742 17.3398 28.7317C17.3326 28.6891 17.3339 28.6456 17.3437 28.6036C17.3535 28.5616 17.3715 28.522 17.3967 28.487C17.4219 28.452 17.4538 28.4224 17.4905 28.3998C17.5273 28.3773 17.5681 28.3622 17.6107 28.3556C17.6533 28.3489 17.6968 28.3508 17.7387 28.361C21.2676 29.1822 23.8094 28.2716 24.3171 28.0652C24.2969 27.7672 24.2639 27.4591 24.2138 27.1444C24.2069 27.0931 24.1812 27.0461 24.1417 27.0127C24.1022 26.9792 24.0517 26.9616 23.9999 26.9632C23.1929 26.9821 22.3963 26.7778 21.698 26.373C20.6007 25.7604 20.0128 26.0424 19.1748 26.5797C18.9421 26.7294 18.6864 26.8398 18.4179 26.9067C17.6075 27.1101 16.766 27.159 15.9375 27.0507C16.2907 27.758 16.7419 28.9254 16.5366 29.9735C17.2956 30.45 18.1379 30.7786 19.019 30.9419C19.0989 30.9566 19.1705 31.0006 19.2196 31.0653C19.2688 31.13 19.292 31.2107 19.2848 31.2917C19.2775 31.3726 19.2403 31.4479 19.1803 31.5028C19.1204 31.5577 19.0422 31.5883 18.9609 31.5885C18.9412 31.5884 18.9216 31.5866 18.9022 31.5831C17.9891 31.4144 17.1138 31.0825 16.3184 30.6034C16.1127 30.9914 15.8008 31.3127 15.4191 31.5298C15.7341 32.1142 16.7941 33.5133 19.7181 33.5133C21.2377 33.5138 22.4846 33.0843 23.3253 32.2717ZM12.2301 32.7083C12.216 32.9891 12.2697 33.2691 12.3868 33.5247C13.792 36.5283 16.831 36.8007 17.8278 36.8062C17.766 35.6317 17.7693 34.6264 17.7862 33.9405C15.5731 33.378 14.8627 31.9265 14.7176 31.5647C14.2396 31.0909 13.7952 30.5844 13.3877 30.0488C13.3358 29.9797 13.3134 29.8928 13.3256 29.8072C13.3377 29.7217 13.3833 29.6444 13.4524 29.5925C13.4866 29.5668 13.5256 29.548 13.567 29.5374C13.6085 29.5267 13.6516 29.5243 13.694 29.5303C13.7795 29.5425 13.8568 29.5881 13.9087 29.6572C14.2636 30.1242 14.6484 30.5678 15.0605 30.9853C15.2537 30.8835 15.4244 30.7438 15.5622 30.5744C15.7001 30.4051 15.8022 30.2097 15.8627 29.9998C16.2065 28.8003 15.2989 27.2027 15.0766 26.8365C14.8478 26.7374 14.6288 26.6169 14.4228 26.4764C14.4268 26.6071 14.4228 26.6915 14.4218 26.7045C14.4143 26.8296 14.4021 26.953 14.3855 27.0709C14.38 27.1137 14.3661 27.155 14.3445 27.1923C14.323 27.2297 14.2943 27.2624 14.26 27.2886C14.2257 27.3148 14.1866 27.3339 14.1448 27.3448C14.1031 27.3557 14.0596 27.3583 14.0169 27.3523C13.9742 27.3463 13.9331 27.3318 13.896 27.3098C13.8589 27.2878 13.8266 27.2587 13.8008 27.2241C13.7751 27.1895 13.7565 27.1501 13.746 27.1082C13.7356 27.0664 13.7336 27.0229 13.7402 26.9802C13.7544 26.8791 13.7648 26.7735 13.7712 26.6667C13.7712 26.6566 13.8195 25.6469 13.3175 25.0913C13.2146 24.979 13.0896 24.8892 12.9504 24.8275C12.8112 24.7659 12.6607 24.7337 12.5084 24.733C11.618 24.6893 11.3679 25.5387 11.3141 26.258C11.2939 26.5305 11.322 26.8045 11.3971 27.0672C11.5698 27.6755 11.9341 28.4066 12.6888 28.4343C12.7989 28.4381 12.9085 28.4174 13.0097 28.3737C13.0889 28.3406 13.1781 28.3401 13.2577 28.3723C13.3374 28.4046 13.401 28.467 13.4349 28.546C13.4687 28.625 13.47 28.7141 13.4384 28.794C13.4069 28.8739 13.345 28.9382 13.2663 28.9727C13.0927 29.0477 12.9056 29.0865 12.7165 29.0866C12.6993 29.0866 12.682 29.0866 12.6648 29.0856C12.5249 29.0803 12.3862 29.0584 12.2514 29.0203C12.3053 30.5739 12.2628 31.9749 12.2301 32.7083Z" fill="#3C3C4F"/>
<path d="M20.4807 31.0549C20.5382 31.0535 20.5954 31.0515 20.6522 31.0489C20.6953 31.0463 20.7385 31.0524 20.7793 31.0666C20.82 31.0808 20.8575 31.103 20.8896 31.1319C20.9217 31.1608 20.9478 31.1957 20.9662 31.2348C20.9847 31.2738 20.9952 31.3161 20.9972 31.3592C20.9992 31.4023 20.9926 31.4454 20.9778 31.486C20.963 31.5265 20.9403 31.5637 20.911 31.5954C20.8816 31.6271 20.8463 31.6527 20.8071 31.6706C20.7678 31.6885 20.7254 31.6985 20.6822 31.6999C20.6206 31.7027 20.5585 31.7049 20.496 31.7064H20.4881C20.4024 31.7063 20.3202 31.6725 20.2593 31.6122C20.1983 31.5519 20.1636 31.47 20.1627 31.3843C20.1617 31.2986 20.1945 31.216 20.254 31.1543C20.3136 31.0926 20.395 31.0569 20.4807 31.0548V31.0549Z" fill="#3C3C4F"/>
<path d="M15.7525 47.7525C15.6158 47.8892 15.6158 48.1108 15.7525 48.2475L17.9799 50.4749C18.1166 50.6116 18.3382 50.6116 18.4749 50.4749C18.6116 50.3382 18.6116 50.1166 18.4749 49.9799L16.495 48L18.4749 46.0201C18.6116 45.8834 18.6116 45.6618 18.4749 45.5251C18.3382 45.3884 18.1166 45.3884 17.9799 45.5251L15.7525 47.7525ZM44.2475 48.2475C44.3842 48.1108 44.3842 47.8892 44.2475 47.7525L42.0201 45.5251C41.8834 45.3884 41.6618 45.3884 41.5251 45.5251C41.3884 45.6618 41.3884 45.8834 41.5251 46.0201L43.505 48L41.5251 49.9799C41.3884 50.1166 41.3884 50.3382 41.5251 50.4749C41.6618 50.6116 41.8834 50.6116 42.0201 50.4749L44.2475 48.2475ZM16 48.35L44 48.35V47.65L16 47.65V48.35Z" fill="black"/>
<path d="M26.485 43.21C26.805 42.9433 27.06 42.7217 27.25 42.545C27.44 42.365 27.5983 42.1783 27.725 41.985C27.8517 41.7917 27.915 41.6017 27.915 41.415C27.915 41.245 27.875 41.1117 27.795 41.015C27.715 40.9183 27.5917 40.87 27.425 40.87C27.2583 40.87 27.13 40.9267 27.04 41.04C26.95 41.15 26.9033 41.3017 26.9 41.495H26.22C26.2333 41.095 26.3517 40.7917 26.575 40.585C26.8017 40.3783 27.0883 40.275 27.435 40.275C27.815 40.275 28.1067 40.3767 28.31 40.58C28.5133 40.78 28.615 41.045 28.615 41.375C28.615 41.635 28.545 41.8833 28.405 42.12C28.265 42.3567 28.105 42.5633 27.925 42.74C27.745 42.9133 27.51 43.1233 27.22 43.37H28.695V43.95H26.225V43.43L26.485 43.21ZM34.2125 40.51V44H33.5125V41.73L32.5775 44H32.0475L31.1075 41.73V44H30.4075V40.51H31.2025L32.3125 43.105L33.4225 40.51H34.2125Z" fill="#5C5C6D"/>
<path d="M77.646 35.084C77.086 35.084 76.568 34.9627 76.092 34.72C75.616 34.4773 75.2287 34.132 74.93 33.684L75.546 32.984C76.0873 33.7867 76.792 34.188 77.66 34.188C78.8733 34.188 79.48 33.4693 79.48 32.032V26.096H75.896V25.2H80.502V31.99C80.502 33.0167 80.2593 33.7913 79.774 34.314C79.298 34.8273 78.5887 35.084 77.646 35.084ZM87.3757 27.58C88.337 27.58 89.0743 27.8227 89.5877 28.308C90.101 28.784 90.3577 29.4933 90.3577 30.436V35H89.4057V33.852C89.1817 34.2347 88.8503 34.5333 88.4117 34.748C87.9823 34.9627 87.469 35.07 86.8717 35.07C86.0503 35.07 85.397 34.874 84.9117 34.482C84.4263 34.09 84.1837 33.572 84.1837 32.928C84.1837 32.3027 84.4077 31.7987 84.8557 31.416C85.313 31.0333 86.0363 30.842 87.0257 30.842H89.3637V30.394C89.3637 29.7593 89.1863 29.2787 88.8317 28.952C88.477 28.616 87.959 28.448 87.2777 28.448C86.811 28.448 86.363 28.5273 85.9337 28.686C85.5043 28.8353 85.1357 29.0453 84.8277 29.316L84.3797 28.574C84.753 28.2567 85.201 28.014 85.7237 27.846C86.2463 27.6687 86.797 27.58 87.3757 27.58ZM87.0257 34.286C87.5857 34.286 88.0663 34.16 88.4677 33.908C88.869 33.6467 89.1677 33.2733 89.3637 32.788V31.584H87.0537C85.7937 31.584 85.1637 32.0227 85.1637 32.9C85.1637 33.3293 85.327 33.67 85.6537 33.922C85.9803 34.1647 86.4377 34.286 87.0257 34.286ZM101.303 27.636V34.104C101.303 35.3547 100.995 36.2787 100.379 36.876C99.7722 37.4827 98.8528 37.786 97.6208 37.786C96.9395 37.786 96.2908 37.6833 95.6748 37.478C95.0682 37.282 94.5735 37.0067 94.1908 36.652L94.6948 35.896C95.0495 36.2133 95.4788 36.4607 95.9828 36.638C96.4962 36.8153 97.0328 36.904 97.5928 36.904C98.5262 36.904 99.2122 36.6847 99.6508 36.246C100.089 35.8167 100.309 35.1447 100.309 34.23V33.292C100.001 33.7587 99.5948 34.1133 99.0908 34.356C98.5962 34.5987 98.0455 34.72 97.4388 34.72C96.7482 34.72 96.1182 34.5707 95.5488 34.272C94.9888 33.964 94.5455 33.5393 94.2188 32.998C93.9015 32.4473 93.7428 31.8267 93.7428 31.136C93.7428 30.4453 93.9015 29.8293 94.2188 29.288C94.5455 28.7467 94.9888 28.3267 95.5488 28.028C96.1088 27.7293 96.7388 27.58 97.4388 27.58C98.0642 27.58 98.6288 27.706 99.1328 27.958C99.6368 28.21 100.043 28.574 100.351 29.05V27.636H101.303ZM97.5368 33.838C98.0688 33.838 98.5495 33.726 98.9788 33.502C99.4082 33.2687 99.7395 32.9467 99.9728 32.536C100.215 32.1253 100.337 31.6587 100.337 31.136C100.337 30.6133 100.215 30.1513 99.9728 29.75C99.7395 29.3393 99.4082 29.022 98.9788 28.798C98.5588 28.5647 98.0782 28.448 97.5368 28.448C97.0048 28.448 96.5242 28.56 96.0948 28.784C95.6748 29.008 95.3435 29.3253 95.1008 29.736C94.8675 30.1467 94.7508 30.6133 94.7508 31.136C94.7508 31.6587 94.8675 32.1253 95.1008 32.536C95.3435 32.9467 95.6748 33.2687 96.0948 33.502C96.5242 33.726 97.0048 33.838 97.5368 33.838ZM108.058 27.58C109.02 27.58 109.757 27.8227 110.27 28.308C110.784 28.784 111.04 29.4933 111.04 30.436V35H110.088V33.852C109.864 34.2347 109.533 34.5333 109.094 34.748C108.665 34.9627 108.152 35.07 107.554 35.07C106.733 35.07 106.08 34.874 105.594 34.482C105.109 34.09 104.866 33.572 104.866 32.928C104.866 32.3027 105.09 31.7987 105.538 31.416C105.996 31.0333 106.719 30.842 107.708 30.842H110.046V30.394C110.046 29.7593 109.869 29.2787 109.514 28.952C109.16 28.616 108.642 28.448 107.96 28.448C107.494 28.448 107.046 28.5273 106.616 28.686C106.187 28.8353 105.818 29.0453 105.51 29.316L105.062 28.574C105.436 28.2567 105.884 28.014 106.406 27.846C106.929 27.6687 107.48 27.58 108.058 27.58ZM107.708 34.286C108.268 34.286 108.749 34.16 109.15 33.908C109.552 33.6467 109.85 33.2733 110.046 32.788V31.584H107.736C106.476 31.584 105.846 32.0227 105.846 32.9C105.846 33.3293 106.01 33.67 106.336 33.922C106.663 34.1647 107.12 34.286 107.708 34.286ZM121.464 35.084C120.904 35.084 120.386 34.9627 119.91 34.72C119.434 34.4773 119.047 34.132 118.748 33.684L119.364 32.984C119.906 33.7867 120.61 34.188 121.478 34.188C122.692 34.188 123.298 33.4693 123.298 32.032V26.096H119.714V25.2H124.32V31.99C124.32 33.0167 124.078 33.7913 123.592 34.314C123.116 34.8273 122.407 35.084 121.464 35.084ZM131.194 27.58C132.155 27.58 132.893 27.8227 133.406 28.308C133.919 28.784 134.176 29.4933 134.176 30.436V35H133.224V33.852C133 34.2347 132.669 34.5333 132.23 34.748C131.801 34.9627 131.287 35.07 130.69 35.07C129.869 35.07 129.215 34.874 128.73 34.482C128.245 34.09 128.002 33.572 128.002 32.928C128.002 32.3027 128.226 31.7987 128.674 31.416C129.131 31.0333 129.855 30.842 130.844 30.842H133.182V30.394C133.182 29.7593 133.005 29.2787 132.65 28.952C132.295 28.616 131.777 28.448 131.096 28.448C130.629 28.448 130.181 28.5273 129.752 28.686C129.323 28.8353 128.954 29.0453 128.646 29.316L128.198 28.574C128.571 28.2567 129.019 28.014 129.542 27.846C130.065 27.6687 130.615 27.58 131.194 27.58ZM130.844 34.286C131.404 34.286 131.885 34.16 132.286 33.908C132.687 33.6467 132.986 33.2733 133.182 32.788V31.584H130.872C129.612 31.584 128.982 32.0227 128.982 32.9C128.982 33.3293 129.145 33.67 129.472 33.922C129.799 34.1647 130.256 34.286 130.844 34.286ZM139.228 29.078C139.461 28.5833 139.807 28.21 140.264 27.958C140.731 27.706 141.305 27.58 141.986 27.58V28.546L141.748 28.532C140.973 28.532 140.367 28.77 139.928 29.246C139.489 29.722 139.27 30.3893 139.27 31.248V35H138.276V27.636H139.228V29.078ZM147.748 27.58C148.709 27.58 149.447 27.8227 149.96 28.308C150.473 28.784 150.73 29.4933 150.73 30.436V35H149.778V33.852C149.554 34.2347 149.223 34.5333 148.784 34.748C148.355 34.9627 147.841 35.07 147.244 35.07C146.423 35.07 145.769 34.874 145.284 34.482C144.799 34.09 144.556 33.572 144.556 32.928C144.556 32.3027 144.78 31.7987 145.228 31.416C145.685 31.0333 146.409 30.842 147.398 30.842H149.736V30.394C149.736 29.7593 149.559 29.2787 149.204 28.952C148.849 28.616 148.331 28.448 147.65 28.448C147.183 28.448 146.735 28.5273 146.306 28.686C145.877 28.8353 145.508 29.0453 145.2 29.316L144.752 28.574C145.125 28.2567 145.573 28.014 146.096 27.846C146.619 27.6687 147.169 27.58 147.748 27.58ZM147.398 34.286C147.958 34.286 148.439 34.16 148.84 33.908C149.241 33.6467 149.54 33.2733 149.736 32.788V31.584H147.426C146.166 31.584 145.536 32.0227 145.536 32.9C145.536 33.3293 145.699 33.67 146.026 33.922C146.353 34.1647 146.81 34.286 147.398 34.286ZM157.56 31.304L155.824 32.9V35H154.83V24.612H155.824V31.654L160.22 27.636H161.452L158.302 30.646L161.746 35H160.528L157.56 31.304Z" fill="#1D1313"/>
</svg>
